<?xml version="1.0" encoding="UTF-8" standalone="no"?>
<!-- Created with Inkscape (http://www.inkscape.org/) -->

<svg
   width="60.959999mm"
   height="128.5mm"
   viewBox="0 0 60.960004 128.50002"
   version="1.1"
   id="svg8"
   inkscape:version="1.2 (dc2aeda, 2022-05-15)"
   sodipodi:docname="Alloy.svg"
   xml:space="preserve"
   xmlns:inkscape="http://www.inkscape.org/namespaces/inkscape"
   xmlns:sodipodi="http://sodipodi.sourceforge.net/DTD/sodipodi-0.dtd"
   xmlns="http://www.w3.org/2000/svg"
   xmlns:svg="http://www.w3.org/2000/svg"
   xmlns:rdf="http://www.w3.org/1999/02/22-rdf-syntax-ns#"
   xmlns:cc="http://creativecommons.org/ns#"
   xmlns:dc="http://purl.org/dc/elements/1.1/"><defs
     id="defs2"><linearGradient
       id="_Linear1"
       x1="0"
       y1="0"
       x2="1"
       y2="-0.0028738601"
       gradientUnits="userSpaceOnUse"
       gradientTransform="matrix(75.07254,292.27101,-293.02254,74.879903,36.973994,42.144002)"><stop
         offset="0"
         style="stop-color:#e6e6e6;stop-opacity:1"
         id="stop1" /><stop
         offset="1"
         style="stop-color:#e6e6e6;stop-opacity:0"
         id="stop2" /></linearGradient></defs><sodipodi:namedview
     id="base"
     pagecolor="#ffffff"
     bordercolor="#666666"
     borderopacity="1.0"
     inkscape:pageopacity="0.0"
     inkscape:pageshadow="2"
     inkscape:zoom="1.077813"
     inkscape:cx="73.296574"
     inkscape:cy="210.61167"
     inkscape:document-units="mm"
     inkscape:current-layer="svg8"
     showgrid="false"
     units="mm"
     inkscape:snap-bbox="true"
     inkscape:snap-page="true"
     inkscape:bbox-nodes="false"
     inkscape:snap-bbox-edge-midpoints="false"
     inkscape:window-width="1432"
     inkscape:window-height="916"
     inkscape:window-x="22"
     inkscape:window-y="38"
     inkscape:window-maximized="0"
     inkscape:snap-bbox-midpoints="true"
     inkscape:snap-nodes="false"
     inkscape:showpageshadow="2"
     inkscape:pagecheckerboard="0"
     inkscape:deskcolor="#d1d1d1"
     showguides="true" /><metadata
     id="metadata5"><rdf:RDF><cc:Work
         rdf:about=""><dc:format>image/svg+xml</dc:format><dc:type
           rdf:resource="http://purl.org/dc/dcmitype/StillImage" /></cc:Work></rdf:RDF></metadata><rect
     id="rect1"
     x="-0.1"
     y="-0.53587371"
     width="61.210564"
     height="129.94316"
     style="clip-rule:evenodd;display:inline;fill:#e5e5e5;fill-rule:evenodd;stroke-width:0.387701;stroke-linejoin:round;stroke-miterlimit:1.5;fill-opacity:1" /><rect
     style="fill:#666666;fill-opacity:1;stroke:#000000;stroke-width:0.352778;stroke-linejoin:round;stroke-dasharray:none;stroke-opacity:1"
     id="rect2036"
     width="13.1668"
     height="30.503313"
     x="44.265388"
     y="48.952"
     rx="5"
     ry="5" /><path
     id="path128"
     d="m 27.325354,125.27969 c 0.05984,0.1268 0.07943,0.25396 0.05842,0.38219 H 26.96454 c -0.0064,-0.0983 -0.02565,-0.1724 -0.05842,-0.22226 -0.05735,-0.0891 -0.160997,-0.13358 -0.310596,-0.13358 -0.152449,0 -0.28602,0.0627 -0.400001,0.18843 -0.114337,0.12538 -0.195192,0.30276 -0.242921,0.5325 -0.04809,0.22974 -0.03776,0.40143 0.0317,0.51612 0.0691,0.11434 0.175245,0.17133 0.318433,0.17133 0.147106,0 0.269635,-0.0492 0.367587,-0.14747 0.05378,-0.0524 0.105432,-0.13179 0.155299,-0.23722 h 0.415316 c -0.08264,0.22333 -0.213357,0.40463 -0.391452,0.54462 -0.17845,0.13927 -0.384328,0.20944 -0.617632,0.20944 -0.288513,0 -0.495815,-0.0944 -0.621906,-0.28318 -0.125379,-0.18984 -0.153161,-0.44986 -0.08442,-0.78076 0.07409,-0.35726 0.225468,-0.63295 0.453429,-0.82636 0.198754,-0.16848 0.424221,-0.2529 0.676403,-0.2529 0.337668,0 0.560642,0.11327 0.669992,0.3391 z"
     style="clip-rule:evenodd;fill:#000000;fill-rule:nonzero;stroke-width:0.356189;stroke-linejoin:round;stroke-miterlimit:1.5" /><path
     id="path129"
     d="m 28.253583,126.53419 0.764026,-1.55441 h 0.435619 l -1.110954,2.04666 h -0.396082 l -0.252182,-2.04666 h 0.448442 z"
     style="clip-rule:evenodd;fill:#000000;fill-rule:nonzero;stroke-width:0.356189;stroke-linejoin:round;stroke-miterlimit:1.5" /><path
     id="path130"
     d="m 31.036489,125.52688 -0.05877,0.27925 h -0.253963 l -0.253607,1.22031 h -0.386465 l 0.253607,-1.22031 h -0.216919 l 0.05842,-0.27925 h 0.212645 l 0.01995,-0.0972 c 0.03419,-0.16206 0.08406,-0.27355 0.149956,-0.33482 0.07551,-0.0905 0.220481,-0.13606 0.435619,-0.13606 0.02458,0 0.04666,7.1e-4 0.06625,0.002 0.01959,10e-4 0.04666,0.004 0.08121,0.006 l -0.06803,0.32271 c -0.02102,-0.003 -0.05699,-0.005 -0.107569,-0.006 -0.05093,-0.001 -0.08905,0.01 -0.11398,0.0346 -0.02493,0.0246 -0.03989,0.0516 -0.04559,0.0812 -0.0064,0.0299 -0.01532,0.0723 -0.02743,0.12787 z"
     style="clip-rule:evenodd;fill:#000000;fill-rule:nonzero;stroke-width:0.356189;stroke-linejoin:round;stroke-miterlimit:1.5" /><path
     id="path131"
     d="m 31.943347,126.81308 c -0.0043,0.005 -0.01639,0.0185 -0.03562,0.0417 -0.01888,0.0232 -0.04025,0.0431 -0.06376,0.0609 -0.07266,0.0556 -0.139626,0.0933 -0.200891,0.11363 -0.06091,0.0203 -0.129652,0.0306 -0.206233,0.0306 -0.219413,0 -0.350846,-0.0801 -0.393233,-0.2415 -0.02387,-0.0887 -0.01745,-0.21976 0.01888,-0.39287 l 0.189493,-0.91256 h 0.397151 l -0.189137,0.91256 c -0.01816,0.0862 -0.02173,0.15067 -0.01104,0.19448 0.01923,0.0769 0.0805,0.1154 0.183794,0.1154 0.132502,0 0.234729,-0.0548 0.306679,-0.1642 0.03811,-0.0591 0.06732,-0.13749 0.08727,-0.23437 l 0.171327,-0.82387 h 0.393233 l -0.314515,1.51345 h -0.376848 z"
     style="clip-rule:evenodd;fill:#000000;fill-rule:nonzero;stroke-width:0.356189;stroke-linejoin:round;stroke-miterlimit:1.5" /><path
     id="path132"
     d="m 33.789475,126.1064 c 0.0171,-0.0798 0.01959,-0.14105 0.0068,-0.18344 -0.02173,-0.078 -0.08584,-0.11683 -0.193055,-0.11683 -0.13179,0 -0.234016,0.057 -0.306322,0.17062 -0.03847,0.0606 -0.06696,0.13749 -0.08584,0.23081 l -0.170258,0.81888 h -0.386466 l 0.314159,-1.51096 h 0.374711 l -0.0463,0.22084 c 0.06589,-0.0773 0.125022,-0.13357 0.177026,-0.16776 0.09225,-0.0613 0.200178,-0.0915 0.322351,-0.0915 0.153518,0 0.270348,0.0406 0.350846,0.12288 0.08014,0.0819 0.100802,0.21763 0.06162,0.40748 l -0.212289,1.01906 h -0.397507 z"
     style="clip-rule:evenodd;fill:#000000;fill-rule:nonzero;stroke-width:0.356189;stroke-linejoin:round;stroke-miterlimit:1.5" /><path
     id="path133"
     d="m 34.829548,126.55093 -0.0976,0.47551 h -0.381479 l 0.424934,-2.0399 h 0.381122 l -0.230454,1.10312 0.601961,-0.5699 h 0.480853 l -0.64007,0.57952 0.346929,0.92716 h -0.468389 l -0.220126,-0.64684 z"
     style="clip-rule:evenodd;fill:#000000;fill-rule:nonzero;stroke-width:0.356189;stroke-linejoin:round;stroke-miterlimit:1.5" /><path
     id="path134"
     d="m 18.044133,126.01237 h 6.622269"
     style="clip-rule:evenodd;fill:#000000;fill-rule:evenodd;stroke:#000000;stroke-width:0.227961px;stroke-linecap:round;stroke-linejoin:round;stroke-miterlimit:1.5" /><path
     id="path135"
     d="m 36.354749,126.01237 h 6.622258"
     style="clip-rule:evenodd;fill:none;fill-rule:evenodd;stroke:#000000;stroke-width:0.227961px;stroke-linecap:round;stroke-linejoin:round;stroke-miterlimit:1.5" /><g
     aria-label="ALLOY"
     id="text468"
     style="font-style:italic;font-size:5.64444px;font-family:Menlo;-inkscape-font-specification:'Menlo Italic';text-align:center;text-anchor:middle;fill:#e5e5e5;stroke-width:0.705556;stroke-linecap:round;stroke-linejoin:round;paint-order:fill markers stroke"><path
       d="m 23.997714,2.7068446 -1.003212,2.1332015 h 1.185112 z M 23.73313,2.2438241 h 0.677995 l 0.457508,4.114819 h -0.553971 l -0.09646,-1.0721129 h -1.433158 l -0.507118,1.0721129 h -0.598068 z"
       id="path520"
       style="fill:#000000" /><path
       d="m 26.38723,2.2438241 h 0.556727 L 26.23289,5.8901104 h 1.987129 l -0.09095,0.4685327 h -2.543857 z"
       id="path522"
       style="fill:#000000" /><path
       d="m 29.78547,2.2438241 h 0.556727 l -0.711068,3.6462863 h 1.98713 l -0.09095,0.4685327 h -2.543857 z"
       id="path524"
       style="fill:#000000" /><path
       d="m 33.550268,5.986573 q 0.234266,0 0.432703,-0.1405598 0.198438,-0.1405598 0.327973,-0.4023868 0.20395,-0.3996308 0.330729,-0.9673821 0.126779,-0.5677513 0.126779,-1.0914054 0,-0.3913626 -0.146072,-0.5760195 -0.143315,-0.1874131 -0.446484,-0.1874131 -0.234266,0 -0.429947,0.1405598 -0.195681,0.1405598 -0.325217,0.4023868 -0.209462,0.405143 -0.336241,0.9673821 -0.126779,0.5622392 -0.126779,1.0858933 0,0.3941186 0.143315,0.5815317 0.146072,0.187413 0.449241,0.187413 z M 35.33896,3.5474473 q 0,0.3031681 -0.06339,0.6587017 -0.06063,0.3555336 -0.179145,0.7303597 -0.07993,0.2535589 -0.173632,0.4547523 -0.09095,0.2011934 -0.198438,0.3638018 -0.242534,0.3500214 -0.542946,0.518142 -0.300413,0.1653644 -0.700043,0.1653644 -0.553971,0 -0.82131,-0.3389971 -0.26734,-0.3389972 -0.26734,-1.0445522 0,-0.3059242 0.05788,-0.6559457 0.06063,-0.3527775 0.179145,-0.7276036 0.07993,-0.2535588 0.170876,-0.4547523 0.09371,-0.2011934 0.201194,-0.3638018 0.242534,-0.3500214 0.542946,-0.5153859 0.300412,-0.1681205 0.700043,-0.1681205 0.556727,0 0.824066,0.3389972 0.270096,0.336241 0.270096,1.03904 z"
       id="path526"
       style="fill:#000000" /><path
       d="m 36.102392,2.2438241 h 0.556727 l 0.650433,1.7942044 1.369769,-1.7942044 h 0.600825 l -1.750108,2.2682492 -0.355533,1.8465698 h -0.570508 l 0.361046,-1.8465698 z"
       id="path528"
       style="fill:#000000" /></g><g
     aria-label="IN"
     id="text744"
     style="font-style:italic;font-size:2.82222px;font-family:Menlo;-inkscape-font-specification:'Menlo Italic';text-align:center;text-anchor:middle;opacity:1;fill:#e5e5e5;stroke-width:0.705556;stroke-linecap:round;stroke-linejoin:round;paint-order:fill markers stroke"><path
       d="m 8.1668832,22.142939 h 1.1437717 l -0.045475,0.234266 h -0.432704 l -0.3073025,1.588878 h 0.432704 L 8.9124019,24.20035 H 7.7686301 l 0.045475,-0.234267 h 0.431326 l 0.3086805,-1.588878 h -0.432704 z"
       id="path1691"
       style="fill:#000000" /><path
       d="m 9.781944,22.142939 h 0.352778 l 0.363802,1.693609 0.329351,-1.693609 h 0.268717 L 10.695583,24.20035 H 10.342806 L 9.9790034,22.506741 9.6482743,24.20035 H 9.3809349 Z"
       id="path1693"
       style="fill:#000000" /></g><g
     aria-label="PITCH"
     id="text748"
     style="font-style:italic;font-size:2.82222px;font-family:Menlo;-inkscape-font-specification:'Menlo Italic';text-align:center;text-anchor:middle;opacity:1;fill:#e5e5e5;stroke-width:0.705556;stroke-linecap:round;stroke-linejoin:round;paint-order:fill markers stroke"><path
       d="m 26.897104,22.371695 -0.150206,0.773078 h 0.32246 q 0.227376,0 0.362424,-0.130913 0.136426,-0.132292 0.136426,-0.3514 0,-0.148828 -0.08544,-0.219108 -0.08544,-0.07166 -0.264584,-0.07166 z M 26.662837,22.14294 h 0.606337 q 0.283875,0 0.432703,0.12678 0.148828,0.126779 0.148828,0.366558 0,0.343131 -0.220486,0.54019 -0.220485,0.19706 -0.606336,0.19706 H 26.7028 l -0.16123,0.826822 h -0.279741 z"
       id="path1696"
       style="fill:#000000" /><path
       d="m 28.367469,22.14294 h 1.143771 l -0.04547,0.234267 h -0.432704 l -0.307302,1.588876 h 0.432704 l -0.04548,0.234267 h -1.14377 l 0.04547,-0.234267 h 0.431325 l 0.308681,-1.588876 h -0.432704 z"
       id="path1698"
       style="fill:#000000" /><path
       d="m 29.855749,22.14294 h 1.570963 l -0.04547,0.234267 h -0.6463 L 30.38216,24.20035 h -0.28112 l 0.355534,-1.823143 h -0.6463 z"
       id="path1700"
       style="fill:#000000" /><path
       d="m 32.589775,24.127314 q -0.115755,0.0565 -0.234266,0.08406 -0.117133,0.02894 -0.242534,0.02894 -0.316949,0 -0.49196,-0.183279 -0.173632,-0.183279 -0.173632,-0.514008 0,-0.303168 0.09646,-0.600824 0.09646,-0.297656 0.253559,-0.486447 0.14745,-0.179145 0.325217,-0.264583 0.177767,-0.08544 0.405143,-0.08544 0.110243,0 0.219108,0.02894 0.108865,0.02894 0.212217,0.08406 l -0.0565,0.285254 q -0.08819,-0.08682 -0.186035,-0.129535 -0.09784,-0.04272 -0.208084,-0.04272 -0.130913,0 -0.242534,0.0565 -0.111621,0.05512 -0.209462,0.169499 -0.143316,0.169498 -0.23151,0.434081 -0.08682,0.264583 -0.08682,0.530545 0,0.2384 0.107487,0.365179 0.107487,0.12678 0.310059,0.12678 0.117133,0 0.241156,-0.0441 0.125402,-0.0441 0.246669,-0.128158 z"
       id="path1702"
       style="fill:#000000" /><path
       d="m 33.378012,22.14294 h 0.278364 l -0.162608,0.843359 h 0.762054 L 34.41843,22.14294 h 0.279742 l -0.401009,2.05741 H 34.0188 l 0.191547,-0.979785 h -0.764811 l -0.188791,0.979785 h -0.279741 z"
       id="path1704"
       style="fill:#000000" /></g><g
     aria-label="SHAPE"
     id="text752"
     style="font-style:italic;font-size:2.82222px;font-family:Menlo;-inkscape-font-specification:'Menlo Italic';text-align:center;text-anchor:middle;opacity:1;fill:#e5e5e5;stroke-width:0.705556;stroke-linecap:round;stroke-linejoin:round;paint-order:fill markers stroke"><path
       d="m 17.325012,37.553329 -0.05374,0.282498 q -0.111621,-0.0813 -0.23151,-0.122646 -0.119889,-0.04134 -0.248047,-0.04134 -0.227376,0 -0.370692,0.112999 -0.143315,0.112999 -0.143315,0.28801 0,0.09784 0.06752,0.158474 0.06752,0.06063 0.245291,0.115756 l 0.166743,0.05374 q 0.22462,0.0689 0.327972,0.184657 0.104731,0.114377 0.104731,0.292144 0,0.323839 -0.228754,0.514008 -0.228754,0.188791 -0.624251,0.188791 -0.143316,0 -0.282497,-0.03169 -0.137804,-0.03032 -0.275608,-0.09233 l 0.0565,-0.288009 q 0.135047,0.09508 0.272851,0.140559 0.139182,0.04548 0.293522,0.04548 0.227376,0 0.369314,-0.121268 0.141938,-0.121267 0.141938,-0.307302 0,-0.112999 -0.06063,-0.175011 -0.06063,-0.06201 -0.243912,-0.118511 l -0.139182,-0.04547 q -0.253559,-0.07993 -0.355534,-0.180523 -0.100597,-0.101975 -0.100597,-0.268717 0,-0.304546 0.227377,-0.497472 0.227376,-0.194303 0.593934,-0.194303 0.110243,0 0.234266,0.02756 0.125401,0.02756 0.256315,0.07993 z"
       id="path1707"
       style="fill:#000000" /><path
       d="m 17.833508,37.483049 h 0.278363 l -0.162608,0.843359 h 0.762054 l 0.162609,-0.843359 h 0.279741 l -0.401009,2.05741 h -0.278363 l 0.191547,-0.979785 h -0.764811 l -0.188791,0.979785 h -0.279741 z"
       id="path1709"
       style="fill:#000000" /><path
       d="m 20.1555,37.714559 -0.501605,1.066601 h 0.592556 z m -0.132291,-0.23151 h 0.338997 l 0.228754,2.05741 h -0.276986 l -0.04823,-0.536057 h -0.716579 l -0.253559,0.536057 h -0.299034 z"
       id="path1711"
       style="fill:#000000" /><path
       d="m 21.547318,37.711803 -0.150206,0.773079 h 0.322461 q 0.227376,0 0.362423,-0.130913 0.136426,-0.132292 0.136426,-0.3514 0,-0.148828 -0.08544,-0.219108 -0.08544,-0.07166 -0.264583,-0.07166 z m -0.234266,-0.228754 h 0.606336 q 0.283876,0 0.432704,0.12678 0.148828,0.126779 0.148828,0.366558 0,0.343131 -0.220486,0.54019 -0.220486,0.197059 -0.606337,0.197059 h -0.321082 l -0.161231,0.826823 h -0.279741 z"
       id="path1713"
       style="fill:#000000" /><path
       d="m 23.014927,37.483049 h 1.219563 l -0.04547,0.234267 h -0.942578 l -0.118511,0.609092 h 0.899859 l -0.0441,0.234266 h -0.901236 l -0.143316,0.745518 h 0.967382 l -0.04547,0.234267 h -1.247124 z"
       id="path1715"
       style="fill:#000000" /></g><g
     aria-label="TENSION"
     id="text756"
     style="font-style:italic;font-size:2.82222px;font-family:Menlo;-inkscape-font-specification:'Menlo Italic';text-align:center;text-anchor:middle;opacity:1;fill:#e5e5e5;stroke-width:0.705556;stroke-linecap:round;stroke-linejoin:round;paint-order:fill markers stroke"><path
       d="m 14.311245,53.043566 h 1.570962 l -0.04547,0.234266 h -0.6463 l -0.352777,1.823143 h -0.28112 l 0.355534,-1.823143 h -0.6463 z"
       id="path1718"
       style="fill:#000000" /><path
       d="m 16.218448,53.043566 h 1.219563 l -0.04547,0.234266 h -0.942578 l -0.118511,0.609092 h 0.899858 l -0.0441,0.234267 h -0.901236 l -0.143316,0.745518 h 0.967382 l -0.04547,0.234266 h -1.247124 z"
       id="path1720"
       style="fill:#000000" /><path
       d="m 17.836264,53.043566 h 0.352777 l 0.363802,1.693607 0.329351,-1.693607 h 0.268717 l -0.401009,2.057409 h -0.352777 l -0.363802,-1.693608 -0.330729,1.693608 h -0.267339 z"
       id="path1722"
       style="fill:#000000" /><path
       d="m 20.723252,53.113845 -0.05374,0.282498 q -0.111621,-0.0813 -0.23151,-0.122645 -0.119889,-0.04134 -0.248047,-0.04134 -0.227376,0 -0.370692,0.112999 -0.143316,0.112999 -0.143316,0.288009 0,0.09784 0.06752,0.158475 0.06752,0.06063 0.245291,0.115755 l 0.166742,0.05374 q 0.22462,0.0689 0.327973,0.184657 0.104731,0.114377 0.104731,0.292144 0,0.323839 -0.228754,0.514008 -0.228754,0.188791 -0.624251,0.188791 -0.143316,0 -0.282498,-0.03169 -0.137803,-0.03032 -0.275607,-0.09233 l 0.0565,-0.28801 q 0.135047,0.09509 0.272851,0.14056 0.139182,0.04548 0.293522,0.04548 0.227376,0 0.369314,-0.121267 0.141938,-0.121268 0.141938,-0.307303 0,-0.112999 -0.06063,-0.17501 -0.06063,-0.06201 -0.243913,-0.118511 l -0.139181,-0.04548 q -0.253559,-0.07993 -0.355534,-0.180523 -0.100597,-0.101974 -0.100597,-0.268717 0,-0.304546 0.227376,-0.497471 0.227377,-0.194303 0.593934,-0.194303 0.110243,0 0.234267,0.02756 0.125401,0.02756 0.256315,0.07993 z"
       id="path1724"
       style="fill:#000000" /><path
       d="m 21.318564,53.043566 h 1.14377 l -0.04547,0.234266 h -0.432704 l -0.307302,1.588877 h 0.432704 l -0.04547,0.234266 h -1.143771 l 0.04547,-0.234266 h 0.431326 l 0.30868,-1.588877 h -0.432704 z"
       id="path1726"
       style="fill:#000000" /><path
       d="m 23.232657,54.91494 q 0.117133,0 0.216352,-0.07028 0.09922,-0.07028 0.163986,-0.201193 0.101975,-0.199816 0.165365,-0.483691 0.06339,-0.283876 0.06339,-0.545703 0,-0.195681 -0.07304,-0.28801 -0.07166,-0.09371 -0.223242,-0.09371 -0.117133,0 -0.214973,0.07028 -0.09784,0.07028 -0.162609,0.201193 -0.104731,0.202571 -0.16812,0.483691 -0.06339,0.28112 -0.06339,0.542947 0,0.197059 0.07166,0.290765 0.07304,0.09371 0.22462,0.09371 z m 0.894346,-1.219563 q 0,0.151584 -0.03169,0.329351 -0.03032,0.177767 -0.08957,0.36518 -0.03996,0.126779 -0.08682,0.227376 -0.04547,0.100597 -0.09922,0.181901 -0.121268,0.175011 -0.271474,0.259071 -0.150206,0.08268 -0.350021,0.08268 -0.276986,0 -0.410655,-0.169498 -0.13367,-0.169499 -0.13367,-0.522277 0,-0.152962 0.02894,-0.327972 0.03032,-0.176389 0.08957,-0.363802 0.03996,-0.12678 0.08544,-0.227376 0.04685,-0.100597 0.100596,-0.181901 0.121268,-0.175011 0.271474,-0.257693 0.150206,-0.08406 0.350021,-0.08406 0.278364,0 0.412033,0.169498 0.135048,0.168121 0.135048,0.51952 z"
       id="path1728"
       style="fill:#000000" /><path
       d="m 24.632743,53.043566 h 0.352778 l 0.363802,1.693607 0.329351,-1.693607 h 0.268717 l -0.401009,2.057409 h -0.352778 l -0.363801,-1.693608 -0.330729,1.693608 h -0.267339 z"
       id="path1730"
       style="fill:#000000" /></g><g
     aria-label="RESONANCE"
     id="text760"
     style="font-style:italic;font-size:2.82222px;font-family:Menlo;-inkscape-font-specification:'Menlo Italic';text-align:center;text-anchor:middle;opacity:1;fill:#e5e5e5;stroke-width:0.705556;stroke-linecap:round;stroke-linejoin:round;paint-order:fill markers stroke"><path
       d="m 13.40174,69.689975 q 0.09922,0.01929 0.158474,0.09233 0.06063,0.07304 0.135048,0.316948 l 0.166742,0.562239 h -0.276985 l -0.146072,-0.51952 q -0.06063,-0.214973 -0.136426,-0.282497 -0.07441,-0.06752 -0.225998,-0.06752 H 12.81194 l -0.169498,0.869541 H 12.3627 l 0.398253,-2.057409 h 0.573263 q 0.285254,0 0.440972,0.124023 0.157096,0.122646 0.157096,0.347266 0,0.25218 -0.143315,0.417545 -0.141938,0.165364 -0.387229,0.197059 z m -0.403765,-0.857139 -0.14056,0.73036 h 0.301791 q 0.22462,0 0.358289,-0.117133 0.135048,-0.118512 0.135048,-0.314193 0,-0.15434 -0.08682,-0.225998 -0.08682,-0.07304 -0.27423,-0.07304 z"
       id="path1733"
       style="fill:#000000" /><path
       d="m 14.519328,68.604082 h 1.219563 l -0.04548,0.234266 h -0.942578 l -0.118511,0.609093 h 0.899859 l -0.0441,0.234266 h -0.901236 l -0.143316,0.745518 h 0.967382 l -0.04547,0.234266 h -1.247124 z"
       id="path1735"
       style="fill:#000000" /><path
       d="m 17.325012,68.674362 -0.05374,0.282497 q -0.111621,-0.0813 -0.23151,-0.122645 -0.119889,-0.04134 -0.248047,-0.04134 -0.227376,0 -0.370692,0.112999 -0.143315,0.112999 -0.143315,0.28801 0,0.09784 0.06752,0.158474 0.06752,0.06063 0.245291,0.115755 l 0.166743,0.05374 q 0.22462,0.0689 0.327972,0.184657 0.104731,0.114377 0.104731,0.292144 0,0.323838 -0.228754,0.514007 -0.228754,0.188791 -0.624251,0.188791 -0.143316,0 -0.282497,-0.03169 -0.137804,-0.03032 -0.275608,-0.09233 l 0.0565,-0.28801 q 0.135047,0.09508 0.272851,0.14056 0.139182,0.04547 0.293522,0.04547 0.227376,0 0.369314,-0.121267 0.141938,-0.121267 0.141938,-0.307302 0,-0.112999 -0.06063,-0.175011 -0.06063,-0.06201 -0.243912,-0.118511 l -0.139182,-0.04547 q -0.253559,-0.07993 -0.355534,-0.180523 -0.100597,-0.101975 -0.100597,-0.268717 0,-0.304547 0.227377,-0.497472 0.227376,-0.194303 0.593934,-0.194303 0.110243,0 0.234266,0.02756 0.125401,0.02756 0.256315,0.07993 z"
       id="path1737"
       style="fill:#000000" /><path
       d="m 18.135298,70.475456 q 0.117133,0 0.216352,-0.07028 0.09922,-0.07028 0.163986,-0.201193 0.101975,-0.199815 0.165365,-0.483691 0.06339,-0.283876 0.06339,-0.545703 0,-0.195681 -0.07304,-0.288009 -0.07166,-0.09371 -0.223242,-0.09371 -0.117133,0 -0.214973,0.07028 -0.09784,0.07028 -0.162609,0.201193 -0.104731,0.202572 -0.16812,0.483691 -0.06339,0.28112 -0.06339,0.542947 0,0.197059 0.07166,0.290766 0.07304,0.09371 0.22462,0.09371 z m 0.894346,-1.219563 q 0,0.151585 -0.0317,0.329351 -0.03032,0.177767 -0.08957,0.36518 -0.03996,0.12678 -0.08682,0.227376 -0.04548,0.100597 -0.09922,0.181901 -0.121268,0.175011 -0.271474,0.259071 -0.150206,0.08268 -0.350021,0.08268 -0.276985,0 -0.410655,-0.169498 -0.13367,-0.169499 -0.13367,-0.522276 0,-0.152962 0.02894,-0.327973 0.03032,-0.176389 0.08957,-0.363802 0.03996,-0.126779 0.08544,-0.227376 0.04685,-0.100597 0.100597,-0.181901 0.121267,-0.175011 0.271473,-0.257693 0.150206,-0.08406 0.350021,-0.08406 0.278364,0 0.412033,0.169498 0.135048,0.168121 0.135048,0.51952 z"
       id="path1739"
       style="fill:#000000" /><path
       d="m 19.535383,68.604082 h 0.352778 l 0.363802,1.693608 0.329351,-1.693608 h 0.268717 l -0.401009,2.057409 h -0.352777 l -0.363802,-1.693607 -0.330729,1.693607 h -0.267339 z"
       id="path1741"
       style="fill:#000000" /><path
       d="m 21.85462,68.835592 -0.501606,1.066601 h 0.592556 z m -0.132292,-0.23151 h 0.338997 l 0.228754,2.057409 h -0.276985 l -0.04823,-0.536056 h -0.71658 l -0.253558,0.536056 H 20.69569 Z"
       id="path1743"
       style="fill:#000000" /><path
       d="m 22.933624,68.604082 h 0.352777 l 0.363802,1.693608 0.329351,-1.693608 h 0.268717 l -0.401009,2.057409 h -0.352777 l -0.363802,-1.693607 -0.330729,1.693607 h -0.267339 z"
       id="path1745"
       style="fill:#000000" /><path
       d="m 25.54087,70.588455 q -0.115756,0.0565 -0.234267,0.08406 -0.117133,0.02894 -0.242534,0.02894 -0.316949,0 -0.49196,-0.183278 -0.173632,-0.183279 -0.173632,-0.514008 0,-0.303169 0.09646,-0.600825 0.09646,-0.297656 0.253559,-0.486447 0.14745,-0.179144 0.325217,-0.264583 0.177767,-0.08544 0.405143,-0.08544 0.110243,0 0.219108,0.02894 0.108865,0.02894 0.212218,0.08406 l -0.0565,0.285254 q -0.08819,-0.08682 -0.186035,-0.129536 -0.09784,-0.04272 -0.208084,-0.04272 -0.130913,0 -0.242534,0.0565 -0.111621,0.05512 -0.209462,0.169498 -0.143316,0.169499 -0.23151,0.434082 -0.08682,0.264583 -0.08682,0.530544 0,0.238401 0.107487,0.36518 0.107486,0.126779 0.310058,0.126779 0.117133,0 0.241156,-0.0441 0.125402,-0.0441 0.246669,-0.128157 z"
       id="path1747"
       style="fill:#000000" /><path
       d="m 26.413167,68.604082 h 1.219563 l -0.04547,0.234266 h -0.942578 l -0.118511,0.609093 h 0.899858 l -0.0441,0.234266 h -0.901236 l -0.143316,0.745518 h 0.967382 l -0.04547,0.234266 h -1.247124 z"
       id="path1749"
       style="fill:#000000" /></g><g
     aria-label="OVERDRIVE"
     id="text764"
     style="font-style:italic;font-size:2.82222px;font-family:Menlo;-inkscape-font-specification:'Menlo Italic';text-align:center;text-anchor:middle;opacity:1;fill:#e5e5e5;stroke-width:0.705556;stroke-linecap:round;stroke-linejoin:round;paint-order:fill markers stroke"><path
       d="m 13.037938,86.035973 q 0.117133,0 0.216352,-0.07028 0.09922,-0.07028 0.163987,-0.201194 0.101974,-0.199815 0.165364,-0.483691 0.06339,-0.283875 0.06339,-0.545702 0,-0.195682 -0.07304,-0.28801 -0.07166,-0.09371 -0.223242,-0.09371 -0.117133,0 -0.214974,0.07028 -0.09784,0.07028 -0.162608,0.201194 -0.104731,0.202571 -0.168121,0.483691 -0.06339,0.281119 -0.06339,0.542946 0,0.19706 0.07166,0.290766 0.07304,0.09371 0.22462,0.09371 z m 0.894346,-1.219563 q 0,0.151584 -0.03169,0.329351 -0.03032,0.177767 -0.08957,0.36518 -0.03996,0.126779 -0.08682,0.227376 -0.04548,0.100596 -0.09922,0.181901 -0.121267,0.17501 -0.271473,0.259071 -0.150206,0.08268 -0.350022,0.08268 -0.276985,0 -0.410655,-0.169499 -0.133669,-0.169498 -0.133669,-0.522276 0,-0.152962 0.02894,-0.327973 0.03032,-0.176388 0.08957,-0.363801 0.03996,-0.12678 0.08544,-0.227377 0.04685,-0.100596 0.100597,-0.181901 0.121267,-0.17501 0.271473,-0.257692 0.150206,-0.08406 0.350022,-0.08406 0.278363,0 0.412033,0.169499 0.135047,0.16812 0.135047,0.51952 z"
       id="path1752"
       style="fill:#000000" /><path
       d="m 14.748082,85.960181 0.824067,-1.795583 h 0.296278 l -0.990809,2.05741 h -0.355534 l -0.202571,-2.05741 h 0.272851 z"
       id="path1754"
       style="fill:#000000" /><path
       d="m 16.218448,84.164598 h 1.219563 l -0.04547,0.234267 h -0.942578 l -0.118511,0.609092 h 0.899858 l -0.0441,0.234266 h -0.901236 l -0.143316,0.745518 h 0.967382 l -0.04547,0.234267 h -1.247124 z"
       id="path1756"
       style="fill:#000000" /><path
       d="m 18.4991,85.250492 q 0.09922,0.01929 0.158474,0.09233 0.06063,0.07304 0.135048,0.316949 l 0.166742,0.562239 h -0.276985 l -0.146072,-0.51952 q -0.06063,-0.214974 -0.136426,-0.282498 -0.07441,-0.06752 -0.225998,-0.06752 H 17.9093 l -0.169499,0.869542 H 17.46006 l 0.398252,-2.05741 h 0.573264 q 0.285254,0 0.440972,0.124024 0.157096,0.122645 0.157096,0.347265 0,0.252181 -0.143316,0.417545 -0.141938,0.165365 -0.387228,0.19706 z m -0.403765,-0.85714 -0.14056,0.73036 h 0.30179 q 0.22462,0 0.35829,-0.117133 0.135047,-0.118511 0.135047,-0.314192 0,-0.154341 -0.08682,-0.225999 -0.08682,-0.07304 -0.274229,-0.07304 z"
       id="path1758"
       style="fill:#000000" /><path
       d="m 19.589127,85.993254 q 0.254937,0 0.409277,-0.08544 0.15434,-0.08682 0.248047,-0.281119 0.07441,-0.158475 0.121267,-0.377582 0.04823,-0.220486 0.04823,-0.403765 0,-0.242535 -0.112999,-0.347266 -0.112999,-0.104731 -0.37896,-0.104731 h -0.157096 l -0.311437,1.599902 z m 0.361046,-1.828656 q 0.376204,0 0.562239,0.170877 0.187413,0.170876 0.187413,0.518142 0,0.223242 -0.05788,0.460264 -0.05788,0.237023 -0.155718,0.420302 -0.143316,0.263205 -0.35829,0.376204 -0.213595,0.111621 -0.578775,0.111621 h -0.417545 l 0.401008,-2.05741 z"
       id="path1760"
       style="fill:#000000" /><path
       d="m 21.897339,85.250492 q 0.09922,0.01929 0.158474,0.09233 0.06063,0.07304 0.135048,0.316949 l 0.166742,0.562239 h -0.276985 l -0.146072,-0.51952 q -0.06063,-0.214974 -0.136426,-0.282498 -0.07441,-0.06752 -0.225998,-0.06752 h -0.264583 l -0.169499,0.869542 h -0.279741 l 0.398253,-2.05741 h 0.573263 q 0.285254,0 0.440972,0.124024 0.157096,0.122645 0.157096,0.347265 0,0.252181 -0.143316,0.417545 -0.141938,0.165365 -0.387228,0.19706 z m -0.403765,-0.85714 -0.14056,0.73036 h 0.30179 q 0.22462,0 0.35829,-0.117133 0.135048,-0.118511 0.135048,-0.314192 0,-0.154341 -0.08682,-0.225999 -0.08682,-0.07304 -0.274229,-0.07304 z"
       id="path1762"
       style="fill:#000000" /><path
       d="m 23.017684,84.164598 h 1.143771 l -0.04548,0.234267 h -0.432703 l -0.307303,1.588876 h 0.432704 l -0.04547,0.234267 h -1.143771 l 0.04547,-0.234267 h 0.431326 l 0.30868,-1.588876 h -0.432703 z"
       id="path1764"
       style="fill:#000000" /><path
       d="m 24.942801,85.960181 0.824067,-1.795583 h 0.296278 l -0.990809,2.05741 h -0.355534 l -0.202571,-2.05741 h 0.272851 z"
       id="path1766"
       style="fill:#000000" /><path
       d="m 26.413167,84.164598 h 1.219563 l -0.04547,0.234267 h -0.942578 l -0.118511,0.609092 h 0.899858 l -0.0441,0.234266 h -0.901236 l -0.143316,0.745518 h 0.967382 l -0.04547,0.234267 h -1.247124 z"
       id="path1768"
       style="fill:#000000" /></g><g
     aria-label="OUT"
     id="text768"
     style="font-style:italic;font-size:2.82222px;font-family:Menlo;-inkscape-font-specification:'Menlo Italic';text-align:center;text-anchor:middle;opacity:1;fill:#ffffff;stroke-width:0.705556;stroke-linecap:round;stroke-linejoin:round;paint-order:fill markers stroke"
     transform="translate(0.31544115)"><path
       d="m 48.551039,77.925102 q 0.117133,0 0.216351,-0.07028 0.09922,-0.07028 0.163987,-0.201193 0.101975,-0.199815 0.165364,-0.483691 0.06339,-0.283876 0.06339,-0.545703 0,-0.195681 -0.07304,-0.288009 -0.07166,-0.09371 -0.223242,-0.09371 -0.117133,0 -0.214974,0.07028 -0.09784,0.07028 -0.162608,0.201193 -0.104731,0.202572 -0.168121,0.483691 -0.06339,0.28112 -0.06339,0.542947 0,0.197059 0.07166,0.290766 0.07304,0.09371 0.22462,0.09371 z m 0.894346,-1.219563 q 0,0.151585 -0.03169,0.329351 -0.03032,0.177767 -0.08957,0.36518 -0.03996,0.12678 -0.08682,0.227376 -0.04548,0.100597 -0.09922,0.181901 -0.121267,0.175011 -0.271473,0.259071 -0.150206,0.08268 -0.350021,0.08268 -0.276986,0 -0.410655,-0.169498 -0.13367,-0.169499 -0.13367,-0.522276 0,-0.152962 0.02894,-0.327973 0.03032,-0.176389 0.08957,-0.363802 0.03996,-0.126779 0.08544,-0.227376 0.04685,-0.100597 0.100596,-0.181901 0.121268,-0.175011 0.271474,-0.257693 0.150206,-0.08406 0.350021,-0.08406 0.278364,0 0.412033,0.169498 0.135048,0.168121 0.135048,0.51952 z"
       id="path1812"
       style="fill:#ffffff" /><path
       d="m 49.716858,77.321522 0.245291,-1.267794 h 0.279741 l -0.246668,1.267794 q -0.0028,0.01792 -0.01102,0.0565 -0.04134,0.212217 -0.04134,0.293522 0,0.126779 0.07441,0.190169 0.07579,0.06339 0.227376,0.06339 0.122646,0 0.208084,-0.03858 0.08544,-0.03996 0.14745,-0.125401 0.03032,-0.04272 0.06063,-0.146072 0.03169,-0.104731 0.0689,-0.293522 l 0.245291,-1.267794 h 0.279742 l -0.245291,1.267794 q -0.05788,0.30179 -0.124023,0.443728 -0.06477,0.14056 -0.172255,0.227376 -0.09784,0.07717 -0.223242,0.118511 -0.125401,0.03996 -0.271473,0.03996 -0.264584,0 -0.407899,-0.124023 -0.141938,-0.124023 -0.141938,-0.352777 0,-0.05099 0.01102,-0.137804 0.0124,-0.08682 0.03721,-0.214974 z"
       id="path1814"
       style="fill:#ffffff" /><path
       d="m 51.523465,76.053728 h 1.570962 l -0.04548,0.234266 h -0.6463 l -0.352777,1.823143 h -0.28112 l 0.355534,-1.823143 H 51.47799 Z"
       id="path1816"
       style="fill:#ffffff" /></g><g
     aria-label="IMPULSE"
     id="text772"
     style="font-style:italic;font-size:2.82222px;font-family:Menlo;-inkscape-font-specification:'Menlo Italic';text-align:center;text-anchor:middle;opacity:1;fill:#e5e5e5;stroke-width:0.705556;stroke-linecap:round;stroke-linejoin:round;paint-order:fill markers stroke"><path
       d="m 34.887406,102.45811 h 1.143771 l -0.04547,0.23427 h -0.432704 l -0.307302,1.58887 H 35.6784 l -0.04548,0.23427 h -1.14377 l 0.04548,-0.23427 h 0.431326 l 0.30868,-1.58887 h -0.432704 z"
       id="path1771"
       style="fill:#000000" /><path
       d="m 36.425296,102.45811 h 0.370692 l 0.151584,1.04179 0.570507,-1.04179 h 0.37207 l -0.401008,2.05741 h -0.256315 l 0.355533,-1.82866 -0.598068,1.09554 h -0.194303 l -0.158474,-1.09554 -0.352778,1.82866 h -0.256315 z"
       id="path1773"
       style="fill:#000000" /><path
       d="m 38.5144,102.68686 -0.150206,0.77308 h 0.322461 q 0.227376,0 0.362424,-0.13091 0.136425,-0.13229 0.136425,-0.3514 0,-0.14883 -0.08544,-0.21911 -0.08544,-0.0717 -0.264583,-0.0717 z m -0.234266,-0.22875 h 0.606336 q 0.283876,0 0.432704,0.12678 0.148828,0.12678 0.148828,0.36656 0,0.34313 -0.220486,0.54019 -0.220486,0.19706 -0.606336,0.19706 h -0.321083 l -0.16123,0.82682 h -0.279742 z"
       id="path1775"
       style="fill:#000000" /><path
       d="m 39.666439,103.7259 0.245291,-1.26779 h 0.279742 l -0.246669,1.26779 q -0.0028,0.0179 -0.01102,0.0565 -0.04134,0.21222 -0.04134,0.29352 0,0.12678 0.07441,0.19017 0.07579,0.0634 0.227376,0.0634 0.122645,0 0.208083,-0.0386 0.08544,-0.04 0.14745,-0.1254 0.03032,-0.0427 0.06063,-0.14608 0.0317,-0.10473 0.0689,-0.29352 l 0.24529,-1.26779 h 0.279742 l -0.245291,1.26779 q -0.05788,0.30179 -0.124023,0.44373 -0.06477,0.14056 -0.172255,0.22738 -0.09784,0.0772 -0.223242,0.11851 -0.125401,0.04 -0.271473,0.04 -0.264583,0 -0.407899,-0.12402 -0.141938,-0.12403 -0.141938,-0.35278 0,-0.051 0.01102,-0.1378 0.0124,-0.0868 0.03721,-0.21498 z"
       id="path1777"
       style="fill:#000000" /><path
       d="m 41.71558,102.45811 h 0.278364 l -0.355534,1.82314 h 0.993565 l -0.04547,0.23427 h -1.271928 z"
       id="path1779"
       style="fill:#000000" /><path
       d="m 44.486813,102.52839 -0.05374,0.2825 q -0.111622,-0.0813 -0.231511,-0.12265 -0.119889,-0.0413 -0.248046,-0.0413 -0.227377,0 -0.370692,0.113 -0.143316,0.113 -0.143316,0.28801 0,0.0978 0.06752,0.15847 0.06752,0.0606 0.24529,0.11576 l 0.166743,0.0537 q 0.22462,0.0689 0.327972,0.18466 0.104731,0.11438 0.104731,0.29214 0,0.32384 -0.228754,0.51401 -0.228754,0.18879 -0.624251,0.18879 -0.143316,0 -0.282497,-0.0317 -0.137804,-0.0303 -0.275608,-0.0923 l 0.0565,-0.28801 q 0.135047,0.0951 0.272851,0.14056 0.139182,0.0455 0.293522,0.0455 0.227376,0 0.369314,-0.12126 0.141938,-0.12127 0.141938,-0.30731 0,-0.113 -0.06063,-0.17501 -0.06063,-0.062 -0.243912,-0.11851 l -0.139182,-0.0455 q -0.253559,-0.0799 -0.355534,-0.18053 -0.100596,-0.10197 -0.100596,-0.26871 0,-0.30455 0.227376,-0.49748 0.227376,-0.1943 0.593934,-0.1943 0.110243,0 0.234266,0.0276 0.125401,0.0276 0.256315,0.0799 z"
       id="path1781"
       style="fill:#000000" /><path
       d="m 45.07937,102.45811 h 1.219563 l -0.04548,0.23427 H 45.31088 l -0.118511,0.60909 h 0.899858 l -0.0441,0.23426 h -0.901237 l -0.143315,0.74552 h 0.967382 l -0.04548,0.23427 h -1.247123 z"
       id="path1783"
       style="fill:#000000" /></g><g
     aria-label="NOISE"
     id="text776"
     style="font-style:italic;font-size:2.82222px;font-family:Menlo;-inkscape-font-specification:'Menlo Italic';text-align:center;text-anchor:middle;opacity:1;fill:#e5e5e5;stroke-width:0.705556;stroke-linecap:round;stroke-linejoin:round;paint-order:fill markers stroke"><path
       d="m 36.502466,118.01864 h 0.352777 l 0.363802,1.69361 0.329351,-1.69361 h 0.268717 l -0.401008,2.05741 h -0.352778 l -0.363802,-1.69361 -0.330729,1.69361 h -0.267339 z"
       id="path1786"
       style="fill:#000000" /><path
       d="m 38.50062,119.89001 q 0.117133,0 0.216352,-0.0703 0.09922,-0.0703 0.163986,-0.20119 0.101975,-0.19981 0.165365,-0.48369 0.06339,-0.28388 0.06339,-0.5457 0,-0.19568 -0.07304,-0.28801 -0.07166,-0.0937 -0.223242,-0.0937 -0.117133,0 -0.214974,0.0703 -0.09784,0.0703 -0.162608,0.20119 -0.104731,0.20258 -0.16812,0.4837 -0.06339,0.28112 -0.06339,0.54294 0,0.19706 0.07166,0.29077 0.07304,0.0937 0.22462,0.0937 z m 0.894346,-1.21956 q 0,0.15159 -0.03169,0.32935 -0.03032,0.17777 -0.08957,0.36518 -0.03996,0.12678 -0.08682,0.22738 -0.04547,0.1006 -0.09922,0.1819 -0.121268,0.17501 -0.271474,0.25907 -0.150206,0.0827 -0.350021,0.0827 -0.276986,0 -0.410655,-0.1695 -0.13367,-0.16949 -0.13367,-0.52227 0,-0.15296 0.02894,-0.32797 0.03032,-0.17639 0.08957,-0.36381 0.03996,-0.12678 0.08544,-0.22737 0.04685,-0.1006 0.100596,-0.1819 0.121268,-0.17501 0.271474,-0.2577 0.150206,-0.0841 0.350021,-0.0841 0.278364,0 0.412033,0.1695 0.135048,0.16812 0.135048,0.51952 z"
       id="path1788"
       style="fill:#000000" /><path
       d="m 39.984766,118.01864 h 1.143771 l -0.04548,0.23427 h -0.432703 l -0.307303,1.58887 h 0.432704 l -0.04548,0.23427 h -1.143771 l 0.04548,-0.23427 h 0.431326 l 0.30868,-1.58887 h -0.432703 z"
       id="path1790"
       style="fill:#000000" /><path
       d="m 42.787694,118.08892 -0.05374,0.2825 q -0.111621,-0.0813 -0.23151,-0.12265 -0.119889,-0.0413 -0.248047,-0.0413 -0.227376,0 -0.370692,0.113 -0.143316,0.113 -0.143316,0.28801 0,0.0978 0.06752,0.15847 0.06752,0.0606 0.245291,0.11576 l 0.166742,0.0537 q 0.22462,0.0689 0.327973,0.18466 0.104731,0.11438 0.104731,0.29214 0,0.32384 -0.228754,0.51401 -0.228754,0.18879 -0.624251,0.18879 -0.143316,0 -0.282498,-0.0317 -0.137803,-0.0303 -0.275607,-0.0923 l 0.0565,-0.28801 q 0.135048,0.0951 0.272852,0.14056 0.139182,0.0455 0.293522,0.0455 0.227376,0 0.369314,-0.12126 0.141938,-0.12127 0.141938,-0.3073 0,-0.113 -0.06063,-0.17502 -0.06063,-0.062 -0.243913,-0.11851 l -0.139181,-0.0455 q -0.253559,-0.0799 -0.355534,-0.18052 -0.100597,-0.10198 -0.100597,-0.26872 0,-0.30455 0.227376,-0.49747 0.227377,-0.19431 0.593934,-0.19431 0.110243,0 0.234267,0.0276 0.125401,0.0276 0.256315,0.0799 z"
       id="path1792"
       style="fill:#000000" /><path
       d="m 43.380249,118.01864 h 1.219563 l -0.04548,0.23427 H 43.61176 l -0.118512,0.60909 h 0.899859 l -0.0441,0.23427 h -0.901236 l -0.143316,0.74551 h 0.967382 l -0.04548,0.23427 h -1.247123 z"
       id="path1794"
       style="fill:#000000" /></g><path
     id="path1651"
     d="m 28.766691,69.559472 h 5.00943"
     style="clip-rule:evenodd;fill:none;fill-rule:evenodd;stroke:#000000;stroke-width:0.227961;stroke-linecap:round;stroke-linejoin:round;stroke-miterlimit:1.5;stroke-dasharray:none" /><path
     id="path1653"
     d="M 6.6972665,69.559474 H 11.442968"
     style="clip-rule:evenodd;fill:none;fill-rule:evenodd;stroke:#000000;stroke-width:0.227961px;stroke-linecap:round;stroke-linejoin:round;stroke-miterlimit:1.5" /><path
     id="path1655"
     d="m 28.768074,85.164071 h 5.068037"
     style="clip-rule:evenodd;fill:none;fill-rule:evenodd;stroke:#000000;stroke-width:0.22796;stroke-linecap:round;stroke-linejoin:round;stroke-miterlimit:1.5;stroke-dasharray:none" /><path
     id="path1657"
     d="M 6.6972665,85.164071 H 11.442968"
     style="clip-rule:evenodd;fill:none;fill-rule:evenodd;stroke:#000000;stroke-width:0.227961px;stroke-linecap:round;stroke-linejoin:round;stroke-miterlimit:1.5" /><path
     id="path1659"
     d="M 27.108742,53.954877 H 33.731"
     style="clip-rule:evenodd;fill:none;fill-rule:evenodd;stroke:#000000;stroke-width:0.227961;stroke-linecap:round;stroke-linejoin:round;stroke-miterlimit:1.5;stroke-dasharray:none" /><path
     id="path1661"
     d="M 6.6918537,53.954877 H 13.165791"
     style="clip-rule:evenodd;fill:none;fill-rule:evenodd;stroke:#000000;stroke-width:0.227961px;stroke-linecap:round;stroke-linejoin:round;stroke-miterlimit:1.5" /><path
     id="path1663"
     d="m 46.789567,103.54576 h 6.977189"
     style="clip-rule:evenodd;fill:none;fill-rule:evenodd;stroke:#000000;stroke-width:0.227961;stroke-linecap:round;stroke-linejoin:round;stroke-miterlimit:1.5;stroke-dasharray:none" /><path
     id="path1665"
     d="m 27.406279,103.54576 h 6.977188"
     style="clip-rule:evenodd;fill:none;fill-rule:evenodd;stroke:#000000;stroke-width:0.227961px;stroke-linecap:round;stroke-linejoin:round;stroke-miterlimit:1.5" /><path
     id="path1667"
     d="m 46.789567,119.15036 h 6.977189"
     style="clip-rule:evenodd;fill:none;fill-rule:evenodd;stroke:#000000;stroke-width:0.227961;stroke-linecap:round;stroke-linejoin:round;stroke-miterlimit:1.5;stroke-dasharray:none" /><path
     id="path1669"
     d="m 27.406279,119.15036 h 6.977188"
     style="clip-rule:evenodd;fill:none;fill-rule:evenodd;stroke:#000000;stroke-width:0.227961px;stroke-linecap:round;stroke-linejoin:round;stroke-miterlimit:1.5" /><path
     id="path1671"
     d="m 15.125981,104.56665 v 7.20721"
     style="clip-rule:evenodd;fill:none;fill-rule:evenodd;stroke:#000000;stroke-width:0.227961px;stroke-linecap:round;stroke-linejoin:round;stroke-miterlimit:1.5" /><path
     id="path1673"
     d="M 8.9616392,32.134899 H 20.561861 c 7.562717,-0.166797 11.379692,0.626627 16.981256,2.430145"
     style="clip-rule:evenodd;fill:none;fill-rule:evenodd;stroke:#000000;stroke-width:0.35277778;stroke-linecap:round;stroke-linejoin:round;stroke-miterlimit:1.5;stroke-dasharray:none"
     sodipodi:nodetypes="ccc" /><path
     id="path1675"
     d="M 8.8303496,47.739496 H 30.630011"
     style="clip-rule:evenodd;fill:none;fill-rule:evenodd;stroke:#000000;stroke-width:0.35277778;stroke-linecap:round;stroke-linejoin:round;stroke-miterlimit:1.5;stroke-dasharray:none" /><path
     id="path1677"
     d="M 8.3013802,62.682881 H 30.101041"
     style="clip-rule:evenodd;fill:none;fill-rule:evenodd;stroke:#000000;stroke-width:0.35277778;stroke-linecap:round;stroke-linejoin:round;stroke-miterlimit:1.5;stroke-dasharray:none" /><path
     id="path1679"
     d="M 8.1691379,78.287478 H 29.968799"
     style="clip-rule:evenodd;fill:none;fill-rule:evenodd;stroke:#000000;stroke-width:0.35277778;stroke-linecap:round;stroke-linejoin:round;stroke-miterlimit:1.5;stroke-dasharray:none" /><path
     id="path1681"
     d="m 29.856883,96.801406 h 21.79966"
     style="clip-rule:evenodd;fill:none;fill-rule:evenodd;stroke:#000000;stroke-width:0.35277778;stroke-linecap:round;stroke-linejoin:round;stroke-miterlimit:1.5;stroke-dasharray:none" /><path
     id="path1683"
     d="M 29.72464,112.406 H 51.524301"
     style="clip-rule:evenodd;fill:none;fill-rule:evenodd;stroke:#000000;stroke-width:0.35277778;stroke-linecap:round;stroke-linejoin:round;stroke-miterlimit:1.5;stroke-dasharray:none" /><path
     id="path1687"
     d="M 21.792026,23.274657 H 25.05552"
     style="clip-rule:evenodd;fill:none;fill-rule:evenodd;stroke:#000000;stroke-width:0.227961px;stroke-linecap:round;stroke-linejoin:round;stroke-miterlimit:1.5"
     sodipodi:nodetypes="cc" /><path
     id="path1689"
     d="M 30.25361,16.927029 H 52.053271"
     style="clip-rule:evenodd;fill:none;fill-rule:evenodd;stroke:#000000;stroke-width:0.35277778;stroke-linecap:round;stroke-linejoin:round;stroke-miterlimit:1.5;stroke-dasharray:none" /><rect
     style="opacity:1;fill:none;stroke:#000000;stroke-width:0.352778;stroke-linecap:round;stroke-linejoin:round;stroke-dasharray:none;stroke-opacity:1;paint-order:fill markers stroke"
     id="rect1879"
     width="52.832478"
     height="32.407551"
     x="4.0637608"
     y="89.597343"
     rx="4"
     ry="4.0000005" /><path
     sodipodi:type="star"
     style="fill:none;fill-opacity:1;stroke:#000000;stroke-width:0.551011;stroke-linecap:round;stroke-linejoin:round;stroke-dasharray:none;stroke-opacity:1;paint-order:fill markers stroke"
     id="path466"
     inkscape:flatsided="false"
     sodipodi:sides="7"
     sodipodi:cx="10.414905"
     sodipodi:cy="94.25489"
     sodipodi:r1="5.4656377"
     sodipodi:r2="8.6756153"
     sodipodi:arg1="0.3470616"
     sodipodi:arg2="0.79586055"
     inkscape:rounded="-1.3530843e-16"
     inkscape:randomized="0"
     d="m 15.55466,96.113951 0.930314,4.339369 -4.318956,-1.020901 -2.8126162,3.432901 -1.8946505,-4.013218 -4.4375885,-0.05861 1.9563657,-3.983499 -2.7209663,-3.50599 4.3341986,-0.954123 1.044599,-4.313286 3.4482912,2.793727 4.02356,-1.87259 -0.03425,4.437844 3.972698,1.978205 z"
     inkscape:transform-center-x="0.18490893"
     inkscape:transform-center-y="-0.55562329"
     transform="matrix(0.60175991,0.2187685,-0.21882036,0.60162422,29.554407,41.64128)" /><path
     sodipodi:type="star"
     style="fill:none;fill-opacity:1;stroke:#000000;stroke-width:0.736664;stroke-linecap:round;stroke-linejoin:round;stroke-dasharray:none;stroke-opacity:1;paint-order:fill markers stroke"
     id="path5604"
     inkscape:flatsided="false"
     sodipodi:sides="7"
     sodipodi:cx="10.414905"
     sodipodi:cy="94.25489"
     sodipodi:r1="5.4656377"
     sodipodi:r2="8.6756153"
     sodipodi:arg1="0.3470616"
     sodipodi:arg2="0.79586055"
     inkscape:rounded="-1.3530843e-16"
     inkscape:randomized="0"
     d="m 15.55466,96.113951 0.930314,4.339369 -4.318956,-1.020901 -2.8126162,3.432901 -1.8946505,-4.013218 -4.4375885,-0.05861 1.9563657,-3.983499 -2.7209663,-3.50599 4.3341986,-0.954123 1.044599,-4.313286 3.4482912,2.793727 4.02356,-1.87259 -0.03425,4.437844 3.972698,1.978205 z"
     inkscape:transform-center-x="0.13832377"
     inkscape:transform-center-y="-0.41555035"
     transform="matrix(0.45015452,0.16361673,-0.16369149,0.44995411,25.975265,56.584458)" /><path
     sodipodi:type="star"
     style="fill:none;fill-opacity:1;stroke:#000000;stroke-width:1.11155;stroke-linecap:round;stroke-linejoin:round;stroke-dasharray:none;stroke-opacity:1;paint-order:fill markers stroke"
     id="path5606"
     inkscape:flatsided="false"
     sodipodi:sides="7"
     sodipodi:cx="10.414905"
     sodipodi:cy="94.25489"
     sodipodi:r1="5.4656377"
     sodipodi:r2="8.6756153"
     sodipodi:arg1="0.3470616"
     sodipodi:arg2="0.79586055"
     inkscape:rounded="-1.3530843e-16"
     inkscape:randomized="0"
     d="m 15.55466,96.113951 0.930314,4.339369 -4.318956,-1.020901 -2.8126162,3.432901 -1.8946505,-4.013218 -4.4375885,-0.05861 1.9563657,-3.983499 -2.7209663,-3.50599 4.3341986,-0.954123 1.044599,-4.313286 3.4482912,2.793727 4.02356,-1.87259 -0.03425,4.437844 3.972698,1.978205 z"
     inkscape:transform-center-x="0.091692155"
     inkscape:transform-center-y="-0.2753385"
     transform="matrix(0.29839848,0.10841012,-0.10850783,0.2981332,22.392091,71.541037)" /><g
     aria-label="STRIKE"
     id="text5662"
     style="font-style:italic;font-size:2.82222px;font-family:Menlo;-inkscape-font-specification:'Menlo Italic';text-align:center;text-anchor:middle;opacity:1;fill:#000000;stroke-width:0.352777;stroke-linecap:round;stroke-linejoin:round;paint-order:fill markers stroke"><path
       d="m 12.071335,118.0534 -0.05374,0.2825 q -0.111621,-0.0813 -0.23151,-0.12265 -0.11989,-0.0413 -0.248047,-0.0413 -0.227376,0 -0.370692,0.113 -0.143316,0.113 -0.143316,0.28801 0,0.0978 0.06752,0.15847 0.06752,0.0606 0.245291,0.11576 l 0.166742,0.0537 q 0.22462,0.0689 0.327973,0.18466 0.104731,0.11437 0.104731,0.29214 0,0.32384 -0.228754,0.51401 -0.228755,0.18879 -0.624251,0.18879 -0.143316,0 -0.282498,-0.0317 -0.137804,-0.0303 -0.275607,-0.0923 l 0.0565,-0.28801 q 0.135048,0.0951 0.272852,0.14056 0.139181,0.0455 0.293521,0.0455 0.227377,0 0.369314,-0.12126 0.141938,-0.12127 0.141938,-0.30731 0,-0.113 -0.06063,-0.17501 -0.06063,-0.062 -0.243913,-0.11851 l -0.139182,-0.0455 q -0.253559,-0.0799 -0.355533,-0.18053 -0.100597,-0.10197 -0.100597,-0.26871 0,-0.30455 0.227376,-0.49748 0.227376,-0.1943 0.593934,-0.1943 0.110243,0 0.234266,0.0276 0.125402,0.0276 0.256315,0.0799 z"
       style="stroke-width:0.352778;fill:#000000"
       id="path5853" /><path
       d="m 12.455808,117.98312 h 1.570962 l -0.04548,0.23426 h -0.6463 l -0.352777,1.82315 h -0.28112 l 0.355534,-1.82315 h -0.6463 z"
       style="stroke-width:0.352778;fill:#000000"
       id="path5855" /><path
       d="m 14.944543,119.06901 q 0.09922,0.0193 0.158474,0.0923 0.06063,0.073 0.135048,0.31695 l 0.166742,0.56224 h -0.276985 l -0.146072,-0.51952 q -0.06063,-0.21498 -0.136426,-0.2825 -0.07441,-0.0675 -0.225998,-0.0675 h -0.264583 l -0.169499,0.86954 h -0.279741 l 0.398252,-2.05741 h 0.573264 q 0.285254,0 0.440972,0.12402 0.157096,0.12265 0.157096,0.34727 0,0.25218 -0.143316,0.41754 -0.141938,0.16537 -0.387228,0.19706 z m -0.403765,-0.85714 -0.14056,0.73036 h 0.30179 q 0.22462,0 0.35829,-0.11713 0.135048,-0.11851 0.135048,-0.31419 0,-0.15434 -0.08682,-0.226 -0.08682,-0.073 -0.274229,-0.073 z"
       style="stroke-width:0.352778;fill:#000000"
       id="path5857" /><path
       d="m 16.064887,117.98312 h 1.143771 l -0.04547,0.23426 h -0.432704 l -0.307302,1.58888 h 0.432704 l -0.04548,0.23427 h -1.143771 l 0.04548,-0.23427 h 0.431325 l 0.308681,-1.58888 h -0.432704 z"
       style="stroke-width:0.352778;fill:#000000"
       id="path5859" /><path
       d="m 17.67719,117.98312 h 0.278364 l -0.175011,0.89159 1.022504,-0.89159 h 0.350021 l -0.96876,0.853 0.5898,1.20441 h -0.30179 l -0.496093,-1.02113 -0.265962,0.23151 -0.15434,0.78962 h -0.279741 z"
       style="stroke-width:0.352778;fill:#000000"
       id="path5861" /><path
       d="m 19.46037,117.98312 h 1.219563 l -0.04547,0.23426 h -0.942577 l -0.118512,0.6091 h 0.899859 l -0.0441,0.23426 h -0.901236 l -0.143316,0.74552 h 0.967382 l -0.04547,0.23427 h -1.247124 z"
       style="stroke-width:0.352778;fill:#000000"
       id="path5863" /></g><path
     id="path5843"
     d="m 20.245981,27.972586 v 4.290759"
     style="clip-rule:evenodd;fill:none;fill-rule:evenodd;stroke:#000000;stroke-width:0.227962;stroke-linecap:round;stroke-linejoin:round;stroke-miterlimit:1.5;stroke-dasharray:none" /><path
     id="path5845"
     d="m 37.526982,26.920383 v 7.649268"
     style="clip-rule:evenodd;fill:none;fill-rule:evenodd;stroke:#000000;stroke-width:0.227962;stroke-linecap:round;stroke-linejoin:round;stroke-miterlimit:1.5;stroke-dasharray:none" /><path
     id="path5847"
     d="M 20.245981,43.376561 V 47.66732"
     style="clip-rule:evenodd;fill:none;fill-rule:evenodd;stroke:#000000;stroke-width:0.227962;stroke-linecap:round;stroke-linejoin:round;stroke-miterlimit:1.5;stroke-dasharray:none" /><path
     id="path5849"
     d="m 20.245981,58.289572 v 4.290759"
     style="clip-rule:evenodd;fill:none;fill-rule:evenodd;stroke:#000000;stroke-width:0.227962;stroke-linecap:round;stroke-linejoin:round;stroke-miterlimit:1.5;stroke-dasharray:none" /><path
     id="path5851"
     d="m 20.245981,73.693547 v 4.290759"
     style="clip-rule:evenodd;fill:none;fill-rule:evenodd;stroke:#000000;stroke-width:0.227962;stroke-linecap:round;stroke-linejoin:round;stroke-miterlimit:1.5;stroke-dasharray:none" /><path
     id="path6450"
     d="m 26.00312,38.414088 2.030126,0"
     style="clip-rule:evenodd;fill:none;fill-rule:evenodd;stroke:#000000;stroke-width:0.227961;stroke-linecap:round;stroke-linejoin:round;stroke-miterlimit:1.5;stroke-dasharray:none"
     sodipodi:nodetypes="cc" /><path
     id="path6452"
     d="M 6.7242492,38.42816 H 14.206765"
     style="clip-rule:evenodd;fill:none;fill-rule:evenodd;stroke:#000000;stroke-width:0.227962px;stroke-linecap:round;stroke-linejoin:round;stroke-miterlimit:1.5" /><path
     id="path6576"
     d="m 35.269069,23.274657 h 1.478762"
     style="clip-rule:evenodd;fill:none;fill-rule:evenodd;stroke:#000000;stroke-width:0.227961px;stroke-linecap:round;stroke-linejoin:round;stroke-miterlimit:1.5"
     sodipodi:nodetypes="cc" /><path
     id="path6578"
     d="m 40.514981,92.413407 v 4.290759"
     style="clip-rule:evenodd;fill:none;fill-rule:evenodd;stroke:#000000;stroke-width:0.227962;stroke-linecap:round;stroke-linejoin:round;stroke-miterlimit:1.5;stroke-dasharray:none" /><path
     id="path6580"
     d="m 40.514981,108.03576 v 4.29076"
     style="clip-rule:evenodd;fill:none;fill-rule:evenodd;stroke:#000000;stroke-width:0.227962;stroke-linecap:round;stroke-linejoin:round;stroke-miterlimit:1.5;stroke-dasharray:none" /></svg>
