<?xml version="1.0" encoding="UTF-8" standalone="no"?>
<!-- Created with Inkscape (http://www.inkscape.org/) -->

<svg
   width="76.199997mm"
   height="128.5mm"
   viewBox="0 0 76.200002 128.50002"
   version="1.1"
   id="svg8"
   inkscape:version="1.2 (dc2aeda, 2022-05-15)"
   sodipodi:docname="Arrange.svg"
   xml:space="preserve"
   xmlns:inkscape="http://www.inkscape.org/namespaces/inkscape"
   xmlns:sodipodi="http://sodipodi.sourceforge.net/DTD/sodipodi-0.dtd"
   xmlns="http://www.w3.org/2000/svg"
   xmlns:svg="http://www.w3.org/2000/svg"
   xmlns:rdf="http://www.w3.org/1999/02/22-rdf-syntax-ns#"
   xmlns:cc="http://creativecommons.org/ns#"
   xmlns:dc="http://purl.org/dc/elements/1.1/"><defs
     id="defs2" /><sodipodi:namedview
     id="base"
     pagecolor="#ffffff"
     bordercolor="#666666"
     borderopacity="1.0"
     inkscape:pageopacity="0.0"
     inkscape:pageshadow="2"
     inkscape:zoom="1.0610557"
     inkscape:cx="182.36554"
     inkscape:cy="291.2194"
     inkscape:document-units="mm"
     inkscape:current-layer="svg8"
     showgrid="false"
     units="mm"
     inkscape:snap-bbox="true"
     inkscape:snap-page="true"
     inkscape:bbox-nodes="false"
     inkscape:snap-bbox-edge-midpoints="false"
     inkscape:window-width="1062"
     inkscape:window-height="916"
     inkscape:window-x="405"
     inkscape:window-y="38"
     inkscape:window-maximized="0"
     inkscape:snap-bbox-midpoints="true"
     inkscape:snap-nodes="false"
     inkscape:showpageshadow="2"
     inkscape:pagecheckerboard="0"
     inkscape:deskcolor="#d1d1d1"
     showguides="true" /><metadata
     id="metadata5"><rdf:RDF><cc:Work
         rdf:about=""><dc:format>image/svg+xml</dc:format><dc:type
           rdf:resource="http://purl.org/dc/dcmitype/StillImage" /></cc:Work></rdf:RDF></metadata><rect
     id="rect1"
     x="-0.079669952"
     y="-0.38949111"
     width="76.330215"
     height="129.94316"
     style="clip-rule:evenodd;fill:#e5e5e5;fill-rule:evenodd;stroke-width:0.432944;stroke-linejoin:round;stroke-miterlimit:1.5;fill-opacity:1" /><g
     id="g10544"
     transform="translate(-6.1873121)"
     style="fill:#000000"><g
       id="g473"
       transform="translate(25.033328)"
       style="fill:#000000"><path
         id="path128"
         d="m 16.724247,125.9342 c 0.05984,0.1268 0.07943,0.25396 0.05842,0.38219 h -0.419235 c -0.0064,-0.0983 -0.02565,-0.1724 -0.05842,-0.22227 -0.05735,-0.089 -0.160997,-0.13357 -0.310597,-0.13357 -0.152449,0 -0.28602,0.0627 -0.4,0.18843 -0.114337,0.12538 -0.195192,0.30276 -0.242921,0.5325 -0.04809,0.22974 -0.03776,0.40143 0.0317,0.51612 0.0691,0.11433 0.175246,0.17133 0.318434,0.17133 0.147106,0 0.269635,-0.0492 0.367587,-0.14747 0.05378,-0.0524 0.105432,-0.13179 0.155298,-0.23722 h 0.415317 c -0.08264,0.22333 -0.213357,0.40463 -0.391452,0.54461 -0.178451,0.13927 -0.384328,0.20944 -0.617632,0.20944 -0.288513,0 -0.495815,-0.0944 -0.621906,-0.28317 -0.125379,-0.18985 -0.153162,-0.44986 -0.08442,-0.78076 0.07409,-0.35726 0.225468,-0.63295 0.453429,-0.82636 0.198753,-0.16848 0.424221,-0.2529 0.676403,-0.2529 0.337667,0 0.560642,0.11327 0.669992,0.3391 z"
         style="clip-rule:evenodd;opacity:1;fill:#000000;fill-rule:nonzero;stroke-width:0.356189;stroke-linejoin:round;stroke-miterlimit:1.5" /><path
         id="path129"
         d="m 17.652476,127.18869 0.764026,-1.55441 h 0.435619 l -1.110954,2.04667 h -0.396083 l -0.252181,-2.04667 h 0.448442 z"
         style="clip-rule:evenodd;opacity:1;fill:#000000;fill-rule:nonzero;stroke-width:0.356189;stroke-linejoin:round;stroke-miterlimit:1.5" /><path
         id="path130"
         d="m 20.435382,126.18139 -0.05877,0.27925 h -0.253963 l -0.253607,1.22031 h -0.386466 l 0.253606,-1.22031 h -0.216919 l 0.05842,-0.27925 h 0.212645 l 0.01995,-0.0972 c 0.03419,-0.16207 0.08406,-0.27355 0.149955,-0.33482 0.07551,-0.0905 0.220482,-0.13606 0.43562,-0.13606 0.02458,0 0.04666,7.1e-4 0.06625,0.002 0.01959,0.001 0.04666,0.004 0.08121,0.006 l -0.06803,0.32271 c -0.02102,-0.003 -0.05699,-0.005 -0.107569,-0.006 -0.05093,-10e-4 -0.08905,0.01 -0.113981,0.0345 -0.02493,0.0246 -0.03989,0.0516 -0.04559,0.0812 -0.0064,0.0299 -0.01532,0.0723 -0.02743,0.12787 z"
         style="clip-rule:evenodd;opacity:1;fill:#000000;fill-rule:nonzero;stroke-width:0.356189;stroke-linejoin:round;stroke-miterlimit:1.5" /><path
         id="path131"
         d="m 21.342239,127.46759 c -0.0043,0.005 -0.01638,0.0185 -0.03562,0.0417 -0.01888,0.0232 -0.04025,0.0431 -0.06376,0.0609 -0.07266,0.0556 -0.139626,0.0933 -0.200891,0.11363 -0.06091,0.0203 -0.129653,0.0306 -0.206234,0.0306 -0.219412,0 -0.350846,-0.0801 -0.393232,-0.2415 -0.02386,-0.0887 -0.01745,-0.21977 0.01888,-0.39287 l 0.189492,-0.91256 h 0.397151 l -0.189136,0.91256 c -0.01817,0.0862 -0.02173,0.15066 -0.01104,0.19447 0.01923,0.0769 0.0805,0.11541 0.183794,0.11541 0.132502,0 0.234728,-0.0549 0.306678,-0.1642 0.03811,-0.0591 0.06732,-0.13749 0.08727,-0.23438 l 0.171327,-0.82386 h 0.393233 l -0.314515,1.51345 h -0.376849 z"
         style="clip-rule:evenodd;opacity:1;fill:#000000;fill-rule:nonzero;stroke-width:0.356189;stroke-linejoin:round;stroke-miterlimit:1.5" /><path
         id="path132"
         d="m 23.188368,126.76091 c 0.0171,-0.0798 0.01959,-0.14105 0.0068,-0.18344 -0.02173,-0.078 -0.08584,-0.11683 -0.193055,-0.11683 -0.13179,0 -0.234016,0.057 -0.306323,0.17062 -0.03847,0.0605 -0.06696,0.13749 -0.08584,0.23081 l -0.170259,0.81888 h -0.386465 l 0.314159,-1.51096 h 0.374711 l -0.04631,0.22084 c 0.0659,-0.0773 0.125023,-0.13357 0.177026,-0.16777 0.09225,-0.0613 0.200179,-0.0915 0.322352,-0.0915 0.153517,0 0.270347,0.0406 0.350846,0.12289 0.08014,0.0819 0.100801,0.21763 0.06162,0.40748 l -0.212289,1.01906 h -0.397507 z"
         style="clip-rule:evenodd;opacity:1;fill:#000000;fill-rule:nonzero;stroke-width:0.356189;stroke-linejoin:round;stroke-miterlimit:1.5" /><path
         id="path133"
         d="m 24.22844,127.20543 -0.09759,0.47552 h -0.381484 l 0.424934,-2.0399 h 0.381122 l -0.230454,1.10312 0.601959,-0.5699 h 0.480856 l -0.640072,0.57952 0.346928,0.92716 H 24.64625 l -0.220125,-0.64684 z"
         style="clip-rule:evenodd;opacity:1;fill:#000000;fill-rule:nonzero;stroke-width:0.356189;stroke-linejoin:round;stroke-miterlimit:1.5" /><path
         id="path134"
         d="m 7.443026,126.66688 h 6.622269"
         style="clip-rule:evenodd;opacity:1;fill:#000000;fill-rule:evenodd;stroke:#000000;stroke-width:0.227961px;stroke-linecap:round;stroke-linejoin:round;stroke-miterlimit:1.5" /><path
         id="path135"
         d="m 25.753642,126.66688 h 6.62227"
         style="clip-rule:evenodd;opacity:1;fill:#000000;fill-rule:evenodd;stroke:#000000;stroke-width:0.227961px;stroke-linecap:round;stroke-linejoin:round;stroke-miterlimit:1.5" /></g></g><rect
     style="fill:#212121;fill-opacity:1;stroke:#000000;stroke-width:0.352778;stroke-dasharray:none;stroke-opacity:1"
     id="rect4"
     width="34.214615"
     height="13.425991"
     x="21.648178"
     y="10.610863"
     rx="2"
     ry="2" /><g
     id="g10491"
     transform="translate(-6.1873121)"
     style="fill:#000000"><path
       d="m 35.226255,3.058717 -1.003211,2.1332016 h 1.185112 z M 34.961672,2.5956966 h 0.677994 l 0.457509,4.1148189 H 35.543204 L 35.446744,5.6384026 H 34.013586 L 33.506468,6.7105155 H 32.9084 Z"
       style="font-style:italic;font-size:5.64444px;font-family:Menlo;-inkscape-font-specification:'Menlo Italic';text-align:center;text-anchor:middle;fill:#000000;fill-opacity:1;stroke-width:0.352778"
       id="path1468" /><path
       d="m 38.709933,4.7674831 q 0.198437,0.038585 0.316949,0.184657 0.121267,0.1460719 0.270095,0.6338971 l 0.333485,1.1244783 h -0.553971 l -0.292144,-1.03904 Q 38.66308,5.2415279 38.511496,5.1064803 38.362668,4.9714326 38.0595,4.9714326 h -0.529167 l -0.338997,1.7390829 h -0.559483 l 0.796506,-4.1148189 h 1.146526 q 0.570508,0 0.881944,0.2480467 0.314193,0.2452906 0.314193,0.6945307 0,0.5043616 -0.286632,0.8350905 -0.283876,0.3307289 -0.774457,0.3941186 z m -0.80753,-1.7142782 -0.281119,1.4607194 h 0.60358 q 0.44924,0 0.716579,-0.2342663 0.270096,-0.2370224 0.270096,-0.628385 0,-0.3086803 -0.173633,-0.4519962 -0.173633,-0.1460719 -0.548459,-0.1460719 z"
       style="font-style:italic;font-size:5.64444px;font-family:Menlo;-inkscape-font-specification:'Menlo Italic';text-align:center;text-anchor:middle;fill:#000000;fill-opacity:1;stroke-width:0.352778"
       id="path1470" /><path
       d="m 42.108173,4.7674831 q 0.198437,0.038585 0.316948,0.184657 0.121268,0.1460719 0.270096,0.6338971 l 0.333485,1.1244783 h -0.553971 l -0.292144,-1.03904 Q 42.061319,5.2415279 41.909735,5.1064803 41.760907,4.9714326 41.457739,4.9714326 h -0.529166 l -0.338997,1.7390829 h -0.559483 l 0.796505,-4.1148189 h 1.146527 q 0.570507,0 0.881944,0.2480467 0.314192,0.2452906 0.314192,0.6945307 0,0.5043616 -0.286631,0.8350905 -0.283876,0.3307289 -0.774457,0.3941186 z m -0.80753,-1.7142782 -0.28112,1.4607194 h 0.603581 q 0.44924,0 0.716579,-0.2342663 0.270095,-0.2370224 0.270095,-0.628385 0,-0.3086803 -0.173632,-0.4519962 -0.173633,-0.1460719 -0.548459,-0.1460719 z"
       style="font-style:italic;font-size:5.64444px;font-family:Menlo;-inkscape-font-specification:'Menlo Italic';text-align:center;text-anchor:middle;fill:#000000;fill-opacity:1;stroke-width:0.352778"
       id="path1472" /><path
       d="m 45.420975,3.058717 -1.003212,2.1332016 h 1.185112 z M 45.156391,2.5956966 h 0.677995 l 0.457508,4.1148189 h -0.553971 l -0.09646,-1.0721129 h -1.433158 l -0.507118,1.0721129 h -0.598068 z"
       style="font-style:italic;font-size:5.64444px;font-family:Menlo;-inkscape-font-specification:'Menlo Italic';text-align:center;text-anchor:middle;fill:#000000;fill-opacity:1;stroke-width:0.352778"
       id="path1474" /><path
       d="m 47.57898,2.5956966 h 0.705555 l 0.727604,3.3872153 0.658702,-3.3872153 h 0.537434 L 49.406257,6.7105155 H 48.700702 L 47.973099,3.3233002 47.311641,6.7105155 h -0.534678 z"
       style="font-style:italic;font-size:5.64444px;font-family:Menlo;-inkscape-font-specification:'Menlo Italic';text-align:center;text-anchor:middle;fill:#000000;fill-opacity:1;stroke-width:0.352778"
       id="path1476" /><path
       d="m 52.862374,6.4459324 q -0.239778,0.1708766 -0.523654,0.259071 -0.283876,0.085438 -0.606336,0.085438 -0.63941,0 -0.983919,-0.369314 -0.341753,-0.37207 -0.341753,-1.0583325 0,-0.2480467 0.0441,-0.5264102 0.04685,-0.2811196 0.135048,-0.5870439 0.09646,-0.3224606 0.225998,-0.5815316 0.129535,-0.2618271 0.283876,-0.4464841 0.2949,-0.3582896 0.650433,-0.5291662 0.35829,-0.1708766 0.815798,-0.1708766 0.220486,0 0.438216,0.057878 0.220486,0.057878 0.432704,0.1681206 L 53.319883,3.317788 Q 53.140738,3.1441554 52.9423,3.058717 52.746619,2.973279 52.523377,2.973279 q -0.270095,0 -0.507118,0.1157552 -0.237022,0.112999 -0.424435,0.336241 -0.121267,0.1433159 -0.228754,0.3582897 -0.107487,0.2149738 -0.190169,0.482313 -0.09371,0.3141925 -0.143316,0.5897999 -0.04685,0.2756074 -0.04685,0.4988494 0,0.4712887 0.217729,0.7276037 0.21773,0.2563149 0.617361,0.2563149 0.187413,0 0.336241,-0.049609 0.148828,-0.052365 0.250803,-0.148828 l 0.209462,-1.0831372 h -0.598069 l 0.08268,-0.4575083 h 1.12999 z"
       style="font-style:italic;font-size:5.64444px;font-family:Menlo;-inkscape-font-specification:'Menlo Italic';text-align:center;text-anchor:middle;fill:#000000;fill-opacity:1;stroke-width:0.352778"
       id="path1478" /><path
       d="m 54.538069,2.5956966 h 2.439126 l -0.09095,0.4685326 H 55.001089 L 54.764067,4.282414 h 1.799716 l -0.08819,0.4685327 H 54.67312 l -0.286631,1.4910362 h 1.934764 l -0.09095,0.4685326 h -2.494247 z"
       style="font-style:italic;font-size:5.64444px;font-family:Menlo;-inkscape-font-specification:'Menlo Italic';text-align:center;text-anchor:middle;fill:#000000;fill-opacity:1;stroke-width:0.352778"
       id="path1480" /></g><g
     id="g10498"
     transform="translate(-6.1873121)"
     style="fill:#000000"><path
       d="m 17.961497,8.2385024 -0.06718,0.3531225 Q 17.754791,8.4899945 17.604929,8.438318 17.455068,8.386642 17.294871,8.386642 q -0.284221,0 -0.463366,0.141249 -0.179145,0.141249 -0.179145,0.3600127 0,0.122301 0.0844,0.1980931 0.08441,0.075792 0.306614,0.1446941 l 0.208428,0.067179 q 0.280775,0.086128 0.409966,0.230822 0.130914,0.1429715 0.130914,0.3651803 0,0.4047988 -0.285943,0.6425108 -0.285943,0.235989 -0.780315,0.235989 -0.179145,0 -0.353122,-0.03962 -0.172255,-0.03789 -0.34451,-0.11541 l 0.07062,-0.360012 q 0.16881,0.118856 0.341065,0.1757 0.173977,0.05684 0.366903,0.05684 0.28422,0 0.461643,-0.151585 0.177422,-0.151584 0.177422,-0.3841276 0,-0.141249 -0.07579,-0.2187637 -0.07579,-0.077511 -0.30489,-0.1481352 L 16.891794,9.530414 Q 16.574845,9.4305062 16.447376,9.3047601 16.32163,9.1772915 16.32163,8.9688631 q 0,-0.3806833 0.284221,-0.6218401 0.284221,-0.2428794 0.742419,-0.2428794 0.137803,0 0.292833,0.034451 0.156752,0.034451 0.320394,0.099908 z"
       style="font-style:italic;font-size:3.52778px;font-family:Menlo;-inkscape-font-specification:'Menlo Italic';text-align:center;text-anchor:middle;fill:#000000;stroke-width:0.352778"
       id="path3263" /><path
       d="m 18.442088,8.1506524 h 1.963706 l -0.05684,0.2928333 h -0.807876 l -0.440972,2.2789323 h -0.3514 l 0.444417,-2.2789323 h -0.807875 z"
       style="font-style:italic;font-size:3.52778px;font-family:Menlo;-inkscape-font-specification:'Menlo Italic';text-align:center;text-anchor:middle;fill:#000000;stroke-width:0.352778"
       id="path3265" /><path
       d="m 21.499612,8.4400406 -0.627007,1.3332528 h 0.740696 z M 21.334248,8.1506524 h 0.423747 l 0.285943,2.5717656 h -0.346232 l -0.06029,-0.670072 h -0.895725 l -0.316949,0.670072 h -0.373793 z"
       style="font-style:italic;font-size:3.52778px;font-family:Menlo;-inkscape-font-specification:'Menlo Italic';text-align:center;text-anchor:middle;fill:#000000;stroke-width:0.352778"
       id="path3267" /><path
       d="m 24.026592,10.557053 q -0.149862,0.106798 -0.327285,0.16192 -0.177422,0.0534 -0.37896,0.0534 -0.399632,0 -0.61495,-0.230822 -0.213596,-0.232544 -0.213596,-0.6614586 0,-0.1550294 0.02756,-0.3290068 0.02928,-0.1757 0.08441,-0.3669029 0.06029,-0.2015382 0.141249,-0.3634578 0.08096,-0.1636421 0.177422,-0.2790529 0.184313,-0.2239314 0.406522,-0.3307294 0.223931,-0.106798 0.509874,-0.106798 0.137804,0 0.273885,0.036174 0.137804,0.036173 0.270441,0.1050755 l -0.07062,0.3565661 q -0.111966,-0.1085206 -0.235989,-0.1619196 -0.122301,-0.053399 -0.261828,-0.053399 -0.16881,0 -0.316949,0.072347 -0.148139,0.070625 -0.265272,0.210151 -0.07579,0.089573 -0.142972,0.2239313 -0.06718,0.1343589 -0.118856,0.3014461 -0.05857,0.1963706 -0.08957,0.3686255 -0.02928,0.1722548 -0.02928,0.3117813 0,0.2945562 0.136081,0.4547532 0.136082,0.160197 0.385851,0.160197 0.117134,0 0.210151,-0.03101 0.09302,-0.03273 0.156752,-0.09302 l 0.130914,-0.6769555 h -0.373793 l 0.05168,-0.2859431 h 0.706245 z"
       style="font-style:italic;font-size:3.52778px;font-family:Menlo;-inkscape-font-specification:'Menlo Italic';text-align:center;text-anchor:middle;fill:#000000;stroke-width:0.352778"
       id="path3269" /><path
       d="m 25.073901,8.1506524 h 1.524456 l -0.05684,0.2928333 h -1.178224 l -0.148139,0.7613666 h 1.124825 l -0.05512,0.2928333 h -1.126547 l -0.179145,0.9318994 h 1.209229 l -0.05684,0.292833 H 24.57265 Z"
       style="font-style:italic;font-size:3.52778px;font-family:Menlo;-inkscape-font-specification:'Menlo Italic';text-align:center;text-anchor:middle;fill:#000000;stroke-width:0.352778"
       id="path3271" /></g><g
     id="g10503"
     transform="translate(-6.1873121)"
     style="fill:#000000"><path
       d="m 66.689057,8.1506524 h 1.524456 l -0.05684,0.2928333 H 66.978449 L 66.83031,9.2048523 h 1.124824 l -0.05512,0.2928333 h -1.126552 l -0.179145,0.9318994 h 1.209229 l -0.05684,0.292833 h -1.558907 z"
       style="font-style:italic;font-size:3.52778px;font-family:Menlo;-inkscape-font-specification:'Menlo Italic';text-align:center;text-anchor:middle;fill:#000000;stroke-width:0.352778"
       id="path3274" /><path
       d="m 68.711329,8.1506524 h 0.440973 l 0.454753,2.1170126 0.411689,-2.1170126 h 0.335897 L 69.853379,10.722418 H 69.412407 L 68.957654,8.6054053 68.544242,10.722418 h -0.334174 z"
       style="font-style:italic;font-size:3.52778px;font-family:Menlo;-inkscape-font-specification:'Menlo Italic';text-align:center;text-anchor:middle;fill:#000000;stroke-width:0.352778"
       id="path3276" /><path
       d="m 70.902412,10.436475 q 0.318671,0 0.511597,-0.106798 0.192925,-0.108521 0.310058,-0.3514003 0.09302,-0.1980931 0.151585,-0.4719784 0.06029,-0.2756078 0.06029,-0.5047068 0,-0.3031686 -0.141249,-0.4340823 -0.141249,-0.1309137 -0.473701,-0.1309137 h -0.196371 l -0.389296,1.9998795 z m 0.451307,-2.2858226 q 0.470256,0 0.7028,0.213596 0.234267,0.2135961 0.234267,0.6476784 0,0.2790529 -0.07235,0.5753313 -0.07235,0.2962784 -0.194648,0.5253779 -0.179145,0.329006 -0.447863,0.470255 -0.266995,0.139527 -0.72347,0.139527 h -0.52193 l 0.501262,-2.5717656 z"
       style="font-style:italic;font-size:3.52778px;font-family:Menlo;-inkscape-font-specification:'Menlo Italic';text-align:center;text-anchor:middle;fill:#000000;stroke-width:0.352778"
       id="path3278" /></g><g
     id="g10508"
     transform="translate(-15.183145)"
     style="fill:#000000"><path
       d="m 61.789932,35.338554 h 1.362707 l -0.05116,0.263549 h -1.047998 l -0.133326,0.682129 h 0.94878 l -0.04961,0.26355 h -0.950328 l -0.215491,1.105359 h -0.31471 z"
       style="font-style:italic;font-size:3.175px;font-family:Menlo;-inkscape-font-specification:'Menlo Italic';text-align:center;text-anchor:middle;fill:#000000;stroke-width:0.352778"
       id="path3281" /><path
       d="m 63.332473,35.338554 h 0.296106 l -0.139526,1.875854 0.510046,-1.240234 h 0.327112 l 0.02325,1.243335 0.584461,-1.878955 h 0.306958 l -0.79065,2.314587 h -0.300756 l -0.04806,-1.348755 -0.575159,1.348755 H 63.2348 Z"
       style="font-style:italic;font-size:3.175px;font-family:Menlo;-inkscape-font-specification:'Menlo Italic';text-align:center;text-anchor:middle;fill:#000000;stroke-width:0.352778"
       id="path3283" /><path
       d="m 65.521487,37.395792 q 0.286804,0 0.460437,-0.09612 0.173633,-0.09767 0.279053,-0.31626 0.08371,-0.178283 0.136425,-0.42478 0.05426,-0.248047 0.05426,-0.454236 0,-0.272851 -0.127124,-0.390673 Q 66.197414,35.5959 65.898207,35.5959 h -0.176733 l -0.350367,1.79989 z m 0.406177,-2.057238 q 0.42323,0 0.632519,0.192236 0.21084,0.192236 0.21084,0.58291 0,0.251148 -0.06511,0.517798 -0.06511,0.26665 -0.175183,0.472839 -0.161231,0.296106 -0.403077,0.42323 -0.240295,0.125574 -0.651123,0.125574 h -0.469738 l 0.451135,-2.314587 z"
       style="font-style:italic;font-size:3.175px;font-family:Menlo;-inkscape-font-specification:'Menlo Italic';text-align:center;text-anchor:middle;fill:#000000;stroke-width:0.352778"
       id="path3285" /></g><g
     id="g10521"
     transform="translate(-16.770646)"
     style="fill:#000000"><path
       d="m 41.728997,36.547782 -0.165882,0.84801 h 0.384473 q 0.285254,0 0.435632,-0.134875 0.151929,-0.134876 0.151929,-0.389124 0,-0.165881 -0.10542,-0.244946 -0.10542,-0.07906 -0.327112,-0.07906 z m 0.182934,-0.95188 -0.136426,0.697632 h 0.378272 q 0.234094,0 0.367419,-0.111621 0.134876,-0.113171 0.134876,-0.310059 0,-0.145727 -0.08682,-0.210839 -0.08527,-0.06511 -0.279052,-0.06511 z m -0.26355,-0.257348 h 0.68678 q 0.31471,0 0.47594,0.124023 0.16123,0.122473 0.16123,0.361218 0,0.238745 -0.142626,0.399976 -0.142627,0.15968 -0.384473,0.190686 0.193787,0.03566 0.296106,0.15813 0.103869,0.122473 0.103869,0.314709 0,0.362769 -0.248046,0.564307 -0.246497,0.201538 -0.697632,0.201538 h -0.700733 z"
       style="font-style:italic;font-size:3.175px;font-family:Menlo;-inkscape-font-specification:'Menlo Italic';text-align:center;text-anchor:middle;fill:#000000;stroke-width:0.352778"
       id="path3288" /><path
       d="m 44.214116,35.599003 -0.564307,1.199927 h 0.666626 z m -0.148828,-0.260449 h 0.381372 l 0.257349,2.314587 H 44.3924 l -0.05426,-0.603064 h -0.806153 l -0.285254,0.603064 H 42.91032 Z"
       style="font-style:italic;font-size:3.175px;font-family:Menlo;-inkscape-font-specification:'Menlo Italic';text-align:center;text-anchor:middle;fill:#000000;stroke-width:0.352778"
       id="path3290" /><path
       d="m 46.449639,37.570975 q -0.130225,0.06356 -0.26355,0.09457 -0.131775,0.03256 -0.272852,0.03256 -0.356567,0 -0.553454,-0.206189 -0.195337,-0.206189 -0.195337,-0.57826 0,-0.341064 0.10852,-0.675927 0.108521,-0.334864 0.285254,-0.547254 0.165881,-0.201538 0.365869,-0.297656 0.199988,-0.09612 0.455786,-0.09612 0.124024,0 0.246497,0.03256 0.122473,0.03256 0.238745,0.09457 l -0.06356,0.32091 q -0.09922,-0.09767 -0.20929,-0.145727 -0.11007,-0.04806 -0.234094,-0.04806 -0.147278,0 -0.272851,0.06356 -0.125574,0.06201 -0.235645,0.190686 -0.16123,0.190686 -0.260449,0.488342 -0.09767,0.297656 -0.09767,0.596863 0,0.268201 0.120923,0.410828 0.120923,0.142626 0.348816,0.142626 0.131775,0 0.271302,-0.04961 0.141076,-0.04961 0.277502,-0.144177 z"
       style="font-style:italic;font-size:3.175px;font-family:Menlo;-inkscape-font-specification:'Menlo Italic';text-align:center;text-anchor:middle;fill:#000000;stroke-width:0.352778"
       id="path3292" /><path
       d="m 47.336406,35.338554 h 0.313159 l -0.196887,1.003039 1.150317,-1.003039 h 0.393775 l -1.089856,0.959631 0.663525,1.354956 h -0.339514 l -0.558106,-1.148767 -0.299206,0.260449 -0.173633,0.888318 h -0.314709 z"
       style="font-style:italic;font-size:3.175px;font-family:Menlo;-inkscape-font-specification:'Menlo Italic';text-align:center;text-anchor:middle;fill:#000000;stroke-width:0.352778"
       id="path3294" /></g><path
     d="M 33.20548,30.115512 H 22.456935"
     style="clip-rule:evenodd;display:inline;fill:none;fill-rule:evenodd;stroke:#000000;stroke-width:0.352778;stroke-linecap:square;stroke-linejoin:round;stroke-miterlimit:1.5;stroke-dasharray:none;stroke-opacity:1"
     id="path9444"
     sodipodi:nodetypes="cc"
     inkscape:transform-center-x="-0.40396182"
     inkscape:transform-center-y="1.5151896" /><path
     d="M 54.899675,30.115512 H 44.15113"
     style="clip-rule:evenodd;display:inline;fill:none;fill-rule:evenodd;stroke:#000000;stroke-width:0.352778;stroke-linecap:square;stroke-linejoin:round;stroke-miterlimit:1.5;stroke-dasharray:none;stroke-opacity:1"
     id="path9446"
     sodipodi:nodetypes="cc"
     inkscape:transform-center-x="-0.40396182"
     inkscape:transform-center-y="1.5151896" /><path
     d="M 67.14879,45.564123 H 7.5027265"
     style="clip-rule:evenodd;display:inline;fill:none;fill-rule:evenodd;stroke:#000000;stroke-width:0.35277778;stroke-linecap:square;stroke-linejoin:round;stroke-miterlimit:1.5;stroke-dasharray:none;stroke-opacity:1"
     id="path9448"
     sodipodi:nodetypes="cc"
     inkscape:transform-center-x="-2.2416733"
     inkscape:transform-center-y="1.5050875" /><path
     d="M 67.14879,57.370968 H 7.5027265"
     style="clip-rule:evenodd;display:inline;fill:none;fill-rule:evenodd;stroke:#000000;stroke-width:0.35277778;stroke-linecap:square;stroke-linejoin:round;stroke-miterlimit:1.5;stroke-dasharray:none;stroke-opacity:1"
     id="path9450"
     sodipodi:nodetypes="cc"
     inkscape:transform-center-x="-2.2416733"
     inkscape:transform-center-y="1.5050878" /><path
     d="M 67.14879,69.177812 H 7.5027265"
     style="clip-rule:evenodd;display:inline;fill:none;fill-rule:evenodd;stroke:#000000;stroke-width:0.35277778;stroke-linecap:square;stroke-linejoin:round;stroke-miterlimit:1.5;stroke-dasharray:none;stroke-opacity:1"
     id="path9452"
     sodipodi:nodetypes="cc"
     inkscape:transform-center-x="-2.2416733"
     inkscape:transform-center-y="1.5050872" /><path
     d="M 67.14879,80.984657 H 7.5027265"
     style="clip-rule:evenodd;display:inline;fill:none;fill-rule:evenodd;stroke:#000000;stroke-width:0.35277778;stroke-linecap:square;stroke-linejoin:round;stroke-miterlimit:1.5;stroke-dasharray:none;stroke-opacity:1"
     id="path9454"
     sodipodi:nodetypes="cc"
     inkscape:transform-center-x="-2.2416733"
     inkscape:transform-center-y="1.5050876" /><path
     d="M 67.14879,92.791502 H 7.5027265"
     style="clip-rule:evenodd;display:inline;fill:none;fill-rule:evenodd;stroke:#000000;stroke-width:0.35277778;stroke-linecap:square;stroke-linejoin:round;stroke-miterlimit:1.5;stroke-dasharray:none;stroke-opacity:1"
     id="path9456"
     sodipodi:nodetypes="cc"
     inkscape:transform-center-x="-2.2416733"
     inkscape:transform-center-y="1.505088" /><path
     d="M 67.14879,104.59835 H 7.5027265"
     style="clip-rule:evenodd;display:inline;fill:none;fill-rule:evenodd;stroke:#000000;stroke-width:0.35277778;stroke-linecap:square;stroke-linejoin:round;stroke-miterlimit:1.5;stroke-dasharray:none;stroke-opacity:1"
     id="path9458"
     sodipodi:nodetypes="cc"
     inkscape:transform-center-x="-2.2416733"
     inkscape:transform-center-y="1.5050905" /><path
     d="M 67.14879,116.40518 H 7.5027265"
     style="clip-rule:evenodd;display:inline;fill:none;fill-rule:evenodd;stroke:#000000;stroke-width:0.35277778;stroke-linecap:square;stroke-linejoin:round;stroke-miterlimit:1.5;stroke-dasharray:none;stroke-opacity:1"
     id="path9460"
     sodipodi:nodetypes="cc"
     inkscape:transform-center-x="-2.2416733"
     inkscape:transform-center-y="1.5050768" /><g
     aria-label="MODE"
     id="text11383"
     style="font-style:italic;font-size:3.175px;font-family:Menlo;-inkscape-font-specification:'Menlo Italic';text-align:center;text-anchor:middle;opacity:1;fill:#000000;stroke:#000000;stroke-width:0.352777"><path
       d="m 12.989659,121.11792 h 0.417029 l 0.170532,1.17202 0.641821,-1.17202 h 0.41858 l -0.451136,2.31458 h -0.288354 l 0.399975,-2.05724 -0.672827,1.23249 h -0.218591 l -0.178284,-1.23249 -0.396875,2.05724 h -0.288354 z"
       style="fill:#000000;stroke:none;stroke-width:0.352778"
       id="path11385" /><path
       d="m 15.3244,123.22321 q 0.131775,0 0.243396,-0.0791 0.111621,-0.0791 0.184485,-0.22634 0.114722,-0.2248 0.186035,-0.54416 0.07131,-0.31936 0.07131,-0.61391 0,-0.22014 -0.08217,-0.32401 -0.08061,-0.10542 -0.251147,-0.10542 -0.131775,0 -0.241846,0.0791 -0.110071,0.0791 -0.182934,0.22634 -0.117823,0.2279 -0.189136,0.54416 -0.07131,0.31626 -0.07131,0.61081 0,0.22169 0.08062,0.32711 0.08216,0.10542 0.252697,0.10542 z m 1.00614,-1.37201 q 0,0.17054 -0.03566,0.37052 -0.03411,0.19999 -0.100769,0.41083 -0.04496,0.14263 -0.09767,0.2558 -0.05116,0.11317 -0.111621,0.20464 -0.136426,0.19689 -0.305408,0.29145 -0.168982,0.093 -0.393774,0.093 -0.311609,0 -0.461987,-0.19068 -0.150379,-0.19069 -0.150379,-0.58757 0,-0.17208 0.03256,-0.36897 0.03411,-0.19843 0.100769,-0.40927 0.04496,-0.14263 0.09612,-0.2558 0.05271,-0.11317 0.113171,-0.20464 0.136426,-0.19689 0.305408,-0.2899 0.168982,-0.0946 0.393774,-0.0946 0.313159,0 0.463538,0.19068 0.151928,0.18914 0.151928,0.58446 z"
       style="fill:#000000;stroke:none;stroke-width:0.352778"
       id="path11387" /><path
       d="m 16.959959,123.17515 q 0.286805,0 0.460437,-0.0961 0.173633,-0.0977 0.279053,-0.31626 0.08372,-0.17829 0.136426,-0.42478 0.05426,-0.24805 0.05426,-0.45424 0,-0.27285 -0.127124,-0.39067 -0.127124,-0.11783 -0.42633,-0.11783 h -0.176734 l -0.350366,1.79989 z m 0.406177,-2.05723 q 0.42323,0 0.63252,0.19223 0.210839,0.19224 0.210839,0.58291 0,0.25115 -0.06511,0.5178 -0.06511,0.26665 -0.175183,0.47284 -0.16123,0.2961 -0.403076,0.42323 -0.240295,0.12557 -0.651123,0.12557 h -0.469739 l 0.451135,-2.31458 z"
       style="fill:#000000;stroke:none;stroke-width:0.352778"
       id="path11389" /><path
       d="m 18.902476,121.11792 h 1.372009 l -0.05116,0.26355 h -1.060401 l -0.133325,0.68522 h 1.012341 l -0.04961,0.26355 h -1.013891 l -0.161231,0.83871 h 1.088306 l -0.05116,0.26355 h -1.403015 z"
       style="fill:#000000;stroke:none;stroke-width:0.352778"
       id="path11391" /></g><rect
     style="clip-rule:evenodd;fill:#212121;fill-opacity:1;fill-rule:evenodd;stroke:#000000;stroke-width:0.338051;stroke-linejoin:round;stroke-miterlimit:1.5;stroke-dasharray:none;stroke-opacity:1"
     id="rect2-5"
     width="22.188557"
     height="81.156181"
     x="36.173695"
     y="41.024662"
     ry="3.8056121"
     rx="3.8056121" /><rect
     style="clip-rule:evenodd;fill:#666666;fill-opacity:1;fill-rule:evenodd;stroke:#000000;stroke-width:0.352778;stroke-linejoin:round;stroke-miterlimit:1.5;stroke-dasharray:none;stroke-opacity:1"
     id="rect2-9"
     width="9.1705532"
     height="84.776131"
     x="63.662056"
     y="-124.58052"
     rx="2.7377527"
     ry="2.7377527"
     transform="scale(1,-1)" /><g
     id="g10533"
     transform="translate(0.69185458)"><path
       d="m 65.542288,122.97384 q 0.131775,0 0.243396,-0.0791 0.111621,-0.0791 0.184485,-0.22634 0.114721,-0.22479 0.186035,-0.54415 0.07131,-0.31936 0.07131,-0.61392 0,-0.22014 -0.08216,-0.32401 -0.08062,-0.10542 -0.251148,-0.10542 -0.131775,0 -0.241846,0.0791 -0.11007,0.0791 -0.182934,0.22634 -0.117822,0.22789 -0.189136,0.54415 -0.07131,0.31626 -0.07131,0.61082 0,0.22169 0.08062,0.32711 0.08216,0.10542 0.252698,0.10542 z m 1.00614,-1.37201 q 0,0.17053 -0.03566,0.37052 -0.03411,0.19999 -0.100769,0.41083 -0.04496,0.14262 -0.09767,0.2558 -0.05116,0.11317 -0.111622,0.20463 -0.136425,0.19689 -0.305407,0.29146 -0.168982,0.093 -0.393775,0.093 -0.311609,0 -0.461987,-0.19069 -0.150378,-0.19069 -0.150378,-0.58756 0,-0.17208 0.03256,-0.36897 0.03411,-0.19844 0.100769,-0.40928 0.04496,-0.14262 0.09612,-0.2558 0.05271,-0.11317 0.113171,-0.20463 0.136426,-0.19689 0.305408,-0.28991 0.168982,-0.0946 0.393775,-0.0946 0.313159,0 0.463537,0.19069 0.151929,0.18913 0.151929,0.58446 z"
       style="font-style:italic;font-size:3.175px;font-family:Menlo;-inkscape-font-specification:'Menlo Italic';text-align:center;text-anchor:middle;fill:#ffffff;stroke-width:0.352778"
       id="path3245" /><path
       d="m 66.853836,122.29481 0.275952,-1.42627 h 0.314709 l -0.277502,1.42627 q -0.0031,0.0202 -0.0124,0.0636 -0.04651,0.23875 -0.04651,0.33021 0,0.14263 0.08371,0.21395 0.08527,0.0713 0.255799,0.0713 0.137976,0 0.234094,-0.0434 0.09612,-0.045 0.165881,-0.14108 0.03411,-0.0481 0.06821,-0.16433 0.03566,-0.11782 0.07751,-0.33021 l 0.275952,-1.42627 h 0.314709 l -0.275952,1.42627 q -0.06511,0.33951 -0.139526,0.49919 -0.07286,0.15813 -0.193787,0.2558 -0.11007,0.0868 -0.251147,0.13333 -0.141077,0.045 -0.305408,0.045 -0.297656,0 -0.458887,-0.13953 -0.15968,-0.13953 -0.15968,-0.39687 0,-0.0574 0.0124,-0.15503 0.01395,-0.0977 0.04186,-0.24185 z"
       style="font-style:italic;font-size:3.175px;font-family:Menlo;-inkscape-font-specification:'Menlo Italic';text-align:center;text-anchor:middle;fill:#ffffff;stroke-width:0.352778"
       id="path3247" /><path
       d="m 68.88627,120.86854 h 1.767333 l -0.05116,0.26355 h -0.727088 l -0.396875,2.05104 h -0.316259 l 0.399975,-2.05104 h -0.727087 z"
       style="font-style:italic;font-size:3.175px;font-family:Menlo;-inkscape-font-specification:'Menlo Italic';text-align:center;text-anchor:middle;fill:#ffffff;stroke-width:0.352778"
       id="path3249" /></g><g
     aria-label="IN"
     id="text11759"
     style="font-style:italic;font-size:3.175px;font-family:Menlo;-inkscape-font-specification:'Menlo Italic';text-align:center;text-anchor:middle;opacity:1;fill:#000000;stroke-width:0.352777"><path
       d="m 4.8588541,121.1179 h 1.2867432 l -0.05116,0.26355 h -0.486792 l -0.3457153,1.78749 h 0.486792 l -0.05116,0.26355 H 4.4108195 l 0.05116,-0.26355 h 0.4852417 l 0.3472656,-1.78749 H 4.8076945 Z"
       style="stroke-width:0.352778;fill:#000000"
       id="path11772" /><path
       d="m 6.6757974,121.1179 h 0.396875 l 0.4092774,1.90531 0.37052,-1.90531 h 0.3023071 l -0.4511352,2.31459 H 7.3067667 L 6.8974893,121.52718 6.525419,123.43249 H 6.2246622 Z"
       style="stroke-width:0.352778;fill:#000000"
       id="path11774" /></g><g
     aria-label="REC"
     id="text11763"
     style="font-style:italic;font-size:3.175px;font-family:Menlo;-inkscape-font-specification:'Menlo Italic';text-align:center;text-anchor:middle;opacity:1;fill:#000000;stroke-width:0.352777"
     transform="translate(0,14.213439)"><path
       d="m 4.5542216,22.596102 q 0.1116211,0.0217 0.1782836,0.103869 0.068213,0.08217 0.1519288,0.356568 l 0.1875854,0.632519 H 4.7604105 l -0.164331,-0.58446 q -0.068213,-0.241846 -0.153479,-0.31781 -0.083716,-0.07597 -0.2542481,-0.07597 H 3.8906962 l -0.1906861,0.97824 H 3.3853007 l 0.4480346,-2.314587 h 0.6449219 q 0.3209106,0 0.4960937,0.139526 0.1767334,0.137976 0.1767334,0.390674 0,0.283704 -0.1612304,0.469739 -0.1596802,0.186035 -0.4356323,0.221692 z M 4.0999857,21.63182 3.9418558,22.453475 H 4.28137 q 0.2526978,0 0.4030762,-0.131775 0.1519287,-0.133325 0.1519287,-0.353467 0,-0.173633 -0.097669,-0.254248 -0.097668,-0.08216 -0.3085083,-0.08216 z"
       style="stroke-width:0.352778;fill:#000000"
       id="path11765" /><path
       d="m 5.8115091,21.374471 h 1.3720093 l -0.05116,0.26355 H 6.0719583 L 5.9386331,22.32325 H 6.9509744 L 6.9013651,22.5868 H 5.8874735 L 5.726243,23.425509 h 1.0883057 l -0.05116,0.263549 H 5.3603739 Z"
       style="stroke-width:0.352778;fill:#000000"
       id="path11767" /><path
       d="m 8.6531961,23.606893 q -0.1302246,0.06356 -0.2635498,0.09457 -0.1317749,0.03256 -0.2728516,0.03256 -0.3565674,0 -0.5534546,-0.206189 -0.1953369,-0.206189 -0.1953369,-0.578259 0,-0.341065 0.1085205,-0.675928 0.1085205,-0.334863 0.2852539,-0.547254 0.1658814,-0.201538 0.3658692,-0.297656 0.1999878,-0.09612 0.4557861,-0.09612 0.1240234,0 0.2464966,0.03256 0.1224731,0.03256 0.2387451,0.09457 l -0.063562,0.320911 Q 8.9058936,21.682988 8.795823,21.63493 8.6857522,21.58687 8.5617288,21.58687 q -0.1472778,0 -0.2728516,0.06356 -0.1255737,0.06201 -0.2356445,0.190686 -0.1612305,0.190686 -0.2604492,0.488342 -0.097668,0.297657 -0.097668,0.596863 0,0.268201 0.1209229,0.410828 0.1209228,0.142627 0.3488159,0.142627 0.1317749,0 0.2713013,-0.04961 0.1410766,-0.04961 0.2775024,-0.144177 z"
       style="stroke-width:0.352778;fill:#000000"
       id="path11769" /></g><g
     id="g10515"
     transform="translate(42.235439,0.0941557)"
     style="fill:#000000"><path
       d="m 22.774091,36.560184 q 0.111621,0.0217 0.178284,0.10387 0.06821,0.08217 0.151929,0.356567 l 0.187585,0.63252 H 22.98028 l -0.164331,-0.58446 q -0.06821,-0.241846 -0.153479,-0.31781 -0.08372,-0.07596 -0.254248,-0.07596 h -0.297656 l -0.190686,0.978235 h -0.31471 l 0.448035,-2.314592 h 0.644922 q 0.320911,0 0.496094,0.139526 0.176733,0.137976 0.176733,0.390674 0,0.283703 -0.16123,0.469739 -0.15968,0.186035 -0.435633,0.221691 z m -0.454235,-0.964282 -0.15813,0.821656 h 0.339514 q 0.252698,0 0.403076,-0.131775 0.151929,-0.133326 0.151929,-0.353467 0,-0.173633 -0.09767,-0.254248 -0.09767,-0.08217 -0.308509,-0.08217 z"
       style="font-style:italic;font-size:3.175px;font-family:Menlo;-inkscape-font-specification:'Menlo Italic';text-align:center;text-anchor:middle;fill:#000000;stroke-width:0.352778"
       id="path3252" /><path
       d="m 24.031379,35.338554 h 1.372009 l -0.05116,0.263549 h -1.0604 l -0.133325,0.68523 h 1.012341 l -0.04961,0.26355 h -1.013891 l -0.16123,0.838708 h 1.088305 l -0.05116,0.26355 h -1.403014 z"
       style="font-style:italic;font-size:3.175px;font-family:Menlo;-inkscape-font-specification:'Menlo Italic';text-align:center;text-anchor:middle;fill:#000000;stroke-width:0.352778"
       id="path3254" /><path
       d="m 27.187775,35.417619 -0.06046,0.31781 q -0.125574,-0.09147 -0.260449,-0.137976 -0.134876,-0.04651 -0.279053,-0.04651 -0.255798,0 -0.417029,0.127124 -0.16123,0.127124 -0.16123,0.324011 0,0.110071 0.07596,0.178284 0.07596,0.06821 0.275952,0.130224 l 0.187586,0.06046 q 0.252697,0.07751 0.368969,0.207739 0.117822,0.128674 0.117822,0.328662 0,0.364319 -0.257348,0.578259 -0.257349,0.212391 -0.702283,0.212391 -0.16123,0 -0.31781,-0.03566 -0.155029,-0.03411 -0.310058,-0.10387 l 0.06356,-0.324011 q 0.151928,0.10697 0.306958,0.15813 0.156579,0.05116 0.330212,0.05116 0.255798,0 0.415478,-0.136425 0.159681,-0.136426 0.159681,-0.345716 0,-0.127124 -0.06821,-0.196887 -0.06821,-0.06976 -0.274402,-0.133325 l -0.15658,-0.05116 q -0.285254,-0.08992 -0.399975,-0.203088 -0.113172,-0.114722 -0.113172,-0.302307 0,-0.342615 0.255799,-0.559656 0.255798,-0.218591 0.668176,-0.218591 0.124023,0 0.26355,0.03101 0.141076,0.03101 0.288354,0.08992 z"
       style="font-style:italic;font-size:3.175px;font-family:Menlo;-inkscape-font-specification:'Menlo Italic';text-align:center;text-anchor:middle;fill:#000000;stroke-width:0.352778"
       id="path3256" /><path
       d="m 27.854401,35.338554 h 1.372009 l -0.05116,0.263549 h -1.060401 l -0.133325,0.68523 h 1.012341 l -0.04961,0.26355 h -1.013892 l -0.16123,0.838708 h 1.088305 l -0.05116,0.26355 h -1.403015 z"
       style="font-style:italic;font-size:3.175px;font-family:Menlo;-inkscape-font-specification:'Menlo Italic';text-align:center;text-anchor:middle;fill:#000000;stroke-width:0.352778"
       id="path3258" /><path
       d="m 29.531818,35.338554 h 1.767334 l -0.05116,0.263549 h -0.727087 l -0.396875,2.051038 h -0.31626 l 0.399976,-2.051038 h -0.727088 z"
       style="font-style:italic;font-size:3.175px;font-family:Menlo;-inkscape-font-specification:'Menlo Italic';text-align:center;text-anchor:middle;fill:#000000;stroke-width:0.352778"
       id="path3260" /></g><path
     d="M 73.479223,30.209668 H 62.730678"
     style="clip-rule:evenodd;display:inline;fill:none;fill-rule:evenodd;stroke:#000000;stroke-width:0.352778;stroke-linecap:square;stroke-linejoin:round;stroke-miterlimit:1.5;stroke-dasharray:none;stroke-opacity:1"
     id="path10"
     sodipodi:nodetypes="cc"
     inkscape:transform-center-x="-0.40396182"
     inkscape:transform-center-y="1.5151896" /><path
     d="M 14.752946,30.115512 H 4.0044007"
     style="clip-rule:evenodd;display:inline;fill:none;fill-rule:evenodd;stroke:#000000;stroke-width:0.352778;stroke-linecap:square;stroke-linejoin:round;stroke-miterlimit:1.5;stroke-dasharray:none;stroke-opacity:1"
     id="path14161"
     sodipodi:nodetypes="cc"
     inkscape:transform-center-x="-0.40396182"
     inkscape:transform-center-y="1.5151896" /></svg>
