<?xml version="1.0" encoding="UTF-8" standalone="no"?>
<!-- Created with Inkscape (http://www.inkscape.org/) -->

<svg
   width="101.6mm"
   height="128.5mm"
   viewBox="0 0 101.60001 128.50002"
   version="1.1"
   id="svg8"
   inkscape:version="1.2 (dc2aeda, 2022-05-15)"
   sodipodi:docname="Aulos.svg"
   xml:space="preserve"
   xmlns:inkscape="http://www.inkscape.org/namespaces/inkscape"
   xmlns:sodipodi="http://sodipodi.sourceforge.net/DTD/sodipodi-0.dtd"
   xmlns="http://www.w3.org/2000/svg"
   xmlns:svg="http://www.w3.org/2000/svg"
   xmlns:rdf="http://www.w3.org/1999/02/22-rdf-syntax-ns#"
   xmlns:cc="http://creativecommons.org/ns#"
   xmlns:dc="http://purl.org/dc/elements/1.1/"><defs
     id="defs2">
            
            
        
            
            
        
            
            
        </defs><sodipodi:namedview
     id="base"
     pagecolor="#ffffff"
     bordercolor="#666666"
     borderopacity="1.0"
     inkscape:pageopacity="0.0"
     inkscape:pageshadow="2"
     inkscape:zoom="1.4250686"
     inkscape:cx="76.838406"
     inkscape:cy="247.70737"
     inkscape:document-units="mm"
     inkscape:current-layer="svg8"
     showgrid="false"
     units="mm"
     inkscape:snap-bbox="true"
     inkscape:snap-page="true"
     inkscape:bbox-nodes="false"
     inkscape:snap-bbox-edge-midpoints="false"
     inkscape:window-width="1512"
     inkscape:window-height="916"
     inkscape:window-x="0"
     inkscape:window-y="38"
     inkscape:window-maximized="0"
     inkscape:snap-bbox-midpoints="true"
     inkscape:snap-nodes="false"
     inkscape:showpageshadow="2"
     inkscape:pagecheckerboard="0"
     inkscape:deskcolor="#d1d1d1"
     showguides="false" /><metadata
     id="metadata5"><rdf:RDF><cc:Work
         rdf:about=""><dc:format>image/svg+xml</dc:format><dc:type
           rdf:resource="http://purl.org/dc/dcmitype/StillImage" /></cc:Work></rdf:RDF></metadata><rect
     id="rect1"
     x="-0.16655771"
     y="-0.38949111"
     width="102.12192"
     height="129.14665"
     style="clip-rule:evenodd;fill:#e5e5e5;fill-rule:evenodd;stroke-width:0.497961;stroke-linejoin:round;stroke-miterlimit:1.5;fill-opacity:1"
     sodipodi:insensitive="true" /><path
     id="path128"
     d="m 47.614778,125.9342 c 0.05984,0.1268 0.07943,0.25396 0.05842,0.38219 h -0.419235 c -0.0064,-0.0983 -0.02565,-0.1724 -0.05842,-0.22227 -0.05735,-0.089 -0.160997,-0.13357 -0.310597,-0.13357 -0.152449,0 -0.28602,0.0627 -0.4,0.18843 -0.114337,0.12538 -0.195192,0.30276 -0.242921,0.5325 -0.04809,0.22974 -0.03776,0.40143 0.0317,0.51612 0.0691,0.11433 0.175246,0.17133 0.318434,0.17133 0.147106,0 0.269635,-0.0492 0.367587,-0.14747 0.05378,-0.0524 0.105432,-0.13179 0.155298,-0.23722 h 0.415317 c -0.08264,0.22333 -0.213357,0.40463 -0.391452,0.54461 -0.178451,0.13927 -0.384328,0.20944 -0.617632,0.20944 -0.288513,0 -0.495815,-0.0944 -0.621906,-0.28317 -0.125379,-0.18985 -0.153162,-0.44986 -0.08442,-0.78076 0.07409,-0.35726 0.225468,-0.63295 0.453429,-0.82636 0.198753,-0.16848 0.424221,-0.2529 0.676403,-0.2529 0.337667,0 0.560642,0.11327 0.669992,0.3391 z"
     style="clip-rule:evenodd;fill:#000000;fill-rule:nonzero;stroke-width:0.356189;stroke-linejoin:round;stroke-miterlimit:1.5" /><path
     id="path129"
     d="m 48.543007,127.18869 0.764026,-1.55441 h 0.435619 l -1.110954,2.04667 h -0.396083 l -0.252181,-2.04667 h 0.448442 z"
     style="clip-rule:evenodd;fill:#000000;fill-rule:nonzero;stroke-width:0.356189;stroke-linejoin:round;stroke-miterlimit:1.5" /><path
     id="path130"
     d="m 51.325913,126.18139 -0.05877,0.27925 H 51.01318 l -0.253607,1.22031 h -0.386466 l 0.253606,-1.22031 h -0.216919 l 0.05842,-0.27925 h 0.212645 l 0.01995,-0.0972 c 0.03419,-0.16207 0.08406,-0.27355 0.149955,-0.33482 0.07551,-0.0905 0.220482,-0.13606 0.43562,-0.13606 0.02458,0 0.04666,7.1e-4 0.06625,0.002 0.01959,0.001 0.04666,0.004 0.08121,0.006 l -0.06803,0.32271 c -0.02102,-0.003 -0.05699,-0.005 -0.107569,-0.006 -0.05093,-10e-4 -0.08905,0.01 -0.113981,0.0345 -0.02493,0.0246 -0.03989,0.0516 -0.04559,0.0812 -0.0064,0.0299 -0.01532,0.0723 -0.02743,0.12787 z"
     style="clip-rule:evenodd;fill:#000000;fill-rule:nonzero;stroke-width:0.356189;stroke-linejoin:round;stroke-miterlimit:1.5" /><path
     id="path131"
     d="m 52.23277,127.46759 c -0.0043,0.005 -0.01638,0.0185 -0.03562,0.0417 -0.01888,0.0232 -0.04025,0.0431 -0.06376,0.0609 -0.07266,0.0556 -0.139626,0.0933 -0.200891,0.11363 -0.06091,0.0203 -0.129653,0.0306 -0.206234,0.0306 -0.219412,0 -0.350846,-0.0801 -0.393232,-0.2415 -0.02386,-0.0887 -0.01745,-0.21977 0.01888,-0.39287 l 0.189492,-0.91256 h 0.397151 l -0.189136,0.91256 c -0.01817,0.0862 -0.02173,0.15066 -0.01104,0.19447 0.01923,0.0769 0.0805,0.11541 0.183794,0.11541 0.132502,0 0.234728,-0.0549 0.306678,-0.1642 0.03811,-0.0591 0.06732,-0.13749 0.08727,-0.23438 l 0.171327,-0.82386 h 0.393233 l -0.314515,1.51345 h -0.376849 z"
     style="clip-rule:evenodd;fill:#000000;fill-rule:nonzero;stroke-width:0.356189;stroke-linejoin:round;stroke-miterlimit:1.5" /><path
     id="path132"
     d="m 54.078899,126.76091 c 0.0171,-0.0798 0.01959,-0.14105 0.0068,-0.18344 -0.02173,-0.078 -0.08584,-0.11683 -0.193055,-0.11683 -0.13179,0 -0.234016,0.057 -0.306323,0.17062 -0.03847,0.0605 -0.06696,0.13749 -0.08584,0.23081 l -0.170259,0.81888 h -0.386465 l 0.314159,-1.51096 h 0.374711 l -0.04631,0.22084 c 0.0659,-0.0773 0.125023,-0.13357 0.177026,-0.16777 0.09225,-0.0613 0.200179,-0.0915 0.322352,-0.0915 0.153517,0 0.270347,0.0406 0.350846,0.12289 0.08014,0.0819 0.100801,0.21763 0.06162,0.40748 l -0.212289,1.01906 h -0.397507 z"
     style="clip-rule:evenodd;fill:#000000;fill-rule:nonzero;stroke-width:0.356189;stroke-linejoin:round;stroke-miterlimit:1.5" /><path
     id="path133"
     d="m 55.118971,127.20543 -0.09759,0.47552 h -0.381484 l 0.424934,-2.0399 h 0.381122 l -0.230454,1.10312 0.601959,-0.5699 h 0.480856 l -0.640072,0.57952 0.346928,0.92716 h -0.468389 l -0.220125,-0.64684 z"
     style="clip-rule:evenodd;fill:#000000;fill-rule:nonzero;stroke-width:0.356189;stroke-linejoin:round;stroke-miterlimit:1.5" /><path
     id="path134"
     d="m 38.333556,126.66688 h 6.62227"
     style="clip-rule:evenodd;fill:none;fill-rule:evenodd;stroke:#000000;stroke-width:0.227961px;stroke-linecap:round;stroke-linejoin:round;stroke-miterlimit:1.5" /><path
     id="path135"
     d="m 56.644173,126.66688 h 6.62227"
     style="clip-rule:evenodd;fill:none;fill-rule:evenodd;stroke:#000000;stroke-width:0.227961px;stroke-linecap:round;stroke-linejoin:round;stroke-miterlimit:1.5" /><rect
     style="fill:#212121;fill-opacity:1;stroke:#000000;stroke-width:0.352779;stroke-linecap:square;stroke-dasharray:none;stroke-opacity:1;paint-order:fill markers stroke"
     id="rect2202"
     width="90.614639"
     height="22.00712"
     x="5.4926777"
     y="9.6294165"
     rx="2.9999998"
     ry="3" /><path
     style="opacity:1;fill:none;stroke:#000000;stroke-width:0.352999;stroke-opacity:1;paint-order:fill markers stroke"
     d="M 21.422642,43.259613 V 66.281897"
     id="path2925" /><path
     style="opacity:1;fill:none;stroke:#000000;stroke-width:0.352999;stroke-opacity:1;paint-order:fill markers stroke"
     d="M 32.933784,43.259613 V 66.281897"
     id="path2979" /><path
     style="opacity:1;fill:none;stroke:#000000;stroke-width:0.352999;stroke-opacity:1;paint-order:fill markers stroke"
     d="M 44.444926,43.259613 V 66.281897"
     id="path2981" /><path
     style="opacity:1;fill:none;stroke:#000000;stroke-width:0.352999;stroke-opacity:1;paint-order:fill markers stroke"
     d="M 55.956068,43.259613 V 66.281897"
     id="path2983" /><path
     style="opacity:1;fill:none;stroke:#000000;stroke-width:0.352999;stroke-opacity:1;paint-order:fill markers stroke"
     d="M 67.46721,43.259613 V 66.281897"
     id="path2985" /><path
     style="opacity:1;fill:none;stroke:#000000;stroke-width:0.352999;stroke-opacity:1;paint-order:fill markers stroke"
     d="M 78.978352,43.259613 V 66.281897"
     id="path2987" /><text
     xml:space="preserve"
     style="font-style:italic;font-size:5.64444px;font-family:Menlo;-inkscape-font-specification:'Menlo Italic';text-align:center;text-anchor:middle;fill:#000000;stroke:#000000;stroke-width:0.246944;stroke-linecap:square;stroke-linejoin:round;stroke-miterlimit:0;paint-order:fill markers stroke"
     x="48.643856"
     y="5.0129166"
     id="text4359"><tspan
       sodipodi:role="line"
       id="tspan4357"
       style="stroke-width:0.246944;fill:#000000"
       x="48.643856"
       y="5.0129166" /></text><g
     aria-label="AULOS"
     id="text5141"
     style="font-style:italic;font-size:5.64444px;font-family:Menlo;-inkscape-font-specification:'Menlo Italic';text-align:center;text-anchor:middle;fill:#ffffff;stroke-width:0.246944;stroke-linecap:square;stroke-linejoin:round;stroke-miterlimit:0;paint-order:fill markers stroke"
     transform="translate(-1.2925418)"><path
       d="m 45.88724,3.03209 -1.003211,2.1332015 h 1.185112 z M 45.622657,2.5690695 h 0.677994 l 0.457508,4.1148189 H 46.204188 L 46.107726,5.6117755 H 44.674567 L 44.16745,6.6838884 h -0.598069 z"
       id="path5143"
       style="fill:#000000" /><path
       d="m 47.576713,5.1046579 0.490582,-2.5355884 h 0.559483 L 48.13344,5.1046579 q -0.0055,0.035829 -0.02205,0.112999 -0.08268,0.4244354 -0.08268,0.5870438 0,0.2535589 0.148828,0.3803383 0.151584,0.1267794 0.454752,0.1267794 0.245291,0 0.416167,-0.07717 0.170877,-0.079926 0.2949,-0.2508027 0.06063,-0.085438 0.121267,-0.2921439 0.06339,-0.2094617 0.137804,-0.5870438 l 0.490581,-2.5355884 h 0.559483 L 50.161911,5.104658 q -0.115755,0.6035802 -0.248047,0.8874559 -0.129535,0.2811196 -0.344509,0.4547522 -0.195681,0.1543402 -0.446484,0.2370224 -0.250803,0.079926 -0.542947,0.079926 -0.529166,0 -0.815798,-0.2480467 -0.283875,-0.2480467 -0.283875,-0.705555 0,-0.1019748 0.02205,-0.2756074 0.02481,-0.1736327 0.07441,-0.4299476 z"
       id="path5145"
       style="fill:#000000" /><path
       d="m 51.674996,2.5690695 h 0.556727 l -0.711067,3.6462863 h 1.987129 l -0.09095,0.4685326 h -2.543857 z"
       id="path5147"
       style="fill:#000000" /><path
       d="m 55.439794,6.3118184 q 0.234266,0 0.432704,-0.1405598 0.198437,-0.1405598 0.327972,-0.4023868 0.20395,-0.3996308 0.330729,-0.9673821 0.12678,-0.5677513 0.12678,-1.0914054 0,-0.3913626 -0.146072,-0.5760196 -0.143316,-0.187413 -0.446484,-0.187413 -0.234267,0 -0.429948,0.1405598 -0.195681,0.1405598 -0.325217,0.4023868 -0.209461,0.4051429 -0.336241,0.9673821 -0.126779,0.5622392 -0.126779,1.0858933 0,0.3941186 0.143316,0.5815317 0.146072,0.187413 0.44924,0.187413 z m 1.788692,-2.4391258 q 0,0.3031682 -0.06339,0.6587018 -0.06063,0.3555336 -0.179144,0.7303597 -0.07993,0.2535588 -0.173633,0.4547523 -0.09095,0.2011934 -0.198437,0.3638018 -0.242535,0.3500214 -0.542947,0.5181419 -0.300412,0.1653645 -0.700043,0.1653645 -0.553971,0 -0.82131,-0.3389971 -0.267339,-0.3389972 -0.267339,-1.0445522 0,-0.3059243 0.05788,-0.6559457 0.06063,-0.3527775 0.179145,-0.7276036 0.07993,-0.2535588 0.170877,-0.4547523 0.09371,-0.2011934 0.201193,-0.3638018 0.242535,-0.3500214 0.542947,-0.5153859 0.300412,-0.1681205 0.700043,-0.1681205 0.556727,0 0.824066,0.3389971 0.270095,0.3362411 0.270095,1.03904 z"
       id="path5149"
       style="fill:#000000" /><path
       d="M 60.615701,2.7096293 60.508214,3.2746245 Q 60.284972,3.1120161 60.045194,3.0293339 59.805415,2.9466517 59.5491,2.9466517 q -0.454752,0 -0.741384,0.2259981 -0.286632,0.2259981 -0.286632,0.5760195 0,0.1956813 0.135048,0.3169485 0.135048,0.1212673 0.490581,0.2315103 l 0.333485,0.1074869 q 0.44924,0.1378037 0.655946,0.3693139 0.209462,0.2287542 0.209462,0.5842878 0,0.6476775 -0.457509,1.0280157 -0.457508,0.3775822 -1.248501,0.3775822 -0.286632,0 -0.564996,-0.06339 -0.275607,-0.060634 -0.551214,-0.184657 l 0.112999,-0.5760195 q 0.270095,0.1901691 0.545702,0.2811196 0.278364,0.09095 0.587044,0.09095 0.454752,0 0.738628,-0.2425345 0.283876,-0.2425346 0.283876,-0.6146046 0,-0.2259981 -0.121268,-0.3500214 Q 59.5491,4.9806345 59.182542,4.8676355 L 58.904179,4.776685 Q 58.397061,4.6168327 58.193112,4.4156393 57.991918,4.2116898 57.991918,3.8782048 q 0,-0.6090924 0.454752,-0.9949428 0.454753,-0.3886065 1.187869,-0.3886065 0.220485,0 0.468532,0.055122 0.250803,0.055121 0.51263,0.1598518 z"
       id="path5151"
       style="fill:#000000" /></g><path
     style="opacity:1;fill:none;stroke:#000000;stroke-width:0.352999;stroke-opacity:1;paint-order:fill markers stroke"
     d="M 9.9114995,43.259613 V 66.281897"
     id="path5154" /><path
     style="opacity:1;fill:none;stroke:#000000;stroke-width:0.352999;stroke-opacity:1;paint-order:fill markers stroke"
     d="M 90.489494,43.259613 V 66.281897"
     id="path5160" /><rect
     style="clip-rule:evenodd;display:inline;fill:#545454;fill-opacity:1;fill-rule:evenodd;stroke:#000000;stroke-width:0.352775;stroke-linecap:square;stroke-linejoin:round;stroke-miterlimit:1.5;stroke-dasharray:none;stroke-opacity:1"
     id="rect20577"
     width="12.321777"
     height="43.080719"
     x="-123.59313"
     y="6.3091803"
     rx="4"
     ry="4.0000005"
     inkscape:transform-center-x="44.623843"
     inkscape:transform-center-y="-26.644981"
     transform="rotate(-90)" /><rect
     style="clip-rule:evenodd;display:inline;fill:#545454;fill-opacity:1;fill-rule:evenodd;stroke:#000000;stroke-width:0.352777;stroke-linecap:square;stroke-linejoin:round;stroke-miterlimit:1.5;stroke-dasharray:none;stroke-opacity:1"
     id="rect20577-7"
     width="26.060881"
     height="11.33225"
     x="-123.96442"
     y="85.058357"
     rx="3.9999995"
     ry="4"
     inkscape:transform-center-x="11.738163"
     inkscape:transform-center-y="-56.354876"
     transform="rotate(-90)" /><g
     aria-label="BREATH"
     id="text1932"
     style="font-style:italic;font-size:3.175px;font-family:Menlo;-inkscape-font-specification:'Menlo Italic';text-align:center;text-anchor:middle;opacity:1;fill:#ffffff;stroke-width:0.246944;stroke-linecap:square;stroke-linejoin:round;stroke-miterlimit:0;paint-order:fill markers stroke"><path
       d="m 62.1159,92.339061 -0.165882,0.84801 h 0.384473 q 0.285254,0 0.435632,-0.134875 0.151929,-0.134876 0.151929,-0.389124 0,-0.165881 -0.10542,-0.244946 -0.10542,-0.07906 -0.327112,-0.07906 z m 0.182934,-0.95188 -0.136425,0.697632 h 0.378271 q 0.234094,0 0.367419,-0.111621 0.134876,-0.113172 0.134876,-0.310059 0,-0.145727 -0.08682,-0.21084 -0.08527,-0.06511 -0.279053,-0.06511 z m -0.263549,-0.257349 h 0.686779 q 0.31471,0 0.47594,0.124024 0.161231,0.122473 0.161231,0.361218 0,0.238745 -0.142627,0.399976 -0.142627,0.15968 -0.384473,0.190686 0.193787,0.03566 0.296106,0.15813 0.10387,0.122473 0.10387,0.314709 0,0.362769 -0.248047,0.564307 -0.246497,0.201538 -0.697632,0.201538 H 61.5857 Z"
       id="path7955"
       style="fill:#000000" /><path
       d="m 64.649078,92.351463 q 0.111621,0.0217 0.178284,0.10387 0.06821,0.08217 0.151929,0.356567 l 0.187585,0.63252 h -0.311609 l -0.164331,-0.584461 q -0.06821,-0.241845 -0.153479,-0.31781 -0.08372,-0.07596 -0.254248,-0.07596 h -0.297656 l -0.190686,0.978235 h -0.314709 l 0.448034,-2.314588 h 0.644922 q 0.320911,0 0.496094,0.139527 0.176733,0.137976 0.176733,0.390674 0,0.283703 -0.16123,0.469738 -0.15968,0.186036 -0.435633,0.221692 z m -0.454235,-0.964282 -0.15813,0.821655 h 0.339514 q 0.252698,0 0.403076,-0.131775 0.151929,-0.133325 0.151929,-0.353466 0,-0.173633 -0.09767,-0.254248 -0.09767,-0.08217 -0.308508,-0.08217 z"
       id="path7957"
       style="fill:#000000" /><path
       d="m 65.906366,91.129832 h 1.372009 l -0.05116,0.26355 h -1.060401 l -0.133325,0.68523 h 1.012341 l -0.04961,0.26355 H 65.98233 L 65.8211,93.18087 h 1.088305 l -0.05116,0.26355 h -1.403015 z"
       id="path7959"
       style="fill:#000000" /><path
       d="m 68.424041,91.390282 -0.564306,1.199926 h 0.666626 z m -0.148828,-0.26045 h 0.381372 l 0.257349,2.314588 h -0.311609 l -0.05426,-0.603064 h -0.806152 l -0.285254,0.603064 h -0.336414 z"
       id="path7961"
       style="fill:#000000" /><path
       d="m 69.495294,91.129832 h 1.767334 l -0.05116,0.26355 h -0.727087 l -0.396875,2.051038 h -0.31626 l 0.399976,-2.051038 h -0.727088 z"
       id="path7963"
       style="fill:#000000" /><path
       d="m 71.546332,91.129832 h 0.313159 l -0.182935,0.94878 h 0.857312 l 0.182935,-0.94878 h 0.31471 l -0.451136,2.314588 h -0.313159 l 0.215491,-1.102258 h -0.860413 l -0.21239,1.102258 h -0.314709 z"
       id="path7965"
       style="fill:#000000" /></g><path
     style="fill:none;stroke:#000000;stroke-width:0.352999;stroke-opacity:1;paint-order:fill markers stroke"
     d="M 9.1830373,80.113833 H 21.82278"
     id="path2854" /><path
     style="fill:none;stroke:#000000;stroke-width:0.352999;stroke-opacity:1;paint-order:fill markers stroke"
     d="M 31.64833,80.113833 H 44.288073"
     id="path3658" /><path
     style="fill:none;stroke:#000000;stroke-width:0.352999;stroke-opacity:1;paint-order:fill markers stroke"
     d="M 31.64833,92.181965 H 44.288073"
     id="path3660" /><path
     style="fill:none;stroke:#000000;stroke-width:0.352999;stroke-opacity:1;paint-order:fill markers stroke"
     d="M 9.1830373,92.181965 H 21.82278"
     id="path3662" /><path
     style="fill:none;stroke:#000000;stroke-width:0.352999;stroke-opacity:1;paint-order:fill markers stroke"
     d="M 9.1830373,104.06443 H 21.82278"
     id="path3664" /><path
     style="fill:none;stroke:#000000;stroke-width:0.352998;stroke-opacity:1;paint-order:fill markers stroke"
     d="M 43.902127,104.06444 H 76.407873"
     id="path3666" /><path
     style="fill:none;stroke:#000000;stroke-width:0.352998;stroke-opacity:1;paint-order:fill markers stroke"
     d="M 58.56955,115.9469 H 84.948398"
     id="path3668" /><path
     style="fill:none;stroke:#000000;stroke-width:0.352998;stroke-opacity:1;paint-order:fill markers stroke"
     d="M 58.383886,85.962241 H 85.134062"
     id="path3672" /><g
     aria-label="VOLUME"
     id="text3676"
     style="font-style:italic;font-size:2.46944px;font-family:Menlo;-inkscape-font-specification:'Menlo Italic';text-align:center;text-anchor:middle;opacity:1;fill:#ffffff;stroke-width:0.246944;stroke-linecap:square;stroke-linejoin:round;stroke-miterlimit:0;paint-order:fill markers stroke"><path
       d="m 63.392793,122.33667 0.721057,-1.57113 h 0.259243 l -0.866956,1.80023 h -0.311092 l -0.17725,-1.80023 h 0.238745 z"
       id="path7985"
       style="fill:#000000" /><path
       d="m 64.869875,122.40299 q 0.102492,0 0.189308,-0.0615 0.08682,-0.0615 0.143488,-0.17605 0.08923,-0.17483 0.144694,-0.42323 0.05546,-0.24839 0.05546,-0.47748 0,-0.17123 -0.06391,-0.25201 -0.0627,-0.082 -0.195336,-0.082 -0.102492,0 -0.188102,0.0615 -0.08561,0.0615 -0.142283,0.17604 -0.09164,0.17725 -0.147105,0.42323 -0.05547,0.24598 -0.05547,0.47508 0,0.17243 0.0627,0.25442 0.06391,0.082 0.196542,0.082 z m 0.782552,-1.06711 q 0,0.13263 -0.02773,0.28818 -0.02653,0.15554 -0.07838,0.31953 -0.03497,0.11093 -0.07596,0.19895 -0.03979,0.088 -0.08682,0.15917 -0.106109,0.15313 -0.237539,0.22668 -0.13143,0.0724 -0.306268,0.0724 -0.242362,0 -0.359323,-0.14831 -0.116961,-0.14831 -0.116961,-0.45699 0,-0.13384 0.02532,-0.28698 0.02653,-0.15434 0.07838,-0.31832 0.03497,-0.11094 0.07476,-0.19896 0.041,-0.088 0.08802,-0.15916 0.106108,-0.15313 0.237539,-0.22548 0.13143,-0.0735 0.306268,-0.0735 0.243568,0 0.360529,0.14831 0.118166,0.1471 0.118166,0.45458 z"
       id="path7987"
       style="fill:#000000" /><path
       d="m 66.196235,120.76554 h 0.243567 l -0.311091,1.59525 h 0.869368 l -0.03979,0.20498 h -1.112936 z"
       id="path7989"
       style="fill:#000000" /><path
       d="m 67.376695,121.87486 0.214629,-1.10932 h 0.244773 l -0.215835,1.10932 q -0.0024,0.0157 -0.0096,0.0494 -0.03617,0.18569 -0.03617,0.25683 0,0.11093 0.06511,0.1664 0.06632,0.0555 0.198954,0.0555 0.107314,0 0.182073,-0.0338 0.07476,-0.035 0.129018,-0.10973 0.02653,-0.0374 0.05305,-0.12781 0.02773,-0.0916 0.06029,-0.25683 l 0.214629,-1.10932 h 0.244773 l -0.214629,1.10932 q -0.05064,0.26407 -0.10852,0.38826 -0.05667,0.12299 -0.150723,0.19896 -0.08561,0.0675 -0.195336,0.10369 -0.109726,0.035 -0.237539,0.035 -0.23151,0 -0.356911,-0.10852 -0.124196,-0.10852 -0.124196,-0.30868 0,-0.0446 0.0096,-0.12058 0.01085,-0.076 0.03256,-0.1881 z"
       id="path7991"
       style="fill:#000000" /><path
       d="m 69.000882,120.76554 h 0.324355 l 0.132636,0.91157 0.499193,-0.91157 h 0.325561 l -0.350882,1.80023 H 69.70747 l 0.311091,-1.60007 -0.523309,0.9586 h -0.170015 l -0.138665,-0.9586 -0.30868,1.60007 h -0.224275 z"
       id="path7993"
       style="fill:#000000" /><path
       d="m 70.626275,120.76554 h 1.067116 l -0.03979,0.20498 h -0.824754 l -0.103697,0.53296 h 0.787375 l -0.03858,0.20498 h -0.788581 l -0.125401,0.65233 h 0.846458 l -0.03979,0.20498 h -1.091232 z"
       id="path7995"
       style="fill:#000000" /></g><g
     aria-label="MAIN"
     id="text3730"
     style="font-style:italic;font-size:2.46944px;font-family:Menlo;-inkscape-font-specification:'Menlo Italic';text-align:center;text-anchor:middle;opacity:1;fill:#ffffff;stroke-width:0.246944;stroke-linecap:square;stroke-linejoin:round;stroke-miterlimit:0;paint-order:fill markers stroke"><path
       d="m 88.277806,109.22657 h 0.324356 l 0.132636,0.91158 0.499194,-0.91158 h 0.325562 l -0.350883,1.80024 h -0.224276 l 0.311092,-1.60007 -0.52331,0.95859 h -0.170015 l -0.138666,-0.95859 -0.30868,1.60007 H 87.93054 Z"
       id="path7998"
       style="fill:#ffffff" /><path
       d="m 90.374663,109.42915 -0.438905,0.93327 h 0.518487 z m -0.115755,-0.20258 h 0.296623 l 0.20016,1.80024 h -0.242363 l -0.0422,-0.46905 h -0.627007 l -0.221865,0.46905 h -0.261655 z"
       id="path8000"
       style="fill:#ffffff" /><path
       d="m 91.392345,109.22657 h 1.0008 l -0.03979,0.20499 h -0.378616 l -0.26889,1.39027 h 0.378616 l -0.03979,0.20498 h -1.0008 l 0.03979,-0.20498 h 0.37741 l 0.270096,-1.39027 h -0.378616 z"
       id="path8002"
       style="fill:#ffffff" /><path
       d="m 92.805523,109.22657 h 0.30868 l 0.318327,1.48191 0.288183,-1.48191 h 0.235127 l -0.350883,1.80024 h -0.30868 l -0.318327,-1.48191 -0.289388,1.48191 H 92.45464 Z"
       id="path8004"
       style="fill:#ffffff" /></g><g
     aria-label="SEC."
     id="text3734"
     style="font-style:italic;font-size:2.46944px;font-family:Menlo;-inkscape-font-specification:'Menlo Italic';text-align:center;text-anchor:middle;opacity:1;fill:#ffffff;stroke-width:0.246944;stroke-linecap:square;stroke-linejoin:round;stroke-miterlimit:0;paint-order:fill markers stroke"><path
       d="m 89.199054,120.98488 -0.04703,0.24718 q -0.09767,-0.0711 -0.202571,-0.10731 -0.104904,-0.0362 -0.217041,-0.0362 -0.198955,0 -0.324356,0.0989 -0.125402,0.0989 -0.125402,0.25201 0,0.0856 0.05908,0.13866 0.05908,0.0531 0.214629,0.10129 l 0.1459,0.047 q 0.196543,0.0603 0.286976,0.16158 0.09164,0.10008 0.09164,0.25563 0,0.28335 -0.20016,0.44975 -0.20016,0.1652 -0.54622,0.1652 -0.125401,0 -0.247186,-0.0277 -0.120578,-0.0265 -0.241156,-0.0808 l 0.04944,-0.252 q 0.118167,0.0832 0.238745,0.12299 0.121784,0.0398 0.256832,0.0398 0.198954,0 0.32315,-0.10611 0.124195,-0.10611 0.124195,-0.26889 0,-0.0989 -0.05305,-0.15314 -0.05305,-0.0543 -0.213424,-0.10369 l -0.121784,-0.0398 q -0.221864,-0.0699 -0.311092,-0.15796 -0.08802,-0.0892 -0.08802,-0.23513 0,-0.26648 0.198954,-0.43529 0.198954,-0.17001 0.519693,-0.17001 0.09646,0 0.204983,0.0241 0.109726,0.0241 0.224276,0.0699 z"
       id="path8007"
       style="fill:#ffffff" /><path
       d="m 89.717541,120.92338 h 1.067118 l -0.03979,0.20499 h -0.824756 l -0.103697,0.53295 h 0.787377 l -0.03859,0.20499 h -0.788582 l -0.125401,0.65232 h 0.84646 l -0.03979,0.20499 h -1.091234 z"
       id="path8009"
       style="fill:#ffffff" /><path
       d="m 91.927742,122.65971 q -0.101286,0.0494 -0.204983,0.0735 -0.102492,0.0253 -0.212218,0.0253 -0.27733,0 -0.430465,-0.16037 -0.151929,-0.16037 -0.151929,-0.44976 0,-0.26527 0.08441,-0.52572 0.08441,-0.26045 0.221864,-0.42564 0.129019,-0.15676 0.284565,-0.23151 0.155546,-0.0748 0.354501,-0.0748 0.09646,0 0.191719,0.0253 0.09526,0.0253 0.185691,0.0735 l -0.04944,0.2496 q -0.07717,-0.076 -0.162781,-0.11335 -0.08561,-0.0374 -0.182073,-0.0374 -0.11455,0 -0.212218,0.0494 -0.09767,0.0482 -0.183279,0.14831 -0.125402,0.14832 -0.202572,0.37983 -0.07596,0.23151 -0.07596,0.46422 0,0.2086 0.09405,0.31953 0.09405,0.11094 0.271301,0.11094 0.102492,0 0.211012,-0.0386 0.109726,-0.0386 0.215835,-0.11214 z"
       id="path8011"
       style="fill:#ffffff" /><path
       d="m 92.792289,122.23648 h 0.424435 l -0.09526,0.48714 h -0.424435 z"
       id="path8013"
       style="fill:#ffffff" /></g><g
     aria-label="EXT. GAIN"
     id="text3738"
     style="font-style:italic;font-size:2.46944px;font-family:Menlo;-inkscape-font-specification:'Menlo Italic';text-align:center;text-anchor:middle;opacity:1;fill:#ffffff;stroke-width:0.246944;stroke-linecap:square;stroke-linejoin:round;stroke-miterlimit:0;paint-order:fill markers stroke"><path
       d="m 60.749055,108.66958 h 1.067117 l -0.03979,0.20498 h -0.824754 l -0.103698,0.53296 h 0.787376 l -0.03859,0.20498 h -0.788581 l -0.125402,0.65233 h 0.846459 l -0.03979,0.20498 h -1.091232 z"
       id="path7968"
       style="fill:#000000" /><path
       d="m 62.112794,108.66958 h 0.241156 l 0.270095,0.64147 0.530544,-0.64147 h 0.278535 l -0.718645,0.86696 0.390673,0.93327 H 62.86279 l -0.306269,-0.73794 -0.610125,0.73794 h -0.278535 l 0.792198,-0.96101 z"
       id="path7970"
       style="fill:#000000" /><path
       d="m 63.540439,108.66958 h 1.374591 l -0.03979,0.20498 h -0.565512 l -0.30868,1.59525 h -0.245979 l 0.311092,-1.59525 h -0.565512 z"
       id="path7972"
       style="fill:#000000" /><path
       d="m 65.310526,109.98267 h 0.424435 l -0.09526,0.48714 h -0.424435 z"
       id="path7974"
       style="fill:#000000" /><path
       d="m 68.93631,110.35406 q -0.104903,0.0747 -0.229098,0.11334 -0.124196,0.0374 -0.265272,0.0374 -0.279742,0 -0.430464,-0.16158 -0.149517,-0.16278 -0.149517,-0.46302 0,-0.10852 0.01929,-0.2303 0.0205,-0.12299 0.05908,-0.25683 0.0422,-0.14108 0.09887,-0.25442 0.05667,-0.11455 0.124195,-0.19534 0.129019,-0.15675 0.284565,-0.23151 0.156751,-0.0748 0.356911,-0.0748 0.09646,0 0.191719,0.0253 0.09646,0.0253 0.189308,0.0736 l -0.04944,0.24959 q -0.07838,-0.076 -0.165192,-0.11334 -0.08561,-0.0374 -0.183279,-0.0374 -0.118167,0 -0.221864,0.0506 -0.103697,0.0494 -0.18569,0.14711 -0.05306,0.0627 -0.10008,0.15675 -0.04703,0.0941 -0.0832,0.21101 -0.041,0.13746 -0.0627,0.25804 -0.0205,0.12058 -0.0205,0.21825 0,0.20618 0.09526,0.31832 0.09526,0.11214 0.270095,0.11214 0.08199,0 0.147105,-0.0217 0.06511,-0.0229 0.109726,-0.0651 l 0.09164,-0.47387 h -0.261655 l 0.03617,-0.20016 h 0.49437 z"
       id="path7976"
       style="fill:#000000" /><path
       d="m 70.140886,108.87215 -0.438905,0.93328 h 0.518486 z m -0.115755,-0.20257 h 0.296622 l 0.20016,1.80023 h -0.242362 l -0.0422,-0.46905 h -0.627006 l -0.221864,0.46905 h -0.261654 z"
       id="path7978"
       style="fill:#000000" /><path
       d="m 71.158565,108.66958 h 1.000798 l -0.03979,0.20498 h -0.378615 l -0.268889,1.39027 h 0.378615 l -0.03979,0.20498 h -1.000798 l 0.03979,-0.20498 h 0.377409 l 0.270095,-1.39027 h -0.378615 z"
       id="path7980"
       style="fill:#000000" /><path
       d="m 72.571741,108.66958 h 0.30868 l 0.318326,1.4819 0.288182,-1.4819 h 0.235127 l -0.350882,1.80023 h -0.30868 l -0.318327,-1.4819 -0.289387,1.4819 h -0.233922 z"
       id="path7982"
       style="fill:#000000" /></g><g
     aria-label="EXT. IN"
     id="text3746"
     style="font-style:italic;font-size:2.46944px;font-family:Menlo;-inkscape-font-specification:'Menlo Italic';text-align:center;text-anchor:middle;opacity:1;fill:#ffffff;stroke-width:0.246944;stroke-linecap:square;stroke-linejoin:round;stroke-miterlimit:0;paint-order:fill markers stroke"><path
       d="m 39.027837,108.14041 h 1.067116 l -0.03979,0.20498 h -0.824754 l -0.103697,0.53296 h 0.787375 l -0.03858,0.20498 H 39.08692 l -0.125401,0.65233 h 0.846458 l -0.03979,0.20498 h -1.091232 z"
       id="path8016"
       style="fill:#000000" /><path
       d="m 40.391575,108.14041 h 0.241157 l 0.270095,0.64148 0.530543,-0.64148 h 0.278536 l -0.718646,0.86696 0.390673,0.93327 h -0.242362 l -0.306268,-0.73793 -0.610125,0.73793 h -0.278536 l 0.792198,-0.961 z"
       id="path8018"
       style="fill:#000000" /><path
       d="m 41.81922,108.14041 h 1.374591 l -0.03979,0.20498 h -0.565511 l -0.30868,1.59525 h -0.24598 l 0.311092,-1.59525 H 41.77943 Z"
       id="path8020"
       style="fill:#000000" /><path
       d="m 43.589307,109.45351 h 0.424435 l -0.09526,0.48713 h -0.424435 z"
       id="path8022"
       style="fill:#000000" /><path
       d="m 46.46389,108.14041 h 1.000798 l -0.03979,0.20498 h -0.378615 l -0.268889,1.39027 h 0.378615 l -0.03979,0.20498 h -1.000798 l 0.03979,-0.20498 h 0.377409 l 0.270095,-1.39027 h -0.378615 z"
       id="path8024"
       style="fill:#000000" /><path
       d="m 47.877066,108.14041 h 0.30868 l 0.318326,1.48191 0.288182,-1.48191 h 0.235127 l -0.350882,1.80023 h -0.30868 l -0.318326,-1.4819 -0.289388,1.4819 h -0.233922 z"
       id="path8026"
       style="fill:#000000" /></g><g
     aria-label="ENVELOPE"
     id="text3750"
     style="font-style:italic;font-size:2.46944px;font-family:Menlo;-inkscape-font-specification:'Menlo Italic';text-align:center;text-anchor:middle;opacity:1;fill:#ffffff;stroke-width:0.246944;stroke-linecap:square;stroke-linejoin:round;stroke-miterlimit:0;paint-order:fill markers stroke"><path
       d="m 7.8356459,119.86505 h 1.0671164 l -0.039791,0.20498 H 8.0382171 l -0.1036972,0.53296 h 0.7873752 l -0.038585,0.20498 h -0.788581 l -0.1254012,0.65233 h 0.8464584 l -0.039791,0.20498 h -1.091232 z"
       id="path8036"
       style="fill:#ffffff" /><path
       d="m 9.2512331,119.86505 h 0.30868 l 0.3183262,1.48191 0.2881817,-1.48191 h 0.235127 l -0.350882,1.80023 h -0.30868 l -0.3183262,-1.4819 -0.2893875,1.4819 H 8.9003507 Z"
       id="path8038"
       style="fill:#ffffff" /><path
       d="m 11.009262,121.43618 0.721057,-1.57113 h 0.259243 l -0.866956,1.80023 h -0.311092 l -0.17725,-1.80023 h 0.238745 z"
       id="path8040"
       style="fill:#ffffff" /><path
       d="m 12.295831,119.86505 h 1.067116 l -0.03979,0.20498 h -0.824755 l -0.103697,0.53296 h 0.787375 l -0.03858,0.20498 h -0.788581 l -0.125401,0.65233 h 0.846458 l -0.03979,0.20498 h -1.091232 z"
       id="path8042"
       style="fill:#ffffff" /><path
       d="m 13.812704,119.86505 h 0.243567 l -0.311091,1.59525 h 0.869368 l -0.03979,0.20498 h -1.112936 z"
       id="path8044"
       style="fill:#ffffff" /><path
       d="m 15.459801,121.5025 q 0.102491,0 0.189307,-0.0615 0.08682,-0.0615 0.143488,-0.17605 0.08923,-0.17483 0.144694,-0.42323 0.05547,-0.24839 0.05547,-0.47748 0,-0.17123 -0.06391,-0.25201 -0.0627,-0.082 -0.195337,-0.082 -0.102491,0 -0.188102,0.0615 -0.08561,0.0615 -0.142282,0.17604 -0.09164,0.17725 -0.147105,0.42323 -0.05547,0.24598 -0.05547,0.47508 0,0.17243 0.0627,0.25442 0.06391,0.082 0.196543,0.082 z m 0.782552,-1.06711 q 0,0.13263 -0.02773,0.28818 -0.02653,0.15554 -0.07838,0.31953 -0.03497,0.11093 -0.07596,0.19895 -0.03979,0.088 -0.08682,0.15917 -0.106109,0.15313 -0.237539,0.22668 -0.131431,0.0724 -0.306269,0.0724 -0.242362,0 -0.359323,-0.14831 -0.11696,-0.14831 -0.11696,-0.45699 0,-0.13384 0.02532,-0.28698 0.02653,-0.15434 0.07838,-0.31832 0.03497,-0.11094 0.07476,-0.19896 0.041,-0.088 0.08802,-0.15916 0.106109,-0.15313 0.237539,-0.22548 0.13143,-0.0735 0.306269,-0.0735 0.243567,0 0.360528,0.14831 0.118167,0.1471 0.118167,0.45458 z"
       id="path8046"
       style="fill:#ffffff" /><path
       d="m 16.958587,120.06521 -0.13143,0.67644 h 0.282153 q 0.198954,0 0.31712,-0.11454 0.119373,-0.11576 0.119373,-0.30748 0,-0.13022 -0.07476,-0.19172 -0.07476,-0.0627 -0.23151,-0.0627 z m -0.204983,-0.20016 h 0.530544 q 0.248391,0 0.378615,0.11093 0.130225,0.11094 0.130225,0.32074 0,0.30024 -0.192925,0.47267 -0.192925,0.17242 -0.530544,0.17242 h -0.280947 l -0.141076,0.72347 h -0.244774 z"
       id="path8048"
       style="fill:#ffffff" /><path
       d="m 18.242744,119.86505 h 1.067116 l -0.03979,0.20498 h -0.824754 l -0.103697,0.53296 h 0.787375 l -0.03859,0.20498 h -0.788581 l -0.125401,0.65233 h 0.846458 l -0.03979,0.20498 h -1.091232 z"
       id="path8050"
       style="fill:#ffffff" /></g><g
     aria-label="RMS"
     id="text3754"
     style="font-style:italic;font-size:2.46944px;font-family:Menlo;-inkscape-font-specification:'Menlo Italic';text-align:center;text-anchor:middle;opacity:1;fill:#ffffff;stroke-width:0.246944;stroke-linecap:square;stroke-linejoin:round;stroke-miterlimit:0;paint-order:fill markers stroke"><path
       d="m 34.953572,120.81521 q 0.08682,0.0169 0.138665,0.0808 0.05306,0.0639 0.118167,0.27733 l 0.145899,0.49196 h -0.242362 l -0.127812,-0.45458 q -0.05306,-0.1881 -0.119373,-0.24718 -0.06511,-0.0591 -0.197748,-0.0591 h -0.23151 l -0.148311,0.76084 h -0.244774 l 0.348471,-1.80023 h 0.501605 q 0.249597,0 0.38585,0.10852 0.137459,0.10732 0.137459,0.30386 0,0.22066 -0.125401,0.36535 -0.124195,0.14469 -0.338825,0.17243 z m -0.353293,-0.75 -0.12299,0.63907 h 0.264066 q 0.196542,0 0.313503,-0.1025 0.118167,-0.10369 0.118167,-0.27491 0,-0.13505 -0.07597,-0.19775 -0.07596,-0.0639 -0.23995,-0.0639 z"
       id="path8029"
       style="fill:#ffffff" /><path
       d="m 35.792796,119.86505 h 0.324355 l 0.132636,0.91157 0.499194,-0.91157 h 0.325561 l -0.350883,1.80023 h -0.224275 l 0.311092,-1.60007 -0.523309,0.9586 h -0.170016 l -0.138664,-0.9586 -0.30868,1.60007 h -0.224276 z"
       id="path8031"
       style="fill:#ffffff" /><path
       d="m 38.386432,119.92655 -0.04703,0.24718 q -0.09767,-0.0711 -0.202571,-0.10731 -0.104903,-0.0362 -0.217041,-0.0362 -0.198953,0 -0.324355,0.0989 -0.125401,0.0989 -0.125401,0.25201 0,0.0856 0.05908,0.13866 0.05908,0.0531 0.214629,0.10129 l 0.1459,0.047 q 0.196542,0.0603 0.286976,0.16158 0.09164,0.10008 0.09164,0.25562 0,0.28336 -0.200159,0.44976 -0.20016,0.16519 -0.546219,0.16519 -0.125402,0 -0.247186,-0.0277 -0.120578,-0.0265 -0.241156,-0.0808 l 0.04944,-0.25201 q 0.118167,0.0832 0.238745,0.12299 0.121784,0.0398 0.256831,0.0398 0.198954,0 0.32315,-0.10611 0.124195,-0.1061 0.124195,-0.26889 0,-0.0989 -0.05305,-0.15313 -0.05305,-0.0543 -0.213423,-0.1037 l -0.121784,-0.0398 q -0.221864,-0.0699 -0.311092,-0.15795 -0.08802,-0.0892 -0.08802,-0.23513 0,-0.26648 0.198954,-0.43529 0.198954,-0.17001 0.519692,-0.17001 0.09646,0 0.204982,0.0241 0.109727,0.0241 0.224276,0.0699 z"
       id="path8033"
       style="fill:#ffffff" /></g><g
     aria-label="DRONE"
     id="text3758"
     style="font-style:italic;font-size:2.46944px;font-family:Menlo;-inkscape-font-specification:'Menlo Italic';text-align:center;text-anchor:middle;opacity:1;fill:#ffffff;stroke-width:0.246944;stroke-linecap:square;stroke-linejoin:round;stroke-miterlimit:0;paint-order:fill markers stroke"><path
       d="m 12.455249,109.74048 q 0.22307,0 0.358117,-0.0748 0.135048,-0.076 0.217041,-0.24598 0.06511,-0.13867 0.106109,-0.33039 0.0422,-0.19292 0.0422,-0.35329 0,-0.21222 -0.09887,-0.30386 -0.09887,-0.0916 -0.33159,-0.0916 h -0.137459 l -0.272506,1.39991 z m 0.315915,-1.60007 q 0.329178,0 0.491959,0.14952 0.163986,0.14952 0.163986,0.45337 0,0.19534 -0.05064,0.40273 -0.05064,0.2074 -0.136253,0.36777 -0.125401,0.2303 -0.313503,0.32918 -0.186896,0.0977 -0.506428,0.0977 H 12.05493 l 0.350882,-1.80023 z"
       id="path8053"
       style="fill:#000000" /><path
       d="m 14.474933,109.09057 q 0.08682,0.0169 0.138665,0.0808 0.05305,0.0639 0.118166,0.27733 l 0.1459,0.49196 h -0.242362 l -0.127813,-0.45458 q -0.05305,-0.1881 -0.119372,-0.24718 -0.06511,-0.0591 -0.197748,-0.0591 h -0.23151 l -0.148312,0.76084 h -0.244773 l 0.348471,-1.80023 h 0.501605 q 0.249596,0 0.38585,0.10852 0.137459,0.10732 0.137459,0.30386 0,0.22066 -0.125402,0.36535 -0.124195,0.14469 -0.338824,0.17243 z m -0.353294,-0.75 -0.12299,0.63907 h 0.264066 q 0.196543,0 0.313504,-0.1025 0.118166,-0.10369 0.118166,-0.27491 0,-0.13505 -0.07596,-0.19775 -0.07596,-0.0639 -0.239951,-0.0639 z"
       id="path8055"
       style="fill:#000000" /><path
       d="m 15.643335,109.77786 q 0.102491,0 0.189308,-0.0615 0.08682,-0.0615 0.143488,-0.17605 0.08923,-0.17483 0.144693,-0.42323 0.05547,-0.24839 0.05547,-0.47748 0,-0.17123 -0.06391,-0.25201 -0.0627,-0.082 -0.195337,-0.082 -0.102491,0 -0.188102,0.0615 -0.08561,0.0615 -0.142282,0.17604 -0.09164,0.17725 -0.147105,0.42323 -0.05547,0.24598 -0.05547,0.47508 0,0.17243 0.0627,0.25442 0.06391,0.082 0.196542,0.082 z m 0.782552,-1.06711 q 0,0.13263 -0.02773,0.28818 -0.02653,0.15554 -0.07838,0.31953 -0.03497,0.11093 -0.07596,0.19895 -0.03979,0.088 -0.08682,0.15917 -0.106109,0.15313 -0.237539,0.22668 -0.13143,0.0724 -0.306269,0.0724 -0.242362,0 -0.359322,-0.14831 -0.116961,-0.14831 -0.116961,-0.45699 0,-0.13384 0.02532,-0.28698 0.02653,-0.15434 0.07838,-0.31832 0.03497,-0.11094 0.07476,-0.19896 0.041,-0.088 0.08802,-0.15916 0.106108,-0.15313 0.237538,-0.22548 0.131431,-0.0735 0.306269,-0.0735 0.243568,0 0.360528,0.14831 0.118167,0.1471 0.118167,0.45458 z"
       id="path8057"
       style="fill:#000000" /><path
       d="m 16.868409,108.14041 h 0.30868 l 0.318326,1.48191 0.288182,-1.48191 h 0.235127 l -0.350882,1.80023 h -0.30868 l -0.318326,-1.4819 -0.289388,1.4819 h -0.233921 z"
       id="path8059"
       style="fill:#000000" /><path
       d="m 18.426278,108.14041 h 1.067117 l -0.03979,0.20498 h -0.824755 l -0.103697,0.53296 h 0.787375 l -0.03858,0.20498 h -0.788581 l -0.125401,0.65233 h 0.846459 l -0.03979,0.20498 h -1.091232 z"
       id="path8061"
       style="fill:#000000" /></g><g
     aria-label="GATE"
     id="text4590"
     style="font-style:italic;font-size:2.46944px;font-family:Menlo;-inkscape-font-specification:'Menlo Italic';text-align:center;text-anchor:middle;opacity:1;fill:#ffffff;stroke-width:0.246944;stroke-linecap:square;stroke-linejoin:round;stroke-miterlimit:0;paint-order:fill markers stroke"><path
       d="m 13.976342,97.756758 q -0.104903,0.07476 -0.229098,0.113343 -0.124196,0.03738 -0.265272,0.03738 -0.279741,0 -0.430464,-0.161574 -0.149517,-0.162781 -0.149517,-0.46302 0,-0.108521 0.01929,-0.230304 0.0205,-0.12299 0.05908,-0.256832 0.0422,-0.141076 0.09887,-0.25442 0.05667,-0.114549 0.124196,-0.195336 0.129018,-0.156752 0.284564,-0.23151 0.156752,-0.07476 0.356911,-0.07476 0.09646,0 0.191719,0.02532 0.09646,0.02532 0.189308,0.07355 l -0.04944,0.249597 q -0.07838,-0.07596 -0.165192,-0.113343 -0.08561,-0.03738 -0.183279,-0.03738 -0.118166,0 -0.221863,0.05064 -0.103698,0.04944 -0.185691,0.147106 -0.05305,0.0627 -0.10008,0.156751 -0.04702,0.09405 -0.0832,0.211012 -0.041,0.137459 -0.0627,0.258037 -0.0205,0.120578 -0.0205,0.218246 0,0.206189 0.09526,0.318327 0.09526,0.112137 0.270095,0.112137 0.08199,0 0.147106,-0.0217 0.06511,-0.02291 0.109726,-0.06511 l 0.09164,-0.473872 h -0.261654 l 0.03617,-0.20016 h 0.49437 z"
       id="path8064"
       style="fill:#000000" /><path
       d="m 15.180918,96.274853 -0.438905,0.933274 h 0.518486 z m -0.115755,-0.202572 h 0.296622 l 0.20016,1.800232 h -0.242362 l -0.0422,-0.469049 h -0.627006 l -0.221864,0.469049 h -0.261654 z"
       id="path8066"
       style="fill:#000000" /><path
       d="m 16.014113,96.072281 h 1.37459 l -0.03979,0.204983 h -0.565512 l -0.30868,1.595249 h -0.245979 l 0.311091,-1.595249 h -0.565511 z"
       id="path8068"
       style="fill:#000000" /><path
       d="m 17.682914,96.072281 h 1.067117 l -0.03979,0.204983 h -0.824755 l -0.103697,0.532956 h 0.787375 l -0.03859,0.204982 h -0.788581 l -0.125401,0.652328 h 0.846459 l -0.03979,0.204983 h -1.091232 z"
       id="path8070"
       style="fill:#000000" /></g><g
     aria-label="PIPE"
     id="text4602"
     style="font-style:italic;font-size:2.46944px;font-family:Menlo;-inkscape-font-specification:'Menlo Italic';text-align:center;text-anchor:middle;opacity:1;fill:#ffffff;stroke-width:0.246944;stroke-linecap:square;stroke-linejoin:round;stroke-miterlimit:0;paint-order:fill markers stroke"><path
       d="m 12.868311,85.290469 -0.131431,0.676444 h 0.282153 q 0.198954,0 0.317121,-0.11455 0.119372,-0.115755 0.119372,-0.307474 0,-0.130224 -0.07476,-0.191719 -0.07476,-0.0627 -0.23151,-0.0627 z M 12.663328,85.09031 h 0.530544 q 0.248391,0 0.378615,0.110932 0.130224,0.110931 0.130224,0.320737 0,0.30024 -0.192925,0.472667 -0.192925,0.172426 -0.530543,0.172426 h -0.280948 l -0.141076,0.723469 h -0.244774 z"
       id="path8091"
       style="fill:#000000" /><path
       d="m 14.154879,85.09031 h 1.000799 l -0.03979,0.204982 h -0.378615 l -0.26889,1.390266 h 0.378616 l -0.03979,0.204983 h -1.000799 l 0.03979,-0.204983 h 0.37741 l 0.270095,-1.390266 h -0.378616 z"
       id="path8093"
       style="fill:#000000" /><path
       d="m 15.841767,85.290469 -0.13143,0.676444 h 0.282153 q 0.198954,0 0.31712,-0.11455 0.119373,-0.115755 0.119373,-0.307474 0,-0.130224 -0.07476,-0.191719 -0.07476,-0.0627 -0.23151,-0.0627 z M 15.636784,85.09031 h 0.530544 q 0.248391,0 0.378616,0.110932 0.130224,0.110931 0.130224,0.320737 0,0.30024 -0.192925,0.472667 -0.192925,0.172426 -0.530544,0.172426 h -0.280947 l -0.141076,0.723469 h -0.244774 z"
       id="path8095"
       style="fill:#000000" /><path
       d="m 17.125924,85.09031 h 1.067117 l -0.03979,0.204982 h -0.824754 l -0.103697,0.532956 h 0.787375 l -0.03859,0.204983 h -0.788581 l -0.125402,0.652327 h 0.846459 l -0.03979,0.204983 h -1.091232 z"
       id="path8097"
       style="fill:#000000" /></g><g
     aria-label="FINGER"
     id="text4606"
     style="font-style:italic;font-size:2.46944px;font-family:Menlo;-inkscape-font-specification:'Menlo Italic';text-align:center;text-anchor:middle;opacity:1;fill:#ffffff;stroke-width:0.246944;stroke-linecap:square;stroke-linejoin:round;stroke-miterlimit:0;paint-order:fill markers stroke"><path
       d="m 33.876992,85.09031 h 1.059882 l -0.03979,0.204982 h -0.815108 l -0.103698,0.530544 h 0.737939 l -0.03859,0.204983 h -0.739144 l -0.167604,0.859722 h -0.244774 z"
       id="path8078"
       style="fill:#000000" /><path
       d="m 35.319106,85.09031 h 1.000799 l -0.03979,0.204982 h -0.378615 l -0.26889,1.390266 h 0.378616 l -0.03979,0.204983 h -1.000799 l 0.03979,-0.204983 h 0.37741 l 0.270095,-1.390266 h -0.378616 z"
       id="path8080"
       style="fill:#000000" /><path
       d="m 36.732282,85.09031 h 0.30868 l 0.318326,1.481905 0.288182,-1.481905 h 0.235127 l -0.350882,1.800231 h -0.30868 l -0.318326,-1.481905 -0.289388,1.481905 H 36.3814 Z"
       id="path8082"
       style="fill:#000000" /><path
       d="m 39.043765,86.774786 q -0.104903,0.07476 -0.229099,0.113344 -0.124195,0.03738 -0.265272,0.03738 -0.279741,0 -0.430464,-0.161575 -0.149516,-0.16278 -0.149516,-0.46302 0,-0.10852 0.01929,-0.230304 0.0205,-0.12299 0.05908,-0.256832 0.0422,-0.141076 0.09887,-0.254419 0.05667,-0.11455 0.124196,-0.195337 0.129018,-0.156752 0.284564,-0.23151 0.156752,-0.07476 0.356912,-0.07476 0.09646,0 0.191719,0.02532 0.09646,0.02532 0.189307,0.07355 l -0.04944,0.249596 q -0.07838,-0.07596 -0.165192,-0.113343 -0.08561,-0.03738 -0.183278,-0.03738 -0.118167,0 -0.221864,0.05064 -0.103697,0.04944 -0.18569,0.147105 -0.05306,0.0627 -0.10008,0.156751 -0.04703,0.09405 -0.0832,0.211012 -0.041,0.137459 -0.0627,0.258037 -0.0205,0.120578 -0.0205,0.218247 0,0.206188 0.09526,0.318326 0.09526,0.112138 0.270095,0.112138 0.08199,0 0.147105,-0.0217 0.06511,-0.02291 0.109726,-0.06511 l 0.09164,-0.473872 H 38.67359 l 0.03617,-0.200159 h 0.494371 z"
       id="path8084"
       style="fill:#000000" /><path
       d="m 39.77688,85.09031 h 1.067116 l -0.03979,0.204982 h -0.824754 l -0.103697,0.532956 h 0.787375 l -0.03858,0.204983 h -0.788581 l -0.125401,0.652327 h 0.846458 l -0.03979,0.204983 h -1.091232 z"
       id="path8086"
       style="fill:#000000" /><path
       d="m 41.772447,86.040465 q 0.08682,0.01688 0.138665,0.08079 0.05306,0.06391 0.118167,0.277329 l 0.145899,0.491959 h -0.242362 l -0.127812,-0.454579 q -0.05305,-0.188102 -0.119373,-0.247186 -0.06511,-0.05908 -0.197748,-0.05908 h -0.23151 l -0.148311,0.760848 h -0.244774 l 0.348471,-1.800231 h 0.501605 q 0.249597,0 0.38585,0.10852 0.137459,0.107315 0.137459,0.303857 0,0.220658 -0.125401,0.365352 -0.124195,0.144693 -0.338825,0.172426 z m -0.353293,-0.749996 -0.12299,0.639064 h 0.264066 q 0.196542,0 0.313503,-0.102491 0.118167,-0.103697 0.118167,-0.274918 0,-0.135048 -0.07597,-0.197748 -0.07596,-0.06391 -0.23995,-0.06391 z"
       id="path8088"
       style="fill:#000000" /></g><rect
     style="clip-rule:evenodd;fill:#212121;fill-opacity:1;fill-rule:evenodd;stroke:#000000;stroke-width:0.352778;stroke-linecap:square;stroke-linejoin:round;stroke-miterlimit:1.5;stroke-dasharray:none;stroke-opacity:1;paint-order:fill markers stroke"
     id="rect6883"
     width="5.5926971"
     height="13.189729"
     x="-118.75793"
     y="3.6541636"
     rx="3"
     ry="3"
     transform="rotate(-90)" /><rect
     style="clip-rule:evenodd;fill:#212121;fill-opacity:1;fill-rule:evenodd;stroke:#000000;stroke-width:0.352778;stroke-linecap:square;stroke-linejoin:round;stroke-miterlimit:1.5;stroke-dasharray:none;stroke-opacity:1;paint-order:fill markers stroke"
     id="rect2354"
     width="5.5926971"
     height="13.189729"
     x="-118.74209"
     y="27.047775"
     rx="3"
     ry="3"
     transform="rotate(-90)" /><path
     style="clip-rule:evenodd;fill:none;fill-rule:evenodd;stroke:#000000;stroke-width:0.352998;stroke-linecap:square;stroke-linejoin:round;stroke-miterlimit:1.5;stroke-opacity:1;paint-order:fill markers stroke"
     d="m 16.91525,116.05921 h 4.724624"
     id="path2516" /><path
     style="clip-rule:evenodd;fill:none;fill-rule:evenodd;stroke:#000000;stroke-width:0.352998;stroke-linecap:square;stroke-linejoin:round;stroke-miterlimit:1.5;stroke-opacity:1;paint-order:fill markers stroke"
     d="m 40.29422,116.09765 h 3.825588"
     id="path2614" /><g
     aria-label="REED"
     id="text9917"
     style="font-style:italic;font-size:2.46944px;font-family:Menlo;-inkscape-font-specification:'Menlo Italic';text-align:center;text-anchor:middle;opacity:1;fill:#ffffff;stroke-width:0.246944;stroke-linecap:square;stroke-linejoin:round;stroke-miterlimit:0;paint-order:fill markers stroke"><path
       d="m 7.7903418,71.001731 q 0.086816,0.01688 0.1386648,0.08079 0.053054,0.06391 0.1181666,0.27733 l 0.1458995,0.491959 h -0.242362 l -0.1278128,-0.45458 q -0.053054,-0.188102 -0.1193724,-0.247185 -0.065112,-0.05908 -0.1977481,-0.05908 h -0.23151 L 7.1259563,71.851807 H 6.8811827 l 0.3484708,-1.800232 h 0.501605 q 0.2495967,0 0.38585,0.108521 0.1374591,0.107314 0.1374591,0.303856 0,0.220658 -0.1254013,0.365352 -0.1241954,0.144694 -0.3388245,0.172427 z M 7.4370479,70.251735 7.3140582,70.890799 h 0.2640661 q 0.1965423,0 0.3135031,-0.102491 0.1181666,-0.103698 0.1181666,-0.274919 0,-0.135047 -0.075964,-0.197748 -0.075964,-0.06391 -0.2399505,-0.06391 z"
       id="path15802"
       style="fill:#000000" /><path
       d="M 8.7682304,70.051575 H 9.8353468 L 9.795556,70.256558 H 8.9708017 l -0.1036972,0.532955 h 0.7873751 l -0.038585,0.204983 H 8.8273137 l -0.1254012,0.652328 h 0.8464584 l -0.039791,0.204983 h -1.091232 z"
       id="path15804"
       style="fill:#000000" /><path
       d="m 10.254959,70.051575 h 1.067116 l -0.03979,0.204983 H 10.45753 l -0.103697,0.532955 h 0.787375 l -0.03859,0.204983 h -0.788581 l -0.125401,0.652328 h 0.846458 l -0.03979,0.204983 H 9.9040764 Z"
       id="path15806"
       style="fill:#000000" /><path
       d="m 11.717572,71.651647 q 0.223069,0 0.358117,-0.07476 0.135047,-0.07596 0.21704,-0.24598 0.06511,-0.138665 0.106109,-0.330384 0.0422,-0.192925 0.0422,-0.353294 0,-0.212217 -0.09887,-0.303857 -0.09887,-0.09164 -0.33159,-0.09164 h -0.137459 l -0.272506,1.399912 z m 0.315914,-1.600072 q 0.329179,0 0.491959,0.149517 0.163986,0.149517 0.163986,0.453374 0,0.195336 -0.05064,0.402731 -0.05064,0.207394 -0.136253,0.367763 -0.125401,0.230304 -0.313503,0.329178 -0.186896,0.09767 -0.506428,0.09767 h -0.365352 l 0.350883,-1.800232 z"
       id="path15808"
       style="fill:#000000" /></g><g
     aria-label="BORE"
     id="text11420"
     style="font-style:italic;font-size:2.46944px;font-family:Menlo;-inkscape-font-specification:'Menlo Italic';text-align:center;text-anchor:middle;opacity:1;fill:#ffffff;stroke-width:0.246944;stroke-linecap:square;stroke-linejoin:round;stroke-miterlimit:0;paint-order:fill markers stroke"><path
       d="m 19.003629,70.992085 -0.129018,0.659562 h 0.299034 q 0.221863,0 0.338824,-0.104903 0.118167,-0.104903 0.118167,-0.302651 0,-0.129019 -0.08199,-0.190514 -0.08199,-0.06149 -0.25442,-0.06149 z m 0.142283,-0.74035 -0.106109,0.542601 h 0.294211 q 0.182072,0 0.28577,-0.08682 0.104903,-0.08802 0.104903,-0.241156 0,-0.113343 -0.06752,-0.163986 -0.06632,-0.05064 -0.217041,-0.05064 z m -0.204983,-0.20016 h 0.534161 q 0.244774,0 0.370175,0.09646 0.125401,0.09526 0.125401,0.280947 0,0.18569 -0.110932,0.311091 -0.110932,0.124196 -0.299034,0.148311 0.150723,0.02773 0.230305,0.12299 0.08079,0.09526 0.08079,0.244774 0,0.282153 -0.192925,0.438904 -0.191719,0.156752 -0.542602,0.156752 h -0.545013 z"
       id="path15811"
       style="fill:#000000" /><path
       d="m 20.65555,71.689026 q 0.102491,0 0.189307,-0.06149 0.08682,-0.0615 0.143488,-0.176044 0.08923,-0.174838 0.144694,-0.423229 0.05547,-0.248391 0.05547,-0.477489 0,-0.171221 -0.06391,-0.252009 -0.0627,-0.08199 -0.195337,-0.08199 -0.102491,0 -0.188102,0.06149 -0.08561,0.0615 -0.142282,0.176044 -0.09164,0.17725 -0.147105,0.423229 -0.05547,0.24598 -0.05547,0.475078 0,0.172427 0.0627,0.25442 0.06391,0.08199 0.196543,0.08199 z m 0.782552,-1.067116 q 0,0.132636 -0.02773,0.288181 -0.02653,0.155546 -0.07838,0.319533 -0.03497,0.110931 -0.07596,0.198953 -0.03979,0.08802 -0.08682,0.159164 -0.106109,0.153134 -0.237539,0.226686 -0.13143,0.07235 -0.306269,0.07235 -0.242362,0 -0.359323,-0.148311 -0.11696,-0.148311 -0.11696,-0.456991 0,-0.133842 0.02532,-0.286976 0.02653,-0.15434 0.07838,-0.318326 0.03497,-0.110932 0.07476,-0.198954 0.041,-0.08802 0.08802,-0.159163 0.106109,-0.153134 0.237539,-0.225481 0.13143,-0.07355 0.306269,-0.07355 0.243567,0 0.360528,0.148311 0.118167,0.147106 0.118167,0.45458 z"
       id="path15813"
       style="fill:#000000" /><path
       d="m 22.460604,71.001731 q 0.08682,0.01688 0.138665,0.08079 0.05306,0.06391 0.118167,0.27733 l 0.145899,0.491959 h -0.242362 l -0.127813,-0.45458 q -0.05305,-0.188102 -0.119372,-0.247185 -0.06511,-0.05908 -0.197748,-0.05908 h -0.23151 l -0.148311,0.760848 h -0.244774 l 0.348471,-1.800232 h 0.501605 q 0.249597,0 0.38585,0.108521 0.137459,0.107314 0.137459,0.303856 0,0.220658 -0.125401,0.365352 -0.124196,0.144694 -0.338825,0.172427 z m -0.353294,-0.749996 -0.122989,0.639064 h 0.264066 q 0.196542,0 0.313503,-0.102491 0.118167,-0.103698 0.118167,-0.274919 0,-0.135047 -0.07597,-0.197748 -0.07596,-0.06391 -0.23995,-0.06391 z"
       id="path15815"
       style="fill:#000000" /><path
       d="m 23.438493,70.051575 h 1.067117 l -0.03979,0.204983 h -0.824755 l -0.103697,0.532955 h 0.787375 l -0.03859,0.204983 h -0.788581 l -0.125401,0.652328 h 0.846459 l -0.03979,0.204983 h -1.091232 z"
       id="path15817"
       style="fill:#000000" /></g><g
     aria-label="TONE"
     id="text12150"
     style="font-style:italic;font-size:2.46944px;font-family:Menlo;-inkscape-font-specification:'Menlo Italic';text-align:center;text-anchor:middle;opacity:1;fill:#ffffff;stroke-width:0.246944;stroke-linecap:square;stroke-linejoin:round;stroke-miterlimit:0;paint-order:fill markers stroke"><path
       d="m 30.121713,70.051575 h 1.37459 l -0.03979,0.204983 h -0.565512 l -0.30868,1.595249 h -0.245979 l 0.311091,-1.595249 h -0.565511 z"
       id="path15820"
       style="fill:#000000" /><path
       d="m 31.981027,71.689026 q 0.102492,0 0.189308,-0.06149 0.08682,-0.0615 0.143488,-0.176044 0.08923,-0.174838 0.144694,-0.423229 0.05547,-0.248391 0.05547,-0.477489 0,-0.171221 -0.06391,-0.252009 -0.0627,-0.08199 -0.195336,-0.08199 -0.102492,0 -0.188102,0.06149 -0.08561,0.0615 -0.142282,0.176044 -0.09164,0.17725 -0.147106,0.423229 -0.05547,0.24598 -0.05547,0.475078 0,0.172427 0.0627,0.25442 0.06391,0.08199 0.196542,0.08199 z m 0.782552,-1.067116 q 0,0.132636 -0.02773,0.288181 -0.02653,0.155546 -0.07838,0.319533 -0.03497,0.110931 -0.07597,0.198953 -0.03979,0.08802 -0.08682,0.159164 -0.106109,0.153134 -0.237539,0.226686 -0.13143,0.07235 -0.306268,0.07235 -0.242362,0 -0.359323,-0.148311 -0.116961,-0.148311 -0.116961,-0.456991 0,-0.133842 0.02532,-0.286976 0.02653,-0.15434 0.07838,-0.318326 0.03497,-0.110932 0.07476,-0.198954 0.041,-0.08802 0.08802,-0.159163 0.106109,-0.153134 0.237539,-0.225481 0.13143,-0.07355 0.306268,-0.07355 0.243568,0 0.360529,0.148311 0.118166,0.147106 0.118166,0.45458 z"
       id="path15822"
       style="fill:#000000" /><path
       d="m 33.206101,70.051575 h 0.30868 l 0.318326,1.481905 0.288182,-1.481905 h 0.235127 l -0.350882,1.800232 h -0.30868 l -0.318326,-1.481906 -0.289388,1.481906 h -0.233921 z"
       id="path15824"
       style="fill:#000000" /><path
       d="m 34.763971,70.051575 h 1.067116 l -0.03979,0.204983 h -0.824754 l -0.103697,0.532955 h 0.787375 l -0.03858,0.204983 h -0.788581 l -0.125401,0.652328 h 0.846458 l -0.03979,0.204983 h -1.091232 z"
       id="path15826"
       style="fill:#000000" /></g><g
     aria-label="LIP"
     id="text12880"
     style="font-style:italic;font-size:2.46944px;font-family:Menlo;-inkscape-font-specification:'Menlo Italic';text-align:center;text-anchor:middle;opacity:1;fill:#ffffff;stroke-width:0.246944;stroke-linecap:square;stroke-linejoin:round;stroke-miterlimit:0;paint-order:fill markers stroke"><path
       d="m 42.217111,70.051575 h 0.243567 l -0.311091,1.595249 h 0.869368 l -0.03979,0.204983 h -1.112936 z"
       id="path15829"
       style="fill:#000000" /><path
       d="m 43.676106,70.051575 h 1.000798 l -0.03979,0.204983 h -0.378616 l -0.268889,1.390266 h 0.378615 l -0.03979,0.204983 h -1.000799 l 0.03979,-0.204983 h 0.377409 l 0.270095,-1.390266 h -0.378615 z"
       id="path15831"
       style="fill:#000000" /><path
       d="m 45.362994,70.251735 -0.13143,0.676443 h 0.282153 q 0.198954,0 0.31712,-0.114549 0.119372,-0.115755 0.119372,-0.307474 0,-0.130225 -0.07476,-0.191719 -0.07476,-0.0627 -0.23151,-0.0627 z m -0.204983,-0.20016 h 0.530544 q 0.248391,0 0.378615,0.110932 0.130225,0.110932 0.130225,0.320738 0,0.300239 -0.192925,0.472666 -0.192925,0.172427 -0.530544,0.172427 h -0.280947 l -0.141077,0.723469 h -0.244773 z"
       id="path15833"
       style="fill:#000000" /></g><g
     aria-label="NOISE"
     id="text13610"
     style="font-style:italic;font-size:2.46944px;font-family:Menlo;-inkscape-font-specification:'Menlo Italic';text-align:center;text-anchor:middle;opacity:1;fill:#ffffff;stroke-width:0.246944;stroke-linecap:square;stroke-linejoin:round;stroke-miterlimit:0;paint-order:fill markers stroke"><path
       d="m 52.140239,70.051575 h 0.30868 l 0.318327,1.481905 0.288181,-1.481905 h 0.235128 l -0.350883,1.800232 h -0.30868 l -0.318326,-1.481906 -0.289387,1.481906 h -0.233922 z"
       id="path15836"
       style="fill:#000000" /><path
       d="m 53.888622,71.689026 q 0.102492,0 0.189308,-0.06149 0.08682,-0.0615 0.143488,-0.176044 0.08923,-0.174838 0.144694,-0.423229 0.05547,-0.248391 0.05547,-0.477489 0,-0.171221 -0.06391,-0.252009 -0.0627,-0.08199 -0.195336,-0.08199 -0.102492,0 -0.188102,0.06149 -0.08561,0.0615 -0.142282,0.176044 -0.09164,0.17725 -0.147106,0.423229 -0.05547,0.24598 -0.05547,0.475078 0,0.172427 0.0627,0.25442 0.06391,0.08199 0.196542,0.08199 z m 0.782552,-1.067116 q 0,0.132636 -0.02773,0.288181 -0.02653,0.155546 -0.07838,0.319533 -0.03497,0.110931 -0.07597,0.198953 -0.03979,0.08802 -0.08682,0.159164 -0.106109,0.153134 -0.237539,0.226686 -0.13143,0.07235 -0.306268,0.07235 -0.242362,0 -0.359323,-0.148311 -0.116961,-0.148311 -0.116961,-0.456991 0,-0.133842 0.02532,-0.286976 0.02653,-0.15434 0.07838,-0.318326 0.03497,-0.110932 0.07476,-0.198954 0.041,-0.08802 0.08802,-0.159163 0.106109,-0.153134 0.237539,-0.225481 0.13143,-0.07355 0.306268,-0.07355 0.243568,0 0.360529,0.148311 0.118166,0.147106 0.118166,0.45458 z"
       id="path15838"
       style="fill:#000000" /><path
       d="m 55.187249,70.051575 h 1.000798 l -0.03979,0.204983 h -0.378615 l -0.268889,1.390266 h 0.378615 l -0.03979,0.204983 h -1.000798 l 0.03979,-0.204983 h 0.377409 l 0.270095,-1.390266 h -0.378615 z"
       id="path15840"
       style="fill:#000000" /><path
       d="m 57.639808,70.11307 -0.04703,0.247185 q -0.09767,-0.07114 -0.202571,-0.107314 -0.104903,-0.03617 -0.21704,-0.03617 -0.198954,0 -0.324356,0.09887 -0.125401,0.09887 -0.125401,0.252009 0,0.08561 0.05908,0.138664 0.05908,0.05306 0.21463,0.101286 l 0.145899,0.04703 q 0.196542,0.06029 0.286976,0.161574 0.09164,0.10008 0.09164,0.255626 0,0.283358 -0.200159,0.449756 -0.20016,0.165192 -0.546219,0.165192 -0.125401,0 -0.247185,-0.02773 -0.120578,-0.02653 -0.241157,-0.08079 l 0.04944,-0.252008 q 0.118167,0.0832 0.238745,0.122989 0.121784,0.03979 0.256832,0.03979 0.198953,0 0.323149,-0.106109 0.124195,-0.106108 0.124195,-0.268889 0,-0.09887 -0.05305,-0.153134 -0.05305,-0.05426 -0.213423,-0.103697 l -0.121784,-0.03979 q -0.221864,-0.06994 -0.311092,-0.157957 -0.08802,-0.08923 -0.08802,-0.235128 0,-0.266477 0.198954,-0.435287 0.198954,-0.170015 0.519692,-0.170015 0.09646,0 0.204983,0.02412 0.109726,0.02411 0.224275,0.06993 z"
       id="path15842"
       style="fill:#000000" /><path
       d="m 58.158294,70.051575 h 1.067116 l -0.03979,0.204983 h -0.824754 l -0.103697,0.532955 h 0.787375 l -0.03858,0.204983 h -0.788581 l -0.125401,0.652328 h 0.846458 l -0.03979,0.204983 h -1.091232 z"
       id="path15844"
       style="fill:#000000" /></g><g
     aria-label="CHIFF"
     id="text14340"
     style="font-style:italic;font-size:2.46944px;font-family:Menlo;-inkscape-font-specification:'Menlo Italic';text-align:center;text-anchor:middle;opacity:1;fill:#ffffff;stroke-width:0.246944;stroke-linecap:square;stroke-linejoin:round;stroke-miterlimit:0;paint-order:fill markers stroke"><path
       d="m 64.817318,71.7879 q -0.101285,0.04944 -0.204982,0.07355 -0.102492,0.02532 -0.212218,0.02532 -0.27733,0 -0.430464,-0.160369 -0.151928,-0.160369 -0.151928,-0.449756 0,-0.265272 0.0844,-0.525721 0.0844,-0.260448 0.221863,-0.42564 0.129019,-0.156752 0.284565,-0.23151 0.155545,-0.07476 0.354499,-0.07476 0.09646,0 0.19172,0.02532 0.09526,0.02532 0.18569,0.07355 l -0.04944,0.249597 q -0.07717,-0.07596 -0.162781,-0.113344 -0.08561,-0.03738 -0.182073,-0.03738 -0.114549,0 -0.212217,0.04944 -0.09767,0.04823 -0.183279,0.148311 -0.125401,0.148311 -0.202571,0.379821 -0.07596,0.23151 -0.07596,0.464226 0,0.2086 0.09405,0.319532 0.09405,0.110932 0.2713,0.110932 0.102492,0 0.211012,-0.03858 0.109726,-0.03858 0.215835,-0.112137 z"
       id="path15847"
       style="fill:#000000" /><path
       d="m 65.507025,70.051575 h 0.243568 l -0.142282,0.737938 h 0.666797 l 0.142282,-0.737938 h 0.244774 l -0.350883,1.800232 h -0.243567 l 0.167603,-0.857311 h -0.669208 l -0.165192,0.857311 h -0.244774 z"
       id="path15849"
       style="fill:#000000" /><path
       d="m 67.069718,70.051575 h 1.000798 l -0.03979,0.204983 H 67.65211 l -0.268889,1.390266 h 0.378615 l -0.03979,0.204983 h -1.000799 l 0.03979,-0.204983 h 0.377409 l 0.270095,-1.390266 h -0.378615 z"
       id="path15851"
       style="fill:#000000" /><path
       d="m 68.60106,70.051575 h 1.059882 l -0.03979,0.204983 h -0.815108 l -0.103697,0.530544 h 0.737938 l -0.03859,0.204983 h -0.739144 l -0.167604,0.859722 h -0.244773 z"
       id="path15853"
       style="fill:#000000" /><path
       d="m 70.087788,70.051575 h 1.059882 l -0.03979,0.204983 h -0.815108 l -0.103697,0.530544 h 0.737938 l -0.03859,0.204983 h -0.739144 l -0.167603,0.859722 h -0.244774 z"
       id="path15855"
       style="fill:#000000" /></g><g
     aria-label="AULOS"
     id="text15070"
     style="font-style:italic;font-size:2.46944px;font-family:Menlo;-inkscape-font-specification:'Menlo Italic';text-align:center;text-anchor:middle;opacity:1;fill:#ffffff;stroke-width:0.246944;stroke-linecap:square;stroke-linejoin:round;stroke-miterlimit:0;paint-order:fill markers stroke"><path
       d="m 75.705126,70.254146 -0.438904,0.933275 h 0.518486 z m -0.115755,-0.202571 h 0.296623 l 0.200159,1.800232 h -0.242362 l -0.0422,-0.469049 h -0.627006 l -0.221864,0.469049 h -0.261655 z"
       id="path15858"
       style="fill:#000000" /><path
       d="m 76.44427,71.160894 0.214629,-1.109319 h 0.244774 l -0.215835,1.109319 q -0.0024,0.01568 -0.0096,0.04944 -0.03617,0.18569 -0.03617,0.256831 0,0.110932 0.06511,0.166398 0.06632,0.05547 0.198954,0.05547 0.107314,0 0.182073,-0.03376 0.07476,-0.03497 0.129018,-0.109726 0.02653,-0.03738 0.05306,-0.127813 0.02773,-0.09164 0.06029,-0.256831 l 0.214629,-1.109319 h 0.244773 l -0.214629,1.109319 q -0.05064,0.264066 -0.10852,0.388262 -0.05667,0.122989 -0.150723,0.198953 -0.08561,0.06752 -0.195336,0.103698 -0.109726,0.03497 -0.237539,0.03497 -0.23151,0 -0.356911,-0.10852 -0.124196,-0.10852 -0.124196,-0.30868 0,-0.04461 0.0096,-0.120578 0.01085,-0.07596 0.03256,-0.188102 z"
       id="path15860"
       style="fill:#000000" /><path
       d="m 78.237267,70.051575 h 0.243568 l -0.311092,1.595249 h 0.869369 l -0.03979,0.204983 h -1.112936 z"
       id="path15862"
       style="fill:#000000" /><path
       d="m 79.884364,71.689026 q 0.102492,0 0.189308,-0.06149 0.08682,-0.0615 0.143488,-0.176044 0.08923,-0.174838 0.144694,-0.423229 0.05547,-0.248391 0.05547,-0.477489 0,-0.171221 -0.06391,-0.252009 -0.0627,-0.08199 -0.195336,-0.08199 -0.102492,0 -0.188102,0.06149 -0.08561,0.0615 -0.142282,0.176044 -0.09164,0.17725 -0.147106,0.423229 -0.05546,0.24598 -0.05546,0.475078 0,0.172427 0.0627,0.25442 0.06391,0.08199 0.196542,0.08199 z m 0.782553,-1.067116 q 0,0.132636 -0.02773,0.288181 -0.02653,0.155546 -0.07838,0.319533 -0.03497,0.110931 -0.07596,0.198953 -0.03979,0.08802 -0.08682,0.159164 -0.106108,0.153134 -0.237539,0.226686 -0.13143,0.07235 -0.306268,0.07235 -0.242362,0 -0.359323,-0.148311 -0.116961,-0.148311 -0.116961,-0.456991 0,-0.133842 0.02532,-0.286976 0.02653,-0.15434 0.07838,-0.318326 0.03497,-0.110932 0.07476,-0.198954 0.041,-0.08802 0.08802,-0.159163 0.106109,-0.153134 0.237539,-0.225481 0.13143,-0.07355 0.306268,-0.07355 0.243568,0 0.360529,0.148311 0.118167,0.147106 0.118167,0.45458 z"
       id="path15864"
       style="fill:#000000" /><path
       d="m 82.148822,70.11307 -0.04703,0.247185 q -0.09767,-0.07114 -0.202571,-0.107314 -0.104903,-0.03617 -0.217041,-0.03617 -0.198954,0 -0.324355,0.09887 -0.125401,0.09887 -0.125401,0.252009 0,0.08561 0.05908,0.138664 0.05908,0.05306 0.214629,0.101286 l 0.1459,0.04703 q 0.196542,0.06029 0.286976,0.161574 0.09164,0.10008 0.09164,0.255626 0,0.283358 -0.20016,0.449756 -0.200159,0.165192 -0.546219,0.165192 -0.125401,0 -0.247185,-0.02773 -0.120578,-0.02653 -0.241156,-0.08079 l 0.04944,-0.252008 q 0.118167,0.0832 0.238745,0.122989 0.121784,0.03979 0.256831,0.03979 0.198954,0 0.32315,-0.106109 0.124195,-0.106108 0.124195,-0.268889 0,-0.09887 -0.05305,-0.153134 -0.05306,-0.05426 -0.213424,-0.103697 l -0.121784,-0.03979 q -0.221863,-0.06994 -0.311091,-0.157957 -0.08802,-0.08923 -0.08802,-0.235128 0,-0.266477 0.198954,-0.435287 0.198954,-0.170015 0.519691,-0.170015 0.09646,0 0.204983,0.02412 0.109726,0.02411 0.224276,0.06993 z"
       id="path15866"
       style="fill:#000000" /></g><g
     aria-label="DAMP"
     id="text15800"
     style="font-style:italic;font-size:2.46944px;font-family:Menlo;-inkscape-font-specification:'Menlo Italic';text-align:center;text-anchor:middle;opacity:1;fill:#ffffff;stroke-width:0.246944;stroke-linecap:square;stroke-linejoin:round;stroke-miterlimit:0;paint-order:fill markers stroke"><path
       d="m 88.021045,71.651647 q 0.22307,0 0.358117,-0.07476 0.135048,-0.07596 0.217041,-0.24598 0.06511,-0.138665 0.106108,-0.330384 0.0422,-0.192925 0.0422,-0.353294 0,-0.212217 -0.09887,-0.303857 -0.09887,-0.09164 -0.33159,-0.09164 h -0.137459 l -0.272507,1.399912 z m 0.315915,-1.600072 q 0.329178,0 0.491958,0.149517 0.163987,0.149517 0.163987,0.453374 0,0.195336 -0.05064,0.402731 -0.05064,0.207394 -0.136253,0.367763 -0.125402,0.230304 -0.313504,0.329178 -0.186896,0.09767 -0.506428,0.09767 h -0.365351 l 0.350882,-1.800232 z"
       id="path15869"
       style="fill:#000000" /><path
       d="m 90.003349,70.254146 -0.438904,0.933275 h 0.518486 z m -0.115755,-0.202571 h 0.296623 l 0.200159,1.800232 h -0.242362 l -0.0422,-0.469049 h -0.627006 l -0.221864,0.469049 h -0.261655 z"
       id="path15871"
       style="fill:#000000" /><path
       d="m 90.879952,70.051575 h 0.324356 l 0.132636,0.911571 0.499193,-0.911571 h 0.325561 l -0.350882,1.800232 H 91.58654 l 0.311092,-1.600072 -0.523309,0.958596 h -0.170015 l -0.138665,-0.958596 -0.30868,1.600072 h -0.224276 z"
       id="path15873"
       style="fill:#000000" /><path
       d="m 92.707917,70.251735 -0.13143,0.676443 h 0.282153 q 0.198953,0 0.31712,-0.114549 0.119372,-0.115755 0.119372,-0.307474 0,-0.130225 -0.07476,-0.191719 -0.07476,-0.0627 -0.23151,-0.0627 z m -0.204983,-0.20016 h 0.530544 q 0.248391,0 0.378615,0.110932 0.130225,0.110932 0.130225,0.320738 0,0.300239 -0.192925,0.472666 -0.192925,0.172427 -0.530544,0.172427 h -0.280947 l -0.141077,0.723469 h -0.244773 z"
       id="path15875"
       style="fill:#000000" /></g><g
     aria-label="VIBRATO"
     id="text1490"
     style="font-style:italic;font-size:2.46944px;font-family:Menlo;-inkscape-font-specification:'Menlo Italic';text-align:center;text-anchor:middle;stroke-width:0.246944;stroke-linecap:square;stroke-linejoin:round;stroke-miterlimit:0;paint-order:fill markers stroke;fill:#000000"><path
       d="m 33.28677,97.429944 0.721057,-1.571133 h 0.259243 l -0.866957,1.800231 h -0.311092 l -0.177249,-1.800231 h 0.238744 z"
       style="fill:#000000"
       id="path1573" /><path
       d="m 34.57575,95.858811 h 1.000798 l -0.03979,0.204983 h -0.378615 l -0.268889,1.390266 h 0.378615 l -0.03979,0.204982 h -1.000798 l 0.03979,-0.204982 h 0.377409 l 0.270095,-1.390266 H 34.53596 Z"
       style="fill:#000000"
       id="path1575" /><path
       d="m 36.085388,96.79932 -0.129019,0.659563 h 0.299034 q 0.221864,0 0.338825,-0.104903 0.118166,-0.104903 0.118166,-0.302651 0,-0.129019 -0.08199,-0.190514 -0.08199,-0.0615 -0.25442,-0.0615 z m 0.142282,-0.740349 -0.106109,0.542601 h 0.294211 q 0.182073,0 0.28577,-0.08682 0.104903,-0.08802 0.104903,-0.241156 0,-0.113344 -0.06752,-0.163987 -0.06632,-0.05064 -0.21704,-0.05064 z m -0.204983,-0.20016 h 0.534161 q 0.244774,0 0.370175,0.09646 0.125401,0.09526 0.125401,0.280947 0,0.185691 -0.110931,0.311092 -0.110932,0.124196 -0.299034,0.148311 0.150722,0.02773 0.230304,0.12299 0.08079,0.09526 0.08079,0.244773 0,0.282153 -0.192925,0.438905 -0.191719,0.156751 -0.542601,0.156751 h -0.545013 z"
       style="fill:#000000"
       id="path1577" /><path
       d="m 38.055635,96.808967 q 0.08682,0.01688 0.138664,0.08079 0.05306,0.06391 0.118167,0.27733 l 0.145899,0.491958 h -0.242362 l -0.127812,-0.454579 q -0.05306,-0.188102 -0.119373,-0.247185 -0.06511,-0.05908 -0.197748,-0.05908 h -0.23151 l -0.148311,0.760848 h -0.244773 l 0.34847,-1.800231 h 0.501605 q 0.249597,0 0.38585,0.10852 0.137459,0.107315 0.137459,0.303857 0,0.220658 -0.125401,0.365352 -0.124195,0.144694 -0.338824,0.172427 z m -0.353294,-0.749996 -0.12299,0.639064 h 0.264066 q 0.196542,0 0.313503,-0.102492 0.118167,-0.103697 0.118167,-0.274918 0,-0.135047 -0.07596,-0.197748 -0.07597,-0.06391 -0.239951,-0.06391 z"
       style="fill:#000000"
       id="path1579" /><path
       d="m 39.504984,96.061382 -0.438905,0.933275 h 0.518486 z m -0.115755,-0.202571 h 0.296622 l 0.200159,1.800231 h -0.242362 l -0.0422,-0.469049 H 38.97444 l -0.221864,0.469049 h -0.261654 z"
       style="fill:#000000"
       id="path1581" /><path
       d="m 40.338178,95.858811 h 1.374591 l -0.03979,0.204983 h -0.565511 l -0.30868,1.595248 h -0.24598 L 40.8639,96.063794 h -0.565511 z"
       style="fill:#000000"
       id="path1583" /><path
       d="m 42.197493,97.496262 q 0.102492,0 0.189308,-0.0615 0.08682,-0.06149 0.143488,-0.176044 0.08923,-0.174838 0.144694,-0.423229 0.05547,-0.248391 0.05547,-0.47749 0,-0.171221 -0.06391,-0.252008 -0.0627,-0.08199 -0.195336,-0.08199 -0.102492,0 -0.188102,0.0615 -0.08561,0.06149 -0.142282,0.176044 -0.09164,0.17725 -0.147106,0.423229 -0.05547,0.245979 -0.05547,0.475078 0,0.172427 0.0627,0.25442 0.06391,0.08199 0.196542,0.08199 z m 0.782552,-1.067117 q 0,0.132636 -0.02773,0.288182 -0.02653,0.155546 -0.07838,0.319532 -0.03497,0.110932 -0.07596,0.198954 -0.03979,0.08802 -0.08682,0.159163 -0.106109,0.153134 -0.237539,0.226687 -0.13143,0.07235 -0.306268,0.07235 -0.242362,0 -0.359323,-0.148311 -0.116961,-0.148311 -0.116961,-0.456991 0,-0.133842 0.02532,-0.286976 0.02653,-0.15434 0.07838,-0.318326 0.03497,-0.110932 0.07476,-0.198954 0.041,-0.08802 0.08802,-0.159163 0.106109,-0.153135 0.237539,-0.225481 0.13143,-0.07355 0.306268,-0.07355 0.243568,0 0.360529,0.148311 0.118166,0.147105 0.118166,0.454579 z"
       style="fill:#000000"
       id="path1585" /></g></svg>
