<?xml version="1.0" encoding="UTF-8" standalone="no"?>
<!-- Created with Inkscape (http://www.inkscape.org/) -->

<svg
   width="40.6399mm"
   height="128.5mm"
   viewBox="0 0 40.639903 128.50002"
   version="1.1"
   id="svg8"
   inkscape:version="1.3.2 (091e20e, 2023-11-25)"
   sodipodi:docname="Collatz-dark.svg"
   xml:space="preserve"
   xmlns:inkscape="http://www.inkscape.org/namespaces/inkscape"
   xmlns:sodipodi="http://sodipodi.sourceforge.net/DTD/sodipodi-0.dtd"
   xmlns="http://www.w3.org/2000/svg"
   xmlns:svg="http://www.w3.org/2000/svg"
   xmlns:rdf="http://www.w3.org/1999/02/22-rdf-syntax-ns#"
   xmlns:cc="http://creativecommons.org/ns#"
   xmlns:dc="http://purl.org/dc/elements/1.1/"
   xmlns:serif="http://www.serif.com/"><defs
     id="defs2" /><sodipodi:namedview
     id="base"
     pagecolor="#ffffff"
     bordercolor="#666666"
     borderopacity="1.0"
     inkscape:pageopacity="0.0"
     inkscape:pageshadow="2"
     inkscape:zoom="2.4329258"
     inkscape:cx="87.343395"
     inkscape:cy="232.43619"
     inkscape:document-units="mm"
     inkscape:current-layer="svg8"
     showgrid="false"
     units="mm"
     inkscape:snap-bbox="true"
     inkscape:snap-page="true"
     inkscape:bbox-nodes="false"
     inkscape:snap-bbox-edge-midpoints="false"
     inkscape:window-width="1696"
     inkscape:window-height="1012"
     inkscape:window-x="10"
     inkscape:window-y="38"
     inkscape:window-maximized="0"
     inkscape:snap-bbox-midpoints="true"
     inkscape:snap-nodes="false"
     inkscape:showpageshadow="2"
     inkscape:pagecheckerboard="0"
     inkscape:deskcolor="#d1d1d1" /><metadata
     id="metadata5"><rdf:RDF><cc:Work
         rdf:about=""><dc:format>image/svg+xml</dc:format><dc:type
           rdf:resource="http://purl.org/dc/dcmitype/StillImage" /></cc:Work></rdf:RDF></metadata><g
     id="g1"><rect
       id="rect1"
       x="-0.1665577"
       y="-0.38949111"
       width="40.987793"
       height="129.94316"
       style="clip-rule:evenodd;fill:#202020;fill-rule:evenodd;stroke-width:0.317257;stroke-linejoin:round;stroke-miterlimit:1.5" /><rect
       style="clip-rule:evenodd;display:none;fill:#3b3b3b;fill-opacity:1;fill-rule:evenodd;stroke:#d08c59;stroke-width:0.351999;stroke-linejoin:round;stroke-miterlimit:1.5;stroke-dasharray:none;stroke-opacity:1"
       id="rect2"
       width="17.226421"
       height="111.5742"
       x="19.288095"
       y="11.274678"
       rx="4"
       ry="4" /><path
       id="path128"
       d="m 16.724247,125.9342 c 0.05984,0.1268 0.07943,0.25396 0.05842,0.38219 h -0.419235 c -0.0064,-0.0983 -0.02565,-0.1724 -0.05842,-0.22227 -0.05735,-0.089 -0.160997,-0.13357 -0.310597,-0.13357 -0.152449,0 -0.28602,0.0627 -0.4,0.18843 -0.114337,0.12538 -0.195192,0.30276 -0.242921,0.5325 -0.04809,0.22974 -0.03776,0.40143 0.0317,0.51612 0.0691,0.11433 0.175246,0.17133 0.318434,0.17133 0.147106,0 0.269635,-0.0492 0.367587,-0.14747 0.05378,-0.0524 0.105432,-0.13179 0.155298,-0.23722 h 0.415317 c -0.08264,0.22333 -0.213357,0.40463 -0.391452,0.54461 -0.178451,0.13927 -0.384328,0.20944 -0.617632,0.20944 -0.288513,0 -0.495815,-0.0944 -0.621906,-0.28317 -0.125379,-0.18985 -0.153162,-0.44986 -0.08442,-0.78076 0.07409,-0.35726 0.225468,-0.63295 0.453429,-0.82636 0.198753,-0.16848 0.424221,-0.2529 0.676403,-0.2529 0.337667,0 0.560642,0.11327 0.669992,0.3391 z"
       style="clip-rule:evenodd;opacity:1;fill:#ffffff;fill-rule:nonzero;stroke-width:0.356189;stroke-linejoin:round;stroke-miterlimit:1.5" /><path
       id="path129"
       d="m 17.652476,127.18869 0.764026,-1.55441 h 0.435619 l -1.110954,2.04667 h -0.396083 l -0.252181,-2.04667 h 0.448442 z"
       style="clip-rule:evenodd;opacity:1;fill:#ffffff;fill-rule:nonzero;stroke-width:0.356189;stroke-linejoin:round;stroke-miterlimit:1.5" /><path
       id="path130"
       d="m 20.435382,126.18139 -0.05877,0.27925 h -0.253963 l -0.253607,1.22031 h -0.386466 l 0.253606,-1.22031 h -0.216919 l 0.05842,-0.27925 h 0.212645 l 0.01995,-0.0972 c 0.03419,-0.16207 0.08406,-0.27355 0.149955,-0.33482 0.07551,-0.0905 0.220482,-0.13606 0.43562,-0.13606 0.02458,0 0.04666,7.1e-4 0.06625,0.002 0.01959,0.001 0.04666,0.004 0.08121,0.006 l -0.06803,0.32271 c -0.02102,-0.003 -0.05699,-0.005 -0.107569,-0.006 -0.05093,-10e-4 -0.08905,0.01 -0.113981,0.0345 -0.02493,0.0246 -0.03989,0.0516 -0.04559,0.0812 -0.0064,0.0299 -0.01532,0.0723 -0.02743,0.12787 z"
       style="clip-rule:evenodd;opacity:1;fill:#ffffff;fill-rule:nonzero;stroke-width:0.356189;stroke-linejoin:round;stroke-miterlimit:1.5" /><path
       id="path131"
       d="m 21.342239,127.46759 c -0.0043,0.005 -0.01638,0.0185 -0.03562,0.0417 -0.01888,0.0232 -0.04025,0.0431 -0.06376,0.0609 -0.07266,0.0556 -0.139626,0.0933 -0.200891,0.11363 -0.06091,0.0203 -0.129653,0.0306 -0.206234,0.0306 -0.219412,0 -0.350846,-0.0801 -0.393232,-0.2415 -0.02386,-0.0887 -0.01745,-0.21977 0.01888,-0.39287 l 0.189492,-0.91256 h 0.397151 l -0.189136,0.91256 c -0.01817,0.0862 -0.02173,0.15066 -0.01104,0.19447 0.01923,0.0769 0.0805,0.11541 0.183794,0.11541 0.132502,0 0.234728,-0.0549 0.306678,-0.1642 0.03811,-0.0591 0.06732,-0.13749 0.08727,-0.23438 l 0.171327,-0.82386 h 0.393233 l -0.314515,1.51345 h -0.376849 z"
       style="clip-rule:evenodd;opacity:1;fill:#ffffff;fill-rule:nonzero;stroke-width:0.356189;stroke-linejoin:round;stroke-miterlimit:1.5" /><path
       id="path132"
       d="m 23.188368,126.76091 c 0.0171,-0.0798 0.01959,-0.14105 0.0068,-0.18344 -0.02173,-0.078 -0.08584,-0.11683 -0.193055,-0.11683 -0.13179,0 -0.234016,0.057 -0.306323,0.17062 -0.03847,0.0605 -0.06696,0.13749 -0.08584,0.23081 l -0.170259,0.81888 h -0.386465 l 0.314159,-1.51096 h 0.374711 l -0.04631,0.22084 c 0.0659,-0.0773 0.125023,-0.13357 0.177026,-0.16777 0.09225,-0.0613 0.200179,-0.0915 0.322352,-0.0915 0.153517,0 0.270347,0.0406 0.350846,0.12289 0.08014,0.0819 0.100801,0.21763 0.06162,0.40748 l -0.212289,1.01906 h -0.397507 z"
       style="clip-rule:evenodd;opacity:1;fill:#ffffff;fill-rule:nonzero;stroke-width:0.356189;stroke-linejoin:round;stroke-miterlimit:1.5" /><path
       id="path133"
       d="m 24.22844,127.20543 -0.09759,0.47552 h -0.381484 l 0.424934,-2.0399 h 0.381122 l -0.230454,1.10312 0.601959,-0.5699 h 0.480856 l -0.640072,0.57952 0.346928,0.92716 H 24.64625 l -0.220125,-0.64684 z"
       style="clip-rule:evenodd;opacity:1;fill:#ffffff;fill-rule:nonzero;stroke-width:0.356189;stroke-linejoin:round;stroke-miterlimit:1.5" /><path
       id="path134"
       d="m 7.443026,126.66688 h 6.622269"
       style="clip-rule:evenodd;opacity:1;fill:none;fill-rule:evenodd;stroke:#d08c59;stroke-width:0.227961px;stroke-linecap:round;stroke-linejoin:round;stroke-miterlimit:1.5" /><path
       id="path135"
       d="m 25.753642,126.66688 h 6.62227"
       style="clip-rule:evenodd;opacity:1;fill:none;fill-rule:evenodd;stroke:#d08c59;stroke-width:0.227961px;stroke-linecap:round;stroke-linejoin:round;stroke-miterlimit:1.5" /><path
       style="font-style:italic;font-size:5.64444px;font-family:Menlo;-inkscape-font-specification:'Menlo Italic';opacity:1;fill:#ffffff;stroke-width:3.52778"
       d="m 10.812872,6.2683973 q -0.231511,0.1129991 -0.468533,0.1681205 -0.234267,0.057878 -0.4850695,0.057878 -0.6338971,0 -0.9839185,-0.3665579 -0.3472654,-0.3665583 -0.3472654,-1.0280161 0,-0.6063363 0.1929252,-1.2016484 Q 8.913936,3.3028614 9.2281285,2.9252792 9.5230284,2.5669895 9.878562,2.3961129 q 0.355534,-0.1708766 0.810286,-0.1708766 0.220486,0 0.438216,0.057878 0.21773,0.057878 0.424436,0.1681205 l -0.113,0.5705074 q -0.176388,-0.1736327 -0.37207,-0.259071 -0.195681,-0.085438 -0.416167,-0.085438 -0.261827,0 -0.485069,0.112999 Q 9.9419517,2.9004745 9.7462705,3.1292287 9.4596387,3.4682258 9.28325,3.9973921 9.1096173,4.5265583 9.1096173,5.0584807 q 0,0.4768008 0.2149738,0.7303597 0.2149738,0.2535588 0.6201167,0.2535588 0.2342662,0 0.4823132,-0.088194 0.250803,-0.088194 0.493338,-0.2563149 z m 2.180054,-0.2259981 q 0.234267,0 0.432704,-0.1405598 0.198437,-0.1405598 0.327973,-0.4023868 0.203949,-0.3996308 0.330729,-0.9673821 0.126779,-0.5677513 0.126779,-1.0914054 0,-0.3913626 -0.146072,-0.5760196 -0.143316,-0.187413 -0.446484,-0.187413 -0.234266,0 -0.429947,0.1405598 -0.195682,0.1405598 -0.325217,0.4023868 -0.209462,0.4051429 -0.336241,0.9673821 -0.12678,0.5622392 -0.12678,1.0858933 0,0.3941186 0.143316,0.5815317 0.146072,0.187413 0.44924,0.187413 z m 1.788693,-2.4391257 q 0,0.3031681 -0.06339,0.6587017 -0.06063,0.3555336 -0.179145,0.7303597 -0.07993,0.2535588 -0.173633,0.4547523 -0.09095,0.2011934 -0.198437,0.3638018 -0.242534,0.3500214 -0.542947,0.5181419 -0.300412,0.1653645 -0.700042,0.1653645 -0.553971,0 -0.821311,-0.3389971 -0.267339,-0.3389972 -0.267339,-1.0445522 0,-0.3059243 0.05788,-0.6559457 0.06063,-0.3527775 0.179145,-0.7276036 0.07993,-0.2535588 0.170876,-0.4547523 0.09371,-0.2011934 0.201194,-0.3638018 0.242534,-0.3500214 0.542946,-0.5153859 0.300412,-0.1681205 0.700043,-0.1681205 0.556727,0 0.824066,0.3389971 0.270096,0.3362411 0.270096,1.0390401 z m 1.242989,-1.3036232 h 0.556727 l -0.711067,3.6462863 h 1.98713 l -0.09095,0.4685326 h -2.543856 z m 3.39824,0 h 0.556727 l -0.711067,3.6462863 h 1.98713 l -0.09095,0.4685326 h -2.543856 z m 4.406963,0.4630205 -1.003212,2.1332015 h 1.185112 z M 23.565227,2.2996503 h 0.677995 L 24.70073,6.4144692 H 24.146759 L 24.050296,5.3423563 H 22.617138 L 22.11002,6.4144692 h -0.598068 z m 2.16903,0 h 3.141925 l -0.09095,0.4685326 h -1.292599 l -0.705555,3.6462863 h -0.562239 l 0.711067,-3.6462863 h -1.292599 z m 3.706922,0 h 2.670636 l -0.07993,0.4244354 -2.698197,3.2218509 h 2.133201 l -0.09371,0.4685326 h -2.789147 l 0.07993,-0.4244354 2.689928,-3.2218509 h -2.003666 z"
       id="text1"
       aria-label="COLLATZ" /><rect
       style="opacity:1;fill:#3b3b3b;stroke-width:0.35277778;fill-opacity:1;stroke:#d08c59;stroke-opacity:1;stroke-dasharray:none"
       id="rect3"
       width="32.265686"
       height="19.7059"
       x="3.8978679"
       y="103.07696"
       rx="4"
       ry="4" /><rect
       style="opacity:1;fill:#212121;stroke-width:0.35277778;fill-opacity:1;stroke:#d08c59;stroke-opacity:1;stroke-dasharray:none"
       id="rect4"
       width="34.214615"
       height="13.425991"
       x="3.2482233"
       y="10.610863"
       rx="2"
       ry="2" /><path
       style="font-style:italic;font-size:3.175px;font-family:Menlo;-inkscape-font-specification:'Menlo Italic';fill:#ffffff;stroke-width:0.352778"
       d="m 4.7245026,64.525595 h 0.396875 l 0.4092773,1.90531 0.37052,-1.90531 H 6.203482 l -0.4511352,2.314587 h -0.396875 l -0.4092774,-1.90531 -0.3720703,1.90531 H 4.2733673 Z m 1.6479613,1.426269 0.2759522,-1.426269 h 0.3147095 l -0.2775025,1.426269 q -0.0031,0.02015 -0.012402,0.06356 -0.046509,0.238745 -0.046509,0.330213 0,0.142627 0.083716,0.21394 0.085266,0.07131 0.2557983,0.07131 0.1379761,0 0.2340943,-0.04341 0.096118,-0.04496 0.1658813,-0.141076 0.034106,-0.04806 0.068213,-0.164331 0.035657,-0.117823 0.077515,-0.330213 l 0.2759521,-1.426269 h 0.3147095 l -0.2759522,1.426269 q -0.065112,0.339515 -0.1395263,0.499195 -0.072864,0.15813 -0.1937867,0.255798 -0.1100708,0.08682 -0.2511474,0.133325 -0.1410767,0.04496 -0.3054077,0.04496 -0.2976563,0 -0.4588867,-0.139527 -0.1596802,-0.139526 -0.1596802,-0.396875 0,-0.05736 0.012402,-0.155029 0.013953,-0.09767 0.041858,-0.241846 z m 2.0882446,-1.426269 h 0.4170288 l 0.1705322,1.172021 0.6418213,-1.172021 H 10.10867 L 9.6575347,66.840182 H 9.3691802 L 9.7691558,64.782943 9.0963286,66.015426 H 8.8777373 L 8.6994536,64.782943 8.3025786,66.840182 H 8.0142241 Z m 2.1223505,1.209228 -0.165881,0.848011 h 0.384473 q 0.285254,0 0.435632,-0.134876 0.151929,-0.134875 0.151929,-0.389123 0,-0.165882 -0.10542,-0.244947 -0.10542,-0.07906 -0.327112,-0.07906 z m 0.182935,-0.95188 -0.136426,0.697632 h 0.378272 q 0.234094,0 0.367419,-0.111621 0.134875,-0.113171 0.134875,-0.310058 0,-0.145728 -0.08682,-0.21084 -0.08527,-0.06511 -0.279053,-0.06511 z m -0.26355,-0.257348 h 0.68678 q 0.314709,0 0.47594,0.124023 0.16123,0.122473 0.16123,0.361219 0,0.238745 -0.142627,0.399975 -0.142627,0.15968 -0.384472,0.190686 0.193786,0.03566 0.296106,0.15813 0.103869,0.122473 0.103869,0.314709 0,0.362769 -0.248047,0.564307 -0.246496,0.201538 -0.697631,0.201538 h -0.700733 z m 1.959571,0 h 1.372009 l -0.05116,0.26355 h -1.0604 l -0.133325,0.685229 h 1.012341 l -0.04961,0.26355 h -1.013892 l -0.161231,0.838708 h 1.088306 l -0.05116,0.26355 h -1.403015 z m 2.565735,1.221631 q 0.111621,0.0217 0.178283,0.103869 0.06821,0.08217 0.151929,0.356568 l 0.187585,0.632519 h -0.311608 l -0.164331,-0.58446 q -0.06821,-0.241846 -0.153479,-0.31781 -0.08372,-0.07596 -0.254249,-0.07596 h -0.297656 l -0.190686,0.978235 H 13.858829 L 14.306863,64.5256 h 0.644922 q 0.320911,0 0.496094,0.139526 0.176733,0.137976 0.176733,0.390674 0,0.283704 -0.16123,0.469739 -0.15968,0.186035 -0.435632,0.221692 z m -0.454236,-0.964283 -0.15813,0.821656 h 0.339514 q 0.252698,0 0.403076,-0.131775 0.151929,-0.133325 0.151929,-0.353467 0,-0.173633 -0.09767,-0.254248 -0.09767,-0.08217 -0.308508,-0.08217 z"
       id="text4"
       aria-label="NUMBER" /><path
       style="font-style:italic;font-size:3.175px;font-family:Menlo;-inkscape-font-specification:'Menlo Italic';fill:#ffffff;stroke-width:0.352778"
       d="m 23.777396,64.525595 h 0.417028 l 0.170533,1.172021 0.641821,-1.172021 h 0.418579 l -0.451135,2.314587 h -0.288355 l 0.399976,-2.057239 -0.672827,1.232483 h -0.218592 l -0.178283,-1.232483 -0.396875,2.057239 h -0.288355 z m 2.334741,2.105298 q 0.131775,0 0.243396,-0.07906 0.111621,-0.07906 0.184485,-0.226343 0.114721,-0.224793 0.186035,-0.544153 0.07131,-0.31936 0.07131,-0.613916 0,-0.220141 -0.08216,-0.324011 -0.08062,-0.10542 -0.251148,-0.10542 -0.131775,0 -0.241845,0.07906 -0.110071,0.07906 -0.182935,0.226343 -0.117822,0.227893 -0.189136,0.544153 -0.07131,0.316259 -0.07131,0.610815 0,0.221692 0.08061,0.327112 0.08217,0.10542 0.252698,0.10542 z m 1.00614,-1.37201 q 0,0.170533 -0.03566,0.37052 -0.03411,0.199988 -0.100769,0.410828 -0.04496,0.142627 -0.09767,0.255798 -0.05116,0.113172 -0.111621,0.204639 -0.136426,0.196887 -0.305408,0.291455 -0.168982,0.09302 -0.393775,0.09302 -0.311608,0 -0.461987,-0.190686 -0.150378,-0.190686 -0.150378,-0.587561 0,-0.172083 0.03256,-0.36897 0.03411,-0.198438 0.100769,-0.409277 0.04496,-0.142627 0.09612,-0.255799 0.05271,-0.113171 0.113171,-0.204638 0.136426,-0.196888 0.305408,-0.289905 0.168982,-0.09457 0.393775,-0.09457 0.313159,0 0.463537,0.190686 0.151929,0.189136 0.151928,0.58446 z m 0.629419,1.323951 q 0.286804,0 0.460437,-0.09612 0.173633,-0.09767 0.279053,-0.316259 0.08371,-0.178284 0.136425,-0.424781 0.05426,-0.248046 0.05426,-0.454235 0,-0.272852 -0.127124,-0.390674 -0.127124,-0.117823 -0.426331,-0.117823 h -0.176733 l -0.350367,1.799891 z m 0.406177,-2.057239 q 0.42323,0 0.632519,0.192236 0.21084,0.192236 0.21084,0.58291 0,0.251148 -0.06511,0.517798 -0.06511,0.266651 -0.175183,0.47284 -0.161231,0.296105 -0.403077,0.423229 -0.240295,0.125574 -0.651123,0.125574 h -0.469738 l 0.451135,-2.314587 z m 1.181323,1.426269 0.275952,-1.426269 h 0.314709 l -0.277502,1.426269 q -0.0031,0.02015 -0.0124,0.06356 -0.04651,0.238745 -0.04651,0.330213 0,0.142627 0.08371,0.21394 0.08527,0.07131 0.255799,0.07131 0.137976,0 0.234094,-0.04341 0.09612,-0.04496 0.165881,-0.141076 0.03411,-0.04806 0.06821,-0.164331 0.03566,-0.117823 0.07752,-0.330213 l 0.275952,-1.426269 h 0.314709 l -0.275952,1.426269 q -0.06511,0.339515 -0.139526,0.499195 -0.07286,0.15813 -0.193787,0.255798 -0.11007,0.08682 -0.251147,0.133325 -0.141077,0.04496 -0.305408,0.04496 -0.297656,0 -0.458887,-0.139527 -0.15968,-0.139526 -0.15968,-0.396875 0,-0.05736 0.0124,-0.155029 0.01395,-0.09767 0.04186,-0.241846 z m 2.305285,-1.426269 h 0.31316 l -0.399976,2.051037 h 1.117761 l -0.05116,0.26355 h -1.430921 z m 1.517737,1.426269 0.275953,-1.426269 h 0.314709 l -0.277502,1.426269 q -0.0031,0.02015 -0.0124,0.06356 -0.04651,0.238745 -0.04651,0.330213 0,0.142627 0.08372,0.21394 0.08527,0.07131 0.255799,0.07131 0.137976,0 0.234094,-0.04341 0.09612,-0.04496 0.165881,-0.141076 0.03411,-0.04806 0.06821,-0.164331 0.03566,-0.117823 0.07751,-0.330213 l 0.275952,-1.426269 h 0.314709 l -0.275952,1.426269 q -0.06511,0.339515 -0.139526,0.499195 -0.07286,0.15813 -0.193787,0.255798 -0.110071,0.08682 -0.251147,0.133325 -0.141077,0.04496 -0.305408,0.04496 -0.297656,0 -0.458887,-0.139527 -0.15968,-0.139526 -0.15968,-0.396875 0,-0.05736 0.0124,-0.155029 0.01395,-0.09767 0.04186,-0.241846 z m 3.511413,-1.347204 -0.06046,0.31781 q -0.125574,-0.09147 -0.260449,-0.137976 -0.134876,-0.04651 -0.279053,-0.04651 -0.255799,0 -0.417029,0.127124 -0.16123,0.127124 -0.16123,0.324011 0,0.110071 0.07596,0.178284 0.07596,0.06821 0.275952,0.130225 l 0.187585,0.06046 q 0.252698,0.07751 0.36897,0.207739 0.117822,0.128675 0.117822,0.328662 0,0.364319 -0.257348,0.57826 -0.257349,0.21239 -0.702283,0.21239 -0.16123,0 -0.31781,-0.03566 -0.155029,-0.03411 -0.310059,-0.10387 l 0.06356,-0.324011 q 0.151929,0.10697 0.306958,0.15813 0.15658,0.05116 0.330213,0.05116 0.255798,0 0.415478,-0.136426 0.159681,-0.136426 0.159681,-0.345715 0,-0.127124 -0.06821,-0.196888 -0.06821,-0.06976 -0.274402,-0.133325 l -0.15658,-0.05116 q -0.285254,-0.08992 -0.399975,-0.203088 -0.113172,-0.114722 -0.113172,-0.302307 0,-0.342615 0.255799,-0.559656 0.255798,-0.218591 0.668176,-0.218591 0.124023,0 0.26355,0.03101 0.141076,0.03101 0.288354,0.08992 z"
       id="text5"
       aria-label="MODULUS" /><path
       style="font-style:italic;font-size:3.175px;font-family:Menlo;-inkscape-font-specification:'Menlo Italic';fill:#ffffff;stroke-width:0.352778"
       d="m 4.6544818,99.773323 q -0.1302246,0.0636 -0.2635498,0.0946 -0.1317749,0.0326 -0.2728516,0.0326 -0.3565674,0 -0.5534546,-0.20619 -0.1953369,-0.20619 -0.1953369,-0.578257 0,-0.341057 0.1085205,-0.675917 0.1085205,-0.334868 0.2852539,-0.547258 0.1658814,-0.201538 0.3658692,-0.297656 0.1999878,-0.09612 0.4557861,-0.09612 0.1240234,0 0.2464966,0.03256 0.1224731,0.03256 0.2387451,0.09457 l -0.063562,0.320911 q -0.099219,-0.09767 -0.2092896,-0.145728 -0.1100708,-0.04806 -0.2340942,-0.04806 -0.1472778,0 -0.2728516,0.06356 -0.1255737,0.06201 -0.2356445,0.190686 -0.1612305,0.190686 -0.2604492,0.488346 -0.097669,0.29765 -0.097669,0.596856 0,0.2682 0.1209229,0.410827 0.1209228,0.14262 0.3488159,0.14262 0.1317749,0 0.2713013,-0.0496 0.1410766,-0.0496 0.2775024,-0.144167 z m 1.0200927,-2.232418 h 0.3131592 l -0.3999756,2.051028 h 1.1177612 l -0.05116,0.26355 h -1.43092 z m 2.1177002,2.105288 q 0.1317749,0 0.2433959,-0.0791 0.1116211,-0.0791 0.1844849,-0.226337 0.1147217,-0.2248 0.1860352,-0.544157 0.071313,-0.31936 0.071313,-0.613913 0,-0.220142 -0.082166,-0.324011 -0.080615,-0.10542 -0.2511474,-0.10542 -0.1317749,0 -0.2418457,0.07906 -0.1100708,0.07906 -0.1829346,0.226343 -0.1178223,0.227893 -0.1891358,0.544156 -0.071313,0.31626 -0.071313,0.610812 0,0.22169 0.080615,0.327107 0.082165,0.10542 0.2526978,0.10542 z m 1.0061401,-1.372 q 0,0.170536 -0.035657,0.370516 -0.034106,0.19999 -0.100769,0.410827 -0.044958,0.14263 -0.097669,0.2558 -0.05116,0.11317 -0.1116211,0.204637 -0.1364257,0.19689 -0.3054077,0.29145 -0.1689819,0.093 -0.3937744,0.093 -0.3116089,0 -0.4619873,-0.19068 -0.1503784,-0.19069 -0.1503784,-0.587567 0,-0.17208 0.032556,-0.368967 0.034106,-0.19843 0.100769,-0.409272 0.044958,-0.142627 0.096118,-0.255799 0.05271,-0.113171 0.1131714,-0.204638 0.1364257,-0.196888 0.3054077,-0.289905 0.1689819,-0.09457 0.3937744,-0.09457 0.3131592,0 0.4635376,0.190686 0.1519287,0.189136 0.1519287,0.58446 z m 1.5906002,1.49913 q -0.130225,0.0636 -0.26355,0.0946 -0.1317746,0.0326 -0.2728513,0.0326 -0.3565674,0 -0.5534546,-0.20619 -0.1953369,-0.20619 -0.1953369,-0.578257 0,-0.341057 0.1085205,-0.675917 0.1085205,-0.334868 0.2852539,-0.547258 0.1658814,-0.201538 0.3658692,-0.297656 0.1999882,-0.09612 0.4557862,-0.09612 0.124023,0 0.246496,0.03256 0.122474,0.03256 0.238746,0.09457 l -0.06356,0.320911 q -0.09922,-0.09767 -0.20929,-0.145728 -0.110071,-0.04806 -0.234094,-0.04806 -0.147278,0 -0.272852,0.06356 -0.1255735,0.06201 -0.2356443,0.190686 -0.1612305,0.190686 -0.2604492,0.488346 -0.097668,0.29765 -0.097668,0.596856 0,0.2682 0.1209229,0.410827 0.1209228,0.14262 0.3488159,0.14262 0.1317757,0 0.2713017,-0.0496 0.141077,-0.0496 0.277503,-0.144167 z m 0.886768,-2.232418 h 0.313159 l -0.196887,1.003044 1.150317,-1.003044 h 0.393775 l -1.089856,0.959634 0.663525,1.354944 h -0.339514 l -0.558106,-1.148754 -0.299206,0.260447 -0.173633,0.888307 h -0.314709 z"
       id="text6"
       aria-label="CLOCK" /><path
       style="font-style:italic;font-size:3.175px;font-family:Menlo;-inkscape-font-specification:'Menlo Italic';fill:#ffffff;stroke-width:0.352778"
       d="m 16.347741,98.762539 q 0.111621,0.0217 0.178283,0.10387 0.06821,0.0822 0.151929,0.356557 l 0.187586,0.632517 H 16.55393 l -0.164331,-0.584457 q -0.06821,-0.24184 -0.153479,-0.31781 -0.08372,-0.076 -0.254248,-0.076 h -0.297657 l -0.190686,0.978227 H 15.17882 l 0.448035,-2.314581 h 0.644921 q 0.320911,0 0.496094,0.139526 0.176734,0.137976 0.176734,0.390674 0,0.283704 -0.161231,0.469734 -0.15968,0.18604 -0.435632,0.2217 z m -0.454236,-0.964286 -0.15813,0.821656 h 0.339514 q 0.252698,0 0.403076,-0.13178 0.151929,-0.13332 0.151929,-0.353462 0,-0.173633 -0.09767,-0.254248 -0.09767,-0.08217 -0.308509,-0.08217 z m 1.711523,-0.257348 h 1.37201 l -0.05116,0.26355 h -1.0604 l -0.133326,0.685234 h 1.012342 l -0.04961,0.26354 h -1.013891 l -0.161231,0.838704 h 1.088306 l -0.05116,0.26355 h -1.403015 z m 3.156397,0.07906 -0.06046,0.31781 q -0.125573,-0.09147 -0.260449,-0.137976 -0.134875,-0.04651 -0.279053,-0.04651 -0.255798,0 -0.417028,0.127124 -0.161231,0.127124 -0.161231,0.324011 0,0.110071 0.07596,0.178284 0.07597,0.06822 0.275953,0.130225 l 0.187585,0.0605 q 0.252698,0.0775 0.36897,0.20774 0.117822,0.12867 0.117822,0.328663 0,0.364317 -0.257349,0.578257 -0.257348,0.21239 -0.702282,0.21239 -0.161231,0 -0.31781,-0.0357 -0.15503,-0.0341 -0.310059,-0.10386 l 0.06356,-0.324017 q 0.151929,0.106967 0.306958,0.158127 0.15658,0.0512 0.330212,0.0512 0.255799,0 0.415479,-0.13642 0.15968,-0.136427 0.15968,-0.345717 0,-0.12712 -0.06821,-0.19688 -0.06821,-0.0698 -0.274402,-0.133333 l -0.156579,-0.0512 q -0.285254,-0.0899 -0.399976,-0.20309 -0.113171,-0.11472 -0.113171,-0.302305 0,-0.342615 0.255798,-0.559656 0.255798,-0.218591 0.668176,-0.218591 0.124024,0 0.26355,0.03101 0.141077,0.03101 0.288355,0.08992 z m 0.666625,-0.07906 h 1.37201 l -0.05116,0.26355 h -1.0604 l -0.133326,0.685234 h 1.012342 l -0.04961,0.26354 h -1.013891 l -0.161231,0.838704 h 1.088306 l -0.05116,0.26355 h -1.403015 z m 1.677418,0 h 1.767334 l -0.05116,0.26355 h -0.727087 l -0.396875,2.051028 h -0.31626 l 0.399975,-2.051028 h -0.727087 z"
       id="text7"
       aria-label="RESET" /><path
       style="font-style:italic;font-size:3.175px;font-family:Menlo;-inkscape-font-specification:'Menlo Italic';fill:#ffffff;stroke-width:0.352778"
       d="m 28.782933,97.61997 -0.06046,0.31781 q -0.125574,-0.09147 -0.260449,-0.137976 -0.134876,-0.04651 -0.279053,-0.04651 -0.255798,0 -0.417029,0.127124 -0.16123,0.127124 -0.16123,0.324011 0,0.110071 0.07596,0.178284 0.07596,0.06822 0.275952,0.130225 l 0.187586,0.0605 q 0.252697,0.0775 0.368969,0.20774 0.117823,0.12867 0.117823,0.328658 0,0.364317 -0.257349,0.578257 -0.257349,0.21239 -0.702283,0.21239 -0.16123,0 -0.31781,-0.0357 -0.155029,-0.0341 -0.310058,-0.10386 l 0.06356,-0.324017 q 0.151928,0.106967 0.306958,0.158127 0.156579,0.0512 0.330212,0.0512 0.255798,0 0.415479,-0.13642 0.15968,-0.136427 0.15968,-0.345717 0,-0.12712 -0.06821,-0.19688 -0.06821,-0.0698 -0.274402,-0.133328 l -0.15658,-0.0512 q -0.285253,-0.0899 -0.399975,-0.20309 -0.113171,-0.11472 -0.113171,-0.302305 0,-0.342615 0.255798,-0.559656 0.255798,-0.218591 0.668176,-0.218591 0.124024,0 0.26355,0.03101 0.141077,0.03101 0.288354,0.08992 z m 0.432532,-0.07906 h 1.767334 l -0.05116,0.26355 h -0.727087 l -0.396875,2.051033 h -0.31626 l 0.399976,-2.051033 h -0.727088 z m 2.75177,0.260449 -0.564307,1.199927 h 0.666626 z M 31.818407,97.54091 h 0.381372 l 0.257349,2.314583 h -0.311609 l -0.05426,-0.603057 h -0.806153 l -0.285254,0.603057 h -0.336413 z m 2.108398,1.221634 q 0.111621,0.0217 0.178284,0.10387 0.06821,0.0822 0.151928,0.356562 l 0.187586,0.632517 h -0.311609 l -0.164331,-0.584457 q -0.06821,-0.24184 -0.153479,-0.31781 -0.08372,-0.076 -0.254248,-0.076 H 33.26328 l -0.190686,0.978237 h -0.31471 l 0.448035,-2.314591 h 0.644922 q 0.32091,0 0.496093,0.139526 0.176734,0.137976 0.176734,0.390674 0,0.283704 -0.161231,0.469734 -0.15968,0.18604 -0.435632,0.2217 z m -0.454236,-0.964286 -0.15813,0.821656 h 0.339515 q 0.252697,0 0.403076,-0.13178 0.151928,-0.13332 0.151928,-0.353462 0,-0.173633 -0.09767,-0.254248 -0.09767,-0.08217 -0.308508,-0.08217 z m 1.47743,-0.257348 h 1.767334 l -0.05116,0.26355 h -0.727087 l -0.396875,2.051033 h -0.31626 l 0.399975,-2.051033 h -0.727087 z"
       id="text8"
       aria-label="START" /><path
       style="font-style:italic;font-size:3.175px;font-family:Menlo;-inkscape-font-specification:'Menlo Italic';fill:#ffffff;stroke-width:0.352778"
       d="m 7.8343102,120.43431 q 0.1317749,0 0.243396,-0.0791 0.1116211,-0.0791 0.1844849,-0.22635 0.1147217,-0.22479 0.1860351,-0.54415 0.071313,-0.31936 0.071313,-0.61392 0,-0.22014 -0.082165,-0.32401 -0.080615,-0.10542 -0.2511475,-0.10542 -0.1317749,0 -0.2418457,0.0791 -0.1100708,0.0791 -0.1829345,0.22634 -0.1178223,0.22789 -0.1891358,0.54415 -0.071313,0.31626 -0.071313,0.61082 0,0.22169 0.080615,0.32711 0.082165,0.10542 0.2526977,0.10542 z m 1.0061402,-1.37201 q 0,0.17053 -0.035657,0.37052 -0.034106,0.19999 -0.100769,0.41083 -0.044958,0.14263 -0.097669,0.2558 -0.05116,0.11317 -0.1116211,0.20464 -0.1364258,0.19688 -0.3054077,0.29145 -0.1689819,0.093 -0.3937744,0.093 -0.3116089,0 -0.4619873,-0.19069 -0.1503784,-0.19068 -0.1503784,-0.58756 0,-0.17208 0.032556,-0.36897 0.034107,-0.19844 0.1007691,-0.40928 0.044958,-0.14262 0.096118,-0.25579 0.05271,-0.11317 0.1131713,-0.20464 0.1364258,-0.19689 0.3054077,-0.28991 0.168982,-0.0946 0.3937745,-0.0946 0.3131591,0 0.4635375,0.19068 0.1519288,0.18914 0.1519288,0.58446 z m 0.3054076,0.69298 0.2759522,-1.42627 h 0.3147095 l -0.2775025,1.42627 q -0.0031,0.0202 -0.012402,0.0636 -0.046509,0.23875 -0.046509,0.33022 0,0.14262 0.083716,0.21394 0.085266,0.0713 0.2557983,0.0713 0.1379761,0 0.2340943,-0.0434 0.096118,-0.045 0.1658815,-0.14107 0.03411,-0.0481 0.06821,-0.16433 0.03566,-0.11783 0.07751,-0.33022 l 0.275953,-1.42627 h 0.314709 l -0.275952,1.42627 q -0.06511,0.33952 -0.139527,0.4992 -0.07286,0.15813 -0.193786,0.2558 -0.110071,0.0868 -0.251148,0.13332 -0.1410763,0.045 -0.3054073,0.045 -0.2976563,0 -0.4588867,-0.13953 -0.1596802,-0.13952 -0.1596802,-0.39687 0,-0.0574 0.012402,-0.15503 0.013953,-0.0977 0.041858,-0.24185 z m 2.032434,-1.42627 h 1.767334 l -0.05116,0.26355 h -0.727087 l -0.396875,2.05104 h -0.31626 l 0.399976,-2.05104 h -0.727088 z"
       id="text9"
       aria-label="OUT" /><path
       style="font-style:italic;font-size:3.175px;font-family:Menlo;-inkscape-font-specification:'Menlo Italic';fill:#ffffff;stroke-width:0.352778"
       d="m 18.29455,118.58946 -0.564307,1.19993 h 0.666626 z m -0.148828,-0.26045 h 0.381372 l 0.257348,2.31459 h -0.311608 l -0.05426,-0.60306 h -0.806152 l -0.285254,0.60306 h -0.336413 z m 2.38435,2.23242 q -0.130224,0.0636 -0.263549,0.0946 -0.131775,0.0326 -0.272852,0.0326 -0.356567,0 -0.553455,-0.20619 -0.195337,-0.20619 -0.195337,-0.57826 0,-0.34106 0.108521,-0.67593 0.10852,-0.33486 0.285254,-0.54725 0.165881,-0.20154 0.365869,-0.29766 0.199988,-0.0961 0.455786,-0.0961 0.124024,0 0.246497,0.0326 0.122473,0.0326 0.238745,0.0946 l -0.06356,0.32091 q -0.09922,-0.0977 -0.20929,-0.14573 -0.110071,-0.0481 -0.234094,-0.0481 -0.147278,0 -0.272852,0.0636 -0.125573,0.062 -0.235644,0.19068 -0.161231,0.19069 -0.260449,0.48834 -0.09767,0.29766 -0.09767,0.59687 0,0.2682 0.120923,0.41082 0.120923,0.14263 0.348816,0.14263 0.131775,0 0.271301,-0.0496 0.141077,-0.0496 0.277503,-0.14418 z m 1.911512,0 q -0.130225,0.0636 -0.26355,0.0946 -0.131775,0.0326 -0.272852,0.0326 -0.356567,0 -0.553454,-0.20619 -0.195337,-0.20619 -0.195337,-0.57826 0,-0.34106 0.10852,-0.67593 0.108521,-0.33486 0.285254,-0.54725 0.165881,-0.20154 0.365869,-0.29766 0.199988,-0.0961 0.455786,-0.0961 0.124024,0 0.246497,0.0326 0.122473,0.0326 0.238745,0.0946 l -0.06356,0.32091 q -0.09922,-0.0977 -0.20929,-0.14573 -0.11007,-0.0481 -0.234094,-0.0481 -0.147278,0 -0.272851,0.0636 -0.125574,0.062 -0.235645,0.19068 -0.16123,0.19069 -0.260449,0.48834 -0.09767,0.29766 -0.09767,0.59687 0,0.2682 0.120923,0.41082 0.120923,0.14263 0.348816,0.14263 0.131775,0 0.271302,-0.0496 0.141076,-0.0496 0.277502,-0.14418 z"
       id="text10"
       aria-label="ACC" /><path
       style="font-style:italic;font-size:3.175px;font-family:Menlo;-inkscape-font-specification:'Menlo Italic';fill:#ffffff;stroke-width:0.352778"
       d="m 27.662728,118.32901 h 1.372009 l -0.05116,0.26355 h -1.0604 l -0.133325,0.68523 h 1.012341 l -0.04961,0.26355 h -1.013892 l -0.16123,0.83871 h 1.088305 l -0.05116,0.26355 h -1.403016 z m 1.820044,0 h 0.396875 l 0.409277,1.90531 0.37052,-1.90531 h 0.302307 l -0.451135,2.31459 h -0.396875 l -0.409277,-1.90531 -0.372071,1.90531 h -0.300757 z m 1.971972,2.05724 q 0.286804,0 0.460437,-0.0961 0.173633,-0.0977 0.279053,-0.31626 0.08372,-0.17828 0.136426,-0.42478 0.05426,-0.24804 0.05426,-0.45423 0,-0.27285 -0.127124,-0.39068 -0.127124,-0.11782 -0.426331,-0.11782 h -0.176733 l -0.350366,1.79989 z m 0.406177,-2.05724 q 0.42323,0 0.63252,0.19224 0.210839,0.19224 0.210839,0.58291 0,0.25115 -0.06511,0.5178 -0.06511,0.26665 -0.175183,0.47284 -0.161231,0.2961 -0.403076,0.42323 -0.240296,0.12557 -0.651123,0.12557 h -0.469739 l 0.451135,-2.31459 z"
       id="text11"
       aria-label="END" /><path
       style="opacity:1;fill:none;fill-opacity:1;stroke:#d08c59;stroke-width:0.352777;stroke-dasharray:none;stroke-opacity:1"
       d="m 20.176389,81.901632 v 11.09635"
       id="path11" /><path
       style="opacity:1;fill:none;fill-opacity:1;stroke:#d08c59;stroke-width:0.352778;stroke-dasharray:none;stroke-opacity:1"
       d="M 30.12139,73.929597 V 92.997986"
       id="path12" /></g><g
     id="g55"
     transform="matrix(0.3520232,0,0,0.3520232,-0.69964396,9.5606593)"
     style="clip-rule:evenodd;fill-rule:evenodd;stroke-linecap:square;stroke-linejoin:round;stroke-miterlimit:1.5">
            <path
   id="path401"
   serif:id="path40"
   d="M 44.843,92.605 42.539,92.03 43.112,89.722"
   style="fill:none;stroke:#d08c59;stroke-width:0.7px;stroke-linecap:butt;stroke-linejoin:miter;stroke-miterlimit:10" />
            <path
   id="path411"
   serif:id="path41"
   d="M 18.355,91.132 C 13.01,87.25 9.539,80.994 9.539,73.942 c 0,-11.767 9.668,-21.32 21.577,-21.32 11.909,0 21.578,9.553 21.578,21.32 0,6.065 -2.569,11.542 -6.689,15.426 -1.059,0.998 -2.22,1.892 -3.466,2.662"
   style="fill:none;stroke:#d08c59;stroke-width:0.7px;stroke-linecap:butt" />
        </g><path
     d="M 10.25391,35.566407 V 57.414034"
     style="clip-rule:evenodd;fill:none;fill-rule:evenodd;stroke:#d08c59;stroke-width:0.352777;stroke-linecap:square;stroke-linejoin:round;stroke-miterlimit:1.5;stroke-dasharray:none"
     id="path66" /><path
     d="M 5.7627738,41.6405 4.7070563,43.131318"
     style="clip-rule:evenodd;fill:none;fill-rule:evenodd;stroke:#d08c59;stroke-width:0.264017px;stroke-linecap:square;stroke-linejoin:round;stroke-miterlimit:1.5"
     id="path67" /><path
     d="m 12.556494,44.997517 0.05421,-0.259793 h 0.674476 l 0.145385,-0.679053 h 0.26437 l -0.145386,0.679053 h 0.674477 l -0.05421,0.259793 H 13.49534 l -0.143626,0.677644 h -0.264721 l 0.143977,-0.677644 z"
     style="clip-rule:evenodd;fill:#d08c59;fill-rule:nonzero;stroke-width:0.352023;stroke-linecap:square;stroke-linejoin:round;stroke-miterlimit:1.5"
     id="path69" /><path
     d="M 6.8424531,44.685272 H 8.617002 L 8.567367,44.912679 H 6.7931701 Z"
     style="clip-rule:evenodd;fill:#d08c59;fill-rule:nonzero;stroke-width:0.352023;stroke-linecap:square;stroke-linejoin:round;stroke-miterlimit:1.5"
     id="path70" /><g
     id="g2"
     transform="matrix(0.3520232,0,0,0.3520232,19.107643,9.5606593)"
     style="clip-rule:evenodd;fill-rule:evenodd;stroke-linecap:square;stroke-linejoin:round;stroke-miterlimit:1.5">
            <path
   id="path1"
   serif:id="path40"
   d="M 44.843,92.605 42.539,92.03 43.112,89.722"
   style="fill:none;stroke:#d08c59;stroke-width:0.7px;stroke-linecap:butt;stroke-linejoin:miter;stroke-miterlimit:10" />
            <path
   id="path2"
   serif:id="path41"
   d="M 18.355,91.132 C 13.01,87.25 9.539,80.994 9.539,73.942 c 0,-11.767 9.668,-21.32 21.577,-21.32 11.909,0 21.578,9.553 21.578,21.32 0,6.065 -2.569,11.542 -6.689,15.426 -1.059,0.998 -2.22,1.892 -3.466,2.662"
   style="fill:none;stroke:#d08c59;stroke-width:0.7px;stroke-linecap:butt" />
        </g><path
     d="M 30.061197,35.566407 V 57.414034"
     style="clip-rule:evenodd;fill:none;fill-rule:evenodd;stroke:#d08c59;stroke-width:0.352777;stroke-linecap:square;stroke-linejoin:round;stroke-miterlimit:1.5;stroke-dasharray:none"
     id="path3" /><path
     d="m 32.363781,44.997517 0.05421,-0.259793 h 0.674476 l 0.145385,-0.679053 h 0.26437 l -0.145386,0.679053 h 0.674477 l -0.05421,0.259793 h -0.674476 l -0.143626,0.677644 H 32.89428 l 0.143977,-0.677644 z"
     style="clip-rule:evenodd;fill:#d08c59;fill-rule:nonzero;stroke-width:0.352023;stroke-linecap:square;stroke-linejoin:round;stroke-miterlimit:1.5"
     id="path4" /><path
     d="m 26.64974,44.685272 h 1.774549 l -0.04963,0.227407 h -1.774202 z"
     style="clip-rule:evenodd;fill:#d08c59;fill-rule:nonzero;stroke-width:0.352023;stroke-linecap:square;stroke-linejoin:round;stroke-miterlimit:1.5"
     id="path5" /><path
     d="m 25.446721,41.6405 -1.055717,1.490818"
     style="clip-rule:evenodd;fill:none;fill-rule:evenodd;stroke:#d08c59;stroke-width:0.264017px;stroke-linecap:square;stroke-linejoin:round;stroke-miterlimit:1.5"
     id="path6" /></svg>
