<?xml version="1.0" encoding="UTF-8" standalone="no"?>
<!-- Created with Inkscape (http://www.inkscape.org/) -->

<svg
   width="50.799999mm"
   height="128.5mm"
   viewBox="0 0 50.800003 128.50002"
   version="1.1"
   id="svg8"
   inkscape:version="1.2 (dc2aeda, 2022-05-15)"
   sodipodi:docname="Count-dark.svg"
   xml:space="preserve"
   xmlns:inkscape="http://www.inkscape.org/namespaces/inkscape"
   xmlns:sodipodi="http://sodipodi.sourceforge.net/DTD/sodipodi-0.dtd"
   xmlns="http://www.w3.org/2000/svg"
   xmlns:svg="http://www.w3.org/2000/svg"
   xmlns:rdf="http://www.w3.org/1999/02/22-rdf-syntax-ns#"
   xmlns:cc="http://creativecommons.org/ns#"
   xmlns:dc="http://purl.org/dc/elements/1.1/"
   xmlns:serif="http://www.serif.com/"><defs
     id="defs2"><linearGradient
       id="_Linear1"
       x1="0"
       y1="0"
       x2="1"
       y2="-0.0028738601"
       gradientUnits="userSpaceOnUse"
       gradientTransform="matrix(75.07254,292.27101,-293.02254,74.879903,36.973994,42.144002)"><stop
         offset="0"
         style="stop-color:#e6e6e6;stop-opacity:1"
         id="stop1" /><stop
         offset="1"
         style="stop-color:#e6e6e6;stop-opacity:0"
         id="stop2" /></linearGradient></defs><sodipodi:namedview
     id="base"
     pagecolor="#ffffff"
     bordercolor="#666666"
     borderopacity="1.0"
     inkscape:pageopacity="0.0"
     inkscape:pageshadow="2"
     inkscape:zoom="1.0688014"
     inkscape:cx="76.721458"
     inkscape:cy="210.5162"
     inkscape:document-units="mm"
     inkscape:current-layer="Layer-1"
     showgrid="false"
     units="mm"
     inkscape:snap-bbox="true"
     inkscape:snap-page="true"
     inkscape:bbox-nodes="false"
     inkscape:snap-bbox-edge-midpoints="false"
     inkscape:window-width="1392"
     inkscape:window-height="916"
     inkscape:window-x="36"
     inkscape:window-y="38"
     inkscape:window-maximized="0"
     inkscape:snap-bbox-midpoints="true"
     inkscape:snap-nodes="false"
     inkscape:showpageshadow="2"
     inkscape:pagecheckerboard="0"
     inkscape:deskcolor="#d1d1d1"
     showguides="true" /><metadata
     id="metadata5"><rdf:RDF><cc:Work
         rdf:about=""><dc:format>image/svg+xml</dc:format><dc:type
           rdf:resource="http://purl.org/dc/dcmitype/StillImage" /></cc:Work></rdf:RDF></metadata><g
     id="Layer-1"
     serif:id="Layer 1"
     style="clip-rule:evenodd;fill-rule:evenodd;stroke-linejoin:round;stroke-miterlimit:1.5"
     transform="matrix(0.35618918,0,0,0.35618918,-0.39015967,-0.81904413)"><rect
       id="rect1"
       x="0.52905142"
       y="0.79500002"
       width="143.75348"
       height="364.815"
       style="fill:#212121;stroke-width:0.999998;fill-opacity:1" /><path
       id="path2101"
       d="M 28.511225,164.91395 H 116.30036"
       style="clip-rule:evenodd;display:inline;fill:none;fill-rule:evenodd;stroke:#d08c58;stroke-width:0.990418;stroke-linecap:round;stroke-linejoin:round;stroke-miterlimit:1.5;stroke-dasharray:none;stroke-opacity:1" /><g
       id="g3"
       transform="translate(-1.5477091)"
       style="fill:#ffffff"><path
         id="path128"
         d="m 65.011,354.825 c 0.168,0.356 0.223,0.713 0.164,1.073 h -1.177 c -0.018,-0.276 -0.072,-0.484 -0.164,-0.624 -0.161,-0.25 -0.452,-0.375 -0.872,-0.375 -0.428,0 -0.803,0.176 -1.123,0.529 -0.321,0.352 -0.548,0.85 -0.682,1.495 -0.135,0.645 -0.106,1.127 0.089,1.449 0.194,0.321 0.492,0.481 0.894,0.481 0.413,0 0.757,-0.138 1.032,-0.414 0.151,-0.147 0.296,-0.37 0.436,-0.666 h 1.166 c -0.232,0.627 -0.599,1.136 -1.099,1.529 -0.501,0.391 -1.079,0.588 -1.734,0.588 -0.81,0 -1.392,-0.265 -1.746,-0.795 -0.352,-0.533 -0.43,-1.263 -0.237,-2.192 0.208,-1.003 0.633,-1.777 1.273,-2.32 0.558,-0.473 1.191,-0.71 1.899,-0.71 0.948,0 1.574,0.318 1.881,0.952 z"
         style="fill:#ffffff;fill-rule:nonzero" /><path
         id="path129"
         d="m 67.617,358.347 2.145,-4.364 h 1.223 l -3.119,5.746 h -1.112 l -0.708,-5.746 h 1.259 z"
         style="fill:#ffffff;fill-rule:nonzero" /><path
         id="path130"
         d="m 75.43,355.519 -0.165,0.784 h -0.713 l -0.712,3.426 h -1.085 l 0.712,-3.426 h -0.609 l 0.164,-0.784 h 0.597 l 0.056,-0.273 c 0.096,-0.455 0.236,-0.768 0.421,-0.94 0.212,-0.254 0.619,-0.382 1.223,-0.382 0.069,0 0.131,0.002 0.186,0.006 0.055,0.004 0.131,0.01 0.228,0.017 l -0.191,0.906 c -0.059,-0.008 -0.16,-0.014 -0.302,-0.018 -0.143,-0.004 -0.25,0.028 -0.32,0.097 -0.07,0.069 -0.112,0.145 -0.128,0.228 -0.018,0.084 -0.043,0.203 -0.077,0.359 z"
         style="fill:#ffffff;fill-rule:nonzero" /><path
         id="path131"
         d="m 77.976,359.13 c -0.012,0.013 -0.046,0.052 -0.1,0.117 -0.053,0.065 -0.113,0.121 -0.179,0.171 -0.204,0.156 -0.392,0.262 -0.564,0.319 -0.171,0.057 -0.364,0.086 -0.579,0.086 -0.616,0 -0.985,-0.225 -1.104,-0.678 -0.067,-0.249 -0.049,-0.617 0.053,-1.103 l 0.532,-2.562 h 1.115 l -0.531,2.562 c -0.051,0.242 -0.061,0.423 -0.031,0.546 0.054,0.216 0.226,0.324 0.516,0.324 0.372,0 0.659,-0.154 0.861,-0.461 0.107,-0.166 0.189,-0.386 0.245,-0.658 l 0.481,-2.313 h 1.104 l -0.883,4.249 h -1.058 z"
         style="fill:#ffffff;fill-rule:nonzero" /><path
         id="path132"
         d="m 83.159,357.146 c 0.048,-0.224 0.055,-0.396 0.019,-0.515 -0.061,-0.219 -0.241,-0.328 -0.542,-0.328 -0.37,0 -0.657,0.16 -0.86,0.479 -0.108,0.17 -0.188,0.386 -0.241,0.648 l -0.478,2.299 h -1.085 l 0.882,-4.242 h 1.052 l -0.13,0.62 c 0.185,-0.217 0.351,-0.375 0.497,-0.471 0.259,-0.172 0.562,-0.257 0.905,-0.257 0.431,0 0.759,0.114 0.985,0.345 0.225,0.23 0.283,0.611 0.173,1.144 l -0.596,2.861 h -1.116 z"
         style="fill:#ffffff;fill-rule:nonzero" /><path
         id="path133"
         d="m 86.079,358.394 -0.274,1.335 h -1.071 l 1.193,-5.727 h 1.07 l -0.647,3.097 1.69,-1.6 h 1.35 l -1.797,1.627 0.974,2.603 h -1.315 l -0.618,-1.816 z"
         style="fill:#ffffff;fill-rule:nonzero" /><path
         id="path134"
         d="M 38.954,356.882 H 57.546"
         style="fill:none;stroke:#d08c58;stroke-width:0.64px;stroke-linecap:round;stroke-opacity:1" /><path
         id="path135"
         d="m 90.361,356.882 h 18.592"
         style="fill:none;stroke:#d08c58;stroke-width:0.64px;stroke-linecap:round;stroke-opacity:1" /></g><path
       d="m 56.257323,7.6498806 h 1.980837 l 2.042739,9.5095664 1.849297,-9.5095664 h 1.508841 L 61.387382,19.202186 H 59.406545 L 57.363806,9.6926193 55.506771,19.202186 H 54.005668 Z M 67.47691,18.157604 q 0.6577,0 1.21481,-0.39462 0.557111,-0.39462 0.92078,-1.129696 0.572586,-1.121959 0.928518,-2.715914 0.355932,-1.593955 0.355932,-3.064108 0,-1.0987457 -0.410096,-1.6171677 -0.402357,-0.52616 -1.253498,-0.52616 -0.6577,0 -1.207073,0.39462 -0.549373,0.39462 -0.913043,1.1296957 -0.588061,1.137434 -0.943992,2.715914 -0.355932,1.57848 -0.355932,3.048633 0,1.106483 0.402358,1.632643 0.410095,0.52616 1.261236,0.52616 z m 5.021732,-6.847817 q 0,0.851141 -0.177966,1.849297 -0.170228,0.998157 -0.502947,2.050477 -0.224391,0.711863 -0.487471,1.276711 -0.255343,0.564848 -0.557111,1.02137 -0.680913,0.982681 -1.524316,1.454677 -0.843404,0.464259 -1.965362,0.464259 -1.555267,0 -2.305819,-0.951731 -0.750552,-0.95173 -0.750552,-2.932568 0,-0.858878 0.162491,-1.841559 0.170228,-0.990419 0.502947,-2.042739 0.224392,-0.711864 0.479734,-1.276712 0.26308,-0.5648477 0.564848,-1.0213687 0.680913,-0.9826807 1.524317,-1.4469397 0.843403,-0.471996 1.965362,-0.471996 1.563004,0 2.313556,0.95173 0.758289,0.9439927 0.758289,2.9170924 z m 2.839716,-3.6599064 h 1.980838 l 2.042739,9.5095664 1.849297,-9.5095664 h 1.508841 L 80.468418,19.202186 H 78.48758 L 76.444842,9.6926193 74.587807,19.202186 h -1.501104 z m 13.022459,1.2999247 -2.816503,5.9889377 h 3.327188 z M 87.618003,7.6498806 h 1.903461 l 1.284449,11.5523054 h -1.555267 l -0.270817,-3.009944 h -4.023576 l -1.423727,3.009944 h -1.67907 z"
       id="text1"
       style="font-style:italic;font-size:15.8467px;font-family:Menlo;-inkscape-font-specification:'Menlo Italic';display:none;fill:#ffffff;stroke-width:0.742817"
       aria-label="NONA" /><path
       d="m 47.026311,19.212257 q 1.431464,0 2.298081,-0.479734 0.866616,-0.487472 1.392776,-1.57848 0.417833,-0.88983 0.680913,-2.120115 0.270818,-1.238024 0.270818,-2.267131 0,-1.361826 -0.634487,-1.949887 -0.634487,-0.588061 -2.127853,-0.588061 h -0.882092 l -1.748708,8.983408 z M 49.053574,8.9444003 q 2.112378,0 3.15696,0.959468 1.05232,0.9594677 1.05232,2.9093547 0,1.253499 -0.324981,2.584374 -0.324982,1.330875 -0.874354,2.359982 -0.804716,1.477891 -2.011788,2.112378 -1.199336,0.626749 -3.249812,0.626749 H 44.457412 L 46.709067,8.9444003 Z m 7.668008,0 h 6.847817 L 63.314056,10.2598 h -5.29255 l -0.665437,3.42004 h 5.052683 l -0.247605,1.315399 h -5.060421 l -0.804715,4.186067 h 5.431828 l -0.255343,1.3154 h -7.00257 z M 70.904687,20.086611 q -0.649962,0.317243 -1.3154,0.471996 -0.6577,0.162491 -1.361825,0.162491 -1.779659,0 -2.76234,-1.029107 -0.974944,-1.029107 -0.974944,-2.886142 0,-1.702283 0.541636,-3.373614 0.541635,-1.671332 1.423727,-2.731389 0.827928,-1.0058937 1.826084,-1.4856277 0.998156,-0.479735 2.274868,-0.479735 0.619012,0 1.230286,0.162491 0.611274,0.162491 1.191597,0.471996 l -0.317243,1.6016927 q -0.495209,-0.487471 -1.044582,-0.727338 -0.549373,-0.239868 -1.168385,-0.239868 -0.735076,0 -1.361826,0.317244 -0.626749,0.309506 -1.176122,0.951731 -0.804715,0.95173 -1.299925,2.437358 -0.487471,1.485628 -0.487471,2.978994 0,1.338613 0.603536,2.050476 0.603537,0.711864 1.740971,0.711864 0.657699,0 1.354088,-0.247605 0.704125,-0.247605 1.385038,-0.719601 z M 75.818092,8.9444003 h 6.422247 L 81.984997,10.2598 h -2.429621 l -1.725496,8.921506 h 2.429621 l -0.255342,1.3154 h -6.422246 l 0.255342,-1.3154 h 2.421883 L 77.992371,10.2598 H 75.56275 Z m 8.635214,0 h 2.081427 l 0.851141,5.8496607 3.203385,-5.8496607 h 2.089165 L 90.426769,20.496706 h -1.439203 l 1.996313,-10.267857 -3.358138,6.151429 h -1.091008 l -0.88983,-6.151429 -1.980837,10.267857 H 82.224863 Z M 97.90907,10.244325 95.092571,16.233263 H 98.41976 Z M 97.16626,8.9444003 h 1.90346 l 1.28445,11.5523057 H 98.7989 l -0.27081,-3.009944 h -4.02358 l -1.423727,3.009944 h -1.679069 z"
       id="text2"
       style="font-style:italic;font-size:15.8467px;font-family:Menlo;-inkscape-font-specification:'Menlo Italic';display:none;fill:#ffffff;stroke-width:0.742817"
       aria-label="DECIMA"
       inkscape:label="text2" /><path
       style="clip-rule:evenodd;fill:#d08c58;fill-opacity:1;fill-rule:evenodd;stroke:#d08c58;stroke-width:0.990422;stroke-linecap:square;stroke-linejoin:round;stroke-miterlimit:1.5;stroke-dasharray:none;stroke-opacity:1;paint-order:fill markers stroke"
       d="m 65.460135,132.88444 h 13.891324 c -7.12464,3.873 -6.41546,15.19693 -6.98735,27.92175 -0.24837,-12.74213 -0.23462,-24.00966 -6.903974,-27.92175 z"
       id="path1891"
       sodipodi:nodetypes="cccc" /><path
       style="clip-rule:evenodd;fill:#d08c58;fill-opacity:1;fill-rule:evenodd;stroke:#d08c58;stroke-width:0.990422;stroke-linecap:square;stroke-linejoin:round;stroke-miterlimit:1.5;stroke-dasharray:none;stroke-opacity:1;paint-order:fill markers stroke"
       d="m 65.460135,137.34135 h 13.891324 c -7.12464,3.87299 -6.41546,15.19691 -6.98735,27.92174 -0.24837,-12.74214 -0.23462,-24.00966 -6.903974,-27.92174 z"
       id="path2719"
       sodipodi:nodetypes="cccc" /><rect
       style="display:inline;fill:#3b3b3b;fill-opacity:1;stroke:#d08c58;stroke-width:0.990422;stroke-dasharray:none;stroke-opacity:1"
       id="rect20577"
       width="76.163681"
       height="42.681576"
       x="55.45583"
       y="148.77623"
       rx="8.4224901"
       ry="8.4224901"
       inkscape:transform-center-x="-58.663914"
       inkscape:transform-center-y="-15.747271" /><circle
       style="fill:#212121;fill-opacity:1;stroke:#d08c58;stroke-width:0.99042;stroke-linejoin:round;stroke-dasharray:none;stroke-opacity:1"
       id="path2"
       cx="72.405792"
       cy="78.955902"
       r="53.178928" /><g
       aria-label="COUNT"
       id="text1344"
       style="font-style:italic;font-size:15.8467px;font-family:Menlo;-inkscape-font-specification:'Menlo Italic';text-align:center;text-anchor:middle;fill:#ffffff;stroke:#000000;stroke-width:0.99042;stroke-linecap:round;paint-order:fill markers stroke"><path
         d="m 55.027041,19.025209 q -0.649963,0.317244 -1.3154,0.471997 -0.6577,0.16249 -1.361826,0.16249 -1.779659,0 -2.76234,-1.029107 -0.974943,-1.029107 -0.974943,-2.886142 0,-1.702282 0.541635,-3.373613 0.541635,-1.671332 1.423727,-2.7313896 0.827928,-1.0058941 1.826085,-1.4856281 0.998156,-0.4797341 2.274868,-0.4797341 0.619011,0 1.230285,0.1624906 0.611275,0.1624905 1.191598,0.4719964 L 56.783487,9.910262 q -0.49521,-0.4874717 -1.044583,-0.7273388 -0.549373,-0.239867 -1.168384,-0.239867 -0.735077,0 -1.361826,0.3172435 -0.626749,0.3095059 -1.176122,0.9517303 -0.804716,0.951731 -1.299925,2.437359 -0.487472,1.485628 -0.487472,2.978994 0,1.338612 0.603537,2.050476 0.603536,0.711863 1.74097,0.711863 0.6577,0 1.354088,-0.247604 0.704126,-0.247605 1.385039,-0.719601 z"
         style="fill:#ffffff;stroke:none;stroke-width:0.990423"
         id="path2288" /><path
         d="m 61.147519,18.390722 q 0.6577,0 1.21481,-0.39462 0.557111,-0.39462 0.92078,-1.129696 0.572586,-1.121959 0.928518,-2.715914 0.355932,-1.593955 0.355932,-3.064108 0,-1.0987455 -0.410096,-1.6171679 -0.402357,-0.5261599 -1.253498,-0.5261599 -0.6577,0 -1.207073,0.39462 -0.549373,0.3946199 -0.913042,1.1296968 -0.588062,1.137434 -0.943993,2.715913 -0.355932,1.57848 -0.355932,3.048633 0,1.106483 0.402358,1.632643 0.410095,0.52616 1.261236,0.52616 z m 5.021732,-6.847817 q 0,0.851141 -0.177965,1.849298 -0.170229,0.998156 -0.502947,2.050476 -0.224392,0.711864 -0.487472,1.276712 -0.255343,0.564848 -0.557111,1.021369 -0.680913,0.982681 -1.524316,1.454678 -0.843404,0.464258 -1.965362,0.464258 -1.555267,0 -2.305819,-0.95173 -0.750552,-0.951731 -0.750552,-2.932568 0,-0.858879 0.162491,-1.84156 0.170228,-0.990419 0.502947,-2.042739 0.224392,-0.711863 0.479734,-1.276711 0.26308,-0.564848 0.564848,-1.0213695 0.680913,-0.9826811 1.524317,-1.4469399 0.843403,-0.4719964 1.965362,-0.4719964 1.563004,0 2.313556,0.9517305 0.758289,0.9439929 0.758289,2.9170923 z"
         style="fill:#ffffff;stroke:none;stroke-width:0.990423"
         id="path2290" /><path
         d="m 67.693568,15.001633 1.377301,-7.1186344 h 1.570742 l -1.385039,7.1186344 q -0.01548,0.10059 -0.0619,0.317244 -0.232129,1.191597 -0.232129,1.648118 0,0.711864 0.417832,1.067796 0.425571,0.355931 1.276712,0.355931 0.688651,0 1.168385,-0.216654 0.479734,-0.224391 0.827928,-0.704126 0.170228,-0.239867 0.340456,-0.82019 0.177966,-0.588061 0.386883,-1.648119 l 1.377301,-7.1186344 h 1.570742 L 74.95148,15.001633 q -0.324981,1.694545 -0.696388,2.491522 -0.36367,0.78924 -0.967206,1.276712 -0.549373,0.433308 -1.253499,0.665438 -0.704126,0.224391 -1.524316,0.224391 -1.485628,0 -2.290343,-0.696388 -0.796978,-0.696388 -0.796978,-1.980837 0,-0.286293 0.0619,-0.773765 0.06964,-0.487472 0.208917,-1.207073 z"
         style="fill:#ffffff;stroke:none;stroke-width:0.990423"
         id="path2292" /><path
         d="m 78.549485,7.8829986 h 1.980838 l 2.042738,9.5095674 1.849298,-9.5095674 H 85.9312 L 83.679545,19.435305 H 81.698707 L 79.655969,9.9257373 77.798934,19.435305 H 76.29783 Z"
         style="fill:#ffffff;stroke:none;stroke-width:0.990423"
         id="path2294" /><path
         d="m 87.37814,7.8829986 h 8.820916 L 95.943714,9.1983985 H 92.314758 L 90.333921,19.435305 h -1.57848 L 90.751753,9.1983985 h -3.628956 z"
         style="fill:#ffffff;stroke:none;stroke-width:0.990423"
         id="path2296" /></g><g
       aria-label="UP"
       id="text1993"
       style="font-style:italic;font-size:8.9138px;font-family:Menlo;-inkscape-font-specification:'Menlo Italic';text-align:center;text-anchor:middle;fill:#ffffff;stroke-width:0.99042;stroke-linecap:round;paint-order:fill markers stroke"
       transform="translate(-1.8412492,18.668597)"><path
         d="m 110.20933,234.35192 0.77474,-4.00424 h 0.88354 l -0.77908,4.00424 q -0.009,0.0566 -0.0348,0.17845 -0.13058,0.67028 -0.13058,0.92707 0,0.40043 0.23504,0.60064 0.23938,0.20021 0.71815,0.20021 0.38737,0 0.65722,-0.12187 0.26985,-0.12622 0.46571,-0.39607 0.0957,-0.13492 0.19151,-0.46136 0.1001,-0.33078 0.21762,-0.92707 l 0.77473,-4.00424 h 0.88355 l -0.77474,4.00424 q -0.1828,0.95319 -0.39172,1.40149 -0.20456,0.44395 -0.54405,0.71815 -0.30902,0.24374 -0.7051,0.37431 -0.39607,0.12622 -0.85743,0.12622 -0.83567,0 -1.28832,-0.39172 -0.4483,-0.39172 -0.4483,-1.11422 0,-0.16104 0.0348,-0.43525 0.0392,-0.2742 0.11751,-0.67898 z"
         style="fill:#ffffff;stroke-width:0.990423"
         id="path2191" /><path
         d="m 117.30381,231.07018 -0.47441,2.44172 h 1.01847 q 0.71815,0 1.14469,-0.41348 0.43089,-0.41784 0.43089,-1.10987 0,-0.47007 -0.26985,-0.69204 -0.26985,-0.22633 -0.83567,-0.22633 z m -0.73991,-0.7225 h 1.91507 q 0.89661,0 1.36667,0.40042 0.47006,0.40043 0.47006,1.15775 0,1.08376 -0.69639,1.70616 -0.69639,0.6224 -1.91507,0.6224 h -1.01412 l -0.50924,2.61146 h -0.88354 z"
         style="fill:#ffffff;stroke-width:0.990423"
         id="path2193" /></g><g
       aria-label="DOWN"
       id="text1997"
       style="font-style:italic;font-size:8.9138px;font-family:Menlo;-inkscape-font-specification:'Menlo Italic';text-align:center;text-anchor:middle;fill:#ffffff;stroke-width:0.99042;stroke-linecap:round;paint-order:fill markers stroke"
       transform="translate(2.0236804,18.668597)"><path
         d="m 20.267442,236.12337 q 0.805202,0 1.292675,-0.26986 0.487474,-0.2742 0.78344,-0.88789 0.235032,-0.50053 0.383015,-1.19257 0.152335,-0.69639 0.152335,-1.27527 0,-0.76603 -0.3569,-1.09681 -0.3569,-0.33079 -1.196921,-0.33079 h -0.496179 l -0.983651,5.05319 z m 1.14034,-5.77569 q 1.188217,0 1.775796,0.5397 0.591932,0.5397 0.591932,1.63652 0,0.70509 -0.182802,1.45371 -0.182803,0.74862 -0.491826,1.3275 -0.452654,0.83131 -1.131635,1.18821 -0.674628,0.35255 -1.828025,0.35255 h -1.31879 l 1.26656,-6.49819 z"
         style="fill:#ffffff;stroke-width:0.990423"
         id="path2241" /><path
         d="m 26.408737,236.25829 q 0.369958,0 0.683334,-0.22197 0.313376,-0.22198 0.51794,-0.63546 0.322081,-0.6311 0.522293,-1.52771 0.200213,-0.8966 0.200213,-1.72356 0,-0.61805 -0.23068,-0.90966 -0.226327,-0.29597 -0.705095,-0.29597 -0.369958,0 -0.678981,0.22197 -0.309024,0.22198 -0.513588,0.63546 -0.330786,0.63981 -0.530998,1.52771 -0.200213,0.8879 -0.200213,1.71486 0,0.6224 0.226327,0.91837 0.23068,0.29596 0.709448,0.29596 z m 2.824735,-3.85191 q 0,0.47877 -0.100106,1.04023 -0.09575,0.56147 -0.282909,1.1534 -0.126221,0.40043 -0.274204,0.71815 -0.14363,0.31773 -0.313376,0.57453 -0.383014,0.55276 -0.85743,0.81826 -0.474417,0.26114 -1.105521,0.26114 -0.87484,0 -1.297027,-0.53535 -0.422187,-0.53535 -0.422187,-1.64957 0,-0.48312 0.0914,-1.03588 0.09575,-0.55712 0.282909,-1.14905 0.126221,-0.40042 0.269851,-0.71815 0.147983,-0.31773 0.317729,-0.57452 0.383014,-0.55276 0.857431,-0.81391 0.474416,-0.2655 1.10552,-0.2655 0.879193,0 1.30138,0.53535 0.426539,0.531 0.426539,1.64087 z"
         style="fill:#ffffff;stroke-width:0.990423"
         id="path2243" /><path
         d="m 30.221476,230.34768 h 0.831317 l -0.39172,5.26645 1.431953,-3.48195 h 0.918365 l 0.06529,3.49065 1.64087,-5.27515 h 0.861784 l -2.219745,6.49819 h -0.844374 l -0.134926,-3.78662 -1.614756,3.78662 h -0.818259 z"
         style="fill:#ffffff;stroke-width:0.990423"
         id="path2245" /><path
         d="m 36.197379,230.34768 h 1.114225 l 1.149045,5.34915 1.040233,-5.34915 h 0.848726 l -1.26656,6.49819 h -1.114225 l -1.149045,-5.34915 -1.044586,5.34915 h -0.844374 z"
         style="fill:#ffffff;stroke-width:0.990423"
         id="path2247" /></g><g
       aria-label="RESET"
       id="text2001"
       style="font-style:italic;font-size:8.9138px;font-family:Menlo;-inkscape-font-specification:'Menlo Italic';text-align:center;text-anchor:middle;fill:#ffffff;stroke-width:0.99042;stroke-linecap:round;paint-order:fill markers stroke"
       transform="translate(0,18.668597)"><path
         d="m 61.902936,233.7774 q 0.313376,0.0609 0.500531,0.29161 0.191507,0.23068 0.426539,1.00106 l 0.526646,1.7758 H 62.481811 L 62.020452,235.205 q -0.191507,-0.67898 -0.430892,-0.89225 -0.235032,-0.21327 -0.7138,-0.21327 h -0.835669 l -0.53535,2.74639 h -0.883546 l 1.257856,-6.49819 h 1.810615 q 0.900956,0 1.392782,0.39172 0.496178,0.38736 0.496178,1.09681 0,0.7965 -0.452654,1.31879 -0.448301,0.52229 -1.223036,0.6224 z m -1.275265,-2.70722 -0.443949,2.3068 h 0.953184 q 0.709448,0 1.131635,-0.36996 0.426539,-0.37431 0.426539,-0.99236 0,-0.48747 -0.274203,-0.7138 -0.274204,-0.23068 -0.866136,-0.23068 z"
         style="fill:#ffffff;stroke-width:0.990423"
         id="path2230" /><path
         d="m 65.432766,230.34768 h 3.851911 l -0.143631,0.73991 h -2.97707 l -0.37431,1.92378 h 2.842145 l -0.139278,0.73992 h -2.846497 l -0.452654,2.35467 h 3.055414 l -0.143631,0.73991 h -3.938959 z"
         style="fill:#ffffff;stroke-width:0.990423"
         id="path2232" /><path
         d="m 74.294337,230.56965 -0.169745,0.89225 q -0.352548,-0.25679 -0.73121,-0.38737 -0.378663,-0.13057 -0.78344,-0.13057 -0.718153,0 -1.170806,0.3569 -0.452654,0.3569 -0.452654,0.90966 0,0.30902 0.213269,0.50053 0.21327,0.19151 0.774735,0.36561 l 0.526645,0.16974 q 0.709448,0.21762 1.035881,0.58323 0.330786,0.36125 0.330786,0.92272 0,1.02282 -0.722505,1.62346 -0.722506,0.59628 -1.971656,0.59628 -0.452654,0 -0.892251,-0.1001 -0.435244,-0.0958 -0.870488,-0.29162 l 0.17845,-0.90966 q 0.426539,0.30032 0.861783,0.44395 0.439597,0.14363 0.92707,0.14363 0.718153,0 1.166455,-0.38301 0.448301,-0.38302 0.448301,-0.9706 0,-0.3569 -0.191507,-0.55276 -0.191508,-0.19586 -0.770382,-0.37431 l -0.439597,-0.14363 q -0.800849,-0.25244 -1.12293,-0.57017 -0.317728,-0.32208 -0.317728,-0.84872 0,-0.96189 0.718153,-1.57124 0.718153,-0.61369 1.875902,-0.61369 0.348195,0 0.739915,0.087 0.396072,0.0871 0.809554,0.25244 z"
         style="fill:#ffffff;stroke-width:0.990423"
         id="path2234" /><path
         d="m 76.165888,230.34768 h 3.85191 l -0.14363,0.73991 h -2.97707 l -0.37431,1.92378 h 2.842144 l -0.139278,0.73992 h -2.846497 l -0.452654,2.35467 h 3.055414 l -0.14363,0.73991 h -3.93896 z"
         style="fill:#ffffff;stroke-width:0.990423"
         id="path2236" /><path
         d="m 80.875229,230.34768 h 4.961783 l -0.14363,0.73991 h -2.041295 l -1.114225,5.75828 h -0.887899 l 1.12293,-5.75828 h -2.041295 z"
         style="fill:#ffffff;stroke-width:0.990423"
         id="path2238" /></g><g
       aria-label="GATE"
       id="text2005"
       style="font-style:italic;font-size:8.9138px;font-family:Menlo;-inkscape-font-specification:'Menlo Italic';text-align:center;text-anchor:middle;fill:#ffffff;stroke-width:0.99042;stroke-linecap:round;paint-order:fill markers stroke"
       transform="translate(-43.375739,36.235634)"><path
         d="m 109.25476,149.26617 q -0.37866,0.26985 -0.82697,0.40913 -0.4483,0.13493 -0.95753,0.13493 -1.00977,0 -1.55382,-0.58323 -0.53971,-0.58758 -0.53971,-1.67134 0,-0.39172 0.0696,-0.83131 0.074,-0.44395 0.21327,-0.92707 0.15234,-0.50924 0.3569,-0.91837 0.20457,-0.41348 0.4483,-0.7051 0.46571,-0.56581 1.02718,-0.83566 0.56582,-0.26986 1.28832,-0.26986 0.3482,0 0.69204,0.0914 0.3482,0.0914 0.68333,0.26549 l -0.17845,0.90096 q -0.28291,-0.2742 -0.59628,-0.40913 -0.30902,-0.13492 -0.66157,-0.13492 -0.42654,0 -0.80085,0.1828 -0.37431,0.17845 -0.67028,0.531 -0.19151,0.22632 -0.36125,0.56581 -0.16975,0.33949 -0.30032,0.76168 -0.14798,0.49618 -0.22633,0.93142 -0.074,0.43525 -0.074,0.78779 0,0.74427 0.34385,1.14905 0.34384,0.40478 0.97494,0.40478 0.29597,0 0.531,-0.0784 0.23503,-0.0827 0.39607,-0.23503 l 0.33079,-1.71051 h -0.94448 l 0.13057,-0.7225 h 1.7845 z"
         style="fill:#ffffff;stroke-width:0.990423"
         id="path2268" /><path
         d="m 113.60285,143.91702 -1.58429,3.36879 h 1.87155 z m -0.41784,-0.73121 h 1.0707 l 0.72251,6.4982 h -0.87484 l -0.15234,-1.6931 h -2.26327 l -0.80085,1.6931 h -0.94448 z"
         style="fill:#ffffff;stroke-width:0.990423"
         id="path2270" /><path
         d="m 116.61038,143.18581 h 4.96179 l -0.14363,0.73992 h -2.0413 l -1.11422,5.75828 h -0.8879 l 1.12293,-5.75828 h -2.0413 z"
         style="fill:#ffffff;stroke-width:0.990423"
         id="path2272" /><path
         d="m 122.63416,143.18581 h 3.85191 l -0.14363,0.73992 h -2.97707 l -0.37431,1.92377 h 2.84215 l -0.13928,0.73992 h -2.8465 l -0.45265,2.35467 h 3.05541 l -0.14363,0.73992 h -3.93896 z"
         style="fill:#ffffff;stroke-width:0.990423"
         id="path2274" /></g><g
       aria-label="PHASE"
       id="text2009"
       style="font-style:italic;font-size:8.9138px;font-family:Menlo;-inkscape-font-specification:'Menlo Italic';text-align:center;text-anchor:middle;fill:#ffffff;stroke-width:0.99042;stroke-linecap:round;paint-order:fill markers stroke"
       transform="translate(-2.5275341,1.4856337)"><path
         d="m 104.58241,178.65832 -0.47441,2.44172 h 1.01847 q 0.71815,0 1.14469,-0.41349 0.43089,-0.41783 0.43089,-1.10987 0,-0.47006 -0.26985,-0.69204 -0.26985,-0.22632 -0.83567,-0.22632 z m -0.73991,-0.72251 h 1.91507 q 0.8966,0 1.36667,0.40043 0.47006,0.40042 0.47006,1.15774 0,1.08376 -0.69639,1.70616 -0.69639,0.6224 -1.91507,0.6224 h -1.01412 l -0.50924,2.61147 h -0.88354 z"
         style="fill:#ffffff;stroke-width:0.990423"
         id="path2277" /><path
         d="m 108.95226,177.93581 h 0.8792 l -0.51359,2.66369 h 2.4069 l 0.51359,-2.66369 h 0.88354 l -1.26656,6.4982 h -0.87919 l 0.60499,-3.09459 h -2.41561 l -0.59628,3.09459 h -0.88355 z"
         style="fill:#ffffff;stroke-width:0.990423"
         id="path2279" /><path
         d="m 116.28613,178.66702 -1.58429,3.36879 h 1.87155 z m -0.41784,-0.73121 h 1.0707 l 0.72251,6.4982 h -0.87484 l -0.15234,-1.6931 h -2.26327 l -0.80085,1.6931 h -0.94448 z"
         style="fill:#ffffff;stroke-width:0.990423"
         id="path2281" /><path
         d="m 123.44589,178.15779 -0.16974,0.89225 q -0.35255,-0.2568 -0.73121,-0.38737 -0.37866,-0.13057 -0.78344,-0.13057 -0.71815,0 -1.17081,0.3569 -0.45265,0.3569 -0.45265,0.90966 0,0.30902 0.21327,0.50053 0.21327,0.1915 0.77473,0.3656 l 0.52665,0.16975 q 0.70945,0.21762 1.03588,0.58322 0.33078,0.36126 0.33078,0.92272 0,1.02283 -0.7225,1.62346 -0.72251,0.59629 -1.97166,0.59629 -0.45265,0 -0.89225,-0.10011 -0.43524,-0.0957 -0.87049,-0.29161 l 0.17845,-0.90966 q 0.42654,0.30031 0.86179,0.44395 0.43959,0.14363 0.92707,0.14363 0.71815,0 1.16645,-0.38302 0.4483,-0.38301 0.4483,-0.97059 0,-0.3569 -0.1915,-0.55276 -0.19151,-0.19586 -0.77039,-0.37431 l -0.43959,-0.14363 q -0.80085,-0.25245 -1.12293,-0.57017 -0.31773,-0.32208 -0.31773,-0.84873 0,-0.96189 0.71815,-1.57123 0.71816,-0.6137 1.8759,-0.6137 0.3482,0 0.73992,0.0871 0.39607,0.0871 0.80955,0.25245 z"
         style="fill:#ffffff;stroke-width:0.990423"
         id="path2283" /><path
         d="m 125.31744,177.93581 h 3.85191 l -0.14363,0.73992 h -2.97707 l -0.37431,1.92377 h 2.84215 l -0.13928,0.73992 h -2.8465 l -0.45265,2.35467 h 3.05541 l -0.14363,0.73992 h -3.93896 z"
         style="fill:#ffffff;stroke-width:0.990423"
         id="path2285" /></g><g
       aria-label="LOOP"
       id="text2013"
       style="font-style:italic;font-size:8.9138px;font-family:Menlo;-inkscape-font-specification:'Menlo Italic';text-align:center;text-anchor:middle;fill:#ffffff;stroke-width:0.99042;stroke-linecap:round;paint-order:fill markers stroke"
       transform="translate(0.52269386,-1.4856337)"><path
         d="m 21.853302,143.18581 h 0.879193 l -1.12293,5.75828 h 3.13811 l -0.14363,0.73992 h -4.017304 z"
         style="fill:#ffffff;stroke-width:0.990423"
         id="path2259" /><path
         d="m 27.798737,149.09643 q 0.369957,0 0.683333,-0.22198 0.313376,-0.22197 0.517941,-0.63545 0.32208,-0.63111 0.522293,-1.52771 0.200212,-0.8966 0.200212,-1.72357 0,-0.61805 -0.230679,-0.90966 -0.226327,-0.29596 -0.705096,-0.29596 -0.369958,0 -0.678981,0.22197 -0.309023,0.22197 -0.513588,0.63546 -0.330786,0.6398 -0.530998,1.5277 -0.200212,0.8879 -0.200212,1.71486 0,0.6224 0.226327,0.91837 0.230679,0.29597 0.709448,0.29597 z m 2.824734,-3.85191 q 0,0.47876 -0.100106,1.04023 -0.09575,0.56146 -0.282909,1.1534 -0.12622,0.40042 -0.274203,0.71815 -0.143631,0.31773 -0.313376,0.57452 -0.383015,0.55276 -0.857431,0.81826 -0.474416,0.26115 -1.10552,0.26115 -0.874841,0 -1.297028,-0.53535 -0.422187,-0.53535 -0.422187,-1.64958 0,-0.48312 0.0914,-1.03588 0.09575,-0.55711 0.282908,-1.14904 0.126221,-0.40043 0.269852,-0.71816 0.147983,-0.31773 0.317728,-0.57452 0.383015,-0.55276 0.857431,-0.81391 0.474416,-0.2655 1.10552,-0.2655 0.879193,0 1.30138,0.53535 0.426539,0.531 0.426539,1.64088 z"
         style="fill:#ffffff;stroke-width:0.990423"
         id="path2261" /><path
         d="m 33.165297,149.09643 q 0.369958,0 0.683334,-0.22198 0.313375,-0.22197 0.51794,-0.63545 0.322081,-0.63111 0.522293,-1.52771 0.200212,-0.8966 0.200212,-1.72357 0,-0.61805 -0.230679,-0.90966 -0.226327,-0.29596 -0.705096,-0.29596 -0.369957,0 -0.67898,0.22197 -0.309024,0.22197 -0.513589,0.63546 -0.330785,0.6398 -0.530997,1.5277 -0.200213,0.8879 -0.200213,1.71486 0,0.6224 0.226327,0.91837 0.23068,0.29597 0.709448,0.29597 z m 2.824735,-3.85191 q 0,0.47876 -0.100106,1.04023 -0.09575,0.56146 -0.282909,1.1534 -0.126221,0.40042 -0.274204,0.71815 -0.14363,0.31773 -0.313376,0.57452 -0.383015,0.55276 -0.857431,0.81826 -0.474416,0.26115 -1.10552,0.26115 -0.874841,0 -1.297027,-0.53535 -0.422187,-0.53535 -0.422187,-1.64958 0,-0.48312 0.0914,-1.03588 0.09575,-0.55711 0.282909,-1.14904 0.126221,-0.40043 0.269851,-0.71816 0.147983,-0.31773 0.317728,-0.57452 0.383015,-0.55276 0.857431,-0.81391 0.474416,-0.2655 1.105521,-0.2655 0.879193,0 1.30138,0.53535 0.426539,0.531 0.42654,1.64088 z"
         style="fill:#ffffff;stroke-width:0.990423"
         id="path2263" /><path
         d="m 38.575383,143.90832 -0.474417,2.44172 h 1.018472 q 0.718153,0 1.144692,-0.41349 0.430892,-0.41783 0.430892,-1.10987 0,-0.47006 -0.269852,-0.69204 -0.269851,-0.22632 -0.835669,-0.22632 z m -0.739915,-0.72251 h 1.915074 q 0.896603,0 1.366666,0.40043 0.470064,0.40042 0.470064,1.15774 0,1.08376 -0.696391,1.70616 -0.69639,0.6224 -1.915074,0.6224 h -1.014119 l -0.509235,2.61147 h -0.883546 z"
         style="fill:#ffffff;stroke-width:0.990423"
         id="path2265" /></g><g
       aria-label="STOP"
       id="text2017"
       style="font-style:italic;font-size:8.9138px;font-family:Menlo;-inkscape-font-specification:'Menlo Italic';text-align:center;text-anchor:middle;fill:#ffffff;stroke-width:0.99042;stroke-linecap:round;paint-order:fill markers stroke"
       transform="translate(0.63803336,1.4856337)"><path
         d="m 25.239501,178.15779 -0.169745,0.89225 q -0.352548,-0.2568 -0.73121,-0.38737 -0.378663,-0.13057 -0.78344,-0.13057 -0.718153,0 -1.170807,0.3569 -0.452653,0.3569 -0.452653,0.90966 0,0.30902 0.213269,0.50053 0.21327,0.1915 0.774735,0.3656 l 0.526645,0.16975 q 0.709448,0.21762 1.035881,0.58322 0.330786,0.36126 0.330786,0.92272 0,1.02283 -0.722505,1.62346 -0.722506,0.59629 -1.971656,0.59629 -0.452654,0 -0.892251,-0.10011 -0.435244,-0.0957 -0.870488,-0.29161 l 0.17845,-0.90966 q 0.426539,0.30031 0.861783,0.44395 0.439597,0.14363 0.92707,0.14363 0.718153,0 1.166455,-0.38302 0.448301,-0.38301 0.448301,-0.97059 0,-0.3569 -0.191507,-0.55276 -0.191508,-0.19586 -0.770382,-0.37431 l -0.439597,-0.14363 q -0.800849,-0.25245 -1.12293,-0.57017 -0.317728,-0.32208 -0.317728,-0.84873 0,-0.96189 0.718153,-1.57123 0.718152,-0.6137 1.875902,-0.6137 0.348195,0 0.739915,0.0871 0.396072,0.0871 0.809554,0.25245 z"
         style="fill:#ffffff;stroke-width:0.990423"
         id="path2250" /><path
         d="m 26.453832,177.93581 h 4.961784 l -0.143631,0.73992 H 29.23069 l -1.114225,5.75828 h -0.887898 l 1.12293,-5.75828 h -2.041295 z"
         style="fill:#ffffff;stroke-width:0.990423"
         id="path2252" /><path
         d="m 33.165297,183.84643 q 0.369958,0 0.683334,-0.22198 0.313375,-0.22197 0.51794,-0.63545 0.322081,-0.63111 0.522293,-1.52771 0.200212,-0.8966 0.200212,-1.72357 0,-0.61805 -0.230679,-0.90966 -0.226327,-0.29596 -0.705096,-0.29596 -0.369957,0 -0.67898,0.22197 -0.309024,0.22197 -0.513589,0.63546 -0.330785,0.6398 -0.530997,1.5277 -0.200213,0.8879 -0.200213,1.71486 0,0.6224 0.226327,0.91837 0.23068,0.29597 0.709448,0.29597 z m 2.824735,-3.85191 q 0,0.47876 -0.100106,1.04023 -0.09575,0.56146 -0.282909,1.1534 -0.126221,0.40042 -0.274204,0.71815 -0.14363,0.31773 -0.313376,0.57452 -0.383015,0.55276 -0.857431,0.81826 -0.474416,0.26115 -1.10552,0.26115 -0.874841,0 -1.297027,-0.53535 -0.422187,-0.53535 -0.422187,-1.64958 0,-0.48312 0.0914,-1.03588 0.09575,-0.55711 0.282909,-1.14904 0.126221,-0.40043 0.269851,-0.71816 0.147983,-0.31773 0.317728,-0.57452 0.383015,-0.55276 0.857431,-0.81391 0.474416,-0.2655 1.105521,-0.2655 0.879193,0 1.30138,0.53535 0.426539,0.531 0.42654,1.64088 z"
         style="fill:#ffffff;stroke-width:0.990423"
         id="path2254" /><path
         d="m 38.575383,178.65832 -0.474417,2.44172 h 1.018472 q 0.718153,0 1.144692,-0.41349 0.430892,-0.41783 0.430892,-1.10987 0,-0.47006 -0.269852,-0.69204 -0.269851,-0.22632 -0.835669,-0.22632 z m -0.739915,-0.72251 h 1.915074 q 0.896603,0 1.366666,0.40043 0.470064,0.40042 0.470064,1.15774 0,1.08376 -0.696391,1.70616 -0.69639,0.6224 -1.915074,0.6224 h -1.014119 l -0.509235,2.61147 h -0.883546 z"
         style="fill:#ffffff;stroke-width:0.990423"
         id="path2256" /></g><rect
       style="fill:none;stroke:#d08c58;stroke-width:0.997025;stroke-linecap:square;stroke-opacity:1;paint-order:fill markers stroke"
       id="rect4881"
       width="105.39456"
       height="18.991022"
       x="19.576504"
       y="310.89029"
       rx="4.7727447"
       ry="4.7727447" /><g
       aria-label="MAX VAL"
       id="text2043"
       style="font-style:italic;font-size:8.9138px;font-family:Menlo;-inkscape-font-specification:'Menlo Italic';text-align:center;text-anchor:middle;fill:#ffffff;stroke-width:0.99042;stroke-linecap:round;paint-order:fill markers stroke"
       transform="translate(0,33.359996)"><path
         d="m 54.199115,299.53516 h 1.170806 l 0.478769,3.29045 1.801911,-3.29045 h 1.175159 l -1.266561,6.4982 h -0.809554 l 1.12293,-5.77569 -1.888959,3.46019 h -0.613695 l -0.50053,-3.46019 -1.114225,5.77569 h -0.809555 z"
         style="stroke-width:0.990423;fill:#ffffff"
         id="path2196" /><path
         d="m 61.76801,300.26637 -1.584288,3.36879 h 1.87155 z m -0.417834,-0.73121 h 1.070701 l 0.722505,6.4982 h -0.874841 l -0.152335,-1.6931 h -2.26327 l -0.800849,1.6931 h -0.94448 z"
         style="stroke-width:0.990423;fill:#ffffff"
         id="path2198" /><path
         d="m 64.988817,299.53516 h 0.870488 l 0.974947,2.3155 1.915075,-2.3155 h 1.005414 l -2.594055,3.12941 1.410191,3.36879 h -0.874841 l -1.10552,-2.6637 -2.202336,2.6637 h -1.005414 l 2.859554,-3.4689 z"
         style="stroke-width:0.990423;fill:#ffffff"
         id="path2200" /><path
         d="m 76.888392,305.20639 2.60276,-5.67123 h 0.935775 l -3.129405,6.4982 h -1.12293 l -0.639809,-6.4982 h 0.861784 z"
         style="stroke-width:0.990423;fill:#ffffff"
         id="path2202" /><path
         d="m 83.234252,300.26637 -1.584289,3.36879 h 1.87155 z m -0.417835,-0.73121 h 1.070701 l 0.722505,6.4982 h -0.87484 l -0.152336,-1.6931 h -2.26327 l -0.800849,1.6931 h -0.94448 z"
         style="stroke-width:0.990423;fill:#ffffff"
         id="path2204" /><path
         d="m 87.00782,299.53516 h 0.879193 l -1.12293,5.75828 h 3.138111 l -0.143631,0.73992 H 85.74126 Z"
         style="stroke-width:0.990423;fill:#ffffff"
         id="path2206" /></g><g
       aria-label="RESET POINT"
       id="text2047"
       style="font-style:italic;font-size:8.9138px;font-family:Menlo;-inkscape-font-specification:'Menlo Italic';text-align:center;text-anchor:middle;fill:#ffffff;stroke-width:0.99042;stroke-linecap:round;paint-order:fill markers stroke"
       transform="translate(0,11.253814)"><path
         d="m 45.803255,282.11491 q 0.313376,0.0609 0.500531,0.29161 0.191507,0.23068 0.426539,1.00106 l 0.526645,1.7758 h -0.87484 l -0.461359,-1.64087 q -0.191508,-0.67898 -0.430892,-0.89225 -0.235032,-0.21327 -0.7138,-0.21327 H 43.94041 l -0.53535,2.74639 h -0.883546 l 1.257856,-6.4982 h 1.810615 q 0.900956,0 1.392781,0.39172 0.496179,0.38737 0.496179,1.09682 0,0.7965 -0.452654,1.31879 -0.448302,0.52229 -1.223036,0.6224 z m -1.275266,-2.70722 -0.443949,2.30679 h 0.953185 q 0.709448,0 1.131635,-0.36995 0.426539,-0.37431 0.426539,-0.99236 0,-0.48747 -0.274204,-0.7138 -0.274203,-0.23068 -0.866135,-0.23068 z"
         style="fill:#ffffff;stroke-width:0.990423"
         id="path2209" /><path
         d="m 49.333085,278.68518 h 3.851911 l -0.143631,0.73992 h -2.97707 l -0.37431,1.92378 h 2.842144 l -0.139278,0.73991 h -2.846496 l -0.452654,2.35468 h 3.055414 l -0.143631,0.73991 h -3.93896 z"
         style="fill:#ffffff;stroke-width:0.990423"
         id="path2211" /><path
         d="m 58.194656,278.90716 -0.169745,0.89225 q -0.352548,-0.25679 -0.73121,-0.38737 -0.378663,-0.13057 -0.78344,-0.13057 -0.718153,0 -1.170807,0.3569 -0.452654,0.3569 -0.452654,0.90966 0,0.30902 0.21327,0.50053 0.21327,0.19151 0.774735,0.36561 l 0.526645,0.16974 q 0.709448,0.21762 1.035881,0.58323 0.330786,0.36125 0.330786,0.92272 0,1.02282 -0.722506,1.62346 -0.722505,0.59628 -1.971656,0.59628 -0.452654,0 -0.89225,-0.10011 -0.435244,-0.0958 -0.870488,-0.29161 l 0.17845,-0.90966 q 0.426539,0.30032 0.861783,0.44395 0.439597,0.14363 0.92707,0.14363 0.718153,0 1.166454,-0.38301 0.448302,-0.38302 0.448302,-0.9706 0,-0.3569 -0.191507,-0.55276 -0.191508,-0.19586 -0.770383,-0.37431 l -0.439596,-0.14363 q -0.800849,-0.25244 -1.12293,-0.57017 -0.317728,-0.32208 -0.317728,-0.84873 0,-0.96188 0.718152,-1.57123 0.718153,-0.61369 1.875903,-0.61369 0.348195,0 0.739915,0.087 0.396072,0.087 0.809554,0.25244 z"
         style="fill:#ffffff;stroke-width:0.990423"
         id="path2213" /><path
         d="m 60.066206,278.68518 h 3.851911 l -0.14363,0.73992 h -2.97707 l -0.37431,1.92378 h 2.842144 l -0.139278,0.73991 h -2.846497 l -0.452654,2.35468 h 3.055414 l -0.143631,0.73991 h -3.938959 z"
         style="fill:#ffffff;stroke-width:0.990423"
         id="path2215" /><path
         d="m 64.775548,278.68518 h 4.961783 L 69.5937,279.4251 h -2.041295 l -1.114225,5.75828 h -0.887898 l 1.12293,-5.75828 h -2.041295 z"
         style="fill:#ffffff;stroke-width:0.990423"
         id="path2217" /><path
         d="m 76.897098,279.40769 -0.474416,2.44172 h 1.018472 q 0.718152,0 1.144692,-0.41348 0.430891,-0.41784 0.430891,-1.10987 0,-0.47007 -0.269851,-0.69204 -0.269851,-0.22633 -0.835669,-0.22633 z m -0.739915,-0.72251 h 1.915075 q 0.896603,0 1.366666,0.40043 0.470064,0.40042 0.470064,1.15775 0,1.08376 -0.696391,1.70616 -0.69639,0.6224 -1.915074,0.6224 h -1.014119 l -0.509236,2.61146 h -0.883545 z"
         style="fill:#ffffff;stroke-width:0.990423"
         id="path2219" /><path
         d="m 82.220132,284.5958 q 0.369958,0 0.683333,-0.22197 0.313376,-0.22198 0.517941,-0.63546 0.322081,-0.6311 0.522293,-1.52771 0.200212,-0.8966 0.200212,-1.72356 0,-0.61805 -0.230679,-0.90966 -0.226327,-0.29597 -0.705096,-0.29597 -0.369957,0 -0.678981,0.22197 -0.309023,0.22198 -0.513588,0.63546 -0.330785,0.63981 -0.530998,1.52771 -0.200212,0.8879 -0.200212,1.71486 0,0.6224 0.226327,0.91836 0.230679,0.29597 0.709448,0.29597 z m 2.824735,-3.85191 q 0,0.47877 -0.100107,1.04023 -0.09575,0.56147 -0.282908,1.1534 -0.126221,0.40042 -0.274204,0.71815 -0.143631,0.31773 -0.313376,0.57453 -0.383015,0.55276 -0.857431,0.81825 -0.474416,0.26115 -1.10552,0.26115 -0.874841,0 -1.297028,-0.53535 -0.422186,-0.53535 -0.422186,-1.64957 0,-0.48313 0.0914,-1.03589 0.09575,-0.55711 0.282909,-1.14904 0.12622,-0.40042 0.269851,-0.71815 0.147983,-0.31773 0.317728,-0.57453 0.383015,-0.55276 0.857431,-0.8139 0.474416,-0.2655 1.10552,-0.2655 0.879194,0 1.30138,0.53535 0.42654,0.531 0.426541,1.64087 z"
         style="fill:#ffffff;stroke-width:0.990423"
         id="path2221" /><path
         d="m 86.907713,278.68518 h 3.612527 l -0.143631,0.73992 h -1.366667 l -0.970594,5.01837 h 1.366667 l -0.143631,0.73991 h -3.612527 l 0.143631,-0.73991 h 1.362314 l 0.974947,-5.01837 h -1.366666 z"
         style="fill:#ffffff;stroke-width:0.990423"
         id="path2223" /><path
         d="m 92.008776,278.68518 h 1.114225 l 1.149045,5.34916 1.040233,-5.34916 h 0.848726 l -1.26656,6.4982 H 93.78022 l -1.149045,-5.34915 -1.044586,5.34915 h -0.844373 z"
         style="fill:#ffffff;stroke-width:0.990423"
         id="path2225" /><path
         d="m 96.974909,278.68518 h 4.961781 l -0.14363,0.73992 h -2.041293 l -1.114225,5.75828 h -0.887898 l 1.12293,-5.75828 h -2.041295 z"
         style="fill:#ffffff;stroke-width:0.990423"
         id="path2227" /></g><g
       aria-label="∞"
       id="text2105"
       style="font-style:italic;font-size:15.8468px;font-family:Menlo;-inkscape-font-specification:'Menlo Italic';text-align:center;text-anchor:middle;fill:#ffffff;stroke-width:0.99042;stroke-linecap:round;paint-order:fill markers stroke"
       transform="translate(7.4281685,1.4856337)"><path
         d="m 10.035045,163.55291 q 0.441048,1.05233 0.789245,1.43922 0.355934,0.38688 0.827933,0.38688 0.549376,0 0.897573,-0.51842 0.355934,-0.51843 0.355934,-1.3541 0,-0.82794 -0.324984,-1.32315 -0.324983,-0.49521 -0.866621,-0.49521 -0.510688,0 -0.920786,0.45652 -0.40236,0.44879 -0.758294,1.40826 z m -1.2148185,-0.0619 q -0.4333109,-1.03685 -0.7892449,-1.416 -0.355934,-0.38688 -0.8279334,-0.38688 -0.5493763,0 -0.9053103,0.51843 -0.3481963,0.51068 -0.3481963,1.33088 0,0.84341 0.3172455,1.34636 0.3249832,0.49521 0.8511465,0.49521 0.5184256,0 0.9285234,-0.45652 0.4100979,-0.45653 0.7737695,-1.43148 z m 0.611278,-0.99816 q 0.3636716,-0.90531 0.9285235,-1.39278 0.572589,-0.49522 1.27672,-0.49522 0.920785,0 1.586227,0.85115 0.665442,0.84341 0.665442,2.08144 0,1.29219 -0.634491,2.11239 -0.626753,0.8202 -1.601703,0.8202 -0.642229,0 -1.137441,-0.38689 -0.495213,-0.38688 -1.0987529,-1.40052 -0.5029502,0.95947 -1.0136381,1.37731 -0.5106879,0.4101 -1.168392,0.4101 -0.9672119,0 -1.6094406,-0.82794 -0.6422287,-0.82793 -0.6422287,-2.10465 0,-1.33862 0.6035402,-2.1356 0.6112779,-0.79699 1.6326537,-0.79699 0.7273434,0 1.2535066,0.44879 0.5261633,0.44105 0.9594743,1.43921 z"
         style="fill:#ffffff;stroke-width:0.990423"
         id="path2107" /></g><g
       aria-label="0  MID  END"
       id="text2475"
       style="font-style:italic;font-size:6.93296px;font-family:Menlo;-inkscape-font-specification:'Menlo Italic';text-align:center;text-anchor:middle;fill:#ffffff;stroke-width:0.99042;stroke-linecap:round;paint-order:fill markers stroke"
       transform="translate(1.4856338,-0.56118486)"><path
         d="m 58.722133,268.20387 q 0.809071,-0.0271 1.100201,0.62627 0.294515,0.65335 0.06093,1.95328 -0.233581,1.30331 -0.768448,1.98036 -0.534867,0.67705 -1.343938,0.70074 -0.809071,0.0237 -1.100201,-0.62626 -0.291131,-0.65335 -0.06094,-1.95328 0.236967,-1.30332 0.768449,-1.98037 0.534867,-0.67704 1.343938,-0.70074 z m -0.853079,4.71225 q 0.480703,-0.0135 0.809071,-0.53487 0.328367,-0.52133 0.517941,-1.57752 0.104942,-0.56195 0.118483,-1.01219 l -2.071764,2.58971 q 0.152336,0.55179 0.626269,0.53487 z m 0.754907,-4.16384 q -0.477318,0.0135 -0.805686,0.53486 -0.328368,0.52133 -0.521326,1.57752 -0.08802,0.47732 -0.09817,0.89709 l 2.034526,-2.58293 q -0.172647,-0.44347 -0.609342,-0.42654 z"
         style="fill:#ffffff;stroke-width:0.990423"
         id="path2477" /><path
         d="m 66.495599,268.29527 h 0.910628 l 0.372376,2.55924 1.401487,-2.55924 h 0.914013 L 69.109,273.34943 h -0.629654 l 0.873391,-4.49221 -1.469192,2.69126 h -0.477318 l -0.389302,-2.69126 -0.86662,4.49221 h -0.629654 z"
         style="fill:#ffffff;stroke-width:0.990423"
         id="path2479" /><path
         d="m 71.065665,268.29527 h 2.809745 l -0.111713,0.57549 h -1.062963 l -0.754908,3.90318 h 1.062964 l -0.111713,0.57549 h -2.809744 l 0.111712,-0.57549 h 1.059579 l 0.758292,-3.90318 h -1.062963 z"
         style="fill:#ffffff;stroke-width:0.990423"
         id="path2481" /><path
         d="m 75.165184,272.78748 q 0.626269,0 1.005415,-0.20989 0.379146,-0.21327 0.609342,-0.69058 0.182803,-0.38931 0.297901,-0.92756 0.118483,-0.54164 0.118483,-0.99187 0,-0.5958 -0.277589,-0.85308 -0.27759,-0.25728 -0.93094,-0.25728 h -0.385917 l -0.765063,3.93026 z m 0.886932,-4.49221 q 0.924169,0 1.381175,0.41977 0.460392,0.41977 0.460392,1.27285 0,0.54841 -0.14218,1.13067 -0.14218,0.58226 -0.382531,1.03249 -0.352065,0.64658 -0.880161,0.92417 -0.524711,0.27421 -1.421799,0.27421 h -1.025726 l 0.985104,-5.05416 z"
         style="fill:#ffffff;stroke-width:0.990423"
         id="path2483" /><path
         d="m 83.297969,268.29527 h 2.995933 l -0.111713,0.57549 h -2.315501 l -0.29113,1.49627 h 2.210558 l -0.108327,0.57549 h -2.213943 l -0.352065,1.83142 h 2.376435 l -0.111713,0.57549 h -3.063637 z"
         style="fill:#ffffff;stroke-width:0.990423"
         id="path2485" /><path
         d="m 87.272236,268.29527 h 0.86662 l 0.893702,4.16045 0.809071,-4.16045 h 0.660121 l -0.985103,5.05416 h -0.86662 l -0.893702,-4.16046 -0.812456,4.16046 h -0.656736 z"
         style="fill:#ffffff;stroke-width:0.990423"
         id="path2487" /><path
         d="m 91.578253,272.78748 q 0.626268,0 1.005414,-0.20989 0.379146,-0.21327 0.609342,-0.69058 0.182803,-0.38931 0.297901,-0.92756 0.118483,-0.54164 0.118483,-0.99187 0,-0.5958 -0.277589,-0.85308 -0.277589,-0.25728 -0.930939,-0.25728 h -0.385917 l -0.765063,3.93026 z m 0.886931,-4.49221 q 0.924169,0 1.381176,0.41977 0.460391,0.41977 0.460391,1.27285 0,0.54841 -0.142179,1.13067 -0.14218,0.58226 -0.382532,1.03249 -0.352064,0.64658 -0.880161,0.92417 -0.524711,0.27421 -1.421798,0.27421 h -1.025726 l 0.985103,-5.05416 z"
         style="fill:#ffffff;stroke-width:0.990423"
         id="path2489" /></g></g></svg>
