<?xml version="1.0" encoding="UTF-8" standalone="no"?>
<!-- Created with Inkscape (http://www.inkscape.org/) -->

<svg
   width="40.6399mm"
   height="128.5mm"
   viewBox="0 0 40.639903 128.50002"
   version="1.1"
   id="svg8"
   inkscape:version="1.2 (dc2aeda, 2022-05-15)"
   sodipodi:docname="Blank-dark.svg"
   xml:space="preserve"
   xmlns:inkscape="http://www.inkscape.org/namespaces/inkscape"
   xmlns:sodipodi="http://sodipodi.sourceforge.net/DTD/sodipodi-0.dtd"
   xmlns="http://www.w3.org/2000/svg"
   xmlns:svg="http://www.w3.org/2000/svg"
   xmlns:rdf="http://www.w3.org/1999/02/22-rdf-syntax-ns#"
   xmlns:cc="http://creativecommons.org/ns#"
   xmlns:dc="http://purl.org/dc/elements/1.1/"><defs
     id="defs2"><clipPath
       id="_clip1">
            <rect
   x="1625"
   y="1115"
   width="205"
   height="598"
   id="rect6630" />
        </clipPath></defs><sodipodi:namedview
     id="base"
     pagecolor="#ffffff"
     bordercolor="#666666"
     borderopacity="1.0"
     inkscape:pageopacity="0.0"
     inkscape:pageshadow="2"
     inkscape:zoom="0.86016917"
     inkscape:cx="99.980333"
     inkscape:cy="238.32521"
     inkscape:document-units="mm"
     inkscape:current-layer="svg8"
     showgrid="false"
     units="mm"
     inkscape:snap-bbox="true"
     inkscape:snap-page="true"
     inkscape:bbox-nodes="false"
     inkscape:snap-bbox-edge-midpoints="false"
     inkscape:window-width="1512"
     inkscape:window-height="916"
     inkscape:window-x="0"
     inkscape:window-y="166"
     inkscape:window-maximized="0"
     inkscape:snap-bbox-midpoints="true"
     inkscape:snap-nodes="false"
     inkscape:showpageshadow="2"
     inkscape:pagecheckerboard="0"
     inkscape:deskcolor="#d1d1d1" /><metadata
     id="metadata5"><rdf:RDF><cc:Work
         rdf:about=""><dc:format>image/svg+xml</dc:format><dc:type
           rdf:resource="http://purl.org/dc/dcmitype/StillImage" /></cc:Work></rdf:RDF></metadata><rect
     id="rect1"
     x="-0.1665577"
     y="-0.38949111"
     width="40.987793"
     height="129.94316"
     style="clip-rule:evenodd;fill:#202020;fill-rule:evenodd;stroke-width:0.317257;stroke-linejoin:round;stroke-miterlimit:1.5" /><rect
     style="clip-rule:evenodd;display:none;fill:#3b3b3b;fill-opacity:1;fill-rule:evenodd;stroke:#d08c59;stroke-width:0.351999;stroke-linejoin:round;stroke-miterlimit:1.5;stroke-dasharray:none;stroke-opacity:1"
     id="rect2"
     width="17.226421"
     height="111.5742"
     x="19.288095"
     y="11.274678"
     rx="4"
     ry="4" /><g
     id="g9796"
     transform="translate(0.1126101,0.01604826)"><g
       id="g7383"
       transform="translate(-32.842829,-0.21750218)"><path
         id="path128"
         d="m 51.213118,75.807206 c 0.313141,-0.147778 0.62717,-0.196157 0.943842,-0.144272 v 1.035326 c -0.242758,0.01581 -0.425753,0.06335 -0.54891,0.144272 -0.21979,0.141629 -0.329859,0.397592 -0.329859,0.767038 0,0.376482 0.154842,0.706343 0.46534,0.987824 0.309633,0.282362 0.747683,0.482038 1.31504,0.599908 0.567357,0.118761 0.991356,0.09325 1.274589,-0.07828 0.282345,-0.170647 0.42311,-0.432781 0.42311,-0.786392 0,-0.363287 -0.121502,-0.66588 -0.364186,-0.907778 -0.129405,-0.132813 -0.325463,-0.260371 -0.585829,-0.383518 v -1.02565 c 0.551527,0.204084 0.999258,0.526898 1.344947,0.966714 0.343936,0.440696 0.517225,0.949121 0.517225,1.525279 0,0.7125 -0.233127,1.224445 -0.699306,1.535834 -0.468845,0.309631 -1.110956,0.378243 -1.928133,0.208481 -0.882275,-0.18297 -1.563108,-0.556807 -2.040746,-1.11977 -0.416071,-0.490833 -0.624551,-1.04764 -0.624551,-1.670418 0,-0.833889 0.279727,-1.384539 0.837427,-1.654586 z"
         style="clip-rule:evenodd;fill:#ffffff;fill-rule:nonzero;stroke-width:0.35619;stroke-linejoin:round;stroke-miterlimit:1.5"
         inkscape:transform-center-x="-88.090097"
         inkscape:transform-center-y="5.2173459" /><path
         id="path129"
         d="m 54.311157,73.514889 -3.838709,-1.886808 v -1.075787 l 5.054374,2.743567 v 0.978151 l -5.054374,0.622776 v -1.107454 z"
         style="clip-rule:evenodd;fill:#ffffff;fill-rule:nonzero;stroke-width:0.35619;stroke-linejoin:round;stroke-miterlimit:1.5"
         inkscape:transform-center-x="-88.067673"
         inkscape:transform-center-y="-0.050778225" /><path
         id="path130"
         d="m 51.823569,66.642336 0.689625,0.145136 v 0.627177 l 3.013628,0.626297 v 0.954401 l -3.013628,-0.626295 v 0.535695 l -0.689625,-0.144272 v -0.52514 l -0.240041,-0.04927 c -0.400242,-0.08443 -0.675548,-0.207592 -0.826858,-0.370323 -0.223495,-0.186477 -0.336009,-0.544494 -0.336009,-1.07579 0,-0.0607 0.0018,-0.11523 0.0049,-0.163608 0.0025,-0.04838 0.0099,-0.11523 0.01482,-0.200553 l 0.796952,0.168004 c -0.0074,0.05191 -0.01235,0.14074 -0.01482,0.265648 -0.0025,0.125775 0.0247,0.219914 0.0852,0.281483 0.06075,0.06157 0.127429,0.09851 0.200528,0.112587 0.07384,0.01581 0.178549,0.03783 0.315783,0.06774 z"
         style="clip-rule:evenodd;fill:#ffffff;fill-rule:nonzero;stroke-width:0.35619;stroke-linejoin:round;stroke-miterlimit:1.5"
         inkscape:transform-center-x="-88.04178"
         inkscape:transform-center-y="-5.0897509" /><path
         id="path131"
         d="m 54.999917,64.402798 c 0.01235,0.01062 0.04569,0.04045 0.102981,0.08797 0.05729,0.04662 0.106438,0.0994 0.150396,0.157459 0.137307,0.179438 0.23041,0.344815 0.280616,0.496112 0.05013,0.150421 0.07557,0.320186 0.07557,0.509308 0,0.541851 -0.197811,0.866435 -0.596398,0.97111 -0.21905,0.05892 -0.542736,0.04309 -0.970216,-0.04663 l -2.253622,-0.467962 v -0.980788 l 2.253622,0.467083 c 0.212876,0.04487 0.372064,0.05366 0.480255,0.02726 0.189909,-0.04749 0.285012,-0.1988 0.285012,-0.45389 0,-0.327222 -0.135579,-0.579675 -0.405502,-0.75736 -0.145951,-0.09412 -0.33954,-0.166251 -0.578815,-0.215519 l -2.034572,-0.423102 v -0.971112 l 3.737555,0.776713 v 0.930652 z"
         style="clip-rule:evenodd;fill:#ffffff;fill-rule:nonzero;stroke-width:0.35619;stroke-linejoin:round;stroke-miterlimit:1.5"
         inkscape:transform-center-x="-88.7674"
         inkscape:transform-center-y="-8.0441311" /><path
         id="path132"
         d="m 53.254728,59.843672 c -0.197071,-0.04223 -0.348331,-0.04838 -0.453016,-0.01679 -0.192625,0.05366 -0.288518,0.211987 -0.288518,0.476761 0,0.325463 0.140764,0.577916 0.421356,0.756483 0.149408,0.095 0.33954,0.165362 0.569999,0.211987 l 2.022273,0.420465 v 0.954398 l -3.731406,-0.775837 v -0.925372 l 0.545378,0.114366 c -0.190897,-0.162744 -0.32986,-0.308752 -0.414318,-0.437176 -0.151385,-0.227817 -0.225965,-0.494355 -0.225965,-0.796068 0,-0.379119 0.100264,-0.667638 0.303484,-0.866435 0.202257,-0.197911 0.53745,-0.248934 1.006296,-0.152175 l 2.51663,0.524261 v 0.981667 z"
         style="clip-rule:evenodd;fill:#ffffff;fill-rule:nonzero;stroke-width:0.35619;stroke-linejoin:round;stroke-miterlimit:1.5"
         inkscape:transform-center-x="-88.681754"
         inkscape:transform-center-y="-12.071466" /><path
         id="path133"
         d="m 54.352497,57.275152 1.174325,0.241004 v 0.942098 l -5.037655,-1.0494 V 56.46765 l 2.724221,0.56912 -1.407402,-1.486574 v -1.187502 l 1.431159,1.580696 2.289677,-0.85676 v 1.156715 l -1.59741,0.543612 z"
         style="clip-rule:evenodd;fill:#ffffff;fill-rule:nonzero;stroke-width:0.35619;stroke-linejoin:round;stroke-miterlimit:1.5"
         inkscape:transform-center-x="-88.076033"
         inkscape:transform-center-y="-16.364848" /><path
         id="path134"
         d="M 53.022516,98.727737 V 82.373647"
         style="clip-rule:evenodd;fill:none;fill-rule:evenodd;stroke:#d08c59;stroke-width:0.227961px;stroke-linecap:round;stroke-linejoin:round;stroke-miterlimit:1.5"
         inkscape:transform-center-x="-88.090554"
         inkscape:transform-center-y="17.775376" /><path
         id="path135"
         d="M 53.022516,53.508574 V 37.154482"
         style="clip-rule:evenodd;fill:none;fill-rule:evenodd;stroke:#d08c59;stroke-width:0.227961px;stroke-linecap:round;stroke-linejoin:round;stroke-miterlimit:1.5"
         inkscape:transform-center-x="-88.090554"
         inkscape:transform-center-y="-27.443795" /></g><g
       transform="matrix(0.06441347,0,0,0.0552759,-98.571283,-3.7983683)"
       id="g6645"
       style="clip-rule:evenodd;fill:none;fill-rule:evenodd;stroke-width:5.91214;stroke-linecap:round;stroke-linejoin:round;stroke-miterlimit:1.5;stroke-dasharray:none">
        <path
   d="m 1661.38,1110 h 3.38 c 20.55,0 37.24,26.57 37.24,59.29 v 116.42 c 0,32.72 -16.69,59.29 -37.24,59.29 h -3.38 v 375.54 c 0,58.42 -26.29,105.85 -58.68,105.85 h -5.95 c 0.01,-1.04 0.02,-2.08 0.02,-3.12 V 757.93 c 0,-10.97 -0.9,-21.561 -2.59,-31.543 h 8.52 c 32.39,0 58.68,47.427 58.68,105.844 z"
   style="fill:none;stroke:#d08c58;stroke-width:5.91214;stroke-dasharray:none"
   id="path6643" />
    </g><g
       transform="matrix(0.19739367,0,0,0.17182416,-316.85327,-118.53132)"
       id="g6649"
       style="clip-rule:evenodd;fill:none;fill-rule:evenodd;stroke-width:1.91555;stroke-linecap:round;stroke-linejoin:round;stroke-miterlimit:1.5;stroke-dasharray:none">
        <path
   d="m 1702,1289.9 v 12.13 c 0,23.72 -16.69,42.97 -37.24,42.97 h -9.52 c -20.55,0 -37.24,-19.25 -37.24,-42.97 v -112.92 h 12.62 c 13.92,0 25.22,-13.04 25.22,-29.11 v -50 h 8.92 c 3.35,0 6.6,0.51 9.68,1.47 v 143.73 c 0,18.2 12.13,33.16 27.56,34.7 z"
   style="fill:none;stroke:#d08c58;stroke-width:1.91555;stroke-dasharray:none"
   id="path6647" />
    </g><g
       transform="matrix(0.19739367,0,0,0.17182416,-316.85327,-175.3281)"
       id="g6653"
       style="clip-rule:evenodd;fill:none;fill-rule:evenodd;stroke-width:1.91555;stroke-linecap:round;stroke-linejoin:round;stroke-miterlimit:1.5;stroke-dasharray:none">
        <path
   d="m 1702,1181.44 v 26.89 c -15.43,1.54 -27.56,16.5 -27.56,34.7 v 100.5 c -3.08,0.96 -6.33,1.47 -9.68,1.47 h -8.92 v -37.63 c 0,-16.06 -11.3,-29.11 -25.22,-29.11 H 1618 v -125.29 c 0,-16.94 8.51,-31.6 20.86,-38.6 5.01,36.15 31.03,64.25 63.14,67.07 z"
   style="fill:none;stroke:#d08c58;stroke-width:1.91555;stroke-dasharray:none"
   id="path6651" />
    </g><g
       transform="matrix(0.1336081,0,0,0.16564168,-209.51938,-169.45861)"
       id="g6657"
       style="clip-rule:evenodd;fill:none;fill-rule:evenodd;stroke-width:2.37137;stroke-linecap:round;stroke-linejoin:round;stroke-miterlimit:1.5;stroke-dasharray:none">
        <path
   d="m 1750.09,1119.2 h 55.69 c -7,33.92 -43.44,59.8 -87.28,59.8 -43.84,0 -80.28,-25.88 -87.28,-59.8 h 55.69 c 7,8.03 18.55,13.28 31.59,13.28 13.04,0 24.59,-5.25 31.59,-13.28 z"
   style="fill:none;stroke:#d08c58;stroke-width:2.37137;stroke-dasharray:none"
   id="path6655" />
    </g><g
       transform="matrix(0.09979151,0,0,0.25873864,-129.43488,-250.84623)"
       id="g6661"
       style="clip-rule:evenodd;fill:none;fill-rule:evenodd;stroke-width:2.19545;stroke-linecap:round;stroke-linejoin:round;stroke-miterlimit:1.5;stroke-dasharray:none">
        <path
   d="m 1618,1191.95 v -59.34 c 0,-12.48 16.69,-22.61 37.24,-22.61 h 5.4 c -1.06,2.13 -1.64,4.39 -1.64,6.74 v 227.59 c 0,0.23 0.01,0.45 0.02,0.67 h -3.78 c -20.55,0 -37.24,-10.13 -37.24,-22.61 v -80.23 h -2.67 c -13.32,0 -24.13,-5.8 -24.13,-12.94 v -24.33 c 0,-7.14 10.81,-12.94 24.13,-12.94 z"
   style="fill:none;stroke:#d08c58;stroke-width:2.19545;stroke-dasharray:none"
   id="path6659" />
    </g><g
       transform="matrix(-0.19739367,0,0,0.17182416,357.26795,-118.53132)"
       id="g6665"
       style="clip-rule:evenodd;fill:none;fill-rule:evenodd;stroke-width:1.91555;stroke-linecap:round;stroke-linejoin:round;stroke-miterlimit:1.5;stroke-dasharray:none">
        <path
   d="m 1702,1289.9 v 12.13 c 0,23.72 -16.69,42.97 -37.24,42.97 h -9.52 c -20.55,0 -37.24,-19.25 -37.24,-42.97 v -112.92 h 12.62 c 13.92,0 25.22,-13.04 25.22,-29.11 v -50 h 8.92 c 3.35,0 6.6,0.51 9.68,1.47 v 143.73 c 0,18.2 12.13,33.16 27.56,34.7 z"
   style="fill:none;stroke:#d08c58;stroke-width:1.91555;stroke-dasharray:none"
   id="path6663" />
    </g><g
       transform="matrix(-0.19739367,0,0,0.17182416,357.26795,-175.3281)"
       id="g6669"
       style="clip-rule:evenodd;fill:none;fill-rule:evenodd;stroke-width:1.91555;stroke-linecap:round;stroke-linejoin:round;stroke-miterlimit:1.5;stroke-dasharray:none">
        <path
   d="m 1702,1181.4 c -31.97,-3.04 -57.83,-31.16 -62.73,-67.25 -12.57,6.9 -21.27,21.7 -21.27,38.82 v 125.29 h 12.62 c 13.92,0 25.22,13.05 25.22,29.11 V 1345 h 8.92 c 3.35,0 6.6,-0.51 9.68,-1.47 v -100.5 c 0,-18.2 12.13,-33.16 27.56,-34.7 z"
   style="fill:none;stroke:#d08c58;stroke-width:1.91555;stroke-dasharray:none"
   id="path6667" />
    </g><g
       transform="matrix(0.11129803,0,0,0.14812603,-171.21291,-144.64084)"
       id="g6673"
       style="clip-rule:evenodd;fill:none;fill-rule:evenodd;stroke-width:2.74753;stroke-linecap:round;stroke-linejoin:round;stroke-miterlimit:1.5;stroke-dasharray:none">
        <path
   d="m 1761,1236.75 v 393.5 c 0,15.87 -17.07,28.75 -38.1,28.75 h -6.8 c -21.03,0 -38.1,-12.88 -38.1,-28.75 v -393.5 c 0,-15.87 17.07,-28.75 38.1,-28.75 h 6.8 c 21.03,0 38.1,12.88 38.1,28.75 z"
   style="fill:none;stroke:#d08c58;stroke-width:2.74753;stroke-dasharray:none"
   id="path6671" />
    </g></g><path
     id="path128-2"
     d="m 16.724247,125.9342 c 0.05984,0.1268 0.07943,0.25396 0.05842,0.38219 h -0.419235 c -0.0064,-0.0983 -0.02565,-0.1724 -0.05842,-0.22227 -0.05735,-0.089 -0.160997,-0.13357 -0.310597,-0.13357 -0.152449,0 -0.28602,0.0627 -0.4,0.18843 -0.114337,0.12538 -0.195192,0.30276 -0.242921,0.5325 -0.04809,0.22974 -0.03776,0.40143 0.0317,0.51612 0.0691,0.11433 0.175246,0.17133 0.318434,0.17133 0.147106,0 0.269635,-0.0492 0.367587,-0.14747 0.05378,-0.0524 0.105432,-0.13179 0.155298,-0.23722 h 0.415317 c -0.08264,0.22333 -0.213357,0.40463 -0.391452,0.54461 -0.178451,0.13927 -0.384328,0.20944 -0.617632,0.20944 -0.288513,0 -0.495815,-0.0944 -0.621906,-0.28317 -0.125379,-0.18985 -0.153162,-0.44986 -0.08442,-0.78076 0.07409,-0.35726 0.225468,-0.63295 0.453429,-0.82636 0.198753,-0.16848 0.424221,-0.2529 0.676403,-0.2529 0.337667,0 0.560642,0.11327 0.669992,0.3391 z"
     style="clip-rule:evenodd;fill:#ffffff;fill-rule:nonzero;stroke-width:0.356189;stroke-linejoin:round;stroke-miterlimit:1.5" /><path
     id="path129-0"
     d="m 17.652476,127.18869 0.764026,-1.55441 h 0.435619 l -1.110954,2.04667 h -0.396083 l -0.252181,-2.04667 h 0.448442 z"
     style="clip-rule:evenodd;fill:#ffffff;fill-rule:nonzero;stroke-width:0.356189;stroke-linejoin:round;stroke-miterlimit:1.5" /><path
     id="path130-9"
     d="m 20.435382,126.18139 -0.05877,0.27925 h -0.253963 l -0.253607,1.22031 h -0.386466 l 0.253606,-1.22031 h -0.216919 l 0.05842,-0.27925 h 0.212645 l 0.01995,-0.0972 c 0.03419,-0.16207 0.08406,-0.27355 0.149955,-0.33482 0.07551,-0.0905 0.220482,-0.13606 0.43562,-0.13606 0.02458,0 0.04666,7.1e-4 0.06625,0.002 0.01959,0.001 0.04666,0.004 0.08121,0.006 l -0.06803,0.32271 c -0.02102,-0.003 -0.05699,-0.005 -0.107569,-0.006 -0.05093,-10e-4 -0.08905,0.01 -0.113981,0.0345 -0.02493,0.0246 -0.03989,0.0516 -0.04559,0.0812 -0.0064,0.0299 -0.01532,0.0723 -0.02743,0.12787 z"
     style="clip-rule:evenodd;fill:#ffffff;fill-rule:nonzero;stroke-width:0.356189;stroke-linejoin:round;stroke-miterlimit:1.5" /><path
     id="path131-0"
     d="m 21.342239,127.46759 c -0.0043,0.005 -0.01638,0.0185 -0.03562,0.0417 -0.01888,0.0232 -0.04025,0.0431 -0.06376,0.0609 -0.07266,0.0556 -0.139626,0.0933 -0.200891,0.11363 -0.06091,0.0203 -0.129653,0.0306 -0.206234,0.0306 -0.219412,0 -0.350846,-0.0801 -0.393232,-0.2415 -0.02386,-0.0887 -0.01745,-0.21977 0.01888,-0.39287 l 0.189492,-0.91256 h 0.397151 l -0.189136,0.91256 c -0.01817,0.0862 -0.02173,0.15066 -0.01104,0.19447 0.01923,0.0769 0.0805,0.11541 0.183794,0.11541 0.132502,0 0.234728,-0.0549 0.306678,-0.1642 0.03811,-0.0591 0.06732,-0.13749 0.08727,-0.23438 l 0.171327,-0.82386 h 0.393233 l -0.314515,1.51345 h -0.376849 z"
     style="clip-rule:evenodd;fill:#ffffff;fill-rule:nonzero;stroke-width:0.356189;stroke-linejoin:round;stroke-miterlimit:1.5" /><path
     id="path132-7"
     d="m 23.188368,126.76091 c 0.0171,-0.0798 0.01959,-0.14105 0.0068,-0.18344 -0.02173,-0.078 -0.08584,-0.11683 -0.193055,-0.11683 -0.13179,0 -0.234016,0.057 -0.306323,0.17062 -0.03847,0.0605 -0.06696,0.13749 -0.08584,0.23081 l -0.170259,0.81888 h -0.386465 l 0.314159,-1.51096 h 0.374711 l -0.04631,0.22084 c 0.0659,-0.0773 0.125023,-0.13357 0.177026,-0.16777 0.09225,-0.0613 0.200179,-0.0915 0.322352,-0.0915 0.153517,0 0.270347,0.0406 0.350846,0.12289 0.08014,0.0819 0.100801,0.21763 0.06162,0.40748 l -0.212289,1.01906 h -0.397507 z"
     style="clip-rule:evenodd;fill:#ffffff;fill-rule:nonzero;stroke-width:0.356189;stroke-linejoin:round;stroke-miterlimit:1.5" /><path
     id="path133-1"
     d="m 24.22844,127.20543 -0.09759,0.47552 h -0.381484 l 0.424934,-2.0399 h 0.381122 l -0.230454,1.10312 0.601959,-0.5699 h 0.480856 l -0.640072,0.57952 0.346928,0.92716 H 24.64625 l -0.220125,-0.64684 z"
     style="clip-rule:evenodd;fill:#ffffff;fill-rule:nonzero;stroke-width:0.356189;stroke-linejoin:round;stroke-miterlimit:1.5" /><path
     id="path134-6"
     d="m 7.443026,126.66688 h 6.622269"
     style="clip-rule:evenodd;fill:none;fill-rule:evenodd;stroke:#d08c59;stroke-width:0.227961px;stroke-linecap:round;stroke-linejoin:round;stroke-miterlimit:1.5" /><path
     id="path135-0"
     d="m 25.753642,126.66688 h 6.62227"
     style="clip-rule:evenodd;fill:none;fill-rule:evenodd;stroke:#d08c59;stroke-width:0.227961px;stroke-linecap:round;stroke-linejoin:round;stroke-miterlimit:1.5" /></svg>
