<?xml version="1.0" encoding="UTF-8" standalone="no"?>
<!-- Created with Inkscape (http://www.inkscape.org/) -->

<svg
   width="20.32mm"
   height="128.5mm"
   viewBox="0 0 20.320001 128.50002"
   version="1.1"
   id="svg8"
   inkscape:version="1.2 (dc2aeda, 2022-05-15)"
   sodipodi:docname="CVfunkBlank4HP-dark.svg"
   xml:space="preserve"
   xmlns:inkscape="http://www.inkscape.org/namespaces/inkscape"
   xmlns:sodipodi="http://sodipodi.sourceforge.net/DTD/sodipodi-0.dtd"
   xmlns="http://www.w3.org/2000/svg"
   xmlns:svg="http://www.w3.org/2000/svg"
   xmlns:rdf="http://www.w3.org/1999/02/22-rdf-syntax-ns#"
   xmlns:cc="http://creativecommons.org/ns#"
   xmlns:dc="http://purl.org/dc/elements/1.1/"><defs
     id="defs2"><clipPath
       id="_clip1">
            <rect
   x="1625"
   y="1115"
   width="205"
   height="598"
   id="rect6630" />
        </clipPath></defs><sodipodi:namedview
     id="base"
     pagecolor="#ffffff"
     bordercolor="#666666"
     borderopacity="1.0"
     inkscape:pageopacity="0.0"
     inkscape:pageshadow="2"
     inkscape:zoom="0.97209519"
     inkscape:cx="75.609879"
     inkscape:cy="204.71246"
     inkscape:document-units="mm"
     inkscape:current-layer="svg8"
     showgrid="false"
     units="mm"
     inkscape:snap-bbox="true"
     inkscape:snap-page="true"
     inkscape:bbox-nodes="false"
     inkscape:snap-bbox-edge-midpoints="false"
     inkscape:window-width="1512"
     inkscape:window-height="916"
     inkscape:window-x="0"
     inkscape:window-y="38"
     inkscape:window-maximized="0"
     inkscape:snap-bbox-midpoints="true"
     inkscape:snap-nodes="false"
     inkscape:showpageshadow="2"
     inkscape:pagecheckerboard="0"
     inkscape:deskcolor="#d1d1d1" /><metadata
     id="metadata5"><rdf:RDF><cc:Work
         rdf:about=""><dc:format>image/svg+xml</dc:format><dc:type
           rdf:resource="http://purl.org/dc/dcmitype/StillImage" /></cc:Work></rdf:RDF></metadata><rect
     id="rect1"
     x="4.7184479e-16"
     y="-0.72158051"
     width="20.32"
     height="129.94316"
     style="clip-rule:evenodd;fill:#202020;fill-rule:evenodd;stroke-width:0.317257;stroke-linejoin:round;stroke-miterlimit:1.5" /><rect
     style="clip-rule:evenodd;display:none;fill:#3b3b3b;fill-opacity:1;fill-rule:evenodd;stroke:#d08c59;stroke-width:0.351999;stroke-linejoin:round;stroke-miterlimit:1.5;stroke-dasharray:none;stroke-opacity:1"
     id="rect2"
     width="17.226421"
     height="111.5742"
     x="19.288095"
     y="11.274678"
     rx="4"
     ry="4" /><g
     transform="matrix(0.13694857,0,0,0.17250733,-404.92521,-150.33416)"
     id="g761"
     style="clip-rule:evenodd;fill-rule:evenodd;stroke-width:1.53375;stroke-linejoin:round;stroke-miterlimit:1.5">
        
    </g><g
     transform="matrix(0,-0.15666788,0.15666788,0,-193.957,421.70148)"
     id="g935"
     style="clip-rule:evenodd;fill-rule:evenodd;stroke-width:1.53375;stroke-linejoin:round;stroke-miterlimit:1.5">
        <g
   transform="matrix(41.6667,0,0,41.6667,2081.89,1361.08)"
   id="g931"
   style="stroke-width:1.53375">
        </g>
        <g
   aria-label="CV funk"
   id="text933"
   style="font-style:italic;font-weight:700;font-size:41.667px;font-family:Menlo-BoldItalic, Menlo, monospace;fill:#ffffff"><path
     d="m 1925.5366,1360.2051 q -1.5666,0.7324 -3.2145,1.0987 -1.6276,0.3662 -3.357,0.3662 -4.8625,0 -7.4463,-2.7873 -2.5635,-2.8077 -2.5635,-8.0974 0,-4.6794 1.4241,-8.9723 1.4445,-4.3131 3.9063,-7.1004 1.9735,-2.238 4.6184,-3.3977 2.6449,-1.1597 5.7577,-1.1597 1.6683,0 3.2552,0.3662 1.6073,0.3663 3.1739,1.0987 l -1.3021,6.6732 q -1.0173,-1.3835 -2.5025,-2.0752 -1.4649,-0.7121 -3.2552,-0.7121 -1.6277,0 -3.1942,0.9969 -1.5666,0.9766 -2.6653,2.706 -1.4038,2.1769 -2.2786,5.249 -0.8545,3.0518 -0.8545,5.7984 0,2.9704 1.2817,4.5573 1.2818,1.5666 3.6825,1.5666 1.648,0 3.2756,-0.6714 1.648,-0.6917 3.5604,-2.1769 z"
     id="path507" /><path
     d="m 1941.9145,1356.1564 10.2947,-25.4518 h 6.1239 l -13.1227,30.3754 h -8.3822 l -1.3224,-30.3754 h 5.9204 z"
     id="path509" /><path
     d="m 1998.9625,1336.7471 -0.3255,1.5462 h 6.9987 l -0.8748,4.5777 h -6.9988 l -3.54,18.209 h -5.9612 l 3.5401,-18.209 h -5.5543 l 0.8749,-4.5777 h 5.5542 l 0.3255,-1.5869 q 0.8545,-4.2929 2.7263,-5.7781 1.8718,-1.5055 6.7343,-1.5055 h 4.8828 l -0.8748,4.5777 h -4.6794 q -1.3225,0 -1.9125,0.5696 -0.59,0.5494 -0.9155,2.177 z"
     id="path511" /><path
     d="m 2009.1351,1353.125 2.9094,-14.8317 h 5.9204 l -2.6652,13.9161 q -0.1017,0.5494 -0.1628,1.0783 -0.041,0.529 -0.041,1.0376 0,1.1801 0.5901,1.8311 0.59,0.6307 1.6886,0.6307 1.6887,0 2.828,-1.4241 1.1597,-1.4242 1.7293,-4.2319 l 2.4822,-12.8378 h 5.9204 l -4.4149,22.7867 h -5.9611 l 0.6713,-3.3773 q -0.8951,1.831 -2.6245,2.9093 -1.7293,1.058 -3.7842,1.058 -2.6245,0 -4.0284,-1.4242 -1.4038,-1.4445 -1.4038,-4.1301 0,-0.5696 0.081,-1.3021 0.081,-0.7324 0.2645,-1.6886 z"
     id="path513" /><path
     d="m 2054.1387,1346.2686 -2.8687,14.8114 h -5.9611 l 2.7059,-13.8755 q 0.1017,-0.529 0.1424,-1.0579 0.061,-0.5494 0.061,-1.0987 0,-1.18 -0.5901,-1.7904 -0.59,-0.6307 -1.709,-0.6307 -1.6683,0 -2.8686,1.4649 -1.1801,1.4649 -1.709,4.1911 l -2.4618,12.7972 h -5.9611 l 4.4149,-22.7867 h 5.9611 l -0.651,3.418 q 0.9765,-1.8717 2.6855,-2.9094 1.709,-1.0579 3.7639,-1.0579 2.6042,0 4.008,1.4242 1.4038,1.4038 1.4038,3.9876 0,0.6104 -0.1017,1.3835 -0.081,0.7731 -0.2645,1.7293 z"
     id="path515" /><path
     d="m 2064.5962,1329.4228 h 5.9611 l -3.0925,15.91 8.2195,-7.0395 h 7.5277 l -10.2743,8.5043 6.368,14.2824 h -6.3273 l -4.5167,-10.6609 -2.36,1.9531 -1.6683,8.7078 h -5.9612 z"
     id="path517" /></g>
    </g><g
     transform="matrix(0.14168256,0,0,0.18062847,-418.96002,-163.79934)"
     id="g745"
     style="clip-rule:evenodd;fill-rule:evenodd;stroke:#d08c58;stroke-width:1.10260492;stroke-linejoin:round;stroke-miterlimit:1.5;stroke-dasharray:none;stroke-opacity:1">
        <path
   d="m 2982,1262 60,-21"
   style="fill:none;stroke:#d08c58;stroke-width:1.10260492;stroke-dasharray:none;stroke-opacity:1"
   id="path743" />
    </g><g
     transform="matrix(0.14168256,0,0,0.18062847,-418.96002,-163.79934)"
     id="g749"
     style="clip-rule:evenodd;fill-rule:evenodd;stroke:#d08c58;stroke-width:1.10260492;stroke-linejoin:round;stroke-miterlimit:1.5;stroke-dasharray:none;stroke-opacity:1">
        <path
   d="m 2986,1577 57,-23"
   style="fill:none;stroke:#d08c58;stroke-width:1.10260492;stroke-dasharray:none;stroke-opacity:1"
   id="path747" />
    </g><g
     transform="matrix(0.14168256,0,0,0.18062847,-420.13258,-166.85322)"
     id="g753"
     style="clip-rule:evenodd;fill-rule:evenodd;stroke:#d08c58;stroke-width:1.10260492;stroke-linejoin:round;stroke-miterlimit:1.5;stroke-dasharray:none;stroke-opacity:1">
        <path
   d="m 2986,1574 42,-19"
   style="fill:none;stroke:#d08c58;stroke-width:1.10260492;stroke-dasharray:none;stroke-opacity:1"
   id="path751" />
    </g><g
     transform="matrix(0.14168256,0,0,0.18062847,-415.89211,-161.02682)"
     id="g757"
     style="clip-rule:evenodd;fill-rule:evenodd;stroke:#d08c58;stroke-width:1.10260492;stroke-linejoin:round;stroke-miterlimit:1.5;stroke-dasharray:none;stroke-opacity:1">
        <path
   d="m 2985,1577 32,-17"
   style="fill:none;stroke:#d08c58;stroke-width:1.10260492;stroke-dasharray:none;stroke-opacity:1"
   id="path755" />
    </g><g
     transform="matrix(0.14168256,0,0,0.18062847,-418.96002,-163.79934)"
     id="g765"
     style="clip-rule:evenodd;fill-rule:evenodd;stroke:#d08c58;stroke-width:1.10260492;stroke-linejoin:round;stroke-miterlimit:1.5;stroke-dasharray:none;stroke-opacity:1">
        <path
   d="m 2971,1484 57,20"
   style="fill:none;stroke:#d08c58;stroke-width:1.10260492;stroke-dasharray:none;stroke-opacity:1"
   id="path763" />
    </g><g
     transform="matrix(0.14168256,0,0,0.18062847,-418.96002,-163.79934)"
     id="g769"
     style="clip-rule:evenodd;fill-rule:evenodd;stroke:#d08c58;stroke-width:1.10260492;stroke-linejoin:round;stroke-miterlimit:1.5;stroke-dasharray:none;stroke-opacity:1">
        <path
   d="m 2982,1468 62,21"
   style="fill:none;stroke:#d08c58;stroke-width:1.10260492;stroke-dasharray:none;stroke-opacity:1"
   id="path767" />
    </g><g
     transform="matrix(0.14168256,0,0,0.18062847,-418.96002,-163.79934)"
     id="g773"
     style="clip-rule:evenodd;fill-rule:evenodd;stroke:#d08c58;stroke-width:1.10260492;stroke-linejoin:round;stroke-miterlimit:1.5;stroke-dasharray:none;stroke-opacity:1">
        <path
   d="m 3004,1452 43,18"
   style="fill:none;stroke:#d08c58;stroke-width:1.10260492;stroke-dasharray:none;stroke-opacity:1"
   id="path771" />
    </g><g
     transform="matrix(0.14168256,0,0,0.18062847,-418.96002,-163.79934)"
     id="g777"
     style="clip-rule:evenodd;fill-rule:evenodd;stroke:#d08c58;stroke-width:1.10260492;stroke-linejoin:round;stroke-miterlimit:1.5;stroke-dasharray:none;stroke-opacity:1">
        <path
   d="m 3008,1429 31,-14"
   style="fill:none;stroke:#d08c58;stroke-width:1.10260492;stroke-dasharray:none;stroke-opacity:1"
   id="path775" />
    </g><g
     transform="matrix(0.14168256,0,0,0.18062847,-418.96002,-163.79934)"
     id="g781"
     style="clip-rule:evenodd;fill-rule:evenodd;stroke:#d08c58;stroke-width:1.10260492;stroke-linejoin:round;stroke-miterlimit:1.5;stroke-dasharray:none;stroke-opacity:1">
        <path
   d="m 2992,1415 50,-18"
   style="fill:none;stroke:#d08c58;stroke-width:1.10260492;stroke-dasharray:none;stroke-opacity:1"
   id="path779" />
    </g><g
     transform="matrix(0.14168256,0,0,0.18062847,-418.96002,-163.79934)"
     id="g785"
     style="clip-rule:evenodd;fill-rule:evenodd;stroke:#d08c58;stroke-width:1.10260492;stroke-linejoin:round;stroke-miterlimit:1.5;stroke-dasharray:none;stroke-opacity:1">
        <path
   d="m 2977,1400 44,-14"
   style="fill:none;stroke:#d08c58;stroke-width:1.10260492;stroke-dasharray:none;stroke-opacity:1"
   id="path783" />
    </g><g
     transform="matrix(0.14168256,0,0,0.18062847,-418.96002,-163.79934)"
     id="g793"
     style="clip-rule:evenodd;fill-rule:evenodd;stroke:#d08c58;stroke-width:1.10260492;stroke-linejoin:round;stroke-miterlimit:1.5;stroke-dasharray:none;stroke-opacity:1">
        <path
   d="m 2981,1341 24,16"
   style="fill:none;stroke:#d08c58;stroke-width:1.10260492;stroke-dasharray:none;stroke-opacity:1"
   id="path791" />
    </g><g
     transform="matrix(0.14168256,0,0,0.18062847,-418.96002,-163.79934)"
     id="g797"
     style="clip-rule:evenodd;fill-rule:evenodd;stroke:#d08c58;stroke-width:1.10260492;stroke-linejoin:round;stroke-miterlimit:1.5;stroke-dasharray:none;stroke-opacity:1">
        <path
   d="m 2972,1325 55,24"
   style="fill:none;stroke:#d08c58;stroke-width:1.10260492;stroke-dasharray:none;stroke-opacity:1"
   id="path795" />
    </g><g
     transform="matrix(0.14168256,0,0,0.18062847,-418.96002,-163.79934)"
     id="g801"
     style="clip-rule:evenodd;fill-rule:evenodd;stroke:#d08c58;stroke-width:1.10260492;stroke-linejoin:round;stroke-miterlimit:1.5;stroke-dasharray:none;stroke-opacity:1">
        <path
   d="m 2986,1310 57,18"
   style="fill:none;stroke:#d08c58;stroke-width:1.10260492;stroke-dasharray:none;stroke-opacity:1"
   id="path799" />
    </g><g
     transform="matrix(0.14168256,0,0,0.18062847,-418.96002,-163.79934)"
     id="g805"
     style="clip-rule:evenodd;fill-rule:evenodd;stroke:#d08c58;stroke-width:1.10260492;stroke-linejoin:round;stroke-miterlimit:1.5;stroke-dasharray:none;stroke-opacity:1">
        <path
   d="m 3006,1299 25,7"
   style="fill:none;stroke:#d08c58;stroke-width:1.10260492;stroke-dasharray:none;stroke-opacity:1"
   id="path803" />
    </g><g
     transform="matrix(0.14168256,0,0,0.18062847,-418.96002,-163.79934)"
     id="g809"
     style="clip-rule:evenodd;fill-rule:evenodd;stroke:#d08c58;stroke-width:1.10260492;stroke-linejoin:round;stroke-miterlimit:1.5;stroke-dasharray:none;stroke-opacity:1">
        <path
   d="m 3003,1278 36,-19"
   style="fill:none;stroke:#d08c58;stroke-width:1.10260492;stroke-dasharray:none;stroke-opacity:1"
   id="path807" />
    </g><g
     transform="matrix(0.14168256,0,0,0.18062847,-418.96002,-163.79934)"
     id="g813"
     style="clip-rule:evenodd;fill-rule:evenodd;stroke:#d08c58;stroke-width:1.10260492;stroke-linejoin:round;stroke-miterlimit:1.5;stroke-dasharray:none;stroke-opacity:1">
        <path
   d="m 2971,1247 54,-21"
   style="fill:none;stroke:#d08c58;stroke-width:1.10260492;stroke-dasharray:none;stroke-opacity:1"
   id="path811" />
    </g><g
     transform="matrix(0.14168256,0,0,0.18062847,-418.96002,-163.79934)"
     id="g821"
     style="clip-rule:evenodd;fill-rule:evenodd;stroke:#d08c58;stroke-width:1.10260492;stroke-linejoin:round;stroke-miterlimit:1.5;stroke-dasharray:none;stroke-opacity:1">
        <path
   d="m 2981,1184 28,15"
   style="fill:none;stroke:#d08c58;stroke-width:1.10260492;stroke-dasharray:none;stroke-opacity:1"
   id="path819" />
    </g><g
     transform="matrix(0.14168256,0,0,0.18062847,-418.96002,-163.79934)"
     id="g825"
     style="clip-rule:evenodd;fill-rule:evenodd;stroke:#d08c58;stroke-width:1.10260492;stroke-linejoin:round;stroke-miterlimit:1.5;stroke-dasharray:none;stroke-opacity:1">
        <path
   d="m 2971,1166 53,23"
   style="fill:none;stroke:#d08c58;stroke-width:1.10260492;stroke-dasharray:none;stroke-opacity:1"
   id="path823" />
    </g><g
     transform="matrix(0.14168256,0,0,0.18062847,-418.96002,-163.79934)"
     id="g829"
     style="clip-rule:evenodd;fill-rule:evenodd;stroke:#d08c58;stroke-width:1.10260492;stroke-linejoin:round;stroke-miterlimit:1.5;stroke-dasharray:none;stroke-opacity:1">
        <path
   d="m 2986,1149 59,22"
   style="fill:none;stroke:#d08c58;stroke-width:1.10260492;stroke-dasharray:none;stroke-opacity:1"
   id="path827" />
    </g><g
     transform="matrix(0.14168256,0,0,0.18062847,-418.96002,-163.79934)"
     id="g833"
     style="clip-rule:evenodd;fill-rule:evenodd;stroke:#d08c58;stroke-width:1.10260492;stroke-linejoin:round;stroke-miterlimit:1.5;stroke-dasharray:none;stroke-opacity:1">
        <path
   d="m 3003,1136 26,12"
   style="fill:none;stroke:#d08c58;stroke-width:1.10260492;stroke-dasharray:none;stroke-opacity:1"
   id="path831" />
    </g><g
     transform="matrix(0.14168256,0,0,0.18062847,-418.96002,-163.79934)"
     id="g837"
     style="clip-rule:evenodd;fill-rule:evenodd;stroke:#d08c58;stroke-width:1.10260492;stroke-linejoin:round;stroke-miterlimit:1.5;stroke-dasharray:none;stroke-opacity:1">
        <path
   d="m 2987,1108 59,-22"
   style="fill:none;stroke:#d08c58;stroke-width:1.10260492;stroke-dasharray:none;stroke-opacity:1"
   id="path835" />
    </g><g
     transform="matrix(0.14168256,0,0,0.18062847,-418.96002,-163.79934)"
     id="g841"
     style="clip-rule:evenodd;fill-rule:evenodd;stroke:#d08c58;stroke-width:1.10260492;stroke-linejoin:round;stroke-miterlimit:1.5;stroke-dasharray:none;stroke-opacity:1">
        <path
   d="m 3007,1119 22,-10"
   style="fill:none;stroke:#d08c58;stroke-width:1.10260492;stroke-dasharray:none;stroke-opacity:1"
   id="path839" />
    </g><g
     transform="matrix(0.14168256,0,0,0.18062847,-418.96002,-163.79934)"
     id="g845"
     style="clip-rule:evenodd;fill-rule:evenodd;stroke:#d08c58;stroke-width:1.10260492;stroke-linejoin:round;stroke-miterlimit:1.5;stroke-dasharray:none;stroke-opacity:1">
        <path
   d="m 2972,1090 56,-17"
   style="fill:none;stroke:#d08c58;stroke-width:1.10260492;stroke-dasharray:none;stroke-opacity:1"
   id="path843" />
    </g><g
     transform="matrix(0.14168256,0,0,0.18062847,-418.96002,-163.79934)"
     id="g853"
     style="clip-rule:evenodd;fill-rule:evenodd;stroke:#d08c58;stroke-width:1.10260492;stroke-linejoin:round;stroke-miterlimit:1.5;stroke-dasharray:none;stroke-opacity:1">
        <path
   d="m 2988,1031 22,7"
   style="fill:none;stroke:#d08c58;stroke-width:1.10260492;stroke-dasharray:none;stroke-opacity:1"
   id="path851" />
    </g><g
     transform="matrix(0.14168256,0,0,0.18062847,-418.96002,-163.79934)"
     id="g857"
     style="clip-rule:evenodd;fill-rule:evenodd;stroke:#d08c58;stroke-width:1.10260492;stroke-linejoin:round;stroke-miterlimit:1.5;stroke-dasharray:none;stroke-opacity:1">
        <path
   d="m 2970,1008 58,19"
   style="fill:none;stroke:#d08c58;stroke-width:1.10260492;stroke-dasharray:none;stroke-opacity:1"
   id="path855" />
    </g><g
     transform="matrix(0.14168256,0,0,0.18062847,-418.96002,-163.79934)"
     id="g861"
     style="clip-rule:evenodd;fill-rule:evenodd;stroke:#d08c58;stroke-width:1.10260492;stroke-linejoin:round;stroke-miterlimit:1.5;stroke-dasharray:none;stroke-opacity:1">
        <path
   d="m 2985,990 60,23"
   style="fill:none;stroke:#d08c58;stroke-width:1.10260492;stroke-dasharray:none;stroke-opacity:1"
   id="path859" />
    </g><g
     transform="matrix(0.14168256,0,0,0.18062847,-418.96002,-163.79934)"
     id="g865"
     style="clip-rule:evenodd;fill-rule:evenodd;stroke:#d08c58;stroke-width:1.10260492;stroke-linejoin:round;stroke-miterlimit:1.5;stroke-dasharray:none;stroke-opacity:1">
        <path
   d="m 3005,978 30,15"
   style="fill:none;stroke:#d08c58;stroke-width:1.10260492;stroke-dasharray:none;stroke-opacity:1"
   id="path863" />
    </g><g
     transform="matrix(0.14168256,0,0,0.18062847,-418.96002,-163.79934)"
     id="g869"
     style="clip-rule:evenodd;fill-rule:evenodd;stroke:#d08c58;stroke-width:1.10260492;stroke-linejoin:round;stroke-miterlimit:1.5;stroke-dasharray:none;stroke-opacity:1">
        <path
   d="m 2991,951 56,-22"
   style="fill:none;stroke:#d08c58;stroke-width:1.10260492;stroke-dasharray:none;stroke-opacity:1"
   id="path867" />
    </g><g
     transform="matrix(0.14168256,0,0,0.18062847,-418.96002,-163.79934)"
     id="g873"
     style="clip-rule:evenodd;fill-rule:evenodd;stroke:#d08c58;stroke-width:1.10260492;stroke-linejoin:round;stroke-miterlimit:1.5;stroke-dasharray:none;stroke-opacity:1">
        <path
   d="m 3009,960 18,-10"
   style="fill:none;stroke:#d08c58;stroke-width:1.10260492;stroke-dasharray:none;stroke-opacity:1"
   id="path871" />
    </g><g
     transform="matrix(0.14168256,0,0,0.18062847,-418.96002,-163.79934)"
     id="g877"
     style="clip-rule:evenodd;fill-rule:evenodd;stroke:#d08c58;stroke-width:1.10260492;stroke-linejoin:round;stroke-miterlimit:1.5;stroke-dasharray:none;stroke-opacity:1">
        <path
   d="m 2974,934 60,-18"
   style="fill:none;stroke:#d08c58;stroke-width:1.10260492;stroke-dasharray:none;stroke-opacity:1"
   id="path875" />
    </g><g
     transform="matrix(0.14168256,0,0,0.18062847,-418.96002,-163.79934)"
     id="g881"
     style="clip-rule:evenodd;fill-rule:evenodd;stroke:#d08c58;stroke-width:1.10260492;stroke-linejoin:round;stroke-miterlimit:1.5;stroke-dasharray:none;stroke-opacity:1">
        <path
   d="m 2975,915 36,-13"
   style="fill:none;stroke:#d08c58;stroke-width:1.10260492;stroke-dasharray:none;stroke-opacity:1"
   id="path879" />
    </g><g
     transform="matrix(0.14168256,0,0,0.18062847,-418.94039,-150.08308)"
     id="g885"
     style="clip-rule:evenodd;fill-rule:evenodd;stroke:#d08c58;stroke-width:1.10260492;stroke-linejoin:round;stroke-miterlimit:1.5;stroke-dasharray:none;stroke-opacity:1">
        <path
   d="m 3012.22,896.558 c 24.22,13.465 48.56,29.718 38.6,41.579 -37.91,45.121 -112.56,53.586 -77.11,90.103 7.13,7.35 28.38,19.73 29.75,21.16"
   style="fill:none;stroke:#d08c58;stroke-width:1.10260492;stroke-linecap:round;stroke-dasharray:none;stroke-opacity:1"
   id="path883" />
    </g><g
     transform="matrix(0.14168256,0,0,0.18062847,-418.94039,-164.44906)"
     id="g889"
     style="clip-rule:evenodd;fill-rule:evenodd;stroke:#d08c58;stroke-width:1.10260492;stroke-linejoin:round;stroke-miterlimit:1.5;stroke-dasharray:none;stroke-opacity:1">
        <path
   d="m 3010.22,898.558 c 24.22,13.465 50.56,27.718 40.6,39.579 -37.91,45.121 -112.56,53.586 -77.11,90.103 7.13,7.35 28.38,19.73 29.75,21.16"
   style="fill:none;stroke:#d08c58;stroke-width:1.10260492;stroke-linecap:round;stroke-dasharray:none;stroke-opacity:1"
   id="path887" />
    </g><g
     transform="matrix(0.14168256,0,0,0.18062847,-419.4758,-192.98836)"
     id="g893"
     style="clip-rule:evenodd;fill-rule:evenodd;stroke:#d08c58;stroke-width:1.10260492;stroke-linejoin:round;stroke-miterlimit:1.5;stroke-dasharray:none;stroke-opacity:1">
        <path
   d="m 2973.71,1028.24 c 7.13,7.35 28.38,19.73 29.75,21.16"
   style="fill:none;stroke:#d08c58;stroke-width:1.10260492;stroke-linecap:round;stroke-dasharray:none;stroke-opacity:1"
   id="path891" />
    </g><g
     transform="matrix(0.13694857,0,0,0.17250733,-403.81427,-28.280046)"
     id="g897"
     style="clip-rule:evenodd;fill-rule:evenodd;stroke:#d08c58;stroke-width:1.14759514;stroke-linejoin:round;stroke-miterlimit:1.5;stroke-dasharray:none;stroke-opacity:1">
        <path
   d="m 3010.22,898.558 c 24.22,13.465 50.56,27.718 40.6,39.579"
   style="fill:none;stroke:#d08c58;stroke-width:1.14759514;stroke-linecap:round;stroke-dasharray:none;stroke-opacity:1"
   id="path895" />
    </g><g
     transform="matrix(0.14168256,0,0,0.18062847,-418.94039,-178.87007)"
     id="g901"
     style="clip-rule:evenodd;fill-rule:evenodd;stroke:#d08c58;stroke-width:1.10260492;stroke-linejoin:round;stroke-miterlimit:1.5;stroke-dasharray:none;stroke-opacity:1">
        <path
   d="m 3050.82,938.137 c -37.91,45.121 -112.56,53.586 -77.11,90.103 7.13,7.35 28.38,19.73 29.75,21.16"
   style="fill:none;stroke:#d08c58;stroke-width:1.10260492;stroke-linecap:round;stroke-dasharray:none;stroke-opacity:1"
   id="path899" />
    </g><g
     transform="matrix(0.14168256,0,0,0.18062847,-418.94039,-135.59129)"
     id="g905"
     style="clip-rule:evenodd;fill-rule:evenodd;stroke:#d08c58;stroke-width:1.10260492;stroke-linejoin:round;stroke-miterlimit:1.5;stroke-dasharray:none;stroke-opacity:1">
        <path
   d="m 3011.22,896.558 c 24.22,13.465 49.56,29.718 39.6,41.579 -37.91,45.121 -112.56,53.586 -77.11,90.103 7.13,7.35 26.38,19.73 27.75,21.16"
   style="fill:none;stroke:#d08c58;stroke-width:1.10260492;stroke-linecap:round;stroke-dasharray:none;stroke-opacity:1"
   id="path903" />
    </g><g
     transform="matrix(0.14168256,0,0,0.18062847,-418.94039,-121.29095)"
     id="g909"
     style="clip-rule:evenodd;fill-rule:evenodd;stroke:#d08c58;stroke-width:1.10260492;stroke-linejoin:round;stroke-miterlimit:1.5;stroke-dasharray:none;stroke-opacity:1">
        <path
   d="m 3011.22,897.558 c 24.22,13.465 49.56,28.718 39.6,40.579 -37.91,45.121 -112.56,53.586 -77.11,90.103 7.13,7.35 28.38,19.73 29.75,21.16"
   style="fill:none;stroke:#d08c58;stroke-width:1.10260492;stroke-linecap:round;stroke-dasharray:none;stroke-opacity:1"
   id="path907" />
    </g><g
     transform="matrix(0.14168256,0,0,0.18062847,-418.94039,-106.5934)"
     id="g913"
     style="clip-rule:evenodd;fill-rule:evenodd;stroke:#d08c58;stroke-width:1.10260492;stroke-linejoin:round;stroke-miterlimit:1.5;stroke-dasharray:none;stroke-opacity:1">
        <path
   d="m 3010.22,896.558 c 24.22,13.465 50.56,29.718 40.6,41.579 -37.91,45.121 -112.56,50.586 -77.11,87.103 7.13,7.35 28.38,19.73 29.75,21.16"
   style="fill:none;stroke:#d08c58;stroke-width:1.10260492;stroke-linecap:round;stroke-dasharray:none;stroke-opacity:1"
   id="path911" />
    </g><g
     transform="matrix(0.14168256,0,0,0.18062847,-418.94039,-92.310745)"
     id="g917"
     style="clip-rule:evenodd;fill-rule:evenodd;stroke:#d08c58;stroke-width:1.10260492;stroke-linejoin:round;stroke-miterlimit:1.5;stroke-dasharray:none;stroke-opacity:1">
        <path
   d="m 3013.22,896.558 c 24.22,13.465 47.56,29.718 37.6,41.579 -37.91,45.121 -108.56,44.586 -73.11,81.103 7.13,7.35 28.38,19.73 29.75,21.16"
   style="fill:none;stroke:#d08c58;stroke-width:1.10260492;stroke-linecap:round;stroke-dasharray:none;stroke-opacity:1"
   id="path915" />
    </g><g
     transform="matrix(0.14168256,0,0,0.18062847,-418.94039,-78.599778)"
     id="g921"
     style="clip-rule:evenodd;fill-rule:evenodd;stroke:#d08c58;stroke-width:1.10260492;stroke-linejoin:round;stroke-miterlimit:1.5;stroke-dasharray:none;stroke-opacity:1">
        <path
   d="m 3010.22,898.558 c 24.22,13.465 50.56,27.718 40.6,39.579 -37.91,45.121 -110.56,52.586 -75.11,89.103 7.13,7.35 27.38,18.73 28.75,20.16"
   style="fill:none;stroke:#d08c58;stroke-width:1.10260492;stroke-linecap:round;stroke-dasharray:none;stroke-opacity:1"
   id="path919" />
    </g><g
     transform="matrix(0.14168256,0,0,0.18062847,-418.94039,-63.802331)"
     id="g925"
     style="clip-rule:evenodd;fill-rule:evenodd;stroke:#d08c58;stroke-width:1.10260492;stroke-linejoin:round;stroke-miterlimit:1.5;stroke-dasharray:none;stroke-opacity:1">
        <path
   d="m 3021.22,888.558 c 24.22,13.465 42.56,32.718 32.6,44.579 -37.91,45.121 -113.56,54.586 -80.11,91.103 6.91,7.55 29.38,18.73 30.75,20.16"
   style="fill:none;stroke:#d08c58;stroke-width:1.10260492;stroke-linecap:round;stroke-dasharray:none;stroke-opacity:1"
   id="path923" />
    </g><g
     transform="matrix(0.14168256,0,0,0.18062847,-418.94039,-50.062646)"
     id="g929"
     style="clip-rule:evenodd;fill-rule:evenodd;stroke:#d08c58;stroke-width:1.10260492;stroke-linejoin:round;stroke-miterlimit:1.5;stroke-dasharray:none;stroke-opacity:1">
        <path
   d="m 3016.22,896.558 c 24.22,13.465 44.56,29.718 34.6,41.579 -37.91,45.121 -112.56,53.586 -77.11,90.103"
   style="fill:none;stroke:#d08c58;stroke-width:1.10260492;stroke-linecap:round;stroke-dasharray:none;stroke-opacity:1"
   id="path927" />
    </g><g
     transform="matrix(0.1784705,0,0,0.18062847,-527.48436,-163.79934)"
     id="g939"
     style="clip-rule:evenodd;fill-rule:evenodd;stroke:#d08c58;stroke-width:0.98241482;stroke-linejoin:round;stroke-miterlimit:1.5;stroke-dasharray:none;stroke-opacity:1">
        <path
   d="m 2973,1074 24,-18"
   style="fill:none;stroke:#d08c58;stroke-width:0.98241482;stroke-dasharray:none;stroke-opacity:1"
   id="path937" />
    </g></svg>
