<?xml version="1.0" encoding="UTF-8" standalone="no"?>
<!-- Created with Inkscape (http://www.inkscape.org/) -->

<svg
   width="50.599998mm"
   height="128.5mm"
   viewBox="0 0 50.600003 128.50002"
   version="1.1"
   id="svg8"
   inkscape:version="1.3.2 (091e20e, 2023-11-25)"
   sodipodi:docname="Decima.svg"
   xml:space="preserve"
   xmlns:inkscape="http://www.inkscape.org/namespaces/inkscape"
   xmlns:sodipodi="http://sodipodi.sourceforge.net/DTD/sodipodi-0.dtd"
   xmlns="http://www.w3.org/2000/svg"
   xmlns:svg="http://www.w3.org/2000/svg"
   xmlns:rdf="http://www.w3.org/1999/02/22-rdf-syntax-ns#"
   xmlns:cc="http://creativecommons.org/ns#"
   xmlns:dc="http://purl.org/dc/elements/1.1/"
   xmlns:serif="http://www.serif.com/"><defs
     id="defs2"><linearGradient
       id="_Linear1"
       x1="0"
       y1="0"
       x2="1"
       y2="-0.0028738601"
       gradientUnits="userSpaceOnUse"
       gradientTransform="matrix(75.07254,292.27101,-293.02254,74.879903,36.973994,42.144002)"><stop
         offset="0"
         style="stop-color:#e6e6e6;stop-opacity:1"
         id="stop1" /><stop
         offset="1"
         style="stop-color:#e6e6e6;stop-opacity:0"
         id="stop2" /></linearGradient></defs><sodipodi:namedview
     id="base"
     pagecolor="#ffffff"
     bordercolor="#666666"
     borderopacity="1.0"
     inkscape:pageopacity="0.0"
     inkscape:pageshadow="2"
     inkscape:zoom="1.6234774"
     inkscape:cx="50.816845"
     inkscape:cy="257.47202"
     inkscape:document-units="mm"
     inkscape:current-layer="g3"
     showgrid="false"
     units="mm"
     inkscape:snap-bbox="true"
     inkscape:snap-page="true"
     inkscape:bbox-nodes="false"
     inkscape:snap-bbox-edge-midpoints="false"
     inkscape:window-width="1392"
     inkscape:window-height="1027"
     inkscape:window-x="74"
     inkscape:window-y="62"
     inkscape:window-maximized="0"
     inkscape:snap-bbox-midpoints="true"
     inkscape:snap-nodes="false"
     inkscape:showpageshadow="2"
     inkscape:pagecheckerboard="0"
     inkscape:deskcolor="#d1d1d1"
     showguides="true" /><metadata
     id="metadata5"><rdf:RDF><cc:Work
         rdf:about=""><dc:format>image/svg+xml</dc:format><dc:type
           rdf:resource="http://purl.org/dc/dcmitype/StillImage" /></cc:Work></rdf:RDF></metadata><g
     id="Layer-1"
     serif:id="Layer 1"
     style="clip-rule:evenodd;fill-rule:evenodd;stroke-linejoin:round;stroke-miterlimit:1.5"
     transform="matrix(0.35618918,0,0,0.35618918,-0.39015967,-0.81904413)"><rect
       id="rect1"
       x="0.24830064"
       y="0.79500002"
       width="143.75348"
       height="364.815"
       style="fill:#e5e5e5;stroke-width:0.999997;fill-opacity:1" /><path
       id="path20"
       style="clip-rule:evenodd;fill:none;fill-rule:evenodd;stroke:#000000;stroke-width:0.990422;stroke-linejoin:round;stroke-miterlimit:1.5;stroke-dasharray:none;stroke-opacity:1.0"
       d="m 22.024949,78.966682 c 16.19308,-2.335245 33.31532,-3.587178 51.02688,-3.587179 16.63021,10e-7 32.740861,1.10373 48.050641,3.171607"
       sodipodi:nodetypes="csc" /><path
       id="path9"
       style="clip-rule:evenodd;fill:none;fill-rule:evenodd;stroke:#000000;stroke-width:0.990422;stroke-linejoin:round;stroke-miterlimit:1.5;stroke-dasharray:none;stroke-opacity:1.0"
       d="m 22.024949,102.65744 c 16.19308,-2.33525 33.31532,-3.587179 51.02688,-3.58718 16.63021,10e-7 32.740861,1.10373 48.050641,3.17161"
       sodipodi:nodetypes="csc" /><path
       id="path10"
       style="clip-rule:evenodd;fill:none;fill-rule:evenodd;stroke:#000000;stroke-width:0.990422;stroke-linejoin:round;stroke-miterlimit:1.5;stroke-dasharray:none;stroke-opacity:1.0"
       d="m 22.024949,126.34819 c 16.19308,-2.33524 33.31532,-3.58718 51.02688,-3.58718 16.63021,0 32.740861,1.10373 48.050641,3.17161"
       sodipodi:nodetypes="csc" /><path
       id="path11"
       style="clip-rule:evenodd;fill:none;fill-rule:evenodd;stroke:#000000;stroke-width:0.990422;stroke-linejoin:round;stroke-miterlimit:1.5;stroke-dasharray:none;stroke-opacity:1.0"
       d="m 22.024949,150.03895 c 16.19308,-2.33524 33.31532,-3.58718 51.02688,-3.58718 16.63021,0 32.740861,1.10373 48.050641,3.17161"
       sodipodi:nodetypes="csc" /><path
       id="path12"
       style="clip-rule:evenodd;fill:none;fill-rule:evenodd;stroke:#000000;stroke-width:0.990422;stroke-linejoin:round;stroke-miterlimit:1.5;stroke-dasharray:none;stroke-opacity:1.0"
       d="m 22.024949,173.72971 c 16.19308,-2.33524 33.31532,-3.58718 51.02688,-3.58718 16.63021,0 32.740861,1.10373 48.050641,3.17161"
       sodipodi:nodetypes="csc" /><path
       id="path13"
       style="clip-rule:evenodd;fill:none;fill-rule:evenodd;stroke:#000000;stroke-width:0.990422;stroke-linejoin:round;stroke-miterlimit:1.5;stroke-dasharray:none;stroke-opacity:1.0"
       d="m 22.024949,197.42046 c 16.19308,-2.33525 33.31532,-3.58718 51.02688,-3.58718 16.63021,0 32.740861,1.10373 48.050641,3.17161"
       sodipodi:nodetypes="csc" /><path
       id="path14"
       style="clip-rule:evenodd;fill:none;fill-rule:evenodd;stroke:#000000;stroke-width:0.990422;stroke-linejoin:round;stroke-miterlimit:1.5;stroke-dasharray:none;stroke-opacity:1.0"
       d="m 22.024949,221.11122 c 16.19308,-2.33524 33.31532,-3.58718 51.02688,-3.58718 16.63021,0 32.740861,1.10373 48.050641,3.17161"
       sodipodi:nodetypes="csc" /><path
       id="path15"
       style="clip-rule:evenodd;fill:none;fill-rule:evenodd;stroke:#000000;stroke-width:0.990422;stroke-linejoin:round;stroke-miterlimit:1.5;stroke-dasharray:none;stroke-opacity:1.0"
       d="m 22.024949,244.80198 c 16.19308,-2.33524 33.31532,-3.58718 51.02688,-3.58718 16.63021,0 32.740861,1.10373 48.050641,3.17161"
       sodipodi:nodetypes="csc" /><path
       id="path16"
       style="clip-rule:evenodd;fill:none;fill-rule:evenodd;stroke:#000000;stroke-width:0.990422;stroke-linejoin:round;stroke-miterlimit:1.5;stroke-dasharray:none;stroke-opacity:1.0"
       d="m 22.024949,268.49273 c 16.19308,-2.33524 33.31532,-3.58718 51.02688,-3.58718 16.63021,0 32.740861,1.10373 48.050641,3.17161"
       sodipodi:nodetypes="csc" /><path
       id="path17"
       style="clip-rule:evenodd;fill:none;fill-rule:evenodd;stroke:#000000;stroke-width:0.990422;stroke-linejoin:round;stroke-miterlimit:1.5;stroke-dasharray:none;stroke-opacity:1.0"
       d="m 22.024949,292.18349 c 16.19308,-2.33524 33.31532,-3.58718 51.02688,-3.58718 16.63021,0 32.740861,1.10373 48.050641,3.17161"
       sodipodi:nodetypes="csc" /><g
       id="g3"
       transform="translate(-1.8284599)"
       style="fill:#000000"><path
         id="path128"
         d="m 65.011,354.825 c 0.168,0.356 0.223,0.713 0.164,1.073 h -1.177 c -0.018,-0.276 -0.072,-0.484 -0.164,-0.624 -0.161,-0.25 -0.452,-0.375 -0.872,-0.375 -0.428,0 -0.803,0.176 -1.123,0.529 -0.321,0.352 -0.548,0.85 -0.682,1.495 -0.135,0.645 -0.106,1.127 0.089,1.449 0.194,0.321 0.492,0.481 0.894,0.481 0.413,0 0.757,-0.138 1.032,-0.414 0.151,-0.147 0.296,-0.37 0.436,-0.666 h 1.166 c -0.232,0.627 -0.599,1.136 -1.099,1.529 -0.501,0.391 -1.079,0.588 -1.734,0.588 -0.81,0 -1.392,-0.265 -1.746,-0.795 -0.352,-0.533 -0.43,-1.263 -0.237,-2.192 0.208,-1.003 0.633,-1.777 1.273,-2.32 0.558,-0.473 1.191,-0.71 1.899,-0.71 0.948,0 1.574,0.318 1.881,0.952 z"
         style="fill:#000000;fill-rule:nonzero" /><path
         id="path129"
         d="m 67.617,358.347 2.145,-4.364 h 1.223 l -3.119,5.746 h -1.112 l -0.708,-5.746 h 1.259 z"
         style="fill:#000000;fill-rule:nonzero" /><path
         id="path130"
         d="m 75.43,355.519 -0.165,0.784 h -0.713 l -0.712,3.426 h -1.085 l 0.712,-3.426 h -0.609 l 0.164,-0.784 h 0.597 l 0.056,-0.273 c 0.096,-0.455 0.236,-0.768 0.421,-0.94 0.212,-0.254 0.619,-0.382 1.223,-0.382 0.069,0 0.131,0.002 0.186,0.006 0.055,0.004 0.131,0.01 0.228,0.017 l -0.191,0.906 c -0.059,-0.008 -0.16,-0.014 -0.302,-0.018 -0.143,-0.004 -0.25,0.028 -0.32,0.097 -0.07,0.069 -0.112,0.145 -0.128,0.228 -0.018,0.084 -0.043,0.203 -0.077,0.359 z"
         style="fill:#000000;fill-rule:nonzero" /><path
         id="path131"
         d="m 77.976,359.13 c -0.012,0.013 -0.046,0.052 -0.1,0.117 -0.053,0.065 -0.113,0.121 -0.179,0.171 -0.204,0.156 -0.392,0.262 -0.564,0.319 -0.171,0.057 -0.364,0.086 -0.579,0.086 -0.616,0 -0.985,-0.225 -1.104,-0.678 -0.067,-0.249 -0.049,-0.617 0.053,-1.103 l 0.532,-2.562 h 1.115 l -0.531,2.562 c -0.051,0.242 -0.061,0.423 -0.031,0.546 0.054,0.216 0.226,0.324 0.516,0.324 0.372,0 0.659,-0.154 0.861,-0.461 0.107,-0.166 0.189,-0.386 0.245,-0.658 l 0.481,-2.313 h 1.104 l -0.883,4.249 h -1.058 z"
         style="fill:#000000;fill-rule:nonzero" /><path
         id="path132"
         d="m 83.159,357.146 c 0.048,-0.224 0.055,-0.396 0.019,-0.515 -0.061,-0.219 -0.241,-0.328 -0.542,-0.328 -0.37,0 -0.657,0.16 -0.86,0.479 -0.108,0.17 -0.188,0.386 -0.241,0.648 l -0.478,2.299 h -1.085 l 0.882,-4.242 h 1.052 l -0.13,0.62 c 0.185,-0.217 0.351,-0.375 0.497,-0.471 0.259,-0.172 0.562,-0.257 0.905,-0.257 0.431,0 0.759,0.114 0.985,0.345 0.225,0.23 0.283,0.611 0.173,1.144 l -0.596,2.861 h -1.116 z"
         style="fill:#000000;fill-rule:nonzero" /><path
         id="path133"
         d="m 86.079,358.394 -0.274,1.335 h -1.071 l 1.193,-5.727 h 1.07 l -0.647,3.097 1.69,-1.6 h 1.35 l -1.797,1.627 0.974,2.603 h -1.315 l -0.618,-1.816 z"
         style="fill:#000000;fill-rule:nonzero" /><path
         id="path134"
         d="M 38.954,356.882 H 57.546"
         style="fill:none;stroke:#000000;stroke-width:0.64px;stroke-linecap:round;stroke-opacity:1" /><path
         id="path135"
         d="m 90.361,356.882 h 18.592"
         style="fill:none;stroke:#000000;stroke-width:0.64px;stroke-linecap:round;stroke-opacity:1" /></g><path
       d="m 56.257323,7.6498806 h 1.980837 l 2.042739,9.5095664 1.849297,-9.5095664 h 1.508841 L 61.387382,19.202186 H 59.406545 L 57.363806,9.6926193 55.506771,19.202186 H 54.005668 Z M 67.47691,18.157604 q 0.6577,0 1.21481,-0.39462 0.557111,-0.39462 0.92078,-1.129696 0.572586,-1.121959 0.928518,-2.715914 0.355932,-1.593955 0.355932,-3.064108 0,-1.0987457 -0.410096,-1.6171677 -0.402357,-0.52616 -1.253498,-0.52616 -0.6577,0 -1.207073,0.39462 -0.549373,0.39462 -0.913043,1.1296957 -0.588061,1.137434 -0.943992,2.715914 -0.355932,1.57848 -0.355932,3.048633 0,1.106483 0.402358,1.632643 0.410095,0.52616 1.261236,0.52616 z m 5.021732,-6.847817 q 0,0.851141 -0.177966,1.849297 -0.170228,0.998157 -0.502947,2.050477 -0.224391,0.711863 -0.487471,1.276711 -0.255343,0.564848 -0.557111,1.02137 -0.680913,0.982681 -1.524316,1.454677 -0.843404,0.464259 -1.965362,0.464259 -1.555267,0 -2.305819,-0.951731 -0.750552,-0.95173 -0.750552,-2.932568 0,-0.858878 0.162491,-1.841559 0.170228,-0.990419 0.502947,-2.042739 0.224392,-0.711864 0.479734,-1.276712 0.26308,-0.5648477 0.564848,-1.0213687 0.680913,-0.9826807 1.524317,-1.4469397 0.843403,-0.471996 1.965362,-0.471996 1.563004,0 2.313556,0.95173 0.758289,0.9439927 0.758289,2.9170924 z m 2.839716,-3.6599064 h 1.980838 l 2.042739,9.5095664 1.849297,-9.5095664 h 1.508841 L 80.468418,19.202186 H 78.48758 L 76.444842,9.6926193 74.587807,19.202186 h -1.501104 z m 13.022459,1.2999247 -2.816503,5.9889377 h 3.327188 z M 87.618003,7.6498806 h 1.903461 l 1.284449,11.5523054 h -1.555267 l -0.270817,-3.009944 h -4.023576 l -1.423727,3.009944 h -1.67907 z"
       id="text1"
       style="font-style:italic;font-size:15.8467px;font-family:Menlo;-inkscape-font-specification:'Menlo Italic';display:none;fill:#ffffff;stroke-width:0.742817"
       aria-label="NONA" /><path
       d="m 46.74556,19.212257 q 1.431464,0 2.298081,-0.479734 0.866616,-0.487472 1.392776,-1.57848 0.417833,-0.88983 0.680913,-2.120115 0.270818,-1.238024 0.270818,-2.267131 0,-1.361826 -0.634487,-1.949887 -0.634487,-0.588061 -2.127853,-0.588061 h -0.882092 l -1.748708,8.983408 z M 48.772823,8.9444003 q 2.112378,0 3.15696,0.959468 1.05232,0.9594677 1.05232,2.9093547 0,1.253499 -0.324981,2.584374 -0.324982,1.330875 -0.874354,2.359982 -0.804716,1.477891 -2.011788,2.112378 -1.199336,0.626749 -3.249812,0.626749 H 44.176661 L 46.428316,8.9444003 Z m 7.668008,0 h 6.847817 L 63.033305,10.2598 h -5.29255 l -0.665437,3.42004 h 5.052683 l -0.247605,1.315399 h -5.060421 l -0.804715,4.186067 h 5.431828 l -0.255343,1.3154 h -7.00257 z M 70.623936,20.086611 q -0.649962,0.317243 -1.3154,0.471996 -0.6577,0.162491 -1.361825,0.162491 -1.779659,0 -2.76234,-1.029107 -0.974944,-1.029107 -0.974944,-2.886142 0,-1.702283 0.541636,-3.373614 0.541635,-1.671332 1.423727,-2.731389 0.827928,-1.0058937 1.826084,-1.4856277 0.998156,-0.479735 2.274868,-0.479735 0.619012,0 1.230286,0.162491 0.611274,0.162491 1.191597,0.471996 l -0.317243,1.6016927 q -0.495209,-0.487471 -1.044582,-0.727338 -0.549373,-0.239868 -1.168385,-0.239868 -0.735076,0 -1.361826,0.317244 -0.626749,0.309506 -1.176122,0.951731 -0.804715,0.95173 -1.299925,2.437358 -0.487471,1.485628 -0.487471,2.978994 0,1.338613 0.603536,2.050476 0.603537,0.711864 1.740971,0.711864 0.657699,0 1.354088,-0.247605 0.704125,-0.247605 1.385038,-0.719601 z M 75.537341,8.9444003 h 6.422247 L 81.704246,10.2598 h -2.429621 l -1.725496,8.921506 h 2.429621 l -0.255342,1.3154 h -6.422246 l 0.255342,-1.3154 h 2.421883 L 77.71162,10.2598 h -2.429621 z m 8.635214,0 h 2.081427 l 0.851141,5.8496607 3.203385,-5.8496607 h 2.089165 L 90.146018,20.496706 h -1.439203 l 1.996313,-10.267857 -3.358138,6.151429 h -1.091008 l -0.88983,-6.151429 -1.980837,10.267857 h -1.439203 z m 13.455764,1.2999247 -2.816499,5.988938 h 3.327189 z m -0.74281,-1.2999247 h 1.90346 l 1.284451,11.5523057 h -1.555271 l -0.27081,-3.009944 h -4.02358 l -1.423727,3.009944 h -1.679069 z"
       id="text2"
       style="font-style:italic;font-size:15.8467px;font-family:Menlo;-inkscape-font-specification:'Menlo Italic';display:inline;fill:#000000;stroke-width:0.742817"
       aria-label="DECIMA"
       inkscape:label="text2" /><path
       d="m 51.258803,8.2971366 h 2.081427 l 0.851141,5.8496594 3.203386,-5.8496594 h 2.089164 L 57.232266,19.849442 H 55.793064 L 57.789377,9.5815853 54.431238,15.733014 H 53.34023 L 52.450401,9.5815853 50.469563,19.849442 H 49.030361 Z M 62.911699,18.804859 q 0.6577,0 1.21481,-0.394619 0.557111,-0.39462 0.92078,-1.129697 0.572586,-1.121959 0.928518,-2.715914 0.355931,-1.593955 0.355931,-3.064108 0,-1.098745 -0.410095,-1.6171677 -0.402358,-0.52616 -1.253499,-0.52616 -0.6577,0 -1.207072,0.39462 -0.549373,0.3946197 -0.913043,1.1296967 -0.588061,1.137434 -0.943993,2.715914 -0.355931,1.578479 -0.355931,3.048632 0,1.106484 0.402357,1.632644 0.410096,0.526159 1.261237,0.526159 z m 5.021732,-6.847817 q 0,0.851142 -0.177966,1.849298 -0.170228,0.998156 -0.502947,2.050476 -0.224392,0.711864 -0.487471,1.276712 -0.255343,0.564848 -0.557111,1.021369 -0.680913,0.982681 -1.524316,1.454678 -0.843404,0.464258 -1.965363,0.464258 -1.555266,0 -2.305818,-0.95173 -0.750552,-0.951731 -0.750552,-2.932568 0,-0.858879 0.162491,-1.84156 0.170228,-0.990419 0.502947,-2.042738 0.224391,-0.711864 0.479734,-1.276712 0.26308,-0.564848 0.564848,-1.021369 0.680913,-0.9826807 1.524316,-1.4469397 0.843404,-0.4719967 1.965363,-0.4719967 1.563004,0 2.313556,0.9517307 0.758289,0.943993 0.758289,2.9170917 z m 6.561524,2.437359 q 0.557111,0.108327 0.889829,0.518422 0.340457,0.410096 0.75829,1.779659 l 0.936255,3.15696 h -1.555267 l -0.82019,-2.917093 q -0.340457,-1.207073 -0.766027,-1.586217 -0.417833,-0.379145 -1.268974,-0.379145 h -1.485629 l -0.95173,4.882455 H 68.66077 L 70.89695,8.2971366 h 3.21886 q 1.601693,0 2.476047,0.6963877 0.882092,0.68865 0.882092,1.9498867 0,1.415989 -0.804715,2.344507 -0.796978,0.928517 -2.174279,1.106483 z m -2.26713,-4.8128157 -0.78924,4.1009527 h 1.694544 q 1.261237,0 2.011788,-0.6577 0.75829,-0.665438 0.75829,-1.764184 0,-0.866616 -0.487472,-1.2689737 -0.487472,-0.410095 -1.539792,-0.410095 z m 7.373977,-1.2844487 h 8.820916 L 88.167376,9.6125363 H 84.53842 L 82.557582,19.849442 H 80.979103 L 82.975415,9.6125363 H 79.346459 Z M 93.336124,9.5970603 90.51962,15.585999 h 3.327188 z M 92.59331,8.2971366 h 1.903461 L 95.78122,19.849442 h -1.555267 l -0.270818,-3.009945 h -4.023576 l -1.423727,3.009945 h -1.679069 z"
       id="text3"
       style="font-style:italic;font-size:15.8467px;font-family:Menlo;-inkscape-font-specification:'Menlo Italic';display:none;fill:#ffffff;stroke-width:0.742817"
       aria-label="MORTA" /><path
       d="m 27.432,59.800229 q -0.28436,0.138794 -0.57549,0.206499 -0.287745,0.07109 -0.595801,0.07109 -0.778604,0 -1.208529,-0.450236 -0.42654,-0.450237 -0.42654,-1.262693 0,-0.744751 0.236967,-1.475962 0.236966,-0.731211 0.622883,-1.194988 0.36222,-0.44008 0.798915,-0.649965 0.436695,-0.209884 0.995259,-0.209884 0.270819,0 0.538252,0.07109 0.267434,0.07109 0.521326,0.206499 l -0.138794,0.700743 q -0.216655,-0.213269 -0.457007,-0.318212 -0.240351,-0.104942 -0.51117,-0.104942 -0.321597,0 -0.595801,0.138795 -0.274204,0.135409 -0.514556,0.416384 -0.352064,0.416383 -0.568719,1.066348 -0.21327,0.649965 -0.21327,1.303316 0,0.585645 0.264048,0.897087 0.264048,0.311441 0.761678,0.311441 0.287745,0 0.592416,-0.108327 0.308056,-0.108328 0.605957,-0.314827 z m 2.227484,-4.874738 h 0.683817 l -0.87339,4.478665 h 2.440754 l -0.111713,0.57549 h -3.124571 z m 4.62423,4.597148 q 0.287745,0 0.531482,-0.172647 0.243737,-0.172647 0.402843,-0.494244 0.250507,-0.490859 0.406228,-1.188217 0.155721,-0.697358 0.155721,-1.340553 0,-0.480703 -0.179418,-0.707514 -0.176032,-0.230196 -0.548408,-0.230196 -0.287745,0 -0.528096,0.172647 -0.240352,0.172647 -0.399458,0.494244 -0.257278,0.49763 -0.412998,1.188218 -0.155721,0.690587 -0.155721,1.333782 0,0.484088 0.176032,0.714284 0.179417,0.230196 0.551793,0.230196 z m 2.197017,-2.995932 q 0,0.372376 -0.07786,0.809071 -0.07448,0.436695 -0.22004,0.897087 -0.09817,0.311442 -0.21327,0.558564 -0.111713,0.247122 -0.243737,0.446851 -0.297901,0.429924 -0.666891,0.636424 -0.368991,0.203114 -0.85985,0.203114 -0.680432,0 -1.0088,-0.416384 -0.328367,-0.416384 -0.328367,-1.283004 0,-0.375761 0.07109,-0.805686 0.07447,-0.43331 0.22004,-0.893702 0.09817,-0.311441 0.209884,-0.558563 0.115098,-0.247122 0.247122,-0.446851 0.297901,-0.429925 0.666892,-0.633039 0.36899,-0.206499 0.859849,-0.206499 0.683818,0 1.012185,0.416383 0.331753,0.412999 0.331753,1.276234 z m 3.473251,3.273522 q -0.28436,0.138794 -0.57549,0.206499 -0.287745,0.07109 -0.595801,0.07109 -0.778604,0 -1.208529,-0.450236 -0.42654,-0.450237 -0.42654,-1.262693 0,-0.744751 0.236967,-1.475962 0.236966,-0.731211 0.622883,-1.194988 0.36222,-0.44008 0.798915,-0.649965 0.436696,-0.209884 0.995259,-0.209884 0.270819,0 0.538253,0.07109 0.267433,0.07109 0.521326,0.206499 l -0.138795,0.700743 q -0.216655,-0.213269 -0.457007,-0.318212 -0.240351,-0.104942 -0.51117,-0.104942 -0.321597,0 -0.595801,0.138795 -0.274204,0.135409 -0.514556,0.416384 -0.352064,0.416383 -0.568719,1.066348 -0.21327,0.649965 -0.21327,1.303316 0,0.585645 0.264048,0.897087 0.264049,0.311441 0.761678,0.311441 0.287745,0 0.592416,-0.108327 0.308056,-0.108328 0.605957,-0.314827 z m 1.936354,-4.874738 h 0.683817 l -0.429924,2.190247 2.511843,-2.190247 h 0.85985 l -2.37982,2.09546 1.448881,2.958695 h -0.741367 l -1.218684,-2.508459 -0.65335,0.56872 -0.379147,1.939739 h -0.687202 z"
       id="text4"
       style="font-style:italic;font-size:6.93296px;font-family:Menlo;-inkscape-font-specification:'Menlo Italic';fill:#000000"
       aria-label="CLOCK" /><path
       d="m 100.9381,57.593055 q 0.24374,0.04739 0.3893,0.22681 0.14895,0.179418 0.33175,0.778604 l 0.40961,1.381176 h -0.68042 l -0.35884,-1.276233 q -0.14895,-0.528097 -0.33514,-0.693973 -0.1828,-0.165877 -0.55518,-0.165877 h -0.649964 l -0.41638,2.136083 h -0.687204 l 0.978334,-5.054155 h 1.408254 q 0.70075,0 1.08327,0.304671 0.38592,0.301286 0.38592,0.853079 0,0.619498 -0.35206,1.025726 -0.34868,0.406228 -0.95125,0.484089 z m -0.991874,-2.105616 -0.34529,1.794174 h 0.741364 q 0.55179,0 0.88016,-0.287745 0.33175,-0.29113 0.33175,-0.771833 0,-0.379147 -0.21327,-0.555179 -0.21327,-0.179417 -0.67366,-0.179417 z m 3.737294,-0.561949 h 2.99592 l -0.11171,0.57549 h -2.31549 l -0.29113,1.496273 h 2.21055 l -0.10833,0.57549 h -2.21394 l -0.35206,1.831412 h 2.37643 l -0.11171,0.57549 h -3.06363 z m 6.89232,0.172647 -0.13203,0.693973 q -0.2742,-0.199729 -0.56872,-0.301286 -0.29451,-0.101557 -0.60934,-0.101557 -0.55856,0 -0.91062,0.277589 -0.35207,0.27759 -0.35207,0.707514 0,0.240352 0.16588,0.389302 0.16588,0.148951 0.60257,0.28436 l 0.40961,0.132024 q 0.55179,0.169262 0.80569,0.453621 0.25728,0.280975 0.25728,0.71767 0,0.79553 -0.56195,1.262693 -0.56195,0.463777 -1.53351,0.463777 -0.35207,0 -0.69397,-0.07786 -0.33852,-0.07447 -0.67705,-0.22681 l 0.1388,-0.707514 q 0.33175,0.233581 0.67027,0.345294 0.34191,0.111712 0.72106,0.111712 0.55856,0 0.90723,-0.2979 0.34868,-0.297901 0.34868,-0.754908 0,-0.277589 -0.14895,-0.429924 -0.14895,-0.152336 -0.59918,-0.291131 l -0.34191,-0.111712 q -0.62288,-0.196344 -0.87339,-0.443466 -0.24712,-0.250507 -0.24712,-0.660121 0,-0.748136 0.55856,-1.222069 0.55857,-0.477318 1.45903,-0.477318 0.27082,0 0.57549,0.0677 0.30806,0.0677 0.62966,0.196344 z m 1.45565,-0.172647 h 2.99593 l -0.11171,0.57549 h -2.3155 l -0.29113,1.496273 h 2.21056 l -0.10833,0.57549 h -2.21394 l -0.35207,1.831412 h 2.37644 l -0.11172,0.57549 h -3.06363 z m 3.66282,0 h 3.85917 l -0.11171,0.57549 h -1.58768 l -0.86662,4.478665 h -0.69059 l 0.87339,-4.478665 h -1.58767 z"
       id="text5"
       style="font-style:italic;font-size:6.93296px;font-family:Menlo;-inkscape-font-specification:'Menlo Italic';fill:#000000"
       aria-label="RESET" /><rect
       style="display:inline;fill:#666666;fill-opacity:1;stroke:#000000;stroke-width:0.990417;stroke-dasharray:none;stroke-opacity:1"
       id="rect49"
       width="28.540989"
       height="255.34962"
       x="107.0425"
       y="63.772118"
       rx="14.037486"
       ry="14.03749" /><rect
       style="display:inline;fill:#666666;fill-opacity:1;stroke:#000000;stroke-width:0.990418;stroke-dasharray:none;stroke-opacity:1"
       id="rect6"
       width="71.271393"
       height="34.22213"
       x="36.489346"
       y="310.83621"
       rx="14.037485"
       ry="14.03749" /><path
       style="font-style:italic;font-weight:bold;font-size:3.175px;font-family:Menlo;-inkscape-font-specification:'Menlo Bold Italic';text-align:center;text-anchor:middle;display:inline;fill:#ffffff;stroke-width:0.990423"
       d="m 49.815655,337.31164 q 0,-0.52231 -0.174065,-0.78346 -0.174065,-0.2611 -0.526658,-0.2611 -0.256886,0 -0.474411,0.15666 -0.217581,0.15244 -0.374324,0.45265 -0.09574,0.16985 -0.191471,0.45265 -0.09152,0.27851 -0.191471,0.67897 -0.126337,0.50055 -0.191471,0.93576 -0.06513,0.4309 -0.06513,0.75735 0,0.52228 0.174064,0.77908 0.174065,0.25689 0.526659,0.25689 0.256886,0 0.470059,-0.15245 0.217581,-0.15666 0.378647,-0.45703 0.100228,-0.19147 0.195963,-0.47441 0.100228,-0.28726 0.18726,-0.6485 0.126338,-0.50052 0.191472,-0.93142 0.06541,-0.43525 0.06541,-0.76167 z m -3.512431,2.41559 q 0,-0.87049 0.217581,-1.76274 0.217581,-0.89225 0.587581,-1.56254 0.335131,-0.60934 0.879167,-0.93577 0.544065,-0.33078 1.223058,-0.33078 0.935767,0 1.427584,0.54842 0.496197,0.54839 0.496197,1.58427 0,0.8792 -0.213369,1.78015 -0.21337,0.8966 -0.578878,1.55384 -0.339483,0.61369 -0.887899,0.94447 -0.544037,0.33078 -1.22303,0.33078 -0.94447,0 -1.436315,-0.54839 -0.491818,-0.55277 -0.491818,-1.60171 z m 5.397019,-0.37432 0.800867,-4.09998 h 1.283953 l -0.866113,4.42206 q 0,0.008 -0.0056,0.0253 -0.0306,0.20467 -0.0306,0.29597 0,0.35689 0.200174,0.55274 0.200175,0.19596 0.565823,0.19596 0.470059,0 0.748619,-0.26559 0.282912,-0.26559 0.391702,-0.80521 l 0.866141,-4.42206 h 1.283981 l -0.805218,4.09998 q -0.152448,0.78346 -0.326428,1.18822 -0.174065,0.40043 -0.448301,0.67464 -0.33078,0.32207 -0.783432,0.49182 -0.452653,0.16985 -0.996718,0.16985 -0.953173,0 -1.466777,-0.4309 -0.513575,-0.43089 -0.513575,-1.22738 0,-0.18277 0.02246,-0.40043 0.02527,-0.21758 0.07833,-0.46571 z m 7.760427,2.39819 h -1.279629 l 1.040234,-5.37526 h -1.666979 l 0.213369,-1.12291 h 4.609237 l -0.222073,1.12291 h -1.649573 z"
       id="path6"
       aria-label="OUT" /><path
       style="font-style:italic;font-weight:bold;font-size:3.175px;font-family:Menlo;-inkscape-font-specification:'Menlo Bold Italic';text-align:center;text-anchor:middle;display:inline;fill:#ffffff;stroke-width:0.990423"
       d="m 83.020774,336.38454 0.222073,-1.13161 h 3.86932 l -0.222073,1.13161 H 85.59741 l -0.818273,4.23494 h 1.292684 l -0.226284,1.13162 H 81.98054 l 0.222073,-1.13162 h 1.292684 l 0.818245,-4.23494 z m 5.366586,-1.13161 h 1.318766 l 0.935795,4.72237 0.918361,-4.72237 h 1.13164 l -1.25351,6.49817 h -1.275254 l -0.979311,-4.72238 -0.91836,4.72238 h -1.144701 z m 6.463362,5.44488 2.20234,-5.44488 h 1.31009 l -2.80733,6.49817 h -1.7932 l -0.28291,-6.49817 h 1.26654 z"
       id="path7"
       aria-label="INV" /><path
       d="m 66.34246,59.421083 q 0.626268,0 1.005414,-0.209884 0.379147,-0.21327 0.609343,-0.690588 0.182802,-0.389302 0.2979,-0.927554 0.118483,-0.541638 0.118483,-0.991874 0,-0.595801 -0.277589,-0.853079 -0.277589,-0.257278 -0.930939,-0.257278 h -0.385917 l -0.765063,3.930257 z m 0.886931,-4.492206 q 0.924169,0 1.381176,0.419769 0.460392,0.41977 0.460392,1.272849 0,0.548408 -0.14218,1.130668 -0.14218,0.58226 -0.382532,1.032496 -0.352064,0.64658 -0.880161,0.924169 -0.524711,0.274204 -1.421798,0.274204 h -1.025726 l 0.985103,-5.054155 z m 3.361538,0 h 2.809745 l -0.111713,0.57549 h -1.062964 l -0.754907,3.903176 h 1.062964 l -0.111713,0.575489 h -2.809745 l 0.111713,-0.575489 h 1.059578 l 0.758293,-3.903176 h -1.062964 z m 5.595793,2.667565 q 0.243736,0.04739 0.389302,0.226811 0.14895,0.179417 0.331752,0.778604 l 0.409614,1.381175 h -0.680432 l -0.358835,-1.276233 q -0.14895,-0.528097 -0.335138,-0.693973 -0.182803,-0.165877 -0.555179,-0.165877 h -0.649965 l -0.416384,2.136083 h -0.687202 l 0.978333,-5.054155 h 1.408257 q 0.700744,0 1.083275,0.304672 0.385917,0.301285 0.385917,0.853079 0,0.619497 -0.352065,1.025726 -0.348679,0.406228 -0.95125,0.484088 z m -0.991874,-2.105616 -0.345294,1.794175 h 0.741366 q 0.551794,0 0.880161,-0.287745 0.331753,-0.291131 0.331753,-0.771834 0,-0.379146 -0.21327,-0.555178 -0.213269,-0.179418 -0.673661,-0.179418 z"
       id="text7"
       style="font-style:italic;font-size:6.93296px;font-family:Menlo;-inkscape-font-specification:'Menlo Italic';fill:#000000;stroke-width:0.742817"
       aria-label="DIR" /><path
       d="m 50.28652,298.5856 -0.132024,0.69397 q -0.274204,-0.19973 -0.56872,-0.30128 -0.294515,-0.10156 -0.609342,-0.10156 -0.558564,0 -0.910628,0.27759 -0.352064,0.27759 -0.352064,0.70751 0,0.24035 0.165876,0.3893 0.165877,0.14895 0.602572,0.28436 l 0.409613,0.13203 q 0.551793,0.16926 0.805686,0.45362 0.257278,0.28097 0.257278,0.71767 0,0.79553 -0.561949,1.26269 -0.561949,0.46378 -1.533511,0.46378 -0.352065,0 -0.693973,-0.0779 -0.338524,-0.0745 -0.677047,-0.22681 l 0.138794,-0.70752 q 0.331753,0.23358 0.670277,0.3453 0.341909,0.11171 0.721055,0.11171 0.558563,0 0.907243,-0.2979 0.348679,-0.2979 0.348679,-0.75491 0,-0.27759 -0.148951,-0.42992 -0.14895,-0.15234 -0.599186,-0.29113 l -0.341909,-0.11172 q -0.622883,-0.19634 -0.87339,-0.44346 -0.247122,-0.25051 -0.247122,-0.66012 0,-0.74814 0.558563,-1.22207 0.558564,-0.47732 1.459036,-0.47732 0.270819,0 0.57549,0.0677 0.308057,0.0677 0.629654,0.19635 z m 0.94448,-0.17265 h 3.859168 l -0.111713,0.57549 H 53.39078 l -0.86662,4.47867 h -0.690588 l 0.873391,-4.47867 h -1.587675 z m 4.685165,0 h 2.995932 l -0.111713,0.57549 h -2.3155 l -0.29113,1.49627 h 2.210558 l -0.108327,0.57549 h -2.213944 l -0.352064,1.83142 h 2.376434 l -0.111712,0.57549 h -3.063637 z m 4.742713,0.56195 -0.36899,1.89912 h 0.792145 q 0.558563,0 0.890316,-0.3216 0.335138,-0.32498 0.335138,-0.86324 0,-0.3656 -0.209884,-0.53825 -0.209885,-0.17603 -0.649965,-0.17603 z m -0.57549,-0.56195 h 1.489503 q 0.697359,0 1.062964,0.31144 0.365605,0.31144 0.365605,0.90047 0,0.84293 -0.541637,1.32702 -0.541638,0.48409 -1.489503,0.48409 h -0.78876 l -0.396072,2.03114 h -0.687203 z"
       id="text8"
       style="font-style:italic;font-size:6.93296px;font-family:Menlo;-inkscape-font-specification:'Menlo Italic';fill:#000000;stroke-width:0.742817"
       aria-label="STEP" /><path
       d="m 115.89572,312.96816 q -0.29451,0.20988 -0.64319,0.31821 -0.34868,0.10494 -0.74476,0.10494 -0.78537,0 -1.20852,-0.45362 -0.41977,-0.45701 -0.41977,-1.29993 0,-0.30467 0.0542,-0.64658 0.0576,-0.34529 0.16588,-0.72105 0.11848,-0.39608 0.27759,-0.71429 0.1591,-0.3216 0.34868,-0.54841 0.36222,-0.44008 0.79891,-0.64996 0.44008,-0.20989 1.00203,-0.20989 0.27082,0 0.53825,0.0711 0.27082,0.0711 0.53148,0.2065 l -0.13879,0.70075 q -0.22004,-0.21327 -0.46378,-0.31822 -0.24035,-0.10494 -0.51455,-0.10494 -0.33176,0 -0.62289,0.14218 -0.29113,0.1388 -0.52132,0.413 -0.14895,0.17603 -0.28098,0.44008 -0.13202,0.26405 -0.23358,0.59242 -0.1151,0.38591 -0.17603,0.72444 -0.0576,0.33852 -0.0576,0.61272 0,0.57888 0.26743,0.89371 0.26744,0.31482 0.7583,0.31482 0.23019,0 0.413,-0.0609 0.1828,-0.0643 0.30805,-0.1828 l 0.25728,-1.3304 h -0.7346 l 0.10156,-0.56195 h 1.38795 z m 3.38185,-4.16046 -1.23223,2.62018 h 1.45566 z m -0.32498,-0.56871 h 0.83277 l 0.56194,5.05415 h -0.68043 l -0.11848,-1.31686 h -1.76032 l -0.62289,1.31686 h -0.73459 z m 2.66418,0 h 3.85916 l -0.11171,0.57549 h -1.58767 l -0.86662,4.47866 h -0.69059 l 0.87339,-4.47866 h -1.58768 z m 4.68516,0 h 2.99593 l -0.11171,0.57549 h -2.3155 l -0.29113,1.49627 h 2.21056 l -0.10833,0.57549 h -2.21394 l -0.35207,1.83141 h 2.37644 l -0.11171,0.57549 h -3.06364 z"
       id="text9"
       style="font-style:italic;font-size:6.93296px;font-family:Menlo;-inkscape-font-specification:'Menlo Italic';fill:#ffffff;stroke-width:0.742817"
       aria-label="GATE" /><path
       d="m 80.622721,298.9749 -0.368991,1.89912 h 0.792145 q 0.558564,0 0.890317,-0.3216 0.335138,-0.32498 0.335138,-0.86324 0,-0.3656 -0.209885,-0.53825 -0.209884,-0.17603 -0.649965,-0.17603 z m -0.57549,-0.56195 h 1.489503 q 0.697358,0 1.062963,0.31144 0.365606,0.31144 0.365606,0.90047 0,0.84293 -0.541638,1.32702 -0.541637,0.48409 -1.489503,0.48409 h -0.788759 l -0.396073,2.03114 h -0.687202 z m 5.609333,2.66757 q 0.243737,0.0474 0.389302,0.22681 0.14895,0.17941 0.331753,0.7786 l 0.409613,1.38118 H 86.1068 l -0.358834,-1.27624 q -0.148951,-0.52809 -0.335139,-0.69397 -0.182802,-0.16588 -0.555178,-0.16588 h -0.649965 l -0.416384,2.13609 h -0.687203 l 0.978333,-5.05416 h 1.408258 q 0.700743,0 1.083275,0.30467 0.385916,0.30129 0.385916,0.85308 0,0.6195 -0.352064,1.02573 -0.348679,0.40623 -0.951251,0.48409 z m -0.991873,-2.10562 -0.345294,1.79417 h 0.741366 q 0.551793,0 0.880161,-0.28774 0.331753,-0.29113 0.331753,-0.77183 0,-0.37915 -0.21327,-0.55518 -0.21327,-0.17942 -0.673662,-0.17942 z m 4.272165,4.0352 q 0.287745,0 0.531482,-0.17265 0.243737,-0.17264 0.402843,-0.49424 0.250507,-0.49086 0.406228,-1.18822 0.155721,-0.69736 0.155721,-1.34055 0,-0.48071 -0.179417,-0.70752 -0.176033,-0.23019 -0.548408,-0.23019 -0.287745,0 -0.528097,0.17264 -0.240352,0.17265 -0.399458,0.49425 -0.257277,0.49763 -0.412998,1.18822 -0.155721,0.69058 -0.155721,1.33378 0,0.48409 0.176032,0.71428 0.179418,0.2302 0.551793,0.2302 z m 2.197018,-2.99593 q 0,0.37237 -0.07786,0.80907 -0.07447,0.43669 -0.22004,0.89708 -0.09817,0.31145 -0.21327,0.55857 -0.111713,0.24712 -0.243737,0.44685 -0.2979,0.42992 -0.666891,0.63642 -0.36899,0.20312 -0.859849,0.20312 -0.680433,0 -1.0088,-0.41639 -0.328368,-0.41638 -0.328368,-1.283 0,-0.37576 0.07109,-0.80569 0.07448,-0.43331 0.22004,-0.8937 0.09817,-0.31144 0.209885,-0.55856 0.115098,-0.24712 0.247122,-0.44685 0.2979,-0.42993 0.666891,-0.63304 0.36899,-0.2065 0.859849,-0.2065 0.683818,0 1.012186,0.41638 0.331753,0.413 0.331753,1.27624 z m 1.513199,1.03926 -0.36222,1.85173 h 0.839538 q 0.622884,0 0.951251,-0.29452 0.331753,-0.29451 0.331753,-0.84969 0,-0.36222 -0.230196,-0.53487 -0.230196,-0.17265 -0.714284,-0.17265 z m 0.399458,-2.07853 -0.297901,1.52336 h 0.825998 q 0.51117,0 0.8023,-0.24374 0.294516,-0.24712 0.294516,-0.67705 0,-0.31821 -0.189574,-0.46039 -0.186188,-0.14218 -0.609342,-0.14218 z m -0.57549,-0.56195 H 93.9707 q 0.687203,0 1.039267,0.27082 0.352064,0.26743 0.352064,0.78876 0,0.52133 -0.311441,0.87339 -0.311442,0.34868 -0.839538,0.41638 0.423154,0.0779 0.646579,0.3453 0.226811,0.26743 0.226811,0.6872 0,0.79214 -0.541637,1.23223 -0.538253,0.44008 -1.523356,0.44008 h -1.530126 z"
       id="text17"
       style="font-style:italic;font-size:6.93296px;font-family:Menlo;-inkscape-font-specification:'Menlo Italic';fill:#000000;stroke-width:0.742817"
       aria-label="PROB" /></g></svg>
