<?xml version="1.0" encoding="UTF-8" standalone="no"?>
<!-- Created with Inkscape (http://www.inkscape.org/) -->

<svg
   width="152.384mm"
   height="128.5mm"
   viewBox="0 0 152.38401 128.50002"
   version="1.1"
   id="svg8"
   inkscape:version="1.2 (dc2aeda, 2022-05-15)"
   sodipodi:docname="FlowerPatch-dark.svg"
   xml:space="preserve"
   xmlns:inkscape="http://www.inkscape.org/namespaces/inkscape"
   xmlns:sodipodi="http://sodipodi.sourceforge.net/DTD/sodipodi-0.dtd"
   xmlns="http://www.w3.org/2000/svg"
   xmlns:svg="http://www.w3.org/2000/svg"
   xmlns:rdf="http://www.w3.org/1999/02/22-rdf-syntax-ns#"
   xmlns:cc="http://creativecommons.org/ns#"
   xmlns:dc="http://purl.org/dc/elements/1.1/"><defs
     id="defs2">
            
            
        
            
            
        </defs><sodipodi:namedview
     id="base"
     pagecolor="#ffffff"
     bordercolor="#666666"
     borderopacity="1.0"
     inkscape:pageopacity="0.0"
     inkscape:pageshadow="2"
     inkscape:zoom="1.2875855"
     inkscape:cx="236.48915"
     inkscape:cy="249.30383"
     inkscape:document-units="mm"
     inkscape:current-layer="layer1"
     showgrid="false"
     units="mm"
     inkscape:snap-bbox="true"
     inkscape:snap-page="true"
     inkscape:bbox-nodes="false"
     inkscape:snap-bbox-edge-midpoints="false"
     inkscape:window-width="1466"
     inkscape:window-height="900"
     inkscape:window-x="0"
     inkscape:window-y="38"
     inkscape:window-maximized="0"
     inkscape:snap-bbox-midpoints="true"
     inkscape:snap-nodes="false"
     inkscape:showpageshadow="2"
     inkscape:pagecheckerboard="0"
     inkscape:deskcolor="#d1d1d1"
     showguides="true" /><metadata
     id="metadata5"><rdf:RDF><cc:Work
         rdf:about=""><dc:format>image/svg+xml</dc:format><dc:type
           rdf:resource="http://purl.org/dc/dcmitype/StillImage" /></cc:Work></rdf:RDF></metadata><g
     inkscape:label="Layer 1"
     inkscape:groupmode="layer"
     id="layer1"
     transform="translate(0,-168.49998)"
     style="display:inline"><rect
       x="-0.045016449"
       y="168.29933"
       width="152.87804"
       height="129.37991"
       style="clip-rule:evenodd;display:inline;fill:#202020;fill-opacity:1;fill-rule:evenodd;stroke:#ebebeb;stroke-width:0.0846107px;stroke-linecap:round;stroke-linejoin:round;stroke-miterlimit:1.5"
       id="rect1-0" /><path
       id="path128"
       d="m 71.383265,293.88119 c 0.05918,0.1254 0.07855,0.25115 0.05777,0.37795 h -0.414579 c -0.0063,-0.0972 -0.02536,-0.17048 -0.05777,-0.21979 -0.05671,-0.0881 -0.159209,-0.13209 -0.307147,-0.13209 -0.150756,0 -0.282844,0.062 -0.395558,0.18633 -0.113067,0.12399 -0.193024,0.2994 -0.240224,0.52659 -0.04755,0.22719 -0.03734,0.39697 0.03135,0.51039 0.06833,0.11306 0.173299,0.16942 0.314897,0.16942 0.145472,0 0.26664,-0.0486 0.363505,-0.14582 0.05319,-0.0518 0.104261,-0.13033 0.153573,-0.23459 h 0.410704 c -0.08172,0.22085 -0.210987,0.40014 -0.387104,0.53856 -0.176469,0.13773 -0.38006,0.20712 -0.610773,0.20712 -0.285309,0 -0.490308,-0.0933 -0.614999,-0.28003 -0.123986,-0.18774 -0.15146,-0.44487 -0.08348,-0.77209 0.07326,-0.35329 0.222963,-0.62592 0.448393,-0.81719 0.196546,-0.1666 0.41951,-0.25008 0.668891,-0.25008 0.333917,0 0.554415,0.11201 0.662551,0.33532 z"
       style="clip-rule:evenodd;fill:#ffffff;fill-rule:nonzero;stroke-width:0.352233;stroke-linecap:round;stroke-linejoin:round;stroke-miterlimit:1.5" /><path
       id="path129"
       d="m 72.301185,295.12176 0.75554,-1.53715 h 0.430782 l -1.098616,2.02394 h -0.391684 l -0.249381,-2.02394 h 0.443462 z"
       style="clip-rule:evenodd;fill:#ffffff;fill-rule:nonzero;stroke-width:0.352233;stroke-linecap:round;stroke-linejoin:round;stroke-miterlimit:1.5" /><path
       id="path130"
       d="m 75.053184,294.12564 -0.05812,0.27616 h -0.251142 l -0.25079,1.20675 H 74.11096 l 0.25079,-1.20675 h -0.21451 l 0.05777,-0.27616 h 0.210283 l 0.01972,-0.0961 c 0.03382,-0.16027 0.08313,-0.27052 0.148291,-0.3311 0.07467,-0.0895 0.218032,-0.13456 0.430781,-0.13456 0.0243,0 0.04614,7.1e-4 0.06551,0.002 0.01937,0.001 0.04614,0.004 0.08031,0.006 l -0.06728,0.31913 c -0.02078,-0.003 -0.05636,-0.005 -0.106374,-0.006 -0.05037,-0.001 -0.08806,0.01 -0.112715,0.0342 -0.02466,0.0243 -0.03945,0.0511 -0.04509,0.0803 -0.0063,0.0296 -0.01515,0.0715 -0.02712,0.12645 z"
       style="clip-rule:evenodd;fill:#ffffff;fill-rule:nonzero;stroke-width:0.352233;stroke-linecap:round;stroke-linejoin:round;stroke-miterlimit:1.5" /><path
       id="path131"
       d="m 75.94997,295.39756 c -0.0042,0.005 -0.0162,0.0183 -0.03522,0.0412 -0.01867,0.0229 -0.0398,0.0426 -0.06305,0.0602 -0.07186,0.0549 -0.138076,0.0923 -0.19866,0.11237 -0.06023,0.0201 -0.128213,0.0303 -0.203943,0.0303 -0.216976,0 -0.34695,-0.0793 -0.388865,-0.23882 -0.0236,-0.0877 -0.01726,-0.21733 0.01867,-0.38851 l 0.187388,-0.90242 h 0.39274 l -0.187036,0.90242 c -0.01796,0.0852 -0.02149,0.14899 -0.01092,0.19232 0.01902,0.0761 0.0796,0.11412 0.181752,0.11412 0.131031,0 0.232122,-0.0542 0.303273,-0.16238 0.03769,-0.0585 0.06657,-0.13596 0.0863,-0.23177 l 0.169424,-0.81471 h 0.388865 l -0.311022,1.49664 h -0.372663 z"
       style="clip-rule:evenodd;fill:#ffffff;fill-rule:nonzero;stroke-width:0.352233;stroke-linecap:round;stroke-linejoin:round;stroke-miterlimit:1.5" /><path
       id="path132"
       d="m 77.775595,294.69873 c 0.01691,-0.0789 0.01937,-0.13949 0.0067,-0.1814 -0.02149,-0.0771 -0.08489,-0.11553 -0.190911,-0.11553 -0.130326,0 -0.231417,0.0564 -0.30292,0.16872 -0.03804,0.0599 -0.06622,0.13596 -0.08489,0.22824 l -0.168367,0.80979 h -0.382173 l 0.310669,-1.49418 h 0.37055 l -0.04579,0.21839 c 0.06516,-0.0764 0.123634,-0.13209 0.17506,-0.1659 0.09123,-0.0606 0.197955,-0.0905 0.318771,-0.0905 0.151812,0 0.267345,0.0402 0.34695,0.12152 0.07925,0.081 0.09968,0.21522 0.06094,0.40296 l -0.209931,1.00774 H 77.58715 Z"
       style="clip-rule:evenodd;fill:#ffffff;fill-rule:nonzero;stroke-width:0.352233;stroke-linecap:round;stroke-linejoin:round;stroke-miterlimit:1.5" /><path
       id="path133"
       d="m 78.804117,295.13832 -0.09651,0.47023 h -0.377242 l 0.420214,-2.01724 h 0.37689 l -0.227895,1.09086 0.595274,-0.56357 h 0.475515 l -0.632963,0.57308 0.343075,0.91687 h -0.463187 l -0.21768,-0.63966 z"
       style="clip-rule:evenodd;fill:#ffffff;fill-rule:nonzero;stroke-width:0.352233;stroke-linecap:round;stroke-linejoin:round;stroke-miterlimit:1.5" /><path
       id="path134"
       d="m 62.205121,294.60574 h 6.548722"
       style="clip-rule:evenodd;fill:none;fill-rule:evenodd;stroke:#ebb444;stroke-width:0.225429px;stroke-linecap:round;stroke-linejoin:round;stroke-miterlimit:1.5" /><path
       id="path135"
       d="m 80.31238,294.60574 h 6.548722"
       style="clip-rule:evenodd;fill:none;fill-rule:evenodd;stroke:#ebb444;stroke-width:0.225429px;stroke-linecap:round;stroke-linejoin:round;stroke-miterlimit:1.5" /><path
       style="font-style:italic;font-size:5.5575px;font-family:Menlo;-inkscape-font-specification:'Menlo Italic';display:none;fill:#ffffff;stroke-width:0.463124"
       d="m 13.941867,173.03067 h 0.518302 l -0.244226,3.28348 0.892782,-2.1709 h 0.572574 l 0.0407,2.17633 1.023036,-3.28891 h 0.537298 l -1.383948,4.05144 h -0.526443 l -0.08412,-2.36085 -1.006754,2.36085 h -0.510162 z m 4.946934,0.45589 -0.987758,2.10034 h 1.166858 z m -0.260507,-0.45589 h 0.667551 l 0.450461,4.05144 h -0.545438 l -0.09498,-1.0556 h -1.411084 l -0.499306,1.0556 h -0.588856 z m 2.995839,3.53585 1.622747,-3.53585 h 0.583429 l -1.951095,4.05144 h -0.700115 l -0.398902,-4.05144 h 0.537297 z m 2.895436,-3.53585 h 2.401556 l -0.08955,0.46131 h -1.856119 l -0.233371,1.19943 h 1.771996 l -0.08684,0.46131 h -1.77471 l -0.282216,1.46807 h 1.904963 l -0.08955,0.46132 h -2.455829 z m 7.147684,0.45046 -0.295785,1.52234 h 0.634988 q 0.447747,0 0.713682,-0.25779 0.268649,-0.26051 0.268649,-0.69198 0,-0.29307 -0.168244,-0.43146 -0.168245,-0.14111 -0.521016,-0.14111 z m -0.461316,-0.45046 h 1.193994 q 0.559006,0 0.852078,0.24965 0.293071,0.24966 0.293071,0.72183 0,0.67569 -0.43418,1.06374 -0.434179,0.38804 -1.193994,0.38804 h -0.632274 l -0.317494,1.62818 h -0.550865 z m 4.496472,2.13833 q 0.195381,0.038 0.312066,0.18182 0.1194,0.14382 0.265935,0.62413 l 0.328349,1.10716 h -0.545438 l -0.287644,-1.02304 q -0.1194,-0.42332 -0.268649,-0.55629 -0.146536,-0.13297 -0.445034,-0.13297 h -0.521016 l -0.333775,1.7123 h -0.550866 l 0.784237,-4.05144 h 1.128867 q 0.56172,0 0.86836,0.24422 0.309353,0.24152 0.309353,0.68384 0,0.49659 -0.282217,0.82223 -0.279503,0.32563 -0.762528,0.38804 z m -0.795092,-1.68787 -0.276789,1.43822 h 0.594283 q 0.442321,0 0.705542,-0.23066 0.265935,-0.23337 0.265935,-0.6187 0,-0.30393 -0.170958,-0.44504 -0.170958,-0.14382 -0.540011,-0.14382 z m 3.424593,3.23464 q 0.230658,0 0.426039,-0.1384 0.195381,-0.13839 0.322921,-0.39619 0.200808,-0.39347 0.325635,-0.95248 0.124826,-0.559 0.124826,-1.07459 0,-0.38534 -0.143822,-0.56715 -0.141108,-0.18453 -0.439607,-0.18453 -0.230658,0 -0.423325,0.1384 -0.192667,0.13839 -0.320207,0.39619 -0.206236,0.3989 -0.331062,0.95248 -0.124827,0.55358 -0.124827,1.06917 0,0.38805 0.141108,0.57257 0.143822,0.18453 0.442321,0.18453 z m 1.761141,-2.40156 q 0,0.2985 -0.06241,0.64856 -0.0597,0.35006 -0.176386,0.71911 -0.0787,0.24965 -0.170958,0.44775 -0.08955,0.19809 -0.195381,0.35819 -0.238798,0.34463 -0.534583,0.51017 -0.295785,0.16281 -0.689261,0.16281 -0.545438,0 -0.808659,-0.33377 -0.263222,-0.33378 -0.263222,-1.02847 0,-0.30121 0.05699,-0.64584 0.0597,-0.34734 0.176386,-0.71639 0.0787,-0.24966 0.168245,-0.44775 0.09226,-0.1981 0.198094,-0.3582 0.238799,-0.34463 0.534584,-0.50745 0.295785,-0.16553 0.68926,-0.16553 0.548152,0 0.811373,0.33378 0.265935,0.33106 0.265935,1.02303 z m 1.611893,-0.83308 -0.295785,1.52234 h 0.634988 q 0.447748,0 0.713683,-0.25779 0.268648,-0.26051 0.268648,-0.69198 0,-0.29307 -0.168244,-0.43146 -0.168245,-0.14111 -0.521016,-0.14111 z m -0.461316,-0.45046 h 1.193994 q 0.559006,0 0.852078,0.24965 0.293071,0.24966 0.293071,0.72183 0,0.67569 -0.43418,1.06374 -0.434179,0.38804 -1.193994,0.38804 h -0.632274 l -0.317494,1.62818 h -0.550865 z m 4.412351,0.45589 -0.987758,2.10034 h 1.166858 z m -0.260507,-0.45589 h 0.667551 l 0.450461,4.05144 h -0.545438 l -0.09498,-1.0556 h -1.411084 l -0.499306,1.0556 H 43.37382 Z m 4.241393,3.79093 q -0.236085,0.16824 -0.515588,0.25508 -0.279504,0.0841 -0.596997,0.0841 -0.629561,0 -0.968764,-0.36362 -0.336489,-0.36634 -0.336489,-1.04203 0,-0.24423 0.04342,-0.51831 0.04613,-0.27679 0.132967,-0.578 0.09498,-0.31749 0.222517,-0.57257 0.127541,-0.2578 0.279504,-0.43961 0.290357,-0.35277 0.640415,-0.52101 0.352771,-0.16825 0.803232,-0.16825 0.21709,0 0.431466,0.057 0.21709,0.057 0.426039,0.16553 l -0.111259,0.56172 q -0.176385,-0.17096 -0.371766,-0.25508 -0.192667,-0.0841 -0.412471,-0.0841 -0.265935,0 -0.499306,0.11398 -0.233372,0.11126 -0.417898,0.33106 -0.1194,0.14111 -0.225231,0.35277 -0.105831,0.21166 -0.18724,0.47488 -0.09226,0.30936 -0.141108,0.58072 -0.04613,0.27136 -0.04613,0.49117 0,0.46402 0.214376,0.71639 0.214377,0.25237 0.607852,0.25237 0.184526,0 0.331062,-0.0488 0.146535,-0.0516 0.24694,-0.14653 l 0.206235,-1.06646 h -0.588856 l 0.08141,-0.45046 h 1.112586 z m 2.71091,-3.33504 -0.987759,2.10034 h 1.166858 z m -0.260508,-0.45589 h 0.667551 l 0.450462,4.05144 h -0.545439 l -0.09498,-1.0556 h -1.411084 l -0.499307,1.0556 h -0.588856 z m 2.135618,0 h 3.09353 l -0.08955,0.46131 h -1.272689 l -0.694688,3.59013 H 54.70591 l 0.700115,-3.59013 h -1.27269 z m 3.761082,0 h 2.252307 l -0.08955,0.46131 h -0.852078 l -0.605138,3.12881 h 0.852078 l -0.08955,0.46132 H 57.19973 l 0.08955,-0.46132 h 0.849364 l 0.607851,-3.12881 h -0.852078 z m 3.769223,3.6851 q 0.230658,0 0.426039,-0.1384 0.195381,-0.13839 0.322921,-0.39619 0.200808,-0.39347 0.325635,-0.95248 0.124826,-0.559 0.124826,-1.07459 0,-0.38534 -0.143822,-0.56715 -0.141108,-0.18453 -0.439607,-0.18453 -0.230658,0 -0.423325,0.1384 -0.192667,0.13839 -0.320207,0.39619 -0.206236,0.3989 -0.331062,0.95248 -0.124827,0.55358 -0.124827,1.06917 0,0.38805 0.141108,0.57257 0.143822,0.18453 0.442321,0.18453 z m 1.761141,-2.40156 q 0,0.2985 -0.06241,0.64856 -0.0597,0.35006 -0.176386,0.71911 -0.07869,0.24965 -0.170958,0.44775 -0.08955,0.19809 -0.195381,0.35819 -0.238799,0.34463 -0.534583,0.51017 -0.295785,0.16281 -0.689261,0.16281 -0.545438,0 -0.808659,-0.33377 -0.263222,-0.33378 -0.263222,-1.02847 0,-0.30121 0.05699,-0.64584 0.0597,-0.34734 0.176386,-0.71639 0.0787,-0.24966 0.168244,-0.44775 0.09226,-0.1981 0.198095,-0.3582 0.238799,-0.34463 0.534584,-0.50745 0.295785,-0.16553 0.68926,-0.16553 0.548152,0 0.811373,0.33378 0.265935,0.33106 0.265935,1.02303 z m 0.9959,-1.28354 h 0.694688 l 0.716396,3.33504 0.648556,-3.33504 h 0.529157 l -0.789665,4.05144 h -0.694687 l -0.716397,-3.33505 -0.651269,3.33505 h -0.526443 z"
       id="text1"
       aria-label="WAVE PROPAGATION" /><path
       d="m 27.523752,256.2821 2.18466,-2.29555 2.05405,2.29555 h -4.12641"
       style="clip-rule:evenodd;display:none;fill:#d08c59;fill-rule:evenodd;stroke-width:0.352023;stroke-linecap:square;stroke-linejoin:round;stroke-miterlimit:1.5"
       id="path38" /><path
       d="m 45.881382,256.2821 2.18465,-2.29555 2.05406,2.29555 h -4.12642"
       style="clip-rule:evenodd;display:none;fill:#d08c59;fill-rule:evenodd;stroke-width:0.352023;stroke-linecap:square;stroke-linejoin:round;stroke-miterlimit:1.5"
       id="path39" /><path
       d="m 33.417682,268.35051 3.73355,-2.29519 0.50516,2.29519 h -4.12642"
       style="clip-rule:evenodd;display:none;fill:#d08c59;fill-rule:evenodd;stroke-width:0.352023;stroke-linecap:square;stroke-linejoin:round;stroke-miterlimit:1.5"
       id="path42" /><path
       d="m 21.305996,268.36705 0.49495,-2.29554 3.74376,2.29554 h -4.12641"
       style="clip-rule:evenodd;display:none;fill:#d08c59;fill-rule:evenodd;stroke-width:0.352023;stroke-linecap:square;stroke-linejoin:round;stroke-miterlimit:1.5"
       id="path43" /><path
       d="m 56.551202,268.36705 c -0.22072,-1.67739 -0.95293,-2.43564 -2.18466,-2.29554 0.14468,1.19618 -0.26753,2.10264 -2.05405,2.29554 h 4.12641"
       style="clip-rule:evenodd;display:none;fill:#d08c59;fill-rule:evenodd;stroke-width:0.352023;stroke-linecap:square;stroke-linejoin:round;stroke-miterlimit:1.5"
       id="path44" /><path
       d="m 39.802642,268.36705 c 0.22072,-1.67739 0.95293,-2.43564 2.1843,-2.29554 -0.14433,1.19618 0.26789,2.10264 2.05441,2.29554 h -4.12642"
       style="clip-rule:evenodd;display:none;fill:#d08c59;fill-rule:evenodd;stroke-width:0.352023;stroke-linecap:square;stroke-linejoin:round;stroke-miterlimit:1.5"
       id="path45" /><path
       style="font-style:italic;font-size:5.64444px;font-family:Menlo;-inkscape-font-specification:'Menlo Italic';text-align:center;text-anchor:middle;fill:#ffffff;stroke-width:0.352778"
       d="m 56.720338,171.13691 h 2.422589 l -0.09095,0.46853 h -1.863106 l -0.237023,1.21267 h 1.686718 l -0.08819,0.46853 h -1.689473 l -0.383095,1.96508 H 55.91832 Z m 3.359655,0 h 0.556727 l -0.711068,3.64628 h 1.98713 l -0.09095,0.46853 h -2.543857 z m 3.764797,3.74274 q 0.234266,0 0.432704,-0.14056 0.198437,-0.14056 0.327973,-0.40238 0.203949,-0.39963 0.330728,-0.96738 0.12678,-0.56776 0.12678,-1.09141 0,-0.39136 -0.146072,-0.57602 -0.143316,-0.18741 -0.446484,-0.18741 -0.234266,0 -0.429948,0.14056 -0.195681,0.14056 -0.325216,0.40238 -0.209462,0.40515 -0.336242,0.96739 -0.126779,0.56224 -0.126779,1.08589 0,0.39412 0.143316,0.58153 0.146072,0.18741 0.44924,0.18741 z m 1.788692,-2.43912 q 0,0.30317 -0.06339,0.6587 -0.06063,0.35553 -0.179145,0.73036 -0.07993,0.25356 -0.173633,0.45475 -0.09095,0.2012 -0.198437,0.3638 -0.242535,0.35003 -0.542947,0.51815 -0.300412,0.16536 -0.700043,0.16536 -0.553971,0 -0.82131,-0.339 -0.267339,-0.33899 -0.267339,-1.04455 0,-0.30592 0.05788,-0.65594 0.06063,-0.35278 0.179145,-0.72761 0.07993,-0.25356 0.170877,-0.45475 0.09371,-0.20119 0.201193,-0.3638 0.242535,-0.35002 0.542947,-0.51539 0.300412,-0.16812 0.700043,-0.16812 0.556727,0 0.824066,0.339 0.270095,0.33624 0.270095,1.03904 z m 0.62563,-1.30362 h 0.52641 l -0.248047,3.33485 0.906749,-2.20486 h 0.581531 l 0.04134,2.21037 1.03904,-3.34036 h 0.545703 l -1.405598,4.11481 h -0.534678 l -0.08544,-2.39778 -1.022503,2.39778 h -0.518142 z m 3.946698,0 h 2.439125 l -0.09095,0.46853 H 70.66883 l -0.237022,1.21818 h 1.799716 l -0.08819,0.46854 h -1.802473 l -0.286632,1.49103 h 1.934765 l -0.09095,0.46853 h -2.494247 z m 4.561302,2.17178 q 0.198437,0.0386 0.316949,0.18466 0.121267,0.14607 0.270095,0.6339 l 0.333485,1.12447 H 75.13367 l -0.292144,-1.03904 q -0.121267,-0.42994 -0.272851,-0.56499 -0.148828,-0.13505 -0.451997,-0.13505 h -0.529166 l -0.338997,1.73908 h -0.559483 l 0.796505,-4.11481 h 1.146527 q 0.570508,0 0.881944,0.24804 0.314193,0.24529 0.314193,0.69453 0,0.50436 -0.286632,0.83509 -0.283876,0.33073 -0.774457,0.39412 z m -0.80753,-1.71428 -0.281119,1.46072 h 0.60358 q 0.44924,0 0.716579,-0.23426 0.270096,-0.23703 0.270096,-0.62839 0,-0.30868 -0.173633,-0.45199 -0.173633,-0.14608 -0.548459,-0.14608 z m 6.903967,0 -0.300412,1.54616 h 0.644922 q 0.454752,0 0.724847,-0.26183 0.272852,-0.26458 0.272852,-0.70279 0,-0.29766 -0.170877,-0.43822 -0.170877,-0.14332 -0.529166,-0.14332 z m -0.468532,-0.4575 h 1.212672 q 0.567752,0 0.865408,0.25355 0.297656,0.25356 0.297656,0.73312 0,0.68626 -0.440972,1.08038 -0.440972,0.39412 -1.212673,0.39412 h -0.642165 l -0.322461,1.65364 h -0.559483 z m 4.481376,0.46302 -1.003211,2.1332 h 1.185112 z m -0.264583,-0.46302 h 0.677994 l 0.457509,4.11481 h -0.553971 l -0.09646,-1.07211 H 83.66372 l -0.507117,1.07211 h -0.598068 z m 2.16903,0 h 3.141925 l -0.09095,0.46853 h -1.292599 l -0.705555,3.64628 h -0.562239 l 0.711067,-3.64628 h -1.292599 z m 5.468051,3.96874 q -0.23151,0.113 -0.468533,0.16812 -0.234266,0.0579 -0.485069,0.0579 -0.633897,0 -0.983918,-0.36656 -0.347266,-0.36656 -0.347266,-1.02801 0,-0.60634 0.192925,-1.20165 0.192926,-0.59531 0.507118,-0.9729 0.2949,-0.35829 0.650434,-0.52916 0.355533,-0.17088 0.810285,-0.17088 0.220486,0 0.438216,0.0579 0.21773,0.0579 0.424436,0.16812 L 92.87452,171.859 q -0.176389,-0.17364 -0.37207,-0.25907 -0.195682,-0.0854 -0.416168,-0.0854 -0.261827,0 -0.485069,0.113 -0.223242,0.11024 -0.418923,0.33899 -0.286632,0.339 -0.46302,0.86817 -0.173633,0.52916 -0.173633,1.06109 0,0.4768 0.214974,0.73036 0.214974,0.25355 0.620116,0.25355 0.234267,0 0.482313,-0.0882 0.250803,-0.0882 0.493338,-0.25632 z m 1.576474,-3.96874 h 0.556727 l -0.325217,1.68671 h 1.524109 l 0.325217,-1.68671 h 0.559483 l -0.802018,4.11481 h -0.556727 l 0.383095,-1.95956 h -1.529622 l -0.377582,1.95956 h -0.559483 z"
       id="text2"
       aria-label="FLOWER PATCH" /><rect
       style="opacity:1;fill:#212121;fill-opacity:1;stroke:#d08658;stroke-width:0.352778;stroke-dasharray:none;stroke-opacity:1"
       id="rect2"
       width="144.05548"
       height="90.32222"
       x="4.1642609"
       y="181.65416"
       ry="5"
       rx="5" /><path
       style="font-style:italic;font-size:3.175px;font-family:Menlo;-inkscape-font-specification:'Menlo Italic';text-align:center;text-anchor:middle;fill:#d08658;stroke-width:0.352778"
       d="m 15.137179,185.62835 q -0.130225,0.0636 -0.26355,0.0946 -0.131775,0.0326 -0.272852,0.0326 -0.356567,0 -0.553454,-0.20619 -0.195337,-0.20619 -0.195337,-0.57826 0,-0.34106 0.10852,-0.67592 0.108521,-0.33487 0.285254,-0.54726 0.165881,-0.20154 0.365869,-0.29765 0.199988,-0.0961 0.455786,-0.0961 0.124024,0 0.246497,0.0326 0.122473,0.0326 0.238745,0.0946 l -0.06356,0.32091 q -0.09922,-0.0977 -0.20929,-0.14573 -0.11007,-0.048 -0.234094,-0.048 -0.147278,0 -0.272851,0.0636 -0.125574,0.062 -0.235645,0.19068 -0.16123,0.19069 -0.260449,0.48835 -0.09767,0.29765 -0.09767,0.59686 0,0.2682 0.120922,0.41083 0.120923,0.14262 0.348816,0.14262 0.131775,0 0.271302,-0.0496 0.141076,-0.0496 0.277502,-0.14417 z"
       id="text3"
       aria-label="C" /><path
       style="font-style:italic;font-size:3.175px;font-family:Menlo;-inkscape-font-specification:'Menlo Italic';text-align:center;text-anchor:middle;fill:#d08658;stroke-width:0.352778"
       d="m 25.695783,185.62835 q -0.130224,0.0636 -0.26355,0.0946 -0.131775,0.0326 -0.272851,0.0326 -0.356568,0 -0.553455,-0.20619 -0.195337,-0.20619 -0.195337,-0.57826 0,-0.34106 0.108521,-0.67592 0.10852,-0.33487 0.285254,-0.54726 0.165881,-0.20154 0.365869,-0.29765 0.199988,-0.0961 0.455786,-0.0961 0.124023,0 0.246497,0.0326 0.122473,0.0326 0.238745,0.0946 l -0.06356,0.32091 q -0.09922,-0.0977 -0.20929,-0.14573 -0.110071,-0.048 -0.234094,-0.048 -0.147278,0 -0.272852,0.0636 -0.125573,0.062 -0.235644,0.19068 -0.161231,0.19069 -0.260449,0.48835 -0.09767,0.29765 -0.09767,0.59686 0,0.2682 0.120923,0.41083 0.120923,0.14262 0.348816,0.14262 0.131775,0 0.271301,-0.0496 0.141077,-0.0496 0.277503,-0.14417 z m 1.508435,-2.18902 -0.139526,0.54881 h 0.379822 l 0.141076,-0.54881 h 0.248047 l -0.141077,0.54881 h 0.378272 v 0.23719 H 27.6352 l -0.151929,0.60927 h 0.387573 v 0.23719 h -0.448035 l -0.16123,0.63872 h -0.248047 l 0.162781,-0.63872 h -0.381372 l -0.162781,0.63872 h -0.246496 l 0.16123,-0.63872 h -0.399976 v -0.23719 h 0.460437 l 0.151929,-0.60927 h -0.412378 v -0.23719 h 0.469739 l 0.139526,-0.54881 z m 0.182935,0.786 h -0.379822 l -0.151929,0.60927 h 0.381372 z"
       id="text4"
       aria-label="C#" /><path
       style="font-style:italic;font-size:3.175px;font-family:Menlo;-inkscape-font-specification:'Menlo Italic';text-align:center;text-anchor:middle;fill:#d08658;stroke-width:0.352778"
       d="m 37.41168,185.45316 q 0.286804,0 0.460437,-0.0961 0.173633,-0.0977 0.279053,-0.31626 0.08372,-0.17829 0.136425,-0.42478 0.05426,-0.24805 0.05426,-0.45424 0,-0.27285 -0.127124,-0.39067 -0.127124,-0.11783 -0.426331,-0.11783 h -0.176732 l -0.350366,1.79989 z m 0.406177,-2.05723 q 0.42323,0 0.632519,0.19223 0.21084,0.19224 0.21084,0.58291 0,0.25115 -0.06511,0.5178 -0.06511,0.26665 -0.175183,0.47284 -0.161231,0.29611 -0.403077,0.42323 -0.240295,0.12557 -0.651123,0.12557 h -0.469738 l 0.451135,-2.31458 z"
       id="text5"
       aria-label="D" /><path
       style="font-style:italic;font-size:3.175px;font-family:Menlo;-inkscape-font-specification:'Menlo Italic';text-align:center;text-anchor:middle;fill:#d08658;stroke-width:0.352778"
       d="m 47.906722,185.45316 q 0.286804,0 0.460437,-0.0961 0.173633,-0.0977 0.279053,-0.31626 0.08372,-0.17829 0.136426,-0.42478 0.05426,-0.24805 0.05426,-0.45424 0,-0.27285 -0.127124,-0.39067 -0.127124,-0.11783 -0.426331,-0.11783 H 48.10671 l -0.350366,1.79989 z m 0.406177,-2.05723 q 0.42323,0 0.632519,0.19223 0.21084,0.19224 0.21084,0.58291 0,0.25115 -0.06511,0.5178 -0.06511,0.26665 -0.175183,0.47284 -0.161231,0.29611 -0.403076,0.42323 -0.240296,0.12557 -0.651123,0.12557 h -0.469738 l 0.451135,-2.31458 z m 2.06344,0.0434 -0.139527,0.54881 h 0.379822 l 0.141077,-0.54881 h 0.248047 l -0.141077,0.54881 h 0.378271 v 0.23719 H 50.80732 l -0.151929,0.60927 h 0.387574 v 0.23719 H 50.59493 l -0.16123,0.63872 h -0.248047 l 0.16278,-0.63872 h -0.381372 l -0.16278,0.63872 h -0.246497 l 0.161231,-0.63872 h -0.399976 v -0.23719 h 0.460437 l 0.151929,-0.60927 h -0.412378 v -0.23719 h 0.469738 l 0.139527,-0.54881 z m 0.182934,0.786 h -0.379821 l -0.151929,0.60927 h 0.381372 z"
       id="text6"
       aria-label="D#" /><path
       style="font-style:italic;font-size:3.175px;font-family:Menlo;-inkscape-font-specification:'Menlo Italic';text-align:center;text-anchor:middle;fill:#d08658;stroke-width:0.352778"
       d="m 60.395443,183.39593 h 1.372009 l -0.05116,0.26355 h -1.060401 l -0.133325,0.68522 h 1.012341 l -0.04961,0.26355 h -1.013891 l -0.161231,0.83871 h 1.088306 l -0.05116,0.26355 h -1.403014 z"
       id="text7"
       aria-label="E" /><path
       style="font-style:italic;font-size:3.175px;font-family:Menlo;-inkscape-font-specification:'Menlo Italic';text-align:center;text-anchor:middle;fill:#d08658;stroke-width:0.352778"
       d="m 71.938483,183.39593 h 1.362707 l -0.05116,0.26355 h -1.047998 l -0.133325,0.68212 h 0.94878 l -0.04961,0.26355 h -0.950329 l -0.21549,1.10536 h -0.31471 z"
       id="text8"
       aria-label="F" /><path
       style="font-style:italic;font-size:3.175px;font-family:Menlo;-inkscape-font-specification:'Menlo Italic';text-align:center;text-anchor:middle;fill:#d08658;stroke-width:0.352778"
       d="m 82.535845,183.39593 h 1.362707 l -0.05116,0.26355 h -1.047999 l -0.133325,0.68212 h 0.94878 l -0.04961,0.26355 H 82.61491 l -0.215491,1.10536 h -0.314711 z m 2.378148,0.0434 -0.139526,0.54881 h 0.379821 l 0.141077,-0.54881 h 0.248047 l -0.141077,0.54881 h 0.378272 v 0.23719 h -0.435632 l -0.151929,0.60927 h 0.387574 v 0.23719 h -0.448036 l -0.16123,0.63872 h -0.248047 l 0.162781,-0.63872 h -0.381372 l -0.162781,0.63872 h -0.246497 l 0.161231,-0.63872 h -0.399976 v -0.23719 h 0.460437 l 0.151929,-0.60927 h -0.412378 v -0.23719 h 0.469739 l 0.139526,-0.54881 z m 0.182935,0.786 h -0.379822 l -0.151929,0.60927 h 0.381372 z"
       id="text9"
       aria-label="F#" /><path
       style="font-style:italic;font-size:3.175px;font-family:Menlo;-inkscape-font-specification:'Menlo Italic';text-align:center;text-anchor:middle;fill:#d08658;stroke-width:0.352778"
       d="m 96.001248,185.56168 q -0.134875,0.0961 -0.294555,0.14573 -0.159682,0.0481 -0.341065,0.0481 -0.359668,0 -0.553454,-0.20774 -0.192238,-0.20929 -0.192238,-0.59531 0,-0.13953 0.02481,-0.29611 0.02636,-0.15813 0.07596,-0.33021 0.05426,-0.18138 0.127124,-0.32711 0.07286,-0.14728 0.15968,-0.25115 0.165882,-0.20154 0.36587,-0.29765 0.201538,-0.0961 0.458886,-0.0961 0.124024,0 0.246497,0.0326 0.124023,0.0326 0.243396,0.0946 l -0.06356,0.32091 q -0.100769,-0.0977 -0.21239,-0.14573 -0.110072,-0.048 -0.235646,-0.048 -0.151927,0 -0.285253,0.0651 -0.133325,0.0636 -0.238745,0.18913 -0.06821,0.0806 -0.128674,0.20154 -0.06046,0.12092 -0.10697,0.2713 -0.05271,0.17674 -0.08062,0.33177 -0.02635,0.15503 -0.02635,0.2806 0,0.2651 0.122474,0.40928 0.122473,0.14417 0.347265,0.14417 0.105419,0 0.189136,-0.0279 0.08372,-0.0295 0.141077,-0.0837 l 0.117822,-0.60926 h -0.336414 l 0.04651,-0.25735 h 0.635621 z"
       id="text10"
       aria-label="G" /><path
       style="font-style:italic;font-size:3.175px;font-family:Menlo;-inkscape-font-specification:'Menlo Italic';text-align:center;text-anchor:middle;fill:#d08658;stroke-width:0.352778"
       d="m 106.53195,185.56168 q -0.13488,0.0961 -0.29456,0.14573 -0.15968,0.0481 -0.34106,0.0481 -0.35967,0 -0.55346,-0.20774 -0.19223,-0.20929 -0.19223,-0.59531 0,-0.13953 0.0248,-0.29611 0.0264,-0.15813 0.076,-0.33021 0.0543,-0.18138 0.12713,-0.32711 0.0729,-0.14728 0.15968,-0.25115 0.16588,-0.20154 0.36587,-0.29765 0.20154,-0.0961 0.45888,-0.0961 0.12403,0 0.2465,0.0326 0.12402,0.0326 0.2434,0.0946 l -0.0636,0.32091 q -0.10076,-0.0977 -0.21239,-0.14573 -0.11007,-0.048 -0.23564,-0.048 -0.15193,0 -0.28525,0.0651 -0.13333,0.0636 -0.23875,0.18913 -0.0682,0.0806 -0.12867,0.20154 -0.0605,0.12092 -0.10697,0.2713 -0.0527,0.17674 -0.0806,0.33177 -0.0264,0.15503 -0.0264,0.2806 0,0.2651 0.12247,0.40928 0.12247,0.14417 0.34727,0.14417 0.10542,0 0.18913,-0.0279 0.0837,-0.0295 0.14108,-0.0837 l 0.11782,-0.60926 h -0.33641 l 0.0465,-0.25735 h 0.63562 z m 1.46967,-2.12235 -0.13952,0.54881 h 0.37982 l 0.14108,-0.54881 h 0.24804 l -0.14107,0.54881 h 0.37827 v 0.23719 h -0.43563 l -0.15193,0.60927 h 0.38757 v 0.23719 h -0.44803 l -0.16124,0.63872 h -0.24804 l 0.16278,-0.63872 h -0.38137 l -0.16278,0.63872 h -0.2465 l 0.16123,-0.63872 h -0.39998 v -0.23719 h 0.46044 l 0.15193,-0.60927 h -0.41238 v -0.23719 h 0.46974 l 0.13953,-0.54881 z m 0.18294,0.786 h -0.37982 l -0.15193,0.60927 h 0.38137 z"
       id="text11"
       aria-label="G#" /><path
       style="font-style:italic;font-size:3.175px;font-family:Menlo;-inkscape-font-specification:'Menlo Italic';text-align:center;text-anchor:middle;fill:#d08658;stroke-width:0.352778"
       d="m 118.9548,183.65637 -0.5643,1.19993 h 0.66662 z m -0.14883,-0.26044 h 0.38138 l 0.25735,2.31458 h -0.31161 l -0.0543,-0.60306 h -0.80617 l -0.28525,0.60306 h -0.33641 z"
       id="text12"
       aria-label="A" /><path
       style="font-style:italic;font-size:3.175px;font-family:Menlo;-inkscape-font-specification:'Menlo Italic';text-align:center;text-anchor:middle;fill:#d08658;stroke-width:0.352778"
       d="m 128.81963,184.60515 -0.16588,0.84801 h 0.38447 q 0.28525,0 0.43563,-0.13487 0.15193,-0.13488 0.15193,-0.38912 0,-0.16589 -0.10542,-0.24495 -0.10542,-0.0791 -0.32711,-0.0791 z m 0.18293,-0.95188 -0.13642,0.69764 h 0.37827 q 0.23409,0 0.36742,-0.11163 0.13487,-0.11317 0.13487,-0.31005 0,-0.14573 -0.0868,-0.21084 -0.0853,-0.0651 -0.27905,-0.0651 z m -0.26355,-0.25734 h 0.68678 q 0.31471,0 0.47594,0.12402 0.16123,0.12247 0.16123,0.36122 0,0.23874 -0.14262,0.39997 -0.14263,0.15968 -0.38448,0.19069 0.19379,0.0357 0.29611,0.15813 0.10387,0.12247 0.10387,0.31471 0,0.36277 -0.24805,0.5643 -0.24649,0.20154 -0.69763,0.20154 h -0.70073 z m 2.26188,2.1177 q 0.13023,0 0.23565,-0.0698 0.10542,-0.0698 0.17673,-0.20309 0.076,-0.14572 0.11937,-0.32556 0.045,-0.17983 0.045,-0.34726 0,-0.19844 -0.0791,-0.29766 -0.0775,-0.0992 -0.2341,-0.0992 -0.12867,0 -0.23564,0.0713 -0.10542,0.0713 -0.18449,0.20773 -0.0744,0.13333 -0.11937,0.31471 -0.045,0.17984 -0.045,0.35192 0,0.19069 0.0822,0.29456 0.0837,0.10232 0.23874,0.10232 z m -0.16278,-1.31775 q 0.0961,-0.13023 0.22324,-0.19689 0.12713,-0.0667 0.28526,-0.0667 0.25424,0 0.39532,0.16123 0.14108,0.15968 0.14108,0.44803 0,0.22479 -0.0636,0.44804 -0.0636,0.22324 -0.17519,0.39067 -0.11782,0.17828 -0.28835,0.2775 -0.16898,0.0977 -0.36122,0.0977 -0.15193,0 -0.2558,-0.0667 -0.10232,-0.0667 -0.15503,-0.19689 l -0.0403,0.21859 h -0.2868 l 0.46974,-2.41225 h 0.2868 z"
       id="text13"
       aria-label="Bb" /><path
       style="font-style:italic;font-size:3.175px;font-family:Menlo;-inkscape-font-specification:'Menlo Italic';text-align:center;text-anchor:middle;fill:#d08658;stroke-width:0.352778"
       d="m 141.26804,184.60515 -0.16589,0.84801 h 0.38448 q 0.28525,0 0.43563,-0.13487 0.15193,-0.13488 0.15193,-0.38912 0,-0.16589 -0.10542,-0.24495 -0.10542,-0.0791 -0.32711,-0.0791 z m 0.18293,-0.95188 -0.13643,0.69764 h 0.37828 q 0.23409,0 0.36741,-0.11163 0.13488,-0.11317 0.13488,-0.31005 0,-0.14573 -0.0868,-0.21084 -0.0853,-0.0651 -0.27905,-0.0651 z m -0.26355,-0.25734 h 0.68678 q 0.31471,0 0.47594,0.12402 0.16123,0.12247 0.16123,0.36122 0,0.23874 -0.14263,0.39997 -0.14262,0.15968 -0.38447,0.19069 0.19379,0.0357 0.29611,0.15813 0.10387,0.12247 0.10387,0.31471 0,0.36277 -0.24805,0.5643 -0.2465,0.20154 -0.69763,0.20154 h -0.70073 z"
       id="text14"
       aria-label="B" /><path
       style="font-style:italic;font-size:3.175px;font-family:Menlo;-inkscape-font-specification:'Menlo Italic';text-align:center;text-anchor:middle;fill:#d08658;stroke-width:0.352778"
       d="m 6.2198923,192.15447 h 1.0604 l -0.04961,0.26355 h -1.416968 l 0.05116,-0.26355 0.482141,-0.42478 0.06046,-0.0543 q 0.832508,-0.73019 0.832508,-1.0449 0,-0.14418 -0.09922,-0.22634 -0.09922,-0.0822 -0.275952,-0.0822 -0.142627,0 -0.306958,0.0527 -0.164331,0.0512 -0.359668,0.15658 l 0.06356,-0.31626 q 0.173633,-0.076 0.334863,-0.11472 0.162781,-0.0388 0.313159,-0.0388 0.286805,0 0.463538,0.15038 0.176733,0.15038 0.176733,0.39067 0,0.14883 -0.05581,0.28371 -0.05426,0.13332 -0.181384,0.293 -0.05116,0.0651 -0.184485,0.18759 -0.133326,0.12247 -0.412378,0.36277 z"
       id="text16"
       aria-label="2" /><path
       style="font-style:italic;font-size:3.175px;font-family:Menlo;-inkscape-font-specification:'Menlo Italic';text-align:center;text-anchor:middle;fill:#d08658;stroke-width:0.352778"
       d="m 7.0229433,205.72178 q 0.176734,0.031 0.275953,0.15813 0.09922,0.12713 0.09922,0.32246 0,0.36277 -0.260449,0.58291 -0.258899,0.22014 -0.692981,0.22014 -0.167432,0 -0.327112,-0.0294 -0.15813,-0.0279 -0.303857,-0.0853 l 0.05891,-0.31161 q 0.141077,0.0806 0.288354,0.12248 0.147278,0.0403 0.299207,0.0403 0.282153,0 0.455786,-0.14418 0.173633,-0.14573 0.173633,-0.37672 0,-0.18139 -0.111621,-0.27441 -0.110071,-0.0946 -0.324011,-0.0946 h -0.237195 l 0.04961,-0.25735 h 0.238745 q 0.244947,0 0.389124,-0.11627 0.144177,-0.11628 0.144177,-0.30851 0,-0.15503 -0.09612,-0.2279 -0.09457,-0.0744 -0.294556,-0.0744 -0.127124,0 -0.277502,0.031 -0.150379,0.031 -0.325562,0.093 l 0.05736,-0.28835 q 0.190686,-0.0512 0.341065,-0.0744 0.150378,-0.0248 0.280603,-0.0248 0.291455,0 0.458886,0.13643 0.167432,0.13642 0.167432,0.37207 0,0.23719 -0.139526,0.39842 -0.137976,0.15968 -0.387574,0.21084 z"
       id="text17"
       aria-label="3" /><path
       style="font-style:italic;font-size:3.175px;font-family:Menlo;-inkscape-font-specification:'Menlo Italic';text-align:center;text-anchor:middle;fill:#d08658;stroke-width:0.352778"
       d="m 7.1252633,219.5395 -0.968933,1.18132 h 0.733289 z m 0.0062,-0.32711 h 0.361218 l -0.294555,1.50843 h 0.306958 l -0.04651,0.25425 h -0.308508 l -0.108521,0.5519 h -0.306958 l 0.10697,-0.5519 h -0.982885 l 0.05581,-0.29611 z"
       id="text18"
       aria-label="4" /><path
       style="font-style:italic;font-size:3.175px;font-family:Menlo;-inkscape-font-specification:'Menlo Italic';text-align:center;text-anchor:middle;fill:#d08658;stroke-width:0.352778"
       d="m 6.3656203,233.7549 h 1.172021 l -0.05116,0.26355 h -0.885217 l -0.111621,0.56896 q 0.07286,-0.0248 0.141077,-0.0357 0.06976,-0.0124 0.137976,-0.0124 0.291455,0 0.469738,0.17673 0.178284,0.17519 0.178284,0.46199 0,0.19224 -0.08216,0.37362 -0.08062,0.18139 -0.229444,0.31471 -0.136426,0.12402 -0.313159,0.18604 -0.175183,0.062 -0.396875,0.062 -0.167432,0 -0.313159,-0.0264 -0.144177,-0.0248 -0.255798,-0.0729 l 0.06356,-0.31781 q 0.130224,0.0791 0.26665,0.11782 0.136426,0.0388 0.282153,0.0388 0.288355,0 0.477491,-0.18139 0.189135,-0.18138 0.189135,-0.45113 0,-0.19844 -0.125573,-0.31161 -0.124024,-0.11317 -0.344165,-0.11317 -0.122474,0 -0.251148,0.031 -0.127124,0.031 -0.243396,0.0899 z"
       id="text19"
       aria-label="5" /><path
       style="font-style:italic;font-size:3.175px;font-family:Menlo;-inkscape-font-specification:'Menlo Italic';text-align:center;text-anchor:middle;fill:#d08658;stroke-width:0.352778"
       d="m 7.0694533,249.73451 q 0,-0.17519 -0.08992,-0.26975 -0.08992,-0.0946 -0.255798,-0.0946 -0.226343,0 -0.379822,0.19534 -0.153479,0.19533 -0.153479,0.48989 0,0.18758 0.09457,0.29455 0.09457,0.10542 0.260449,0.10542 0.223242,0 0.37362,-0.20774 0.150379,-0.20773 0.150379,-0.51314 z m 0.415478,-1.34256 -0.05581,0.28836 q -0.08992,-0.0574 -0.195337,-0.0868 -0.10542,-0.031 -0.221692,-0.031 -0.299206,0 -0.494543,0.22324 -0.193787,0.22169 -0.279053,0.66042 0.10542,-0.15813 0.249597,-0.23874 0.145728,-0.0822 0.320911,-0.0822 0.275952,0 0.42478,0.15503 0.150378,0.15348 0.150378,0.43873 0,0.18449 -0.06201,0.36897 -0.06201,0.18449 -0.167432,0.31316 -0.120923,0.15038 -0.275952,0.2248 -0.153479,0.0744 -0.342615,0.0744 -0.314709,0 -0.486792,-0.18138 -0.170532,-0.18139 -0.170532,-0.5147 0,-0.25735 0.06046,-0.53485 0.06046,-0.27751 0.165882,-0.50385 0.151928,-0.33331 0.387573,-0.49919 0.237195,-0.16743 0.558105,-0.16743 0.116272,0 0.226343,0.0248 0.110071,0.0233 0.207739,0.0682 z"
       id="text20"
       aria-label="6" /><path
       style="font-style:italic;font-size:3.175px;font-family:Menlo;-inkscape-font-specification:'Menlo Italic';text-align:center;text-anchor:middle;fill:#d08658;stroke-width:0.352778"
       d="m 6.1640823,262.9073 h 1.451074 l -0.02481,0.14573 -1.247985,2.16886 h -0.336414 l 1.206128,-2.05104 h -1.097608 z"
       id="text21"
       aria-label="7" /></g><rect
     style="display:inline;fill:#3b3b3b;fill-opacity:1;stroke:#d08658;stroke-width:0.361153;stroke-linejoin:round;stroke-dasharray:none;stroke-opacity:1"
     id="rect48"
     width="11.32689"
     height="20.676527"
     x="137.05612"
     y="104.54137"
     rx="5"
     ry="5" /><path
     style="font-style:italic;font-size:3.175px;font-family:Menlo;-inkscape-font-specification:'Menlo Italic';text-align:center;text-anchor:middle;display:inline;fill:#ffffff;stroke-width:0.352778"
     d="m 30.108147,119.36278 h 0.313159 l -0.182935,0.94878 h 0.857312 l 0.182935,-0.94878 h 0.314709 l -0.451135,2.31459 h -0.313159 l 0.215491,-1.10226 h -0.860413 l -0.21239,1.10226 h -0.314709 z m 1.651062,1.42627 0.275952,-1.42627 h 0.314709 l -0.277502,1.42627 q -0.0031,0.0202 -0.0124,0.0636 -0.04651,0.23875 -0.04651,0.33022 0,0.14262 0.08372,0.21394 0.08527,0.0713 0.255798,0.0713 0.137976,0 0.234094,-0.0434 0.09612,-0.045 0.165882,-0.14108 0.03411,-0.0481 0.06821,-0.16433 0.03566,-0.11782 0.07751,-0.33021 l 0.275952,-1.42627 h 0.31471 l -0.275952,1.42627 q -0.06511,0.33952 -0.139527,0.4992 -0.07286,0.15813 -0.193786,0.25579 -0.110071,0.0868 -0.251148,0.13333 -0.141077,0.045 -0.305408,0.045 -0.297656,0 -0.458886,-0.13953 -0.15968,-0.13953 -0.15968,-0.39687 0,-0.0574 0.0124,-0.15503 0.01395,-0.0977 0.04186,-0.24185 z m 2.266528,-1.42627 h 1.372009 l -0.05116,0.26355 h -1.060401 l -0.133325,0.68523 h 1.012341 l -0.04961,0.26355 h -1.013892 l -0.16123,0.83871 h 1.088306 l -0.05116,0.26355 H 33.5746 Z"
     id="text22"
     aria-label="HUE" /><path
     style="font-style:italic;font-size:3.175px;font-family:Menlo;-inkscape-font-specification:'Menlo Italic';text-align:center;text-anchor:middle;display:inline;fill:#ffffff;stroke-width:0.352778"
     d="m 58.360075,119.36278 h 1.362708 l -0.05116,0.26355 h -1.047998 l -0.133325,0.68213 h 0.948779 l -0.04961,0.26355 h -0.95033 l -0.21549,1.10536 h -0.31471 z m 1.854151,0 h 1.286743 l -0.05116,0.26355 h -0.486792 l -0.345715,1.78749 h 0.486792 l -0.05116,0.26355 h -1.286743 l 0.05116,-0.26355 h 0.485241 l 0.347266,-1.78749 h -0.486792 z m 1.947168,0 h 0.313159 l -0.399976,2.05104 h 1.117761 l -0.05116,0.26355 h -1.430921 z m 1.911511,0 h 0.313159 l -0.399976,2.05104 h 1.117761 l -0.05116,0.26355 h -1.430921 z"
     id="text23"
     aria-label="FILL" /><path
     style="font-style:italic;font-size:3.175px;font-family:Menlo;-inkscape-font-specification:'Menlo Italic';text-align:center;text-anchor:middle;display:inline;fill:#ffffff;stroke-width:0.352778"
     d="m 86.395224,119.36278 h 1.362704 l -0.0512,0.26355 h -1.047994 l -0.13333,0.68213 h 0.948774 l -0.0496,0.26355 h -0.950314 l -0.2155,1.10536 h -0.314707 z m 1.889801,0 h 0.313157 l -0.399977,2.05104 h 1.117754 l -0.0512,0.26355 h -1.430914 z m 2.117694,2.1053 q 0.13177,0 0.24339,-0.0791 0.11162,-0.0791 0.18449,-0.22634 0.11472,-0.22479 0.18603,-0.54415 0.0713,-0.31936 0.0713,-0.61392 0,-0.22014 -0.0822,-0.32401 -0.0806,-0.10542 -0.25115,-0.10542 -0.13177,0 -0.24184,0.0791 -0.11007,0.0791 -0.18294,0.22634 -0.11782,0.22789 -0.18913,0.54415 -0.0713,0.31626 -0.0713,0.61082 0,0.22169 0.0806,0.32711 0.0822,0.10542 0.2527,0.10542 z m 1.00614,-1.37201 q 0,0.17053 -0.0357,0.37052 -0.0341,0.19999 -0.10077,0.41083 -0.045,0.14262 -0.0977,0.2558 -0.0512,0.11317 -0.11162,0.20463 -0.13642,0.19689 -0.30541,0.29146 -0.16898,0.093 -0.39377,0.093 -0.31161,0 -0.46199,-0.19069 -0.15038,-0.19068 -0.15038,-0.58756 0,-0.17208 0.0326,-0.36897 0.0341,-0.19844 0.10077,-0.40928 0.045,-0.14262 0.0961,-0.2558 0.0527,-0.11317 0.11317,-0.20463 0.13642,-0.19689 0.30541,-0.28991 0.16898,-0.0946 0.39377,-0.0946 0.31316,0 0.46354,0.19069 0.15193,0.18914 0.15193,0.58446 z m 0.35191,-0.73329 h 0.29611 l -0.13953,1.87586 0.51005,-1.24024 h 0.32711 l 0.0233,1.24334 0.58446,-1.87896 h 0.30695 l -0.79065,2.31459 h -0.30075 l -0.0481,-1.34876 -0.57516,1.34876 h -0.29145 z m 2.22002,0 h 1.372007 l -0.0512,0.26355 h -1.0604 l -0.133317,0.68523 h 1.012337 l -0.0496,0.26355 h -1.013887 l -0.16123,0.83871 h 1.088297 l -0.0512,0.26355 h -1.403007 z m 2.565737,1.22163 q 0.11162,0.0217 0.17828,0.10387 0.0682,0.0822 0.15193,0.35657 l 0.18759,0.63252 h -0.31161 l -0.16433,-0.58446 q -0.0682,-0.24185 -0.15348,-0.31781 -0.0837,-0.076 -0.25425,-0.076 h -0.29766 l -0.19068,0.97824 h -0.31471 l 0.44803,-2.31459 h 0.64492 q 0.32091,0 0.4961,0.13953 0.17673,0.13797 0.17673,0.39067 0,0.28371 -0.16123,0.46974 -0.15968,0.18604 -0.43563,0.22169 z m -0.45424,-0.96428 -0.15813,0.82166 h 0.33952 q 0.25269,0 0.40307,-0.13178 0.15193,-0.13332 0.15193,-0.35347 0,-0.17363 -0.0977,-0.25424 -0.0977,-0.0822 -0.3085,-0.0822 z"
     id="text24"
     aria-label="FLOWER" /><path
     style="font-style:italic;font-size:3.175px;font-family:Menlo;-inkscape-font-specification:'Menlo Italic';text-align:center;text-anchor:middle;display:inline;fill:#ffffff;stroke-width:0.352778"
     d="m 117.0909,119.62013 -0.16898,0.86971 h 0.36277 q 0.2558,0 0.40772,-0.14727 0.15348,-0.14883 0.15348,-0.39533 0,-0.16743 -0.0961,-0.24649 -0.0961,-0.0806 -0.29766,-0.0806 z m -0.26355,-0.25735 h 0.68213 q 0.31936,0 0.48679,0.14263 0.16743,0.14263 0.16743,0.41238 0,0.38602 -0.24804,0.60771 -0.24805,0.22169 -0.68213,0.22169 h -0.36122 l -0.18138,0.93018 h -0.31471 z m 2.15956,2.1053 q 0.13177,0 0.24339,-0.0791 0.11163,-0.0791 0.18449,-0.22634 0.11472,-0.22479 0.18603,-0.54415 0.0713,-0.31936 0.0713,-0.61392 0,-0.22014 -0.0822,-0.32401 -0.0806,-0.10542 -0.25114,-0.10542 -0.13178,0 -0.24185,0.0791 -0.11007,0.0791 -0.18293,0.22634 -0.11783,0.22789 -0.18914,0.54415 -0.0713,0.31626 -0.0713,0.61082 0,0.22169 0.0806,0.32711 0.0822,0.10542 0.2527,0.10542 z m 1.00614,-1.37201 q 0,0.17053 -0.0357,0.37052 -0.0341,0.19999 -0.10077,0.41083 -0.045,0.14262 -0.0977,0.2558 -0.0511,0.11317 -0.11162,0.20463 -0.13642,0.19689 -0.3054,0.29146 -0.16899,0.093 -0.39378,0.093 -0.31161,0 -0.46199,-0.19069 -0.15037,-0.19068 -0.15037,-0.58756 0,-0.17208 0.0326,-0.36897 0.0341,-0.19844 0.10077,-0.40928 0.045,-0.14262 0.0961,-0.2558 0.0527,-0.11317 0.11317,-0.20463 0.13643,-0.19689 0.30541,-0.28991 0.16898,-0.0946 0.39377,-0.0946 0.31316,0 0.46354,0.19069 0.15193,0.18914 0.15193,0.58446 z m 0.35192,-0.73329 h 0.2961 l -0.13952,1.87586 0.51004,-1.24024 h 0.32711 l 0.0233,1.24334 0.58446,-1.87896 h 0.30696 l -0.79065,2.31459 h -0.30076 l -0.0481,-1.34876 -0.57516,1.34876 h -0.29145 z m 2.22001,0 h 1.37201 l -0.0512,0.26355 h -1.0604 l -0.13332,0.68523 h 1.01234 l -0.0496,0.26355 h -1.01389 l -0.16123,0.83871 h 1.0883 l -0.0512,0.26355 h -1.40301 z m 2.56574,1.22163 q 0.11162,0.0217 0.17828,0.10387 0.0682,0.0822 0.15193,0.35657 l 0.18759,0.63252 h -0.31161 l -0.16433,-0.58446 q -0.0682,-0.24185 -0.15348,-0.31781 -0.0837,-0.076 -0.25425,-0.076 h -0.29766 l -0.19068,0.97824 h -0.31471 l 0.44803,-2.31459 h 0.64493 q 0.32091,0 0.49609,0.13953 0.17673,0.13797 0.17673,0.39067 0,0.28371 -0.16123,0.46974 -0.15968,0.18604 -0.43563,0.22169 z m -0.45424,-0.96428 -0.15813,0.82166 h 0.33952 q 0.2527,0 0.40307,-0.13178 0.15193,-0.13332 0.15193,-0.35347 0,-0.17363 -0.0977,-0.25424 -0.0977,-0.0822 -0.3085,-0.0822 z"
     id="text25"
     aria-label="POWER" /><path
     id="path26"
     d="m 50.202213,120.19798 h 6.548722"
     style="clip-rule:evenodd;display:inline;fill:#000000;fill-rule:evenodd;stroke:#d08658;stroke-width:0.225429px;stroke-linecap:round;stroke-linejoin:round;stroke-miterlimit:1.5;stroke-opacity:1;fill-opacity:0" /><path
     id="path27"
     d="m 66.309213,120.19798 h 6.548722"
     style="clip-rule:evenodd;display:inline;fill:#000000;fill-rule:evenodd;stroke:#d08658;stroke-width:0.225429px;stroke-linecap:round;stroke-linejoin:round;stroke-miterlimit:1.5;stroke-opacity:1;fill-opacity:0" /><path
     id="path28"
     d="m 21.308213,120.19798 h 6.548722"
     style="clip-rule:evenodd;display:inline;fill:#000000;fill-rule:evenodd;stroke:#d08658;stroke-width:0.225429px;stroke-linecap:round;stroke-linejoin:round;stroke-miterlimit:1.5;stroke-opacity:1;fill-opacity:0" /><path
     id="path29"
     d="m 37.416213,120.19798 h 6.548722"
     style="clip-rule:evenodd;display:inline;fill:#000000;fill-rule:evenodd;stroke:#d08658;stroke-width:0.225429px;stroke-linecap:round;stroke-linejoin:round;stroke-miterlimit:1.5;stroke-opacity:1;fill-opacity:0" /><path
     id="path30"
     d="m 79.93199,120.19797 h 5.584379"
     style="clip-rule:evenodd;display:inline;fill:#000000;fill-rule:evenodd;stroke:#d08658;stroke-width:0.225429px;stroke-linecap:round;stroke-linejoin:round;stroke-miterlimit:1.5;stroke-opacity:1;fill-opacity:0" /><path
     id="path31"
     d="m 98.039206,120.19798 h 5.584364"
     style="clip-rule:evenodd;display:inline;fill:#000000;fill-rule:evenodd;stroke:#d08658;stroke-width:0.225429px;stroke-linecap:round;stroke-linejoin:round;stroke-miterlimit:1.5;stroke-opacity:1;fill-opacity:0" /><path
     id="path32"
     d="m 109.8332,120.19798 h 5.48858"
     style="clip-rule:evenodd;display:inline;fill:#000000;fill-rule:evenodd;stroke:#d08658;stroke-width:0.225429px;stroke-linecap:round;stroke-linejoin:round;stroke-miterlimit:1.5;stroke-opacity:1;fill-opacity:0" /><path
     id="path33"
     d="m 126.84199,120.19798 h 5.58437"
     style="clip-rule:evenodd;display:inline;fill:#000000;fill-rule:evenodd;stroke:#d08658;stroke-width:0.225429px;stroke-linecap:round;stroke-linejoin:round;stroke-miterlimit:1.5;stroke-opacity:1;fill-opacity:0" /><g
     aria-label="IN"
     id="text1657"
     style="font-style:italic;font-size:3.175px;font-family:Menlo;-inkscape-font-specification:'Menlo Italic';text-align:center;text-anchor:middle;display:inline;stroke:#000000;stroke-width:0.537281;fill:#ffffff"
     transform="translate(-9.3750002e-8,-168.49998)"><path
       d="M 8.4178808,287.84972 H 9.704624 l -0.05116,0.26355 H 9.166672 l -0.3457153,1.78749 h 0.486792 l -0.05116,0.26355 H 7.9698462 l 0.05116,-0.26355 h 0.4852417 l 0.3472657,-1.78749 h -0.486792 z"
       style="stroke:none;stroke-width:0.53728;fill:#ffffff"
       id="path1709" /><path
       d="m 10.234824,287.84972 h 0.396875 l 0.409277,1.90531 0.370521,-1.90531 h 0.302307 l -0.451136,2.31459 h -0.396875 l -0.409277,-1.90531 -0.37207,1.90531 H 9.7836889 Z"
       style="stroke:none;stroke-width:0.53728;fill:#ffffff"
       id="path1711" /></g><g
     aria-label="△"
     id="text1945"
     style="font-style:italic;font-size:3.175px;font-family:Menlo;-inkscape-font-specification:'Menlo Italic';text-align:center;text-anchor:middle;display:inline;fill:#ffffff;stroke-width:0.537281"
     transform="translate(3.175,-169.02915)"><path
       d="m 142.94169,289.56608 h 1.36271 l -0.68213,-1.36116 z m -0.2651,0.17673 0.94568,-1.89136 0.94723,1.89136 z"
       style="stroke-width:0.53728"
       id="path2803" /></g><g
     aria-label="ƒ"
     id="text1949"
     style="font-style:italic;font-size:3.175px;font-family:Menlo;-inkscape-font-specification:'Menlo Italic';text-align:center;text-anchor:middle;display:inline;fill:#ffffff;stroke-width:0.537281"
     transform="translate(3.175,-169.55831)"><path
       d="m 144.43611,280.98508 -0.0465,0.2372 h -0.32402 -0.003 q -0.15192,0 -0.22324,0.0636 -0.0713,0.062 -0.10232,0.22169 l -0.0294,0.15348 h 0.59686 l -0.0434,0.22169 h -0.59686 l -0.30076,1.54564 q -0.0636,0.33177 -0.21859,0.4806 -0.15658,0.14882 -0.43718,0.14882 h -0.10852 l 0.0481,-0.24184 h 0.076 q 0.16278,0 0.23565,-0.0744 0.0744,-0.076 0.11937,-0.31316 l 0.29765,-1.54564 h -0.46043 l 0.0434,-0.22169 h 0.45888 l 0.0233,-0.12092 q 0.0543,-0.27905 0.21704,-0.42168 0.0682,-0.0605 0.16898,-0.093 0.11472,-0.0403 0.26665,-0.0403 h 0.0124 0.006 z"
       style="stroke-width:0.53728"
       id="path2800" /></g><g
     aria-label="OUT"
     id="text1953"
     style="font-style:italic;font-size:3.175px;font-family:Menlo;-inkscape-font-specification:'Menlo Italic';text-align:center;text-anchor:middle;display:inline;fill:#ffffff;stroke-width:0.537281"
     transform="translate(1.5874999,-169.02915)"><path
       d="m 138.85294,277.11237 q 0.13177,0 0.24339,-0.0791 0.11162,-0.0791 0.18449,-0.22634 0.11472,-0.22479 0.18603,-0.54415 0.0713,-0.31937 0.0713,-0.61392 0,-0.22014 -0.0822,-0.32401 -0.0806,-0.10542 -0.25115,-0.10542 -0.13177,0 -0.24184,0.0791 -0.11007,0.0791 -0.18294,0.22635 -0.11782,0.22789 -0.18913,0.54415 -0.0713,0.31626 -0.0713,0.61081 0,0.2217 0.0806,0.32712 0.0822,0.10542 0.2527,0.10542 z m 1.00614,-1.37201 q 0,0.17053 -0.0357,0.37052 -0.0341,0.19998 -0.10077,0.41082 -0.045,0.14263 -0.0977,0.2558 -0.0512,0.11317 -0.11162,0.20464 -0.13643,0.19689 -0.30541,0.29146 -0.16898,0.093 -0.39377,0.093 -0.31161,0 -0.46199,-0.19068 -0.15038,-0.19069 -0.15038,-0.58756 0,-0.17209 0.0326,-0.36897 0.0341,-0.19844 0.10077,-0.40928 0.045,-0.14263 0.0961,-0.2558 0.0527,-0.11317 0.11317,-0.20464 0.13642,-0.19688 0.30541,-0.2899 0.16898,-0.0946 0.39377,-0.0946 0.31316,0 0.46354,0.19069 0.15193,0.18913 0.15193,0.58446 z"
       style="stroke-width:0.53728"
       id="path2793" /><path
       d="m 140.16448,276.43334 0.27596,-1.42627 h 0.31471 l -0.27751,1.42627 q -0.003,0.0202 -0.0124,0.0636 -0.0465,0.23874 -0.0465,0.33021 0,0.14263 0.0837,0.21394 0.0853,0.0713 0.2558,0.0713 0.13797,0 0.23409,-0.0434 0.0961,-0.045 0.16588,-0.14108 0.0341,-0.0481 0.0682,-0.16433 0.0357,-0.11782 0.0775,-0.33021 l 0.27595,-1.42627 h 0.31471 l -0.27595,1.42627 q -0.0651,0.33951 -0.13953,0.49919 -0.0729,0.15813 -0.19378,0.2558 -0.11008,0.0868 -0.25115,0.13333 -0.14108,0.0449 -0.30541,0.0449 -0.29766,0 -0.45889,-0.13952 -0.15968,-0.13953 -0.15968,-0.39688 0,-0.0574 0.0124,-0.15503 0.014,-0.0977 0.0419,-0.24184 z"
       style="stroke-width:0.53728"
       id="path2795" /><path
       d="m 142.19692,275.00707 h 1.76733 l -0.0512,0.26355 H 143.186 l -0.39687,2.05104 h -0.31626 l 0.39998,-2.05104 h -0.72709 z"
       style="stroke-width:0.53728"
       id="path2797" /></g></svg>
