<?xml version="1.0" encoding="UTF-8" standalone="no"?>
<!-- Created with Inkscape (http://www.inkscape.org/) -->

<svg
   width="101.6mm"
   height="128.5mm"
   viewBox="0 0 101.60001 128.50002"
   version="1.1"
   id="svg8"
   inkscape:version="1.2 (dc2aeda, 2022-05-15)"
   sodipodi:docname="Glass.svg"
   xml:space="preserve"
   xmlns:inkscape="http://www.inkscape.org/namespaces/inkscape"
   xmlns:sodipodi="http://sodipodi.sourceforge.net/DTD/sodipodi-0.dtd"
   xmlns="http://www.w3.org/2000/svg"
   xmlns:svg="http://www.w3.org/2000/svg"
   xmlns:rdf="http://www.w3.org/1999/02/22-rdf-syntax-ns#"
   xmlns:cc="http://creativecommons.org/ns#"
   xmlns:dc="http://purl.org/dc/elements/1.1/"><defs
     id="defs2">
            
            
        
            
            
        
            
            
        </defs><sodipodi:namedview
     id="base"
     pagecolor="#ffffff"
     bordercolor="#666666"
     borderopacity="1.0"
     inkscape:pageopacity="0.0"
     inkscape:pageshadow="2"
     inkscape:zoom="5.7002744"
     inkscape:cx="57.979665"
     inkscape:cy="296.1261"
     inkscape:document-units="mm"
     inkscape:current-layer="text2896"
     showgrid="false"
     units="mm"
     inkscape:snap-bbox="true"
     inkscape:snap-page="true"
     inkscape:bbox-nodes="false"
     inkscape:snap-bbox-edge-midpoints="false"
     inkscape:window-width="1512"
     inkscape:window-height="916"
     inkscape:window-x="0"
     inkscape:window-y="38"
     inkscape:window-maximized="0"
     inkscape:snap-bbox-midpoints="true"
     inkscape:snap-nodes="false"
     inkscape:showpageshadow="2"
     inkscape:pagecheckerboard="0"
     inkscape:deskcolor="#d1d1d1"
     showguides="false" /><metadata
     id="metadata5"><rdf:RDF><cc:Work
         rdf:about=""><dc:format>image/svg+xml</dc:format><dc:type
           rdf:resource="http://purl.org/dc/dcmitype/StillImage" /></cc:Work></rdf:RDF></metadata><rect
     id="rect1"
     x="-0.16655771"
     y="-0.38949111"
     width="102.12192"
     height="129.14665"
     style="clip-rule:evenodd;fill:#e5e5e5;fill-rule:evenodd;stroke-width:0.497961;stroke-linejoin:round;stroke-miterlimit:1.5;fill-opacity:1"
     sodipodi:insensitive="true" /><path
     id="path128"
     d="m 47.614778,125.9342 c 0.05984,0.1268 0.07943,0.25396 0.05842,0.38219 h -0.419235 c -0.0064,-0.0983 -0.02565,-0.1724 -0.05842,-0.22227 -0.05735,-0.089 -0.160997,-0.13357 -0.310597,-0.13357 -0.152449,0 -0.28602,0.0627 -0.4,0.18843 -0.114337,0.12538 -0.195192,0.30276 -0.242921,0.5325 -0.04809,0.22974 -0.03776,0.40143 0.0317,0.51612 0.0691,0.11433 0.175246,0.17133 0.318434,0.17133 0.147106,0 0.269635,-0.0492 0.367587,-0.14747 0.05378,-0.0524 0.105432,-0.13179 0.155298,-0.23722 h 0.415317 c -0.08264,0.22333 -0.213357,0.40463 -0.391452,0.54461 -0.178451,0.13927 -0.384328,0.20944 -0.617632,0.20944 -0.288513,0 -0.495815,-0.0944 -0.621906,-0.28317 -0.125379,-0.18985 -0.153162,-0.44986 -0.08442,-0.78076 0.07409,-0.35726 0.225468,-0.63295 0.453429,-0.82636 0.198753,-0.16848 0.424221,-0.2529 0.676403,-0.2529 0.337667,0 0.560642,0.11327 0.669992,0.3391 z"
     style="clip-rule:evenodd;fill:#000000;fill-rule:nonzero;stroke-width:0.356189;stroke-linejoin:round;stroke-miterlimit:1.5" /><path
     id="path129"
     d="m 48.543007,127.18869 0.764026,-1.55441 h 0.435619 l -1.110954,2.04667 h -0.396083 l -0.252181,-2.04667 h 0.448442 z"
     style="clip-rule:evenodd;fill:#000000;fill-rule:nonzero;stroke-width:0.356189;stroke-linejoin:round;stroke-miterlimit:1.5" /><path
     id="path130"
     d="m 51.325913,126.18139 -0.05877,0.27925 H 51.01318 l -0.253607,1.22031 h -0.386466 l 0.253606,-1.22031 h -0.216919 l 0.05842,-0.27925 h 0.212645 l 0.01995,-0.0972 c 0.03419,-0.16207 0.08406,-0.27355 0.149955,-0.33482 0.07551,-0.0905 0.220482,-0.13606 0.43562,-0.13606 0.02458,0 0.04666,7.1e-4 0.06625,0.002 0.01959,0.001 0.04666,0.004 0.08121,0.006 l -0.06803,0.32271 c -0.02102,-0.003 -0.05699,-0.005 -0.107569,-0.006 -0.05093,-10e-4 -0.08905,0.01 -0.113981,0.0345 -0.02493,0.0246 -0.03989,0.0516 -0.04559,0.0812 -0.0064,0.0299 -0.01532,0.0723 -0.02743,0.12787 z"
     style="clip-rule:evenodd;fill:#000000;fill-rule:nonzero;stroke-width:0.356189;stroke-linejoin:round;stroke-miterlimit:1.5" /><path
     id="path131"
     d="m 52.23277,127.46759 c -0.0043,0.005 -0.01638,0.0185 -0.03562,0.0417 -0.01888,0.0232 -0.04025,0.0431 -0.06376,0.0609 -0.07266,0.0556 -0.139626,0.0933 -0.200891,0.11363 -0.06091,0.0203 -0.129653,0.0306 -0.206234,0.0306 -0.219412,0 -0.350846,-0.0801 -0.393232,-0.2415 -0.02386,-0.0887 -0.01745,-0.21977 0.01888,-0.39287 l 0.189492,-0.91256 h 0.397151 l -0.189136,0.91256 c -0.01817,0.0862 -0.02173,0.15066 -0.01104,0.19447 0.01923,0.0769 0.0805,0.11541 0.183794,0.11541 0.132502,0 0.234728,-0.0549 0.306678,-0.1642 0.03811,-0.0591 0.06732,-0.13749 0.08727,-0.23438 l 0.171327,-0.82386 h 0.393233 l -0.314515,1.51345 h -0.376849 z"
     style="clip-rule:evenodd;fill:#000000;fill-rule:nonzero;stroke-width:0.356189;stroke-linejoin:round;stroke-miterlimit:1.5" /><path
     id="path132"
     d="m 54.078899,126.76091 c 0.0171,-0.0798 0.01959,-0.14105 0.0068,-0.18344 -0.02173,-0.078 -0.08584,-0.11683 -0.193055,-0.11683 -0.13179,0 -0.234016,0.057 -0.306323,0.17062 -0.03847,0.0605 -0.06696,0.13749 -0.08584,0.23081 l -0.170259,0.81888 h -0.386465 l 0.314159,-1.51096 h 0.374711 l -0.04631,0.22084 c 0.0659,-0.0773 0.125023,-0.13357 0.177026,-0.16777 0.09225,-0.0613 0.200179,-0.0915 0.322352,-0.0915 0.153517,0 0.270347,0.0406 0.350846,0.12289 0.08014,0.0819 0.100801,0.21763 0.06162,0.40748 l -0.212289,1.01906 h -0.397507 z"
     style="clip-rule:evenodd;fill:#000000;fill-rule:nonzero;stroke-width:0.356189;stroke-linejoin:round;stroke-miterlimit:1.5" /><path
     id="path133"
     d="m 55.118971,127.20543 -0.09759,0.47552 h -0.381484 l 0.424934,-2.0399 h 0.381122 l -0.230454,1.10312 0.601959,-0.5699 h 0.480856 l -0.640072,0.57952 0.346928,0.92716 h -0.468389 l -0.220125,-0.64684 z"
     style="clip-rule:evenodd;fill:#000000;fill-rule:nonzero;stroke-width:0.356189;stroke-linejoin:round;stroke-miterlimit:1.5" /><path
     id="path134"
     d="m 38.333556,126.66688 h 6.62227"
     style="clip-rule:evenodd;fill:none;fill-rule:evenodd;stroke:#000000;stroke-width:0.227961px;stroke-linecap:round;stroke-linejoin:round;stroke-miterlimit:1.5" /><path
     id="path135"
     d="m 56.644173,126.66688 h 6.62227"
     style="clip-rule:evenodd;fill:none;fill-rule:evenodd;stroke:#000000;stroke-width:0.227961px;stroke-linecap:round;stroke-linejoin:round;stroke-miterlimit:1.5" /><rect
     style="fill:#171717;fill-opacity:1;stroke:#000000;stroke-width:0.352779;stroke-linecap:square;stroke-dasharray:none;stroke-opacity:1;paint-order:fill markers stroke"
     id="rect2202"
     width="90.614639"
     height="22.00712"
     x="5.4926777"
     y="9.6294165"
     rx="2.9999998"
     ry="3" /><path
     style="opacity:1;fill:none;stroke:#000000;stroke-width:0.352999;stroke-opacity:1;paint-order:fill markers stroke"
     d="M 40.218653,41.142945 V 64.165229"
     id="path2981" /><path
     style="opacity:1;fill:none;stroke:#000000;stroke-width:0.352999;stroke-opacity:1;paint-order:fill markers stroke"
     d="M 52.190422,41.142945 V 64.165229"
     id="path2983" /><path
     style="opacity:1;fill:none;stroke:#000000;stroke-width:0.352999;stroke-opacity:1;paint-order:fill markers stroke"
     d="M 64.162192,41.142945 V 64.165229"
     id="path2985" /><path
     style="opacity:1;fill:none;stroke:#000000;stroke-width:0.352999;stroke-opacity:1;paint-order:fill markers stroke"
     d="M 76.133961,41.142945 V 64.165229"
     id="path2987" /><g
     id="text4359"
     style="font-style:italic;font-size:5.64444px;font-family:Menlo;-inkscape-font-specification:'Menlo Italic';text-align:center;text-anchor:middle;fill:#ffffff;stroke:#000000;stroke-width:0.246944;stroke-linecap:square;stroke-linejoin:round;stroke-miterlimit:0;paint-order:fill markers stroke" /><path
     style="opacity:1;fill:none;stroke:#000000;stroke-width:0.352999;stroke-opacity:1;paint-order:fill markers stroke"
     d="M 88.105731,41.142945 V 64.165229"
     id="path5160" /><rect
     style="clip-rule:evenodd;display:inline;fill:#545454;fill-opacity:1;fill-rule:evenodd;stroke:#000000;stroke-width:0.352775;stroke-linecap:square;stroke-linejoin:round;stroke-miterlimit:1.5;stroke-dasharray:none;stroke-opacity:1"
     id="rect20577"
     width="14.54974"
     height="21.172417"
     x="-117.77232"
     y="6.3091803"
     rx="4"
     ry="4.0000005"
     inkscape:transform-center-x="21.930799"
     inkscape:transform-center-y="-31.462811"
     transform="rotate(-90)" /><rect
     style="clip-rule:evenodd;display:inline;fill:#545454;fill-opacity:1;fill-rule:evenodd;stroke:#000000;stroke-width:0.352777;stroke-linecap:square;stroke-linejoin:round;stroke-miterlimit:1.5;stroke-dasharray:none;stroke-opacity:1"
     id="rect20577-7"
     width="26.060881"
     height="11.33225"
     x="-123.96442"
     y="85.058357"
     rx="3.9999995"
     ry="4"
     inkscape:transform-center-x="11.738163"
     inkscape:transform-center-y="-56.354876"
     transform="rotate(-90)" /><path
     style="fill:none;stroke:#000000;stroke-width:0.352999;stroke-opacity:1;paint-order:fill markers stroke"
     d="M 10.203932,84.941086 H 22.843675"
     id="path2854" /><path
     style="fill:none;stroke:#000000;stroke-width:0.352998;stroke-opacity:1;paint-order:fill markers stroke"
     d="M 43.902127,104.06444 H 76.407873"
     id="path3666" /><path
     style="fill:none;stroke:#000000;stroke-width:0.352998;stroke-opacity:1;paint-order:fill markers stroke"
     d="M 58.56955,115.9469 H 84.948398"
     id="path3668" /><g
     aria-label="VOLUME"
     id="text3676"
     style="font-style:italic;font-size:2.46944px;font-family:Menlo;-inkscape-font-specification:'Menlo Italic';text-align:center;text-anchor:middle;opacity:1;fill:#ffffff;stroke-width:0.246944;stroke-linecap:square;stroke-linejoin:round;stroke-miterlimit:0;paint-order:fill markers stroke"><path
       d="m 63.392793,122.33667 0.721057,-1.57113 h 0.259243 l -0.866956,1.80023 h -0.311092 l -0.17725,-1.80023 h 0.238745 z"
       id="path7985"
       style="fill:#000000" /><path
       d="m 64.869875,122.40299 q 0.102492,0 0.189308,-0.0615 0.08682,-0.0615 0.143488,-0.17605 0.08923,-0.17483 0.144694,-0.42323 0.05546,-0.24839 0.05546,-0.47748 0,-0.17123 -0.06391,-0.25201 -0.0627,-0.082 -0.195336,-0.082 -0.102492,0 -0.188102,0.0615 -0.08561,0.0615 -0.142283,0.17604 -0.09164,0.17725 -0.147105,0.42323 -0.05547,0.24598 -0.05547,0.47508 0,0.17243 0.0627,0.25442 0.06391,0.082 0.196542,0.082 z m 0.782552,-1.06711 q 0,0.13263 -0.02773,0.28818 -0.02653,0.15554 -0.07838,0.31953 -0.03497,0.11093 -0.07596,0.19895 -0.03979,0.088 -0.08682,0.15917 -0.106109,0.15313 -0.237539,0.22668 -0.13143,0.0724 -0.306268,0.0724 -0.242362,0 -0.359323,-0.14831 -0.116961,-0.14831 -0.116961,-0.45699 0,-0.13384 0.02532,-0.28698 0.02653,-0.15434 0.07838,-0.31832 0.03497,-0.11094 0.07476,-0.19896 0.041,-0.088 0.08802,-0.15916 0.106108,-0.15313 0.237539,-0.22548 0.13143,-0.0735 0.306268,-0.0735 0.243568,0 0.360529,0.14831 0.118166,0.1471 0.118166,0.45458 z"
       id="path7987"
       style="fill:#000000" /><path
       d="m 66.196235,120.76554 h 0.243567 l -0.311091,1.59525 h 0.869368 l -0.03979,0.20498 h -1.112936 z"
       id="path7989"
       style="fill:#000000" /><path
       d="m 67.376695,121.87486 0.214629,-1.10932 h 0.244773 l -0.215835,1.10932 q -0.0024,0.0157 -0.0096,0.0494 -0.03617,0.18569 -0.03617,0.25683 0,0.11093 0.06511,0.1664 0.06632,0.0555 0.198954,0.0555 0.107314,0 0.182073,-0.0338 0.07476,-0.035 0.129018,-0.10973 0.02653,-0.0374 0.05305,-0.12781 0.02773,-0.0916 0.06029,-0.25683 l 0.214629,-1.10932 h 0.244773 l -0.214629,1.10932 q -0.05064,0.26407 -0.10852,0.38826 -0.05667,0.12299 -0.150723,0.19896 -0.08561,0.0675 -0.195336,0.10369 -0.109726,0.035 -0.237539,0.035 -0.23151,0 -0.356911,-0.10852 -0.124196,-0.10852 -0.124196,-0.30868 0,-0.0446 0.0096,-0.12058 0.01085,-0.076 0.03256,-0.1881 z"
       id="path7991"
       style="fill:#000000" /><path
       d="m 69.000882,120.76554 h 0.324355 l 0.132636,0.91157 0.499193,-0.91157 h 0.325561 l -0.350882,1.80023 H 69.70747 l 0.311091,-1.60007 -0.523309,0.9586 h -0.170015 l -0.138665,-0.9586 -0.30868,1.60007 h -0.224275 z"
       id="path7993"
       style="fill:#000000" /><path
       d="m 70.626275,120.76554 h 1.067116 l -0.03979,0.20498 h -0.824754 l -0.103697,0.53296 h 0.787375 l -0.03858,0.20498 h -0.788581 l -0.125401,0.65233 h 0.846458 l -0.03979,0.20498 h -1.091232 z"
       id="path7995"
       style="fill:#000000" /></g><g
     aria-label="EXT. GAIN"
     id="text3738"
     style="font-style:italic;font-size:2.46944px;font-family:Menlo;-inkscape-font-specification:'Menlo Italic';text-align:center;text-anchor:middle;opacity:1;fill:#ffffff;stroke-width:0.246944;stroke-linecap:square;stroke-linejoin:round;stroke-miterlimit:0;paint-order:fill markers stroke"><path
       d="m 60.749055,108.66958 h 1.067117 l -0.03979,0.20498 h -0.824754 l -0.103698,0.53296 h 0.787376 l -0.03859,0.20498 h -0.788581 l -0.125402,0.65233 h 0.846459 l -0.03979,0.20498 h -1.091232 z"
       id="path7968"
       style="fill:#000000" /><path
       d="m 62.112794,108.66958 h 0.241156 l 0.270095,0.64147 0.530544,-0.64147 h 0.278535 l -0.718645,0.86696 0.390673,0.93327 H 62.86279 l -0.306269,-0.73794 -0.610125,0.73794 h -0.278535 l 0.792198,-0.96101 z"
       id="path7970"
       style="fill:#000000" /><path
       d="m 63.540439,108.66958 h 1.374591 l -0.03979,0.20498 h -0.565512 l -0.30868,1.59525 h -0.245979 l 0.311092,-1.59525 h -0.565512 z"
       id="path7972"
       style="fill:#000000" /><path
       d="m 65.310526,109.98267 h 0.424435 l -0.09526,0.48714 h -0.424435 z"
       id="path7974"
       style="fill:#000000" /><path
       d="m 68.93631,110.35406 q -0.104903,0.0747 -0.229098,0.11334 -0.124196,0.0374 -0.265272,0.0374 -0.279742,0 -0.430464,-0.16158 -0.149517,-0.16278 -0.149517,-0.46302 0,-0.10852 0.01929,-0.2303 0.0205,-0.12299 0.05908,-0.25683 0.0422,-0.14108 0.09887,-0.25442 0.05667,-0.11455 0.124195,-0.19534 0.129019,-0.15675 0.284565,-0.23151 0.156751,-0.0748 0.356911,-0.0748 0.09646,0 0.191719,0.0253 0.09646,0.0253 0.189308,0.0736 l -0.04944,0.24959 q -0.07838,-0.076 -0.165192,-0.11334 -0.08561,-0.0374 -0.183279,-0.0374 -0.118167,0 -0.221864,0.0506 -0.103697,0.0494 -0.18569,0.14711 -0.05306,0.0627 -0.10008,0.15675 -0.04703,0.0941 -0.0832,0.21101 -0.041,0.13746 -0.0627,0.25804 -0.0205,0.12058 -0.0205,0.21825 0,0.20618 0.09526,0.31832 0.09526,0.11214 0.270095,0.11214 0.08199,0 0.147105,-0.0217 0.06511,-0.0229 0.109726,-0.0651 l 0.09164,-0.47387 h -0.261655 l 0.03617,-0.20016 h 0.49437 z"
       id="path7976"
       style="fill:#000000" /><path
       d="m 70.140886,108.87215 -0.438905,0.93328 h 0.518486 z m -0.115755,-0.20257 h 0.296622 l 0.20016,1.80023 h -0.242362 l -0.0422,-0.46905 h -0.627006 l -0.221864,0.46905 h -0.261654 z"
       id="path7978"
       style="fill:#000000" /><path
       d="m 71.158565,108.66958 h 1.000798 l -0.03979,0.20498 h -0.378615 l -0.268889,1.39027 h 0.378615 l -0.03979,0.20498 h -1.000798 l 0.03979,-0.20498 h 0.377409 l 0.270095,-1.39027 h -0.378615 z"
       id="path7980"
       style="fill:#000000" /><path
       d="m 72.571741,108.66958 h 0.30868 l 0.318326,1.4819 0.288182,-1.4819 h 0.235127 l -0.350882,1.80023 h -0.30868 l -0.318327,-1.4819 -0.289387,1.4819 h -0.233922 z"
       id="path7982"
       style="fill:#000000" /></g><g
     aria-label="EXT. IN"
     id="text3746"
     style="font-style:italic;font-size:2.46944px;font-family:Menlo;-inkscape-font-specification:'Menlo Italic';text-align:center;text-anchor:middle;opacity:1;fill:#ffffff;stroke-width:0.246944;stroke-linecap:square;stroke-linejoin:round;stroke-miterlimit:0;paint-order:fill markers stroke"><path
       d="m 39.027837,108.14041 h 1.067116 l -0.03979,0.20498 h -0.824754 l -0.103697,0.53296 h 0.787375 l -0.03858,0.20498 H 39.08692 l -0.125401,0.65233 h 0.846458 l -0.03979,0.20498 h -1.091232 z"
       id="path8016"
       style="fill:#000000" /><path
       d="m 40.391575,108.14041 h 0.241157 l 0.270095,0.64148 0.530543,-0.64148 h 0.278536 l -0.718646,0.86696 0.390673,0.93327 h -0.242362 l -0.306268,-0.73793 -0.610125,0.73793 h -0.278536 l 0.792198,-0.961 z"
       id="path8018"
       style="fill:#000000" /><path
       d="m 41.81922,108.14041 h 1.374591 l -0.03979,0.20498 h -0.565511 l -0.30868,1.59525 h -0.24598 l 0.311092,-1.59525 H 41.77943 Z"
       id="path8020"
       style="fill:#000000" /><path
       d="m 43.589307,109.45351 h 0.424435 l -0.09526,0.48713 h -0.424435 z"
       id="path8022"
       style="fill:#000000" /><path
       d="m 46.46389,108.14041 h 1.000798 l -0.03979,0.20498 h -0.378615 l -0.268889,1.39027 h 0.378615 l -0.03979,0.20498 h -1.000798 l 0.03979,-0.20498 h 0.377409 l 0.270095,-1.39027 h -0.378615 z"
       id="path8024"
       style="fill:#000000" /><path
       d="m 47.877066,108.14041 h 0.30868 l 0.318326,1.48191 0.288182,-1.48191 h 0.235127 l -0.350882,1.80023 h -0.30868 l -0.318326,-1.4819 -0.289388,1.4819 h -0.233922 z"
       id="path8026"
       style="fill:#000000" /></g><rect
     style="clip-rule:evenodd;fill:#212121;fill-opacity:1;fill-rule:evenodd;stroke:#000000;stroke-width:0.352778;stroke-linecap:square;stroke-linejoin:round;stroke-miterlimit:1.5;stroke-dasharray:none;stroke-opacity:1;paint-order:fill markers stroke"
     id="rect6883"
     width="5.5926971"
     height="13.189729"
     x="-112.9371"
     y="3.6541636"
     rx="3"
     ry="3"
     transform="rotate(-90)" /><path
     style="clip-rule:evenodd;fill:none;fill-rule:evenodd;stroke:#000000;stroke-width:0.352998;stroke-linecap:square;stroke-linejoin:round;stroke-miterlimit:1.5;stroke-opacity:1;paint-order:fill markers stroke"
     d="m 16.91525,110.23834 h 4.724624"
     id="path2516" /><g
     aria-label="GLASS"
     id="text1556"
     style="font-style:italic;font-size:5.64444px;font-family:Menlo;-inkscape-font-specification:'Menlo Italic';text-align:center;text-anchor:middle;opacity:1;fill:#ffffff;stroke-width:0.246944;stroke-linecap:square;stroke-linejoin:round;stroke-miterlimit:0;paint-order:fill markers stroke"><path
       d="m 44.986061,5.651257 q -0.239779,0.1708766 -0.523654,0.259071 -0.283876,0.085438 -0.606337,0.085438 -0.639409,0 -0.983918,-0.369314 -0.341754,-0.37207 -0.341754,-1.0583325 0,-0.2480467 0.0441,-0.5264102 0.04685,-0.2811196 0.135047,-0.5870438 0.09646,-0.3224607 0.225998,-0.5815317 0.129536,-0.261827 0.283876,-0.446484 0.2949,-0.3582897 0.650434,-0.5291663 0.358289,-0.1708766 0.815798,-0.1708766 0.220486,0 0.438215,0.057878 0.220486,0.057878 0.432704,0.1681205 L 45.443569,2.5231127 Q 45.264424,2.34948 45.065987,2.2640417 q -0.195681,-0.085438 -0.418923,-0.085438 -0.270096,0 -0.507118,0.1157551 -0.237023,0.1129991 -0.424436,0.3362411 -0.121267,0.1433158 -0.228754,0.3582896 -0.107487,0.2149738 -0.190169,0.482313 -0.09371,0.3141925 -0.143316,0.5897999 -0.04685,0.2756075 -0.04685,0.4988495 0,0.4712887 0.21773,0.7276036 0.21773,0.2563149 0.617361,0.2563149 0.187413,0 0.336241,-0.049609 0.148828,-0.052365 0.250802,-0.148828 l 0.209462,-1.0831372 h -0.598068 l 0.08268,-0.4575084 h 1.129991 z"
       id="path1769"
       style="fill:#000000" /><path
       d="m 46.730656,1.8010212 h 0.556727 l -0.711067,3.6462863 h 1.987129 l -0.09095,0.4685326 h -2.543857 z"
       id="path1771"
       style="fill:#000000" /><path
       d="m 51.137619,2.2640417 -1.003212,2.1332015 h 1.185112 z M 50.873035,1.8010212 h 0.677995 l 0.457508,4.1148189 H 51.454567 L 51.358104,4.8437272 H 49.924946 L 49.417828,5.9158401 H 48.81976 Z"
       id="path1773"
       style="fill:#000000" /><path
       d="m 55.671361,1.941581 -0.107487,0.5649952 q -0.223242,-0.1626083 -0.46302,-0.2452906 -0.239779,-0.082682 -0.496094,-0.082682 -0.454752,0 -0.741384,0.2259981 -0.286631,0.2259981 -0.286631,0.5760195 0,0.1956813 0.135047,0.3169486 0.135048,0.1212672 0.490582,0.2315102 l 0.333485,0.1074869 q 0.44924,0.1378037 0.655945,0.369314 0.209462,0.2287541 0.209462,0.5842877 0,0.6476775 -0.457508,1.0280157 -0.457509,0.3775822 -1.248502,0.3775822 -0.286632,0 -0.564995,-0.06339 -0.275608,-0.060634 -0.551215,-0.184657 l 0.112999,-0.5760195 q 0.270095,0.1901691 0.545703,0.2811196 0.278363,0.09095 0.587043,0.09095 0.454753,0 0.738628,-0.2425345 0.283876,-0.2425346 0.283876,-0.6146046 0,-0.2259981 -0.121267,-0.3500214 Q 54.60476,4.2125862 54.238203,4.0995872 l -0.278364,-0.09095 Q 53.452721,3.8487844 53.248772,3.647591 53.047578,3.4436415 53.047578,3.1101565 q 0,-0.6090924 0.454753,-0.9949428 0.454752,-0.3886065 1.187868,-0.3886065 0.220486,0 0.468532,0.055122 0.250803,0.055122 0.51263,0.1598523 z"
       id="path1775"
       style="fill:#000000" /><path
       d="M 59.0696,1.941581 58.962113,2.5065762 Q 58.738871,2.3439679 58.499093,2.2612856 58.259315,2.1786034 58.003,2.1786034 q -0.454753,0 -0.741384,0.2259981 -0.286632,0.2259981 -0.286632,0.5760195 0,0.1956813 0.135048,0.3169486 0.135047,0.1212672 0.490581,0.2315102 l 0.333485,0.1074869 q 0.44924,0.1378037 0.655945,0.369314 0.209462,0.2287541 0.209462,0.5842877 0,0.6476775 -0.457508,1.0280157 -0.457509,0.3775822 -1.248502,0.3775822 -0.286632,0 -0.564995,-0.06339 -0.275608,-0.060634 -0.551215,-0.184657 l 0.112999,-0.5760195 q 0.270095,0.1901691 0.545703,0.2811196 0.278363,0.09095 0.587044,0.09095 0.454752,0 0.738627,-0.2425345 0.283876,-0.2425346 0.283876,-0.6146046 0,-0.2259981 -0.121267,-0.3500214 Q 58.003,4.2125862 57.636442,4.0995872 l -0.278364,-0.09095 Q 56.850961,3.8487844 56.647011,3.647591 56.445818,3.4436415 56.445818,3.1101565 q 0,-0.6090924 0.454752,-0.9949428 0.454752,-0.3886065 1.187868,-0.3886065 0.220486,0 0.468533,0.055122 0.250802,0.055122 0.512629,0.1598523 z"
       id="path1777"
       style="fill:#000000" /></g><path
     style="fill:none;stroke:#000000;stroke-width:0.352999;stroke-opacity:1;paint-order:fill markers stroke"
     d="M 64.789535,84.941082 H 81.885203"
     id="path1654" /><g
     aria-label="RMS"
     id="text1710"
     style="font-style:italic;font-size:2.46944px;font-family:Menlo;-inkscape-font-specification:'Menlo Italic';text-align:center;text-anchor:middle;opacity:1;fill:#ffffff;stroke-width:0.246944;stroke-linecap:square;stroke-linejoin:round;stroke-miterlimit:0;paint-order:fill markers stroke"
     transform="translate(1.1139815,-5.8208336)"><path
       d="m 13.360957,121.50221 q 0.08682,0.0169 0.138665,0.0808 0.05305,0.0639 0.118167,0.27733 l 0.1459,0.49196 h -0.242363 l -0.127813,-0.45458 q -0.05305,-0.18811 -0.119373,-0.24719 -0.06511,-0.0591 -0.197748,-0.0591 h -0.23151 l -0.148312,0.76085 h -0.244774 l 0.348472,-1.80024 h 0.501605 q 0.249598,0 0.385851,0.10852 0.13746,0.10732 0.13746,0.30386 0,0.22066 -0.125402,0.36535 -0.124196,0.1447 -0.338825,0.17243 z m -0.353295,-0.75 -0.12299,0.63907 h 0.264067 q 0.196543,0 0.313504,-0.10249 0.118166,-0.1037 0.118166,-0.27492 0,-0.13505 -0.07596,-0.19775 -0.07596,-0.0639 -0.239951,-0.0639 z"
       id="path1762"
       style="fill:#ffffff" /><path
       d="m 14.200182,120.55205 h 0.324356 l 0.132636,0.91157 0.499194,-0.91157 h 0.325562 l -0.350883,1.80024 h -0.224276 l 0.311092,-1.60008 -0.52331,0.9586 h -0.170015 l -0.138665,-0.9586 -0.308681,1.60008 h -0.224275 z"
       id="path1764"
       style="fill:#ffffff" /><path
       d="m 16.793822,120.61355 -0.04702,0.24718 q -0.09767,-0.0711 -0.202572,-0.10731 -0.104903,-0.0362 -0.217041,-0.0362 -0.198954,0 -0.324355,0.0989 -0.125402,0.0989 -0.125402,0.25201 0,0.0856 0.05908,0.13866 0.05908,0.0531 0.21463,0.10129 l 0.1459,0.047 q 0.196542,0.0603 0.286976,0.16158 0.09164,0.10008 0.09164,0.25563 0,0.28335 -0.20016,0.44975 -0.20016,0.1652 -0.54622,0.1652 -0.125402,0 -0.247186,-0.0277 -0.120578,-0.0265 -0.241157,-0.0808 l 0.04944,-0.252 q 0.118166,0.0832 0.238745,0.12299 0.121784,0.0398 0.256832,0.0398 0.198954,0 0.32315,-0.10611 0.124195,-0.10611 0.124195,-0.26889 0,-0.0989 -0.05305,-0.15314 -0.05306,-0.0543 -0.213424,-0.10369 l -0.121784,-0.0398 q -0.221864,-0.0699 -0.311092,-0.15796 -0.08802,-0.0892 -0.08802,-0.23513 0,-0.26648 0.198954,-0.43529 0.198954,-0.17001 0.519693,-0.17001 0.09646,0 0.204983,0.0241 0.109726,0.0241 0.224275,0.0699 z"
       id="path1766"
       style="fill:#ffffff" /></g><g
     aria-label="DAMP GATE"
     id="text2896"
     style="font-style:italic;font-size:2.46944px;font-family:Menlo;-inkscape-font-specification:'Menlo Italic';text-align:center;text-anchor:middle;opacity:1;fill:#ffffff;stroke-width:0.246944;stroke-linecap:square;stroke-linejoin:round;stroke-miterlimit:0;paint-order:fill markers stroke"><path
       d="m 17.850499,77.236472 q -0.104903,0.07476 -0.229098,0.113343 -0.124196,0.03738 -0.265272,0.03738 -0.279741,0 -0.430464,-0.161574 -0.149517,-0.162781 -0.149517,-0.46302 0,-0.108521 0.01929,-0.230305 0.0205,-0.122989 0.05908,-0.256831 0.0422,-0.141076 0.09887,-0.25442 0.05667,-0.114549 0.124196,-0.195336 0.129018,-0.156752 0.284564,-0.23151 0.156751,-0.07476 0.356911,-0.07476 0.09646,0 0.191719,0.02532 0.09646,0.02532 0.189308,0.07355 l -0.04944,0.249597 q -0.07838,-0.07596 -0.165192,-0.113344 -0.08561,-0.03738 -0.183279,-0.03738 -0.118166,0 -0.221864,0.05064 -0.103697,0.04944 -0.18569,0.147105 -0.05305,0.0627 -0.10008,0.156752 -0.04703,0.09405 -0.0832,0.211012 -0.041,0.137459 -0.0627,0.258037 -0.0205,0.120578 -0.0205,0.218246 0,0.206189 0.09526,0.318326 0.09526,0.112138 0.270095,0.112138 0.08199,0 0.147106,-0.0217 0.06511,-0.02291 0.109726,-0.06511 l 0.09164,-0.473872 h -0.261655 l 0.03617,-0.20016 h 0.49437 z"
       id="path3111"
       style="fill:#000000" /><path
       d="m 19.055075,75.754566 -0.438905,0.933275 h 0.518486 z M 18.93932,75.551995 h 0.296622 l 0.20016,1.800232 H 19.19374 l -0.0422,-0.469049 h -0.627006 l -0.221864,0.469049 h -0.261654 z"
       id="path3113"
       style="fill:#000000" /><path
       d="m 19.88827,75.551995 h 1.37459 l -0.03979,0.204983 h -0.565512 l -0.30868,1.595249 h -0.245979 l 0.311091,-1.595249 h -0.565511 z"
       id="path3115"
       style="fill:#000000" /><path
       d="m 21.557071,75.551995 h 1.067116 l -0.03979,0.204983 h -0.824755 l -0.103697,0.532955 h 0.787375 l -0.03859,0.204983 h -0.788581 l -0.125401,0.652328 h 0.846459 l -0.03979,0.204983 h -1.091232 z"
       id="path3117"
       style="fill:#000000" /><g
       aria-label="MUTE"
       id="text1480"
       style="font-style:italic;font-size:2.46944px;font-family:Menlo;-inkscape-font-specification:'Menlo Italic';text-align:center;text-anchor:middle;fill:#000000;stroke-width:0.246944;stroke-linecap:square;stroke-linejoin:round;stroke-miterlimit:0;paint-order:fill markers stroke"
       transform="translate(-6.8695523,0.92831788)"><path
         d="m 24.038223,71.536873 h 0.324355 l 0.132636,0.911571 0.499194,-0.911571 h 0.32556 l -0.350882,1.800232 h -0.224275 l 0.311091,-1.600072 -0.523309,0.958596 h -0.170015 l -0.138665,-0.958596 -0.30868,1.600072 h -0.224275 z"
         id="path1584"
         style="fill:#000000" /><path
         d="m 25.387492,72.646192 0.214629,-1.109319 h 0.244774 l -0.215835,1.109319 q -0.0024,0.01568 -0.0096,0.04944 -0.03617,0.18569 -0.03617,0.256832 0,0.110931 0.06511,0.166397 0.06632,0.05547 0.198953,0.05547 0.107315,0 0.182073,-0.03376 0.07476,-0.03497 0.129019,-0.109726 0.02653,-0.03738 0.05305,-0.127812 0.02773,-0.09164 0.06029,-0.256832 l 0.21463,-1.109319 h 0.244773 l -0.214629,1.109319 q -0.05064,0.264066 -0.10852,0.388262 -0.05667,0.122989 -0.150723,0.198954 -0.08561,0.06752 -0.195336,0.103697 -0.109727,0.03497 -0.237539,0.03497 -0.23151,0 -0.356912,-0.10852 -0.124195,-0.10852 -0.124195,-0.30868 0,-0.04461 0.0096,-0.120578 0.01085,-0.07596 0.03256,-0.188102 z"
         id="path1586"
         style="fill:#000000" /><path
         d="m 26.968272,71.536873 h 1.37459 l -0.03979,0.204983 H 27.73756 l -0.30868,1.595249 h -0.245979 l 0.311091,-1.595249 h -0.565511 z"
         id="path1588"
         style="fill:#000000" /><path
         d="m 28.637073,71.536873 h 1.067116 l -0.03979,0.204983 h -0.824755 l -0.103697,0.532956 h 0.787375 l -0.03859,0.204982 h -0.788581 l -0.125401,0.652328 h 0.846458 l -0.03979,0.204983 h -1.091232 z"
         id="path1590"
         style="fill:#000000" /></g></g><g
     aria-label="ROTATE"
     id="text2964"
     style="font-style:italic;font-size:2.46944px;font-family:Menlo;-inkscape-font-specification:'Menlo Italic';text-align:center;text-anchor:middle;opacity:1;fill:#ffffff;stroke-width:0.246944;stroke-linecap:square;stroke-linejoin:round;stroke-miterlimit:0;paint-order:fill markers stroke"><path
       d="m 36.635074,71.558707 q 0.08682,0.01688 0.138665,0.08079 0.05306,0.06391 0.118167,0.277329 l 0.145899,0.491959 h -0.242362 l -0.127812,-0.45458 q -0.05306,-0.188101 -0.119373,-0.247185 -0.06511,-0.05908 -0.197748,-0.05908 H 36.119 l -0.148311,0.760848 h -0.244774 l 0.348471,-1.800231 h 0.501605 q 0.249597,0 0.38585,0.10852 0.137459,0.107314 0.137459,0.303857 0,0.220658 -0.125401,0.365351 -0.124195,0.144694 -0.338825,0.172427 z m -0.353293,-0.749996 -0.12299,0.639064 h 0.264066 q 0.196542,0 0.313503,-0.102491 0.118167,-0.103697 0.118167,-0.274918 0,-0.135048 -0.07596,-0.197748 -0.07596,-0.06391 -0.23995,-0.06391 z"
       id="path3047"
       style="fill:#000000" /><path
       d="m 37.803477,72.246002 q 0.102491,0 0.189307,-0.06149 0.08682,-0.06149 0.143488,-0.176044 0.08923,-0.174839 0.144694,-0.42323 0.05547,-0.248391 0.05547,-0.477489 0,-0.171221 -0.06391,-0.252008 -0.0627,-0.08199 -0.195336,-0.08199 -0.102492,0 -0.188102,0.06149 -0.08561,0.06149 -0.142282,0.176044 -0.09164,0.17725 -0.147105,0.42323 -0.05547,0.245979 -0.05547,0.475078 0,0.172426 0.0627,0.254419 0.06391,0.08199 0.196543,0.08199 z m 0.782552,-1.067116 q 0,0.132636 -0.02773,0.288182 -0.02653,0.155546 -0.07838,0.319532 -0.03497,0.110932 -0.07596,0.198954 -0.03979,0.08802 -0.08682,0.159163 -0.106108,0.153134 -0.237539,0.226687 -0.13143,0.07235 -0.306268,0.07235 -0.242362,0 -0.359323,-0.148311 -0.116961,-0.148312 -0.116961,-0.456992 0,-0.133841 0.02532,-0.286976 0.02653,-0.15434 0.07838,-0.318326 0.03497,-0.110932 0.07476,-0.198954 0.041,-0.08802 0.08802,-0.159163 0.106109,-0.153134 0.237539,-0.225481 0.13143,-0.07355 0.306268,-0.07355 0.243568,0 0.360529,0.148312 0.118167,0.147105 0.118167,0.454579 z"
       id="path3049"
       style="fill:#000000" /><path
       d="m 38.917618,70.608552 h 1.374591 l -0.03979,0.204982 h -0.565511 l -0.30868,1.595249 h -0.245979 l 0.311091,-1.595249 h -0.565511 z"
       id="path3051"
       style="fill:#000000" /><path
       d="m 41.05788,70.811123 -0.438904,0.933274 h 0.518486 z m -0.115755,-0.202571 h 0.296622 l 0.20016,1.800231 h -0.242362 l -0.0422,-0.469049 h -0.627006 l -0.221864,0.469049 h -0.261655 z"
       id="path3053"
       style="fill:#000000" /><path
       d="m 41.891075,70.608552 h 1.374591 l -0.03979,0.204982 h -0.565511 l -0.30868,1.595249 h -0.24598 l 0.311092,-1.595249 h -0.565512 z"
       id="path3055"
       style="fill:#000000" /><path
       d="m 43.559876,70.608552 h 1.067117 l -0.03979,0.204982 H 43.762447 L 43.65875,71.34649 h 0.787375 l -0.03859,0.204982 H 43.61896 L 43.493558,72.2038 h 0.846459 l -0.03979,0.204983 h -1.091232 z"
       id="path3057"
       style="fill:#000000" /></g><g
     aria-label="WATER"
     id="text2968"
     style="font-style:italic;font-size:2.46944px;font-family:Menlo;-inkscape-font-specification:'Menlo Italic';text-align:center;text-anchor:middle;opacity:1;fill:#ffffff;stroke-width:0.246944;stroke-linecap:square;stroke-linejoin:round;stroke-miterlimit:0;paint-order:fill markers stroke"><path
       d="m 48.512118,70.608552 h 0.230304 l -0.10852,1.458995 0.396702,-0.964625 h 0.254419 l 0.01809,0.967036 0.45458,-1.461406 h 0.238744 l -0.614948,1.800231 h -0.233922 l -0.03738,-1.04903 -0.447345,1.04903 h -0.226687 z"
       id="path3036"
       style="fill:#000000" /><path
       d="m 50.710257,70.811123 -0.438904,0.933274 h 0.518485 z m -0.115755,-0.202571 h 0.296622 l 0.20016,1.800231 h -0.242362 l -0.0422,-0.469049 h -0.627006 l -0.221864,0.469049 h -0.261654 z"
       id="path3038"
       style="fill:#000000" /><path
       d="m 51.543452,70.608552 h 1.37459 l -0.03979,0.204982 H 52.31274 l -0.30868,1.595249 h -0.245979 l 0.311091,-1.595249 h -0.565511 z"
       id="path3040"
       style="fill:#000000" /><path
       d="m 53.212253,70.608552 h 1.067117 l -0.03979,0.204982 h -0.824755 l -0.103697,0.532956 h 0.787375 l -0.03859,0.204982 H 53.271336 L 53.145935,72.2038 h 0.846459 l -0.03979,0.204983 h -1.091232 z"
       id="path3042"
       style="fill:#000000" /><path
       d="m 55.207821,71.558707 q 0.08682,0.01688 0.138665,0.08079 0.05305,0.06391 0.118166,0.277329 l 0.1459,0.491959 H 55.36819 l -0.127813,-0.45458 q -0.05305,-0.188101 -0.119372,-0.247185 -0.06511,-0.05908 -0.197748,-0.05908 h -0.23151 l -0.148311,0.760848 h -0.244774 l 0.348471,-1.800231 h 0.501605 q 0.249596,0 0.38585,0.10852 0.137459,0.107314 0.137459,0.303857 0,0.220658 -0.125401,0.365351 -0.124196,0.144694 -0.338825,0.172427 z m -0.353294,-0.749996 -0.12299,0.639064 h 0.264067 q 0.196542,0 0.313503,-0.102491 0.118166,-0.103697 0.118166,-0.274918 0,-0.135048 -0.07596,-0.197748 -0.07596,-0.06391 -0.23995,-0.06391 z"
       id="path3044"
       style="fill:#000000" /></g><g
     aria-label="DECAY"
     id="text2972"
     style="font-style:italic;font-size:2.46944px;font-family:Menlo;-inkscape-font-specification:'Menlo Italic';text-align:center;text-anchor:middle;opacity:1;fill:#ffffff;stroke-width:0.246944;stroke-linecap:square;stroke-linejoin:round;stroke-miterlimit:0;paint-order:fill markers stroke"><path
       d="m 60.424757,72.208623 q 0.223069,0 0.358117,-0.07476 0.135047,-0.07596 0.21704,-0.24598 0.06511,-0.138664 0.106109,-0.330384 0.0422,-0.192925 0.0422,-0.353294 0,-0.212217 -0.09887,-0.303856 -0.09887,-0.09164 -0.33159,-0.09164 h -0.137459 l -0.272506,1.399912 z m 0.315914,-1.600071 q 0.329178,0 0.491959,0.149516 0.163986,0.149517 0.163986,0.453374 0,0.195337 -0.05064,0.402731 -0.05064,0.207394 -0.136253,0.367763 -0.125401,0.230305 -0.313503,0.329179 -0.186896,0.09767 -0.506428,0.09767 h -0.365352 l 0.350882,-1.800231 z"
       id="path3025"
       style="fill:#000000" /><path
       d="m 61.9356,70.608552 h 1.067117 l -0.03979,0.204982 h -0.824754 l -0.103697,0.532956 h 0.787375 l -0.03858,0.204982 H 61.994684 L 61.869282,72.2038 h 0.846459 l -0.03979,0.204983 h -1.091232 z"
       id="path3027"
       style="fill:#000000" /><path
       d="m 64.145798,72.344877 q -0.101286,0.04944 -0.204983,0.07355 -0.102492,0.02532 -0.212218,0.02532 -0.277329,0 -0.430464,-0.160369 -0.151928,-0.160369 -0.151928,-0.449757 0,-0.265272 0.0844,-0.52572 0.0844,-0.260449 0.221863,-0.425641 0.129019,-0.156752 0.284565,-0.23151 0.155545,-0.07476 0.354499,-0.07476 0.09646,0 0.19172,0.02532 0.09526,0.02532 0.18569,0.07355 l -0.04944,0.249596 q -0.07717,-0.07596 -0.162781,-0.113343 -0.08561,-0.03738 -0.182073,-0.03738 -0.114549,0 -0.212217,0.04944 -0.09767,0.04823 -0.183279,0.148311 -0.125401,0.148311 -0.202571,0.379821 -0.07596,0.23151 -0.07596,0.464226 0,0.2086 0.09405,0.319532 0.09405,0.110931 0.2713,0.110931 0.102492,0 0.211012,-0.03858 0.109726,-0.03859 0.215835,-0.112137 z"
       id="path3029"
       style="fill:#000000" /><path
       d="m 65.380518,70.811123 -0.438905,0.933274 h 0.518486 z m -0.115755,-0.202571 h 0.296622 l 0.20016,1.800231 h -0.242362 l -0.0422,-0.469049 h -0.627006 l -0.221864,0.469049 h -0.261654 z"
       id="path3031"
       style="fill:#000000" /><path
       d="m 66.216124,70.608552 h 0.243568 l 0.284564,0.784963 0.599273,-0.784963 h 0.262861 l -0.765671,0.992358 -0.155546,0.807873 h -0.249597 l 0.157958,-0.807873 z"
       id="path3033"
       style="fill:#000000" /></g><g
     aria-label="DAMP "
     id="text2976"
     style="font-style:italic;font-size:2.46944px;font-family:Menlo;-inkscape-font-specification:'Menlo Italic';text-align:center;text-anchor:middle;opacity:1;fill:#ffffff;stroke-width:0.246944;stroke-linecap:square;stroke-linejoin:round;stroke-miterlimit:0;paint-order:fill markers stroke"><path
       d="m 73.236255,72.208623 q 0.22307,0 0.358117,-0.07476 0.135047,-0.07596 0.217041,-0.24598 0.06511,-0.138664 0.106108,-0.330384 0.0422,-0.192925 0.0422,-0.353294 0,-0.212217 -0.09887,-0.303856 -0.09887,-0.09164 -0.33159,-0.09164 h -0.137459 l -0.272507,1.399912 z m 0.315915,-1.600071 q 0.329178,0 0.491958,0.149516 0.163987,0.149517 0.163987,0.453374 0,0.195337 -0.05064,0.402731 -0.05064,0.207394 -0.136253,0.367763 -0.125402,0.230305 -0.313504,0.329179 -0.186896,0.09767 -0.506428,0.09767 h -0.365351 l 0.350882,-1.800231 z"
       id="path3016"
       style="fill:#000000" /><path
       d="m 75.218559,70.811123 -0.438904,0.933274 h 0.518486 z m -0.115755,-0.202571 h 0.296623 l 0.200159,1.800231 h -0.242362 l -0.0422,-0.469049 h -0.627006 l -0.221864,0.469049 h -0.261655 z"
       id="path3018"
       style="fill:#000000" /><path
       d="m 76.095162,70.608552 h 0.324356 l 0.132635,0.91157 0.499194,-0.91157 h 0.325561 l -0.350883,1.800231 H 76.80175 l 0.311092,-1.600072 -0.523309,0.958596 h -0.170015 l -0.138665,-0.958596 -0.30868,1.600072 h -0.224276 z"
       id="path3020"
       style="fill:#000000" /><path
       d="m 77.923127,70.808711 -0.13143,0.676444 h 0.282153 q 0.198953,0 0.31712,-0.11455 0.119372,-0.115755 0.119372,-0.307474 0,-0.130224 -0.07476,-0.191719 -0.07476,-0.0627 -0.23151,-0.0627 z m -0.204983,-0.200159 h 0.530544 q 0.248391,0 0.378615,0.110931 0.130225,0.110932 0.130225,0.320738 0,0.30024 -0.192925,0.472666 -0.192925,0.172427 -0.530544,0.172427 h -0.280947 l -0.141077,0.723469 h -0.244773 z"
       id="path3022"
       style="fill:#000000" /></g><g
     aria-label="WOBBLE "
     id="text2984"
     style="font-style:italic;font-size:2.46944px;font-family:Menlo;-inkscape-font-specification:'Menlo Italic';text-align:center;text-anchor:middle;opacity:1;fill:#ffffff;stroke-width:0.246944;stroke-linecap:square;stroke-linejoin:round;stroke-miterlimit:0;paint-order:fill markers stroke"><path
       d="m 83.601822,70.608552 h 0.230305 l -0.108521,1.458995 0.396702,-0.964625 h 0.25442 l 0.01809,0.967036 0.454579,-1.461406 h 0.238745 l -0.614948,1.800231 h -0.233922 l -0.03738,-1.04903 -0.447345,1.04903 h -0.226687 z"
       id="path3003"
       style="fill:#000000" /><path
       d="m 85.519015,72.246002 q 0.102491,0 0.189307,-0.06149 0.08682,-0.06149 0.143488,-0.176044 0.08923,-0.174839 0.144694,-0.42323 0.05547,-0.248391 0.05547,-0.477489 0,-0.171221 -0.06391,-0.252008 -0.0627,-0.08199 -0.195336,-0.08199 -0.102491,0 -0.188102,0.06149 -0.08561,0.06149 -0.142282,0.176044 -0.09164,0.17725 -0.147105,0.42323 -0.05547,0.245979 -0.05547,0.475078 0,0.172426 0.0627,0.254419 0.06391,0.08199 0.196543,0.08199 z m 0.782552,-1.067116 q 0,0.132636 -0.02773,0.288182 -0.02653,0.155546 -0.07838,0.319532 -0.03497,0.110932 -0.07596,0.198954 -0.03979,0.08802 -0.08682,0.159163 -0.106108,0.153134 -0.237539,0.226687 -0.13143,0.07235 -0.306268,0.07235 -0.242362,0 -0.359323,-0.148311 -0.116961,-0.148312 -0.116961,-0.456992 0,-0.133841 0.02532,-0.286976 0.02653,-0.15434 0.07838,-0.318326 0.03497,-0.110932 0.07476,-0.198954 0.041,-0.08802 0.08802,-0.159163 0.106109,-0.153134 0.237539,-0.225481 0.13143,-0.07355 0.306268,-0.07355 0.243568,0 0.360529,0.148312 0.118167,0.147105 0.118167,0.454579 z"
       id="path3005"
       style="fill:#000000" /><path
       d="m 86.840551,71.549061 -0.129019,0.659562 h 0.299034 q 0.221864,0 0.338825,-0.104903 0.118166,-0.104903 0.118166,-0.302651 0,-0.129018 -0.08199,-0.190513 -0.08199,-0.0615 -0.25442,-0.0615 z m 0.142282,-0.74035 -0.106109,0.542602 h 0.294211 q 0.182073,0 0.28577,-0.08682 0.104903,-0.08802 0.104903,-0.241157 0,-0.113343 -0.06752,-0.163986 -0.06632,-0.05064 -0.21704,-0.05064 z M 86.77785,70.608552 h 0.534161 q 0.244774,0 0.370175,0.09646 0.125401,0.09526 0.125401,0.280947 0,0.18569 -0.110931,0.311092 -0.110932,0.124195 -0.299034,0.148311 0.150722,0.02773 0.230304,0.122989 0.08079,0.09526 0.08079,0.244774 0,0.282153 -0.192925,0.438904 -0.191719,0.156752 -0.542601,0.156752 h -0.545013 z"
       id="path3007"
       style="fill:#000000" /><path
       d="m 88.327279,71.549061 -0.129018,0.659562 h 0.299033 q 0.221864,0 0.338825,-0.104903 0.118167,-0.104903 0.118167,-0.302651 0,-0.129018 -0.08199,-0.190513 -0.08199,-0.0615 -0.254419,-0.0615 z m 0.142282,-0.74035 -0.106108,0.542602 h 0.29421 q 0.182073,0 0.28577,-0.08682 0.104903,-0.08802 0.104903,-0.241157 0,-0.113343 -0.06752,-0.163986 -0.06632,-0.05064 -0.217041,-0.05064 z m -0.204982,-0.200159 h 0.534161 q 0.244773,0 0.370175,0.09646 0.125401,0.09526 0.125401,0.280947 0,0.18569 -0.110932,0.311092 -0.110932,0.124195 -0.299034,0.148311 0.150723,0.02773 0.230304,0.122989 0.08079,0.09526 0.08079,0.244774 0,0.282153 -0.192925,0.438904 -0.191719,0.156752 -0.542602,0.156752 h -0.545013 z"
       id="path3009"
       style="fill:#000000" /><path
       d="m 89.818831,70.608552 h 0.243567 L 89.751307,72.2038 h 0.869368 l -0.03979,0.204983 h -1.112936 z"
       id="path3011"
       style="fill:#000000" /><path
       d="m 91.275414,70.608552 h 1.067117 l -0.03979,0.204982 h -0.824754 l -0.103698,0.532956 h 0.787375 l -0.03858,0.204982 h -0.78858 L 91.209096,72.2038 h 0.846459 l -0.03979,0.204983 h -1.091232 z"
       id="path3013"
       style="fill:#000000" /></g><g
     aria-label="OUT"
     id="text2994"
     style="font-style:italic;font-size:2.46944px;font-family:Menlo;-inkscape-font-specification:'Menlo Italic';text-align:center;text-anchor:middle;opacity:1;fill:#ffffff;stroke-width:0.246944;stroke-linecap:square;stroke-linejoin:round;stroke-miterlimit:0;paint-order:fill markers stroke"><path
       d="m 88.793377,122.37518 q 0.102491,0 0.189308,-0.0615 0.08682,-0.0615 0.143488,-0.17604 0.08923,-0.17484 0.144693,-0.42323 0.05547,-0.24839 0.05547,-0.47749 0,-0.17122 -0.06391,-0.25201 -0.0627,-0.082 -0.195337,-0.082 -0.102491,0 -0.188102,0.0615 -0.08561,0.0615 -0.142282,0.17605 -0.09164,0.17725 -0.147105,0.42322 -0.05547,0.24598 -0.05547,0.47508 0,0.17243 0.0627,0.25442 0.06391,0.082 0.196542,0.082 z m 0.782552,-1.06712 q 0,0.13264 -0.02773,0.28818 -0.02653,0.15555 -0.07838,0.31953 -0.03497,0.11093 -0.07596,0.19896 -0.03979,0.088 -0.08682,0.15916 -0.106109,0.15313 -0.237539,0.22669 -0.13143,0.0723 -0.306269,0.0723 -0.242362,0 -0.359322,-0.14831 -0.116961,-0.14831 -0.116961,-0.45699 0,-0.13384 0.02532,-0.28697 0.02653,-0.15434 0.07838,-0.31833 0.03497,-0.11093 0.07476,-0.19895 0.041,-0.088 0.08802,-0.15917 0.106109,-0.15313 0.237539,-0.22548 0.13143,-0.0736 0.306269,-0.0736 0.243568,0 0.360528,0.14831 0.118167,0.14711 0.118167,0.45458 z"
       id="path2996"
       style="fill:#ffffff" /><path
       d="m 89.813468,121.84704 0.214629,-1.10932 h 0.244774 l -0.215835,1.10932 q -0.0024,0.0157 -0.0096,0.0494 -0.03617,0.18569 -0.03617,0.25683 0,0.11093 0.06511,0.1664 0.06632,0.0555 0.198954,0.0555 0.107315,0 0.182073,-0.0338 0.07476,-0.035 0.129019,-0.10972 0.02653,-0.0374 0.05305,-0.12782 0.02773,-0.0916 0.06029,-0.25683 l 0.214629,-1.10932 h 0.244774 l -0.214629,1.10932 q -0.05064,0.26407 -0.108521,0.38827 -0.05667,0.12298 -0.150722,0.19895 -0.08561,0.0675 -0.195337,0.1037 -0.109726,0.035 -0.237539,0.035 -0.23151,0 -0.356911,-0.10852 -0.124195,-0.10852 -0.124195,-0.30868 0,-0.0446 0.0096,-0.12057 0.01085,-0.076 0.03256,-0.18811 z"
       id="path2998"
       style="fill:#ffffff" /><path
       d="m 91.394247,120.73772 h 1.374591 l -0.03979,0.20499 h -0.565511 l -0.30868,1.59525 h -0.24598 l 0.311092,-1.59525 h -0.565512 z"
       id="path3000"
       style="fill:#ffffff" /></g><g
     aria-label="V/OCT"
     id="text7201"
     style="font-style:italic;font-size:2.82222px;font-family:Menlo;-inkscape-font-specification:'Menlo Italic';text-align:center;text-anchor:middle;fill:#ffffff;stroke-width:0.246944;stroke-linecap:square;stroke-linejoin:round;stroke-miterlimit:0;paint-order:fill markers stroke"><path
       d="m 17.281644,40.584162 0.824067,-1.795582 h 0.296278 L 17.41118,40.845989 H 17.055646 L 16.853075,38.78858 h 0.272851 z"
       id="path7470"
       style="fill:#000000" /><path
       d="m 18.300014,41.107816 1.174087,-2.319236 h 0.263206 l -1.176844,2.319236 z"
       id="path7472"
       style="fill:#000000" /><path
       d="m 20.66886,40.659954 q 0.117133,0 0.216351,-0.07028 0.09922,-0.07028 0.163987,-0.201193 0.101975,-0.199815 0.165364,-0.483691 0.06339,-0.283876 0.06339,-0.545703 0,-0.195681 -0.07304,-0.28801 -0.07166,-0.09371 -0.223242,-0.09371 -0.117133,0 -0.214974,0.07028 -0.09784,0.07028 -0.162608,0.201193 -0.104731,0.202572 -0.168121,0.483691 -0.06339,0.28112 -0.06339,0.542947 0,0.197059 0.07166,0.290766 0.07304,0.09371 0.22462,0.09371 z m 0.894346,-1.219563 q 0,0.151584 -0.0317,0.329351 -0.03032,0.177767 -0.08957,0.36518 -0.03996,0.126779 -0.08682,0.227376 -0.04548,0.100597 -0.09922,0.181901 -0.121267,0.175011 -0.271473,0.259071 -0.150206,0.08268 -0.350021,0.08268 -0.276986,0 -0.410655,-0.169498 -0.13367,-0.169499 -0.13367,-0.522276 0,-0.152962 0.02894,-0.327973 0.03032,-0.176389 0.08957,-0.363802 0.03996,-0.126779 0.08544,-0.227376 0.04685,-0.100597 0.100596,-0.181901 0.121268,-0.175011 0.271474,-0.257693 0.150206,-0.08406 0.350021,-0.08406 0.278364,0 0.412033,0.169498 0.135048,0.168121 0.135048,0.51952 z"
       id="path7474"
       style="fill:#000000" /><path
       d="m 22.977072,40.772953 q -0.115755,0.0565 -0.234266,0.08406 -0.117133,0.02894 -0.242535,0.02894 -0.316948,0 -0.491959,-0.183279 -0.173633,-0.183279 -0.173633,-0.514007 0,-0.303169 0.09646,-0.600825 0.09646,-0.297656 0.253559,-0.486447 0.14745,-0.179145 0.325217,-0.264583 0.177766,-0.08544 0.405142,-0.08544 0.110243,0 0.219108,0.02894 0.108865,0.02894 0.212218,0.08406 l -0.0565,0.285253 q -0.08819,-0.08682 -0.186035,-0.129535 -0.09784,-0.04272 -0.208084,-0.04272 -0.130914,0 -0.242535,0.0565 -0.111621,0.05512 -0.209461,0.169499 -0.143316,0.169499 -0.231511,0.434082 -0.08682,0.264583 -0.08682,0.530544 0,0.2384 0.107487,0.36518 0.107487,0.126779 0.310058,0.126779 0.117134,0 0.241157,-0.0441 0.125401,-0.0441 0.246669,-0.128157 z"
       id="path7476"
       style="fill:#000000" /><path
       d="m 23.641286,38.78858 h 1.570962 l -0.04547,0.234266 h -0.6463 l -0.352777,1.823143 h -0.28112 l 0.355534,-1.823143 h -0.646299 z"
       id="path7478"
       style="fill:#000000" /></g><g
     aria-label="GATE"
     id="text7205"
     style="font-style:italic;font-size:2.82222px;font-family:Menlo;-inkscape-font-specification:'Menlo Italic';text-align:center;text-anchor:middle;fill:#ffffff;stroke-width:0.246944;stroke-linecap:square;stroke-linejoin:round;stroke-miterlimit:0;paint-order:fill markers stroke"><path
       d="m 18.080906,50.553866 q -0.119889,0.08544 -0.261827,0.129535 -0.141938,0.04272 -0.303168,0.04272 -0.319705,0 -0.49196,-0.184657 -0.170876,-0.186035 -0.170876,-0.529166 0,-0.124023 0.02205,-0.263205 0.02343,-0.14056 0.06752,-0.293522 0.04823,-0.16123 0.112999,-0.290766 0.06477,-0.130913 0.141938,-0.223242 0.14745,-0.179145 0.325217,-0.264583 0.179145,-0.08544 0.407899,-0.08544 0.110243,0 0.219108,0.02894 0.110243,0.02894 0.216352,0.08406 l -0.0565,0.285253 q -0.08957,-0.08682 -0.188791,-0.129535 -0.09784,-0.04272 -0.209462,-0.04272 -0.135047,0 -0.253559,0.05788 -0.118511,0.0565 -0.212217,0.168121 -0.06063,0.07166 -0.114377,0.179145 -0.05374,0.107487 -0.09509,0.241156 -0.04685,0.157097 -0.07166,0.2949 -0.02343,0.137804 -0.02343,0.249425 0,0.235644 0.108865,0.363802 0.108865,0.128157 0.308681,0.128157 0.09371,0 0.16812,-0.0248 0.07441,-0.02618 0.125402,-0.07441 l 0.10473,-0.541569 h -0.299034 l 0.04134,-0.228754 h 0.564995 z"
       id="path7461"
       style="fill:#000000" /><path
       d="m 19.457565,48.860258 -0.501606,1.066601 h 0.592556 z m -0.132292,-0.23151 h 0.338998 l 0.228754,2.057409 h -0.276986 l -0.04823,-0.536056 h -0.716579 l -0.253559,0.536056 h -0.299034 z"
       id="path7463"
       style="fill:#000000" /><path
       d="m 20.409789,48.628748 h 1.570962 l -0.04547,0.234266 h -0.6463 l -0.352777,1.823143 h -0.28112 l 0.355534,-1.823143 h -0.6463 z"
       id="path7465"
       style="fill:#000000" /><path
       d="m 22.316992,48.628748 h 1.219563 l -0.04547,0.234266 h -0.942577 l -0.118512,0.609092 h 0.899859 l -0.0441,0.234267 H 22.384516 L 22.2412,50.451891 h 0.967382 l -0.04547,0.234266 h -1.247124 z"
       id="path7467"
       style="fill:#000000" /></g><g
     aria-label="PRESSURE"
     id="text7209"
     style="font-style:italic;font-size:2.82222px;font-family:Menlo;-inkscape-font-specification:'Menlo Italic';text-align:center;text-anchor:middle;fill:#ffffff;stroke-width:0.246944;stroke-linecap:square;stroke-linejoin:round;stroke-miterlimit:0;paint-order:fill markers stroke"><path
       d="m 17.488349,59.069 -0.150206,0.773079 h 0.322461 q 0.227376,0 0.362423,-0.130914 0.136426,-0.132291 0.136426,-0.351399 0,-0.148828 -0.08544,-0.219108 Q 17.988576,59.069 17.809432,59.069 Z m -0.234266,-0.228754 h 0.606336 q 0.283876,0 0.432704,0.126779 0.148828,0.12678 0.148828,0.366558 0,0.343132 -0.220486,0.540191 -0.220486,0.197059 -0.606337,0.197059 h -0.321082 l -0.161231,0.826822 h -0.279741 z"
       id="path7444"
       style="fill:#000000" /><path
       d="m 19.53749,59.926139 q 0.09922,0.01929 0.158475,0.09233 0.06063,0.07304 0.135047,0.316948 l 0.166743,0.562239 h -0.276986 l -0.146072,-0.51952 q -0.06063,-0.214973 -0.136425,-0.282497 -0.07441,-0.06752 -0.225999,-0.06752 H 18.94769 l -0.169498,0.869541 H 18.49845 l 0.398253,-2.057409 h 0.573263 q 0.285254,0 0.440972,0.124023 0.157097,0.122646 0.157097,0.347266 0,0.252181 -0.143316,0.417545 -0.141938,0.165364 -0.387229,0.197059 z M 19.133725,59.069 18.993166,59.79936 h 0.30179 q 0.22462,0 0.358289,-0.117133 0.135048,-0.118511 0.135048,-0.314193 0,-0.15434 -0.08682,-0.225998 Q 19.61466,59.069 19.427247,59.069 Z"
       id="path7446"
       style="fill:#000000" /><path
       d="m 20.655078,58.840246 h 1.219563 l -0.04547,0.234266 h -0.942577 l -0.118512,0.609093 h 0.899859 l -0.0441,0.234266 h -0.901237 l -0.143316,0.745518 h 0.967382 l -0.04547,0.234266 H 20.25407 Z"
       id="path7448"
       style="fill:#000000" /><path
       d="m 23.460762,58.910526 -0.05374,0.282498 q -0.111621,-0.08131 -0.23151,-0.122646 -0.11989,-0.04134 -0.248047,-0.04134 -0.227376,0 -0.370692,0.112999 -0.143316,0.112999 -0.143316,0.28801 0,0.09784 0.06752,0.158474 0.06752,0.06063 0.24529,0.115755 l 0.166743,0.05374 q 0.22462,0.0689 0.327973,0.184657 0.104731,0.114377 0.104731,0.292144 0,0.323838 -0.228755,0.514007 -0.228754,0.188792 -0.62425,0.188792 -0.143316,0 -0.282498,-0.03169 -0.137804,-0.03032 -0.275607,-0.09233 l 0.0565,-0.28801 q 0.135048,0.09508 0.272851,0.14056 0.139182,0.04548 0.293522,0.04548 0.227376,0 0.369314,-0.121267 0.141938,-0.121267 0.141938,-0.307302 0,-0.112999 -0.06063,-0.175011 -0.06063,-0.06201 -0.243913,-0.118511 l -0.139182,-0.04547 q -0.253559,-0.07993 -0.355533,-0.180523 -0.100597,-0.101975 -0.100597,-0.268717 0,-0.304547 0.227376,-0.497472 0.227376,-0.194303 0.593934,-0.194303 0.110243,0 0.234266,0.02756 0.125402,0.02756 0.256315,0.07993 z"
       id="path7450"
       style="fill:#000000" /><path
       d="m 25.159882,58.910526 -0.05374,0.282498 q -0.111621,-0.08131 -0.23151,-0.122646 -0.119889,-0.04134 -0.248047,-0.04134 -0.227376,0 -0.370692,0.112999 -0.143315,0.112999 -0.143315,0.28801 0,0.09784 0.06752,0.158474 0.06752,0.06063 0.245291,0.115755 l 0.166743,0.05374 q 0.22462,0.0689 0.327972,0.184657 0.104731,0.114377 0.104731,0.292144 0,0.323838 -0.228754,0.514007 -0.228754,0.188792 -0.624251,0.188792 -0.143316,0 -0.282497,-0.03169 -0.137804,-0.03032 -0.275608,-0.09233 l 0.0565,-0.28801 q 0.135047,0.09508 0.272851,0.14056 0.139182,0.04548 0.293522,0.04548 0.227376,0 0.369314,-0.121267 0.141938,-0.121267 0.141938,-0.307302 0,-0.112999 -0.06063,-0.175011 -0.06063,-0.06201 -0.243912,-0.118511 l -0.139182,-0.04547 q -0.253559,-0.07993 -0.355534,-0.180523 -0.100597,-0.101975 -0.100597,-0.268717 0,-0.304547 0.227377,-0.497472 0.227376,-0.194303 0.593934,-0.194303 0.110243,0 0.234266,0.02756 0.125401,0.02756 0.256315,0.07993 z"
       id="path7452"
       style="fill:#000000" /><path
       d="m 25.436867,60.10804 0.245291,-1.267794 h 0.279741 l -0.246668,1.267794 q -0.0028,0.01791 -0.01103,0.0565 -0.04134,0.212217 -0.04134,0.293522 0,0.126779 0.07441,0.190169 0.07579,0.06339 0.227376,0.06339 0.122646,0 0.208084,-0.03859 0.08544,-0.03996 0.14745,-0.125401 0.03032,-0.04272 0.06063,-0.146072 0.03169,-0.104731 0.0689,-0.293522 l 0.245291,-1.267794 h 0.279742 l -0.245291,1.267794 q -0.05788,0.30179 -0.124023,0.443728 -0.06477,0.14056 -0.172255,0.227376 -0.09784,0.07717 -0.223242,0.118511 -0.125401,0.03996 -0.271473,0.03996 -0.264584,0 -0.407899,-0.124024 -0.141938,-0.124023 -0.141938,-0.352777 0,-0.05099 0.01102,-0.137804 0.0124,-0.08682 0.03721,-0.214974 z"
       id="path7454"
       style="fill:#000000" /><path
       d="m 28.03309,59.926139 q 0.09922,0.01929 0.158474,0.09233 0.06063,0.07304 0.135048,0.316948 l 0.166742,0.562239 h -0.276985 l -0.146072,-0.51952 q -0.06063,-0.214973 -0.136426,-0.282497 -0.07441,-0.06752 -0.225998,-0.06752 H 27.44329 l -0.169499,0.869541 H 26.99405 l 0.398252,-2.057409 h 0.573264 q 0.285254,0 0.440972,0.124023 0.157096,0.122646 0.157096,0.347266 0,0.252181 -0.143316,0.417545 -0.141938,0.165364 -0.387228,0.197059 z M 27.629325,59.069 l -0.14056,0.73036 h 0.30179 q 0.22462,0 0.35829,-0.117133 0.135048,-0.118511 0.135048,-0.314193 0,-0.15434 -0.08682,-0.225998 Q 28.11026,59.069 27.922847,59.069 Z"
       id="path7456"
       style="fill:#000000" /><path
       d="m 29.150678,58.840246 h 1.219563 l -0.04548,0.234266 h -0.942577 l -0.118511,0.609093 h 0.899858 l -0.0441,0.234266 h -0.901237 l -0.143315,0.745518 h 0.967382 l -0.04548,0.234266 h -1.247123 z"
       id="path7458"
       style="fill:#000000" /></g><g
     aria-label="DAMP ALL"
     id="text7213"
     style="font-style:italic;font-size:2.82222px;font-family:Menlo;-inkscape-font-specification:'Menlo Italic';text-align:center;text-anchor:middle;fill:#ffffff;stroke-width:0.246944;stroke-linecap:square;stroke-linejoin:round;stroke-miterlimit:0;paint-order:fill markers stroke"><path
       d="m 10.174062,92.417372 q 0.254937,0 0.409277,-0.08544 0.15434,-0.08682 0.248047,-0.281119 0.07441,-0.158475 0.121267,-0.377582 0.04823,-0.220486 0.04823,-0.403765 0,-0.242535 -0.112999,-0.347266 -0.112999,-0.104731 -0.37896,-0.104731 h -0.157096 l -0.311436,1.599902 z m 0.361046,-1.828656 q 0.376204,0 0.562239,0.170877 0.187413,0.170877 0.187413,0.518142 0,0.223242 -0.05788,0.460264 -0.05788,0.237023 -0.155719,0.420302 -0.143315,0.263205 -0.358289,0.376204 -0.213596,0.111621 -0.578776,0.111621 H 9.7165539 l 0.4010091,-2.05741 z"
       id="path7429"
       style="fill:#000000" /><path
       d="m 12.439555,90.820227 -0.501605,1.0666 h 0.592556 z m -0.132291,-0.231511 h 0.338997 l 0.228754,2.05741 H 12.59803 l -0.04823,-0.536057 h -0.716579 l -0.253559,0.536057 h -0.299034 z"
       id="path7431"
       style="fill:#000000" /><path
       d="m 13.441388,90.588716 h 0.370692 l 0.151584,1.041796 0.570508,-1.041796 h 0.37207 l -0.401009,2.05741 h -0.256315 l 0.355534,-1.828656 -0.598068,1.09554 H 13.81208 l -0.158474,-1.09554 -0.352778,1.828656 h -0.256314 z"
       id="path7433"
       style="fill:#000000" /><path
       d="m 15.530493,90.81747 -0.150206,0.773079 h 0.32246 q 0.227377,0 0.362424,-0.130913 0.136426,-0.132292 0.136426,-0.3514 0,-0.148828 -0.08544,-0.219108 -0.08544,-0.07166 -0.264584,-0.07166 z m -0.234266,-0.228754 h 0.606336 q 0.283876,0 0.432704,0.12678 0.148828,0.126779 0.148828,0.366558 0,0.343131 -0.220486,0.54019 -0.220486,0.19706 -0.606337,0.19706 H 15.33619 l -0.161231,0.826822 h -0.279741 z"
       id="path7435"
       style="fill:#000000" /><path
       d="m 19.236034,90.820227 -0.501605,1.0666 h 0.592556 z m -0.132291,-0.231511 h 0.338997 l 0.228754,2.05741 h -0.276985 l -0.04823,-0.536057 h -0.716579 l -0.253559,0.536057 h -0.299034 z"
       id="path7437"
       style="fill:#000000" /><path
       d="m 20.430793,90.588716 h 0.278364 l -0.355534,1.823143 h 0.993565 l -0.04547,0.234267 h -1.271929 z"
       id="path7439"
       style="fill:#000000" /><path
       d="m 22.129913,90.588716 h 0.278363 l -0.355533,1.823143 h 0.993564 l -0.04547,0.234267 h -1.271928 z"
       id="path7441"
       style="fill:#000000" /></g><g
     aria-label="ROOT"
     id="text7217"
     style="font-style:italic;font-size:2.82222px;font-family:Menlo;-inkscape-font-specification:'Menlo Italic';text-align:center;text-anchor:middle;fill:#ffffff;stroke-width:0.246944;stroke-linecap:square;stroke-linejoin:round;stroke-miterlimit:0;paint-order:fill markers stroke"><path
       d="m 42.560096,93.80038 q 0.09922,0.01929 0.158475,0.09233 0.06063,0.07304 0.135047,0.316948 l 0.166743,0.562239 h -0.276986 l -0.146072,-0.51952 q -0.06063,-0.214973 -0.136425,-0.282497 -0.07441,-0.06752 -0.225998,-0.06752 h -0.264584 l -0.169498,0.869541 h -0.279742 l 0.398253,-2.057409 h 0.573264 q 0.285253,0 0.440971,0.124023 0.157097,0.122646 0.157097,0.347266 0,0.25218 -0.143316,0.417545 -0.141938,0.165364 -0.387229,0.197059 z m -0.403764,-0.857139 -0.14056,0.73036 h 0.30179 q 0.22462,0 0.35829,-0.117133 0.135047,-0.118512 0.135047,-0.314193 0,-0.15434 -0.08682,-0.225998 -0.08682,-0.07304 -0.27423,-0.07304 z"
       id="path7420"
       style="fill:#000000" /><path
       d="m 43.895414,94.585861 q 0.117134,0 0.216352,-0.07028 0.09922,-0.07028 0.163987,-0.201193 0.101974,-0.199815 0.165364,-0.483691 0.06339,-0.283876 0.06339,-0.545703 0,-0.195681 -0.07304,-0.288009 -0.07166,-0.09371 -0.223242,-0.09371 -0.117133,0 -0.214974,0.07028 -0.09784,0.07028 -0.162608,0.201193 -0.104731,0.202572 -0.168121,0.483691 -0.06339,0.28112 -0.06339,0.542947 0,0.197059 0.07166,0.290766 0.07304,0.09371 0.22462,0.09371 z m 0.894347,-1.219563 q 0,0.151585 -0.03169,0.329351 -0.03032,0.177767 -0.08957,0.36518 -0.03996,0.12678 -0.08682,0.227376 -0.04547,0.100597 -0.09922,0.181901 -0.121267,0.175011 -0.271473,0.259071 -0.150206,0.08268 -0.350022,0.08268 -0.276985,0 -0.410655,-0.169498 -0.133669,-0.169499 -0.133669,-0.522276 0,-0.152962 0.02894,-0.327973 0.03032,-0.176389 0.08957,-0.363802 0.03996,-0.126779 0.08544,-0.227376 0.04685,-0.100597 0.100597,-0.181901 0.121267,-0.175011 0.271473,-0.257693 0.150206,-0.08406 0.350022,-0.08406 0.278363,0 0.412033,0.169498 0.135048,0.168121 0.135048,0.51952 z"
       id="path7422"
       style="fill:#000000" /><path
       d="m 45.594534,94.585861 q 0.117133,0 0.216352,-0.07028 0.09922,-0.07028 0.163986,-0.201193 0.101975,-0.199815 0.165365,-0.483691 0.06339,-0.283876 0.06339,-0.545703 0,-0.195681 -0.07304,-0.288009 -0.07166,-0.09371 -0.223242,-0.09371 -0.117134,0 -0.214974,0.07028 -0.09784,0.07028 -0.162609,0.201193 -0.10473,0.202572 -0.16812,0.483691 -0.06339,0.28112 -0.06339,0.542947 0,0.197059 0.07166,0.290766 0.07304,0.09371 0.22462,0.09371 z m 0.894346,-1.219563 q 0,0.151585 -0.03169,0.329351 -0.03032,0.177767 -0.08957,0.36518 -0.03996,0.12678 -0.08682,0.227376 -0.04548,0.100597 -0.09922,0.181901 -0.121267,0.175011 -0.271473,0.259071 -0.150206,0.08268 -0.350022,0.08268 -0.276985,0 -0.410655,-0.169498 -0.133669,-0.169499 -0.133669,-0.522276 0,-0.152962 0.02894,-0.327973 0.03032,-0.176389 0.08957,-0.363802 0.03996,-0.126779 0.08544,-0.227376 0.04685,-0.100597 0.100597,-0.181901 0.121267,-0.175011 0.271473,-0.257693 0.150206,-0.08406 0.350022,-0.08406 0.278363,0 0.412033,0.169498 0.135047,0.168121 0.135047,0.51952 z"
       id="path7424"
       style="fill:#000000" /><path
       d="m 46.867841,92.714487 h 1.570962 l -0.04548,0.234266 h -0.6463 l -0.352777,1.823143 h -0.28112 l 0.355534,-1.823143 h -0.646299 z"
       id="path7426"
       style="fill:#000000" /></g><g
     aria-label="FM / OFFSET"
     id="text7221"
     style="font-style:italic;font-size:2.82222px;font-family:Menlo;-inkscape-font-specification:'Menlo Italic';text-align:center;text-anchor:middle;fill:#ffffff;stroke-width:0.246944;stroke-linecap:square;stroke-linejoin:round;stroke-miterlimit:0;paint-order:fill markers stroke"
     transform="translate(5.2916669)"><path
       d="m 58.764172,90.774378 h 1.211295 l -0.04548,0.234266 h -0.931553 l -0.118512,0.606336 h 0.843359 l -0.0441,0.234267 h -0.844737 l -0.191547,0.98254 h -0.279742 z"
       id="path7401"
       style="fill:#000000" /><path
       d="m 60.251074,90.774378 h 0.370692 l 0.151584,1.041796 0.570508,-1.041796 h 0.37207 l -0.401009,2.057409 h -0.256315 l 0.355534,-1.828655 -0.598068,1.095539 h -0.194304 l -0.158474,-1.095539 -0.352777,1.828655 H 59.8542 Z"
       id="path7403"
       style="fill:#000000" /><path
       d="m 63.355792,93.093614 1.174088,-2.319236 h 0.263205 l -1.176844,2.319236 z"
       id="path7405"
       style="fill:#000000" /><path
       d="m 67.423757,92.645752 q 0.117134,0 0.216352,-0.07028 0.09922,-0.07028 0.163987,-0.201193 0.101974,-0.199816 0.165364,-0.483691 0.06339,-0.283876 0.06339,-0.545703 0,-0.195681 -0.07304,-0.28801 -0.07166,-0.09371 -0.223242,-0.09371 -0.117133,0 -0.214974,0.07028 -0.09784,0.07028 -0.162608,0.201193 -0.104731,0.202572 -0.168121,0.483691 -0.06339,0.28112 -0.06339,0.542947 0,0.197059 0.07166,0.290766 0.07304,0.09371 0.22462,0.09371 z m 0.894347,-1.219563 q 0,0.151584 -0.03169,0.329351 -0.03032,0.177767 -0.08957,0.36518 -0.03996,0.126779 -0.08682,0.227376 -0.04548,0.100597 -0.09922,0.181901 -0.121267,0.175011 -0.271473,0.259071 -0.150206,0.08268 -0.350021,0.08268 -0.276986,0 -0.410656,-0.169498 -0.133669,-0.169499 -0.133669,-0.522276 0,-0.152963 0.02894,-0.327973 0.03032,-0.176389 0.08957,-0.363802 0.03996,-0.12678 0.08544,-0.227376 0.04685,-0.100597 0.100597,-0.181901 0.121267,-0.175011 0.271473,-0.257693 0.150206,-0.08406 0.350022,-0.08406 0.278363,0 0.412033,0.169498 0.135048,0.168121 0.135048,0.51952 z"
       id="path7407"
       style="fill:#000000" /><path
       d="m 68.958892,90.774378 h 1.211294 l -0.04547,0.234266 h -0.931553 l -0.118511,0.606336 h 0.843358 l -0.0441,0.234267 h -0.844737 l -0.191547,0.98254 h -0.279741 z"
       id="path7409"
       style="fill:#000000" /><path
       d="m 70.658011,90.774378 h 1.211295 l -0.04547,0.234266 h -0.931554 l -0.118511,0.606336 h 0.843359 l -0.0441,0.234267 h -0.844737 l -0.191547,0.98254 h -0.279742 z"
       id="path7411"
       style="fill:#000000" /><path
       d="m 73.409951,90.844658 -0.05374,0.282497 q -0.111621,-0.0813 -0.231511,-0.122645 -0.119889,-0.04134 -0.248046,-0.04134 -0.227376,0 -0.370692,0.112999 -0.143316,0.112999 -0.143316,0.28801 0,0.09784 0.06752,0.158474 0.06752,0.06063 0.24529,0.115755 l 0.166743,0.05374 q 0.22462,0.0689 0.327973,0.184657 0.10473,0.114377 0.10473,0.292144 0,0.323839 -0.228754,0.514008 -0.228754,0.188791 -0.624251,0.188791 -0.143315,0 -0.282497,-0.03169 -0.137804,-0.03032 -0.275608,-0.09233 l 0.0565,-0.28801 q 0.135048,0.09508 0.272851,0.14056 0.139182,0.04547 0.293522,0.04547 0.227376,0 0.369314,-0.121267 0.141938,-0.121267 0.141938,-0.307302 0,-0.113 -0.06063,-0.175011 -0.06063,-0.06201 -0.243912,-0.118511 l -0.139182,-0.04548 q -0.253559,-0.07993 -0.355534,-0.180522 -0.100596,-0.101975 -0.100596,-0.268718 0,-0.304546 0.227376,-0.497471 0.227376,-0.194303 0.593934,-0.194303 0.110243,0 0.234266,0.02756 0.125402,0.02756 0.256315,0.07993 z"
       id="path7413"
       style="fill:#000000" /><path
       d="m 74.002507,90.774378 h 1.219563 l -0.04548,0.234266 h -0.942577 l -0.118511,0.609092 h 0.899858 l -0.0441,0.234267 h -0.901236 l -0.143316,0.745518 h 0.967382 l -0.04547,0.234266 h -1.247124 z"
       id="path7415"
       style="fill:#000000" /><path
       d="m 75.493543,90.774378 h 1.570962 l -0.04547,0.234266 h -0.6463 l -0.352777,1.823143 h -0.28112 l 0.355534,-1.823143 h -0.646299 z"
       id="path7417"
       style="fill:#000000" /></g><g
     aria-label="SPREAD"
     id="text8075"
     style="font-style:italic;font-size:2.46944px;font-family:Menlo;-inkscape-font-specification:'Menlo Italic';text-align:center;text-anchor:middle;fill:#ffffff;stroke-width:0.246944;stroke-linecap:square;stroke-linejoin:round;stroke-miterlimit:0;paint-order:fill markers stroke"><path
       d="m 40.368124,120.98488 -0.04703,0.24719 q -0.09767,-0.0711 -0.202571,-0.10732 -0.104903,-0.0362 -0.217041,-0.0362 -0.198954,0 -0.324355,0.0989 -0.125401,0.0989 -0.125401,0.25201 0,0.0856 0.05908,0.13867 0.05908,0.053 0.214629,0.10128 l 0.1459,0.047 q 0.196542,0.0603 0.286976,0.16157 0.09164,0.10008 0.09164,0.25563 0,0.28336 -0.20016,0.44975 -0.200159,0.1652 -0.546219,0.1652 -0.125401,0 -0.247185,-0.0277 -0.120578,-0.0265 -0.241156,-0.0808 l 0.04944,-0.252 q 0.118166,0.0832 0.238745,0.12299 0.121784,0.0398 0.256831,0.0398 0.198954,0 0.323149,-0.10611 0.124196,-0.10611 0.124196,-0.26889 0,-0.0989 -0.05306,-0.15314 -0.05305,-0.0543 -0.213423,-0.10369 l -0.121784,-0.0398 q -0.221863,-0.0699 -0.311091,-0.15796 -0.08802,-0.0892 -0.08802,-0.23513 0,-0.26648 0.198954,-0.43528 0.198954,-0.17002 0.519691,-0.17002 0.09646,0 0.204983,0.0241 0.109726,0.0241 0.224275,0.0699 z"
       id="path8077"
       style="fill:#000000" /><path
       d="m 41.089182,121.12355 -0.13143,0.67644 h 0.282152 q 0.198954,0 0.317121,-0.11455 0.119372,-0.11576 0.119372,-0.30747 0,-0.13023 -0.07476,-0.19172 -0.07476,-0.0627 -0.23151,-0.0627 z m -0.204983,-0.20016 h 0.530544 q 0.248391,0 0.378615,0.11093 0.130224,0.11093 0.130224,0.32074 0,0.30024 -0.192925,0.47266 -0.192925,0.17243 -0.530543,0.17243 h -0.280947 l -0.141077,0.72347 h -0.244773 z"
       id="path8079"
       style="fill:#000000" /><path
       d="m 42.882178,121.87354 q 0.08682,0.0169 0.138665,0.0808 0.05306,0.0639 0.118167,0.27733 l 0.145899,0.49196 h -0.242362 l -0.127813,-0.45458 q -0.05305,-0.1881 -0.119372,-0.24719 -0.06511,-0.0591 -0.197748,-0.0591 h -0.23151 l -0.148311,0.76085 h -0.244774 l 0.348471,-1.80023 h 0.501605 q 0.249597,0 0.38585,0.10852 0.137459,0.10731 0.137459,0.30385 0,0.22066 -0.125401,0.36536 -0.124196,0.14469 -0.338825,0.17242 z m -0.353293,-0.74999 -0.12299,0.63906 h 0.264066 q 0.196542,0 0.313503,-0.10249 0.118167,-0.1037 0.118167,-0.27492 0,-0.13505 -0.07596,-0.19775 -0.07596,-0.0639 -0.23995,-0.0639 z"
       id="path8081"
       style="fill:#000000" /><path
       d="m 43.860067,120.92339 h 1.067117 l -0.03979,0.20498 h -0.824755 l -0.103697,0.53295 h 0.787375 l -0.03858,0.20499 H 43.91915 l -0.125401,0.65232 h 0.846459 l -0.03979,0.20499 h -1.091232 z"
       id="path8083"
       style="fill:#000000" /><path
       d="m 45.818256,121.12596 -0.438905,0.93327 h 0.518486 z m -0.115755,-0.20257 h 0.296622 l 0.20016,1.80023 h -0.242362 l -0.0422,-0.46905 h -0.627006 l -0.221864,0.46905 h -0.261654 z"
       id="path8085"
       style="fill:#000000" /><path
       d="m 46.809408,122.52346 q 0.223069,0 0.358117,-0.0748 0.135047,-0.076 0.217041,-0.24598 0.06511,-0.13866 0.106108,-0.33038 0.0422,-0.19293 0.0422,-0.3533 0,-0.21222 -0.09887,-0.30385 -0.09887,-0.0916 -0.33159,-0.0916 h -0.137459 l -0.272507,1.39991 z m 0.315915,-1.60007 q 0.329178,0 0.491958,0.14951 0.163987,0.14952 0.163987,0.45338 0,0.19533 -0.05064,0.40273 -0.05064,0.20739 -0.136254,0.36776 -0.125401,0.23031 -0.313503,0.32918 -0.186896,0.0977 -0.506428,0.0977 h -0.365351 l 0.350882,-1.80023 z"
       id="path8087"
       style="fill:#000000" /></g></svg>
