<?xml version="1.0" encoding="UTF-8" standalone="no"?>
<!-- Created with Inkscape (http://www.inkscape.org/) -->

<svg
   width="76.199997mm"
   height="128.5mm"
   viewBox="0 0 76.200002 128.50002"
   version="1.1"
   id="svg8"
   inkscape:version="1.2 (dc2aeda, 2022-05-15)"
   sodipodi:docname="Hammer-dark.svg"
   xml:space="preserve"
   xmlns:inkscape="http://www.inkscape.org/namespaces/inkscape"
   xmlns:sodipodi="http://sodipodi.sourceforge.net/DTD/sodipodi-0.dtd"
   xmlns="http://www.w3.org/2000/svg"
   xmlns:svg="http://www.w3.org/2000/svg"
   xmlns:rdf="http://www.w3.org/1999/02/22-rdf-syntax-ns#"
   xmlns:cc="http://creativecommons.org/ns#"
   xmlns:dc="http://purl.org/dc/elements/1.1/"
   xmlns:serif="http://www.serif.com/"><defs
     id="defs2" /><sodipodi:namedview
     id="base"
     pagecolor="#ffffff"
     bordercolor="#666666"
     borderopacity="1.0"
     inkscape:pageopacity="0.0"
     inkscape:pageshadow="2"
     inkscape:zoom="1.4635467"
     inkscape:cx="126.40526"
     inkscape:cy="252.46888"
     inkscape:document-units="mm"
     inkscape:current-layer="svg8"
     showgrid="false"
     units="mm"
     inkscape:snap-bbox="true"
     inkscape:snap-page="true"
     inkscape:bbox-nodes="false"
     inkscape:snap-bbox-edge-midpoints="false"
     inkscape:window-width="1400"
     inkscape:window-height="847"
     inkscape:window-x="79"
     inkscape:window-y="52"
     inkscape:window-maximized="0"
     inkscape:snap-bbox-midpoints="true"
     inkscape:snap-nodes="false"
     inkscape:showpageshadow="2"
     inkscape:pagecheckerboard="0"
     inkscape:deskcolor="#d1d1d1"
     showguides="true" /><metadata
     id="metadata5"><rdf:RDF><cc:Work
         rdf:about=""><dc:format>image/svg+xml</dc:format><dc:type
           rdf:resource="http://purl.org/dc/dcmitype/StillImage" /></cc:Work></rdf:RDF></metadata><rect
     id="rect1"
     x="-0.065109253"
     y="-0.38949111"
     width="76.330215"
     height="129.29376"
     style="clip-rule:evenodd;fill:#202020;fill-rule:evenodd;stroke-width:0.431861;stroke-linejoin:round;stroke-miterlimit:1.5" /><rect
     style="fill:#333333;fill-opacity:1;stroke:#c3925d;stroke-width:0.386732;stroke-linecap:square;stroke-dasharray:none;stroke-opacity:1;paint-order:fill markers stroke"
     id="rect24776"
     width="11.377463"
     height="15.718145"
     x="3.3498483"
     y="24.733051"
     rx="3.0000002"
     ry="3" /><rect
     style="fill:#333333;fill-opacity:1;stroke:#c3925d;stroke-width:0.35277778;stroke-linecap:square;stroke-dasharray:none;stroke-opacity:1;paint-order:fill markers stroke"
     id="rect24722"
     width="12.469784"
     height="99.067482"
     x="60.397495"
     y="24.419395"
     rx="3"
     ry="3" /><g
     id="g10544"
     transform="translate(-6.8427985)"><g
       id="g473"
       transform="translate(25.033328)"><path
         id="path128"
         d="m 16.724247,125.9342 c 0.05984,0.1268 0.07943,0.25396 0.05842,0.38219 h -0.419235 c -0.0064,-0.0983 -0.02565,-0.1724 -0.05842,-0.22227 -0.05735,-0.089 -0.160997,-0.13357 -0.310597,-0.13357 -0.152449,0 -0.28602,0.0627 -0.4,0.18843 -0.114337,0.12538 -0.195192,0.30276 -0.242921,0.5325 -0.04809,0.22974 -0.03776,0.40143 0.0317,0.51612 0.0691,0.11433 0.175246,0.17133 0.318434,0.17133 0.147106,0 0.269635,-0.0492 0.367587,-0.14747 0.05378,-0.0524 0.105432,-0.13179 0.155298,-0.23722 h 0.415317 c -0.08264,0.22333 -0.213357,0.40463 -0.391452,0.54461 -0.178451,0.13927 -0.384328,0.20944 -0.617632,0.20944 -0.288513,0 -0.495815,-0.0944 -0.621906,-0.28317 -0.125379,-0.18985 -0.153162,-0.44986 -0.08442,-0.78076 0.07409,-0.35726 0.225468,-0.63295 0.453429,-0.82636 0.198753,-0.16848 0.424221,-0.2529 0.676403,-0.2529 0.337667,0 0.560642,0.11327 0.669992,0.3391 z"
         style="clip-rule:evenodd;opacity:1;fill:#ffffff;fill-rule:nonzero;stroke-width:0.356189;stroke-linejoin:round;stroke-miterlimit:1.5" /><path
         id="path129"
         d="m 17.652476,127.18869 0.764026,-1.55441 h 0.435619 l -1.110954,2.04667 h -0.396083 l -0.252181,-2.04667 h 0.448442 z"
         style="clip-rule:evenodd;opacity:1;fill:#ffffff;fill-rule:nonzero;stroke-width:0.356189;stroke-linejoin:round;stroke-miterlimit:1.5" /><path
         id="path130"
         d="m 20.435382,126.18139 -0.05877,0.27925 h -0.253963 l -0.253607,1.22031 h -0.386466 l 0.253606,-1.22031 h -0.216919 l 0.05842,-0.27925 h 0.212645 l 0.01995,-0.0972 c 0.03419,-0.16207 0.08406,-0.27355 0.149955,-0.33482 0.07551,-0.0905 0.220482,-0.13606 0.43562,-0.13606 0.02458,0 0.04666,7.1e-4 0.06625,0.002 0.01959,0.001 0.04666,0.004 0.08121,0.006 l -0.06803,0.32271 c -0.02102,-0.003 -0.05699,-0.005 -0.107569,-0.006 -0.05093,-10e-4 -0.08905,0.01 -0.113981,0.0345 -0.02493,0.0246 -0.03989,0.0516 -0.04559,0.0812 -0.0064,0.0299 -0.01532,0.0723 -0.02743,0.12787 z"
         style="clip-rule:evenodd;opacity:1;fill:#ffffff;fill-rule:nonzero;stroke-width:0.356189;stroke-linejoin:round;stroke-miterlimit:1.5" /><path
         id="path131"
         d="m 21.342239,127.46759 c -0.0043,0.005 -0.01638,0.0185 -0.03562,0.0417 -0.01888,0.0232 -0.04025,0.0431 -0.06376,0.0609 -0.07266,0.0556 -0.139626,0.0933 -0.200891,0.11363 -0.06091,0.0203 -0.129653,0.0306 -0.206234,0.0306 -0.219412,0 -0.350846,-0.0801 -0.393232,-0.2415 -0.02386,-0.0887 -0.01745,-0.21977 0.01888,-0.39287 l 0.189492,-0.91256 h 0.397151 l -0.189136,0.91256 c -0.01817,0.0862 -0.02173,0.15066 -0.01104,0.19447 0.01923,0.0769 0.0805,0.11541 0.183794,0.11541 0.132502,0 0.234728,-0.0549 0.306678,-0.1642 0.03811,-0.0591 0.06732,-0.13749 0.08727,-0.23438 l 0.171327,-0.82386 h 0.393233 l -0.314515,1.51345 h -0.376849 z"
         style="clip-rule:evenodd;opacity:1;fill:#ffffff;fill-rule:nonzero;stroke-width:0.356189;stroke-linejoin:round;stroke-miterlimit:1.5" /><path
         id="path132"
         d="m 23.188368,126.76091 c 0.0171,-0.0798 0.01959,-0.14105 0.0068,-0.18344 -0.02173,-0.078 -0.08584,-0.11683 -0.193055,-0.11683 -0.13179,0 -0.234016,0.057 -0.306323,0.17062 -0.03847,0.0605 -0.06696,0.13749 -0.08584,0.23081 l -0.170259,0.81888 h -0.386465 l 0.314159,-1.51096 h 0.374711 l -0.04631,0.22084 c 0.0659,-0.0773 0.125023,-0.13357 0.177026,-0.16777 0.09225,-0.0613 0.200179,-0.0915 0.322352,-0.0915 0.153517,0 0.270347,0.0406 0.350846,0.12289 0.08014,0.0819 0.100801,0.21763 0.06162,0.40748 l -0.212289,1.01906 h -0.397507 z"
         style="clip-rule:evenodd;opacity:1;fill:#ffffff;fill-rule:nonzero;stroke-width:0.356189;stroke-linejoin:round;stroke-miterlimit:1.5" /><path
         id="path133"
         d="m 24.22844,127.20543 -0.09759,0.47552 h -0.381484 l 0.424934,-2.0399 h 0.381122 l -0.230454,1.10312 0.601959,-0.5699 h 0.480856 l -0.640072,0.57952 0.346928,0.92716 H 24.64625 l -0.220125,-0.64684 z"
         style="clip-rule:evenodd;opacity:1;fill:#ffffff;fill-rule:nonzero;stroke-width:0.356189;stroke-linejoin:round;stroke-miterlimit:1.5" /><path
         id="path134"
         d="m 7.443026,126.66688 h 6.622269"
         style="clip-rule:evenodd;opacity:1;fill:none;fill-rule:evenodd;stroke:#d08c59;stroke-width:0.227961px;stroke-linecap:round;stroke-linejoin:round;stroke-miterlimit:1.5" /><path
         id="path135"
         d="m 25.753642,126.66688 h 6.62227"
         style="clip-rule:evenodd;opacity:1;fill:none;fill-rule:evenodd;stroke:#d08c59;stroke-width:0.227961px;stroke-linecap:round;stroke-linejoin:round;stroke-miterlimit:1.5" /></g></g><rect
     style="clip-rule:evenodd;fill:#212121;fill-opacity:1;fill-rule:evenodd;stroke:#d08c59;stroke-width:0.35277778;stroke-linejoin:round;stroke-miterlimit:1.5;stroke-dasharray:none;stroke-opacity:1"
     id="rect1111"
     width="29.451672"
     height="7.9030147"
     x="4.9343691"
     y="12.771363"
     ry="3.8056121"
     rx="3.8056118" /><g
     aria-label="CLOCK"
     id="text1194"
     style="font-style:italic;font-size:2.82222px;font-family:Menlo;-inkscape-font-specification:'Menlo Italic';text-align:center;text-anchor:middle;fill:#ffffff;stroke-width:0.352777;stroke-linecap:round;paint-order:fill markers stroke"
     transform="translate(31.262157,-0.02004726)"><path
       d="m 3.5823326,122.51625 q -0.1157552,0.0565 -0.2342665,0.0841 -0.1171332,0.0289 -0.2425347,0.0289 -0.3169488,0 -0.4919596,-0.18328 -0.1736328,-0.18328 -0.1736328,-0.51401 0,-0.30317 0.096463,-0.60082 0.096463,-0.29766 0.2535591,-0.48645 0.14745,-0.17914 0.325217,-0.26458 0.1777669,-0.0854 0.4051432,-0.0854 0.1102431,0 0.2191081,0.0289 0.108865,0.0289 0.2122179,0.0841 l -0.0565,0.28525 q -0.088195,-0.0868 -0.1860352,-0.12953 -0.097841,-0.0427 -0.2080837,-0.0427 -0.1309137,0 -0.2425348,0.0565 -0.111621,0.0551 -0.2094618,0.1695 -0.1433159,0.16949 -0.2315104,0.43408 -0.086816,0.26458 -0.086816,0.53054 0,0.2384 0.107487,0.36518 0.107487,0.12678 0.3100586,0.12678 0.1171332,0 0.2411567,-0.0441 0.1254014,-0.0441 0.2466688,-0.12815 z"
       style="stroke-width:0.352778"
       id="path5129" /><path
       d="m 4.4890818,120.53188 h 0.2783637 l -0.3555339,1.82314 h 0.9935656 l -0.045475,0.23427 H 4.0880727 Z"
       style="stroke-width:0.352778"
       id="path5131" /><path
       d="m 6.371482,122.40325 q 0.1171332,0 0.216352,-0.0703 0.099219,-0.0703 0.1639865,-0.20119 0.1019748,-0.19982 0.1653646,-0.48369 0.06339,-0.28388 0.06339,-0.54571 0,-0.19568 -0.073036,-0.28801 -0.071658,-0.0937 -0.2232422,-0.0937 -0.1171332,0 -0.2149739,0.0703 -0.097841,0.0703 -0.1626085,0.20119 -0.1047309,0.20257 -0.1681207,0.48369 -0.06339,0.28112 -0.06339,0.54295 0,0.19706 0.071658,0.29077 0.073036,0.0937 0.2246202,0.0937 z m 0.8943468,-1.21956 q 0,0.15158 -0.031695,0.32935 -0.030317,0.17777 -0.089573,0.36518 -0.039963,0.12678 -0.086816,0.22738 -0.045475,0.10059 -0.099219,0.1819 -0.1212673,0.17501 -0.2714735,0.25907 -0.1502061,0.0827 -0.3500217,0.0827 -0.2769857,0 -0.4106554,-0.1695 -0.1336697,-0.1695 -0.1336697,-0.52228 0,-0.15296 0.028939,-0.32797 0.030317,-0.17639 0.089573,-0.3638 0.039963,-0.12678 0.085438,-0.22738 0.046853,-0.10059 0.1005968,-0.1819 0.1212673,-0.17501 0.2714735,-0.25769 0.1502062,-0.0841 0.3500217,-0.0841 0.2783637,0 0.4120334,0.1695 0.1350478,0.16812 0.1350478,0.51952 z"
       style="stroke-width:0.352778"
       id="path5133" /><path
       d="m 8.6796961,122.51625 q -0.1157552,0.0565 -0.2342665,0.0841 -0.1171332,0.0289 -0.2425347,0.0289 -0.3169488,0 -0.4919597,-0.18328 -0.1736328,-0.18328 -0.1736328,-0.51401 0,-0.30317 0.096463,-0.60082 0.096463,-0.29766 0.253559,-0.48645 0.1474501,-0.17914 0.325217,-0.26458 0.177767,-0.0854 0.4051433,-0.0854 0.110243,0 0.219108,0.0289 0.1088651,0.0289 0.2122179,0.0841 l -0.0565,0.28525 q -0.088195,-0.0868 -0.1860352,-0.12953 -0.097841,-0.0427 -0.2080838,-0.0427 -0.1309136,0 -0.2425347,0.0565 -0.1116211,0.0551 -0.2094618,0.1695 -0.143316,0.16949 -0.2315104,0.43408 -0.086816,0.26458 -0.086816,0.53054 0,0.2384 0.107487,0.36518 0.1074869,0.12678 0.3100586,0.12678 0.1171332,0 0.2411566,-0.0441 0.1254015,-0.0441 0.2466689,-0.12815 z"
       style="stroke-width:0.352778"
       id="path5135" /><path
       d="m 9.4679338,120.53188 h 0.2783638 l -0.1750109,0.89159 1.0225043,-0.89159 h 0.350022 l -0.9687611,0.853 0.5898001,1.20441 h -0.30179 l -0.4960939,-1.02113 -0.2659613,0.23151 -0.1543403,0.78962 H 9.0669247 Z"
       style="stroke-width:0.352778"
       id="path5137" /></g><g
     aria-label="RESET"
     id="text1198"
     style="font-style:italic;font-size:2.82222px;font-family:Menlo;-inkscape-font-specification:'Menlo Italic';text-align:center;text-anchor:middle;fill:#ffffff;stroke-width:0.352777;stroke-linecap:round;paint-order:fill markers stroke"
     transform="translate(4.4404762,-0.02006226)"><path
       d="m 15.7946,121.61777 q 0.09922,0.0193 0.158475,0.0923 0.06063,0.073 0.135048,0.31695 l 0.166742,0.56224 H 15.97788 l -0.146073,-0.51952 q -0.06063,-0.21498 -0.136425,-0.2825 -0.07441,-0.0675 -0.225999,-0.0675 H 15.2048 l -0.169499,0.86955 H 14.75556 l 0.398253,-2.05741 h 0.573264 q 0.285253,0 0.440972,0.12402 0.157096,0.12264 0.157096,0.34726 0,0.25219 -0.143316,0.41755 -0.141938,0.16536 -0.387229,0.19706 z m -0.403765,-0.85714 -0.14056,0.73036 h 0.301791 q 0.22462,0 0.35829,-0.11713 0.135047,-0.11851 0.135047,-0.3142 0,-0.15434 -0.08682,-0.22599 -0.08682,-0.073 -0.27423,-0.073 z"
       style="stroke-width:0.352778"
       id="path5140" /><path
       d="m 16.912189,120.53188 h 1.219564 l -0.04547,0.23426 H 17.1437 l -0.118511,0.6091 h 0.899859 l -0.0441,0.23426 h -0.901237 l -0.143316,0.74552 h 0.967383 l -0.04547,0.23427 H 16.51118 Z"
       style="stroke-width:0.352778"
       id="path5142" /><path
       d="m 19.717875,120.60216 -0.05374,0.28249 q -0.111621,-0.0813 -0.231511,-0.12264 -0.119889,-0.0413 -0.248047,-0.0413 -0.227376,0 -0.370692,0.113 -0.143316,0.113 -0.143316,0.28801 0,0.0978 0.06752,0.15847 0.06752,0.0606 0.245291,0.11576 l 0.166743,0.0537 q 0.22462,0.0689 0.327973,0.18466 0.10473,0.11437 0.10473,0.29214 0,0.32384 -0.228754,0.51401 -0.228754,0.18879 -0.624251,0.18879 -0.143316,0 -0.282498,-0.0317 -0.137804,-0.0303 -0.275608,-0.0923 l 0.0565,-0.28801 q 0.135048,0.0951 0.272852,0.14056 0.139181,0.0455 0.293522,0.0455 0.227376,0 0.369314,-0.12127 0.141938,-0.12126 0.141938,-0.3073 0,-0.113 -0.06063,-0.17501 -0.06063,-0.062 -0.243913,-0.11851 l -0.139181,-0.0455 q -0.25356,-0.0799 -0.355534,-0.18052 -0.100597,-0.10197 -0.100597,-0.26872 0,-0.30454 0.227376,-0.49747 0.227376,-0.1943 0.593935,-0.1943 0.110243,0 0.234266,0.0276 0.125402,0.0276 0.256315,0.0799 z"
       style="stroke-width:0.352778"
       id="path5144" /><path
       d="m 20.310432,120.53188 h 1.219564 l -0.04548,0.23426 h -0.942578 l -0.118511,0.6091 h 0.899859 l -0.0441,0.23426 h -0.901237 l -0.143316,0.74552 h 0.967383 l -0.04548,0.23427 h -1.247124 z"
       style="stroke-width:0.352778"
       id="path5146" /><path
       d="m 21.801469,120.53188 h 1.570964 l -0.04548,0.23426 h -0.6463 l -0.352777,1.82315 h -0.28112 l 0.355534,-1.82315 h -0.6463 z"
       style="stroke-width:0.352778"
       id="path5148" /></g><path
     d="m 21.026355,32.406624 h 10.09504"
     style="clip-rule:evenodd;display:inline;fill:none;fill-rule:evenodd;stroke:#c3925d;stroke-width:0.338361px;stroke-linecap:round;stroke-linejoin:round;stroke-miterlimit:1.5"
     id="path7549" /><path
     d="m 21.026355,42.940139 h 10.09504"
     style="clip-rule:evenodd;display:inline;fill:none;fill-rule:evenodd;stroke:#c3925d;stroke-width:0.338361px;stroke-linecap:round;stroke-linejoin:round;stroke-miterlimit:1.5"
     id="path7553" /><path
     d="m 21.026355,52.95018 h 10.09504"
     style="clip-rule:evenodd;display:inline;fill:none;fill-rule:evenodd;stroke:#c3925d;stroke-width:0.338361px;stroke-linecap:round;stroke-linejoin:round;stroke-miterlimit:1.5"
     id="path7557" /><path
     d="m 21.026355,63.31918 h 10.09504"
     style="clip-rule:evenodd;display:inline;fill:none;fill-rule:evenodd;stroke:#c3925d;stroke-width:0.338361px;stroke-linecap:round;stroke-linejoin:round;stroke-miterlimit:1.5"
     id="path7561" /><path
     d="m 21.026355,73.576328 h 10.09504"
     style="clip-rule:evenodd;display:inline;fill:none;fill-rule:evenodd;stroke:#c3925d;stroke-width:0.338361px;stroke-linecap:round;stroke-linejoin:round;stroke-miterlimit:1.5"
     id="path7565" /><path
     d="m 21.026355,83.92018 h 10.09504"
     style="clip-rule:evenodd;display:inline;fill:none;fill-rule:evenodd;stroke:#c3925d;stroke-width:0.338361px;stroke-linecap:round;stroke-linejoin:round;stroke-miterlimit:1.5"
     id="path7569" /><path
     d="m 44.903405,32.406624 h 10.09504"
     style="clip-rule:evenodd;display:inline;fill:none;fill-rule:evenodd;stroke:#c3925d;stroke-width:0.338361px;stroke-linecap:round;stroke-linejoin:round;stroke-miterlimit:1.5"
     id="path7573" /><path
     d="m 44.903405,42.940139 h 10.09504"
     style="clip-rule:evenodd;display:inline;fill:none;fill-rule:evenodd;stroke:#c3925d;stroke-width:0.338361px;stroke-linecap:round;stroke-linejoin:round;stroke-miterlimit:1.5"
     id="path7577" /><path
     d="m 44.903405,52.95018 h 10.09504"
     style="clip-rule:evenodd;display:inline;fill:none;fill-rule:evenodd;stroke:#c3925d;stroke-width:0.338361px;stroke-linecap:round;stroke-linejoin:round;stroke-miterlimit:1.5"
     id="path7581" /><path
     d="m 44.903405,63.31918 h 10.09504"
     style="clip-rule:evenodd;display:inline;fill:none;fill-rule:evenodd;stroke:#c3925d;stroke-width:0.338361px;stroke-linecap:round;stroke-linejoin:round;stroke-miterlimit:1.5"
     id="path7585" /><path
     d="m 44.903405,73.576328 h 10.09504"
     style="clip-rule:evenodd;display:inline;fill:none;fill-rule:evenodd;stroke:#c3925d;stroke-width:0.338361px;stroke-linecap:round;stroke-linejoin:round;stroke-miterlimit:1.5"
     id="path7589" /><path
     d="m 44.903405,83.92018 h 10.09504"
     style="clip-rule:evenodd;display:inline;fill:none;fill-rule:evenodd;stroke:#c3925d;stroke-width:0.338361px;stroke-linecap:round;stroke-linejoin:round;stroke-miterlimit:1.5"
     id="path7593" /><g
     aria-label="–"
     id="text7925"
     style="font-style:italic;font-size:4.23333px;font-family:Menlo-Italic, Menlo, monospace;clip-rule:evenodd;display:inline;fill:#ffffff;fill-rule:evenodd;stroke-width:0.0846666;stroke-linecap:round;stroke-linejoin:round;stroke-miterlimit:1.5"
     transform="translate(-94.117275,-16.712538)"><path
       d="m 113.91962,44.495181 h 2.54868 l -0.0579,0.291455 h -2.54868 z"
       id="path14495" /></g><g
     aria-label="–"
     id="text7931"
     style="font-style:italic;font-size:4.23333px;font-family:Menlo-Italic, Menlo, monospace;clip-rule:evenodd;display:inline;fill:#ffffff;fill-rule:evenodd;stroke-width:0.0846666;stroke-linecap:round;stroke-linejoin:round;stroke-miterlimit:1.5"
     transform="translate(-94.117275,-16.712538)"><path
       d="m 141.73047,44.495181 h 2.54868 l -0.0579,0.291455 h -2.54867 z"
       id="path14938" /></g><g
     aria-label="+"
     id="text7937"
     style="font-style:italic;font-size:4.23333px;font-family:Menlo-Italic, Menlo, monospace;clip-rule:evenodd;display:inline;fill:#ffffff;fill-rule:evenodd;stroke-width:0.0846666;stroke-linecap:round;stroke-linejoin:round;stroke-miterlimit:1.5"
     transform="translate(-94.117275,-16.712538)"><path
       d="m 122.06187,43.409977 -0.17777,0.915705 h 0.91984 l -0.0682,0.349333 h -0.91984 l -0.17777,0.915705 h -0.34726 l 0.17776,-0.915705 h -0.91777 l 0.0682,-0.349333 h 0.91778 l 0.17776,-0.915705 z"
       id="path14498" /></g><g
     aria-label="+"
     id="text7949"
     style="font-style:italic;font-size:4.23333px;font-family:Menlo-Italic, Menlo, monospace;clip-rule:evenodd;display:inline;fill:#ffffff;fill-rule:evenodd;stroke-width:0.0846666;stroke-linecap:round;stroke-linejoin:round;stroke-miterlimit:1.5"
     transform="translate(-94.117275,-16.712538)"><path
       d="m 150.88908,43.409977 -0.17776,0.915705 h 0.91984 l -0.0682,0.349333 h -0.91984 l -0.17776,0.915705 h -0.34727 l 0.17777,-0.915705 h -0.91777 l 0.0682,-0.349333 h 0.91777 l 0.17777,-0.915705 z"
       id="path14928" /></g><path
     d="m 21.026355,94.21118 h 10.09504"
     style="clip-rule:evenodd;display:inline;fill:none;fill-rule:evenodd;stroke:#c3925d;stroke-width:0.338361px;stroke-linecap:round;stroke-linejoin:round;stroke-miterlimit:1.5"
     id="path4314" /><path
     d="m 44.903405,94.21118 h 10.09504"
     style="clip-rule:evenodd;display:inline;fill:none;fill-rule:evenodd;stroke:#c3925d;stroke-width:0.338361px;stroke-linecap:round;stroke-linejoin:round;stroke-miterlimit:1.5"
     id="path4316" /><g
     aria-label="HAMMER"
     id="text23145"
     style="font-style:italic;font-size:5.64444px;font-family:Menlo;-inkscape-font-specification:'Menlo Italic';text-align:center;text-anchor:middle;fill:#ffffff;stroke-width:0.211667;stroke-linecap:square;paint-order:fill markers stroke"><path
       d="m 28.809272,2.5476814 h 0.556727 l -0.325217,1.6867175 h 1.524109 l 0.325217,-1.6867175 h 0.559483 l -0.802017,4.114819 H 30.090847 L 30.473941,4.7029316 H 28.94432 l -0.377582,1.9595688 h -0.559484 z"
       id="path31741" /><path
       d="m 33.453257,3.0107019 -1.003211,2.1332015 h 1.185112 z M 33.188674,2.5476814 h 0.677994 l 0.457509,4.114819 h -0.553971 l -0.09646,-1.0721129 h -1.433158 l -0.507118,1.0721129 h -0.598068 z"
       id="path31743" /><path
       d="m 35.456923,2.5476814 h 0.741384 l 0.303168,2.0835922 1.141015,-2.0835922 h 0.74414 l -0.802017,4.114819 h -0.51263 L 37.78305,3.0051898 36.586914,5.1962689 H 36.198307 L 35.881359,3.0051898 35.175804,6.6625004 h -0.51263 z"
       id="path31745" /><path
       d="m 38.855163,2.5476814 h 0.741384 l 0.303169,2.0835922 1.141014,-2.0835922 h 0.74414 l -0.802017,4.114819 h -0.51263 L 41.18129,3.0051898 39.985154,5.1962689 H 39.596547 L 39.279599,3.0051898 38.574044,6.6625004 h -0.51263 z"
       id="path31747" /><path
       d="m 42.570351,2.5476814 h 2.439126 l -0.09095,0.4685327 h -1.885154 l -0.237023,1.2181848 h 1.799717 l -0.08819,0.4685327 h -1.802472 l -0.286632,1.4910361 h 1.934764 l -0.09095,0.4685327 h -2.494248 z"
       id="path31749" /><path
       d="m 47.131654,4.719468 q 0.198437,0.038585 0.316948,0.184657 0.121267,0.1460719 0.270095,0.6338971 l 0.333485,1.1244783 h -0.553971 l -0.292143,-1.03904 Q 47.0848,5.1935128 46.933216,5.0584651 46.784388,4.9234175 46.48122,4.9234175 h -0.529166 l -0.338997,1.7390829 h -0.559483 l 0.796505,-4.114819 h 1.146527 q 0.570507,0 0.881944,0.2480467 0.314192,0.2452906 0.314192,0.6945308 0,0.5043616 -0.286632,0.8350905 -0.283875,0.3307289 -0.774456,0.3941186 z m -0.80753,-1.7142782 -0.28112,1.4607194 h 0.60358 q 0.449241,0 0.71658,-0.2342664 0.270095,-0.2370223 0.270095,-0.6283849 0,-0.3086803 -0.173633,-0.4519962 -0.173632,-0.1460719 -0.548458,-0.1460719 z"
       id="path31751" /></g><path
     d="m 21.026355,104.41518 h 10.09504"
     style="clip-rule:evenodd;display:inline;fill:none;fill-rule:evenodd;stroke:#c3925d;stroke-width:0.338361px;stroke-linecap:round;stroke-linejoin:round;stroke-miterlimit:1.5"
     id="path23566" /><path
     d="m 44.903405,104.41518 h 10.09504"
     style="clip-rule:evenodd;display:inline;fill:none;fill-rule:evenodd;stroke:#c3925d;stroke-width:0.338361px;stroke-linecap:round;stroke-linejoin:round;stroke-miterlimit:1.5"
     id="path23568" /><g
     aria-label="POLY"
     id="text23572"
     style="font-style:italic;font-size:2.82222px;font-family:Menlo;-inkscape-font-specification:'Menlo Italic';text-align:center;text-anchor:middle;fill:#666666;stroke-width:0.211667;stroke-linecap:square;paint-order:fill markers stroke"
     transform="translate(-1.2583883,-0.02751726)"><path
       d="m 64.55833,120.76811 -0.150206,0.77308 h 0.322461 q 0.227376,0 0.362424,-0.13092 0.136425,-0.13229 0.136425,-0.3514 0,-0.14882 -0.08544,-0.2191 -0.08544,-0.0717 -0.264583,-0.0717 z m -0.234266,-0.22876 H 64.9304 q 0.283876,0 0.432704,0.12678 0.148828,0.12678 0.148828,0.36656 0,0.34313 -0.220486,0.54019 -0.220486,0.19706 -0.606336,0.19706 h -0.321083 l -0.16123,0.82682 h -0.279742 z"
       style="fill:#ffffff"
       id="path29407" /><path
       d="m 66.24367,122.41073 q 0.117133,0 0.216351,-0.0703 0.09922,-0.0703 0.163987,-0.20119 0.101975,-0.19982 0.165364,-0.4837 0.06339,-0.28387 0.06339,-0.5457 0,-0.19568 -0.07304,-0.28801 -0.07166,-0.0937 -0.223242,-0.0937 -0.117133,0 -0.214974,0.0703 -0.09784,0.0703 -0.162608,0.20119 -0.104731,0.20257 -0.168121,0.48369 -0.06339,0.28112 -0.06339,0.54295 0,0.19706 0.07166,0.29076 0.07304,0.0937 0.224621,0.0937 z m 0.894346,-1.21956 q 0,0.15158 -0.03169,0.32935 -0.03032,0.17776 -0.08957,0.36518 -0.03996,0.12678 -0.08682,0.22737 -0.04547,0.1006 -0.09922,0.1819 -0.121267,0.17501 -0.271473,0.25907 -0.150206,0.0827 -0.350021,0.0827 -0.276986,0 -0.410655,-0.1695 -0.13367,-0.1695 -0.13367,-0.52228 0,-0.15296 0.02894,-0.32797 0.03032,-0.17639 0.08957,-0.3638 0.03996,-0.12678 0.08544,-0.22738 0.04685,-0.1006 0.100597,-0.1819 0.121267,-0.17501 0.271473,-0.25769 0.150207,-0.0841 0.350022,-0.0841 0.278363,0 0.412033,0.1695 0.135048,0.16812 0.135048,0.51952 z"
       style="fill:#ffffff"
       id="path29409" /><path
       d="m 67.75951,120.53935 h 0.278364 l -0.355534,1.82315 h 0.993565 l -0.04547,0.23426 h -1.271928 z"
       style="fill:#ffffff"
       id="path29411" /><path
       d="m 69.218852,120.53935 h 0.278363 l 0.325217,0.89711 0.684885,-0.89711 h 0.300412 l -0.875054,1.13413 -0.177767,0.92328 h -0.285253 l 0.180523,-0.92328 z"
       style="fill:#ffffff"
       id="path29413" /></g><g
     aria-label="1"
     id="text23576"
     style="font-style:italic;font-size:2.82222px;font-family:Menlo;-inkscape-font-specification:'Menlo Italic';text-align:center;text-anchor:middle;fill:#666666;stroke-width:0.211667;stroke-linecap:square;paint-order:fill markers stroke"
     transform="translate(-0.52916667,-2.6458334)"><path
       d="m 70.955204,35.018267 h 0.431326 l 0.304546,-1.572341 -0.485069,0.104731 0.04823,-0.253559 0.485069,-0.101975 h 0.279742 l -0.355534,1.823144 h 0.425814 l -0.04548,0.234266 h -1.134125 z"
       style="fill:#ffffff"
       id="path29437" /></g><g
     aria-label="2"
     id="text23580"
     style="font-style:italic;font-size:2.82222px;font-family:Menlo;-inkscape-font-specification:'Menlo Italic';text-align:center;text-anchor:middle;fill:#666666;stroke-width:0.211667;stroke-linecap:square;paint-order:fill markers stroke"
     transform="translate(-0.52916667,-2.6458334)"><path
       d="m 71.109544,45.322859 h 0.942578 l -0.0441,0.234266 h -1.259526 l 0.04548,-0.234266 0.428569,-0.377582 0.05374,-0.04823 q 0.740006,-0.649055 0.740006,-0.928797 0,-0.128157 -0.08819,-0.201193 -0.08819,-0.07304 -0.24529,-0.07304 -0.12678,0 -0.272852,0.04685 -0.146071,0.04547 -0.319704,0.139182 l 0.0565,-0.28112 q 0.154341,-0.06752 0.297656,-0.101974 0.144694,-0.03445 0.278364,-0.03445 0.254937,0 0.412033,0.133669 0.157096,0.13367 0.157096,0.347266 0,0.132291 -0.04961,0.25218 -0.04823,0.118512 -0.16123,0.260449 -0.04548,0.05788 -0.163987,0.166743 -0.118511,0.108865 -0.366558,0.322461 z"
       style="fill:#ffffff"
       id="path29434" /></g><g
     aria-label="3"
     id="text23584"
     style="font-style:italic;font-size:2.82222px;font-family:Menlo;-inkscape-font-specification:'Menlo Italic';text-align:center;text-anchor:middle;fill:#666666;stroke-width:0.211667;stroke-linecap:square;paint-order:fill markers stroke"
     transform="translate(-0.52916667,-2.6458334)"><path
       d="m 71.790295,55.483791 q 0.157096,0.02756 0.24529,0.14056 0.08819,0.112999 0.08819,0.286632 0,0.32246 -0.231511,0.518141 -0.230132,0.195682 -0.615982,0.195682 -0.148828,0 -0.290766,-0.02618 -0.14056,-0.02481 -0.270095,-0.07579 l 0.05237,-0.276985 q 0.125402,0.07166 0.256315,0.108864 0.130914,0.03583 0.265961,0.03583 0.250803,0 0.405143,-0.128157 0.15434,-0.129536 0.15434,-0.334863 0,-0.16123 -0.09922,-0.243913 -0.09784,-0.08406 -0.28801,-0.08406 h -0.21084 l 0.0441,-0.228754 h 0.212218 q 0.21773,0 0.345887,-0.103353 0.128158,-0.103353 0.128158,-0.274229 0,-0.137804 -0.08544,-0.202572 -0.08406,-0.06614 -0.261827,-0.06614 -0.112999,0 -0.246669,0.02756 -0.13367,0.02756 -0.289388,0.08268 l 0.05099,-0.256314 q 0.169499,-0.04548 0.303169,-0.06615 0.133669,-0.02205 0.249424,-0.02205 0.259071,0 0.407899,0.121267 0.148828,0.121268 0.148828,0.330729 0,0.21084 -0.124023,0.354156 -0.122645,0.141938 -0.344509,0.187413 z"
       style="fill:#ffffff"
       id="path29431" /></g><g
     aria-label="4"
     id="text23588"
     style="font-style:italic;font-size:2.82222px;font-family:Menlo;-inkscape-font-specification:'Menlo Italic';text-align:center;text-anchor:middle;fill:#666666;stroke-width:0.211667;stroke-linecap:square;paint-order:fill markers stroke"
     transform="translate(-0.52916667,-2.6458334)"><path
       d="m 71.900538,65.122791 -0.861273,1.050064 h 0.651811 z m 0.0055,-0.290766 h 0.321083 l -0.261828,1.34083 h 0.272852 l -0.04134,0.225999 h -0.27423 l -0.09646,0.490581 h -0.272852 l 0.09508,-0.490581 h -0.873676 l 0.04961,-0.263206 z"
       style="fill:#ffffff"
       id="path29428" /></g><g
     aria-label="5"
     id="text23592"
     style="font-style:italic;font-size:2.82222px;font-family:Menlo;-inkscape-font-specification:'Menlo Italic';text-align:center;text-anchor:middle;fill:#666666;stroke-width:0.211667;stroke-linecap:square;paint-order:fill markers stroke"
     transform="translate(-0.52916667,-2.6458334)"><path
       d="m 71.2253,74.413484 h 1.041796 l -0.04548,0.234267 h -0.786859 l -0.09922,0.505739 q 0.06477,-0.02205 0.125402,-0.03169 0.06201,-0.01102 0.122645,-0.01102 0.259071,0 0.417545,0.157096 0.158475,0.155719 0.158475,0.410655 0,0.170877 -0.07304,0.332107 -0.07166,0.161231 -0.20395,0.279742 -0.121267,0.110243 -0.278363,0.165364 -0.155718,0.05512 -0.352778,0.05512 -0.148828,0 -0.278363,-0.02343 -0.128158,-0.02205 -0.227376,-0.06477 l 0.0565,-0.282498 q 0.115755,0.07028 0.237023,0.104731 0.121267,0.03445 0.250802,0.03445 0.256315,0 0.424436,-0.161231 0.16812,-0.16123 0.16812,-0.401008 0,-0.176389 -0.111621,-0.276986 -0.110243,-0.100597 -0.305924,-0.100597 -0.108865,0 -0.223242,0.02756 -0.112999,0.02756 -0.216352,0.07993 z"
       style="fill:#ffffff"
       id="path29425" /></g><g
     aria-label="6"
     id="text23596"
     style="font-style:italic;font-size:2.82222px;font-family:Menlo;-inkscape-font-specification:'Menlo Italic';text-align:center;text-anchor:middle;fill:#666666;stroke-width:0.211667;stroke-linecap:square;paint-order:fill markers stroke"
     transform="translate(-0.52916667,-2.6458334)"><path
       d="m 71.925342,85.956936 q 0,-0.155718 -0.07993,-0.239779 -0.07993,-0.08406 -0.227376,-0.08406 -0.201193,0 -0.337619,0.173633 -0.136426,0.173632 -0.136426,0.435459 0,0.166743 0.08406,0.261827 0.08406,0.09371 0.23151,0.09371 0.198437,0 0.332107,-0.184657 0.133669,-0.184657 0.133669,-0.45613 z m 0.369314,-1.19338 -0.04961,0.256314 q -0.07993,-0.05099 -0.173633,-0.07717 -0.09371,-0.02756 -0.197059,-0.02756 -0.265961,0 -0.439594,0.198437 -0.172254,0.197059 -0.248047,0.587044 0.09371,-0.14056 0.221864,-0.212218 0.129536,-0.07304 0.285254,-0.07304 0.245291,0 0.377582,0.137804 0.13367,0.136426 0.13367,0.389984 0,0.163987 -0.05512,0.327973 -0.05512,0.163987 -0.148828,0.278364 -0.107486,0.133669 -0.24529,0.199815 -0.136426,0.06615 -0.304546,0.06615 -0.279742,0 -0.432704,-0.16123 -0.151584,-0.161231 -0.151584,-0.457509 0,-0.228754 0.05374,-0.475423 0.05374,-0.246668 0.14745,-0.447862 0.135048,-0.296278 0.34451,-0.443728 0.210839,-0.148828 0.496093,-0.148828 0.103353,0 0.201193,0.02205 0.09784,0.02067 0.184657,0.06063 z"
       style="fill:#ffffff"
       id="path29422" /></g><g
     aria-label="7"
     id="text23600"
     style="font-style:italic;font-size:2.82222px;font-family:Menlo;-inkscape-font-specification:'Menlo Italic';text-align:center;text-anchor:middle;fill:#666666;stroke-width:0.211667;stroke-linecap:square;paint-order:fill markers stroke"
     transform="translate(-0.52916667,-2.6458334)"><path
       d="m 71.120569,95.745798 h 1.289842 l -0.02205,0.129535 -1.10932,1.927874 h -0.299034 l 1.072113,-1.823143 h -0.97565 z"
       style="fill:#ffffff"
       id="path29419" /></g><g
     aria-label="8"
     id="text23604"
     style="font-style:italic;font-size:2.82222px;font-family:Menlo;-inkscape-font-specification:'Menlo Italic';text-align:center;text-anchor:middle;fill:#666666;stroke-width:0.211667;stroke-linecap:square;paint-order:fill markers stroke"
     transform="translate(-0.52916667,-2.6458334)"><path
       d="m 71.871599,107.47253 q 0,-0.15985 -0.09095,-0.2508 -0.09095,-0.0909 -0.253558,-0.0909 -0.195682,0 -0.322461,0.13642 -0.125401,0.13505 -0.125401,0.34727 0,0.14469 0.09233,0.23151 0.09233,0.0868 0.246669,0.0868 0.203949,0 0.327973,-0.12678 0.125401,-0.12678 0.125401,-0.33348 z m -0.538813,-0.45751 q -0.14745,-0.0524 -0.221864,-0.15158 -0.07441,-0.1006 -0.07441,-0.24529 0,-0.25081 0.20395,-0.4272 0.203949,-0.17776 0.498849,-0.17776 0.245291,0 0.398253,0.1254 0.15434,0.1254 0.15434,0.32384 0,0.19843 -0.133669,0.35553 -0.13367,0.15572 -0.354156,0.21222 0.173633,0.0413 0.261827,0.15572 0.08819,0.11437 0.08819,0.29765 0,0.28801 -0.209462,0.4768 -0.209462,0.18742 -0.536057,0.18742 -0.285253,0 -0.44924,-0.14056 -0.162608,-0.14056 -0.162608,-0.38723 0,-0.22876 0.143316,-0.39136 0.144694,-0.16261 0.392741,-0.2136 z m 0.381717,-0.78686 q -0.175011,0 -0.28801,0.11162 -0.112999,0.11024 -0.112999,0.28112 0,0.13643 0.07993,0.21498 0.0813,0.0785 0.221864,0.0785 0.169499,0 0.285254,-0.11989 0.115755,-0.11989 0.115755,-0.29214 0,-0.1254 -0.08268,-0.19982 -0.08268,-0.0744 -0.219108,-0.0744 z"
       style="fill:#ffffff"
       id="path29416" /></g><g
     aria-label="RATE"
     id="text23621"
     style="font-style:italic;font-size:2.82223px;font-family:Menlo;-inkscape-font-specification:'Menlo Italic';text-align:center;text-anchor:middle;fill:#ffffff;stroke-width:0.211667;stroke-linecap:square;paint-order:fill markers stroke"
     transform="translate(0,-1.5875)"><path
       d="m 53.404178,22.181795 q 0.09922,0.01929 0.158474,0.09233 0.06063,0.07304 0.135049,0.316949 l 0.166743,0.562242 h -0.276987 l -0.146072,-0.519522 q -0.06063,-0.214975 -0.136426,-0.282499 -0.07441,-0.06752 -0.225999,-0.06752 h -0.264584 l -0.1695,0.869545 h -0.279742 l 0.398254,-2.057417 h 0.573266 q 0.285254,0 0.440973,0.124024 0.157097,0.122645 0.157097,0.347266 0,0.252182 -0.143317,0.417547 -0.141938,0.165365 -0.387229,0.19706 z m -0.403767,-0.857142 -0.14056,0.730362 h 0.301791 q 0.224621,0 0.358291,-0.117133 0.135048,-0.118512 0.135048,-0.314194 0,-0.154341 -0.08682,-0.225999 -0.08682,-0.07304 -0.274231,-0.07304 z"
       id="path29350" /><path
       d="m 55.060584,21.327409 -0.501607,1.066604 h 0.592558 z m -0.132292,-0.231511 h 0.338998 l 0.228755,2.057417 h -0.276986 l -0.04823,-0.536059 h -0.716582 l -0.25356,0.536059 h -0.299035 z"
       id="path29352" /><path
       d="m 56.012811,21.095898 h 1.570968 l -0.04548,0.234267 h -0.646302 l -0.352779,1.82315 h -0.28112 l 0.355535,-1.82315 h -0.646302 z"
       id="path29354" /><path
       d="m 57.920022,21.095898 h 1.219567 l -0.04548,0.234267 h -0.94258 l -0.118512,0.609095 h 0.899862 l -0.0441,0.234267 H 57.98754 l -0.143317,0.74552 h 0.967386 l -0.04548,0.234268 h -1.247128 z"
       id="path29356" /></g><g
     aria-label="ON/OFF"
     id="text24720"
     style="font-style:italic;font-size:2.82223px;font-family:Menlo;-inkscape-font-specification:'Menlo Italic';text-align:center;text-anchor:middle;fill:#ffffff;stroke-width:0.211667;stroke-linecap:square;paint-order:fill markers stroke"
     transform="translate(1.0583333,16.076444)"><path
       d="m 3.9103853,106.43598 q 0.1171335,0 0.2163526,-0.0703 0.099219,-0.0703 0.163987,-0.20119 0.1019751,-0.19982 0.165365,-0.4837 0.06339,-0.28387 0.06339,-0.5457 0,-0.19568 -0.073036,-0.28801 -0.071658,-0.0937 -0.2232428,-0.0937 -0.1171336,0 -0.2149745,0.0703 -0.097841,0.0703 -0.162609,0.2012 -0.1047312,0.20257 -0.1681211,0.48369 -0.06339,0.28112 -0.06339,0.54295 0,0.19706 0.071658,0.29076 0.073036,0.0937 0.2246208,0.0937 z m 0.8943493,-1.21957 q 0,0.15159 -0.031695,0.32936 -0.030317,0.17776 -0.089573,0.36518 -0.039963,0.12678 -0.086817,0.22737 -0.045475,0.1006 -0.099219,0.18191 -0.1212677,0.17501 -0.2714743,0.25907 -0.1502066,0.0827 -0.3500227,0.0827 -0.2769864,0 -0.4106565,-0.1695 -0.1336701,-0.1695 -0.1336701,-0.52228 0,-0.15296 0.028939,-0.32797 0.030317,-0.17639 0.089573,-0.3638 0.039963,-0.12678 0.085439,-0.22738 0.046854,-0.1006 0.1005971,-0.1819 0.1212677,-0.17501 0.2714743,-0.2577 0.1502066,-0.0841 0.3500227,-0.0841 0.2783645,0 0.4120345,0.1695 0.1350482,0.16812 0.1350482,0.51952 z"
       id="path29383" /><path
       d="m 5.310476,104.5646 h 0.3527788 l 0.3638031,1.69361 0.329352,-1.69361 h 0.2687182 l -0.4010102,2.05742 H 5.8713391 L 5.507536,104.9284 5.176806,106.62202 H 4.9094658 Z"
       id="path29385" /><path
       d="m 6.6389086,106.88384 1.1740918,-2.31924 h 0.2632061 l -1.1768479,2.31924 z"
       id="path29387" /><path
       d="m 9.0077631,106.43598 q 0.1171335,0 0.2163526,-0.0703 0.099219,-0.0703 0.163987,-0.20119 0.1019751,-0.19982 0.165365,-0.4837 0.06339,-0.28387 0.06339,-0.5457 0,-0.19568 -0.073036,-0.28801 -0.071658,-0.0937 -0.2232428,-0.0937 -0.1171336,0 -0.2149746,0.0703 -0.097841,0.0703 -0.1626089,0.2012 -0.1047312,0.20257 -0.1681212,0.48369 -0.06339,0.28112 -0.06339,0.54295 0,0.19706 0.071658,0.29076 0.073036,0.0937 0.2246209,0.0937 z m 0.8943492,-1.21957 q 0,0.15159 -0.031695,0.32936 -0.030317,0.17776 -0.089573,0.36518 -0.039963,0.12678 -0.086817,0.22737 -0.045475,0.1006 -0.099219,0.18191 -0.1212677,0.17501 -0.2714743,0.25907 -0.1502066,0.0827 -0.3500227,0.0827 -0.2769865,0 -0.4106565,-0.1695 -0.1336701,-0.1695 -0.1336701,-0.52228 0,-0.15296 0.028939,-0.32797 0.030317,-0.17639 0.089573,-0.3638 0.039963,-0.12678 0.085439,-0.22738 0.046853,-0.1006 0.1005971,-0.1819 0.1212677,-0.17501 0.2714743,-0.2577 0.1502065,-0.0841 0.3500226,-0.0841 0.2783645,0 0.4120346,0.1695 0.1350481,0.16812 0.1350481,0.51952 z"
       id="path29389" /><path
       d="m 10.542902,104.5646 h 1.211299 l -0.04548,0.23427 h -0.931556 l -0.118512,0.60634 h 0.843362 l -0.0441,0.23426 h -0.84474 l -0.191548,0.98255 h -0.279742 z"
       id="path29391" /><path
       d="m 12.242028,104.5646 h 1.211299 l -0.04548,0.23427 h -0.931556 l -0.118512,0.60634 h 0.843362 l -0.0441,0.23426 h -0.844739 l -0.191548,0.98255 h -0.279743 z"
       id="path29393" /></g><path
     d="m 60.102252,20.823377 h 6.94649"
     style="clip-rule:evenodd;display:inline;fill:none;fill-rule:evenodd;stroke:#c3925d;stroke-width:0.352778;stroke-linecap:round;stroke-linejoin:round;stroke-miterlimit:1.5;stroke-dasharray:none"
     id="path25622" /><path
     d="m 44.374192,20.823377 h 6.94649"
     style="clip-rule:evenodd;display:inline;fill:none;fill-rule:evenodd;stroke:#c3925d;stroke-width:0.352778;stroke-linecap:round;stroke-linejoin:round;stroke-miterlimit:1.5;stroke-dasharray:none"
     id="path25624" /><g
     aria-label="BPM"
     id="text25628"
     style="font-style:italic;font-size:2.82223px;font-family:Menlo;-inkscape-font-specification:'Menlo Italic';text-align:center;text-anchor:middle;fill:#ffffff;stroke-width:0.352777;stroke-linecap:square;paint-order:fill markers stroke"
     transform="translate(-1.5875)"><path
       d="m 27.241028,16.734121 -0.14745,0.753789 h 0.341754 q 0.25356,0 0.38723,-0.119889 0.135048,-0.11989 0.135048,-0.345889 0,-0.14745 -0.09371,-0.217731 -0.09371,-0.07028 -0.290767,-0.07028 z m 0.162609,-0.846118 -0.121267,0.620119 h 0.336242 q 0.208084,0 0.326596,-0.09922 0.119889,-0.100597 0.119889,-0.275608 0,-0.129536 -0.07717,-0.187414 Q 27.912137,15.888 27.73988,15.888 Z M 27.16937,15.659249 h 0.610473 q 0.279742,0 0.423059,0.110243 0.143316,0.108865 0.143316,0.321084 0,0.212218 -0.12678,0.355535 -0.12678,0.141938 -0.341754,0.169499 0.172255,0.03169 0.263206,0.14056 0.09233,0.108865 0.09233,0.279742 0,0.322462 -0.220487,0.501608 -0.219109,0.179145 -0.620119,0.179145 h -0.622875 z"
       style="stroke-width:0.352778"
       id="path29343" /><path
       d="m 29.142726,15.888003 -0.150206,0.773082 h 0.322462 q 0.227377,0 0.362425,-0.130914 0.136426,-0.132292 0.136426,-0.351401 0,-0.148828 -0.08544,-0.219108 -0.08544,-0.07166 -0.264584,-0.07166 z m -0.234267,-0.228754 h 0.606339 q 0.283876,0 0.432705,0.126779 0.148828,0.12678 0.148828,0.36656 0,0.343132 -0.220486,0.540192 -0.220487,0.19706 -0.606339,0.19706 h -0.321084 l -0.16123,0.826825 h -0.279743 z"
       style="stroke-width:0.352778"
       id="path29345" /><path
       d="m 30.451866,15.659249 h 0.370694 l 0.151584,1.041799 0.57051,-1.041799 h 0.372071 l -0.40101,2.057416 h -0.256316 l 0.355535,-1.828662 -0.59807,1.095544 H 30.82256 l -0.158475,-1.095544 -0.352779,1.828662 H 30.05499 Z"
       style="stroke-width:0.352778"
       id="path29347" /></g><path
     d="m 9.134389,80.739801 v 13.43864"
     style="clip-rule:evenodd;display:inline;fill:none;fill-rule:evenodd;stroke:#d08c59;stroke-width:0.352778;stroke-linecap:square;stroke-linejoin:round;stroke-miterlimit:1.5;stroke-dasharray:none;stroke-opacity:1"
     id="path1"
     sodipodi:nodetypes="cc" /><g
     id="g19"
     transform="translate(-35.268,20.373687)"
     style="display:inline"><path
       id="path15"
       serif:id="path40"
       d="m 48.576516,61.41942 -0.702124,-0.17526 0.174617,-0.703478"
       style="clip-rule:evenodd;fill:none;fill-rule:evenodd;stroke:#d08c59;stroke-width:0.246416px;stroke-linecap:butt;stroke-linejoin:miter;stroke-miterlimit:10" /><g
       id="g18"><path
         id="path16"
         serif:id="path41"
         d="m 40.60529,61.169995 c -1.628844,-1.183234 -2.787082,-3.290002 -2.787082,-5.439451 0,-3.586582 2.946242,-6.498336 6.57541,-6.498336 3.629168,0 6.575715,2.911754 6.575715,6.498336 0,1.848612 -0.782881,3.518001 -2.038417,4.701844 -0.322721,0.304191 -0.676526,0.576682 -1.056234,0.811378"
         style="clip-rule:evenodd;fill:none;fill-rule:evenodd;stroke:#d08c59;stroke-width:0.246416px;stroke-linecap:butt;stroke-linejoin:round;stroke-miterlimit:1.5"
         sodipodi:nodetypes="cssscc" /><path
         d="m 44.393618,48.174488 v 0.879553"
         style="clip-rule:evenodd;fill:none;fill-rule:evenodd;stroke:#d08c59;stroke-width:0.264017px;stroke-linecap:square;stroke-linejoin:round;stroke-miterlimit:1.5"
         id="path17"
         sodipodi:nodetypes="cc" /><path
         id="path18"
         serif:id="path40"
         d="m 40.046839,61.41942 0.702124,-0.17526 -0.174617,-0.703478"
         style="clip-rule:evenodd;fill:none;fill-rule:evenodd;stroke:#d08c59;stroke-width:0.246416px;stroke-linecap:butt;stroke-linejoin:miter;stroke-miterlimit:10" /></g></g><g
     aria-label="ROTATE"
     id="text27141"
     style="font-style:italic;font-size:2.82223px;font-family:Menlo;-inkscape-font-specification:'Menlo Italic';text-align:center;text-anchor:middle;fill:#ffffff;stroke-width:0.352777;stroke-linecap:square;paint-order:fill markers stroke"
     transform="translate(0.099835,23.312847)"><path
       d="m 4.9709562,75.582214 q 0.099219,0.01929 0.1584748,0.09233 0.060634,0.07304 0.1350481,0.31695 l 0.1667431,0.562241 H 5.1542358 L 5.0081633,76.034212 Q 4.9475295,75.819237 4.8717372,75.751713 4.7973229,75.684189 4.6457383,75.684189 H 4.3811542 L 4.211655,76.553734 H 3.9319125 l 0.3982541,-2.057417 h 0.5732655 q 0.2852547,0 0.4409735,0.124024 0.1570968,0.122646 0.1570968,0.347266 0,0.252182 -0.1433164,0.417547 -0.1419383,0.165365 -0.3872298,0.19706 z M 4.5671899,74.725072 4.4266296,75.455434 h 0.3017912 q 0.2246208,0 0.3582909,-0.117133 0.1350481,-0.118512 0.1350481,-0.314194 0,-0.154341 -0.086817,-0.225999 -0.086817,-0.07304 -0.2742304,-0.07304 z"
       style="stroke-width:0.352778"
       id="path29370" /><path
       d="m 6.306279,76.367698 q 0.1171335,0 0.2163526,-0.07028 0.099219,-0.07028 0.163987,-0.201194 0.1019751,-0.199816 0.165365,-0.483693 0.06339,-0.283877 0.06339,-0.545705 0,-0.195682 -0.073036,-0.28801 -0.071658,-0.09371 -0.2232428,-0.09371 -0.1171336,0 -0.2149745,0.07028 -0.097841,0.07028 -0.162609,0.201194 -0.1047312,0.202572 -0.1681211,0.483693 -0.06339,0.28112 -0.06339,0.542948 0,0.19706 0.071658,0.290767 0.073036,0.09371 0.2246208,0.09371 z m 0.8943493,-1.219567 q 0,0.151585 -0.031695,0.329352 -0.030317,0.177767 -0.089573,0.365181 -0.039963,0.12678 -0.086817,0.227377 -0.045475,0.100597 -0.099219,0.181902 -0.1212677,0.175011 -0.2714743,0.259072 -0.1502066,0.08268 -0.3500227,0.08268 -0.2769864,0 -0.4106565,-0.169499 -0.1336701,-0.169499 -0.1336701,-0.522278 0,-0.152963 0.028939,-0.327974 0.030317,-0.176389 0.089573,-0.363803 0.039963,-0.12678 0.085439,-0.227377 0.046854,-0.100597 0.1005971,-0.181902 0.1212677,-0.175011 0.2714743,-0.257694 0.1502066,-0.08406 0.3500227,-0.08406 0.2783645,0 0.4120345,0.169499 0.1350482,0.168121 0.1350482,0.519522 z"
       style="stroke-width:0.352778"
       id="path29372" /><path
       d="m 7.5795899,74.496317 h 1.5709679 l -0.045475,0.234267 H 8.4587807 l -0.3527788,1.82315 H 7.8248813 l 0.3555349,-1.82315 H 7.5341145 Z"
       style="stroke-width:0.352778"
       id="path29374" /><path
       d="M 10.025615,74.727828 9.5240074,75.794433 H 10.116565 Z M 9.8933226,74.496317 h 0.3389984 l 0.228755,2.057417 h -0.276987 l -0.04823,-0.536059 H 9.4192762 L 9.1657164,76.553734 H 8.8666813 Z"
       style="stroke-width:0.352778"
       id="path29376" /><path
       d="m 10.977842,74.496317 h 1.570968 l -0.04548,0.234267 h -0.646302 l -0.352778,1.82315 h -0.281121 l 0.355535,-1.82315 h -0.646302 z"
       style="stroke-width:0.352778"
       id="path29378" /><path
       d="m 12.885052,74.496317 h 1.219567 l -0.04547,0.234267 h -0.942581 l -0.118512,0.609095 h 0.899862 l -0.0441,0.234267 h -0.901239 l -0.143317,0.745521 h 0.967386 l -0.04547,0.234267 H 12.48405 Z"
       style="stroke-width:0.352778"
       id="path29380" /></g><path
     d="M 62.400267,14.696082 H 48.961627"
     style="clip-rule:evenodd;display:inline;fill:none;fill-rule:evenodd;stroke:#d08c59;stroke-width:0.352778;stroke-linecap:square;stroke-linejoin:round;stroke-miterlimit:1.5;stroke-dasharray:none;stroke-opacity:1"
     id="path10"
     sodipodi:nodetypes="cc"
     inkscape:transform-center-x="-0.50506325"
     inkscape:transform-center-y="1.5151897" /><g
     aria-label="CLK"
     id="text29442"
     style="font-style:italic;font-size:2.82223px;font-family:Menlo;-inkscape-font-specification:'Menlo Italic';text-align:center;text-anchor:middle;fill:#ffffff;stroke-width:0.352777;stroke-linecap:square;paint-order:fill markers stroke"
     transform="translate(0,3.1750001)"><path
       d="m 7.6105137,35.902641 q -0.1157556,0.0565 -0.2342672,0.08406 -0.1171336,0.02894 -0.2425354,0.02894 -0.3169497,0 -0.491961,-0.18328 -0.1736333,-0.183279 -0.1736333,-0.51401 0,-0.303169 0.096463,-0.600826 0.096463,-0.297657 0.2535598,-0.486449 0.1474505,-0.179145 0.3252179,-0.264584 0.1777674,-0.08544 0.4051444,-0.08544 0.1102433,0 0.2191087,0.02894 0.1088653,0.02894 0.2122184,0.08406 l -0.0565,0.285255 q -0.088195,-0.08682 -0.1860357,-0.129536 -0.097841,-0.04272 -0.2080843,-0.04272 -0.130914,0 -0.2425354,0.0565 -0.1116214,0.05512 -0.2094624,0.169499 -0.1433164,0.1695 -0.2315111,0.434084 -0.086817,0.264584 -0.086817,0.530546 0,0.238401 0.1074873,0.365181 0.1074872,0.12678 0.3100594,0.12678 0.1171336,0 0.2411574,-0.0441 0.1254018,-0.0441 0.2466695,-0.128157 z"
       style="stroke-width:0.352778"
       id="path31754" /><path
       d="M 8.5172654,33.918261 H 8.7956299 L 8.440095,35.74141 h 0.9935683 l -0.045475,0.234267 H 8.1162551 Z"
       style="stroke-width:0.352778"
       id="path31756" /><path
       d="m 10.09788,33.918261 h 0.278364 l -0.175011,0.891593 1.022507,-0.891593 h 0.350023 l -0.968764,0.853008 0.589802,1.204408 H 10.89301 l -0.496095,-1.021129 -0.265962,0.231511 -0.1543411,0.789618 H 9.6968694 Z"
       style="stroke-width:0.352778"
       id="path31758" /></g><rect
     style="fill:#333333;fill-opacity:1;stroke:#c3925d;stroke-width:0.352778;stroke-linecap:square;stroke-dasharray:none;stroke-opacity:1;paint-order:fill markers stroke"
     id="rect31887"
     width="11.411417"
     height="13.040365"
     x="46.566196"
     y="110.38052"
     rx="3.0000002"
     ry="3" /><g
     aria-label="CHAIN"
     id="text31899"
     style="font-style:italic;font-size:2.82223px;font-family:Menlo;-inkscape-font-specification:'Menlo Italic';text-align:center;text-anchor:middle;fill:#ffffff;stroke-width:0.352777;stroke-linecap:square;paint-order:fill markers stroke"
     transform="translate(-0.85811701,0.19280774)"><path
       d="m 49.930014,122.30338 q -0.115755,0.0565 -0.234267,0.0841 -0.117134,0.0289 -0.242536,0.0289 -0.316949,0 -0.491961,-0.18328 -0.173633,-0.18328 -0.173633,-0.51401 0,-0.30317 0.09646,-0.60082 0.09646,-0.29766 0.25356,-0.48645 0.14745,-0.17915 0.325218,-0.26459 0.177767,-0.0854 0.405144,-0.0854 0.110244,0 0.219109,0.0289 0.108865,0.0289 0.212218,0.0841 l -0.0565,0.28526 q -0.08819,-0.0868 -0.186036,-0.12954 -0.09784,-0.0427 -0.208084,-0.0427 -0.130914,0 -0.242536,0.0565 -0.111621,0.0551 -0.209462,0.1695 -0.143317,0.1695 -0.231511,0.43409 -0.08682,0.26458 -0.08682,0.53054 0,0.2384 0.107487,0.36518 0.107488,0.12678 0.31006,0.12678 0.117133,0 0.241157,-0.0441 0.125402,-0.0441 0.24667,-0.12816 z"
       style="stroke-width:0.352778"
       id="path31901" /><path
       d="m 50.718254,120.319 h 0.278365 l -0.162609,0.84336 h 0.762057 l 0.162609,-0.84336 h 0.279742 l -0.40101,2.05742 h -0.278364 l 0.191548,-0.97979 h -0.764814 l -0.188792,0.97979 h -0.279742 z"
       style="stroke-width:0.352778"
       id="path31903" /><path
       d="m 53.040255,120.55051 -0.501607,1.06661 h 0.592558 z M 52.907963,120.319 h 0.338998 l 0.228755,2.05742 H 53.19873 l -0.04823,-0.53606 h -0.716581 l -0.25356,0.53606 h -0.299035 z"
       style="stroke-width:0.352778"
       id="path31905" /><path
       d="m 54.203323,120.319 h 1.143775 l -0.04548,0.23427 h -0.432705 l -0.307303,1.58888 h 0.432705 l -0.04548,0.23427 h -1.143774 l 0.04547,-0.23427 h 0.431327 l 0.308681,-1.58888 h -0.432705 z"
       style="stroke-width:0.352778"
       id="path31907" /><path
       d="m 55.818388,120.319 h 0.352779 l 0.363803,1.69362 0.329352,-1.69362 h 0.268718 l -0.40101,2.05742 h -0.352779 l -0.363803,-1.69361 -0.33073,1.69361 h -0.26734 z"
       style="stroke-width:0.352778"
       id="path31909" /></g><path
     d="m 18.495403,115.12352 h 10.09504"
     style="clip-rule:evenodd;display:inline;fill:none;fill-rule:evenodd;stroke:#c3925d;stroke-width:0.352778;stroke-linecap:round;stroke-linejoin:round;stroke-miterlimit:1.5;stroke-dasharray:none"
     id="path32446" /><g
     id="g434"
     transform="translate(-35.367835,-2.6014795)"
     style="display:inline"><path
       id="path424"
       serif:id="path40"
       d="m 48.576516,61.41942 -0.702124,-0.17526 0.174617,-0.703478"
       style="clip-rule:evenodd;fill:none;fill-rule:evenodd;stroke:#d08c59;stroke-width:0.246416px;stroke-linecap:butt;stroke-linejoin:miter;stroke-miterlimit:10" /><g
       id="g432"><path
         id="path426"
         serif:id="path41"
         d="m 40.60529,61.169995 c -1.628844,-1.183234 -2.787082,-3.290002 -2.787082,-5.439451 0,-3.586582 2.946242,-6.498336 6.57541,-6.498336 3.629168,0 6.575715,2.911754 6.575715,6.498336 0,1.848612 -0.782881,3.518001 -2.038417,4.701844 -0.322721,0.304191 -0.676526,0.576682 -1.056234,0.811378"
         style="clip-rule:evenodd;fill:none;fill-rule:evenodd;stroke:#d08c59;stroke-width:0.246416px;stroke-linecap:butt;stroke-linejoin:round;stroke-miterlimit:1.5"
         sodipodi:nodetypes="cssscc" /><path
         d="m 44.393618,48.174488 v 0.879553"
         style="clip-rule:evenodd;fill:none;fill-rule:evenodd;stroke:#d08c59;stroke-width:0.264017px;stroke-linecap:square;stroke-linejoin:round;stroke-miterlimit:1.5"
         id="path428"
         sodipodi:nodetypes="cc" /><path
         id="path430"
         serif:id="path40"
         d="m 40.046839,61.41942 0.702124,-0.17526 -0.174617,-0.703478"
         style="clip-rule:evenodd;fill:none;fill-rule:evenodd;stroke:#d08c59;stroke-width:0.246416px;stroke-linecap:butt;stroke-linejoin:miter;stroke-miterlimit:10" /></g></g><g
     aria-label="SWING"
     id="text490"
     style="font-style:italic;font-size:2.82223px;font-family:Menlo;-inkscape-font-specification:'Menlo Italic';text-align:center;text-anchor:middle;fill:#666666;stroke:#000000;stroke-width:0.352777;stroke-linecap:square;paint-order:fill markers stroke"
     transform="translate(0,5.2620817)"><path
       d="m 6.010349,56.04398 -0.053744,0.282498 q -0.1116215,-0.0813 -0.2315111,-0.122645 -0.1198897,-0.04134 -0.2480476,-0.04134 -0.2273769,0 -0.3706933,0.113 -0.1433164,0.112999 -0.1433164,0.288011 0,0.09784 0.067524,0.158475 0.067524,0.06063 0.2452915,0.115755 l 0.1667431,0.05374 q 0.2246208,0.0689 0.327974,0.184657 0.1047312,0.114378 0.1047312,0.292145 0,0.32384 -0.228755,0.51401 -0.228755,0.188792 -0.6242531,0.188792 -0.1433163,0 -0.2824986,-0.03169 -0.1378042,-0.03032 -0.2756084,-0.09233 l 0.0565,-0.288011 q 0.1350482,0.09509 0.2728524,0.14056 0.1391822,0.04548 0.2935229,0.04548 0.227377,0 0.3693153,-0.121268 0.1419383,-0.121268 0.1419383,-0.307303 0,-0.113 -0.060634,-0.175012 -0.060634,-0.06201 -0.2439135,-0.118511 L 5.1545849,57.077511 Q 4.9010251,56.997585 4.79905,56.896988 4.698453,56.795013 4.698453,56.62827 q 0,-0.304548 0.2273769,-0.497473 0.2273769,-0.194304 0.5939361,-0.194304 0.1102434,0 0.2342672,0.02756 0.1254018,0.02756 0.2563158,0.07993 z"
       style="fill:#ffffff;stroke:none;stroke-width:0.352778"
       id="path492" /><path
       d="m 6.3286768,55.9737 h 0.263206 L 6.467859,57.641131 6.9212348,56.538697 h 0.2907669 l 0.020671,1.10519 L 7.7521942,55.9737 H 8.0250465 L 7.3222451,58.031116 H 7.0549049 L 7.0121856,56.83222 6.500932,58.031116 H 6.2418601 Z"
       style="fill:#ffffff;stroke:none;stroke-width:0.352778"
       id="path494" /><path
       d="M 8.3047891,55.9737 H 9.448564 L 9.403089,56.207967 H 8.9703834 L 8.66308,57.796849 h 0.4327052 l -0.045475,0.234267 H 7.9065349 l 0.045475,-0.234267 H 8.3833375 L 8.6920189,56.207967 H 8.2593137 Z"
       style="fill:#ffffff;stroke:none;stroke-width:0.352778"
       id="path496" /><path
       d="m 9.9198545,55.9737 h 0.3527785 l 0.363803,1.693613 0.329352,-1.693613 h 0.268719 l -0.401011,2.057416 H 10.480718 L 10.116915,56.337503 9.7861845,58.031116 H 9.5188443 Z"
       style="fill:#ffffff;stroke:none;stroke-width:0.352778"
       id="path498" /><path
       d="m 12.561561,57.898824 q -0.11989,0.08544 -0.261828,0.129536 -0.141938,0.04272 -0.303169,0.04272 -0.319706,0 -0.491961,-0.184658 -0.170877,-0.186036 -0.170877,-0.529168 0,-0.124024 0.02205,-0.263206 0.02343,-0.14056 0.06752,-0.293523 0.04823,-0.161231 0.113,-0.290767 0.06477,-0.130914 0.141938,-0.223243 0.147451,-0.179145 0.325218,-0.264584 0.179145,-0.08544 0.4079,-0.08544 0.110244,0 0.219109,0.02894 0.110244,0.02894 0.216353,0.08406 l -0.0565,0.285255 q -0.08957,-0.08682 -0.188792,-0.129536 -0.09784,-0.04272 -0.209462,-0.04272 -0.135048,0 -0.25356,0.05788 -0.118511,0.0565 -0.212218,0.168121 -0.06063,0.07166 -0.114378,0.179146 -0.05374,0.107487 -0.09509,0.241157 -0.04685,0.157097 -0.07166,0.294901 -0.02343,0.137804 -0.02343,0.249426 0,0.235645 0.108866,0.363803 0.108865,0.128158 0.308681,0.128158 0.09371,0 0.168121,-0.02481 0.07442,-0.02618 0.125402,-0.07441 l 0.104731,-0.541571 H 12.13849 l 0.04134,-0.228755 h 0.564998 z"
       style="fill:#ffffff;stroke:none;stroke-width:0.352778"
       id="path500" /></g><path
     d="m 45.853521,27.745572 v 78.483058 c 0,1.57111 -1.194087,2.84655 -2.663943,2.84655 H 32.934153 c -1.470123,0 -2.663677,-1.27544 -2.663677,-2.84655 V 27.745572 c 0,-1.57112 1.193554,-2.846576 2.663677,-2.846576 h 10.255425 c 1.469856,0 2.663943,1.275456 2.663943,2.846576 z"
     style="clip-rule:evenodd;display:inline;fill:#202020;fill-rule:evenodd;stroke:#c3925d;stroke-width:0.348744;stroke-linecap:round;stroke-linejoin:round;stroke-miterlimit:1.5;stroke-dasharray:none;fill-opacity:1"
     id="path7309" /><g
     aria-label="RATIO"
     id="text24882"
     style="font-style:italic;font-size:2.82223px;font-family:Menlo;-inkscape-font-specification:'Menlo Italic';text-align:center;text-anchor:middle;fill:#ffffff;stroke-width:0.352777;stroke-linecap:square;paint-order:fill markers stroke"
     transform="translate(0,-2.6458334)"><path
       d="m 34.772045,29.942253 q 0.09922,0.01929 0.158475,0.09233 0.06063,0.07304 0.135048,0.316949 l 0.166743,0.562242 h -0.276987 l -0.146072,-0.519522 q -0.06063,-0.214975 -0.136426,-0.282499 -0.07442,-0.06752 -0.225999,-0.06752 h -0.264584 l -0.169499,0.869545 h -0.279743 l 0.398254,-2.057417 h 0.573266 q 0.285254,0 0.440973,0.124024 0.157097,0.122645 0.157097,0.347266 0,0.252182 -0.143316,0.417547 -0.141939,0.165365 -0.38723,0.19706 z m -0.403767,-0.857142 -0.14056,0.730362 h 0.301791 q 0.224621,0 0.358291,-0.117133 0.135048,-0.118512 0.135048,-0.314194 0,-0.154341 -0.08682,-0.225999 -0.08682,-0.07304 -0.274231,-0.07304 z"
       style="stroke-width:0.352778"
       id="path29359" /><path
       d="m 36.428451,29.087867 -0.501607,1.066604 h 0.592558 z m -0.132292,-0.231511 h 0.338999 l 0.228755,2.057417 h -0.276987 l -0.04823,-0.536059 h -0.716582 l -0.25356,0.536059 h -0.299035 z"
       style="stroke-width:0.352778"
       id="path29361" /><path
       d="m 37.380678,28.856356 h 1.570968 l -0.04547,0.234267 h -0.646302 l -0.352778,1.82315 H 37.62597 l 0.355535,-1.82315 h -0.646302 z"
       style="stroke-width:0.352778"
       id="path29363" /><path
       d="m 39.290645,28.856356 h 1.143775 l -0.04548,0.234267 h -0.432705 l -0.307303,1.588882 h 0.432705 l -0.04547,0.234268 h -1.143775 l 0.04547,-0.234268 h 0.431327 l 0.308682,-1.588882 H 39.24517 Z"
       style="stroke-width:0.352778"
       id="path29365" /><path
       d="m 41.204745,30.727737 q 0.117134,0 0.216353,-0.07028 0.09922,-0.07028 0.163987,-0.201194 0.101975,-0.199816 0.165365,-0.483693 0.06339,-0.283877 0.06339,-0.545705 0,-0.195682 -0.07304,-0.288011 -0.07166,-0.09371 -0.223243,-0.09371 -0.117134,0 -0.214975,0.07028 -0.09784,0.07028 -0.162609,0.201194 -0.104731,0.202572 -0.168121,0.483693 -0.06339,0.28112 -0.06339,0.542948 0,0.19706 0.07166,0.290767 0.07304,0.09371 0.224621,0.09371 z m 0.89435,-1.219567 q 0,0.151584 -0.03169,0.329352 -0.03032,0.177767 -0.08957,0.365181 -0.03996,0.12678 -0.08682,0.227377 -0.04548,0.100597 -0.09922,0.181901 -0.121268,0.175012 -0.271474,0.259072 -0.150207,0.08268 -0.350023,0.08268 -0.276986,0 -0.410656,-0.169499 -0.13367,-0.1695 -0.13367,-0.522278 0,-0.152963 0.02894,-0.327974 0.03032,-0.17639 0.08957,-0.363803 0.03996,-0.12678 0.08544,-0.227377 0.04685,-0.100597 0.100597,-0.181902 0.121268,-0.175011 0.271474,-0.257694 0.150207,-0.08406 0.350023,-0.08406 0.278364,0 0.412034,0.169499 0.135049,0.168121 0.135049,0.519522 z"
       style="stroke-width:0.352778"
       id="path29367" /></g></svg>
