<?xml version="1.0" encoding="UTF-8" standalone="no"?>
<!-- Created with Inkscape (http://www.inkscape.org/) -->

<svg
   width="76.199997mm"
   height="128.5mm"
   viewBox="0 0 76.200005 128.50002"
   version="1.1"
   id="svg8"
   inkscape:version="1.2 (dc2aeda, 2022-05-15)"
   sodipodi:docname="HexMod-dark.svg"
   xml:space="preserve"
   xmlns:inkscape="http://www.inkscape.org/namespaces/inkscape"
   xmlns:sodipodi="http://sodipodi.sourceforge.net/DTD/sodipodi-0.dtd"
   xmlns="http://www.w3.org/2000/svg"
   xmlns:svg="http://www.w3.org/2000/svg"
   xmlns:rdf="http://www.w3.org/1999/02/22-rdf-syntax-ns#"
   xmlns:cc="http://creativecommons.org/ns#"
   xmlns:dc="http://purl.org/dc/elements/1.1/"
   xmlns:serif="http://www.serif.com/"><defs
     id="defs2" /><sodipodi:namedview
     id="base"
     pagecolor="#ffffff"
     bordercolor="#666666"
     borderopacity="1.0"
     inkscape:pageopacity="0.0"
     inkscape:pageshadow="2"
     inkscape:zoom="1.32"
     inkscape:cx="168.18182"
     inkscape:cy="314.39394"
     inkscape:document-units="mm"
     inkscape:current-layer="g1"
     showgrid="false"
     units="mm"
     inkscape:snap-bbox="true"
     inkscape:snap-page="true"
     inkscape:bbox-nodes="false"
     inkscape:snap-bbox-edge-midpoints="false"
     inkscape:window-width="1512"
     inkscape:window-height="900"
     inkscape:window-x="0"
     inkscape:window-y="38"
     inkscape:window-maximized="0"
     inkscape:snap-bbox-midpoints="true"
     inkscape:snap-nodes="false"
     inkscape:showpageshadow="2"
     inkscape:pagecheckerboard="0"
     inkscape:deskcolor="#d1d1d1" /><metadata
     id="metadata5"><rdf:RDF><cc:Work
         rdf:about=""><dc:format>image/svg+xml</dc:format><dc:type
           rdf:resource="http://purl.org/dc/dcmitype/StillImage" /></cc:Work></rdf:RDF></metadata><g
     id="g1"><rect
       id="rect1"
       x="-0.1665577"
       y="-0.38949111"
       width="77.001762"
       height="129.94316"
       style="clip-rule:evenodd;display:inline;fill:#202020;fill-rule:evenodd;stroke-width:0.432576;stroke-linejoin:round;stroke-miterlimit:1.5" /><path
       id="path128"
       d="m 34.914777,125.9342 c 0.05984,0.1268 0.07943,0.25396 0.05842,0.38219 h -0.419235 c -0.0064,-0.0983 -0.02565,-0.1724 -0.05842,-0.22227 -0.05735,-0.089 -0.160997,-0.13357 -0.310597,-0.13357 -0.152449,0 -0.28602,0.0627 -0.4,0.18843 -0.114337,0.12538 -0.195192,0.30276 -0.242921,0.5325 -0.04809,0.22974 -0.03776,0.40143 0.0317,0.51612 0.0691,0.11433 0.175246,0.17133 0.318434,0.17133 0.147106,0 0.269635,-0.0492 0.367587,-0.14747 0.05378,-0.0524 0.105432,-0.13179 0.155298,-0.23722 h 0.415317 c -0.08264,0.22333 -0.213357,0.40463 -0.391452,0.54461 -0.178451,0.13927 -0.384328,0.20944 -0.617632,0.20944 -0.288513,0 -0.495815,-0.0944 -0.621906,-0.28317 -0.125379,-0.18985 -0.153162,-0.44986 -0.08442,-0.78076 0.07409,-0.35726 0.225468,-0.63295 0.453429,-0.82636 0.198753,-0.16848 0.424221,-0.2529 0.676403,-0.2529 0.337667,0 0.560642,0.11327 0.669992,0.3391 z"
       style="clip-rule:evenodd;fill:#ffffff;fill-rule:nonzero;stroke-width:0.356189;stroke-linejoin:round;stroke-miterlimit:1.5" /><path
       id="path129"
       d="m 35.843006,127.18869 0.764026,-1.55441 h 0.435619 l -1.110954,2.04667 h -0.396083 l -0.252181,-2.04667 h 0.448442 z"
       style="clip-rule:evenodd;fill:#ffffff;fill-rule:nonzero;stroke-width:0.356189;stroke-linejoin:round;stroke-miterlimit:1.5" /><path
       id="path130"
       d="m 38.625912,126.18139 -0.05877,0.27925 h -0.253963 l -0.253607,1.22031 h -0.386466 l 0.253606,-1.22031 h -0.216919 l 0.05842,-0.27925 h 0.212645 l 0.01995,-0.0972 c 0.03419,-0.16207 0.08406,-0.27355 0.149955,-0.33482 0.07551,-0.0905 0.220482,-0.13606 0.43562,-0.13606 0.02458,0 0.04666,7.1e-4 0.06625,0.002 0.01959,0.001 0.04666,0.004 0.08121,0.006 l -0.06803,0.32271 c -0.02102,-0.003 -0.05699,-0.005 -0.107569,-0.006 -0.05093,-10e-4 -0.08905,0.01 -0.113981,0.0345 -0.02493,0.0246 -0.03989,0.0516 -0.04559,0.0812 -0.0064,0.0299 -0.01532,0.0723 -0.02743,0.12787 z"
       style="clip-rule:evenodd;fill:#ffffff;fill-rule:nonzero;stroke-width:0.356189;stroke-linejoin:round;stroke-miterlimit:1.5" /><path
       id="path131"
       d="m 39.532769,127.46759 c -0.0043,0.005 -0.01638,0.0185 -0.03562,0.0417 -0.01888,0.0232 -0.04025,0.0431 -0.06376,0.0609 -0.07266,0.0556 -0.139626,0.0933 -0.200891,0.11363 -0.06091,0.0203 -0.129653,0.0306 -0.206234,0.0306 -0.219412,0 -0.350846,-0.0801 -0.393232,-0.2415 -0.02386,-0.0887 -0.01745,-0.21977 0.01888,-0.39287 l 0.189492,-0.91256 h 0.397151 l -0.189136,0.91256 c -0.01817,0.0862 -0.02173,0.15066 -0.01104,0.19447 0.01923,0.0769 0.0805,0.11541 0.183794,0.11541 0.132502,0 0.234728,-0.0549 0.306678,-0.1642 0.03811,-0.0591 0.06732,-0.13749 0.08727,-0.23438 l 0.171327,-0.82386 h 0.393233 l -0.314515,1.51345 h -0.376849 z"
       style="clip-rule:evenodd;fill:#ffffff;fill-rule:nonzero;stroke-width:0.356189;stroke-linejoin:round;stroke-miterlimit:1.5" /><path
       id="path132"
       d="m 41.378898,126.76091 c 0.0171,-0.0798 0.01959,-0.14105 0.0068,-0.18344 -0.02173,-0.078 -0.08584,-0.11683 -0.193055,-0.11683 -0.13179,0 -0.234016,0.057 -0.306323,0.17062 -0.03847,0.0605 -0.06696,0.13749 -0.08584,0.23081 l -0.170259,0.81888 h -0.386465 l 0.314159,-1.51096 h 0.374711 l -0.04631,0.22084 c 0.0659,-0.0773 0.125023,-0.13357 0.177026,-0.16777 0.09225,-0.0613 0.200179,-0.0915 0.322352,-0.0915 0.153517,0 0.270347,0.0406 0.350846,0.12289 0.08014,0.0819 0.100801,0.21763 0.06162,0.40748 l -0.212289,1.01906 h -0.397507 z"
       style="clip-rule:evenodd;fill:#ffffff;fill-rule:nonzero;stroke-width:0.356189;stroke-linejoin:round;stroke-miterlimit:1.5" /><path
       id="path133"
       d="m 42.41897,127.20543 -0.09759,0.47552 h -0.381484 l 0.424934,-2.0399 h 0.381122 l -0.230454,1.10312 0.601959,-0.5699 h 0.480856 l -0.640072,0.57952 0.346928,0.92716 H 42.83678 l -0.220125,-0.64684 z"
       style="clip-rule:evenodd;fill:#ffffff;fill-rule:nonzero;stroke-width:0.356189;stroke-linejoin:round;stroke-miterlimit:1.5" /><path
       id="path134"
       d="m 25.633555,126.66688 h 6.62227"
       style="clip-rule:evenodd;fill:none;fill-rule:evenodd;stroke:#d08c59;stroke-width:0.227961px;stroke-linecap:round;stroke-linejoin:round;stroke-miterlimit:1.5" /><path
       id="path135"
       d="m 43.944172,126.66688 h 6.62227"
       style="clip-rule:evenodd;fill:none;fill-rule:evenodd;stroke:#d08c59;stroke-width:0.227961px;stroke-linecap:round;stroke-linejoin:round;stroke-miterlimit:1.5" /><path
       style="font-style:italic;font-size:5.64444px;font-family:Menlo;-inkscape-font-specification:'Menlo Italic';fill:#ffffff;stroke:none;stroke-width:0.352778"
       d="m 27.139091,2.8341891 h 0.556727 L 27.370601,4.5209065 H 28.89471 L 29.219927,2.8341891 H 29.77941 L 28.977392,6.949008 H 28.420665 L 28.80376,4.9894392 H 27.274139 L 26.896556,6.949008 h -0.559483 z m 3.56636,0 h 2.439126 l -0.09095,0.4685326 H 31.168473 L 30.93145,4.5209065 h 1.799717 l -0.08819,0.4685327 h -1.802472 l -0.286632,1.4910362 h 1.934764 l -0.09095,0.4685326 h -2.494248 z m 3.11712,0 h 0.551215 l 0.617361,1.4662315 1.212672,-1.4662315 h 0.636653 L 35.197852,4.8158065 36.09082,6.949008 H 35.536849 L 34.836806,5.2622905 33.442233,6.949008 H 32.80558 l 1.81074,-2.1965912 z m 6.76065,0 h 0.741384 l 0.303168,2.0835921 1.141015,-2.0835921 h 0.74414 L 42.710911,6.949008 h -0.51263 L 42.909348,3.2916974 41.713212,5.4827765 H 41.324605 L 41.007657,3.2916974 40.302102,6.949008 h -0.51263 z m 4.150648,3.7427489 q 0.234266,0 0.432703,-0.1405598 0.198438,-0.1405598 0.327973,-0.4023869 0.20395,-0.3996308 0.330729,-0.9673821 0.12678,-0.5677513 0.12678,-1.0914054 0,-0.3913625 -0.146072,-0.5760195 -0.143316,-0.1874131 -0.446484,-0.1874131 -0.234267,0 -0.429948,0.1405598 -0.195681,0.1405598 -0.325217,0.4023869 -0.209461,0.4051429 -0.336241,0.9673821 -0.126779,0.5622391 -0.126779,1.0858932 0,0.3941187 0.143316,0.5815317 0.146072,0.1874131 0.44924,0.1874131 z m 1.788692,-2.4391258 q 0,0.3031682 -0.06339,0.6587018 -0.06063,0.3555335 -0.179145,0.7303596 -0.07993,0.2535589 -0.173632,0.4547523 -0.09095,0.2011934 -0.198438,0.3638018 -0.242534,0.3500215 -0.542946,0.518142 -0.300412,0.1653644 -0.700043,0.1653644 -0.553971,0 -0.82131,-0.3389971 -0.267339,-0.3389971 -0.267339,-1.0445522 0,-0.3059242 0.05788,-0.6559456 0.06063,-0.3527776 0.179145,-0.7276037 Q 43.893273,4.0082767 43.98422,3.8070833 44.07793,3.6058899 44.185413,3.4432815 44.427947,3.09326 44.72836,2.9278956 45.028772,2.759775 45.428402,2.759775 q 0.556727,0 0.824067,0.3389972 0.270095,0.3362411 0.270095,1.03904 z m 1.118968,2.3536875 q 0.509873,0 0.818554,-0.1708767 0.30868,-0.1736326 0.496093,-0.5622391 0.148828,-0.3169486 0.242535,-0.7551644 0.09646,-0.4409719 0.09646,-0.8075297 0,-0.4850691 -0.225998,-0.6945308 -0.225998,-0.2094616 -0.75792,-0.2094616 H 47.99706 L 47.374187,6.4914997 Z M 48.36362,2.8341891 q 0.752408,0 1.124478,0.3417532 0.374826,0.3417532 0.374826,1.0362839 0,0.446484 -0.115755,0.9205288 -0.115755,0.4740448 -0.311436,0.8406027 -0.286632,0.5264102 -0.716579,0.7524083 -0.427192,0.223242 -1.157552,0.223242 h -0.83509 L 47.52853,2.8341891 Z"
       id="text1"
       aria-label="HEX MOD" /><path
       sodipodi:type="star"
       style="opacity:1;fill:#000000;fill-opacity:0;stroke:#d08c59;stroke-width:0.352777;stroke-opacity:1"
       id="path1"
       inkscape:flatsided="true"
       sodipodi:sides="6"
       sodipodi:cx="2.6886282"
       sodipodi:cy="26.641863"
       sodipodi:r1="28.801231"
       sodipodi:r2="24.942596"
       sodipodi:arg1="-1.0463871"
       sodipodi:arg2="-0.52278833"
       inkscape:rounded="0"
       inkscape:randomized="0"
       d="M 17.109454,1.710944 31.48985,26.665205 17.069024,51.596124 -11.732198,51.572782 -26.112594,26.618521 -11.691768,1.687602 Z"
       transform="matrix(1.0956517,0,0,-1.0956517,34.913397,84.697471)" /><path
       d="m 17.754571,13.191899 1.361918,0.792052 -1.361918,0.792053 z"
       style="clip-rule:evenodd;fill:#d08c59;fill-rule:evenodd;stroke-width:0.326403;stroke-linecap:square;stroke-linejoin:round;stroke-miterlimit:1.5"
       id="path46" /><path
       d="m 15.769196,13.983951 h 2.257758"
       style="clip-rule:evenodd;fill:none;fill-rule:evenodd;stroke:#d08c59;stroke-width:0.326403px;stroke-linecap:square;stroke-linejoin:miter;stroke-miterlimit:1.5"
       id="path47" /><path
       d="m 28.347271,13.191899 1.361918,0.792052 -1.361918,0.792053 z"
       style="clip-rule:evenodd;fill:#d08c59;fill-rule:evenodd;stroke-width:0.326403;stroke-linecap:square;stroke-linejoin:round;stroke-miterlimit:1.5"
       id="path48" /><path
       d="m 26.361896,13.983951 h 2.257758"
       style="clip-rule:evenodd;fill:none;fill-rule:evenodd;stroke:#d08c59;stroke-width:0.326403px;stroke-linecap:square;stroke-linejoin:miter;stroke-miterlimit:1.5"
       id="path49" /><path
       d="m 39.057701,13.191899 1.361918,0.792052 -1.361918,0.792053 z"
       style="clip-rule:evenodd;fill:#d08c59;fill-rule:evenodd;stroke-width:0.326403;stroke-linecap:square;stroke-linejoin:round;stroke-miterlimit:1.5"
       id="path50" /><path
       d="m 37.072326,13.983951 h 2.257758"
       style="clip-rule:evenodd;fill:none;fill-rule:evenodd;stroke:#d08c59;stroke-width:0.326403px;stroke-linecap:square;stroke-linejoin:miter;stroke-miterlimit:1.5"
       id="path51" /><path
       d="m 49.347751,13.191899 1.36192,0.792052 -1.36192,0.792053 z"
       style="clip-rule:evenodd;fill:#d08c59;fill-rule:evenodd;stroke-width:0.326403;stroke-linecap:square;stroke-linejoin:round;stroke-miterlimit:1.5"
       id="path52" /><path
       d="m 47.362377,13.983951 h 2.257758"
       style="clip-rule:evenodd;fill:none;fill-rule:evenodd;stroke:#d08c59;stroke-width:0.326403px;stroke-linecap:square;stroke-linejoin:miter;stroke-miterlimit:1.5"
       id="path53" /><path
       d="m 59.940452,13.191899 1.361918,0.792052 -1.361918,0.792053 z"
       style="clip-rule:evenodd;fill:#d08c59;fill-rule:evenodd;stroke-width:0.326403;stroke-linecap:square;stroke-linejoin:round;stroke-miterlimit:1.5"
       id="path54" /><path
       d="m 57.955078,13.983951 h 2.257758"
       style="clip-rule:evenodd;fill:none;fill-rule:evenodd;stroke:#d08c59;stroke-width:0.326403px;stroke-linecap:square;stroke-linejoin:miter;stroke-miterlimit:1.5"
       id="path55" /><circle
       cx="23.547638"
       cy="30.689383"
       r="5.3951454"
       style="clip-rule:evenodd;opacity:1;fill:#3b3b3b;fill-rule:evenodd;stroke:#d08c59;stroke-width:0.352778;stroke-linecap:round;stroke-linejoin:round;stroke-miterlimit:1.5;stroke-dasharray:none"
       id="circle61" /><circle
       cx="52.992973"
       cy="30.689383"
       r="5.3951454"
       style="clip-rule:evenodd;opacity:1;fill:#3b3b3b;fill-rule:evenodd;stroke:#d08c59;stroke-width:0.352778;stroke-linecap:round;stroke-linejoin:round;stroke-miterlimit:1.5;stroke-dasharray:none"
       id="circle3" /><circle
       cx="23.547638"
       cy="81.714348"
       r="5.3951454"
       style="clip-rule:evenodd;opacity:1;fill:#3b3b3b;fill-rule:evenodd;stroke:#d08c59;stroke-width:0.352778;stroke-linecap:round;stroke-linejoin:round;stroke-miterlimit:1.5;stroke-dasharray:none"
       id="circle4" /><circle
       cx="52.992973"
       cy="81.714348"
       r="5.3951454"
       style="clip-rule:evenodd;opacity:1;fill:#3b3b3b;fill-rule:evenodd;stroke:#d08c59;stroke-width:0.352778;stroke-linecap:round;stroke-linejoin:round;stroke-miterlimit:1.5;stroke-dasharray:none"
       id="circle5" /><path
       style="font-style:italic;font-size:3.175px;font-family:Menlo;-inkscape-font-specification:'Menlo Italic';fill:#ffffff;stroke-width:0.352778"
       d="m 58.608578,120.83388 h 0.396875 l 0.409277,1.90531 0.37052,-1.90531 h 0.302307 l -0.451135,2.31458 h -0.396875 l -0.409278,-1.90531 -0.37207,1.90531 h -0.300757 z m 2.247924,2.10529 q 0.131775,0 0.243396,-0.0791 0.111621,-0.0791 0.184485,-0.22634 0.114722,-0.2248 0.186035,-0.54416 0.07131,-0.31936 0.07131,-0.61391 0,-0.22014 -0.08217,-0.32401 -0.08062,-0.10542 -0.251147,-0.10542 -0.131775,0 -0.241846,0.0791 -0.110071,0.0791 -0.182934,0.22634 -0.117823,0.2279 -0.189136,0.54416 -0.07131,0.31626 -0.07131,0.61081 0,0.22169 0.08062,0.32711 0.08217,0.10542 0.252697,0.10542 z m 1.00614,-1.37201 q 0,0.17054 -0.03566,0.37052 -0.03411,0.19999 -0.100769,0.41083 -0.04496,0.14263 -0.09767,0.2558 -0.05116,0.11317 -0.111621,0.20464 -0.136426,0.19689 -0.305408,0.29145 -0.168982,0.093 -0.393774,0.093 -0.311609,0 -0.461987,-0.19068 -0.150379,-0.19069 -0.150379,-0.58757 0,-0.17208 0.03256,-0.36897 0.03411,-0.19843 0.100769,-0.40927 0.04496,-0.14263 0.09612,-0.2558 0.05271,-0.11317 0.113171,-0.20464 0.136426,-0.19689 0.305408,-0.2899 0.168982,-0.0946 0.393774,-0.0946 0.313159,0 0.463538,0.19068 0.151928,0.18914 0.151928,0.58446 z m 0.629419,1.32395 q 0.286805,0 0.460437,-0.0961 0.173633,-0.0977 0.279053,-0.31626 0.08372,-0.17829 0.136426,-0.42478 0.05426,-0.24805 0.05426,-0.45424 0,-0.27285 -0.127124,-0.39067 -0.127124,-0.11783 -0.42633,-0.11783 h -0.176734 l -0.350366,1.79989 z m 0.406177,-2.05723 q 0.42323,0 0.63252,0.19223 0.210839,0.19224 0.210839,0.58291 0,0.25115 -0.06511,0.5178 -0.06511,0.26665 -0.175183,0.47284 -0.16123,0.29611 -0.403076,0.42323 -0.240295,0.12557 -0.651123,0.12557 h -0.469739 l 0.451135,-2.31458 z m 1.53634,0 h 1.372009 l -0.05116,0.26355 h -1.060401 l -0.133325,0.68522 h 1.012341 l -0.04961,0.26355 h -1.013891 l -0.161231,0.83871 h 1.088306 l -0.05116,0.26355 h -1.403015 z m 3.156397,0.0791 -0.06046,0.31781 q -0.125573,-0.0915 -0.260449,-0.13798 -0.134875,-0.0465 -0.279053,-0.0465 -0.255798,0 -0.417028,0.12712 -0.161231,0.12712 -0.161231,0.32401 0,0.11007 0.07596,0.17828 0.07596,0.0682 0.275952,0.13023 l 0.187585,0.0605 q 0.252698,0.0775 0.36897,0.20774 0.117822,0.12867 0.117822,0.32866 0,0.36432 -0.257349,0.57826 -0.257348,0.21239 -0.702282,0.21239 -0.161231,0 -0.31781,-0.0357 -0.15503,-0.0341 -0.310059,-0.10386 l 0.06356,-0.32402 q 0.151929,0.10697 0.306958,0.15813 0.15658,0.0512 0.330213,0.0512 0.255798,0 0.415478,-0.13642 0.15968,-0.13643 0.15968,-0.34572 0,-0.12712 -0.06821,-0.19688 -0.06821,-0.0698 -0.274402,-0.13333 l -0.156579,-0.0512 q -0.285254,-0.0899 -0.399976,-0.20309 -0.113171,-0.11472 -0.113171,-0.30231 0,-0.34261 0.255798,-0.55965 0.255799,-0.21859 0.668177,-0.21859 0.124023,0 0.263549,0.031 0.141077,0.031 0.288355,0.0899 z"
       id="text10"
       aria-label="NODES" /><path
       style="font-style:italic;font-size:3.175px;font-family:Menlo;-inkscape-font-specification:'Menlo Italic';fill:#ffffff;stroke-width:0.352778"
       d="m 8.5620822,122.05713 q 0.111622,0.0217 0.178284,0.10387 0.06821,0.0822 0.151929,0.35656 l 0.187585,0.63252 h -0.311609 l -0.164331,-0.58446 q -0.06821,-0.24184 -0.153479,-0.31781 -0.08371,-0.076 -0.254248,-0.076 h -0.297656 l -0.190686,0.97823 h -0.314709 l 0.448034,-2.31458 h 0.644922 q 0.320911,0 0.496094,0.13952 0.176733,0.13798 0.176733,0.39068 0,0.2837 -0.16123,0.46973 -0.15968,0.18604 -0.435633,0.2217 z m -0.454235,-0.96429 -0.15813,0.82166 h 0.339514 q 0.252698,0 0.403076,-0.13178 0.151929,-0.13332 0.151929,-0.35346 0,-0.17363 -0.09767,-0.25425 -0.09767,-0.0822 -0.308508,-0.0822 z m 2.3176878,0.003 -0.5643068,1.19992 h 0.6666258 z m -0.148829,-0.26045 h 0.381372 l 0.257349,2.31458 h -0.311609 l -0.05426,-0.60306 H 9.7434062 l -0.285254,0.60306 h -0.336414 z m 1.220081,0 h 1.767334 l -0.05116,0.26355 h -0.727087 l -0.396875,2.05103 h -0.31626 l 0.399976,-2.05103 h -0.727088 z m 2.145605,0 h 1.372009 l -0.05116,0.26355 H 13.90284 l -0.133325,0.68523 h 1.012341 l -0.04961,0.26354 h -1.013892 l -0.16123,0.83871 h 1.088306 l -0.05116,0.26355 h -1.403013 z"
       id="text9"
       aria-label="RATE" /><circle
       cx="8.8745346"
       cy="56.135567"
       r="5.3951454"
       style="clip-rule:evenodd;opacity:1;fill:#3b3b3b;fill-rule:evenodd;stroke:#d08c59;stroke-width:0.352778;stroke-linecap:round;stroke-linejoin:round;stroke-miterlimit:1.5;stroke-dasharray:none"
       id="circle6" /><circle
       cx="67.864357"
       cy="56.135567"
       r="5.3951454"
       style="clip-rule:evenodd;opacity:1;fill:#3b3b3b;fill-rule:evenodd;stroke:#d08c59;stroke-width:0.352778;stroke-linecap:round;stroke-linejoin:round;stroke-miterlimit:1.5;stroke-dasharray:none"
       id="circle7" /><g
       id="g7"
       transform="matrix(0.99999625,0,0,0.99999626,-6.6027361,-3.308768)"
       style="stroke:#d08c59;stroke-opacity:1"><path
         id="path401"
         serif:id="path40"
         d="m 23.462812,105.38027 -0.811061,-0.20241 0.201709,-0.81247"
         style="clip-rule:evenodd;display:inline;fill:none;fill-rule:evenodd;stroke:#d08c59;stroke-width:0.246416px;stroke-linecap:butt;stroke-linejoin:miter;stroke-miterlimit:10;stroke-opacity:1" /><path
         id="path411"
         serif:id="path41"
         d="m 14.138422,104.86174 c -1.881565,-1.36656 -3.103437,-3.56881 -3.103437,-6.051283 0,-4.14226 3.40336,-7.50514 7.595605,-7.50514 4.192244,0 7.595956,3.36288 7.595956,7.50514 0,2.135023 -0.904347,4.063053 -2.354683,5.430313 -0.372793,0.35132 -0.781492,0.66603 -1.220112,0.93709"
         style="clip-rule:evenodd;display:inline;fill:none;fill-rule:evenodd;stroke:#d08c59;stroke-width:0.246416px;stroke-linecap:butt;stroke-linejoin:round;stroke-miterlimit:1.5;stroke-opacity:1" /><path
         d="m 14.030703,104.75226 -1.055718,1.49081"
         style="clip-rule:evenodd;display:inline;fill:none;fill-rule:evenodd;stroke:#d08c59;stroke-width:0.264017px;stroke-linecap:square;stroke-linejoin:round;stroke-miterlimit:1.5;stroke-opacity:1"
         id="path67" /></g><g
       id="g9"
       transform="matrix(0.99999625,0,0,0.99999626,44.684972,-3.308768)"><path
         id="path7"
         serif:id="path40"
         d="m 23.462812,105.38027 -0.811061,-0.20241 0.201709,-0.81247"
         style="clip-rule:evenodd;display:none;fill:none;fill-rule:evenodd;stroke:#d08c59;stroke-width:0.246416px;stroke-linecap:butt;stroke-linejoin:miter;stroke-miterlimit:10"
         inkscape:label="path7" /><path
         id="path8"
         serif:id="path41"
         d="m 14.124439,104.80246 c -1.873411,-1.36064 -3.089988,-3.55335 -3.089988,-6.02506 0,-4.12431 3.388612,-7.472617 7.56269,-7.472617 4.174077,0 7.563039,3.348307 7.563039,7.472617 0,2.12577 -0.900428,4.04545 -2.344479,5.40678 -0.371178,0.3498 -0.778106,0.66314 -1.214825,0.93303"
         style="clip-rule:evenodd;display:inline;fill:none;fill-rule:evenodd;stroke:#d08c59;stroke-width:0.245348px;stroke-linecap:butt;stroke-linejoin:round;stroke-miterlimit:1.5" /><path
         d="m 14.030703,104.75226 -1.055718,1.49081"
         style="clip-rule:evenodd;display:inline;fill:none;fill-rule:evenodd;stroke:#d08c59;stroke-width:0.264017px;stroke-linecap:square;stroke-linejoin:round;stroke-miterlimit:1.5"
         id="path9"
         inkscape:label="path9" /><path
         d="m 10.996246,92.880613 1.499614,1.331102"
         style="clip-rule:evenodd;display:inline;fill:none;fill-rule:evenodd;stroke:#d08c59;stroke-width:0.264017px;stroke-linecap:square;stroke-linejoin:round;stroke-miterlimit:1.5"
         id="path2"
         inkscape:label="path2"
         sodipodi:nodetypes="cc" /><path
         d="m 26.230769,92.880613 -1.499614,1.331102"
         style="clip-rule:evenodd;display:inline;fill:none;fill-rule:evenodd;stroke:#d08c59;stroke-width:0.264017px;stroke-linecap:square;stroke-linejoin:round;stroke-miterlimit:1.5"
         id="path3"
         inkscape:label="path2"
         sodipodi:nodetypes="cc" /><path
         d="m 22.720185,105.05779 0.933509,1.27694"
         style="clip-rule:evenodd;display:inline;fill:none;fill-rule:evenodd;stroke:#d08c59;stroke-width:0.264017px;stroke-linecap:square;stroke-linejoin:round;stroke-miterlimit:1.5"
         id="path4"
         inkscape:label="path9"
         sodipodi:nodetypes="cc" /></g><path
       d="M 11.802735,96.721199 V 115.17185"
       style="clip-rule:evenodd;fill:none;fill-rule:evenodd;stroke:#d08c59;stroke-width:0.264018px;stroke-linecap:square;stroke-linejoin:round;stroke-miterlimit:1.5"
       id="path66" /><path
       d="m 14.105319,104.24378 0.05421,-0.25979 h 0.674477 l 0.145385,-0.67905 h 0.26437 l -0.145386,0.67905 h 0.674477 l -0.05421,0.25979 h -0.674476 l -0.143626,0.67765 h -0.264722 l 0.143977,-0.67765 z"
       style="clip-rule:evenodd;fill:#d08c59;fill-rule:nonzero;stroke-width:0.352023;stroke-linecap:square;stroke-linejoin:round;stroke-miterlimit:1.5"
       id="path69" /><path
       d="m 8.391278,103.93154 h 1.774549 l -0.04963,0.2274 H 8.342 Z"
       style="clip-rule:evenodd;fill:#d08c59;fill-rule:nonzero;stroke-width:0.352023;stroke-linecap:square;stroke-linejoin:round;stroke-miterlimit:1.5"
       id="path70" /><path
       d="M 63.328068,96.721199 V 115.17185"
       style="clip-rule:evenodd;fill:none;fill-rule:evenodd;stroke:#d08c59;stroke-width:0.264018px;stroke-linecap:square;stroke-linejoin:round;stroke-miterlimit:1.5"
       id="path10" /><path
       d="m 65.602876,104.24378 0.05421,-0.25979 h 0.674477 l 0.145385,-0.67905 h 0.26437 l -0.145386,0.67905 h 0.674477 l -0.05421,0.25979 h -0.674476 l -0.143626,0.67765 h -0.264722 l 0.143977,-0.67765 z"
       style="clip-rule:evenodd;fill:#d08c59;fill-rule:nonzero;stroke-width:0.352023;stroke-linecap:square;stroke-linejoin:round;stroke-miterlimit:1.5"
       id="path11" /><path
       d="m 59.888835,103.93154 h 1.774549 l -0.04963,0.2274 h -1.774197 z"
       style="clip-rule:evenodd;fill:#d08c59;fill-rule:nonzero;stroke-width:0.352023;stroke-linecap:square;stroke-linejoin:round;stroke-miterlimit:1.5"
       id="path12" /><path
       d="m 70.77711,13.191899 1.361918,0.792052 -1.361918,0.792053 z"
       style="clip-rule:evenodd;fill:#d08c59;fill-rule:evenodd;stroke-width:0.326403;stroke-linecap:square;stroke-linejoin:round;stroke-miterlimit:1.5"
       id="path13" /><path
       d="m 68.791736,13.983951 h 2.257758"
       style="clip-rule:evenodd;fill:none;fill-rule:evenodd;stroke:#d08c59;stroke-width:0.326403px;stroke-linecap:square;stroke-linejoin:miter;stroke-miterlimit:1.5"
       id="path14" /><path
       d="m 15.769196,13.983951 h 2.257758"
       style="clip-rule:evenodd;fill:none;fill-rule:evenodd;stroke:#d08c59;stroke-width:0.326403px;stroke-linecap:square;stroke-linejoin:miter;stroke-miterlimit:1.5"
       id="path15" /><path
       d="m 7.3401206,13.191899 1.361918,0.792052 -1.361918,0.792053 z"
       style="clip-rule:evenodd;fill:#d08c59;fill-rule:evenodd;stroke-width:0.326403;stroke-linecap:square;stroke-linejoin:round;stroke-miterlimit:1.5"
       id="path16" /><path
       d="m 5.3547456,13.983951 h 2.257758"
       style="clip-rule:evenodd;fill:none;fill-rule:evenodd;stroke:#d08c59;stroke-width:0.326403px;stroke-linecap:square;stroke-linejoin:miter;stroke-miterlimit:1.5"
       id="path17" /><path
       d="m 5.3547456,13.983951 h 2.257758"
       style="clip-rule:evenodd;fill:none;fill-rule:evenodd;stroke:#d08c59;stroke-width:0.326403px;stroke-linecap:square;stroke-linejoin:miter;stroke-miterlimit:1.5"
       id="path18" /><path
       style="font-style:italic;font-size:2.82222px;font-family:Menlo;-inkscape-font-specification:'Menlo Italic';text-align:end;text-anchor:end;fill:#ffffff;stroke-width:0.352778;stroke-linejoin:round"
       d="m 29.356351,21.757796 -0.150206,0.773079 h 0.322461 q 0.227376,0 0.362424,-0.130913 0.136425,-0.132292 0.136425,-0.3514 0,-0.148828 -0.08544,-0.219108 -0.08544,-0.07166 -0.264583,-0.07166 z m -0.234266,-0.228754 h 0.606336 q 0.283876,0 0.432704,0.12678 0.148828,0.126779 0.148828,0.366557 0,0.343132 -0.220486,0.540191 -0.220486,0.197059 -0.606336,0.197059 h -0.321083 l -0.16123,0.826823 h -0.279742 z m 1.617815,0 h 0.278364 l -0.162608,0.843359 h 0.762054 l 0.162609,-0.843359 h 0.279741 l -0.401009,2.05741 h -0.278363 l 0.191547,-0.979785 h -0.764811 l -0.188791,0.979785 h -0.279741 z m 2.321993,0.23151 -0.501605,1.066601 h 0.592556 z m -0.132291,-0.23151 h 0.338997 l 0.228754,2.05741 h -0.276986 l -0.04823,-0.536057 h -0.716579 l -0.253559,0.536057 h -0.299034 z m 2.399162,0.07028 -0.05374,0.282498 q -0.111621,-0.08131 -0.23151,-0.122646 -0.119889,-0.04134 -0.248047,-0.04134 -0.227376,0 -0.370692,0.112999 -0.143316,0.112999 -0.143316,0.28801 0,0.09784 0.06752,0.158474 0.06752,0.06063 0.245291,0.115755 l 0.166742,0.05374 q 0.22462,0.0689 0.327973,0.184657 0.104731,0.114377 0.104731,0.292144 0,0.323838 -0.228754,0.514008 -0.228755,0.188791 -0.624251,0.188791 -0.143316,0 -0.282498,-0.03169 -0.137804,-0.03032 -0.275607,-0.09233 l 0.0565,-0.288009 q 0.135048,0.09508 0.272852,0.140559 0.139181,0.04548 0.293522,0.04548 0.227376,0 0.369313,-0.121268 0.141938,-0.121267 0.141938,-0.307302 0,-0.112999 -0.06063,-0.175011 -0.06063,-0.06201 -0.243913,-0.118511 l -0.139182,-0.04547 q -0.253558,-0.07993 -0.355533,-0.180523 -0.100597,-0.101975 -0.100597,-0.268717 0,-0.304546 0.227376,-0.497472 0.227376,-0.194303 0.593934,-0.194303 0.110243,0 0.234267,0.02756 0.125401,0.02756 0.256314,0.07993 z m 0.592556,-0.07028 h 1.219563 l -0.04548,0.234266 H 36.15283 l -0.118511,0.609093 h 0.899858 l -0.0441,0.234266 h -0.901236 l -0.143316,0.745518 h 0.967382 l -0.04548,0.234267 h -1.247124 z m 3.979772,1.085893 q 0.09922,0.01929 0.158474,0.09233 0.06063,0.07304 0.135048,0.316948 l 0.166742,0.56224 h -0.276985 l -0.146072,-0.51952 q -0.06063,-0.214974 -0.136426,-0.282498 -0.07441,-0.06752 -0.225998,-0.06752 h -0.264583 l -0.169499,0.869542 h -0.279741 l 0.398253,-2.05741 h 0.573263 q 0.285254,0 0.440972,0.124023 0.157096,0.122646 0.157096,0.347266 0,0.252181 -0.143316,0.417545 -0.141937,0.165365 -0.387228,0.197059 z m -0.403765,-0.857139 -0.14056,0.73036 h 0.30179 q 0.22462,0 0.35829,-0.117133 0.135048,-0.118511 0.135048,-0.314193 0,-0.15434 -0.08682,-0.225998 -0.08682,-0.07304 -0.274229,-0.07304 z m 1.521353,-0.228754 h 1.219563 l -0.04548,0.234266 H 41.25019 l -0.118511,0.609093 h 0.899858 l -0.0441,0.234266 h -0.901236 l -0.143316,0.745518 h 0.967382 l -0.04547,0.234267 h -1.247124 z m 2.805683,0.07028 -0.05374,0.282498 q -0.111621,-0.08131 -0.23151,-0.122646 -0.11989,-0.04134 -0.248047,-0.04134 -0.227376,0 -0.370692,0.112999 -0.143316,0.112999 -0.143316,0.28801 0,0.09784 0.06752,0.158474 0.06752,0.06063 0.24529,0.115755 l 0.166743,0.05374 q 0.22462,0.0689 0.327973,0.184657 0.104731,0.114377 0.104731,0.292144 0,0.323838 -0.228755,0.514008 -0.228754,0.188791 -0.62425,0.188791 -0.143316,0 -0.282498,-0.03169 -0.137804,-0.03032 -0.275607,-0.09233 l 0.0565,-0.288009 q 0.135048,0.09508 0.272851,0.140559 0.139182,0.04548 0.293522,0.04548 0.227376,0 0.369314,-0.121268 0.141938,-0.121267 0.141938,-0.307302 0,-0.112999 -0.06063,-0.175011 -0.06063,-0.06201 -0.243912,-0.118511 l -0.139182,-0.04547 q -0.253559,-0.07993 -0.355533,-0.180523 -0.100597,-0.101975 -0.100597,-0.268717 0,-0.304546 0.227376,-0.497472 0.227376,-0.194303 0.593934,-0.194303 0.110243,0 0.234266,0.02756 0.125402,0.02756 0.256315,0.07993 z m 0.592556,-0.07028 h 1.219563 l -0.04548,0.234266 h -0.942578 l -0.118511,0.609093 h 0.899858 l -0.0441,0.234266 h -0.901236 l -0.143316,0.745518 h 0.967382 l -0.04548,0.234267 H 44.01591 Z m 1.491036,0 h 1.570962 l -0.04548,0.234266 h -0.646299 l -0.352778,1.823144 h -0.281119 l 0.355533,-1.823144 H 45.86248 Z"
       id="text2"
       aria-label="PHASE RESET" /><g
       aria-label="SYNC"
       id="text31575"
       style="font-style:italic;font-size:3.175px;font-family:Menlo;-inkscape-font-specification:'Menlo Italic';text-align:center;text-anchor:middle;opacity:1;fill:#ffffff;stroke-width:0.352777"
       transform="translate(-0.11498167,0.39965)"><path
         d="m 35.638246,119.23227 -0.06046,0.31781 q -0.125574,-0.0915 -0.260449,-0.13797 -0.134876,-0.0465 -0.279053,-0.0465 -0.255799,0 -0.417029,0.12712 -0.16123,0.12713 -0.16123,0.32401 0,0.11008 0.07596,0.17829 0.07596,0.0682 0.275952,0.13022 l 0.187585,0.0605 q 0.252698,0.0775 0.36897,0.20774 0.117822,0.12868 0.117822,0.32867 0,0.36431 -0.257348,0.57825 -0.257349,0.21239 -0.702283,0.21239 -0.16123,0 -0.31781,-0.0357 -0.155029,-0.0341 -0.310058,-0.10387 l 0.06356,-0.32401 q 0.151928,0.10697 0.306958,0.15813 0.156579,0.0512 0.330212,0.0512 0.255798,0 0.415478,-0.13643 0.159681,-0.13642 0.159681,-0.34571 0,-0.12713 -0.06821,-0.19689 -0.06821,-0.0698 -0.274402,-0.13333 l -0.15658,-0.0512 q -0.285254,-0.0899 -0.399975,-0.20308 -0.113172,-0.11473 -0.113172,-0.30231 0,-0.34262 0.255799,-0.55966 0.255798,-0.21859 0.668176,-0.21859 0.124023,0 0.26355,0.031 0.141076,0.031 0.288354,0.0899 z"
         id="path32061" /><path
         d="m 36.073878,119.15321 h 0.31316 l 0.365869,1.00924 0.770495,-1.00924 h 0.337964 l -0.984436,1.27589 -0.199988,1.0387 h -0.32091 l 0.203088,-1.0387 z"
         id="path32063" /><path
         d="m 38.124916,119.15321 h 0.396875 l 0.409277,1.90531 0.37052,-1.90531 h 0.302308 l -0.451136,2.31459 h -0.396875 l -0.409277,-1.90531 -0.37207,1.90531 h -0.300757 z"
         id="path32065" /><path
         d="m 41.05807,121.38563 q -0.130225,0.0636 -0.26355,0.0946 -0.131775,0.0326 -0.272851,0.0326 -0.356568,0 -0.553455,-0.20618 -0.195337,-0.20619 -0.195337,-0.57826 0,-0.34107 0.108521,-0.67593 0.10852,-0.33486 0.285254,-0.54725 0.165881,-0.20154 0.365869,-0.29766 0.199988,-0.0961 0.455786,-0.0961 0.124023,0 0.246496,0.0326 0.122474,0.0326 0.238746,0.0946 l -0.06356,0.32091 q -0.09922,-0.0977 -0.20929,-0.14573 -0.110071,-0.0481 -0.234094,-0.0481 -0.147278,0 -0.272852,0.0636 -0.125574,0.062 -0.235644,0.19069 -0.161231,0.19068 -0.26045,0.48834 -0.09767,0.29766 -0.09767,0.59686 0,0.2682 0.120923,0.41083 0.120923,0.14263 0.348816,0.14263 0.131775,0 0.271301,-0.0496 0.141077,-0.0496 0.277502,-0.14418 z"
         id="path32067" /></g><g
       aria-label="RANGE"
       id="text32059"
       style="font-style:italic;font-size:3.175px;font-family:Menlo;-inkscape-font-specification:'Menlo Italic';text-align:center;text-anchor:middle;opacity:1;fill:#ffffff;stroke-width:0.352777"
       transform="translate(0.41071497,-0.79993)"><path
         d="m 34.091829,106.54435 q 0.111621,0.0217 0.178284,0.10387 0.06821,0.0822 0.151928,0.35657 l 0.187586,0.63252 h -0.311609 l -0.164331,-0.58446 q -0.06821,-0.24185 -0.153479,-0.31781 -0.08372,-0.076 -0.254248,-0.076 h -0.297656 l -0.190686,0.97824 h -0.31471 l 0.448035,-2.31459 h 0.644922 q 0.32091,0 0.496093,0.13953 0.176734,0.13797 0.176734,0.39067 0,0.2837 -0.161231,0.46974 -0.15968,0.18603 -0.435632,0.22169 z m -0.454236,-0.96428 -0.15813,0.82165 h 0.339514 q 0.252698,0 0.403077,-0.13177 0.151928,-0.13333 0.151928,-0.35347 0,-0.17363 -0.09767,-0.25425 -0.09767,-0.0822 -0.308508,-0.0822 z"
         id="path32070" /><path
         d="m 35.955281,105.58317 -0.564307,1.19992 H 36.0576 Z m -0.148828,-0.26045 h 0.381372 l 0.257349,2.31459 h -0.311609 l -0.05426,-0.60307 h -0.806153 l -0.285254,0.60307 h -0.336413 z"
         id="path32072" /><path
         d="m 37.16916,105.32272 h 0.396875 l 0.409278,1.90531 0.37052,-1.90531 h 0.302307 l -0.451135,2.31459 H 37.80013 l -0.409278,-1.90531 -0.37207,1.90531 h -0.300757 z"
         id="path32074" /><path
         d="m 40.141072,107.48848 q -0.134876,0.0961 -0.294556,0.14573 -0.15968,0.0481 -0.341064,0.0481 -0.359668,0 -0.553455,-0.20773 -0.192236,-0.20929 -0.192236,-0.59532 0,-0.13952 0.0248,-0.2961 0.02636,-0.15813 0.07596,-0.33022 0.05426,-0.18138 0.127124,-0.32711 0.07286,-0.14728 0.15968,-0.25114 0.165881,-0.20154 0.365869,-0.29766 0.201538,-0.0961 0.458887,-0.0961 0.124023,0 0.246496,0.0326 0.124024,0.0326 0.243396,0.0946 l -0.06356,0.32092 q -0.100769,-0.0977 -0.21239,-0.14573 -0.110071,-0.0481 -0.235644,-0.0481 -0.151929,0 -0.285254,0.0651 -0.133325,0.0636 -0.238745,0.18914 -0.06821,0.0806 -0.128675,0.20154 -0.06046,0.12092 -0.10697,0.2713 -0.05271,0.17673 -0.08062,0.33176 -0.02635,0.15503 -0.02635,0.2806 0,0.2651 0.122473,0.40928 0.122473,0.14418 0.347266,0.14418 0.10542,0 0.189135,-0.0279 0.08372,-0.0294 0.141077,-0.0837 l 0.117822,-0.60927 h -0.336413 l 0.04651,-0.25735 h 0.63562 z"
         id="path32076" /><path
         d="m 41.08365,105.32272 h 1.372009 l -0.05116,0.26355 h -1.060401 l -0.133325,0.68523 h 1.012341 l -0.04961,0.26355 h -1.013892 l -0.16123,0.83871 h 1.088306 l -0.05116,0.26355 h -1.403015 z"
         id="path32078" /></g><path
       id="path32378"
       d="m 25.633555,105.62048 h 6.62227"
       style="clip-rule:evenodd;fill:none;fill-rule:evenodd;stroke:#d08c59;stroke-width:0.227961px;stroke-linecap:round;stroke-linejoin:round;stroke-miterlimit:1.5" /><path
       id="path32380"
       d="m 43.944172,105.62048 h 6.62227"
       style="clip-rule:evenodd;fill:none;fill-rule:evenodd;stroke:#d08c59;stroke-width:0.227961px;stroke-linecap:round;stroke-linejoin:round;stroke-miterlimit:1.5" /></g></svg>
