<?xml version="1.0" encoding="UTF-8" standalone="no"?>
<!-- Created with Inkscape (http://www.inkscape.org/) -->

<svg
   width="50.799999mm"
   height="128.5mm"
   viewBox="0 0 50.800003 128.50002"
   version="1.1"
   id="svg8"
   inkscape:version="1.2 (dc2aeda, 2022-05-15)"
   sodipodi:docname="Hub-dark.svg"
   xml:space="preserve"
   xmlns:inkscape="http://www.inkscape.org/namespaces/inkscape"
   xmlns:sodipodi="http://sodipodi.sourceforge.net/DTD/sodipodi-0.dtd"
   xmlns="http://www.w3.org/2000/svg"
   xmlns:svg="http://www.w3.org/2000/svg"
   xmlns:rdf="http://www.w3.org/1999/02/22-rdf-syntax-ns#"
   xmlns:cc="http://creativecommons.org/ns#"
   xmlns:dc="http://purl.org/dc/elements/1.1/"
   xmlns:serif="http://www.serif.com/"><defs
     id="defs2"><linearGradient
       id="_Linear1"
       x1="0"
       y1="0"
       x2="1"
       y2="-0.0028738601"
       gradientUnits="userSpaceOnUse"
       gradientTransform="matrix(75.07254,292.27101,-293.02254,74.879903,36.973994,42.144002)"><stop
         offset="0"
         style="stop-color:#e6e6e6;stop-opacity:1"
         id="stop1" /><stop
         offset="1"
         style="stop-color:#e6e6e6;stop-opacity:0"
         id="stop2" /></linearGradient></defs><sodipodi:namedview
     id="base"
     pagecolor="#ffffff"
     bordercolor="#666666"
     borderopacity="1.0"
     inkscape:pageopacity="0.0"
     inkscape:pageshadow="2"
     inkscape:zoom="1.5115134"
     inkscape:cx="94.276369"
     inkscape:cy="211.70834"
     inkscape:document-units="mm"
     inkscape:current-layer="Layer-1"
     showgrid="false"
     units="mm"
     inkscape:snap-bbox="true"
     inkscape:snap-page="true"
     inkscape:bbox-nodes="false"
     inkscape:snap-bbox-edge-midpoints="false"
     inkscape:window-width="1392"
     inkscape:window-height="916"
     inkscape:window-x="80"
     inkscape:window-y="38"
     inkscape:window-maximized="0"
     inkscape:snap-bbox-midpoints="true"
     inkscape:snap-nodes="false"
     inkscape:showpageshadow="2"
     inkscape:pagecheckerboard="0"
     inkscape:deskcolor="#d1d1d1"
     showguides="true" /><metadata
     id="metadata5"><rdf:RDF><cc:Work
         rdf:about=""><dc:format>image/svg+xml</dc:format><dc:type
           rdf:resource="http://purl.org/dc/dcmitype/StillImage" /></cc:Work></rdf:RDF></metadata><g
     id="Layer-1"
     serif:id="Layer 1"
     style="clip-rule:evenodd;fill-rule:evenodd;stroke-linejoin:round;stroke-miterlimit:1.5"
     transform="matrix(0.35618918,0,0,0.35618918,-0.39015967,-0.81904413)"><rect
       id="rect1"
       x="0.52905142"
       y="0.79500002"
       width="143.75348"
       height="364.815"
       style="fill:#202020;stroke-width:0.999998" /><path
       id="path22526"
       d="m 106.92407,117.91946 h 17.01515"
       style="clip-rule:evenodd;display:inline;fill:none;fill-rule:evenodd;stroke:#d08c59;stroke-width:0.990422;stroke-linecap:round;stroke-linejoin:round;stroke-miterlimit:1.5;stroke-dasharray:none;stroke-opacity:1" /><g
       id="g3"
       transform="translate(-1.5477091)"><path
         id="path128"
         d="m 65.011,354.825 c 0.168,0.356 0.223,0.713 0.164,1.073 h -1.177 c -0.018,-0.276 -0.072,-0.484 -0.164,-0.624 -0.161,-0.25 -0.452,-0.375 -0.872,-0.375 -0.428,0 -0.803,0.176 -1.123,0.529 -0.321,0.352 -0.548,0.85 -0.682,1.495 -0.135,0.645 -0.106,1.127 0.089,1.449 0.194,0.321 0.492,0.481 0.894,0.481 0.413,0 0.757,-0.138 1.032,-0.414 0.151,-0.147 0.296,-0.37 0.436,-0.666 h 1.166 c -0.232,0.627 -0.599,1.136 -1.099,1.529 -0.501,0.391 -1.079,0.588 -1.734,0.588 -0.81,0 -1.392,-0.265 -1.746,-0.795 -0.352,-0.533 -0.43,-1.263 -0.237,-2.192 0.208,-1.003 0.633,-1.777 1.273,-2.32 0.558,-0.473 1.191,-0.71 1.899,-0.71 0.948,0 1.574,0.318 1.881,0.952 z"
         style="fill:#ffffff;fill-rule:nonzero" /><path
         id="path129"
         d="m 67.617,358.347 2.145,-4.364 h 1.223 l -3.119,5.746 h -1.112 l -0.708,-5.746 h 1.259 z"
         style="fill:#ffffff;fill-rule:nonzero" /><path
         id="path130"
         d="m 75.43,355.519 -0.165,0.784 h -0.713 l -0.712,3.426 h -1.085 l 0.712,-3.426 h -0.609 l 0.164,-0.784 h 0.597 l 0.056,-0.273 c 0.096,-0.455 0.236,-0.768 0.421,-0.94 0.212,-0.254 0.619,-0.382 1.223,-0.382 0.069,0 0.131,0.002 0.186,0.006 0.055,0.004 0.131,0.01 0.228,0.017 l -0.191,0.906 c -0.059,-0.008 -0.16,-0.014 -0.302,-0.018 -0.143,-0.004 -0.25,0.028 -0.32,0.097 -0.07,0.069 -0.112,0.145 -0.128,0.228 -0.018,0.084 -0.043,0.203 -0.077,0.359 z"
         style="fill:#ffffff;fill-rule:nonzero" /><path
         id="path131"
         d="m 77.976,359.13 c -0.012,0.013 -0.046,0.052 -0.1,0.117 -0.053,0.065 -0.113,0.121 -0.179,0.171 -0.204,0.156 -0.392,0.262 -0.564,0.319 -0.171,0.057 -0.364,0.086 -0.579,0.086 -0.616,0 -0.985,-0.225 -1.104,-0.678 -0.067,-0.249 -0.049,-0.617 0.053,-1.103 l 0.532,-2.562 h 1.115 l -0.531,2.562 c -0.051,0.242 -0.061,0.423 -0.031,0.546 0.054,0.216 0.226,0.324 0.516,0.324 0.372,0 0.659,-0.154 0.861,-0.461 0.107,-0.166 0.189,-0.386 0.245,-0.658 l 0.481,-2.313 h 1.104 l -0.883,4.249 h -1.058 z"
         style="fill:#ffffff;fill-rule:nonzero" /><path
         id="path132"
         d="m 83.159,357.146 c 0.048,-0.224 0.055,-0.396 0.019,-0.515 -0.061,-0.219 -0.241,-0.328 -0.542,-0.328 -0.37,0 -0.657,0.16 -0.86,0.479 -0.108,0.17 -0.188,0.386 -0.241,0.648 l -0.478,2.299 h -1.085 l 0.882,-4.242 h 1.052 l -0.13,0.62 c 0.185,-0.217 0.351,-0.375 0.497,-0.471 0.259,-0.172 0.562,-0.257 0.905,-0.257 0.431,0 0.759,0.114 0.985,0.345 0.225,0.23 0.283,0.611 0.173,1.144 l -0.596,2.861 h -1.116 z"
         style="fill:#ffffff;fill-rule:nonzero" /><path
         id="path133"
         d="m 86.079,358.394 -0.274,1.335 h -1.071 l 1.193,-5.727 h 1.07 l -0.647,3.097 1.69,-1.6 h 1.35 l -1.797,1.627 0.974,2.603 h -1.315 l -0.618,-1.816 z"
         style="fill:#ffffff;fill-rule:nonzero" /><path
         id="path134"
         d="M 38.954,356.882 H 57.546"
         style="fill:none;stroke:#d08c59;stroke-width:0.64px;stroke-linecap:round" /><path
         id="path135"
         d="m 90.361,356.882 h 18.592"
         style="fill:none;stroke:#d08c59;stroke-width:0.64px;stroke-linecap:round" /></g><path
       d="m 56.257323,7.6498806 h 1.980837 l 2.042739,9.5095664 1.849297,-9.5095664 h 1.508841 L 61.387382,19.202186 H 59.406545 L 57.363806,9.6926193 55.506771,19.202186 H 54.005668 Z M 67.47691,18.157604 q 0.6577,0 1.21481,-0.39462 0.557111,-0.39462 0.92078,-1.129696 0.572586,-1.121959 0.928518,-2.715914 0.355932,-1.593955 0.355932,-3.064108 0,-1.0987457 -0.410096,-1.6171677 -0.402357,-0.52616 -1.253498,-0.52616 -0.6577,0 -1.207073,0.39462 -0.549373,0.39462 -0.913043,1.1296957 -0.588061,1.137434 -0.943992,2.715914 -0.355932,1.57848 -0.355932,3.048633 0,1.106483 0.402358,1.632643 0.410095,0.52616 1.261236,0.52616 z m 5.021732,-6.847817 q 0,0.851141 -0.177966,1.849297 -0.170228,0.998157 -0.502947,2.050477 -0.224391,0.711863 -0.487471,1.276711 -0.255343,0.564848 -0.557111,1.02137 -0.680913,0.982681 -1.524316,1.454677 -0.843404,0.464259 -1.965362,0.464259 -1.555267,0 -2.305819,-0.951731 -0.750552,-0.95173 -0.750552,-2.932568 0,-0.858878 0.162491,-1.841559 0.170228,-0.990419 0.502947,-2.042739 0.224392,-0.711864 0.479734,-1.276712 0.26308,-0.5648477 0.564848,-1.0213687 0.680913,-0.9826807 1.524317,-1.4469397 0.843403,-0.471996 1.965362,-0.471996 1.563004,0 2.313556,0.95173 0.758289,0.9439927 0.758289,2.9170924 z m 2.839716,-3.6599064 h 1.980838 l 2.042739,9.5095664 1.849297,-9.5095664 h 1.508841 L 80.468418,19.202186 H 78.48758 L 76.444842,9.6926193 74.587807,19.202186 h -1.501104 z m 13.022459,1.2999247 -2.816503,5.9889377 h 3.327188 z M 87.618003,7.6498806 h 1.903461 l 1.284449,11.5523054 h -1.555267 l -0.270817,-3.009944 h -4.023576 l -1.423727,3.009944 h -1.67907 z"
       id="text1"
       style="font-style:italic;font-size:15.8467px;font-family:Menlo;-inkscape-font-specification:'Menlo Italic';display:none;fill:#ffffff;stroke-width:0.742817"
       aria-label="NONA" /><path
       d="m 47.026311,19.212257 q 1.431464,0 2.298081,-0.479734 0.866616,-0.487472 1.392776,-1.57848 0.417833,-0.88983 0.680913,-2.120115 0.270818,-1.238024 0.270818,-2.267131 0,-1.361826 -0.634487,-1.949887 -0.634487,-0.588061 -2.127853,-0.588061 h -0.882092 l -1.748708,8.983408 z M 49.053574,8.9444003 q 2.112378,0 3.15696,0.959468 1.05232,0.9594677 1.05232,2.9093547 0,1.253499 -0.324981,2.584374 -0.324982,1.330875 -0.874354,2.359982 -0.804716,1.477891 -2.011788,2.112378 -1.199336,0.626749 -3.249812,0.626749 H 44.457412 L 46.709067,8.9444003 Z m 7.668008,0 h 6.847817 L 63.314056,10.2598 h -5.29255 l -0.665437,3.42004 h 5.052683 l -0.247605,1.315399 h -5.060421 l -0.804715,4.186067 h 5.431828 l -0.255343,1.3154 h -7.00257 z M 70.904687,20.086611 q -0.649962,0.317243 -1.3154,0.471996 -0.6577,0.162491 -1.361825,0.162491 -1.779659,0 -2.76234,-1.029107 -0.974944,-1.029107 -0.974944,-2.886142 0,-1.702283 0.541636,-3.373614 0.541635,-1.671332 1.423727,-2.731389 0.827928,-1.0058937 1.826084,-1.4856277 0.998156,-0.479735 2.274868,-0.479735 0.619012,0 1.230286,0.162491 0.611274,0.162491 1.191597,0.471996 l -0.317243,1.6016927 q -0.495209,-0.487471 -1.044582,-0.727338 -0.549373,-0.239868 -1.168385,-0.239868 -0.735076,0 -1.361826,0.317244 -0.626749,0.309506 -1.176122,0.951731 -0.804715,0.95173 -1.299925,2.437358 -0.487471,1.485628 -0.487471,2.978994 0,1.338613 0.603536,2.050476 0.603537,0.711864 1.740971,0.711864 0.657699,0 1.354088,-0.247605 0.704125,-0.247605 1.385038,-0.719601 z M 75.818092,8.9444003 h 6.422247 L 81.984997,10.2598 h -2.429621 l -1.725496,8.921506 h 2.429621 l -0.255342,1.3154 h -6.422246 l 0.255342,-1.3154 h 2.421883 L 77.992371,10.2598 H 75.56275 Z m 8.635214,0 h 2.081427 l 0.851141,5.8496607 3.203385,-5.8496607 h 2.089165 L 90.426769,20.496706 h -1.439203 l 1.996313,-10.267857 -3.358138,6.151429 h -1.091008 l -0.88983,-6.151429 -1.980837,10.267857 H 82.224863 Z M 97.90907,10.244325 95.092571,16.233263 H 98.41976 Z M 97.16626,8.9444003 h 1.90346 l 1.28445,11.5523057 H 98.7989 l -0.27081,-3.009944 h -4.02358 l -1.423727,3.009944 h -1.679069 z"
       id="text2"
       style="font-style:italic;font-size:15.8467px;font-family:Menlo;-inkscape-font-specification:'Menlo Italic';display:none;fill:#ffffff;stroke-width:0.742817"
       aria-label="DECIMA"
       inkscape:label="text2" /><path
       id="path219"
       d="M 34.601416,166.4611 H 49.965188"
       style="clip-rule:evenodd;display:inline;fill:none;fill-rule:evenodd;stroke:#d08c59;stroke-width:0.701874;stroke-linecap:round;stroke-linejoin:round;stroke-miterlimit:1.5;stroke-dasharray:none;stroke-opacity:1" /><path
       id="path220"
       d="M 93.571536,166.4611 H 110.21015"
       style="clip-rule:evenodd;display:inline;fill:none;fill-rule:evenodd;stroke:#d08c59;stroke-width:0.701874;stroke-linecap:round;stroke-linejoin:round;stroke-miterlimit:1.5;stroke-dasharray:none;stroke-opacity:1" /><path
       id="path20"
       d="M 25.308864,68.650683 H 63.160623"
       style="clip-rule:evenodd;display:inline;fill:none;fill-rule:evenodd;stroke:#d08c59;stroke-width:0.990422;stroke-linecap:round;stroke-linejoin:round;stroke-miterlimit:1.5;stroke-dasharray:none;stroke-opacity:1" /><path
       id="path27"
       d="M 72.405791,33.34724 V 71.199004"
       style="clip-rule:evenodd;display:inline;fill:none;fill-rule:evenodd;stroke:#d08c59;stroke-width:0.990422;stroke-linecap:round;stroke-linejoin:round;stroke-miterlimit:1.5;stroke-dasharray:none;stroke-opacity:1" /><path
       id="path920"
       d="M 52.887273,150.86556 H 90.739032"
       style="clip-rule:evenodd;display:inline;fill:none;fill-rule:evenodd;stroke:#d08c59;stroke-width:0.990422;stroke-linecap:round;stroke-linejoin:round;stroke-miterlimit:1.5;stroke-dasharray:none;stroke-opacity:1" /><g
       aria-label="HUB"
       id="text1082"
       style="font-style:italic;font-size:15.8468px;font-family:Menlo;-inkscape-font-specification:'Menlo Italic';text-align:center;text-anchor:middle;fill:#ffffff;stroke:none;stroke-width:0.99042;stroke-linecap:square;paint-order:fill markers stroke"
       transform="translate(0.3639079)"><path
         d="m 60.207079,9.6028315 h 1.563014 l -0.913048,4.7354695 h 4.278946 l 0.913048,-4.7354695 h 1.570752 L 65.368122,21.15521 h -1.563015 l 1.07554,-5.501501 h -4.294421 l -1.060064,5.501501 h -1.570753 z"
         style="fill:#ffffff;stroke:none;stroke-width:0.990423"
         id="path2499" /><path
         d="m 68.447724,16.721511 1.37731,-7.1186795 h 1.570752 l -1.385048,7.1186795 q -0.01548,0.10059 -0.0619,0.317246 -0.232131,1.191605 -0.232131,1.648129 0,0.711868 0.417835,1.067802 0.425574,0.355934 1.27672,0.355934 0.688655,0 1.168392,-0.216656 0.479737,-0.224393 0.827934,-0.70413 0.170229,-0.239869 0.340458,-0.820196 0.177967,-0.588065 0.386885,-1.648129 l 1.37731,-7.1186795 h 1.570752 l -1.37731,7.1186795 q -0.324983,1.694555 -0.696393,2.491538 -0.363671,0.789245 -0.967211,1.27672 -0.549377,0.433311 -1.253507,0.665441 -0.70413,0.224394 -1.524326,0.224394 -1.485638,0 -2.290358,-0.696393 -0.796982,-0.696392 -0.796982,-1.98085 0,-0.286295 0.0619,-0.773769 0.06964,-0.487475 0.208918,-1.207081 z"
         style="fill:#ffffff;stroke:none;stroke-width:0.990423"
         id="path2501" /><path
         d="m 79.922726,15.638234 -0.827934,4.232519 h 1.918949 q 1.423736,0 2.174292,-0.673179 0.758294,-0.67318 0.758294,-1.942162 0,-0.827933 -0.526163,-1.222556 -0.526163,-0.394622 -1.632654,-0.394622 z m 0.913048,-4.750945 -0.680918,3.481963 h 1.887998 q 1.168392,0 1.833834,-0.557114 0.673179,-0.564852 0.673179,-1.547539 0,-0.727344 -0.433311,-1.052327 -0.425573,-0.324983 -1.392785,-0.324983 z M 79.520365,9.6028315 h 3.427799 q 1.570753,0 2.375473,0.6190155 0.80472,0.611278 0.80472,1.802883 0,1.191605 -0.711868,1.996325 -0.711868,0.796983 -1.918948,0.951737 0.967212,0.177967 1.4779,0.789245 0.518425,0.611278 0.518425,1.570752 0,1.810621 -1.238031,2.816521 -1.230294,1.0059 -3.481963,1.0059 h -3.497438 z"
         style="fill:#ffffff;stroke:none;stroke-width:0.990423"
         id="path2503" /></g><path
       id="path1084"
       d="m 106.92407,279.7646 h 17.01515"
       style="clip-rule:evenodd;display:inline;fill:none;fill-rule:evenodd;stroke:#d08c59;stroke-width:0.990422;stroke-linecap:round;stroke-linejoin:round;stroke-miterlimit:1.5;stroke-dasharray:none;stroke-opacity:1" /><path
       id="path1086"
       d="M 33.115782,328.30624 H 48.479554"
       style="clip-rule:evenodd;display:inline;fill:none;fill-rule:evenodd;stroke:#d08c59;stroke-width:0.701874;stroke-linecap:round;stroke-linejoin:round;stroke-miterlimit:1.5;stroke-dasharray:none;stroke-opacity:1" /><path
       id="path1088"
       d="m 95.05717,328.30624 h 16.63861"
       style="clip-rule:evenodd;display:inline;fill:none;fill-rule:evenodd;stroke:#d08c59;stroke-width:0.701874;stroke-linecap:round;stroke-linejoin:round;stroke-miterlimit:1.5;stroke-dasharray:none;stroke-opacity:1" /><path
       id="path1090"
       d="M 25.308864,230.49582 H 63.160623"
       style="clip-rule:evenodd;display:inline;fill:none;fill-rule:evenodd;stroke:#d08c59;stroke-width:0.990422;stroke-linecap:round;stroke-linejoin:round;stroke-miterlimit:1.5;stroke-dasharray:none;stroke-opacity:1" /><path
       id="path1092"
       d="m 72.405791,195.19238 v 37.85176"
       style="clip-rule:evenodd;display:inline;fill:none;fill-rule:evenodd;stroke:#d08c59;stroke-width:0.990422;stroke-linecap:round;stroke-linejoin:round;stroke-miterlimit:1.5;stroke-dasharray:none;stroke-opacity:1" /><path
       id="path1098"
       d="M 52.887273,312.7107 H 90.739032"
       style="clip-rule:evenodd;display:inline;fill:none;fill-rule:evenodd;stroke:#d08c59;stroke-width:0.990422;stroke-linecap:round;stroke-linejoin:round;stroke-miterlimit:1.5;stroke-dasharray:none;stroke-opacity:1" /><path
       id="path1154"
       d="m 72.405791,126.99423 v 23.04971"
       style="clip-rule:evenodd;display:inline;fill:none;fill-rule:evenodd;stroke:#d08c59;stroke-width:0.990422;stroke-linecap:round;stroke-linejoin:round;stroke-miterlimit:1.5;stroke-dasharray:none;stroke-opacity:1" /><path
       id="path1156"
       d="m 72.405791,289.36314 v 23.04971"
       style="clip-rule:evenodd;display:inline;fill:none;fill-rule:evenodd;stroke:#d08c59;stroke-width:0.990422;stroke-linecap:round;stroke-linejoin:round;stroke-miterlimit:1.5;stroke-dasharray:none;stroke-opacity:1" /><rect
       style="display:inline;fill:#212121;fill-opacity:1;stroke:#d08c59;stroke-width:0.990422;stroke-dasharray:none;stroke-opacity:1"
       id="rect112-0"
       width="70.224823"
       height="24.884178"
       x="37.293381"
       y="102.34277"
       rx="14.037484"
       ry="14.037484"
       inkscape:transform-center-x="-58.443636"
       inkscape:transform-center-y="-9.91983" /><rect
       style="display:inline;fill:#212121;fill-opacity:1;stroke:#d08c59;stroke-width:0.990422;stroke-dasharray:none;stroke-opacity:1"
       id="rect1094"
       width="70.224823"
       height="24.884178"
       x="37.293381"
       y="264.1879"
       rx="14.037484"
       ry="14.037484"
       inkscape:transform-center-x="-58.443636"
       inkscape:transform-center-y="-9.91983" /><g
       aria-label="VCA I"
       id="text347"
       style="font-style:italic;font-size:8.9138px;font-family:Menlo;-inkscape-font-specification:'Menlo Italic';text-align:center;text-anchor:middle;fill:#666666;stroke:#000000;stroke-width:0.99042;stroke-linecap:square;paint-order:fill markers stroke"><path
         d="m 60.607757,169.07912 2.60276,-5.67123 h 0.935775 l -3.129405,6.49819 h -1.12293 l -0.639809,-6.49819 h 0.861783 z"
         style="fill:#ffffff;stroke:none;stroke-width:0.990423"
         id="path647" /><path
         d="m 67.863277,169.6754 q -0.365605,0.17845 -0.739915,0.2655 -0.369957,0.0914 -0.76603,0.0914 -1.001061,0 -1.553821,-0.57887 -0.548408,-0.57888 -0.548408,-1.62346 0,-0.95754 0.304671,-1.89767 0.304671,-0.94012 0.800849,-1.53641 0.465711,-0.56582 1.027176,-0.83567 0.561465,-0.26985 1.279618,-0.26985 0.348196,0 0.692038,0.0914 0.343843,0.0914 0.670276,0.2655 l -0.17845,0.90096 q -0.278556,-0.27421 -0.587579,-0.40913 -0.309024,-0.13493 -0.657219,-0.13493 -0.413482,0 -0.76603,0.17845 -0.352547,0.1741 -0.661571,0.53535 -0.452654,0.53535 -0.73121,1.37102 -0.274204,0.83567 -0.274204,1.67569 0,0.75297 0.339491,1.1534 0.33949,0.40042 0.979299,0.40042 0.369958,0 0.761677,-0.13928 0.396072,-0.13927 0.779087,-0.40477 z"
         style="fill:#ffffff;stroke:none;stroke-width:0.990423"
         id="path649" /><path
         d="m 72.320177,164.1391 -1.584288,3.36879 h 1.871549 z m -0.417834,-0.73121 h 1.070701 l 0.722505,6.49819 h -0.874841 l -0.152335,-1.6931 h -2.26327 l -0.800849,1.6931 h -0.94448 z"
         style="fill:#ffffff;stroke:none;stroke-width:0.990423"
         id="path651" /><path
         d="m 81.360198,163.40789 h 3.612527 l -0.143631,0.73991 h -1.366666 l -0.970595,5.01837 H 83.8585 l -0.143631,0.73991 h -3.612526 l 0.14363,-0.73991 h 1.362315 l 0.974947,-5.01837 h -1.366667 z"
         style="fill:#ffffff;stroke:none;stroke-width:0.990423"
         id="path653" /></g><g
       aria-label="VCA II"
       id="text405"
       style="font-style:italic;font-size:8.9138px;font-family:Menlo;-inkscape-font-specification:'Menlo Italic';text-align:center;text-anchor:middle;fill:#666666;stroke:#000000;stroke-width:0.99042;stroke-linecap:square;paint-order:fill markers stroke"><path
         d="m 57.924477,330.92426 2.60276,-5.67123 h 0.935775 l -3.129406,6.49819 h -1.12293 l -0.639808,-6.49819 h 0.861783 z"
         style="fill:#ffffff;stroke:none;stroke-width:0.990423"
         id="path656" /><path
         d="m 65.179997,331.52054 q -0.365605,0.17845 -0.739915,0.2655 -0.369958,0.0914 -0.76603,0.0914 -1.001061,0 -1.553821,-0.57887 -0.548408,-0.57888 -0.548408,-1.62346 0,-0.95754 0.304671,-1.89767 0.304671,-0.94013 0.800849,-1.53641 0.465711,-0.56582 1.027176,-0.83567 0.561465,-0.26985 1.279618,-0.26985 0.348195,0 0.692038,0.0914 0.343843,0.0914 0.670276,0.2655 l -0.17845,0.90096 q -0.278556,-0.27421 -0.587579,-0.40913 -0.309024,-0.13493 -0.657219,-0.13493 -0.413482,0 -0.76603,0.17845 -0.352548,0.1741 -0.661571,0.53535 -0.452654,0.53535 -0.73121,1.37102 -0.274204,0.83567 -0.274204,1.67569 0,0.75297 0.33949,1.1534 0.339491,0.40042 0.9793,0.40042 0.369957,0 0.761677,-0.13928 0.396072,-0.13928 0.779087,-0.40477 z"
         style="fill:#ffffff;stroke:none;stroke-width:0.990423"
         id="path658" /><path
         d="m 69.636897,325.98424 -1.584289,3.36879 h 1.87155 z m -0.417834,-0.73121 h 1.0707 l 0.722506,6.49819 h -0.874841 l -0.152336,-1.6931 h -2.263269 l -0.800849,1.6931 h -0.94448 z"
         style="fill:#ffffff;stroke:none;stroke-width:0.990423"
         id="path660" /><path
         d="m 78.676918,325.25303 h 3.612527 l -0.143631,0.73991 h -1.366666 l -0.970595,5.01837 h 1.366667 l -0.143631,0.73991 h -3.612526 l 0.14363,-0.73991 h 1.362314 l 0.974947,-5.01837 h -1.366666 z"
         style="fill:#ffffff;stroke:none;stroke-width:0.990423"
         id="path662" /><path
         d="m 84.043478,325.25303 h 3.612527 l -0.143631,0.73991 h -1.366667 l -0.970594,5.01837 h 1.366667 l -0.143631,0.73991 h -3.612526 l 0.14363,-0.73991 h 1.362314 l 0.974947,-5.01837 h -1.366666 z"
         style="fill:#ffffff;stroke:none;stroke-width:0.990423"
         id="path664" /></g><path
       id="path430"
       d="M 24.938196,34.557891 V 93.567747"
       style="clip-rule:evenodd;display:inline;fill:none;fill-rule:evenodd;stroke:#d08c59;stroke-width:0.990423;stroke-linecap:round;stroke-linejoin:round;stroke-miterlimit:1.5;stroke-dasharray:none;stroke-opacity:1" /><path
       id="path1224"
       d="m 24.938196,196.3732 v 59.00986"
       style="clip-rule:evenodd;display:inline;fill:none;fill-rule:evenodd;stroke:#d08c59;stroke-width:0.990423;stroke-linecap:round;stroke-linejoin:round;stroke-miterlimit:1.5;stroke-dasharray:none;stroke-opacity:1" /><path
       style="fill:#d08c58;fill-opacity:1;stroke:#d08c59;stroke-width:0.990422;stroke-linecap:square;stroke-linejoin:round;stroke-dasharray:none;stroke-opacity:1;paint-order:fill markers stroke"
       d="m 118.16645,249.78734 h 13.89132 c -7.12464,3.87299 -6.41546,15.19692 -6.98735,27.92175 -0.24837,-12.74214 -0.23462,-24.00967 -6.90397,-27.92175 z"
       id="path1893"
       sodipodi:nodetypes="cccc" /><path
       style="clip-rule:evenodd;fill:#d08c58;fill-opacity:1;fill-rule:evenodd;stroke:#d08c59;stroke-width:0.990422;stroke-linecap:square;stroke-linejoin:round;stroke-miterlimit:1.5;stroke-dasharray:none;stroke-opacity:1;paint-order:fill markers stroke"
       d="m 118.16645,87.709449 h 13.89132 c -7.12464,3.872995 -6.41546,15.196921 -6.98735,27.921751 -0.24837,-12.74214 -0.23462,-24.009664 -6.90397,-27.921751 z"
       id="path1891"
       sodipodi:nodetypes="cccc" /><path
       style="clip-rule:evenodd;fill:#d08c58;fill-opacity:1;fill-rule:evenodd;stroke:#d08c59;stroke-width:0.990422;stroke-linecap:square;stroke-linejoin:round;stroke-miterlimit:1.5;stroke-dasharray:none;stroke-opacity:1;paint-order:fill markers stroke"
       d="m 118.16645,92.166351 h 13.89132 c -7.12464,3.872995 -6.41546,15.196919 -6.98735,27.921749 -0.24837,-12.74214 -0.23462,-24.009662 -6.90397,-27.921749 z"
       id="path2719"
       sodipodi:nodetypes="cccc" /><path
       style="fill:#d08c58;fill-opacity:1;stroke:#d08c59;stroke-width:0.990422;stroke-linecap:square;stroke-linejoin:round;stroke-dasharray:none;stroke-opacity:1;paint-order:fill markers stroke"
       d="m 118.16645,254.24423 h 13.89132 c -7.12464,3.87299 -6.41546,15.19692 -6.98735,27.92175 -0.24837,-12.74214 -0.23462,-24.00967 -6.90397,-27.92175 z"
       id="path2721"
       sodipodi:nodetypes="cccc" /><rect
       style="display:inline;fill:#333333;fill-opacity:1;stroke:#d08c59;stroke-width:0.9904225;stroke-dasharray:none;stroke-opacity:1"
       id="rect20577"
       width="29.968401"
       height="30.149879"
       x="110.09391"
       y="100.03061"
       rx="14.037484"
       ry="14.037485"
       inkscape:transform-center-x="-23.082704"
       inkscape:transform-center-y="-11.123729" /><rect
       style="display:inline;fill:#333333;fill-opacity:1;stroke:#d08c59;stroke-width:0.9904225;stroke-dasharray:none;stroke-opacity:1"
       id="rect1096"
       width="29.968401"
       height="30.149879"
       x="110.09391"
       y="261.87573"
       rx="14.037484"
       ry="14.037485"
       inkscape:transform-center-x="-23.082704"
       inkscape:transform-center-y="-11.123729" /><rect
       style="fill:#212121;fill-opacity:1;stroke:#d08c59;stroke-width:0.990422;stroke-linecap:square;stroke-linejoin:round;stroke-dasharray:none;stroke-opacity:1;paint-order:fill markers stroke"
       id="rect6883"
       width="17.691809"
       height="51.601105"
       x="116.58357"
       y="36.231396"
       rx="8.4224911"
       ry="8.4224911" /><rect
       style="fill:#212121;fill-opacity:1;stroke:#d08c59;stroke-width:0.990422;stroke-linecap:square;stroke-linejoin:round;stroke-dasharray:none;stroke-opacity:1;paint-order:fill markers stroke"
       id="rect8617"
       width="17.691809"
       height="51.601105"
       x="116.58357"
       y="197.91487"
       rx="8.4224911"
       ry="8.4224911" /></g></svg>
