<?xml version="1.0" encoding="UTF-8" standalone="no"?>
<!-- Created with Inkscape (http://www.inkscape.org/) -->

<svg
   width="76.199997mm"
   height="128.5mm"
   viewBox="0 0 76.200002 128.50002"
   version="1.1"
   id="svg8"
   inkscape:version="1.2 (dc2aeda, 2022-05-15)"
   sodipodi:docname="JunkDNA.svg"
   xml:space="preserve"
   xmlns:inkscape="http://www.inkscape.org/namespaces/inkscape"
   xmlns:sodipodi="http://sodipodi.sourceforge.net/DTD/sodipodi-0.dtd"
   xmlns="http://www.w3.org/2000/svg"
   xmlns:svg="http://www.w3.org/2000/svg"
   xmlns:rdf="http://www.w3.org/1999/02/22-rdf-syntax-ns#"
   xmlns:cc="http://creativecommons.org/ns#"
   xmlns:dc="http://purl.org/dc/elements/1.1/"><defs
     id="defs2">
        
    
        
    
        
    
        
    
        
    
        
    
        
    
        
    
        
    
        
    
        
    
        
    
        
    
        
    
        
    
        
    
        
    
        
    
        
    
        
        
    </defs><sodipodi:namedview
     id="base"
     pagecolor="#ffffff"
     bordercolor="#666666"
     borderopacity="1.0"
     inkscape:pageopacity="0.0"
     inkscape:pageshadow="2"
     inkscape:zoom="1.5"
     inkscape:cx="128.33333"
     inkscape:cy="226"
     inkscape:document-units="mm"
     inkscape:current-layer="svg8"
     showgrid="false"
     units="mm"
     inkscape:snap-bbox="true"
     inkscape:snap-page="true"
     inkscape:bbox-nodes="false"
     inkscape:snap-bbox-edge-midpoints="false"
     inkscape:window-width="1340"
     inkscape:window-height="916"
     inkscape:window-x="74"
     inkscape:window-y="38"
     inkscape:window-maximized="0"
     inkscape:snap-bbox-midpoints="true"
     inkscape:snap-nodes="false"
     inkscape:showpageshadow="2"
     inkscape:pagecheckerboard="0"
     inkscape:deskcolor="#d1d1d1"
     showguides="true"><sodipodi:guide
       position="-32.455556,114.74169"
       orientation="1,0"
       id="guide11520"
       inkscape:locked="false" /></sodipodi:namedview><metadata
     id="metadata5"><rdf:RDF><cc:Work
         rdf:about=""><dc:format>image/svg+xml</dc:format><dc:type
           rdf:resource="http://purl.org/dc/dcmitype/StillImage" /></cc:Work></rdf:RDF></metadata><rect
     id="rect1"
     x="-0.079669952"
     y="-0.38949111"
     width="76.330215"
     height="129.94316"
     style="clip-rule:evenodd;fill:#e5e5e5;fill-rule:evenodd;stroke-width:0.432944;stroke-linejoin:round;stroke-miterlimit:1.5;fill-opacity:1" /><g
     id="g10544"
     transform="translate(-6.1873121)"
     style="fill:#000000"><g
       id="g473"
       transform="translate(25.033328)"
       style="fill:#000000"><path
         id="path128"
         d="m 16.724247,125.9342 c 0.05984,0.1268 0.07943,0.25396 0.05842,0.38219 h -0.419235 c -0.0064,-0.0983 -0.02565,-0.1724 -0.05842,-0.22227 -0.05735,-0.089 -0.160997,-0.13357 -0.310597,-0.13357 -0.152449,0 -0.28602,0.0627 -0.4,0.18843 -0.114337,0.12538 -0.195192,0.30276 -0.242921,0.5325 -0.04809,0.22974 -0.03776,0.40143 0.0317,0.51612 0.0691,0.11433 0.175246,0.17133 0.318434,0.17133 0.147106,0 0.269635,-0.0492 0.367587,-0.14747 0.05378,-0.0524 0.105432,-0.13179 0.155298,-0.23722 h 0.415317 c -0.08264,0.22333 -0.213357,0.40463 -0.391452,0.54461 -0.178451,0.13927 -0.384328,0.20944 -0.617632,0.20944 -0.288513,0 -0.495815,-0.0944 -0.621906,-0.28317 -0.125379,-0.18985 -0.153162,-0.44986 -0.08442,-0.78076 0.07409,-0.35726 0.225468,-0.63295 0.453429,-0.82636 0.198753,-0.16848 0.424221,-0.2529 0.676403,-0.2529 0.337667,0 0.560642,0.11327 0.669992,0.3391 z"
         style="clip-rule:evenodd;opacity:1;fill:#000000;fill-rule:nonzero;stroke-width:0.356189;stroke-linejoin:round;stroke-miterlimit:1.5" /><path
         id="path129"
         d="m 17.652476,127.18869 0.764026,-1.55441 h 0.435619 l -1.110954,2.04667 h -0.396083 l -0.252181,-2.04667 h 0.448442 z"
         style="clip-rule:evenodd;opacity:1;fill:#000000;fill-rule:nonzero;stroke-width:0.356189;stroke-linejoin:round;stroke-miterlimit:1.5" /><path
         id="path130"
         d="m 20.435382,126.18139 -0.05877,0.27925 h -0.253963 l -0.253607,1.22031 h -0.386466 l 0.253606,-1.22031 h -0.216919 l 0.05842,-0.27925 h 0.212645 l 0.01995,-0.0972 c 0.03419,-0.16207 0.08406,-0.27355 0.149955,-0.33482 0.07551,-0.0905 0.220482,-0.13606 0.43562,-0.13606 0.02458,0 0.04666,7.1e-4 0.06625,0.002 0.01959,0.001 0.04666,0.004 0.08121,0.006 l -0.06803,0.32271 c -0.02102,-0.003 -0.05699,-0.005 -0.107569,-0.006 -0.05093,-10e-4 -0.08905,0.01 -0.113981,0.0345 -0.02493,0.0246 -0.03989,0.0516 -0.04559,0.0812 -0.0064,0.0299 -0.01532,0.0723 -0.02743,0.12787 z"
         style="clip-rule:evenodd;opacity:1;fill:#000000;fill-rule:nonzero;stroke-width:0.356189;stroke-linejoin:round;stroke-miterlimit:1.5" /><path
         id="path131"
         d="m 21.342239,127.46759 c -0.0043,0.005 -0.01638,0.0185 -0.03562,0.0417 -0.01888,0.0232 -0.04025,0.0431 -0.06376,0.0609 -0.07266,0.0556 -0.139626,0.0933 -0.200891,0.11363 -0.06091,0.0203 -0.129653,0.0306 -0.206234,0.0306 -0.219412,0 -0.350846,-0.0801 -0.393232,-0.2415 -0.02386,-0.0887 -0.01745,-0.21977 0.01888,-0.39287 l 0.189492,-0.91256 h 0.397151 l -0.189136,0.91256 c -0.01817,0.0862 -0.02173,0.15066 -0.01104,0.19447 0.01923,0.0769 0.0805,0.11541 0.183794,0.11541 0.132502,0 0.234728,-0.0549 0.306678,-0.1642 0.03811,-0.0591 0.06732,-0.13749 0.08727,-0.23438 l 0.171327,-0.82386 h 0.393233 l -0.314515,1.51345 h -0.376849 z"
         style="clip-rule:evenodd;opacity:1;fill:#000000;fill-rule:nonzero;stroke-width:0.356189;stroke-linejoin:round;stroke-miterlimit:1.5" /><path
         id="path132"
         d="m 23.188368,126.76091 c 0.0171,-0.0798 0.01959,-0.14105 0.0068,-0.18344 -0.02173,-0.078 -0.08584,-0.11683 -0.193055,-0.11683 -0.13179,0 -0.234016,0.057 -0.306323,0.17062 -0.03847,0.0605 -0.06696,0.13749 -0.08584,0.23081 l -0.170259,0.81888 h -0.386465 l 0.314159,-1.51096 h 0.374711 l -0.04631,0.22084 c 0.0659,-0.0773 0.125023,-0.13357 0.177026,-0.16777 0.09225,-0.0613 0.200179,-0.0915 0.322352,-0.0915 0.153517,0 0.270347,0.0406 0.350846,0.12289 0.08014,0.0819 0.100801,0.21763 0.06162,0.40748 l -0.212289,1.01906 h -0.397507 z"
         style="clip-rule:evenodd;opacity:1;fill:#000000;fill-rule:nonzero;stroke-width:0.356189;stroke-linejoin:round;stroke-miterlimit:1.5" /><path
         id="path133"
         d="m 24.22844,127.20543 -0.09759,0.47552 h -0.381484 l 0.424934,-2.0399 h 0.381122 l -0.230454,1.10312 0.601959,-0.5699 h 0.480856 l -0.640072,0.57952 0.346928,0.92716 H 24.64625 l -0.220125,-0.64684 z"
         style="clip-rule:evenodd;opacity:1;fill:#000000;fill-rule:nonzero;stroke-width:0.356189;stroke-linejoin:round;stroke-miterlimit:1.5" /><path
         id="path134"
         d="m 7.443026,126.66688 h 6.622269"
         style="clip-rule:evenodd;opacity:1;fill:#000000;fill-rule:evenodd;stroke:#000000;stroke-width:0.227961px;stroke-linecap:round;stroke-linejoin:round;stroke-miterlimit:1.5" /><path
         id="path135"
         d="m 25.753642,126.66688 h 6.62227"
         style="clip-rule:evenodd;opacity:1;fill:#000000;fill-rule:evenodd;stroke:#000000;stroke-width:0.227961px;stroke-linecap:round;stroke-linejoin:round;stroke-miterlimit:1.5" /></g></g><g
     transform="matrix(0.08946263,0,0,0.08946263,-97.485604,40.779697)"
     id="g9058"
     style="clip-rule:evenodd;fill:#666666;fill-opacity:1;fill-rule:evenodd;stroke:#000000;stroke-linecap:round;stroke-linejoin:round;stroke-miterlimit:1.5;stroke-opacity:1">
        <path
   d="M 1213.28,522.568 C 1174.2,483.708 1150,429.908 1150,370.5 c 0,-43.82 13.17,-84.588 35.76,-118.561 -1.8,7.056 -2.76,14.447 -2.76,22.061 0,49.12 39.88,89 89,89 49.12,0 89,-39.88 89,-89 0,-49.12 -39.88,-89 -89,-89 -6.32,0 -12.48,0.66 -18.43,1.914 32.37,-19.618 70.34,-30.914 110.93,-30.914 59.18,0 112.8,24.019 151.62,62.832 -38.84,38.829 -62.88,92.463 -62.88,151.668 0,59.205 24.04,112.839 62.88,151.668 -0.13,0.133 -0.27,0.266 -0.4,0.4 -38.79,-38.579 -92.24,-62.433 -151.22,-62.433 -58.98,0 -112.43,23.854 -151.22,62.433 z"
   style="fill:#666666;fill-opacity:1;stroke:#000000;stroke-width:3.72px;stroke-opacity:1"
   id="path9056" />
    </g><g
     transform="matrix(-0.08946263,0,0,0.08946263,173.78672,40.779697)"
     id="g9062"
     style="clip-rule:evenodd;fill:#666666;fill-opacity:1;fill-rule:evenodd;stroke:#000000;stroke-linecap:round;stroke-linejoin:round;stroke-miterlimit:1.5;stroke-opacity:1">
        <path
   d="M 1213.28,522.568 C 1174.2,483.708 1150,429.908 1150,370.5 c 0,-43.82 13.17,-84.588 35.76,-118.561 -1.8,7.056 -2.76,14.447 -2.76,22.061 0,49.12 39.88,89 89,89 49.12,0 89,-39.88 89,-89 0,-49.12 -39.88,-89 -89,-89 -6.32,0 -12.48,0.66 -18.43,1.914 32.37,-19.618 70.34,-30.914 110.93,-30.914 59.18,0 112.8,24.019 151.62,62.832 -38.84,38.829 -62.88,92.463 -62.88,151.668 0,59.205 24.04,112.839 62.88,151.668 -0.13,0.133 -0.27,0.266 -0.4,0.4 -38.79,-38.579 -92.24,-62.433 -151.22,-62.433 -58.98,0 -112.43,23.854 -151.22,62.433 z"
   style="fill:#666666;fill-opacity:1;stroke:#000000;stroke-width:3.72px;stroke-opacity:1"
   id="path9060" />
    </g><g
     transform="matrix(-0.08946263,0,0,0.08946263,173.78672,40.779697)"
     id="g9066"
     style="clip-rule:evenodd;fill:#333333;fill-opacity:1;fill-rule:evenodd;stroke:#000000;stroke-linecap:round;stroke-linejoin:round;stroke-miterlimit:1.5;stroke-opacity:1">
        <path
   d="m 1516.12,218.832 c 38.84,38.829 62.88,92.463 62.88,151.668 0,59.205 -24.04,112.839 -62.88,151.668 -38.84,-38.829 -62.88,-92.463 -62.88,-151.668 0,-59.205 24.04,-112.839 62.88,-151.668 z"
   style="fill:#333333;fill-opacity:1;stroke:#000000;stroke-width:3.72px;stroke-opacity:1"
   id="path9064" />
    </g><g
     transform="matrix(0.08946263,0,0,-0.08946263,-97.485604,134.28048)"
     id="g9070"
     style="clip-rule:evenodd;fill:#333333;fill-opacity:1;fill-rule:evenodd;stroke:#000000;stroke-linecap:round;stroke-linejoin:round;stroke-miterlimit:1.5;stroke-opacity:1">
        <path
   d="M 1515.72,522.568 C 1476.93,561.146 1423.48,585 1364.5,585 c -58.98,0 -112.43,-23.854 -151.22,-62.432 38.79,-38.579 92.24,-62.433 151.22,-62.433 58.98,0 112.43,23.854 151.22,62.433 z"
   style="fill:#333333;fill-opacity:1;stroke:#000000;stroke-width:3.72px;stroke-opacity:1"
   id="path9068" />
    </g><g
     transform="matrix(0.08946263,0,0,-0.08946263,-97.485604,134.28048)"
     id="g9074"
     style="clip-rule:evenodd;fill:#666666;fill-opacity:1;fill-rule:evenodd;stroke:#000000;stroke-linecap:round;stroke-linejoin:round;stroke-miterlimit:1.5;stroke-opacity:1">
        <path
   d="m 1516.12,522.168 c -0.13,0.133 -0.27,0.266 -0.4,0.4 -38.79,-38.579 -92.24,-62.433 -151.22,-62.433 -58.98,0 -112.43,23.854 -151.22,62.433 C 1174.2,483.708 1150,429.908 1150,370.5 c 0,-43.82 13.17,-84.588 35.76,-118.561 -1.8,7.056 -2.76,14.447 -2.76,22.061 0,49.12 39.88,89 89,89 49.12,0 89,-39.88 89,-89 0,-49.12 -39.88,-89 -89,-89 -6.32,0 -12.48,0.66 -18.43,1.914 32.37,-19.618 70.34,-30.914 110.93,-30.914 59.18,0 112.8,24.019 151.62,62.832 -38.84,38.829 -62.88,92.463 -62.88,151.668 0,59.205 24.04,112.839 62.88,151.668 z"
   style="fill:#666666;fill-opacity:1;stroke:#000000;stroke-width:3.72px;stroke-opacity:1"
   id="path9072" />
    </g><g
     transform="matrix(-0.08946263,0,0,-0.08946263,173.78672,134.28048)"
     id="g9078"
     style="clip-rule:evenodd;fill:#666666;fill-opacity:1;fill-rule:evenodd;stroke:#000000;stroke-linecap:round;stroke-linejoin:round;stroke-miterlimit:1.5;stroke-opacity:1">
        <path
   d="M 1213.28,522.568 C 1174.2,483.708 1150,429.908 1150,370.5 c 0,-43.82 13.17,-84.588 35.76,-118.561 -1.8,7.056 -2.76,14.447 -2.76,22.061 0,49.12 39.88,89 89,89 49.12,0 89,-39.88 89,-89 0,-49.12 -39.88,-89 -89,-89 -6.32,0 -12.48,0.66 -18.43,1.914 32.37,-19.618 70.34,-30.914 110.93,-30.914 59.18,0 112.8,24.019 151.62,62.832 -38.84,38.829 -62.88,92.463 -62.88,151.668 0,59.205 24.04,112.839 62.88,151.668 -0.13,0.133 -0.27,0.266 -0.4,0.4 -38.79,-38.579 -92.24,-62.433 -151.22,-62.433 -58.98,0 -112.43,23.854 -151.22,62.433 z"
   style="fill:#666666;fill-opacity:1;stroke:#000000;stroke-width:3.72px;stroke-opacity:1"
   id="path9076" />
    </g><g
     transform="matrix(-0.08946263,0,0,-0.08946263,173.78672,134.28048)"
     id="g9082"
     style="clip-rule:evenodd;fill:#333333;fill-opacity:1;fill-rule:evenodd;stroke:#000000;stroke-linecap:round;stroke-linejoin:round;stroke-miterlimit:1.5;stroke-opacity:1">
        <path
   d="M 1515.72,522.568 C 1476.93,561.146 1423.48,585 1364.5,585 c -58.98,0 -112.43,-23.854 -151.22,-62.432 38.79,-38.579 92.24,-62.433 151.22,-62.433 58.98,0 112.43,23.854 151.22,62.433 z"
   style="fill:#333333;fill-opacity:1;stroke:#000000;stroke-width:3.72px;stroke-opacity:1"
   id="path9080" />
    </g><g
     transform="matrix(-0.08946263,0,0,-0.08946263,173.78672,134.28048)"
     id="g9086"
     style="clip-rule:evenodd;fill:#333333;fill-opacity:1;fill-rule:evenodd;stroke:#000000;stroke-linecap:round;stroke-linejoin:round;stroke-miterlimit:1.5;stroke-opacity:1">
        <path
   d="m 1516.12,218.832 c 38.84,38.829 62.88,92.463 62.88,151.668 0,59.205 -24.04,112.839 -62.88,151.668 -38.84,-38.829 -62.88,-92.463 -62.88,-151.668 0,-59.205 24.04,-112.839 62.88,-151.668 z"
   style="fill:#333333;fill-opacity:1;stroke:#000000;stroke-width:3.72px;stroke-opacity:1"
   id="path9084" />
    </g><g
     transform="matrix(0.17018019,0,0,0.1661832,-320.86282,-70.713441)"
     id="g9140"
     style="clip-rule:evenodd;fill:#ffffff;fill-rule:evenodd;stroke-linecap:round;stroke-linejoin:round;stroke-miterlimit:1.5">
        <g
   transform="matrix(45.8333,0,0,45.8333,2012.82,904.74)"
   id="g9136"
   style="fill:#ffffff">
        </g>
        <g
   aria-label="C"
   id="text9138"
   style="font-style:italic;font-weight:700;font-size:45.833px;font-family:Menlo-BoldItalic, Menlo, monospace;fill:#ffffff"><path
     d="m 2006.3909,903.77768 q -1.7232,0.80565 -3.536,1.20848 -1.7903,0.40283 -3.6926,0.40283 -5.3486,0 -8.1908,-3.06597 -2.8198,-3.08836 -2.8198,-8.907 0,-5.14726 1.5665,-9.86932 1.589,-4.74443 4.2969,-7.81041 2.1708,-2.46173 5.0801,-3.73735 2.9093,-1.27563 6.3334,-1.27563 1.8351,0 3.5807,0.40283 1.7679,0.40283 3.4912,1.20849 l -1.4323,7.34044 q -1.119,-1.5218 -2.7527,-2.2827 -1.6113,-0.78328 -3.5807,-0.78328 -1.7903,0 -3.5136,1.09659 -1.7232,1.07421 -2.9317,2.97646 -1.5441,2.3946 -2.5065,5.77388 -0.9399,3.35691 -0.9399,6.37813 0,3.26739 1.4099,5.01299 1.4099,1.72321 4.0507,1.72321 1.8127,0 3.6031,-0.73852 1.8127,-0.7609 3.9164,-2.3946 z"
     id="path24470"
     style="fill:#ffffff" /></g>
    </g><g
     transform="matrix(0.07979114,0,0,0.07979114,-121.35672,-4.0623463)"
     id="g9146"
     style="clip-rule:evenodd;fill:#ffffff;fill-rule:evenodd;stroke-linecap:round;stroke-linejoin:round;stroke-miterlimit:1.5;fill-opacity:1">
        <g
   transform="matrix(45.8333,0,0,45.8333,2012.82,904.74)"
   id="g9142"
   style="fill:#ffffff;fill-opacity:1">
        </g>
        <g
   aria-label="S"
   id="text9144"
   style="font-style:italic;font-weight:700;font-size:45.833px;font-family:Menlo-BoldItalic, Menlo, monospace;fill:#ffffff;fill-opacity:1"><path
     d="m 1996.5439,889.88007 q -4.2968,-1.79035 -5.6843,-3.4688 -1.3875,-1.67846 -1.3875,-4.49826 0,-4.92347 3.603,-8.05658 3.6255,-3.13312 9.377,-3.13312 2.3051,0 4.4759,0.46997 2.1932,0.44759 4.2297,1.36514 l -1.2756,6.37813 q -1.5218,-1.38752 -3.5584,-2.08129 -2.0365,-0.71614 -4.5206,-0.71614 -2.6408,0 -4.2968,1.27563 -1.6561,1.25325 -1.6561,3.22263 0,1.87987 4.1178,3.73736 l 0.1566,0.0671 2.5961,1.14135 q 3.2673,1.45466 4.7668,3.51356 1.5218,2.03653 1.5218,5.01299 0,5.14726 -3.6031,8.21324 -3.6031,3.06597 -9.7351,3.06597 -2.4617,0 -5.0353,-0.58186 -2.5513,-0.58187 -5.3263,-1.76797 l 1.3204,-6.82572 q 2.1708,1.81273 4.543,2.77505 2.3722,0.93993 4.7668,0.93993 2.9765,0 4.6773,-1.298 1.7008,-1.32039 1.7008,-3.55833 0,-1.38752 -0.7833,-2.39459 -0.7832,-1.02946 -2.3274,-1.67846 z"
     id="path24476"
     style="fill:#ffffff;fill-opacity:1" /></g>
    </g><g
     transform="matrix(0.07979114,0,0,0.07979114,-121.27693,36.656223)"
     id="g9152"
     style="clip-rule:evenodd;fill:#ffffff;fill-rule:evenodd;stroke-linecap:round;stroke-linejoin:round;stroke-miterlimit:1.5;fill-opacity:1">
        <g
   transform="matrix(45.8333,0,0,45.8333,2012.82,904.74)"
   id="g9148"
   style="fill:#ffffff;fill-opacity:1">
        </g>
        <g
   aria-label="W"
   id="text9150"
   style="font-style:italic;font-weight:700;font-size:45.833px;font-family:Menlo-BoldItalic, Menlo, monospace;fill:#ffffff;fill-opacity:1"><path
     d="m 1988.4202,871.32755 h 5.6844 l -2.417,24.52782 6.0872,-15.86699 h 5.3263 l 0.2686,15.86699 6.6466,-24.52782 h 5.8634 l -10.3169,33.41244 h -6.0424 l -0.2685,-17.54545 -7.1167,17.54545 h -5.9977 z"
     id="path24491"
     style="fill:#ffffff;fill-opacity:1" /></g>
    </g><g
     transform="matrix(0.07979114,0,0,0.07979114,-147.72147,-9.9211041)"
     id="g9158"
     style="clip-rule:evenodd;fill:#000000;fill-rule:evenodd;stroke-linecap:round;stroke-linejoin:round;stroke-miterlimit:1.5">
        <g
   transform="matrix(45.8333,0,0,45.8333,2012.82,904.74)"
   id="g9154"
   style="fill:#000000">
        </g>
        <g
   aria-label="D"
   id="text9156"
   style="font-style:italic;font-weight:700;font-size:45.833px;font-family:Menlo-BoldItalic, Menlo, monospace;fill:#000000"><path
     d="m 1996.9468,877.28047 -4.1626,21.5066 h 2.1484 q 2.5065,0 4.2297,-0.98469 1.7232,-0.9847 2.6856,-2.95408 1.1637,-2.37222 1.8798,-5.63961 0.7386,-3.28977 0.7386,-6.10957 0,-2.95408 -1.41,-4.38637 -1.3875,-1.43228 -4.2744,-1.43228 z m -5.3935,-5.95292 h 7.0495 q 6.3782,0 9.5337,2.75267 3.1555,2.75267 3.1555,8.30276 0,1.947 -0.3133,4.16256 -0.291,2.19318 -0.9176,4.72205 -0.828,3.37929 -1.9918,5.72913 -1.1637,2.34984 -2.775,3.89401 -2.1037,2.05891 -5.0354,2.95408 -2.9317,0.89518 -7.8328,0.89518 h -7.3852 z"
     id="path24467"
     style="fill:#000000" /></g>
    </g><g
     transform="matrix(0.17018019,0,0,0.1661832,-320.44523,-50.082828)"
     id="g9164"
     style="clip-rule:evenodd;fill:#ffffff;fill-rule:evenodd;stroke-linecap:round;stroke-linejoin:round;stroke-miterlimit:1.5">
        <g
   transform="matrix(45.8333,0,0,45.8333,2012.82,904.74)"
   id="g9160"
   style="fill:#ffffff">
        </g>
        <g
   aria-label="T"
   id="text9162"
   style="font-style:italic;font-weight:700;font-size:45.833px;font-family:Menlo-BoldItalic, Menlo, monospace;fill:#ffffff"><path
     d="m 1999.0504,904.73999 h -6.5795 l 5.3487,-27.63855 h -8.5713 l 1.0966,-5.77389 h 23.6997 l -1.1413,5.77389 h -8.4818 z"
     id="path24494"
     style="fill:#ffffff" /></g>
    </g><g
     transform="matrix(0.07979114,0,0,0.07979114,-129.74885,16.64479)"
     id="g9170"
     style="clip-rule:evenodd;fill:#ffffff;fill-rule:evenodd;stroke-linecap:round;stroke-linejoin:round;stroke-miterlimit:1.5;fill-opacity:1">
        <g
   transform="matrix(45.8333,0,0,45.8333,2012.82,904.74)"
   id="g9166"
   style="fill:#ffffff;fill-opacity:1">
        </g>
        <g
   aria-label="Y"
   id="text9168"
   style="font-style:italic;font-weight:700;font-size:45.833px;font-family:Menlo-BoldItalic, Menlo, monospace;fill:#ffffff;fill-opacity:1"><path
     d="m 1988.465,871.32755 h 6.5571 l 4.185,14.52423 9.1979,-14.52423 h 7.2062 l -14.1662,20.25336 -2.5736,13.15908 h -6.5572 l 2.5737,-13.15908 z"
     id="path24479"
     style="fill:#ffffff;fill-opacity:1" /></g>
    </g><g
     transform="matrix(3.6570913,0,0,3.6570913,43.685762,88.515863)"
     id="g9172"
     style="clip-rule:evenodd;fill:#ffffff;fill-rule:evenodd;stroke-linecap:round;stroke-linejoin:round;stroke-miterlimit:1.5">
        </g><g
     aria-label="N"
     id="text9174"
     style="font-style:italic;font-weight:700;font-size:45.833px;font-family:Menlo-BoldItalic, Menlo, monospace;clip-rule:evenodd;fill:#ffffff;fill-rule:evenodd;stroke-linecap:round;stroke-linejoin:round;stroke-miterlimit:1.5;fill-opacity:1"
     transform="matrix(0.07979114,0,0,0.07979114,-121.2376,22.990703)"><path
       d="m 1991.1729,871.32755 h 6.7809 l 4.8116,24.28165 4.7221,-24.28165 h 5.8186 l -6.4453,33.41244 h -6.5571 l -5.0354,-24.28164 -4.722,24.28164 h -5.8858 z"
       id="path24482"
       style="fill:#ffffff;fill-opacity:1" /></g><path
     d="m 47.096355,87.592561 q 0.108923,0.01607 0.169636,0.08036 0.06071,0.06428 0.108931,0.219638 l 0.292849,0.958909 h -0.537489 l -0.18928,-0.671415 q -0.0053,-0.01786 -0.01428,-0.04821 -0.09464,-0.333922 -0.282142,-0.333922 h -0.208925 l -0.20535,1.05355 h -0.526773 l 0.519632,-2.666016 h 0.732123 q 0.414284,0 0.614272,0.157139 0.199997,0.155354 0.199997,0.478562 0,0.333922 -0.17499,0.535703 -0.174998,0.199996 -0.498208,0.235709 z m -0.430346,-0.964265 -0.142858,0.72677 h 0.219641 q 0.241065,0 0.364279,-0.114283 0.124993,-0.114283 0.124993,-0.335708 0,-0.139282 -0.08214,-0.207138 -0.08214,-0.06964 -0.246427,-0.06964 z"
     id="path24485"
     style="font-style:italic;font-weight:700;font-size:45.833px;font-family:Menlo-BoldItalic, Menlo, monospace;clip-rule:evenodd;fill:#ffffff;fill-rule:evenodd;stroke-width:0.0797911;stroke-linecap:round;stroke-linejoin:round;stroke-miterlimit:1.5;fill-opacity:1" /><g
     transform="matrix(0.07979114,0,0,0.07979114,-147.76695,43.594426)"
     id="g9182"
     style="clip-rule:evenodd;fill:#000000;fill-rule:evenodd;stroke-linecap:round;stroke-linejoin:round;stroke-miterlimit:1.5">
        <g
   transform="matrix(45.8333,0,0,45.8333,2012.82,904.74)"
   id="g9178"
   style="fill:#000000">
        </g>
        <g
   aria-label="V"
   id="text9180"
   style="font-style:italic;font-weight:700;font-size:45.833px;font-family:Menlo-BoldItalic, Menlo, monospace;fill:#000000"><path
     d="m 1996.8125,899.32418 11.324,-27.99663 h 6.7362 l -14.4347,33.41244 h -9.2204 l -1.4546,-33.41244 h 6.5124 z"
     id="path24497"
     style="fill:#000000" /></g>
    </g><g
     transform="matrix(0.17018019,0,0,0.1661832,-282.93336,-70.414496)"
     id="g9188"
     style="clip-rule:evenodd;fill:#ffffff;fill-rule:evenodd;stroke-linecap:round;stroke-linejoin:round;stroke-miterlimit:1.5">
        <g
   transform="matrix(45.8333,0,0,45.8333,2012.82,904.74)"
   id="g9184"
   style="fill:#ffffff">
        </g>
        <g
   aria-label="G"
   id="text9186"
   style="font-style:italic;font-weight:700;font-size:45.833px;font-family:Menlo-BoldItalic, Menlo, monospace;fill:#ffffff"><path
     d="m 2007.398,902.63633 q -1.5666,1.32038 -3.7598,2.03652 -2.1932,0.71614 -4.7668,0.71614 -5.4158,0 -8.3923,-3.24501 -2.9764,-3.24501 -2.9764,-9.13079 0,-4.81157 1.6113,-9.51125 1.6337,-4.69967 4.3192,-7.72089 2.1932,-2.48411 5.1025,-3.75973 2.9093,-1.29801 6.311,-1.29801 1.8127,0 3.5583,0.40283 1.768,0.40283 3.4912,1.20849 l -1.477,7.34044 q -1.1414,-1.49942 -2.6856,-2.2827 -1.5441,-0.78328 -3.3569,-0.78328 -1.5889,0 -3.0436,0.67138 -1.4322,0.64901 -2.596,1.92463 -0.9175,1.05183 -1.7008,2.46173 -0.7609,1.40991 -1.3204,3.13312 -0.7161,2.19318 -1.0966,4.25208 -0.3804,2.03653 -0.3804,3.78212 0,3.22264 1.4322,4.99061 1.4323,1.74559 4.0283,1.74559 0.8057,0 1.4995,-0.17904 0.7161,-0.20141 1.2532,-0.55948 l 1.2756,-6.5124 h -4.6101 l 1.0966,-5.55009 h 10.2945 z"
     id="path24473"
     style="fill:#ffffff" /></g>
    </g><g
     transform="matrix(0.07979114,0,0,0.07979114,-94.8324,-10.118106)"
     id="g9194"
     style="clip-rule:evenodd;fill:#000000;fill-rule:evenodd;stroke-linecap:round;stroke-linejoin:round;stroke-miterlimit:1.5">
        <g
   transform="matrix(45.8333,0,0,45.8333,2012.82,904.74)"
   id="g9190"
   style="fill:#000000">
        </g>
        <g
   aria-label="H"
   id="text9192"
   style="font-style:italic;font-weight:700;font-size:45.833px;font-family:Menlo-BoldItalic, Menlo, monospace;fill:#000000"><path
     d="m 1991.5533,871.32755 h 6.602 l -2.4842,12.73388 h 8.258 l 2.4618,-12.73388 h 6.6019 l -6.5124,33.41244 h -6.6019 l 2.8869,-14.85992 h -8.2356 l -2.8869,14.85992 h -6.602 z"
     id="path24464"
     style="fill:#000000" /></g>
    </g><g
     transform="matrix(0.17018019,0,0,0.1661832,-282.58661,-50.013624)"
     id="g9200"
     style="clip-rule:evenodd;fill:#ffffff;fill-rule:evenodd;stroke-linecap:round;stroke-linejoin:round;stroke-miterlimit:1.5">
        <g
   transform="matrix(45.8333,0,0,45.8333,2012.82,904.74)"
   id="g9196"
   style="fill:#ffffff">
        </g>
        <g
   aria-label="A"
   id="text9198"
   style="font-style:italic;font-weight:700;font-size:45.833px;font-family:Menlo-BoldItalic, Menlo, monospace;fill:#ffffff"><path
     d="m 2001.266,877.45951 -5.9082,13.58429 h 6.3558 z m -3.0212,-6.13196 h 8.0566 l 2.5288,33.41244 h -6.5571 l -0.3133,-8.258 h -8.9518 l -3.6255,8.258 h -6.6914 z"
     id="path24488"
     style="fill:#ffffff" /></g>
    </g><g
     transform="matrix(0.07979114,0,0,0.07979114,-95.319923,43.144283)"
     id="g9206"
     style="clip-rule:evenodd;fill:#000000;fill-rule:evenodd;stroke-linecap:round;stroke-linejoin:round;stroke-miterlimit:1.5">
        <g
   transform="matrix(45.8333,0,0,45.8333,2012.82,904.74)"
   id="g9202"
   style="fill:#000000">
        </g>
        <g
   aria-label="B"
   id="text9204"
   style="font-style:italic;font-weight:700;font-size:45.833px;font-family:Menlo-BoldItalic, Menlo, monospace;fill:#000000"><path
     d="m 1994.1046,889.56676 -1.9246,9.89169 h 4.4087 q 3.4912,0 5.1249,-1.47704 1.6561,-1.49942 1.6561,-4.65491 0,-1.92463 -1.1861,-2.84218 -1.1862,-0.91756 -3.6703,-0.91756 z m 2.5289,-13.02481 -1.5218,7.76565 h 4.4087 q 2.7079,0 4.0731,-1.20848 1.3875,-1.23087 1.3875,-3.60309 0,-1.5218 -0.9623,-2.23794 -0.9624,-0.71614 -2.9765,-0.71614 z m -5.3711,-5.25915 h 10.7869 q 4.722,0 7.1166,1.85749 2.417,1.85748 2.417,5.52771 0,3.60308 -2.126,5.81864 -2.1261,2.21556 -6.0425,2.66315 3.1108,0.26855 4.834,2.03652 1.7232,1.76797 1.7232,4.69967 0,2.41698 -0.8504,4.52064 -0.8505,2.08129 -2.3946,3.49119 -1.6785,1.49942 -4.2521,2.1708 -2.5736,0.67138 -6.9376,0.67138 h -10.7645 z"
     id="path24500"
     style="fill:#000000" /></g>
    </g><g
     aria-label="JUNK DNA"
     id="text11234"
     style="font-style:italic;font-size:5.64444px;font-family:Menlo;-inkscape-font-specification:'Menlo Italic';text-align:center;text-anchor:middle;fill:#000000;stroke-width:0.352777;stroke-linecap:round;paint-order:fill markers stroke"><path
       d="m 24.72339,6.6118277 0.124023,-0.6504335 q 0.198437,0.2177298 0.451996,0.333485 0.253559,0.112999 0.537435,0.112999 0.391362,0 0.584288,-0.2011934 0.195681,-0.2011934 0.305924,-0.7689448 l 0.451996,-2.3040781 h -1.050064 l 0.09095,-0.4685326 h 1.609548 L 27.286539,5.43774 q -0.15434,0.7965055 -0.485069,1.110698 -0.330729,0.3114364 -0.986675,0.3114364 -0.267339,0 -0.542946,-0.06339 -0.275608,-0.06339 -0.548459,-0.184657 z"
       style="fill:#000000;stroke-width:0.352778"
       id="path24395" /><path
       d="m 28.50748,5.2007177 0.490581,-2.5355884 h 0.559483 l -0.493337,2.5355884 q -0.0055,0.035829 -0.02205,0.112999 -0.08268,0.4244354 -0.08268,0.5870438 0,0.2535589 0.148828,0.3803383 0.151584,0.1267794 0.454752,0.1267794 0.245291,0 0.416167,-0.07717 0.170877,-0.079926 0.2949,-0.2508027 0.06063,-0.085438 0.121268,-0.2921439 0.06339,-0.2094617 0.137803,-0.5870438 l 0.490582,-2.5355884 h 0.559483 l -0.490582,2.5355884 q -0.115755,0.6035802 -0.248046,0.8874559 -0.129536,0.2811196 -0.344509,0.4547522 -0.195682,0.1543402 -0.446485,0.2370224 -0.250802,0.079926 -0.542946,0.079926 -0.529166,0 -0.815798,-0.2480467 -0.283876,-0.2480467 -0.283876,-0.705555 0,-0.1019748 0.02205,-0.2756075 0.0248,-0.1736326 0.07441,-0.4299475 z"
       style="fill:#000000;stroke-width:0.352778"
       id="path24397" /><path
       d="m 32.374252,2.6651293 h 0.705555 l 0.727604,3.3872153 0.658701,-3.3872153 h 0.537435 L 34.201529,6.7799482 H 33.495974 L 32.768371,3.3927329 32.106913,6.7799482 h -0.534679 z"
       style="fill:#000000;stroke-width:0.352778"
       id="path24399" /><path
       d="m 35.76698,2.6651293 h 0.556727 l -0.350021,1.7831801 2.045007,-1.7831801 h 0.700043 l -1.937521,1.70601 1.1796,2.4088089 h -0.60358 l -0.992187,-2.042251 -0.531922,0.4630205 -0.308681,1.5792305 h -0.559483 z"
       style="fill:#000000;stroke-width:0.352778"
       id="path24401" /><path
       d="m 42.676457,6.3224399 q 0.509874,0 0.818554,-0.1708766 0.308681,-0.1736327 0.496094,-0.5622392 0.148828,-0.3169485 0.242534,-0.7551643 0.09646,-0.4409719 0.09646,-0.8075298 0,-0.4850691 -0.225998,-0.6945307 -0.225998,-0.2094617 -0.757921,-0.2094617 h -0.314192 l -0.622873,3.1998023 z m 0.722092,-3.6573106 q 0.752408,0 1.124478,0.3417532 0.374826,0.3417532 0.374826,1.036284 0,0.446484 -0.115755,0.9205288 -0.115755,0.4740447 -0.311436,0.8406026 -0.286632,0.5264102 -0.71658,0.7524083 -0.427191,0.223242 -1.157551,0.223242 h -0.83509 l 0.802017,-4.1148189 z"
       style="fill:#000000;stroke-width:0.352778"
       id="path24403" /><path
       d="m 45.967211,2.6651293 h 0.705555 l 0.727604,3.3872153 0.658702,-3.3872153 h 0.537434 L 47.794489,6.7799482 H 47.088934 L 46.36133,3.3927329 45.699872,6.7799482 h -0.534678 z"
       style="fill:#000000;stroke-width:0.352778"
       id="path24405" /><path
       d="m 50.605684,3.1281498 -1.003211,2.1332015 h 1.185112 z M 50.341101,2.6651293 h 0.677994 l 0.457508,4.1148189 h -0.55397 L 50.82617,5.7078353 h -1.433159 l -0.507117,1.0721129 h -0.598068 z"
       style="fill:#000000;stroke-width:0.352778"
       id="path24407" /></g><ellipse
     style="fill:#333333;fill-opacity:1;stroke:#000000;stroke-width:0.277702;stroke-linecap:round;stroke-opacity:1;paint-order:fill markers stroke"
     id="path11456"
     cx="37.997433"
     cy="44.620174"
     rx="4.6997991"
     ry="4.7467632" /><g
     transform="matrix(0.07979114,0,0,0.07979114,-145.38016,-36.254634)"
     id="g11638"
     style="clip-rule:evenodd;fill:#ffffff;fill-rule:evenodd;stroke-linecap:round;stroke-linejoin:round;stroke-miterlimit:1.5">
        <g
   transform="matrix(45.8333,0,0,45.8333,2012.82,904.74)"
   id="g11634"
   style="fill:#ffffff">
        </g>
        <text
   x="1985.22"
   y="904.73999"
   style="font-style:normal;font-weight:normal;font-size:45.833px;font-family:Menlo-BoldItalic, Menlo, monospace;fill:#ffffff;-inkscape-font-specification:'Menlo-BoldItalic, Menlo, monospace';font-stretch:normal;font-variant:normal"
   id="text11636" />
    </g><g
     aria-label="REPEAT PATTERN"
     id="text12550"
     style="font-size:3.175px;font-family:Menlo-BoldItalic, Menlo, monospace;-inkscape-font-specification:'Menlo-BoldItalic, Menlo, monospace';text-align:center;text-anchor:middle;fill:#000000;stroke-width:0.352777;stroke-linecap:round;paint-order:fill markers stroke"
     transform="translate(0,-3.7122455)"><path
       d="m 26.258686,27.292671 q 0.111621,0.0217 0.178284,0.10387 0.06821,0.08216 0.151929,0.356567 l 0.187585,0.63252 h -0.311609 l -0.164331,-0.584461 q -0.06821,-0.241845 -0.153479,-0.31781 -0.08372,-0.07596 -0.254248,-0.07596 h -0.297656 l -0.190686,0.978235 h -0.31471 L 25.5378,26.07104 h 0.644922 q 0.320911,0 0.496094,0.139527 0.176733,0.137976 0.176733,0.390674 0,0.283703 -0.16123,0.469738 -0.159681,0.186035 -0.435633,0.221692 z m -0.454236,-0.964282 -0.158129,0.821655 h 0.339514 q 0.252697,0 0.403076,-0.131775 0.151929,-0.133325 0.151929,-0.353466 0,-0.173633 -0.09767,-0.254248 -0.09767,-0.08217 -0.308508,-0.08217 z"
       style="font-style:italic;font-family:Menlo;-inkscape-font-specification:'Menlo Italic';fill:#000000;stroke-width:0.352778"
       id="path24410" /><path
       d="m 27.515974,26.07104 h 1.372009 l -0.05116,0.26355 h -1.0604 l -0.133325,0.68523 h 1.012341 l -0.04961,0.263549 h -1.013892 l -0.16123,0.838709 h 1.088305 l -0.05116,0.26355 h -1.403015 z"
       style="font-style:italic;font-family:Menlo;-inkscape-font-specification:'Menlo Italic';fill:#000000;stroke-width:0.352778"
       id="path24412" /><path
       d="m 29.687934,26.328389 -0.168982,0.869714 h 0.362769 q 0.255798,0 0.407727,-0.147277 0.153479,-0.148829 0.153479,-0.395325 0,-0.167432 -0.09612,-0.246497 -0.09612,-0.08061 -0.297657,-0.08061 z m -0.26355,-0.257349 h 0.682129 q 0.319361,0 0.486792,0.142627 0.167432,0.142627 0.167432,0.412378 0,0.386023 -0.248047,0.607715 -0.248047,0.221692 -0.682129,0.221692 h -0.361218 l -0.181384,0.930176 h -0.31471 z"
       style="font-style:italic;font-family:Menlo;-inkscape-font-specification:'Menlo Italic';fill:#000000;stroke-width:0.352778"
       id="path24414" /><path
       d="m 31.338996,26.07104 h 1.372009 l -0.05116,0.26355 h -1.060401 l -0.133325,0.68523 h 1.012341 l -0.04961,0.263549 h -1.01389 l -0.16123,0.838709 h 1.088305 l -0.05116,0.26355 H 30.88786 Z"
       style="font-style:italic;font-family:Menlo;-inkscape-font-specification:'Menlo Italic';fill:#000000;stroke-width:0.352778"
       id="path24416" /><path
       d="m 33.856672,26.33149 -0.564307,1.199926 h 0.666626 z m -0.148828,-0.26045 h 0.381372 l 0.257348,2.314588 h -0.311608 l -0.05426,-0.603064 h -0.806152 l -0.285254,0.603064 h -0.336413 z"
       style="font-style:italic;font-family:Menlo;-inkscape-font-specification:'Menlo Italic';fill:#000000;stroke-width:0.352778"
       id="path24418" /><path
       d="m 34.927925,26.07104 h 1.767334 l -0.05116,0.26355 h -0.727088 l -0.396875,2.051038 h -0.316259 l 0.399975,-2.051038 h -0.727087 z"
       style="font-style:italic;font-family:Menlo;-inkscape-font-specification:'Menlo Italic';fill:#000000;stroke-width:0.352778"
       id="path24420" /><path
       d="m 39.24549,26.328389 -0.168982,0.869714 h 0.362768 q 0.255799,0 0.407728,-0.147277 0.153479,-0.148829 0.153479,-0.395325 0,-0.167432 -0.09612,-0.246497 -0.09612,-0.08061 -0.297656,-0.08061 z M 38.98194,26.07104 h 0.682129 q 0.31936,0 0.486792,0.142627 0.167432,0.142627 0.167432,0.412378 0,0.386023 -0.248047,0.607715 -0.248047,0.221692 -0.682129,0.221692 h -0.361218 l -0.181385,0.930176 h -0.314709 z"
       style="font-style:italic;font-family:Menlo;-inkscape-font-specification:'Menlo Italic';fill:#000000;stroke-width:0.352778"
       id="path24422" /><path
       d="m 41.502717,26.33149 -0.564307,1.199926 h 0.666626 z m -0.148828,-0.26045 h 0.381372 l 0.257348,2.314588 H 41.681 l -0.05426,-0.603064 h -0.806152 l -0.285254,0.603064 H 40.19892 Z"
       style="font-style:italic;font-family:Menlo;-inkscape-font-specification:'Menlo Italic';fill:#000000;stroke-width:0.352778"
       id="path24424" /><path
       d="m 42.573968,26.07104 h 1.767334 l -0.05116,0.26355 h -0.727088 l -0.396875,2.051038 h -0.31626 l 0.399976,-2.051038 h -0.727087 z"
       style="font-style:italic;font-family:Menlo;-inkscape-font-specification:'Menlo Italic';fill:#000000;stroke-width:0.352778"
       id="path24426" /><path
       d="m 44.485481,26.07104 h 1.767334 l -0.05116,0.26355 h -0.727087 l -0.396875,2.051038 h -0.31626 l 0.399975,-2.051038 h -0.727087 z"
       style="font-style:italic;font-family:Menlo;-inkscape-font-specification:'Menlo Italic';fill:#000000;stroke-width:0.352778"
       id="path24428" /><path
       d="m 46.631085,26.07104 h 1.37201 l -0.05116,0.26355 h -1.0604 l -0.133326,0.68523 h 1.012342 l -0.04961,0.263549 H 46.70705 l -0.161231,0.838709 h 1.088306 l -0.05116,0.26355 H 46.17995 Z"
       style="font-style:italic;font-family:Menlo;-inkscape-font-specification:'Menlo Italic';fill:#000000;stroke-width:0.352778"
       id="path24430" /><path
       d="m 49.196819,27.292671 q 0.111622,0.0217 0.178284,0.10387 0.06821,0.08216 0.151929,0.356567 l 0.187585,0.63252 h -0.311609 l -0.164331,-0.584461 q -0.06821,-0.241845 -0.153479,-0.31781 -0.08371,-0.07596 -0.254248,-0.07596 h -0.297656 l -0.190686,0.978235 h -0.314709 l 0.448034,-2.314588 h 0.644922 q 0.320911,0 0.496094,0.139527 0.176733,0.137976 0.176733,0.390674 0,0.283703 -0.16123,0.469738 -0.15968,0.186035 -0.435633,0.221692 z m -0.454235,-0.964282 -0.15813,0.821655 h 0.339514 q 0.252698,0 0.403076,-0.131775 0.151929,-0.133325 0.151929,-0.353466 0,-0.173633 -0.09767,-0.254248 -0.09767,-0.08217 -0.308508,-0.08217 z"
       style="font-style:italic;font-family:Menlo;-inkscape-font-specification:'Menlo Italic';fill:#000000;stroke-width:0.352778"
       id="path24432" /><path
       d="m 50.362641,26.07104 h 0.396875 l 0.409277,1.90531 0.37052,-1.90531 h 0.302307 l -0.451135,2.314588 H 50.99361 l -0.409277,-1.90531 -0.37207,1.90531 h -0.300757 z"
       style="font-style:italic;font-family:Menlo;-inkscape-font-specification:'Menlo Italic';fill:#000000;stroke-width:0.352778"
       id="path24434" /></g><g
     id="g30386"
     inkscape:label="components"
     style="display:none"><circle
       cx="26.381367"
       cy="75.481583"
       r="2.7128987"
       style="clip-rule:evenodd;fill:#0000ff;fill-opacity:1;fill-rule:evenodd;stroke:none;stroke-width:0.332729px;stroke-linecap:round;stroke-linejoin:round;stroke-miterlimit:1.5;stroke-opacity:1"
       id="circle9088"
       inkscape:label="C" /><circle
       cx="38.305435"
       cy="73.407013"
       r="2.7128987"
       style="clip-rule:evenodd;fill:#0000ff;fill-opacity:1;fill-rule:evenodd;stroke:none;stroke-width:0.332729px;stroke-linecap:round;stroke-linejoin:round;stroke-miterlimit:1.5;stroke-opacity:1"
       id="circle9092"
       inkscape:label="S" /><circle
       cx="38.305435"
       cy="100.84551"
       r="2.7128987"
       style="clip-rule:evenodd;fill:#0000ff;fill-opacity:1;fill-rule:evenodd;stroke:none;stroke-width:0.332729px;stroke-linecap:round;stroke-linejoin:round;stroke-miterlimit:1.5;stroke-opacity:1"
       id="circle9096"
       inkscape:label="W" /><circle
       cx="16.109051"
       cy="64.810234"
       r="2.7128987"
       style="clip-rule:evenodd;fill:#0000ff;fill-opacity:1;fill-rule:evenodd;stroke:none;stroke-width:0.332729px;stroke-linecap:round;stroke-linejoin:round;stroke-miterlimit:1.5;stroke-opacity:1"
       id="circle9100"
       inkscape:label="D" /><circle
       cx="49.737991"
       cy="75.481583"
       r="2.7128987"
       style="clip-rule:evenodd;fill:#0000ff;fill-opacity:1;fill-rule:evenodd;stroke:none;stroke-width:0.332729px;stroke-linecap:round;stroke-linejoin:round;stroke-miterlimit:1.5;stroke-opacity:1"
       id="circle9104"
       inkscape:label="G" /><circle
       cx="60.12273"
       cy="64.857391"
       r="2.7128987"
       style="clip-rule:evenodd;fill:#0000ff;fill-opacity:1;fill-rule:evenodd;stroke:none;stroke-width:0.332729px;stroke-linecap:round;stroke-linejoin:round;stroke-miterlimit:1.5;stroke-opacity:1"
       id="circle9108"
       inkscape:label="H" /><circle
       cx="49.737991"
       cy="99.14476"
       r="2.7128987"
       style="clip-rule:evenodd;fill:#0000ff;fill-opacity:1;fill-rule:evenodd;stroke:none;stroke-width:0.332729px;stroke-linecap:round;stroke-linejoin:round;stroke-miterlimit:1.5;stroke-opacity:1"
       id="circle9112"
       inkscape:label="A" /><circle
       cx="60.007587"
       cy="109.57394"
       r="2.7128987"
       style="clip-rule:evenodd;fill:#0000ff;fill-opacity:1;fill-rule:evenodd;stroke:none;stroke-width:0.332729px;stroke-linecap:round;stroke-linejoin:round;stroke-miterlimit:1.5;stroke-opacity:1"
       id="circle9116"
       inkscape:label="B" /><circle
       cx="26.381367"
       cy="99.14476"
       r="2.7128987"
       style="clip-rule:evenodd;fill:#0000ff;fill-opacity:1;fill-rule:evenodd;stroke:none;stroke-width:0.332729px;stroke-linecap:round;stroke-linejoin:round;stroke-miterlimit:1.5;stroke-opacity:1"
       id="circle9120"
       inkscape:label="T" /><circle
       cx="24.067427"
       cy="87.142662"
       r="2.7128987"
       style="clip-rule:evenodd;fill:#0000ff;fill-opacity:1;fill-rule:evenodd;stroke:none;stroke-width:0.332729px;stroke-linecap:round;stroke-linejoin:round;stroke-miterlimit:1.5;stroke-opacity:1"
       id="circle9124"
       inkscape:label="Y" /><circle
       cx="52.094383"
       cy="87.142662"
       r="2.7128987"
       style="clip-rule:evenodd;fill:#0000ff;fill-opacity:1;fill-rule:evenodd;stroke:none;stroke-width:0.332729px;stroke-linecap:round;stroke-linejoin:round;stroke-miterlimit:1.5;stroke-opacity:1"
       id="circle9128"
       inkscape:label="R" /><circle
       cx="16.255865"
       cy="109.82928"
       r="2.7128987"
       style="clip-rule:evenodd;fill:#0000ff;fill-opacity:1;fill-rule:evenodd;stroke:none;stroke-width:0.332729px;stroke-linecap:round;stroke-linejoin:round;stroke-miterlimit:1.5;stroke-opacity:1"
       id="circle9132"
       inkscape:label="V" /><circle
       cx="71.506813"
       cy="35.499725"
       r="2.7128987"
       style="clip-rule:evenodd;fill:#0000ff;fill-opacity:1;fill-rule:evenodd;stroke:none;stroke-width:0.332729px;stroke-linecap:round;stroke-linejoin:round;stroke-miterlimit:1.5;stroke-opacity:1"
       id="circle11644"
       inkscape:label="FWD" /><circle
       cx="71.382004"
       cy="49.352909"
       r="2.7128987"
       style="clip-rule:evenodd;fill:#0000ff;fill-opacity:1;fill-rule:evenodd;stroke:none;stroke-width:0.332729px;stroke-linecap:round;stroke-linejoin:round;stroke-miterlimit:1.5;stroke-opacity:1"
       id="circle11652"
       inkscape:label="RESET" /><circle
       cx="5.7681274"
       cy="35.874134"
       r="2.7128987"
       style="clip-rule:evenodd;fill:#0000ff;fill-opacity:1;fill-rule:evenodd;stroke:none;stroke-width:0.332729px;stroke-linecap:round;stroke-linejoin:round;stroke-miterlimit:1.5;stroke-opacity:1"
       id="circle14004"
       inkscape:label="BACK" /><circle
       cx="63.942329"
       cy="35.499725"
       r="2.7128987"
       style="clip-rule:evenodd;fill:#ff0000;fill-opacity:1;fill-rule:evenodd;stroke:none;stroke-width:0.332729px;stroke-linecap:round;stroke-linejoin:round;stroke-miterlimit:1.5;stroke-opacity:1"
       id="circle14008"
       inkscape:label="FWD" /><circle
       cx="64.225243"
       cy="49.352909"
       r="2.7128987"
       style="clip-rule:evenodd;fill:#ff0000;fill-opacity:1;fill-rule:evenodd;stroke:none;stroke-width:0.332729px;stroke-linecap:round;stroke-linejoin:round;stroke-miterlimit:1.5;stroke-opacity:1"
       id="circle14012"
       inkscape:label="RESET" /><circle
       cx="38.112358"
       cy="87.251877"
       r="2.7128987"
       style="clip-rule:evenodd;fill:#0000ff;fill-opacity:1;fill-rule:evenodd;stroke:none;stroke-width:0.332729px;stroke-linecap:round;stroke-linejoin:round;stroke-miterlimit:1.5;stroke-opacity:1"
       id="circle14016"
       inkscape:label="N" /><circle
       cx="12.491145"
       cy="35.874134"
       r="2.7128987"
       style="clip-rule:evenodd;fill:#ff0000;fill-opacity:1;fill-rule:evenodd;stroke:none;stroke-width:0.332729px;stroke-linecap:round;stroke-linejoin:round;stroke-miterlimit:1.5;stroke-opacity:1"
       id="circle11510"
       inkscape:label="BACK" /><rect
       style="fill:#ffff00;fill-opacity:1;stroke:none;stroke-width:0.355253;stroke-linecap:round;stroke-opacity:1;paint-order:fill markers stroke"
       id="rect30339"
       width="29.083969"
       height="7.6749363"
       x="2.8276081"
       y="38.576653"
       inkscape:label="LEFT" /><rect
       style="fill:#ffff00;fill-opacity:1;stroke:none;stroke-width:0.358934;stroke-linecap:round;stroke-opacity:1;paint-order:fill markers stroke"
       id="rect30341"
       width="29.689886"
       height="7.6749363"
       x="44.0299"
       y="38.576653"
       inkscape:label="RIGHT" /><rect
       style="fill:#ffff00;fill-opacity:1;stroke:none;stroke-width:0.211254;stroke-linecap:round;stroke-opacity:1;paint-order:fill markers stroke"
       id="rect30343"
       width="8.6847963"
       height="9.0887403"
       x="33.527355"
       y="37.162849"
       inkscape:label="CENTER" /></g><rect
     style="clip-rule:evenodd;fill:#333333;fill-opacity:1;fill-rule:evenodd;stroke:#000000;stroke-width:0.274811;stroke-linejoin:round;stroke-miterlimit:1.5;stroke-dasharray:none;stroke-opacity:1"
     id="rect2-9"
     width="9.3510151"
     height="16.728821"
     x="45.18734"
     y="58.892265"
     rx="2.7377527"
     ry="2.7377527"
     transform="matrix(0,1,1,0,0,0)" /><g
     aria-label="FWD"
     id="text761"
     style="font-style:italic;font-size:3.175px;font-family:Menlo;-inkscape-font-specification:'Menlo Italic';text-align:center;text-anchor:middle;fill:#000000;stroke-width:0.352777;stroke-linecap:round;paint-order:fill markers stroke"
     transform="translate(-1.5875,-1.0583333)"><path
       d="m 55.971182,30.40488 h 1.362707 l -0.05116,0.26355 h -1.047998 l -0.133325,0.682128 h 0.948779 l -0.04961,0.26355 h -0.95033 l -0.21549,1.105359 h -0.31471 z"
       style="fill:#000000;stroke-width:0.352778"
       id="path832" /><path
       d="m 57.513723,30.40488 h 0.296106 l -0.139526,1.875854 0.510046,-1.240234 h 0.327112 l 0.02325,1.243335 0.584461,-1.878955 h 0.306958 l -0.79065,2.314587 h -0.300757 l -0.04806,-1.348755 -0.575158,1.348755 H 57.41605 Z"
       style="fill:#000000;stroke-width:0.352778"
       id="path834" /><path
       d="m 59.702737,32.462119 q 0.286804,0 0.460437,-0.09612 0.173632,-0.09767 0.279052,-0.316259 0.08372,-0.178284 0.136426,-0.424781 0.05426,-0.248047 0.05426,-0.454235 0,-0.272852 -0.127124,-0.390674 -0.127124,-0.117823 -0.42633,-0.117823 h -0.176734 l -0.350366,1.799891 z m 0.406176,-2.057239 q 0.42323,0 0.63252,0.192236 0.21084,0.192236 0.21084,0.58291 0,0.251148 -0.06511,0.517798 -0.06511,0.26665 -0.175183,0.472839 -0.16123,0.296106 -0.403076,0.42323 -0.240295,0.125574 -0.651123,0.125574 h -0.469739 l 0.451136,-2.314587 z"
       style="fill:#000000;stroke-width:0.352778"
       id="path836" /></g><g
     aria-label="RESET"
     id="text819"
     style="font-style:italic;font-size:3.175px;font-family:Menlo;-inkscape-font-specification:'Menlo Italic';text-align:center;text-anchor:middle;fill:#000000;stroke-width:0.352777;stroke-linecap:round;paint-order:fill markers stroke"
     transform="translate(0,0.52916667)"><path
       d="m 16.525158,49.60202 q 0.111621,0.0217 0.178283,0.10387 0.06821,0.08217 0.151929,0.356567 l 0.187585,0.63252 h -0.311608 l -0.164331,-0.584461 q -0.06821,-0.241845 -0.153479,-0.31781 -0.08372,-0.07596 -0.254249,-0.07596 h -0.297656 l -0.190686,0.978235 h -0.314709 l 0.448034,-2.314588 h 0.644922 q 0.320911,0 0.496094,0.139527 0.176733,0.137976 0.176733,0.390674 0,0.283703 -0.16123,0.469738 -0.15968,0.186036 -0.435632,0.221692 z m -0.454236,-0.964282 -0.15813,0.821655 h 0.339514 q 0.252698,0 0.403076,-0.131775 0.151929,-0.133325 0.151929,-0.353466 0,-0.173633 -0.09767,-0.254248 -0.09767,-0.08217 -0.308508,-0.08217 z"
       style="fill:#000000;stroke-width:0.352778"
       id="path846" /><path
       d="m 17.782445,48.380389 h 1.372009 l -0.05116,0.26355 h -1.060401 l -0.133325,0.68523 h 1.012341 l -0.04961,0.26355 H 17.85841 l -0.161231,0.838708 h 1.088306 l -0.05116,0.26355 H 17.33131 Z"
       style="fill:#000000;stroke-width:0.352778"
       id="path848" /><path
       d="m 20.938842,48.459454 -0.06046,0.31781 q -0.125574,-0.09147 -0.260449,-0.137976 -0.134876,-0.04651 -0.279053,-0.04651 -0.255798,0 -0.417029,0.127124 -0.16123,0.127124 -0.16123,0.324011 0,0.110071 0.07596,0.178284 0.07597,0.06821 0.275952,0.130224 l 0.187586,0.06046 q 0.252698,0.07751 0.36897,0.207739 0.117822,0.128674 0.117822,0.328662 0,0.364319 -0.257349,0.578259 -0.257348,0.21239 -0.702282,0.21239 -0.161231,0 -0.317811,-0.03566 -0.155029,-0.03411 -0.310058,-0.10387 l 0.06356,-0.324011 q 0.151929,0.10697 0.306958,0.15813 0.156579,0.05116 0.330212,0.05116 0.255799,0 0.415479,-0.136426 0.15968,-0.136425 0.15968,-0.345715 0,-0.127124 -0.06821,-0.196887 -0.06821,-0.06976 -0.274402,-0.133325 l -0.156579,-0.05116 q -0.285254,-0.08992 -0.399976,-0.203088 -0.113171,-0.114722 -0.113171,-0.302307 0,-0.342615 0.255798,-0.559656 0.255798,-0.218591 0.668176,-0.218591 0.124024,0 0.26355,0.03101 0.141077,0.03101 0.288355,0.08992 z"
       style="fill:#000000;stroke-width:0.352778"
       id="path850" /><path
       d="m 21.605467,48.380389 h 1.37201 l -0.05116,0.26355 h -1.0604 l -0.133326,0.68523 h 1.012342 l -0.04961,0.26355 h -1.013891 l -0.161231,0.838708 h 1.088306 l -0.05116,0.26355 h -1.403015 z"
       style="fill:#000000;stroke-width:0.352778"
       id="path852" /><path
       d="m 23.282884,48.380389 h 1.767334 l -0.05116,0.26355 H 24.27197 l -0.396875,2.051038 h -0.316259 l 0.399975,-2.051038 h -0.727087 z"
       style="fill:#000000;stroke-width:0.352778"
       id="path854" /></g><g
     aria-label="DNA"
     id="text605"
     style="font-style:italic;font-size:3.175px;font-family:Menlo;-inkscape-font-specification:'Menlo Italic';text-align:center;text-anchor:middle;fill:#212121;stroke-width:0.352777;stroke-linecap:round;paint-order:fill markers stroke"
     transform="translate(3.1750001,0.52916667)"><path
       d="m 56.938049,50.437628 q 0.286804,0 0.460437,-0.09612 0.173632,-0.09767 0.279052,-0.31626 0.08372,-0.178283 0.136426,-0.42478 0.05426,-0.248047 0.05426,-0.454236 0,-0.272851 -0.127124,-0.390674 -0.127124,-0.117822 -0.42633,-0.117822 h -0.176734 l -0.350366,1.79989 z m 0.406176,-2.057239 q 0.42323,0 0.63252,0.192237 0.21084,0.192236 0.21084,0.58291 0,0.251147 -0.06511,0.517798 -0.06511,0.26665 -0.175183,0.472839 -0.16123,0.296106 -0.403076,0.42323 -0.240295,0.125574 -0.651123,0.125574 h -0.469739 l 0.451136,-2.314588 z"
       style="fill:#ffffff;stroke-width:0.352778"
       id="path825" /><path
       d="m 58.789098,48.380389 h 0.396875 l 0.409278,1.90531 0.37052,-1.90531 h 0.302307 l -0.451135,2.314588 h -0.396875 l -0.409278,-1.90531 -0.37207,1.90531 h -0.300757 z"
       style="fill:#ffffff;stroke-width:0.352778"
       id="path827" /><path
       d="m 61.398241,48.640839 -0.564306,1.199926 h 0.666626 z m -0.148828,-0.26045 h 0.381372 l 0.257349,2.314588 h -0.311609 l -0.05426,-0.603064 h -0.806153 l -0.285253,0.603064 h -0.336414 z"
       style="fill:#ffffff;stroke-width:0.352778"
       id="path829" /></g><g
     aria-label="REV"
     id="text823"
     style="font-style:italic;font-size:3.175px;font-family:Menlo;-inkscape-font-specification:'Menlo Italic';text-align:center;text-anchor:middle;fill:#000000;stroke-width:0.352777;stroke-linecap:round;paint-order:fill markers stroke"
     transform="translate(0,-1.0583333)"><path
       d="m 16.849167,31.626511 q 0.111621,0.0217 0.178284,0.103869 0.06821,0.08217 0.151929,0.356568 l 0.187585,0.632519 h -0.311609 l -0.164331,-0.58446 q -0.06821,-0.241846 -0.153479,-0.31781 -0.08372,-0.07597 -0.254248,-0.07597 h -0.297656 l -0.190686,0.978235 h -0.31471 l 0.448035,-2.314587 h 0.644922 q 0.320911,0 0.496094,0.139526 0.176733,0.137976 0.176733,0.390674 0,0.283704 -0.16123,0.469739 -0.159681,0.186035 -0.435633,0.221692 z m -0.454236,-0.964283 -0.158129,0.821656 h 0.339514 q 0.252697,0 0.403076,-0.131775 0.151929,-0.133325 0.151929,-0.353467 0,-0.173633 -0.09767,-0.254248 -0.09767,-0.08217 -0.308508,-0.08217 z"
       style="fill:#000000;stroke-width:0.352778"
       id="path839" /><path
       d="m 18.106455,30.40488 h 1.372009 l -0.05116,0.26355 h -1.0604 l -0.133325,0.685229 h 1.012341 l -0.04961,0.26355 h -1.013892 l -0.16123,0.838708 h 1.088305 l -0.05116,0.26355 H 17.65532 Z"
       style="fill:#000000;stroke-width:0.352778"
       id="path841" /><path
       d="M 20.275315,32.424912 21.20239,30.40488 h 0.333313 l -1.114661,2.314587 H 20.021067 L 19.793174,30.40488 h 0.306958 z"
       style="fill:#000000;stroke-width:0.352778"
       id="path843" /></g></svg>
