<?xml version="1.0" encoding="UTF-8" standalone="no"?>
<!-- Created with Inkscape (http://www.inkscape.org/) -->

<svg
   width="152.60001mm"
   height="128.5mm"
   viewBox="0 0 152.60003 128.50002"
   version="1.1"
   id="svg8"
   inkscape:version="1.3.2 (091e20e, 2023-11-25)"
   sodipodi:docname="Magnets-dark.svg"
   xml:space="preserve"
   xmlns:inkscape="http://www.inkscape.org/namespaces/inkscape"
   xmlns:sodipodi="http://sodipodi.sourceforge.net/DTD/sodipodi-0.dtd"
   xmlns="http://www.w3.org/2000/svg"
   xmlns:svg="http://www.w3.org/2000/svg"
   xmlns:rdf="http://www.w3.org/1999/02/22-rdf-syntax-ns#"
   xmlns:cc="http://creativecommons.org/ns#"
   xmlns:dc="http://purl.org/dc/elements/1.1/"
   xmlns:serif="http://www.serif.com/"><defs
     id="defs2">
            
            
        
            
            
        
            
            
        
            
            
        </defs><sodipodi:namedview
     id="base"
     pagecolor="#ffffff"
     bordercolor="#666666"
     borderopacity="1.0"
     inkscape:pageopacity="0.0"
     inkscape:pageshadow="2"
     inkscape:zoom="1.7469907"
     inkscape:cx="98.741224"
     inkscape:cy="245.56513"
     inkscape:document-units="mm"
     inkscape:current-layer="svg8"
     showgrid="false"
     units="mm"
     inkscape:snap-bbox="true"
     inkscape:snap-page="true"
     inkscape:bbox-nodes="false"
     inkscape:snap-bbox-edge-midpoints="false"
     inkscape:window-width="1400"
     inkscape:window-height="971"
     inkscape:window-x="25"
     inkscape:window-y="38"
     inkscape:window-maximized="0"
     inkscape:snap-bbox-midpoints="true"
     inkscape:snap-nodes="false"
     inkscape:showpageshadow="2"
     inkscape:pagecheckerboard="0"
     inkscape:deskcolor="#d1d1d1"
     showguides="true" /><metadata
     id="metadata5"><rdf:RDF><cc:Work
         rdf:about=""><dc:format>image/svg+xml</dc:format><dc:type
           rdf:resource="http://purl.org/dc/dcmitype/StillImage" /></cc:Work></rdf:RDF></metadata><rect
     id="rect1"
     x="-0.16655771"
     y="-0.38949111"
     width="153.05493"
     height="129.14665"
     style="clip-rule:evenodd;fill:#202020;fill-rule:evenodd;stroke-width:0.497961;stroke-linejoin:round;stroke-miterlimit:1.5" /><g
     id="g1"
     transform="translate(25.500004)"><path
       id="path128"
       d="m 47.614778,125.9342 c 0.05984,0.1268 0.07943,0.25396 0.05842,0.38219 h -0.419235 c -0.0064,-0.0983 -0.02565,-0.1724 -0.05842,-0.22227 -0.05735,-0.089 -0.160997,-0.13357 -0.310597,-0.13357 -0.152449,0 -0.28602,0.0627 -0.4,0.18843 -0.114337,0.12538 -0.195192,0.30276 -0.242921,0.5325 -0.04809,0.22974 -0.03776,0.40143 0.0317,0.51612 0.0691,0.11433 0.175246,0.17133 0.318434,0.17133 0.147106,0 0.269635,-0.0492 0.367587,-0.14747 0.05378,-0.0524 0.105432,-0.13179 0.155298,-0.23722 h 0.415317 c -0.08264,0.22333 -0.213357,0.40463 -0.391452,0.54461 -0.178451,0.13927 -0.384328,0.20944 -0.617632,0.20944 -0.288513,0 -0.495815,-0.0944 -0.621906,-0.28317 -0.125379,-0.18985 -0.153162,-0.44986 -0.08442,-0.78076 0.07409,-0.35726 0.225468,-0.63295 0.453429,-0.82636 0.198753,-0.16848 0.424221,-0.2529 0.676403,-0.2529 0.337667,0 0.560642,0.11327 0.669992,0.3391 z"
       style="clip-rule:evenodd;fill:#ffffff;fill-rule:nonzero;stroke-width:0.356189;stroke-linejoin:round;stroke-miterlimit:1.5" /><path
       id="path129"
       d="m 48.543007,127.18869 0.764026,-1.55441 h 0.435619 l -1.110954,2.04667 h -0.396083 l -0.252181,-2.04667 h 0.448442 z"
       style="clip-rule:evenodd;fill:#ffffff;fill-rule:nonzero;stroke-width:0.356189;stroke-linejoin:round;stroke-miterlimit:1.5" /><path
       id="path130"
       d="m 51.325913,126.18139 -0.05877,0.27925 H 51.01318 l -0.253607,1.22031 h -0.386466 l 0.253606,-1.22031 h -0.216919 l 0.05842,-0.27925 h 0.212645 l 0.01995,-0.0972 c 0.03419,-0.16207 0.08406,-0.27355 0.149955,-0.33482 0.07551,-0.0905 0.220482,-0.13606 0.43562,-0.13606 0.02458,0 0.04666,7.1e-4 0.06625,0.002 0.01959,0.001 0.04666,0.004 0.08121,0.006 l -0.06803,0.32271 c -0.02102,-0.003 -0.05699,-0.005 -0.107569,-0.006 -0.05093,-10e-4 -0.08905,0.01 -0.113981,0.0345 -0.02493,0.0246 -0.03989,0.0516 -0.04559,0.0812 -0.0064,0.0299 -0.01532,0.0723 -0.02743,0.12787 z"
       style="clip-rule:evenodd;fill:#ffffff;fill-rule:nonzero;stroke-width:0.356189;stroke-linejoin:round;stroke-miterlimit:1.5" /><path
       id="path131"
       d="m 52.23277,127.46759 c -0.0043,0.005 -0.01638,0.0185 -0.03562,0.0417 -0.01888,0.0232 -0.04025,0.0431 -0.06376,0.0609 -0.07266,0.0556 -0.139626,0.0933 -0.200891,0.11363 -0.06091,0.0203 -0.129653,0.0306 -0.206234,0.0306 -0.219412,0 -0.350846,-0.0801 -0.393232,-0.2415 -0.02386,-0.0887 -0.01745,-0.21977 0.01888,-0.39287 l 0.189492,-0.91256 h 0.397151 l -0.189136,0.91256 c -0.01817,0.0862 -0.02173,0.15066 -0.01104,0.19447 0.01923,0.0769 0.0805,0.11541 0.183794,0.11541 0.132502,0 0.234728,-0.0549 0.306678,-0.1642 0.03811,-0.0591 0.06732,-0.13749 0.08727,-0.23438 l 0.171327,-0.82386 h 0.393233 l -0.314515,1.51345 h -0.376849 z"
       style="clip-rule:evenodd;fill:#ffffff;fill-rule:nonzero;stroke-width:0.356189;stroke-linejoin:round;stroke-miterlimit:1.5" /><path
       id="path132"
       d="m 54.078899,126.76091 c 0.0171,-0.0798 0.01959,-0.14105 0.0068,-0.18344 -0.02173,-0.078 -0.08584,-0.11683 -0.193055,-0.11683 -0.13179,0 -0.234016,0.057 -0.306323,0.17062 -0.03847,0.0605 -0.06696,0.13749 -0.08584,0.23081 l -0.170259,0.81888 h -0.386465 l 0.314159,-1.51096 h 0.374711 l -0.04631,0.22084 c 0.0659,-0.0773 0.125023,-0.13357 0.177026,-0.16777 0.09225,-0.0613 0.200179,-0.0915 0.322352,-0.0915 0.153517,0 0.270347,0.0406 0.350846,0.12289 0.08014,0.0819 0.100801,0.21763 0.06162,0.40748 l -0.212289,1.01906 h -0.397507 z"
       style="clip-rule:evenodd;fill:#ffffff;fill-rule:nonzero;stroke-width:0.356189;stroke-linejoin:round;stroke-miterlimit:1.5" /><path
       id="path133"
       d="m 55.118971,127.20543 -0.09759,0.47552 h -0.381484 l 0.424934,-2.0399 h 0.381122 l -0.230454,1.10312 0.601959,-0.5699 h 0.480856 l -0.640072,0.57952 0.346928,0.92716 h -0.468389 l -0.220125,-0.64684 z"
       style="clip-rule:evenodd;fill:#ffffff;fill-rule:nonzero;stroke-width:0.356189;stroke-linejoin:round;stroke-miterlimit:1.5" /><path
       id="path134"
       d="m 38.333556,126.66688 h 6.62227"
       style="clip-rule:evenodd;fill:none;fill-rule:evenodd;stroke:#d08c59;stroke-width:0.227961px;stroke-linecap:round;stroke-linejoin:round;stroke-miterlimit:1.5" /><path
       id="path135"
       d="m 56.644173,126.66688 h 6.62227"
       style="clip-rule:evenodd;fill:none;fill-rule:evenodd;stroke:#d08c59;stroke-width:0.227961px;stroke-linecap:round;stroke-linejoin:round;stroke-miterlimit:1.5" /></g><path
     d="m 1664,384.285 v 823.425 c 0,17.82 -14.47,32.29 -32.28,32.29 H 808.285 C 790.466,1240 776,1225.53 776,1207.71 V 384.285 C 776,366.466 790.466,352 808.285,352 h 823.435 c 17.81,0 32.28,14.466 32.28,32.285 z"
     style="clip-rule:evenodd;fill-rule:evenodd;stroke-width:2.91596904;stroke-linecap:round;stroke-linejoin:round;stroke-miterlimit:1.5;stroke:#cf8359;stroke-opacity:1;stroke-dasharray:none;fill:#666666;fill-opacity:1"
     id="path14"
     transform="matrix(0.12088653,0,0,0.12107618,-54.767753,-30.446893)" /><path
     d="m 103.71536,58.56702 v 15.875259 c 0,1.767223 -1.43212,3.202029 -3.1976,3.202029 H 84.735564 c -1.764275,0 -3.197599,-1.434806 -3.197599,-3.202029 V 58.56702 c 0,-1.767223 1.433324,-3.202029 3.197599,-3.202029 h 15.782196 c 1.76548,0 3.1976,1.434806 3.1976,3.202029 z"
     id="path13"
     style="clip-rule:evenodd;fill:#212121;fill-opacity:1;fill-rule:evenodd;stroke:#d08358;stroke-width:0.352778;stroke-linecap:round;stroke-linejoin:round;stroke-miterlimit:1.5;stroke-dasharray:none;stroke-opacity:1"
     sodipodi:nodetypes="sssssssss" /><g
     id="g55"
     transform="matrix(0.3520232,0,0,0.3520232,-0.73168526,-6.1429565)"
     style="clip-rule:evenodd;fill-rule:evenodd;stroke-linecap:square;stroke-linejoin:round;stroke-miterlimit:1.5">
            <path
   id="path401"
   serif:id="path40"
   d="M 44.843,92.605 42.539,92.03 43.112,89.722"
   style="fill:none;stroke:#d08c59;stroke-width:0.7px;stroke-linecap:butt;stroke-linejoin:miter;stroke-miterlimit:10" />
            <path
   id="path411"
   serif:id="path41"
   d="M 18.355,91.132 C 13.01,87.25 9.539,80.994 9.539,73.942 c 0,-11.767 9.668,-21.32 21.577,-21.32 11.909,0 21.578,9.553 21.578,21.32 0,6.065 -2.569,11.542 -6.689,15.426 -1.059,0.998 -2.22,1.892 -3.466,2.662"
   style="fill:none;stroke:#d08c59;stroke-width:0.7px;stroke-linecap:butt" />
        </g><path
     d="M 10.221869,26.362417 V 39.477265"
     style="clip-rule:evenodd;fill:none;fill-rule:evenodd;stroke:#d08c59;stroke-width:0.352779;stroke-linecap:square;stroke-linejoin:round;stroke-miterlimit:1.5;stroke-dasharray:none"
     id="path66" /><path
     d="M 5.6219814,25.828132 4.5662637,27.31895"
     style="clip-rule:evenodd;fill:none;fill-rule:evenodd;stroke:#d08c59;stroke-width:0.264017px;stroke-linecap:square;stroke-linejoin:round;stroke-miterlimit:1.5"
     id="path67" /><path
     d="m 12.524452,28.072192 0.05421,-0.259793 h 0.674477 l 0.145385,-0.679053 h 0.26437 l -0.145386,0.679053 h 0.674477 l -0.05421,0.259793 h -0.674477 l -0.143625,0.677645 h -0.264722 l 0.143978,-0.677645 z"
     style="clip-rule:evenodd;fill:#d08c59;fill-rule:nonzero;stroke-width:0.352023;stroke-linecap:square;stroke-linejoin:round;stroke-miterlimit:1.5"
     id="path69" /><path
     d="m 6.8104118,27.759947 h 1.7745489 l -0.049635,0.227407 H 6.7611288 Z"
     style="clip-rule:evenodd;fill:#d08c59;fill-rule:nonzero;stroke-width:0.352023;stroke-linecap:square;stroke-linejoin:round;stroke-miterlimit:1.5"
     id="path70" /><g
     id="g2"
     transform="matrix(0.3520232,0,0,0.3520232,16.239753,38.141043)"
     style="clip-rule:evenodd;fill-rule:evenodd;stroke-linecap:square;stroke-linejoin:round;stroke-miterlimit:1.5">
            <path
   id="path1"
   serif:id="path40"
   d="M 44.843,92.605 42.539,92.03 43.112,89.722"
   style="fill:none;stroke:#d08c59;stroke-width:0.7px;stroke-linecap:butt;stroke-linejoin:miter;stroke-miterlimit:10" />
            <path
   id="path2"
   serif:id="path41"
   d="M 18.355,91.132 C 13.01,87.25 9.539,80.994 9.539,73.942 c 0,-11.767 9.668,-21.32 21.577,-21.32 11.909,0 21.578,9.553 21.578,21.32 0,6.065 -2.569,11.542 -6.689,15.426 -1.059,0.998 -2.22,1.892 -3.466,2.662"
   style="fill:none;stroke:#d08c59;stroke-width:0.7px;stroke-linecap:butt" />
        </g><path
     d="M 27.193309,71.830699 V 87.163846"
     style="clip-rule:evenodd;fill:none;fill-rule:evenodd;stroke:#d08c59;stroke-width:0.352778;stroke-linecap:square;stroke-linejoin:round;stroke-miterlimit:1.5;stroke-dasharray:none"
     id="path3" /><path
     d="M 22.593419,70.112132 21.537702,71.60295"
     style="clip-rule:evenodd;fill:none;fill-rule:evenodd;stroke:#d08c59;stroke-width:0.264017px;stroke-linecap:square;stroke-linejoin:round;stroke-miterlimit:1.5"
     id="path4" /><path
     d="m 29.49589,72.456335 0.05421,-0.259793 h 0.674477 l 0.145385,-0.679053 h 0.26437 l -0.145386,0.679053 h 0.674477 l -0.05421,0.259793 h -0.674477 l -0.143625,0.677645 h -0.264722 l 0.143978,-0.677645 z"
     style="clip-rule:evenodd;fill:#d08c59;fill-rule:nonzero;stroke-width:0.352023;stroke-linecap:square;stroke-linejoin:round;stroke-miterlimit:1.5"
     id="path5" /><path
     d="m 23.78185,72.14409 h 1.774549 l -0.04963,0.227407 h -1.774197 z"
     style="clip-rule:evenodd;fill:#d08c59;fill-rule:nonzero;stroke-width:0.352023;stroke-linecap:square;stroke-linejoin:round;stroke-miterlimit:1.5"
     id="path6" /><path
     id="path7"
     serif:id="path40"
     d="m 32.025529,26.456152 -0.811061,-0.202413 0.201709,-0.81247"
     style="clip-rule:evenodd;fill:none;fill-rule:evenodd;stroke:#d08c59;stroke-width:0.246416px;stroke-linecap:butt;stroke-linejoin:miter;stroke-miterlimit:10" /><path
     id="path8"
     serif:id="path41"
     d="m 22.701139,25.937622 c -1.881564,-1.366554 -3.103437,-3.568811 -3.103437,-6.051279 0,-4.142257 3.403361,-7.505135 7.595605,-7.505135 4.192244,0 7.595957,3.362878 7.595957,7.505135 0,2.135021 -0.904348,4.063052 -2.354684,5.43031 -0.372792,0.351319 -0.781491,0.666028 -1.220112,0.937086"
     style="clip-rule:evenodd;fill:none;fill-rule:evenodd;stroke:#d08c59;stroke-width:0.246416px;stroke-linecap:butt;stroke-linejoin:round;stroke-miterlimit:1.5" /><path
     id="path15"
     serif:id="path40"
     d="M 22.098833,26.355713 22.909895,26.1533 22.708186,25.34083"
     style="clip-rule:evenodd;fill:none;fill-rule:evenodd;stroke:#d08c59;stroke-width:0.246416px;stroke-linecap:butt;stroke-linejoin:miter;stroke-miterlimit:10"
     sodipodi:nodetypes="ccc" /><path
     d="M 27.193307,26.362417 V 39.477265"
     style="clip-rule:evenodd;fill:none;fill-rule:evenodd;stroke:#d08c59;stroke-width:0.352779;stroke-linecap:square;stroke-linejoin:round;stroke-miterlimit:1.5;stroke-dasharray:none"
     id="path9" /><path
     d="m 29.49589,28.072192 0.05421,-0.259793 h 0.674477 l 0.145385,-0.679053 h 0.26437 l -0.145386,0.679053 h 0.674477 l -0.05421,0.259793 h -0.674477 l -0.143625,0.677645 h -0.264722 l 0.143978,-0.677645 z"
     style="clip-rule:evenodd;fill:#d08c59;fill-rule:nonzero;stroke-width:0.352023;stroke-linecap:square;stroke-linejoin:round;stroke-miterlimit:1.5"
     id="path11" /><path
     d="m 23.78185,27.759947 h 1.774549 l -0.04963,0.227407 h -1.774197 z"
     style="clip-rule:evenodd;fill:#d08c59;fill-rule:nonzero;stroke-width:0.352023;stroke-linecap:square;stroke-linejoin:round;stroke-miterlimit:1.5"
     id="path12" /><g
     id="g17"
     transform="matrix(0.3520232,0,0,0.3520232,-0.81276764,38.141043)"
     style="clip-rule:evenodd;fill-rule:evenodd;stroke-linecap:square;stroke-linejoin:round;stroke-miterlimit:1.5">
            <path
   id="path16"
   serif:id="path40"
   d="M 44.843,92.605 42.539,92.03 43.112,89.722"
   style="fill:none;stroke:#d08c59;stroke-width:0.7px;stroke-linecap:butt;stroke-linejoin:miter;stroke-miterlimit:10" />
            <path
   id="path17"
   serif:id="path41"
   d="M 18.355,91.132 C 13.01,87.25 9.539,80.994 9.539,73.942 c 0,-11.767 9.668,-21.32 21.577,-21.32 11.909,0 21.578,9.553 21.578,21.32 0,6.065 -2.569,11.542 -6.689,15.426 -1.059,0.998 -2.22,1.892 -3.466,2.662"
   style="fill:none;stroke:#d08c59;stroke-width:0.7px;stroke-linecap:butt" />
        </g><path
     d="M 5.5408984,70.112132 4.4851814,71.60295"
     style="clip-rule:evenodd;fill:none;fill-rule:evenodd;stroke:#d08c59;stroke-width:0.264017px;stroke-linecap:square;stroke-linejoin:round;stroke-miterlimit:1.5"
     id="path18" /><path
     d="m 6.0855863,47.497318 h 1.7673339 l -0.05116,0.263549 H 7.0746732 l -0.396875,2.051038 H 6.3615384 L 6.761514,47.760867 H 6.0344266 Z m 2.1456054,0 H 9.603201 l -0.05116,0.263549 H 8.4916409 l -0.1333252,0.68523 H 9.370657 l -0.049609,0.26355 H 8.307156 l -0.1612304,0.838708 h 1.0883056 l -0.05116,0.26355 H 7.7800564 Z m 1.7332275,0 h 0.4170288 l 0.170532,1.172021 0.641821,-1.172021 h 0.41858 l -0.451136,2.314587 h -0.288354 l 0.399975,-2.057239 -0.672827,1.232483 H 10.381448 L 10.203164,47.754666 9.8062893,49.811905 H 9.5179348 Z m 2.3502438,0.257348 -0.168982,0.869715 h 0.362769 q 0.255798,0 0.407727,-0.147278 0.153479,-0.148828 0.153479,-0.395325 0,-0.167432 -0.09612,-0.246497 -0.09612,-0.08062 -0.297657,-0.08062 z m -0.26355,-0.257348 h 0.682129 q 0.31936,0 0.486792,0.142626 0.167432,0.142627 0.167432,0.412378 0,0.386023 -0.248047,0.607715 -0.248047,0.221692 -0.682129,0.221692 h -0.361218 l -0.181385,0.930176 h -0.314709 z"
     id="text18"
     style="font-style:italic;font-size:3.175px;font-family:Menlo;-inkscape-font-specification:'Menlo Italic';text-align:end;text-anchor:end;clip-rule:evenodd;fill:#ffffff;fill-rule:evenodd;stroke-width:0.352777;stroke-linecap:square;stroke-linejoin:round;stroke-miterlimit:1.5"
     aria-label="TEMP" /><path
     d="m 20.202088,47.754666 -0.168982,0.869715 h 0.362769 q 0.255798,0 0.407727,-0.147278 0.153479,-0.148828 0.153479,-0.395325 0,-0.167432 -0.09612,-0.246497 -0.09612,-0.08062 -0.297656,-0.08062 z m -0.263549,-0.257348 h 0.682128 q 0.319361,0 0.486792,0.142626 0.167432,0.142627 0.167432,0.412378 0,0.386023 -0.248047,0.607715 -0.248047,0.221692 -0.682129,0.221692 h -0.361218 l -0.181384,0.930176 h -0.31471 z m 2.159558,2.105297 q 0.131775,0 0.243396,-0.07906 0.111621,-0.07906 0.184484,-0.226342 0.114722,-0.224793 0.186036,-0.544153 0.07131,-0.319361 0.07131,-0.613916 0,-0.220142 -0.08216,-0.324011 -0.08062,-0.10542 -0.251148,-0.10542 -0.131775,0 -0.241846,0.07906 -0.11007,0.07906 -0.182934,0.226342 -0.117822,0.227893 -0.189136,0.544153 -0.07131,0.31626 -0.07131,0.610816 0,0.221692 0.08062,0.327111 0.08216,0.10542 0.252698,0.10542 z m 1.00614,-1.372009 q 0,0.170532 -0.03566,0.37052 -0.03411,0.199988 -0.100769,0.410828 -0.04496,0.142627 -0.09767,0.255798 -0.05116,0.113171 -0.111622,0.204639 -0.136425,0.196887 -0.305407,0.291455 -0.168982,0.09302 -0.393775,0.09302 -0.311609,0 -0.461987,-0.190686 -0.150378,-0.190686 -0.150378,-0.587561 0,-0.172082 0.03256,-0.368969 0.03411,-0.198438 0.100769,-0.409278 0.04496,-0.142627 0.09612,-0.255798 0.05271,-0.113171 0.113171,-0.204639 0.136426,-0.196887 0.305408,-0.289905 0.168982,-0.09457 0.393774,-0.09457 0.31316,0 0.463538,0.190686 0.151929,0.189135 0.151929,0.58446 z m 0.699182,-0.733288 h 0.313159 l -0.399976,2.051037 h 1.117762 l -0.05116,0.26355 h -1.43092 z m 2.478918,0.260449 -0.564307,1.199926 h 0.666626 z m -0.148828,-0.260449 h 0.381372 l 0.257349,2.314587 h -0.311609 l -0.05426,-0.603064 h -0.806152 l -0.285254,0.603064 h -0.336413 z m 2.108399,1.22163 q 0.111621,0.0217 0.178283,0.10387 0.06821,0.08217 0.151929,0.356567 l 0.187585,0.63252 h -0.311609 l -0.164331,-0.584461 q -0.06821,-0.241845 -0.153479,-0.31781 -0.08372,-0.07596 -0.254248,-0.07596 h -0.297656 l -0.190686,0.978235 h -0.314709 l 0.448034,-2.314587 h 0.644922 q 0.320911,0 0.496094,0.139526 0.176733,0.137976 0.176733,0.390674 0,0.283703 -0.16123,0.469738 -0.15968,0.186036 -0.435632,0.221692 z m -0.454236,-0.964282 -0.15813,0.821655 h 0.339514 q 0.252698,0 0.403076,-0.131774 0.151929,-0.133326 0.151929,-0.353467 0,-0.173633 -0.09767,-0.254248 -0.09767,-0.08217 -0.308508,-0.08217 z m 1.714624,-0.257348 h 1.286743 l -0.05116,0.263549 h -0.486792 l -0.345715,1.787488 h 0.486792 l -0.05116,0.26355 h -1.286743 l 0.05116,-0.26355 h 0.485242 l 0.347265,-1.787488 h -0.486792 z m 1.674316,0 h 1.767334 l -0.05116,0.263549 h -0.727088 l -0.396875,2.051038 h -0.316259 l 0.399975,-2.051038 h -0.727087 z m 1.914612,0 h 0.313159 l 0.365869,1.00924 0.770495,-1.00924 h 0.337964 l -0.984436,1.275891 -0.199987,1.038696 h -0.320911 l 0.203088,-1.038696 z"
     id="text19"
     style="font-style:italic;font-size:3.175px;font-family:Menlo;-inkscape-font-specification:'Menlo Italic';text-align:end;text-anchor:end;clip-rule:evenodd;fill:#ffffff;fill-rule:evenodd;stroke-width:0.352777;stroke-linecap:square;stroke-linejoin:round;stroke-miterlimit:1.5"
     aria-label="POLARITY" /><path
     d="m 6.9739041,75.024117 q 0.1116211,0.0217 0.1782837,0.103869 0.068213,0.08217 0.1519287,0.356568 L 7.491702,76.117073 H 7.1800931 L 7.015762,75.532613 q -0.068213,-0.241846 -0.153479,-0.31781 -0.083716,-0.07596 -0.254248,-0.07596 H 6.3103788 L 6.1196927,76.117073 H 5.8049833 l 0.4480346,-2.314587 h 0.6449219 q 0.3209106,0 0.4960937,0.139526 0.1767334,0.137976 0.1767334,0.390674 0,0.283703 -0.1612304,0.469739 -0.1596802,0.186035 -0.4356324,0.221692 z M 6.5196683,74.059834 6.3615384,74.88149 h 0.3395142 q 0.2526977,0 0.4030761,-0.131775 0.1519288,-0.133326 0.1519288,-0.353467 0,-0.173633 -0.097669,-0.254248 -0.097668,-0.08217 -0.3085083,-0.08217 z m 2.3176879,0.0031 -0.5643066,1.199927 h 0.666626 z M 8.6885281,73.802486 h 0.3813721 l 0.2573486,2.314587 H 9.0156399 l -0.05426,-0.603064 H 8.1552273 L 7.8699734,76.117073 H 7.5335599 Z m 1.2200805,0 h 1.7673344 l -0.05116,0.263549 h -0.727087 l -0.396875,2.051038 h -0.31626 l 0.399975,-2.051038 H 9.857449 Z m 2.1456054,0 h 1.372009 l -0.05116,0.263549 h -1.0604 l -0.133325,0.68523 h 1.012341 l -0.04961,0.26355 h -1.013892 l -0.16123,0.838708 h 1.088305 l -0.05116,0.26355 h -1.403015 z"
     id="text20"
     style="font-style:italic;font-size:3.175px;font-family:Menlo;-inkscape-font-specification:'Menlo Italic';text-align:end;text-anchor:end;clip-rule:evenodd;fill:#ffffff;fill-rule:evenodd;stroke-width:0.352777;stroke-linecap:square;stroke-linejoin:round;stroke-miterlimit:1.5"
     aria-label="RATE" /><path
     d="m 19.94474,92.272067 h 1.286743 l -0.05116,0.26355 h -0.486792 l -0.345715,1.787488 h 0.486792 l -0.05116,0.26355 h -1.286743 l 0.05116,-0.26355 h 0.485241 l 0.347266,-1.787488 H 19.89358 Z m 1.816943,0 h 0.396875 l 0.409277,1.90531 0.37052,-1.90531 h 0.302308 l -0.451136,2.314588 h -0.396875 l -0.409277,-1.90531 -0.37207,1.90531 h -0.300757 z m 1.768884,0 h 1.767334 l -0.05116,0.26355 h -0.727088 l -0.396875,2.051038 h -0.31626 l 0.399976,-2.051038 h -0.727087 z m 2.145605,0 h 1.37201 l -0.05116,0.26355 h -1.0604 l -0.133326,0.68523 h 1.012342 l -0.04961,0.263549 h -1.013891 l -0.161231,0.838709 h 1.088306 l -0.05116,0.26355 h -1.403015 z m 2.565736,1.221631 q 0.111621,0.0217 0.178283,0.10387 0.06821,0.08217 0.151929,0.356567 l 0.187585,0.63252 h -0.311609 l -0.164331,-0.584461 q -0.06821,-0.241845 -0.153479,-0.31781 -0.08372,-0.07596 -0.254248,-0.07596 h -0.297656 l -0.190686,0.978235 h -0.314709 l 0.448034,-2.314588 h 0.644922 q 0.320911,0 0.496094,0.139527 0.176733,0.137976 0.176733,0.390673 0,0.283704 -0.16123,0.469739 -0.15968,0.186035 -0.435632,0.221692 z m -0.454236,-0.964282 -0.15813,0.821655 h 0.339514 q 0.252698,0 0.403076,-0.131775 0.151929,-0.133325 0.151929,-0.353467 0,-0.173632 -0.09767,-0.254248 -0.09767,-0.08217 -0.308508,-0.08217 z m 2.317688,0.0031 -0.564307,1.199926 h 0.666626 z m -0.148828,-0.26045 h 0.381372 l 0.257348,2.314588 h -0.311608 l -0.05426,-0.603064 h -0.806152 l -0.285254,0.603064 h -0.336414 z m 2.38435,2.232422 q -0.130225,0.06356 -0.26355,0.09457 -0.131775,0.03256 -0.272852,0.03256 -0.356567,0 -0.553454,-0.206189 -0.195337,-0.206189 -0.195337,-0.578259 0,-0.341065 0.10852,-0.675928 0.108521,-0.334863 0.285254,-0.547253 0.165881,-0.201538 0.365869,-0.297656 0.199988,-0.09612 0.455786,-0.09612 0.124024,0 0.246497,0.03256 0.122473,0.03256 0.238745,0.09457 l -0.06356,0.320911 q -0.09922,-0.09767 -0.209289,-0.145727 -0.110071,-0.04806 -0.234095,-0.04806 -0.147278,0 -0.272851,0.06356 -0.125574,0.06201 -0.235645,0.190686 -0.16123,0.190687 -0.260449,0.488343 -0.09767,0.297656 -0.09767,0.596863 0,0.2682 0.120922,0.410827 0.120923,0.142627 0.348816,0.142627 0.131775,0 0.271302,-0.04961 0.141076,-0.04961 0.277502,-0.144178 z m 0.747241,-2.232422 h 1.767334 l -0.05116,0.26355 H 34.07721 l -0.396875,2.051038 h -0.31626 l 0.399976,-2.051038 h -0.727088 z"
     id="text21"
     style="font-style:italic;font-size:3.175px;font-family:Menlo;-inkscape-font-specification:'Menlo Italic';text-align:end;text-anchor:end;clip-rule:evenodd;fill:#ffffff;fill-rule:evenodd;stroke-width:0.352777;stroke-linecap:square;stroke-linejoin:round;stroke-miterlimit:1.5"
     aria-label="INTERACT" /><g
     id="text23"
     style="font-style:italic;font-size:3.175px;font-family:Menlo;-inkscape-font-specification:'Menlo Italic';text-align:end;text-anchor:end;clip-rule:evenodd;fill:#ffffff;fill-rule:evenodd;stroke-width:0.352777;stroke-linecap:square;stroke-linejoin:round;stroke-miterlimit:1.5"
     aria-label="TAPE&#10;HEAD"><path
       d="m 6.2721479,114.47287 h 1.7673339 l -0.05116,0.26355 H 7.2612348 l -0.396875,2.05104 H 6.5481 l 0.3999756,-2.05104 H 6.2209882 Z m 2.7517699,0.26045 -0.5643066,1.19993 h 0.666626 z m -0.1488281,-0.26045 h 0.3813721 l 0.2573486,2.31459 H 9.2022015 l -0.05426,-0.60306 H 8.3417889 L 8.056535,116.78746 H 7.7201215 Z m 1.7146243,0.25735 -0.168982,0.86972 H 10.7835 q 0.255799,0 0.407727,-0.14728 0.153479,-0.14883 0.153479,-0.39533 0,-0.16743 -0.09612,-0.24649 -0.09612,-0.0806 -0.297656,-0.0806 z m -0.26355,-0.25735 h 0.682129 q 0.31936,0 0.486792,0.14263 0.167431,0.14263 0.167431,0.41238 0,0.38602 -0.248046,0.60771 -0.248047,0.22169 -0.682129,0.22169 h -0.361219 l -0.181384,0.93018 H 9.8750286 Z m 1.914611,0 h 1.37201 l -0.05116,0.26355 h -1.0604 l -0.133326,0.68523 h 1.012342 l -0.04961,0.26355 H 12.31674 l -0.161231,0.83871 h 1.088306 l -0.05116,0.26355 H 11.78964 Z"
       id="path25" /><path
       d="m 6.4116742,118.44162 h 0.3131592 l -0.1829346,0.94878 h 0.857312 l 0.1829346,-0.94878 h 0.3147095 l -0.4511353,2.31459 H 7.1325604 l 0.2154908,-1.10226 H 6.4876386 l -0.2123902,1.10226 H 5.960539 Z m 2.0060791,0 h 1.3720092 l -0.05116,0.26355 H 8.6782025 l -0.1333252,0.68523 h 1.0123413 l -0.049609,0.26355 H 8.4937176 l -0.1612304,0.83871 h 1.0883056 l -0.05116,0.26355 H 7.966618 Z m 2.5176757,0.26045 -0.564307,1.19993 h 0.666626 z m -0.148828,-0.26045 h 0.381372 l 0.257349,2.31459 h -0.311609 l -0.05426,-0.60306 H 10.2533 l -0.2852538,0.60306 H 9.6316326 Z m 1.423169,2.05724 q 0.286804,0 0.460437,-0.0961 0.173632,-0.0977 0.279052,-0.31626 0.08372,-0.17828 0.136426,-0.42478 0.05426,-0.24804 0.05426,-0.45423 0,-0.27285 -0.127124,-0.39068 -0.127124,-0.11782 -0.42633,-0.11782 h -0.176734 l -0.350366,1.79989 z m 0.406176,-2.05724 q 0.42323,0 0.63252,0.19224 0.21084,0.19224 0.21084,0.58291 0,0.25115 -0.06511,0.5178 -0.06511,0.26665 -0.175183,0.47284 -0.16123,0.2961 -0.403076,0.42323 -0.240295,0.12557 -0.651123,0.12557 h -0.469739 l 0.451136,-2.31459 z"
       id="path26" /></g><path
     style="font-style:italic;font-size:5.64444px;font-family:Menlo;-inkscape-font-specification:'Menlo Italic';text-align:end;text-anchor:end;fill:#ffffff;stroke-width:0.352778;stroke-linejoin:round"
     d="m 18.986123,3.473765 h 0.741384 L 20.030675,5.5573572 21.17169,3.473765 h 0.74414 l -0.802018,4.1148189 h -0.51263 L 21.31225,3.9312733 20.116113,6.1223524 H 19.727507 L 19.410558,3.9312733 18.705003,7.5885839 h -0.512629 z m 4.792813,0.4630205 -1.003211,2.1332015 h 1.185112 z M 23.514353,3.473765 h 0.677994 l 0.457509,4.1148189 H 24.095885 L 23.999422,6.516471 h -1.433159 l -0.507117,1.0721129 h -0.598068 z m 4.307744,3.8502358 q -0.239778,0.1708766 -0.523654,0.259071 -0.283876,0.085438 -0.606336,0.085438 -0.63941,0 -0.983919,-0.369314 -0.341753,-0.37207 -0.341753,-1.0583325 0,-0.2480467 0.0441,-0.5264102 0.04685,-0.2811196 0.135048,-0.5870438 0.09646,-0.3224607 0.225998,-0.5815317 0.129535,-0.261827 0.283875,-0.446484 0.2949,-0.3582897 0.650434,-0.5291663 0.35829,-0.1708766 0.815798,-0.1708766 0.220486,0 0.438216,0.057878 0.220486,0.057878 0.432704,0.1681205 l -0.113,0.5705074 q -0.179144,-0.1736327 -0.377582,-0.259071 -0.195681,-0.085438 -0.418923,-0.085438 -0.270095,0 -0.507118,0.1157551 -0.237022,0.1129991 -0.424435,0.3362411 -0.121267,0.1433158 -0.228754,0.3582896 -0.107487,0.2149738 -0.190169,0.482313 -0.09371,0.3141925 -0.143316,0.5897999 -0.04685,0.2756075 -0.04685,0.4988495 0,0.4712887 0.21773,0.7276036 0.21773,0.2563149 0.617361,0.2563149 0.187413,0 0.336241,-0.049609 0.148828,-0.052365 0.250803,-0.148828 l 0.209461,-1.0831372 h -0.598068 l 0.08268,-0.4575084 h 1.12999 z M 29.335182,3.473765 h 0.705555 l 0.727604,3.3872153 0.658702,-3.3872153 h 0.537434 L 31.16246,7.5885839 H 30.456905 L 29.729301,4.2013686 29.067843,7.5885839 h -0.534678 z m 3.560848,0 h 2.439126 l -0.09095,0.4685326 h -1.885155 l -0.237022,1.2181849 h 1.799717 l -0.08819,0.4685326 h -1.802472 l -0.286632,1.4910362 h 1.934764 l -0.09095,0.4685326 h -2.494248 z m 2.982072,0 h 3.141925 l -0.09095,0.4685326 h -1.2926 L 36.930922,7.5885839 H 36.368683 L 37.07975,3.9422976 H 35.787151 Z M 41.905638,3.6143248 41.798151,4.17932 Q 41.574909,4.0167116 41.33513,3.9340294 q -0.239778,-0.082682 -0.496093,-0.082682 -0.454752,0 -0.741384,0.2259981 -0.286632,0.2259981 -0.286632,0.5760195 0,0.1956813 0.135048,0.3169486 0.135048,0.1212672 0.490581,0.2315102 l 0.333485,0.1074869 q 0.44924,0.1378037 0.655946,0.369314 0.209461,0.2287541 0.209461,0.5842877 0,0.6476775 -0.457508,1.0280157 -0.457508,0.3775822 -1.248502,0.3775822 -0.286631,0 -0.564995,-0.06339 -0.275607,-0.060634 -0.551215,-0.184657 l 0.112999,-0.5760195 q 0.270096,0.1901691 0.545703,0.2811196 0.278364,0.09095 0.587044,0.09095 0.454752,0 0.738628,-0.2425345 0.283876,-0.2425346 0.283876,-0.6146046 0,-0.2259981 -0.121268,-0.3500214 Q 40.839037,5.88533 40.472479,5.772331 L 40.194116,5.681381 Q 39.686998,5.5215282 39.483048,5.3203348 39.281855,5.1163853 39.281855,4.7829003 q 0,-0.6090924 0.454752,-0.9949428 0.454753,-0.3886065 1.187868,-0.3886065 0.220486,0 0.468533,0.055122 0.250803,0.055121 0.51263,0.1598518 z"
     id="text1"
     aria-label="MAGNETS" /><path
     d="m 23.531975,115.50794 q 0.111621,0.0217 0.178283,0.10387 0.06821,0.0822 0.151929,0.35657 l 0.187585,0.63252 h -0.311609 l -0.164331,-0.58446 q -0.06821,-0.24185 -0.153479,-0.31781 -0.08371,-0.076 -0.254248,-0.076 h -0.297656 l -0.190686,0.97824 h -0.314709 l 0.448034,-2.31459 h 0.644922 q 0.320911,0 0.496094,0.13953 0.176733,0.13797 0.176733,0.39067 0,0.28371 -0.16123,0.46974 -0.15968,0.18604 -0.435632,0.22169 z m -0.454236,-0.96428 -0.15813,0.82166 h 0.339514 q 0.252698,0 0.403076,-0.13178 0.151929,-0.13332 0.151929,-0.35347 0,-0.17363 -0.09767,-0.25424 -0.09767,-0.0822 -0.308508,-0.0822 z m 1.711523,-0.25735 h 1.372009 l -0.05116,0.26355 h -1.060401 l -0.133325,0.68523 h 1.012341 l -0.04961,0.26355 h -1.013892 l -0.16123,0.83871 h 1.088306 l -0.05116,0.26355 h -1.403015 z m 3.156397,0.0791 -0.06046,0.31781 q -0.125574,-0.0915 -0.260449,-0.13798 -0.134876,-0.0465 -0.279053,-0.0465 -0.255798,0 -0.417029,0.12713 -0.16123,0.12712 -0.16123,0.32401 0,0.11007 0.07596,0.17828 0.07597,0.0682 0.275952,0.13023 l 0.187586,0.0605 q 0.252698,0.0775 0.36897,0.20774 0.117822,0.12867 0.117822,0.32866 0,0.36432 -0.257349,0.57826 -0.257348,0.21239 -0.702283,0.21239 -0.16123,0 -0.31781,-0.0357 -0.155029,-0.0341 -0.310058,-0.10387 l 0.06356,-0.32401 q 0.151929,0.10697 0.306958,0.15813 0.156579,0.0512 0.330212,0.0512 0.255799,0 0.415479,-0.13643 0.15968,-0.13642 0.15968,-0.34571 0,-0.12713 -0.06821,-0.19689 -0.06821,-0.0698 -0.274402,-0.13332 l -0.156579,-0.0512 q -0.285254,-0.0899 -0.399976,-0.20309 -0.113171,-0.11472 -0.113171,-0.30231 0,-0.34261 0.255798,-0.55966 0.255798,-0.21859 0.668176,-0.21859 0.124024,0 0.26355,0.031 0.141077,0.031 0.288355,0.0899 z m 0.666625,-0.0791 h 1.372009 l -0.05116,0.26355 h -1.060401 l -0.133325,0.68523 h 1.012342 l -0.04961,0.26355 h -1.013891 l -0.161231,0.83871 h 1.088306 l -0.05116,0.26355 h -1.403015 z m 1.677417,0 h 1.767334 l -0.05116,0.26355 h -0.727088 l -0.396875,2.05104 h -0.316259 l 0.399975,-2.05104 h -0.727087 z"
     id="text24"
     style="font-style:italic;font-size:3.175px;font-family:Menlo;-inkscape-font-specification:'Menlo Italic';text-align:end;text-anchor:end;clip-rule:evenodd;fill:#ffffff;fill-rule:evenodd;stroke-width:0.352777;stroke-linecap:square;stroke-linejoin:round;stroke-miterlimit:1.5"
     aria-label="RESET" /><path
     d="M 27.193308,98.924873 V 109.61813"
     style="clip-rule:evenodd;fill:none;fill-rule:evenodd;stroke:#d08c59;stroke-width:0.352778;stroke-linecap:square;stroke-linejoin:round;stroke-miterlimit:1.5;stroke-dasharray:none;stroke-opacity:1"
     id="path10" /></svg>
