<?xml version="1.0" encoding="UTF-8" standalone="no"?>
<!-- Created with Inkscape (http://www.inkscape.org/) -->

<svg
   width="50.799999mm"
   height="128.5mm"
   viewBox="0 0 50.800003 128.50002"
   version="1.1"
   id="svg8"
   inkscape:version="1.2 (dc2aeda, 2022-05-15)"
   sodipodi:docname="Morta-dark.svg"
   xml:space="preserve"
   xmlns:inkscape="http://www.inkscape.org/namespaces/inkscape"
   xmlns:sodipodi="http://sodipodi.sourceforge.net/DTD/sodipodi-0.dtd"
   xmlns="http://www.w3.org/2000/svg"
   xmlns:svg="http://www.w3.org/2000/svg"
   xmlns:rdf="http://www.w3.org/1999/02/22-rdf-syntax-ns#"
   xmlns:cc="http://creativecommons.org/ns#"
   xmlns:dc="http://purl.org/dc/elements/1.1/"
   xmlns:serif="http://www.serif.com/"><defs
     id="defs2"><linearGradient
       id="_Linear1"
       x1="0"
       y1="0"
       x2="1"
       y2="-0.0028738601"
       gradientUnits="userSpaceOnUse"
       gradientTransform="matrix(75.07254,292.27101,-293.02254,74.879903,36.973994,42.144002)"><stop
         offset="0"
         style="stop-color:#e6e6e6;stop-opacity:1"
         id="stop1" /><stop
         offset="1"
         style="stop-color:#e6e6e6;stop-opacity:0"
         id="stop2" /></linearGradient></defs><sodipodi:namedview
     id="base"
     pagecolor="#ffffff"
     bordercolor="#666666"
     borderopacity="1.0"
     inkscape:pageopacity="0.0"
     inkscape:pageshadow="2"
     inkscape:zoom="1.6328077"
     inkscape:cx="10.717735"
     inkscape:cy="347.86705"
     inkscape:document-units="mm"
     inkscape:current-layer="Layer-1"
     showgrid="false"
     units="mm"
     inkscape:snap-bbox="true"
     inkscape:snap-page="true"
     inkscape:bbox-nodes="false"
     inkscape:snap-bbox-edge-midpoints="false"
     inkscape:window-width="1392"
     inkscape:window-height="916"
     inkscape:window-x="78"
     inkscape:window-y="38"
     inkscape:window-maximized="0"
     inkscape:snap-bbox-midpoints="true"
     inkscape:snap-nodes="false"
     inkscape:showpageshadow="2"
     inkscape:pagecheckerboard="0"
     inkscape:deskcolor="#d1d1d1"
     showguides="true" /><metadata
     id="metadata5"><rdf:RDF><cc:Work
         rdf:about=""><dc:format>image/svg+xml</dc:format><dc:type
           rdf:resource="http://purl.org/dc/dcmitype/StillImage" /></cc:Work></rdf:RDF></metadata><g
     id="Layer-1"
     serif:id="Layer 1"
     style="clip-rule:evenodd;fill-rule:evenodd;stroke-linejoin:round;stroke-miterlimit:1.5"
     transform="matrix(0.35618918,0,0,0.35618918,-0.39015967,-0.81904413)"><rect
       id="rect1"
       x="0.52905142"
       y="0.79500002"
       width="143.75348"
       height="364.815"
       style="fill:#202020;stroke-width:0.999998" /><path
       id="path22526"
       d="m 106.92407,114.9482 h 17.01515"
       style="clip-rule:evenodd;display:inline;fill:none;fill-rule:evenodd;stroke:#d08c59;stroke-width:0.9904225;stroke-linecap:round;stroke-linejoin:round;stroke-miterlimit:1.5;stroke-dasharray:none;stroke-opacity:1" /><g
       id="g3"
       transform="translate(-1.5477091)"><path
         id="path128"
         d="m 65.011,354.825 c 0.168,0.356 0.223,0.713 0.164,1.073 h -1.177 c -0.018,-0.276 -0.072,-0.484 -0.164,-0.624 -0.161,-0.25 -0.452,-0.375 -0.872,-0.375 -0.428,0 -0.803,0.176 -1.123,0.529 -0.321,0.352 -0.548,0.85 -0.682,1.495 -0.135,0.645 -0.106,1.127 0.089,1.449 0.194,0.321 0.492,0.481 0.894,0.481 0.413,0 0.757,-0.138 1.032,-0.414 0.151,-0.147 0.296,-0.37 0.436,-0.666 h 1.166 c -0.232,0.627 -0.599,1.136 -1.099,1.529 -0.501,0.391 -1.079,0.588 -1.734,0.588 -0.81,0 -1.392,-0.265 -1.746,-0.795 -0.352,-0.533 -0.43,-1.263 -0.237,-2.192 0.208,-1.003 0.633,-1.777 1.273,-2.32 0.558,-0.473 1.191,-0.71 1.899,-0.71 0.948,0 1.574,0.318 1.881,0.952 z"
         style="fill:#ffffff;fill-rule:nonzero" /><path
         id="path129"
         d="m 67.617,358.347 2.145,-4.364 h 1.223 l -3.119,5.746 h -1.112 l -0.708,-5.746 h 1.259 z"
         style="fill:#ffffff;fill-rule:nonzero" /><path
         id="path130"
         d="m 75.43,355.519 -0.165,0.784 h -0.713 l -0.712,3.426 h -1.085 l 0.712,-3.426 h -0.609 l 0.164,-0.784 h 0.597 l 0.056,-0.273 c 0.096,-0.455 0.236,-0.768 0.421,-0.94 0.212,-0.254 0.619,-0.382 1.223,-0.382 0.069,0 0.131,0.002 0.186,0.006 0.055,0.004 0.131,0.01 0.228,0.017 l -0.191,0.906 c -0.059,-0.008 -0.16,-0.014 -0.302,-0.018 -0.143,-0.004 -0.25,0.028 -0.32,0.097 -0.07,0.069 -0.112,0.145 -0.128,0.228 -0.018,0.084 -0.043,0.203 -0.077,0.359 z"
         style="fill:#ffffff;fill-rule:nonzero" /><path
         id="path131"
         d="m 77.976,359.13 c -0.012,0.013 -0.046,0.052 -0.1,0.117 -0.053,0.065 -0.113,0.121 -0.179,0.171 -0.204,0.156 -0.392,0.262 -0.564,0.319 -0.171,0.057 -0.364,0.086 -0.579,0.086 -0.616,0 -0.985,-0.225 -1.104,-0.678 -0.067,-0.249 -0.049,-0.617 0.053,-1.103 l 0.532,-2.562 h 1.115 l -0.531,2.562 c -0.051,0.242 -0.061,0.423 -0.031,0.546 0.054,0.216 0.226,0.324 0.516,0.324 0.372,0 0.659,-0.154 0.861,-0.461 0.107,-0.166 0.189,-0.386 0.245,-0.658 l 0.481,-2.313 h 1.104 l -0.883,4.249 h -1.058 z"
         style="fill:#ffffff;fill-rule:nonzero" /><path
         id="path132"
         d="m 83.159,357.146 c 0.048,-0.224 0.055,-0.396 0.019,-0.515 -0.061,-0.219 -0.241,-0.328 -0.542,-0.328 -0.37,0 -0.657,0.16 -0.86,0.479 -0.108,0.17 -0.188,0.386 -0.241,0.648 l -0.478,2.299 h -1.085 l 0.882,-4.242 h 1.052 l -0.13,0.62 c 0.185,-0.217 0.351,-0.375 0.497,-0.471 0.259,-0.172 0.562,-0.257 0.905,-0.257 0.431,0 0.759,0.114 0.985,0.345 0.225,0.23 0.283,0.611 0.173,1.144 l -0.596,2.861 h -1.116 z"
         style="fill:#ffffff;fill-rule:nonzero" /><path
         id="path133"
         d="m 86.079,358.394 -0.274,1.335 h -1.071 l 1.193,-5.727 h 1.07 l -0.647,3.097 1.69,-1.6 h 1.35 l -1.797,1.627 0.974,2.603 h -1.315 l -0.618,-1.816 z"
         style="fill:#ffffff;fill-rule:nonzero" /><path
         id="path134"
         d="M 38.954,356.882 H 57.546"
         style="fill:none;stroke:#d08c59;stroke-width:0.64px;stroke-linecap:round" /><path
         id="path135"
         d="m 90.361,356.882 h 18.592"
         style="fill:none;stroke:#d08c59;stroke-width:0.64px;stroke-linecap:round" /></g><path
       d="m 56.257323,7.6498806 h 1.980837 l 2.042739,9.5095664 1.849297,-9.5095664 h 1.508841 L 61.387382,19.202186 H 59.406545 L 57.363806,9.6926193 55.506771,19.202186 H 54.005668 Z M 67.47691,18.157604 q 0.6577,0 1.21481,-0.39462 0.557111,-0.39462 0.92078,-1.129696 0.572586,-1.121959 0.928518,-2.715914 0.355932,-1.593955 0.355932,-3.064108 0,-1.0987457 -0.410096,-1.6171677 -0.402357,-0.52616 -1.253498,-0.52616 -0.6577,0 -1.207073,0.39462 -0.549373,0.39462 -0.913043,1.1296957 -0.588061,1.137434 -0.943992,2.715914 -0.355932,1.57848 -0.355932,3.048633 0,1.106483 0.402358,1.632643 0.410095,0.52616 1.261236,0.52616 z m 5.021732,-6.847817 q 0,0.851141 -0.177966,1.849297 -0.170228,0.998157 -0.502947,2.050477 -0.224391,0.711863 -0.487471,1.276711 -0.255343,0.564848 -0.557111,1.02137 -0.680913,0.982681 -1.524316,1.454677 -0.843404,0.464259 -1.965362,0.464259 -1.555267,0 -2.305819,-0.951731 -0.750552,-0.95173 -0.750552,-2.932568 0,-0.858878 0.162491,-1.841559 0.170228,-0.990419 0.502947,-2.042739 0.224392,-0.711864 0.479734,-1.276712 0.26308,-0.5648477 0.564848,-1.0213687 0.680913,-0.9826807 1.524317,-1.4469397 0.843403,-0.471996 1.965362,-0.471996 1.563004,0 2.313556,0.95173 0.758289,0.9439927 0.758289,2.9170924 z m 2.839716,-3.6599064 h 1.980838 l 2.042739,9.5095664 1.849297,-9.5095664 h 1.508841 L 80.468418,19.202186 H 78.48758 L 76.444842,9.6926193 74.587807,19.202186 h -1.501104 z m 13.022459,1.2999247 -2.816503,5.9889377 h 3.327188 z M 87.618003,7.6498806 h 1.903461 l 1.284449,11.5523054 h -1.555267 l -0.270817,-3.009944 h -4.023576 l -1.423727,3.009944 h -1.67907 z"
       id="text1"
       style="font-style:italic;font-size:15.8467px;font-family:Menlo;-inkscape-font-specification:'Menlo Italic';display:none;fill:#ffffff;stroke-width:0.742817"
       aria-label="NONA" /><path
       d="m 47.026311,19.212257 q 1.431464,0 2.298081,-0.479734 0.866616,-0.487472 1.392776,-1.57848 0.417833,-0.88983 0.680913,-2.120115 0.270818,-1.238024 0.270818,-2.267131 0,-1.361826 -0.634487,-1.949887 -0.634487,-0.588061 -2.127853,-0.588061 h -0.882092 l -1.748708,8.983408 z M 49.053574,8.9444003 q 2.112378,0 3.15696,0.959468 1.05232,0.9594677 1.05232,2.9093547 0,1.253499 -0.324981,2.584374 -0.324982,1.330875 -0.874354,2.359982 -0.804716,1.477891 -2.011788,2.112378 -1.199336,0.626749 -3.249812,0.626749 H 44.457412 L 46.709067,8.9444003 Z m 7.668008,0 h 6.847817 L 63.314056,10.2598 h -5.29255 l -0.665437,3.42004 h 5.052683 l -0.247605,1.315399 h -5.060421 l -0.804715,4.186067 h 5.431828 l -0.255343,1.3154 h -7.00257 z M 70.904687,20.086611 q -0.649962,0.317243 -1.3154,0.471996 -0.6577,0.162491 -1.361825,0.162491 -1.779659,0 -2.76234,-1.029107 -0.974944,-1.029107 -0.974944,-2.886142 0,-1.702283 0.541636,-3.373614 0.541635,-1.671332 1.423727,-2.731389 0.827928,-1.0058937 1.826084,-1.4856277 0.998156,-0.479735 2.274868,-0.479735 0.619012,0 1.230286,0.162491 0.611274,0.162491 1.191597,0.471996 l -0.317243,1.6016927 q -0.495209,-0.487471 -1.044582,-0.727338 -0.549373,-0.239868 -1.168385,-0.239868 -0.735076,0 -1.361826,0.317244 -0.626749,0.309506 -1.176122,0.951731 -0.804715,0.95173 -1.299925,2.437358 -0.487471,1.485628 -0.487471,2.978994 0,1.338613 0.603536,2.050476 0.603537,0.711864 1.740971,0.711864 0.657699,0 1.354088,-0.247605 0.704125,-0.247605 1.385038,-0.719601 z M 75.818092,8.9444003 h 6.422247 L 81.984997,10.2598 h -2.429621 l -1.725496,8.921506 h 2.429621 l -0.255342,1.3154 h -6.422246 l 0.255342,-1.3154 h 2.421883 L 77.992371,10.2598 H 75.56275 Z m 8.635214,0 h 2.081427 l 0.851141,5.8496607 3.203385,-5.8496607 h 2.089165 L 90.426769,20.496706 h -1.439203 l 1.996313,-10.267857 -3.358138,6.151429 h -1.091008 l -0.88983,-6.151429 -1.980837,10.267857 H 82.224863 Z M 97.90907,10.244325 95.092571,16.233263 H 98.41976 Z M 97.16626,8.9444003 h 1.90346 l 1.28445,11.5523057 H 98.7989 l -0.27081,-3.009944 h -4.02358 l -1.423727,3.009944 h -1.679069 z"
       id="text2"
       style="font-style:italic;font-size:15.8467px;font-family:Menlo;-inkscape-font-specification:'Menlo Italic';display:none;fill:#ffffff;stroke-width:0.742817"
       aria-label="DECIMA"
       inkscape:label="text2" /><path
       d="m 51.258803,8.2971366 h 2.081427 l 0.851141,5.8496594 3.203386,-5.8496594 h 2.089164 L 57.232266,19.849442 H 55.793064 L 57.789377,9.5815853 54.431238,15.733014 H 53.34023 L 52.450401,9.5815853 50.469563,19.849442 H 49.030361 Z M 62.911699,18.804859 q 0.6577,0 1.21481,-0.394619 0.557111,-0.39462 0.92078,-1.129697 0.572586,-1.121959 0.928518,-2.715914 0.355931,-1.593955 0.355931,-3.064108 0,-1.098745 -0.410095,-1.6171677 -0.402358,-0.52616 -1.253499,-0.52616 -0.6577,0 -1.207072,0.39462 -0.549373,0.3946197 -0.913043,1.1296967 -0.588061,1.137434 -0.943993,2.715914 -0.355931,1.578479 -0.355931,3.048632 0,1.106484 0.402357,1.632644 0.410096,0.526159 1.261237,0.526159 z m 5.021732,-6.847817 q 0,0.851142 -0.177966,1.849298 -0.170228,0.998156 -0.502947,2.050476 -0.224392,0.711864 -0.487471,1.276712 -0.255343,0.564848 -0.557111,1.021369 -0.680913,0.982681 -1.524316,1.454678 -0.843404,0.464258 -1.965363,0.464258 -1.555266,0 -2.305818,-0.95173 -0.750552,-0.951731 -0.750552,-2.932568 0,-0.858879 0.162491,-1.84156 0.170228,-0.990419 0.502947,-2.042738 0.224391,-0.711864 0.479734,-1.276712 0.26308,-0.564848 0.564848,-1.021369 0.680913,-0.9826807 1.524316,-1.4469397 0.843404,-0.4719967 1.965363,-0.4719967 1.563004,0 2.313556,0.9517307 0.758289,0.943993 0.758289,2.9170917 z m 6.561524,2.437359 q 0.557111,0.108327 0.889829,0.518422 0.340457,0.410096 0.75829,1.779659 l 0.936255,3.15696 h -1.555267 l -0.82019,-2.917093 q -0.340457,-1.207073 -0.766027,-1.586217 -0.417833,-0.379145 -1.268974,-0.379145 h -1.485629 l -0.95173,4.882455 H 68.66077 L 70.89695,8.2971366 h 3.21886 q 1.601693,0 2.476047,0.6963877 0.882092,0.68865 0.882092,1.9498867 0,1.415989 -0.804715,2.344507 -0.796978,0.928517 -2.174279,1.106483 z m -2.26713,-4.8128157 -0.78924,4.1009527 h 1.694544 q 1.261237,0 2.011788,-0.6577 0.75829,-0.665438 0.75829,-1.764184 0,-0.866616 -0.487472,-1.2689737 -0.487472,-0.410095 -1.539792,-0.410095 z m 7.373977,-1.2844487 h 8.820916 L 88.167376,9.6125363 H 84.53842 L 82.557582,19.849442 H 80.979103 L 82.975415,9.6125363 H 79.346459 Z M 93.336124,9.5970603 90.51962,15.585999 h 3.327188 z M 92.59331,8.2971366 h 1.903461 L 95.78122,19.849442 h -1.555267 l -0.270818,-3.009945 h -4.023576 l -1.423727,3.009945 h -1.679069 z"
       id="text3"
       style="font-style:italic;font-size:15.8467px;font-family:Menlo;-inkscape-font-specification:'Menlo Italic';display:inline;fill:#ffffff;stroke-width:0.742817"
       aria-label="MORTA" /><rect
       style="clip-rule:evenodd;display:inline;opacity:1;fill:#333333;fill-opacity:1;fill-rule:evenodd;stroke:#d08c59;stroke-width:0.990411;stroke-linejoin:round;stroke-miterlimit:1.5;stroke-dasharray:none;stroke-opacity:1"
       id="rect49"
       width="118.39508"
       height="151.97099"
       x="13.208251"
       y="186.17578"
       rx="14.037485"
       ry="14.037487" /><path
       id="path219"
       d="M 40.543952,166.4611 H 55.907724"
       style="clip-rule:evenodd;display:inline;fill:none;fill-rule:evenodd;stroke:#d08c59;stroke-width:0.701874;stroke-linecap:round;stroke-linejoin:round;stroke-miterlimit:1.5;stroke-dasharray:none;stroke-opacity:1" /><path
       id="path220"
       d="m 87.629,166.4611 h 16.63863"
       style="clip-rule:evenodd;display:inline;fill:none;fill-rule:evenodd;stroke:#d08c59;stroke-width:0.701874;stroke-linecap:round;stroke-linejoin:round;stroke-miterlimit:1.5;stroke-dasharray:none;stroke-opacity:1" /><path
       d="m 62.355959,166.87168 q 0.313376,0.0609 0.500531,0.29161 0.191507,0.23068 0.426539,1.00106 l 0.526646,1.7758 h -0.874841 l -0.461359,-1.64087 q -0.191507,-0.67898 -0.430892,-0.89225 -0.235032,-0.21327 -0.7138,-0.21327 h -0.835669 l -0.53535,2.74639 h -0.883546 l 1.257856,-6.4982 h 1.810615 q 0.900956,0 1.392782,0.39172 0.496178,0.38737 0.496178,1.09682 0,0.79649 -0.452654,1.31879 -0.448301,0.52229 -1.223036,0.6224 z m -1.275265,-2.70722 -0.443949,2.30679 h 0.953184 q 0.709448,0 1.131635,-0.36996 0.426539,-0.37431 0.426539,-0.99235 0,-0.48748 -0.274203,-0.7138 -0.274204,-0.23068 -0.866136,-0.23068 z m 6.5069,0.009 -1.584289,3.36879 h 1.87155 z m -0.417835,-0.73121 h 1.070701 l 0.722505,6.4982 h -0.87484 l -0.152336,-1.6931 H 65.67252 l -0.80085,1.6931 h -0.944479 z m 3.825797,0 h 1.114225 l 1.149044,5.34915 1.040234,-5.34915 h 0.848726 l -1.266561,6.4982 h -1.114225 l -1.149044,-5.34915 -1.044586,5.34915 h -0.844374 z m 8.343631,6.08036 q -0.378663,0.26985 -0.826964,0.40913 -0.448302,0.13493 -0.957537,0.13493 -1.009767,0 -1.553822,-0.58323 -0.539703,-0.58758 -0.539703,-1.67134 0,-0.39172 0.06964,-0.83131 0.07399,-0.44395 0.21327,-0.92707 0.152335,-0.50924 0.3569,-0.91837 0.204565,-0.41348 0.448302,-0.70509 0.465711,-0.56582 1.027176,-0.83567 0.565817,-0.26985 1.288322,-0.26985 0.348196,0 0.692039,0.0914 0.348195,0.0914 0.683333,0.2655 l -0.17845,0.90095 q -0.282909,-0.2742 -0.596285,-0.40913 -0.309023,-0.13492 -0.661571,-0.13492 -0.426539,0 -0.800849,0.1828 -0.37431,0.17845 -0.670276,0.531 -0.191507,0.22632 -0.361253,0.56581 -0.169745,0.33949 -0.300318,0.76168 -0.147983,0.49618 -0.226327,0.93142 -0.07399,0.43525 -0.07399,0.7878 0,0.74426 0.343843,1.14904 0.343843,0.40478 0.974947,0.40478 0.295966,0 0.530998,-0.0784 0.235032,-0.0827 0.396072,-0.23503 l 0.330786,-1.71051 h -0.94448 l 0.130573,-0.7225 h 1.784501 z m 2.646284,-6.08036 h 3.85191 l -0.14363,0.73992 h -2.97707 l -0.37431,1.92378 h 2.842144 l -0.139278,0.73991 H 82.19874 l -0.452654,2.35467 H 84.8015 l -0.14363,0.73992 h -3.93896 z"
       id="text4"
       style="font-style:italic;font-size:8.9138px;font-family:Menlo;-inkscape-font-specification:'Menlo Italic';fill:#ffffff;stroke:none;stroke-width:0.742817;stroke-opacity:1"
       aria-label="RANGE" /><path
       id="path20"
       d="M 25.308864,68.650683 H 63.160623"
       style="clip-rule:evenodd;display:inline;fill:none;fill-rule:evenodd;stroke:#d08c59;stroke-width:0.990422;stroke-linecap:round;stroke-linejoin:round;stroke-miterlimit:1.5;stroke-dasharray:none;stroke-opacity:1" /><g
       id="path21"
       style="stroke-width:1.17645;stroke-dasharray:none;stroke:none;stroke-opacity:1;fill:#d08c59;fill-opacity:1"
       transform="matrix(1,0,0,0.70874343,0,53.716638)"><path
         style="color:#000000;clip-rule:nonzero;fill:#d08c59;fill-rule:nonzero;stroke-width:1.17645;stroke-linejoin:miter;stroke-dasharray:none;stroke:none;stroke-opacity:1;fill-opacity:1"
         d="M 37.035156,136.00977 V 137 h 79.117184 v 44.54297 h 0.99024 v -45.03906 a 0.49526076,0.49526076 0 0 0 -0.49414,-0.49414 z"
         id="path26" /><path
         style="color:#000000;clip-rule:nonzero;fill:#d08c59;stroke-width:1.17645;stroke-linejoin:miter;stroke-dasharray:none;stroke:none;stroke-opacity:1;fill-opacity:1"
         d="m 116.64816,184.43065 -2.5025,-4.32933 h 5.005 z"
         id="path24" /></g><path
       id="path27"
       d="M 72.405791,33.34724 V 71.199004"
       style="clip-rule:evenodd;display:inline;fill:none;fill-rule:evenodd;stroke:#d08c59;stroke-width:0.990422;stroke-linecap:round;stroke-linejoin:round;stroke-miterlimit:1.5;stroke-dasharray:none;stroke-opacity:1" /><rect
       style="display:inline;fill:#212121;fill-opacity:1;stroke:#d08c59;stroke-width:0.990422;stroke-dasharray:none;stroke-opacity:1"
       id="rect112-0"
       width="70.224823"
       height="24.884178"
       x="37.293381"
       y="102.34277"
       rx="14.037484"
       ry="14.037484"
       inkscape:transform-center-x="-58.443636"
       inkscape:transform-center-y="-9.91983" /><rect
       style="display:inline;fill:#333333;fill-opacity:1;stroke:#d08c59;stroke-width:1.09334;stroke-dasharray:none;stroke-opacity:1"
       id="rect20577"
       width="27.73576"
       height="27.904194"
       x="111.21022"
       y="101.15344"
       rx="14.037484"
       ry="14.037484"
       inkscape:transform-center-x="-23.082704"
       inkscape:transform-center-y="-11.123729" /><g
       aria-label="0→1"
       id="text31642"
       style="font-style:italic;font-size:8.41859px;font-family:Menlo;-inkscape-font-specification:'Menlo Italic';text-align:center;text-anchor:middle;clip-rule:evenodd;fill:#666666;fill-rule:evenodd;stroke:#666666;stroke-width:0.99042;stroke-linecap:round;stroke-linejoin:round;stroke-miterlimit:1.5;paint-order:fill markers stroke"><path
         d="m 25.405298,215.84182 q 0.982443,-0.0329 1.335958,0.76047 0.357626,0.79336 0.07399,2.37184 -0.283635,1.5826 -0.933116,2.40473 -0.649481,0.82212 -1.631924,0.8509 -0.982443,0.0288 -1.335958,-0.76047 -0.353515,-0.79335 -0.07399,-2.37184 0.287745,-1.5826 0.933116,-2.40472 0.649481,-0.82213 1.631924,-0.85091 z m -1.035881,5.72201 q 0.583711,-0.0164 0.982443,-0.64948 0.398732,-0.63304 0.628928,-1.91556 0.127429,-0.68236 0.143872,-1.22908 l -2.515712,3.14464 q 0.184979,0.67004 0.760469,0.64948 z m 0.916672,-5.05608 q -0.5796,0.0164 -0.978332,0.64948 -0.398732,0.63304 -0.633039,1.91556 -0.106876,0.5796 -0.119208,1.08932 l 2.470495,-3.13642 q -0.209643,-0.5385 -0.739916,-0.51794 z"
         style="fill:#ffffff;stroke:none;stroke-width:0.990423"
         id="path32215" /><path
         d="m 32.171412,219.95246 -1.196196,1.1962 -0.369958,-0.36996 0.657702,-0.6577 h -3.617363 v -0.67415 h 3.617363 l -0.657702,-0.6577 0.369958,-0.36996 1.196196,1.1962 z"
         style="fill:#ffffff;stroke:none;stroke-width:0.990423"
         id="path32217" /><path
         d="m 33.083974,221.39119 h 1.28663 l 0.908452,-4.69024 -1.446946,0.31241 0.143873,-0.75636 1.446945,-0.30419 h 0.83446 l -1.060545,5.43838 h 1.270188 L 36.33138,222.09 h -3.383057 z"
         style="fill:#ffffff;stroke:none;stroke-width:0.990423"
         id="path32219" /></g><g
       aria-label="0→5"
       id="text32059"
       style="font-style:italic;font-size:8.41859px;font-family:Menlo;-inkscape-font-specification:'Menlo Italic';text-align:center;text-anchor:middle;clip-rule:evenodd;fill:#666666;fill-rule:evenodd;stroke:#666666;stroke-width:0.99042;stroke-linecap:round;stroke-linejoin:round;stroke-miterlimit:1.5;paint-order:fill markers stroke"><path
         d="m 54.47801,215.84182 q 0.982443,-0.0329 1.335958,0.76047 0.357626,0.79336 0.07399,2.37184 -0.283635,1.5826 -0.933116,2.40473 -0.649481,0.82212 -1.631924,0.8509 -0.982443,0.0288 -1.335958,-0.76047 -0.353515,-0.79335 -0.07399,-2.37184 0.287745,-1.5826 0.933116,-2.40472 0.649481,-0.82213 1.631924,-0.85091 z m -1.035881,5.72201 q 0.58371,-0.0164 0.982443,-0.64948 0.398732,-0.63304 0.628928,-1.91556 0.127429,-0.68236 0.143872,-1.22908 l -2.515712,3.14464 q 0.184979,0.67004 0.760469,0.64948 z m 0.916672,-5.05608 q -0.5796,0.0164 -0.978332,0.64948 -0.398732,0.63304 -0.633039,1.91556 -0.106876,0.5796 -0.119208,1.08932 l 2.470495,-3.13642 q -0.209643,-0.5385 -0.739916,-0.51794 z"
         style="fill:#ffffff;stroke:none;stroke-width:0.990423"
         id="path32222" /><path
         d="m 61.244124,219.95246 -1.196197,1.1962 -0.369957,-0.36996 0.657702,-0.6577 h -3.617363 v -0.67415 h 3.617363 l -0.657702,-0.6577 0.369957,-0.36996 1.196197,1.1962 z"
         style="fill:#ffffff;stroke:none;stroke-width:0.990423"
         id="path32224" /><path
         d="m 62.962371,215.95281 h 3.107645 l -0.135652,0.69881 h -2.347175 l -0.295966,1.5086 q 0.1932,-0.0658 0.374068,-0.0945 0.184979,-0.0329 0.365847,-0.0329 0.7728,0 1.245524,0.46862 0.472724,0.4645 0.472724,1.22497 0,0.50972 -0.217864,0.99066 -0.213754,0.48095 -0.608375,0.83446 -0.361737,0.32885 -0.83035,0.49328 -0.464502,0.16442 -1.052323,0.16442 -0.44395,0 -0.83035,-0.0699 -0.382289,-0.0658 -0.678255,-0.1932 l 0.168536,-0.84268 q 0.345294,0.20965 0.70703,0.31241 0.361736,0.10277 0.748136,0.10277 0.76458,0 1.266078,-0.48095 0.501498,-0.48094 0.501498,-1.19619 0,-0.52617 -0.332962,-0.82624 -0.328851,-0.30008 -0.912562,-0.30008 -0.324741,0 -0.665924,0.0822 -0.337072,0.0822 -0.64537,0.23842 z"
         style="fill:#ffffff;stroke:none;stroke-width:0.990423"
         id="path32226" /></g><g
       aria-label="0→10"
       id="text32063"
       style="font-style:italic;font-size:8.41859px;font-family:Menlo;-inkscape-font-specification:'Menlo Italic';text-align:center;text-anchor:middle;clip-rule:evenodd;fill:#666666;fill-rule:evenodd;stroke:#666666;stroke-width:0.99042;stroke-linecap:round;stroke-linejoin:round;stroke-miterlimit:1.5;paint-order:fill markers stroke"><path
         d="m 80.685103,215.84182 q 0.982443,-0.0329 1.335958,0.76047 0.357625,0.79336 0.07399,2.37184 -0.283634,1.5826 -0.933115,2.40473 -0.649481,0.82212 -1.631924,0.8509 -0.982443,0.0288 -1.335958,-0.76047 -0.353516,-0.79335 -0.07399,-2.37184 0.287745,-1.5826 0.933115,-2.40472 0.649482,-0.82213 1.631924,-0.85091 z m -1.035882,5.72201 q 0.583711,-0.0164 0.982443,-0.64948 0.398732,-0.63304 0.628928,-1.91556 0.12743,-0.68236 0.143873,-1.22908 l -2.515712,3.14464 q 0.184979,0.67004 0.760468,0.64948 z m 0.916673,-5.05608 q -0.5796,0.0164 -0.978332,0.64948 -0.398733,0.63304 -0.633039,1.91556 -0.106877,0.5796 -0.119209,1.08932 l 2.470495,-3.13642 q -0.209642,-0.5385 -0.739915,-0.51794 z"
         style="fill:#ffffff;stroke:none;stroke-width:0.990423"
         id="path32229" /><path
         d="m 87.451217,219.95246 -1.196197,1.1962 -0.369957,-0.36996 0.657702,-0.6577 h -3.617364 v -0.67415 h 3.617364 l -0.657702,-0.6577 0.369957,-0.36996 1.196197,1.1962 z"
         style="fill:#ffffff;stroke:none;stroke-width:0.990423"
         id="path32231" /><path
         d="m 88.363779,221.39119 h 1.28663 l 0.908452,-4.69024 -1.446946,0.31241 0.143873,-0.75636 1.446945,-0.30419 h 0.83446 l -1.060545,5.43838 h 1.270188 L 91.611184,222.09 h -3.383057 z"
         style="fill:#ffffff;stroke:none;stroke-width:0.990423"
         id="path32233" /><path
         d="m 95.890361,215.84182 q 0.982443,-0.0329 1.335958,0.76047 0.357626,0.79336 0.07399,2.37184 -0.283635,1.5826 -0.933116,2.40473 -0.649481,0.82212 -1.631924,0.8509 -0.982443,0.0288 -1.335958,-0.76047 -0.353515,-0.79335 -0.07399,-2.37184 0.287745,-1.5826 0.933116,-2.40472 0.649481,-0.82213 1.631924,-0.85091 z m -1.035881,5.72201 q 0.583711,-0.0164 0.982443,-0.64948 0.398732,-0.63304 0.628928,-1.91556 0.127429,-0.68236 0.143872,-1.22908 l -2.515712,3.14464 q 0.184979,0.67004 0.760469,0.64948 z m 0.916672,-5.05608 q -0.5796,0.0164 -0.978332,0.64948 -0.398732,0.63304 -0.633039,1.91556 -0.106876,0.5796 -0.119208,1.08932 l 2.470495,-3.13642 q -0.209643,-0.5385 -0.739916,-0.51794 z"
         style="fill:#ffffff;stroke:none;stroke-width:0.990423"
         id="path32235" /></g><g
       aria-label="0→R"
       id="text32067"
       style="font-style:italic;font-size:8.41859px;font-family:Menlo;-inkscape-font-specification:'Menlo Italic';text-align:center;text-anchor:middle;clip-rule:evenodd;fill:#666666;fill-rule:evenodd;stroke:#666666;stroke-width:0.99042;stroke-linecap:round;stroke-linejoin:round;stroke-miterlimit:1.5;paint-order:fill markers stroke"><path
         d="m 111.58513,215.84182 q 0.98244,-0.0329 1.33595,0.76047 0.35763,0.79336 0.074,2.37184 -0.28364,1.5826 -0.93312,2.40473 -0.64948,0.82212 -1.63192,0.8509 -0.98245,0.0288 -1.33596,-0.76047 -0.35352,-0.79335 -0.074,-2.37184 0.28774,-1.5826 0.93311,-2.40472 0.64948,-0.82213 1.63193,-0.85091 z m -1.03588,5.72201 q 0.58371,-0.0164 0.98244,-0.64948 0.39873,-0.63304 0.62893,-1.91556 0.12743,-0.68236 0.14387,-1.22908 l -2.51571,3.14464 q 0.18498,0.67004 0.76047,0.64948 z m 0.91667,-5.05608 q -0.5796,0.0164 -0.97833,0.64948 -0.39874,0.63304 -0.63304,1.91556 -0.10688,0.5796 -0.11921,1.08932 l 2.47049,-3.13642 q -0.20964,-0.5385 -0.73991,-0.51794 z"
         style="fill:#ffffff;stroke:none;stroke-width:0.990423"
         id="path32238" /><path
         d="m 118.35124,219.95246 -1.1962,1.1962 -0.36995,-0.36996 0.6577,-0.6577 h -3.61736 v -0.67415 h 3.61736 l -0.6577,-0.6577 0.36995,-0.36996 1.1962,1.1962 z"
         style="fill:#ffffff;stroke:none;stroke-width:0.990423"
         id="path32240" /><path
         d="m 121.77129,219.19199 q 0.29597,0.0575 0.47273,0.27542 0.18087,0.21786 0.40284,0.94545 l 0.49739,1.67714 h -0.82624 l -0.43573,-1.54972 q -0.18087,-0.64125 -0.40695,-0.84268 -0.22198,-0.20142 -0.67415,-0.20142 h -0.78924 l -0.50561,2.59382 h -0.83446 l 1.18798,-6.13719 h 1.71002 q 0.8509,0 1.31541,0.36996 0.46861,0.36584 0.46861,1.03588 0,0.75225 -0.42751,1.24552 -0.42339,0.49328 -1.15509,0.58782 z m -1.20441,-2.55681 -0.41929,2.17864 h 0.90023 q 0.67003,0 1.06877,-0.34941 0.40284,-0.35351 0.40284,-0.93722 0,-0.4604 -0.25897,-0.67415 -0.25897,-0.21786 -0.81802,-0.21786 z"
         style="fill:#ffffff;stroke:none;stroke-width:0.990423"
         id="path32242" /></g><g
       aria-label="-1→1"
       id="text32071"
       style="font-style:italic;font-size:8.41859px;font-family:Menlo;-inkscape-font-specification:'Menlo Italic';text-align:center;text-anchor:middle;clip-rule:evenodd;fill:#666666;fill-rule:evenodd;stroke:#666666;stroke-width:0.99042;stroke-linecap:round;stroke-linejoin:round;stroke-miterlimit:1.5;paint-order:fill markers stroke"><path
         d="m 20.326602,256.23352 h 4.357279 l -0.147983,0.6947 h -4.357279 z"
         style="fill:#ffffff;stroke:none;stroke-width:0.990423"
         id="path32245" /><path
         d="m 25.481345,258.51082 h 1.28663 l 0.908452,-4.69024 -1.446946,0.3124 0.143873,-0.75635 1.446945,-0.30419 h 0.83446 l -1.060545,5.43838 h 1.270188 l -0.135651,0.69881 h -3.383057 z"
         style="fill:#ffffff;stroke:none;stroke-width:0.990423"
         id="path32247" /><path
         d="m 34.705622,257.07209 -1.196197,1.1962 -0.369957,-0.36996 0.657702,-0.6577 h -3.617364 v -0.67415 h 3.617364 l -0.657702,-0.6577 0.369957,-0.36996 1.196197,1.1962 z"
         style="fill:#ffffff;stroke:none;stroke-width:0.990423"
         id="path32249" /><path
         d="m 35.618184,258.51082 h 1.28663 l 0.908452,-4.69024 -1.446946,0.3124 0.143873,-0.75635 1.446945,-0.30419 h 0.83446 l -1.060545,5.43838 h 1.270188 l -0.135652,0.69881 h -3.383057 z"
         style="fill:#ffffff;stroke:none;stroke-width:0.990423"
         id="path32251" /></g><g
       aria-label="-5→5"
       id="text32075"
       style="font-style:italic;font-size:8.41859px;font-family:Menlo;-inkscape-font-specification:'Menlo Italic';text-align:center;text-anchor:middle;clip-rule:evenodd;fill:#666666;fill-rule:evenodd;stroke:#666666;stroke-width:0.99042;stroke-linecap:round;stroke-linejoin:round;stroke-miterlimit:1.5;paint-order:fill markers stroke"><path
         d="m 49.399314,256.23352 h 4.357279 l -0.147984,0.6947 h -4.357278 z"
         style="fill:#ffffff;stroke:none;stroke-width:0.990423"
         id="path32254" /><path
         d="m 55.359742,253.07244 h 3.107644 l -0.135651,0.69881 h -2.347176 l -0.295966,1.5086 q 0.1932,-0.0658 0.374069,-0.0945 0.184978,-0.0329 0.365847,-0.0329 0.7728,0 1.245524,0.46862 0.472723,0.4645 0.472723,1.22497 0,0.50972 -0.217864,0.99066 -0.213753,0.48095 -0.608374,0.83446 -0.361737,0.32885 -0.83035,0.49328 -0.464502,0.16442 -1.052324,0.16442 -0.443949,0 -0.830349,-0.0699 -0.38229,-0.0658 -0.678256,-0.1932 l 0.168537,-0.84268 q 0.345293,0.20964 0.70703,0.31241 0.361736,0.10277 0.748136,0.10277 0.764579,0 1.266077,-0.48095 0.501499,-0.48094 0.501499,-1.1962 0,-0.52616 -0.332962,-0.82623 -0.328852,-0.30008 -0.912562,-0.30008 -0.324741,0 -0.665924,0.0822 -0.337073,0.0822 -0.645371,0.23842 z"
         style="fill:#ffffff;stroke:none;stroke-width:0.990423"
         id="path32256" /><path
         d="m 63.778333,257.07209 -1.196196,1.1962 -0.369957,-0.36996 0.657702,-0.6577 h -3.617364 v -0.67415 h 3.617364 l -0.657702,-0.6577 0.369957,-0.36996 1.196196,1.1962 z"
         style="fill:#ffffff;stroke:none;stroke-width:0.990423"
         id="path32258" /><path
         d="m 65.496581,253.07244 h 3.107644 l -0.135651,0.69881 h -2.347176 l -0.295966,1.5086 q 0.1932,-0.0658 0.374069,-0.0945 0.184978,-0.0329 0.365847,-0.0329 0.7728,0 1.245524,0.46862 0.472723,0.4645 0.472723,1.22497 0,0.50972 -0.217864,0.99066 -0.213753,0.48095 -0.608375,0.83446 -0.361736,0.32885 -0.830349,0.49328 -0.464502,0.16442 -1.052324,0.16442 -0.443949,0 -0.830349,-0.0699 -0.38229,-0.0658 -0.678256,-0.1932 l 0.168536,-0.84268 q 0.345294,0.20964 0.707031,0.31241 0.361736,0.10277 0.748136,0.10277 0.764579,0 1.266077,-0.48095 0.501498,-0.48094 0.501498,-1.1962 0,-0.52616 -0.332961,-0.82623 -0.328852,-0.30008 -0.912563,-0.30008 -0.32474,0 -0.665923,0.0822 -0.337073,0.0822 -0.645371,0.23842 z"
         style="fill:#ffffff;stroke:none;stroke-width:0.990423"
         id="path32260" /></g><g
       aria-label="-10→10"
       id="text32079"
       style="font-style:italic;font-size:8.41859px;font-family:Menlo;-inkscape-font-specification:'Menlo Italic';text-align:center;text-anchor:middle;clip-rule:evenodd;fill:#666666;fill-rule:evenodd;stroke:#666666;stroke-width:0.99042;stroke-linecap:round;stroke-linejoin:round;stroke-miterlimit:1.5;paint-order:fill markers stroke"><path
         d="m 73.072197,256.23352 h 4.357278 l -0.147983,0.6947 h -4.357278 z"
         style="fill:#ffffff;stroke:none;stroke-width:0.990423"
         id="path32263" /><path
         d="m 78.22694,258.51082 h 1.28663 l 0.908451,-4.69024 -1.446945,0.3124 0.143872,-0.75635 1.446946,-0.30419 h 0.83446 l -1.060545,5.43838 h 1.270188 l -0.135652,0.69881 h -3.383057 z"
         style="fill:#ffffff;stroke:none;stroke-width:0.990423"
         id="path32265" /><path
         d="m 85.753522,252.96145 q 0.982443,-0.0329 1.335958,0.76047 0.357626,0.79335 0.07399,2.37184 -0.283635,1.5826 -0.933116,2.40472 -0.649481,0.82213 -1.631924,0.85091 -0.982443,0.0288 -1.335958,-0.76047 -0.353515,-0.79336 -0.07399,-2.37184 0.287745,-1.5826 0.933116,-2.40473 0.649481,-0.82212 1.631924,-0.8509 z m -1.035881,5.72201 q 0.58371,-0.0164 0.982443,-0.64948 0.398732,-0.63304 0.628928,-1.91556 0.127429,-0.68236 0.143872,-1.22908 l -2.515712,3.14464 q 0.184979,0.67004 0.760469,0.64948 z m 0.916672,-5.05608 q -0.5796,0.0164 -0.978332,0.64948 -0.398732,0.63304 -0.633039,1.91556 -0.106876,0.5796 -0.119208,1.08931 l 2.470495,-3.13641 q -0.209643,-0.5385 -0.739916,-0.51794 z"
         style="fill:#ffffff;stroke:none;stroke-width:0.990423"
         id="path32267" /><path
         d="m 92.519636,257.07209 -1.196197,1.1962 -0.369957,-0.36996 0.657702,-0.6577 h -3.617363 v -0.67415 h 3.617363 l -0.657702,-0.6577 0.369957,-0.36996 1.196197,1.1962 z"
         style="fill:#ffffff;stroke:none;stroke-width:0.990423"
         id="path32269" /><path
         d="m 93.432198,258.51082 h 1.28663 l 0.908452,-4.69024 -1.446946,0.3124 0.143873,-0.75635 1.446945,-0.30419 h 0.83446 l -1.060545,5.43838 h 1.270188 l -0.135651,0.69881 h -3.383057 z"
         style="fill:#ffffff;stroke:none;stroke-width:0.990423"
         id="path32271" /><path
         d="m 100.95878,252.96145 q 0.98244,-0.0329 1.33596,0.76047 0.35763,0.79335 0.074,2.37184 -0.28363,1.5826 -0.93311,2.40472 -0.64949,0.82213 -1.631929,0.85091 -0.982443,0.0288 -1.335958,-0.76047 -0.353515,-0.79336 -0.07399,-2.37184 0.287744,-1.5826 0.933115,-2.40473 0.649481,-0.82212 1.631922,-0.8509 z m -1.03588,5.72201 q 0.58371,-0.0164 0.98244,-0.64948 0.39874,-0.63304 0.62893,-1.91556 0.12743,-0.68236 0.14387,-1.22908 l -2.515709,3.14464 q 0.184979,0.67004 0.760469,0.64948 z m 0.91667,-5.05608 q -0.5796,0.0164 -0.97833,0.64948 -0.398732,0.63304 -0.633038,1.91556 -0.106877,0.5796 -0.119209,1.08931 l 2.470497,-3.13641 q -0.20964,-0.5385 -0.73992,-0.51794 z"
         style="fill:#ffffff;stroke:none;stroke-width:0.990423"
         id="path32273" /></g><g
       aria-label="-R→R"
       id="text32083"
       style="font-style:italic;font-size:8.41859px;font-family:Menlo;-inkscape-font-specification:'Menlo Italic';text-align:center;text-anchor:middle;clip-rule:evenodd;fill:#666666;fill-rule:evenodd;stroke:#666666;stroke-width:0.99042;stroke-linecap:round;stroke-linejoin:round;stroke-miterlimit:1.5;paint-order:fill markers stroke"><path
         d="m 106.50643,256.23352 h 4.35728 l -0.14798,0.6947 h -4.35728 z"
         style="fill:#ffffff;stroke:none;stroke-width:0.990423"
         id="path32276" /><path
         d="m 114.16866,256.31162 q 0.29597,0.0575 0.47273,0.27542 0.18087,0.21786 0.40284,0.94544 l 0.49739,1.67715 h -0.82624 l -0.43573,-1.54972 q -0.18087,-0.64126 -0.40695,-0.84268 -0.22198,-0.20142 -0.67415,-0.20142 h -0.78924 l -0.50561,2.59382 h -0.83446 l 1.18798,-6.13719 h 1.71002 q 0.85091,0 1.31541,0.36996 0.46861,0.36584 0.46861,1.03588 0,0.75225 -0.42751,1.24552 -0.42339,0.49328 -1.15509,0.58782 z m -1.20441,-2.55681 -0.41929,2.17863 h 0.90023 q 0.67004,0 1.06877,-0.3494 0.40284,-0.35351 0.40284,-0.93723 0,-0.46039 -0.25897,-0.67414 -0.25897,-0.21786 -0.81802,-0.21786 z"
         style="fill:#ffffff;stroke:none;stroke-width:0.990423"
         id="path32278" /><path
         d="m 120.88545,257.07209 -1.1962,1.1962 -0.36995,-0.36996 0.6577,-0.6577 h -3.61736 v -0.67415 h 3.61736 l -0.6577,-0.6577 0.36995,-0.36996 1.1962,1.1962 z"
         style="fill:#ffffff;stroke:none;stroke-width:0.990423"
         id="path32280" /><path
         d="m 124.3055,256.31162 q 0.29597,0.0575 0.47273,0.27542 0.18086,0.21786 0.40284,0.94544 l 0.49739,1.67715 h -0.82624 l -0.43573,-1.54972 q -0.18087,-0.64126 -0.40695,-0.84268 -0.22198,-0.20142 -0.67415,-0.20142 h -0.78924 l -0.50561,2.59382 h -0.83446 l 1.18798,-6.13719 h 1.71002 q 0.8509,0 1.31541,0.36996 0.46861,0.36584 0.46861,1.03588 0,0.75225 -0.42751,1.24552 -0.42339,0.49328 -1.15509,0.58782 z m -1.20441,-2.55681 -0.41929,2.17863 h 0.90023 q 0.67003,0 1.06877,-0.3494 0.40284,-0.35351 0.40284,-0.93723 0,-0.46039 -0.25897,-0.67414 -0.25897,-0.21786 -0.81802,-0.21786 z"
         style="fill:#ffffff;stroke:none;stroke-width:0.990423"
         id="path32282" /></g><g
       aria-label="1→-1"
       id="text32087"
       style="font-style:italic;font-size:8.41859px;font-family:Menlo;-inkscape-font-specification:'Menlo Italic';text-align:center;text-anchor:middle;clip-rule:evenodd;fill:#666666;fill-rule:evenodd;stroke:#666666;stroke-width:0.99042;stroke-linecap:round;stroke-linejoin:round;stroke-miterlimit:1.5;paint-order:fill markers stroke"><path
         d="m 20.412925,295.89003 h 1.286631 l 0.908451,-4.69024 -1.446945,0.31241 0.143872,-0.75636 1.446946,-0.30419 h 0.83446 l -1.060546,5.43838 h 1.270188 l -0.135651,0.69881 h -3.383057 z"
         style="fill:#ffffff;stroke:none;stroke-width:0.990423"
         id="path32285" /><path
         d="m 29.637202,294.4513 -1.196196,1.1962 -0.369958,-0.36996 0.657703,-0.6577 h -3.617364 v -0.67415 h 3.617364 l -0.657703,-0.6577 0.369958,-0.36996 1.196196,1.1962 z"
         style="fill:#ffffff;stroke:none;stroke-width:0.990423"
         id="path32287" /><path
         d="m 30.463441,293.61273 h 4.357278 l -0.147983,0.6947 h -4.357278 z"
         style="fill:#ffffff;stroke:none;stroke-width:0.990423"
         id="path32289" /><path
         d="m 35.618184,295.89003 h 1.28663 l 0.908452,-4.69024 -1.446946,0.31241 0.143873,-0.75636 1.446945,-0.30419 h 0.83446 l -1.060545,5.43838 h 1.270188 l -0.135652,0.69881 h -3.383057 z"
         style="fill:#ffffff;stroke:none;stroke-width:0.990423"
         id="path32291" /></g><g
       aria-label="5→-5"
       id="text32091"
       style="font-style:italic;font-size:8.41859px;font-family:Menlo;-inkscape-font-specification:'Menlo Italic';text-align:center;text-anchor:middle;clip-rule:evenodd;fill:#666666;fill-rule:evenodd;stroke:#666666;stroke-width:0.99042;stroke-linecap:round;stroke-linejoin:round;stroke-miterlimit:1.5;paint-order:fill markers stroke"><path
         d="m 50.291323,290.45165 h 3.107644 l -0.135651,0.69881 H 50.91614 l -0.295966,1.5086 q 0.1932,-0.0658 0.374068,-0.0945 0.184979,-0.0329 0.365847,-0.0329 0.772801,0 1.245524,0.46862 0.472724,0.4645 0.472724,1.22497 0,0.50972 -0.217864,0.99066 -0.213753,0.48095 -0.608375,0.83446 -0.361736,0.32885 -0.830349,0.49328 -0.464503,0.16443 -1.052324,0.16443 -0.443949,0 -0.83035,-0.0699 -0.382289,-0.0658 -0.678255,-0.1932 l 0.168536,-0.84268 q 0.345294,0.20965 0.70703,0.31241 0.361737,0.10277 0.748137,0.10277 0.764579,0 1.266077,-0.48095 0.501498,-0.48094 0.501498,-1.19619 0,-0.52617 -0.332962,-0.82624 -0.328851,-0.30008 -0.912562,-0.30008 -0.32474,0 -0.665924,0.0822 -0.337072,0.0822 -0.64537,0.23842 z"
         style="fill:#ffffff;stroke:none;stroke-width:0.990423"
         id="path32294" /><path
         d="m 58.709914,294.4513 -1.196196,1.1962 -0.369958,-0.36996 0.657703,-0.6577 h -3.617364 v -0.67415 h 3.617364 l -0.657703,-0.6577 0.369958,-0.36996 1.196196,1.1962 z"
         style="fill:#ffffff;stroke:none;stroke-width:0.990423"
         id="path32296" /><path
         d="m 59.536153,293.61273 h 4.357278 l -0.147983,0.6947 H 59.38817 Z"
         style="fill:#ffffff;stroke:none;stroke-width:0.990423"
         id="path32298" /><path
         d="m 65.496581,290.45165 h 3.107644 l -0.135651,0.69881 h -2.347176 l -0.295966,1.5086 q 0.1932,-0.0658 0.374069,-0.0945 0.184978,-0.0329 0.365847,-0.0329 0.7728,0 1.245524,0.46862 0.472723,0.4645 0.472723,1.22497 0,0.50972 -0.217864,0.99066 -0.213753,0.48095 -0.608375,0.83446 -0.361736,0.32885 -0.830349,0.49328 -0.464502,0.16443 -1.052324,0.16443 -0.443949,0 -0.830349,-0.0699 -0.38229,-0.0658 -0.678256,-0.1932 l 0.168536,-0.84268 q 0.345294,0.20965 0.707031,0.31241 0.361736,0.10277 0.748136,0.10277 0.764579,0 1.266077,-0.48095 0.501498,-0.48094 0.501498,-1.19619 0,-0.52617 -0.332961,-0.82624 -0.328852,-0.30008 -0.912563,-0.30008 -0.32474,0 -0.665923,0.0822 -0.337073,0.0822 -0.645371,0.23842 z"
         style="fill:#ffffff;stroke:none;stroke-width:0.990423"
         id="path32300" /></g><g
       aria-label="10→-10"
       id="text32095"
       style="font-style:italic;font-size:8.41859px;font-family:Menlo;-inkscape-font-specification:'Menlo Italic';text-align:center;text-anchor:middle;clip-rule:evenodd;fill:#666666;fill-rule:evenodd;stroke:#666666;stroke-width:0.99042;stroke-linecap:round;stroke-linejoin:round;stroke-miterlimit:1.5;paint-order:fill markers stroke"><path
         d="m 73.15852,295.89003 h 1.28663 l 0.908452,-4.69024 -1.446945,0.31241 0.143872,-0.75636 1.446945,-0.30419 h 0.83446 l -1.060545,5.43838 h 1.270188 l -0.135651,0.69881 h -3.383057 z"
         style="fill:#ffffff;stroke:none;stroke-width:0.990423"
         id="path32303" /><path
         d="m 80.685102,290.34066 q 0.982444,-0.0329 1.335959,0.76047 0.357625,0.79336 0.07399,2.37184 -0.283634,1.5826 -0.933115,2.40473 -0.649481,0.82212 -1.631924,0.8509 -0.982444,0.0288 -1.335959,-0.76047 -0.353515,-0.79335 -0.07399,-2.37184 0.287745,-1.5826 0.933115,-2.40472 0.649481,-0.82213 1.631924,-0.85091 z m -1.035881,5.72201 q 0.583711,-0.0164 0.982443,-0.64948 0.398732,-0.63304 0.628928,-1.91555 0.12743,-0.68237 0.143873,-1.22909 l -2.515712,3.14464 q 0.184978,0.67004 0.760468,0.64948 z m 0.916673,-5.05608 q -0.5796,0.0164 -0.978333,0.64948 -0.398732,0.63304 -0.633038,1.91556 -0.106877,0.5796 -0.119209,1.08932 l 2.470495,-3.13642 q -0.209643,-0.5385 -0.739915,-0.51794 z"
         style="fill:#ffffff;stroke:none;stroke-width:0.990423"
         id="path32305" /><path
         d="m 87.451216,294.4513 -1.196196,1.1962 -0.369958,-0.36996 0.657703,-0.6577 h -3.617364 v -0.67415 h 3.617364 l -0.657703,-0.6577 0.369958,-0.36996 1.196196,1.1962 z"
         style="fill:#ffffff;stroke:none;stroke-width:0.990423"
         id="path32307" /><path
         d="m 88.277455,293.61273 h 4.357279 l -0.147983,0.6947 h -4.357279 z"
         style="fill:#ffffff;stroke:none;stroke-width:0.990423"
         id="path32309" /><path
         d="m 93.432198,295.89003 h 1.28663 l 0.908452,-4.69024 -1.446946,0.31241 0.143873,-0.75636 1.446945,-0.30419 h 0.83446 l -1.060545,5.43838 h 1.270188 l -0.135651,0.69881 h -3.383057 z"
         style="fill:#ffffff;stroke:none;stroke-width:0.990423"
         id="path32311" /><path
         d="m 100.95878,290.34066 q 0.98244,-0.0329 1.33596,0.76047 0.35763,0.79336 0.074,2.37184 -0.28363,1.5826 -0.93311,2.40473 -0.64949,0.82212 -1.631929,0.8509 -0.982443,0.0288 -1.335958,-0.76047 -0.353515,-0.79335 -0.07399,-2.37184 0.287744,-1.5826 0.933115,-2.40472 0.649481,-0.82213 1.631922,-0.85091 z m -1.03588,5.72201 q 0.58371,-0.0164 0.98244,-0.64948 0.39874,-0.63304 0.62893,-1.91555 0.12743,-0.68237 0.14387,-1.22909 l -2.515709,3.14464 q 0.184979,0.67004 0.760469,0.64948 z m 0.91667,-5.05608 q -0.5796,0.0164 -0.97833,0.64948 -0.398732,0.63304 -0.633038,1.91556 -0.106877,0.5796 -0.119209,1.08932 l 2.470497,-3.13642 q -0.20964,-0.5385 -0.73992,-0.51794 z"
         style="fill:#ffffff;stroke:none;stroke-width:0.990423"
         id="path32313" /></g><g
       aria-label="R→-R"
       id="text32099"
       style="font-style:italic;font-size:8.41859px;font-family:Menlo;-inkscape-font-specification:'Menlo Italic';text-align:center;text-anchor:middle;clip-rule:evenodd;fill:#666666;fill-rule:evenodd;stroke:#666666;stroke-width:0.99042;stroke-linecap:round;stroke-linejoin:round;stroke-miterlimit:1.5;paint-order:fill markers stroke"><path
         d="m 109.10024,293.69084 q 0.29597,0.0575 0.47273,0.27541 0.18087,0.21786 0.40284,0.94545 l 0.49739,1.67714 h -0.82624 l -0.43573,-1.54971 q -0.18087,-0.64126 -0.40695,-0.84269 -0.22198,-0.20142 -0.67415,-0.20142 h -0.78924 l -0.50561,2.59382 h -0.83446 l 1.18798,-6.13719 h 1.71002 q 0.85091,0 1.31541,0.36996 0.46861,0.36585 0.46861,1.03588 0,0.75225 -0.42751,1.24552 -0.42339,0.49328 -1.15509,0.58783 z m -1.20441,-2.55682 -0.41929,2.17864 h 0.90023 q 0.67004,0 1.06877,-0.34941 0.40284,-0.35351 0.40284,-0.93722 0,-0.4604 -0.25897,-0.67415 -0.25897,-0.21786 -0.81802,-0.21786 z"
         style="fill:#ffffff;stroke:none;stroke-width:0.990423"
         id="path32316" /><path
         d="m 115.81703,294.4513 -1.1962,1.1962 -0.36995,-0.36996 0.6577,-0.6577 h -3.61736 v -0.67415 h 3.61736 l -0.6577,-0.6577 0.36995,-0.36996 1.1962,1.1962 z"
         style="fill:#ffffff;stroke:none;stroke-width:0.990423"
         id="path32318" /><path
         d="m 116.64327,293.61273 h 4.35728 l -0.14798,0.6947 h -4.35728 z"
         style="fill:#ffffff;stroke:none;stroke-width:0.990423"
         id="path32320" /><path
         d="m 124.3055,293.69084 q 0.29597,0.0575 0.47273,0.27541 0.18086,0.21786 0.40284,0.94545 l 0.49739,1.67714 h -0.82624 l -0.43573,-1.54971 q -0.18087,-0.64126 -0.40695,-0.84269 -0.22198,-0.20142 -0.67415,-0.20142 h -0.78924 l -0.50561,2.59382 h -0.83446 l 1.18798,-6.13719 h 1.71002 q 0.8509,0 1.31541,0.36996 0.46861,0.36585 0.46861,1.03588 0,0.75225 -0.42751,1.24552 -0.42339,0.49328 -1.15509,0.58783 z m -1.20441,-2.55682 -0.41929,2.17864 h 0.90023 q 0.67003,0 1.06877,-0.34941 0.40284,-0.35351 0.40284,-0.93722 0,-0.4604 -0.25897,-0.67415 -0.25897,-0.21786 -0.81802,-0.21786 z"
         style="fill:#ffffff;stroke:none;stroke-width:0.990423"
         id="path32322" /></g><g
       aria-label="1→0"
       id="text32103"
       style="font-style:italic;font-size:8.41859px;font-family:Menlo;-inkscape-font-specification:'Menlo Italic';text-align:center;text-anchor:middle;clip-rule:evenodd;fill:#666666;fill-rule:evenodd;stroke:#666666;stroke-width:0.99042;stroke-linecap:round;stroke-linejoin:round;stroke-miterlimit:1.5;paint-order:fill markers stroke"><path
         d="m 22.947135,333.00963 h 1.28663 l 0.908452,-4.69024 -1.446945,0.3124 0.143872,-0.75635 1.446945,-0.30419 h 0.83446 l -1.060545,5.43838 h 1.270188 l -0.135651,0.69881 h -3.383057 z"
         style="fill:#ffffff;stroke:none;stroke-width:0.990423"
         id="path32325" /><path
         d="m 32.171412,331.5709 -1.196196,1.1962 -0.369958,-0.36996 0.657702,-0.6577 h -3.617363 v -0.67415 h 3.617363 l -0.657702,-0.6577 0.369958,-0.36996 1.196196,1.1962 z"
         style="fill:#ffffff;stroke:none;stroke-width:0.990423"
         id="path32327" /><path
         d="m 35.542137,327.46026 q 0.982443,-0.0329 1.335958,0.76047 0.357626,0.79335 0.07399,2.37184 -0.283635,1.5826 -0.933116,2.40472 -0.649481,0.82213 -1.631924,0.85091 -0.982443,0.0288 -1.335958,-0.76047 -0.353515,-0.79336 -0.07399,-2.37184 0.287745,-1.5826 0.933116,-2.40473 0.649481,-0.82212 1.631924,-0.8509 z m -1.035882,5.72201 q 0.583711,-0.0164 0.982444,-0.64948 0.398732,-0.63304 0.628928,-1.91556 0.127429,-0.68236 0.143872,-1.22908 l -2.515712,3.14464 q 0.184979,0.67004 0.760468,0.64948 z m 0.916673,-5.05608 q -0.5796,0.0164 -0.978332,0.64948 -0.398732,0.63304 -0.633039,1.91556 -0.106876,0.5796 -0.119208,1.08931 l 2.470495,-3.13641 q -0.209643,-0.5385 -0.739916,-0.51794 z"
         style="fill:#ffffff;stroke:none;stroke-width:0.990423"
         id="path32329" /></g><g
       aria-label="5→0"
       id="text32107"
       style="font-style:italic;font-size:8.41859px;font-family:Menlo;-inkscape-font-specification:'Menlo Italic';text-align:center;text-anchor:middle;clip-rule:evenodd;fill:#666666;fill-rule:evenodd;stroke:#666666;stroke-width:0.99042;stroke-linecap:round;stroke-linejoin:round;stroke-miterlimit:1.5;paint-order:fill markers stroke"><path
         d="m 52.825532,327.57125 h 3.107645 l -0.135652,0.69881 H 53.45035 l -0.295966,1.5086 q 0.1932,-0.0658 0.374068,-0.0945 0.184979,-0.0329 0.365847,-0.0329 0.7728,0 1.245524,0.46862 0.472724,0.4645 0.472724,1.22497 0,0.50972 -0.217864,0.99066 -0.213754,0.48095 -0.608375,0.83446 -0.361736,0.32885 -0.830349,0.49328 -0.464503,0.16442 -1.052324,0.16442 -0.44395,0 -0.83035,-0.0699 -0.382289,-0.0658 -0.678255,-0.1932 l 0.168536,-0.84268 q 0.345294,0.20964 0.70703,0.31241 0.361736,0.10277 0.748137,0.10277 0.764579,0 1.266077,-0.48095 0.501498,-0.48094 0.501498,-1.1962 0,-0.52616 -0.332962,-0.82623 -0.328851,-0.30008 -0.912562,-0.30008 -0.324741,0 -0.665924,0.0822 -0.337072,0.0822 -0.64537,0.23842 z"
         style="fill:#ffffff;stroke:none;stroke-width:0.990423"
         id="path32332" /><path
         d="m 61.244124,331.5709 -1.196197,1.1962 -0.369957,-0.36996 0.657702,-0.6577 h -3.617363 v -0.67415 h 3.617363 l -0.657702,-0.6577 0.369957,-0.36996 1.196197,1.1962 z"
         style="fill:#ffffff;stroke:none;stroke-width:0.990423"
         id="path32334" /><path
         d="m 64.614849,327.46026 q 0.982443,-0.0329 1.335958,0.76047 0.357626,0.79335 0.07399,2.37184 -0.283634,1.5826 -0.933115,2.40472 -0.649481,0.82213 -1.631924,0.85091 -0.982443,0.0288 -1.335958,-0.76047 -0.353515,-0.79336 -0.07399,-2.37184 0.287745,-1.5826 0.933116,-2.40473 0.649481,-0.82212 1.631923,-0.8509 z m -1.035882,5.72201 q 0.583711,-0.0164 0.982443,-0.64948 0.398733,-0.63304 0.628928,-1.91556 0.12743,-0.68236 0.143873,-1.22908 l -2.515712,3.14464 q 0.184979,0.67004 0.760468,0.64948 z m 0.916673,-5.05608 q -0.5796,0.0164 -0.978332,0.64948 -0.398732,0.63304 -0.633039,1.91556 -0.106876,0.5796 -0.119208,1.08931 l 2.470495,-3.13641 q -0.209643,-0.5385 -0.739916,-0.51794 z"
         style="fill:#ffffff;stroke:none;stroke-width:0.990423"
         id="path32336" /></g><g
       aria-label="10→0"
       id="text32111"
       style="font-style:italic;font-size:8.41859px;font-family:Menlo;-inkscape-font-specification:'Menlo Italic';text-align:center;text-anchor:middle;clip-rule:evenodd;fill:#666666;fill-rule:evenodd;stroke:#666666;stroke-width:0.99042;stroke-linecap:round;stroke-linejoin:round;stroke-miterlimit:1.5;paint-order:fill markers stroke"><path
         d="m 78.22694,333.00963 h 1.28663 l 0.908452,-4.69024 -1.446946,0.3124 0.143873,-0.75635 1.446945,-0.30419 h 0.83446 l -1.060545,5.43838 h 1.270188 l -0.135651,0.69881 h -3.383057 z"
         style="fill:#ffffff;stroke:none;stroke-width:0.990423"
         id="path32339" /><path
         d="m 85.753522,327.46026 q 0.982443,-0.0329 1.335958,0.76047 0.357626,0.79335 0.07399,2.37184 -0.283634,1.5826 -0.933116,2.40472 -0.649481,0.82213 -1.631924,0.85091 -0.982443,0.0288 -1.335958,-0.76047 -0.353515,-0.79336 -0.07399,-2.37184 0.287745,-1.5826 0.933116,-2.40473 0.649481,-0.82212 1.631924,-0.8509 z m -1.035881,5.72201 q 0.583711,-0.0164 0.982443,-0.64948 0.398732,-0.63304 0.628928,-1.91556 0.12743,-0.68236 0.143872,-1.22908 l -2.515712,3.14464 q 0.184979,0.67004 0.760469,0.64948 z m 0.916672,-5.05608 q -0.5796,0.0164 -0.978332,0.64948 -0.398732,0.63304 -0.633039,1.91556 -0.106876,0.5796 -0.119208,1.08931 l 2.470495,-3.13641 q -0.209643,-0.5385 -0.739916,-0.51794 z"
         style="fill:#ffffff;stroke:none;stroke-width:0.990423"
         id="path32341" /><path
         d="m 92.519636,331.5709 -1.196196,1.1962 -0.369958,-0.36996 0.657702,-0.6577 h -3.617363 v -0.67415 h 3.617363 l -0.657702,-0.6577 0.369958,-0.36996 1.196196,1.1962 z"
         style="fill:#ffffff;stroke:none;stroke-width:0.990423"
         id="path32343" /><path
         d="m 95.890361,327.46026 q 0.982443,-0.0329 1.335958,0.76047 0.357626,0.79335 0.07399,2.37184 -0.283635,1.5826 -0.933116,2.40472 -0.649481,0.82213 -1.631924,0.85091 -0.982443,0.0288 -1.335958,-0.76047 -0.353515,-0.79336 -0.07399,-2.37184 0.287745,-1.5826 0.933116,-2.40473 0.649481,-0.82212 1.631924,-0.8509 z m -1.035881,5.72201 q 0.583711,-0.0164 0.982443,-0.64948 0.398732,-0.63304 0.628928,-1.91556 0.127429,-0.68236 0.143872,-1.22908 l -2.515712,3.14464 q 0.184979,0.67004 0.760469,0.64948 z m 0.916672,-5.05608 q -0.5796,0.0164 -0.978332,0.64948 -0.398732,0.63304 -0.633039,1.91556 -0.106876,0.5796 -0.119208,1.08931 l 2.470495,-3.13641 q -0.209643,-0.5385 -0.739916,-0.51794 z"
         style="fill:#ffffff;stroke:none;stroke-width:0.990423"
         id="path32345" /></g><g
       aria-label="R→0"
       id="text32115"
       style="font-style:italic;font-size:8.41859px;font-family:Menlo;-inkscape-font-specification:'Menlo Italic';text-align:center;text-anchor:middle;clip-rule:evenodd;fill:#666666;fill-rule:evenodd;stroke:#666666;stroke-width:0.99042;stroke-linecap:round;stroke-linejoin:round;stroke-miterlimit:1.5;paint-order:fill markers stroke"><path
         d="m 111.63445,330.81043 q 0.29597,0.0575 0.47273,0.27542 0.18087,0.21786 0.40284,0.94544 l 0.49739,1.67715 h -0.82624 l -0.43573,-1.54972 q -0.18087,-0.64126 -0.40695,-0.84268 -0.22198,-0.20142 -0.67415,-0.20142 h -0.78924 l -0.50561,2.59382 h -0.83446 l 1.18798,-6.13719 h 1.71002 q 0.85091,0 1.31541,0.36996 0.46861,0.36584 0.46861,1.03588 0,0.75225 -0.42751,1.24552 -0.42339,0.49328 -1.15509,0.58782 z m -1.20441,-2.55681 -0.41929,2.17863 h 0.90023 q 0.67004,0 1.06877,-0.3494 0.40284,-0.35351 0.40284,-0.93723 0,-0.46039 -0.25897,-0.67414 -0.25897,-0.21786 -0.81802,-0.21786 z"
         style="fill:#ffffff;stroke:none;stroke-width:0.990423"
         id="path32348" /><path
         d="m 118.35124,331.5709 -1.1962,1.1962 -0.36995,-0.36996 0.6577,-0.6577 h -3.61736 v -0.67415 h 3.61736 l -0.6577,-0.6577 0.36995,-0.36996 1.1962,1.1962 z"
         style="fill:#ffffff;stroke:none;stroke-width:0.990423"
         id="path32350" /><path
         d="m 121.72197,327.46026 q 0.98244,-0.0329 1.33595,0.76047 0.35763,0.79335 0.074,2.37184 -0.28364,1.5826 -0.93312,2.40472 -0.64948,0.82213 -1.63192,0.85091 -0.98245,0.0288 -1.33596,-0.76047 -0.35352,-0.79336 -0.074,-2.37184 0.28774,-1.5826 0.93311,-2.40473 0.64948,-0.82212 1.63193,-0.8509 z m -1.03589,5.72201 q 0.58372,-0.0164 0.98245,-0.64948 0.39873,-0.63304 0.62893,-1.91556 0.12743,-0.68236 0.14387,-1.22908 l -2.51571,3.14464 q 0.18497,0.67004 0.76046,0.64948 z m 0.91668,-5.05608 q -0.5796,0.0164 -0.97834,0.64948 -0.39873,0.63304 -0.63303,1.91556 -0.10688,0.5796 -0.11921,1.08931 l 2.47049,-3.13641 q -0.20964,-0.5385 -0.73991,-0.51794 z"
         style="fill:#ffffff;stroke:none;stroke-width:0.990423"
         id="path32352" /></g></g></svg>
