<?xml version="1.0" encoding="UTF-8" standalone="no"?>
<!-- Created with Inkscape (http://www.inkscape.org/) -->

<svg
   width="40.6399mm"
   height="128.5mm"
   viewBox="0 0 40.639903 128.50002"
   version="1.1"
   id="svg8"
   inkscape:version="1.2 (dc2aeda, 2022-05-15)"
   sodipodi:docname="Node.svg"
   xml:space="preserve"
   xmlns:inkscape="http://www.inkscape.org/namespaces/inkscape"
   xmlns:sodipodi="http://sodipodi.sourceforge.net/DTD/sodipodi-0.dtd"
   xmlns="http://www.w3.org/2000/svg"
   xmlns:svg="http://www.w3.org/2000/svg"
   xmlns:rdf="http://www.w3.org/1999/02/22-rdf-syntax-ns#"
   xmlns:cc="http://creativecommons.org/ns#"
   xmlns:dc="http://purl.org/dc/elements/1.1/"><defs
     id="defs2">
            
            
        
            
            
        <clipPath
   clipPathUnits="userSpaceOnUse"
   id="clipPath33026"><circle
     cx="119.4997"
     cy="118.49972"
     r="109.50007"
     id="circle33028"
     style="stroke-width:1.37736" /></clipPath><clipPath
   clipPathUnits="userSpaceOnUse"
   id="clipPath32996"><circle
     cx="-41.584435"
     cy="-44.887039"
     r="33.972321"
     id="circle32998"
     style="stroke-width:0.580723"
     transform="scale(-1)" /></clipPath><clipPath
   clipPathUnits="userSpaceOnUse"
   id="clipPath32931"><circle
     cx="-41.584435"
     cy="-44.887024"
     r="33.972321"
     id="circle32933"
     style="stroke-width:0.580723"
     transform="scale(-1)" /></clipPath><clipPath
   clipPathUnits="userSpaceOnUse"
   id="clipPath32925"><circle
     cx="-41.584446"
     cy="-44.887032"
     r="33.972321"
     id="circle32927"
     style="stroke-width:0.580723"
     transform="scale(-1)" /></clipPath><clipPath
   clipPathUnits="userSpaceOnUse"
   id="clipPath33008"><circle
     cx="-41.584446"
     cy="-44.887016"
     r="33.972321"
     id="circle33010"
     style="stroke-width:0.580723"
     transform="scale(-1)" /></clipPath><clipPath
   clipPathUnits="userSpaceOnUse"
   id="clipPath32919"><circle
     cx="-41.584404"
     cy="-44.887016"
     r="33.972321"
     id="circle32921"
     style="stroke-width:0.580723"
     transform="scale(-1)" /></clipPath><clipPath
   clipPathUnits="userSpaceOnUse"
   id="clipPath33002"><circle
     cx="50.42067"
     cy="46.020279"
     r="40.342045"
     id="circle33004"
     style="stroke-width:0.689608" /></clipPath><clipPath
   clipPathUnits="userSpaceOnUse"
   id="clipPath32958"><circle
     cx="-41.58445"
     cy="-44.887016"
     r="33.972321"
     id="circle32960"
     style="stroke-width:0.580723"
     transform="scale(-1)" /></clipPath><clipPath
   clipPathUnits="userSpaceOnUse"
   id="clipPath33014"><circle
     cx="50.42065"
     cy="46.020279"
     r="40.342045"
     id="circle33016"
     style="stroke-width:0.689608" /></clipPath><clipPath
   clipPathUnits="userSpaceOnUse"
   id="clipPath32973"><circle
     cx="-41.584446"
     cy="-44.88702"
     r="33.972321"
     id="circle32975"
     style="stroke-width:0.580723"
     transform="scale(-1)" /></clipPath><clipPath
   clipPathUnits="userSpaceOnUse"
   id="clipPath32964"><circle
     cx="-41.584446"
     cy="-44.887012"
     r="33.972321"
     id="circle32966"
     style="stroke-width:0.580723"
     transform="scale(-1)" /></clipPath></defs><sodipodi:namedview
     id="base"
     pagecolor="#ffffff"
     bordercolor="#666666"
     borderopacity="1.0"
     inkscape:pageopacity="0.0"
     inkscape:pageshadow="2"
     inkscape:zoom="2.3686194"
     inkscape:cx="98.580635"
     inkscape:cy="313.68485"
     inkscape:document-units="mm"
     inkscape:current-layer="svg8"
     showgrid="false"
     units="mm"
     inkscape:snap-bbox="true"
     inkscape:snap-page="true"
     inkscape:bbox-nodes="false"
     inkscape:snap-bbox-edge-midpoints="false"
     inkscape:window-width="1512"
     inkscape:window-height="916"
     inkscape:window-x="15"
     inkscape:window-y="38"
     inkscape:window-maximized="0"
     inkscape:snap-bbox-midpoints="true"
     inkscape:snap-nodes="false"
     inkscape:showpageshadow="2"
     inkscape:pagecheckerboard="0"
     inkscape:deskcolor="#d1d1d1" /><metadata
     id="metadata5"><rdf:RDF><cc:Work
         rdf:about=""><dc:format>image/svg+xml</dc:format><dc:type
           rdf:resource="http://purl.org/dc/dcmitype/StillImage" /></cc:Work></rdf:RDF></metadata><rect
     id="rect1"
     x="-0.1665577"
     y="-0.38949111"
     width="40.987793"
     height="129.94316"
     style="clip-rule:evenodd;fill:#e5e5e5;fill-rule:evenodd;stroke-width:0.317257;stroke-linejoin:round;stroke-miterlimit:1.5;fill-opacity:1" /><rect
     style="clip-rule:evenodd;display:none;fill:#3b3b3b;fill-opacity:1;fill-rule:evenodd;stroke:#d08c59;stroke-width:0.351999;stroke-linejoin:round;stroke-miterlimit:1.5;stroke-dasharray:none;stroke-opacity:1"
     id="rect2"
     width="17.226421"
     height="111.5742"
     x="19.288095"
     y="11.274678"
     rx="4"
     ry="4" /><path
     d="M 10.759463,66.939369 H 6.9420964"
     style="clip-rule:evenodd;fill:none;fill-rule:evenodd;stroke:#000000;stroke-width:0.283905px;stroke-linecap:round;stroke-linejoin:round;stroke-miterlimit:1.5"
     id="path31949" /><g
     id="g2028"
     style="fill:#000000"><path
       id="path128"
       d="m 17.134728,125.9342 c 0.05984,0.1268 0.07943,0.25396 0.05842,0.38219 h -0.419235 c -0.0064,-0.0983 -0.02565,-0.1724 -0.05842,-0.22227 -0.05735,-0.089 -0.160997,-0.13357 -0.310597,-0.13357 -0.152449,0 -0.28602,0.0627 -0.4,0.18843 -0.114337,0.12538 -0.195192,0.30276 -0.242921,0.5325 -0.04809,0.22974 -0.03776,0.40143 0.0317,0.51612 0.0691,0.11433 0.175246,0.17133 0.318434,0.17133 0.147106,0 0.269635,-0.0492 0.367587,-0.14747 0.05378,-0.0524 0.105432,-0.13179 0.155298,-0.23722 h 0.415317 c -0.08264,0.22333 -0.213357,0.40463 -0.391452,0.54461 -0.178451,0.13927 -0.384328,0.20944 -0.617632,0.20944 -0.288513,0 -0.495815,-0.0944 -0.621906,-0.28317 -0.125379,-0.18985 -0.153162,-0.44986 -0.08442,-0.78076 0.07409,-0.35726 0.225468,-0.63295 0.453429,-0.82636 0.198753,-0.16848 0.424221,-0.2529 0.676403,-0.2529 0.337667,0 0.560642,0.11327 0.669992,0.3391 z"
       style="clip-rule:evenodd;fill:#000000;fill-rule:nonzero;stroke-width:0.356189;stroke-linejoin:round;stroke-miterlimit:1.5" /><path
       id="path129"
       d="m 18.062957,127.18869 0.764026,-1.55441 h 0.435619 l -1.110954,2.04667 h -0.396083 l -0.252181,-2.04667 h 0.448442 z"
       style="clip-rule:evenodd;fill:#000000;fill-rule:nonzero;stroke-width:0.356189;stroke-linejoin:round;stroke-miterlimit:1.5" /><path
       id="path130"
       d="m 20.845863,126.18139 -0.05877,0.27925 H 20.53313 l -0.253607,1.22031 h -0.386466 l 0.253606,-1.22031 h -0.216919 l 0.05842,-0.27925 h 0.212645 l 0.01995,-0.0972 c 0.03419,-0.16207 0.08406,-0.27355 0.149955,-0.33482 0.07551,-0.0905 0.220482,-0.13606 0.43562,-0.13606 0.02458,0 0.04666,7.1e-4 0.06625,0.002 0.01959,0.001 0.04666,0.004 0.08121,0.006 l -0.06803,0.32271 c -0.02102,-0.003 -0.05699,-0.005 -0.107569,-0.006 -0.05093,-10e-4 -0.08905,0.01 -0.113981,0.0345 -0.02493,0.0246 -0.03989,0.0516 -0.04559,0.0812 -0.0064,0.0299 -0.01532,0.0723 -0.02743,0.12787 z"
       style="clip-rule:evenodd;fill:#000000;fill-rule:nonzero;stroke-width:0.356189;stroke-linejoin:round;stroke-miterlimit:1.5" /><path
       id="path131"
       d="m 21.75272,127.46759 c -0.0043,0.005 -0.01638,0.0185 -0.03562,0.0417 -0.01888,0.0232 -0.04025,0.0431 -0.06376,0.0609 -0.07266,0.0556 -0.139626,0.0933 -0.200891,0.11363 -0.06091,0.0203 -0.129653,0.0306 -0.206234,0.0306 -0.219412,0 -0.350846,-0.0801 -0.393232,-0.2415 -0.02386,-0.0887 -0.01745,-0.21977 0.01888,-0.39287 l 0.189492,-0.91256 h 0.397151 l -0.189136,0.91256 c -0.01817,0.0862 -0.02173,0.15066 -0.01104,0.19447 0.01923,0.0769 0.0805,0.11541 0.183794,0.11541 0.132502,0 0.234728,-0.0549 0.306678,-0.1642 0.03811,-0.0591 0.06732,-0.13749 0.08727,-0.23438 l 0.171327,-0.82386 h 0.393233 l -0.314515,1.51345 h -0.376849 z"
       style="clip-rule:evenodd;fill:#000000;fill-rule:nonzero;stroke-width:0.356189;stroke-linejoin:round;stroke-miterlimit:1.5" /><path
       id="path132"
       d="m 23.598849,126.76091 c 0.0171,-0.0798 0.01959,-0.14105 0.0068,-0.18344 -0.02173,-0.078 -0.08584,-0.11683 -0.193055,-0.11683 -0.13179,0 -0.234016,0.057 -0.306323,0.17062 -0.03847,0.0605 -0.06696,0.13749 -0.08584,0.23081 l -0.170259,0.81888 h -0.386465 l 0.314159,-1.51096 h 0.374711 l -0.04631,0.22084 c 0.0659,-0.0773 0.125023,-0.13357 0.177026,-0.16777 0.09225,-0.0613 0.200179,-0.0915 0.322352,-0.0915 0.153517,0 0.270347,0.0406 0.350846,0.12289 0.08014,0.0819 0.100801,0.21763 0.06162,0.40748 l -0.212289,1.01906 h -0.397507 z"
       style="clip-rule:evenodd;fill:#000000;fill-rule:nonzero;stroke-width:0.356189;stroke-linejoin:round;stroke-miterlimit:1.5" /><path
       id="path133"
       d="m 24.638921,127.20543 -0.09759,0.47552 h -0.381484 l 0.424934,-2.0399 h 0.381122 l -0.230454,1.10312 0.601959,-0.5699 h 0.480856 l -0.640072,0.57952 0.346928,0.92716 h -0.468389 l -0.220125,-0.64684 z"
       style="clip-rule:evenodd;fill:#000000;fill-rule:nonzero;stroke-width:0.356189;stroke-linejoin:round;stroke-miterlimit:1.5" /></g><path
     id="path134"
     d="M 7.8535071,126.66688 H 14.475776"
     style="clip-rule:evenodd;fill:none;fill-rule:evenodd;stroke:#000000;stroke-width:0.227961px;stroke-linecap:round;stroke-linejoin:round;stroke-miterlimit:1.5" /><path
     id="path135"
     d="m 26.164123,126.66688 h 6.62227"
     style="clip-rule:evenodd;fill:none;fill-rule:evenodd;stroke:#000000;stroke-width:0.227961px;stroke-linecap:round;stroke-linejoin:round;stroke-miterlimit:1.5" /><path
     d="m 17.665041,97.101483 h -4.170817 c -3.6643999,0 -6.6394423,-2.975395 -6.6394423,-6.639715 V 44.378312 c 0,-3.664415 2.9750424,-6.639445 6.6394423,-6.639445 h 3.794382"
     style="clip-rule:evenodd;fill:none;fill-rule:evenodd;stroke:#000000;stroke-width:0.364347px;stroke-linecap:round;stroke-linejoin:round;stroke-miterlimit:1.5"
     id="path31780"
     sodipodi:nodetypes="cssssc" /><g
     aria-label="NODE"
     id="text31860"
     style="font-style:italic;font-size:5.82847px;font-family:Menlo-Italic, Menlo, monospace;clip-rule:evenodd;fill:#000000;fill-rule:evenodd;stroke-width:0.0874265;stroke-linecap:round;stroke-linejoin:round;stroke-miterlimit:1.5"
     transform="translate(-0.4950589)"><path
       d="m 14.622259,1.3618918 h 0.728559 l 0.751327,3.4976514 0.680177,-3.4976514 h 0.554957 L 16.509113,5.6108694 H 15.780554 L 15.029228,2.1132181 14.346204,5.6108694 h -0.552111 z"
       id="path35076"
       style="fill:#000000" /><path
       d="m 18.748862,5.2266685 q 0.241904,0 0.446811,-0.1451426 0.204908,-0.1451425 0.338666,-0.4155062 0.210599,-0.4126602 0.341512,-0.9989223 0.130913,-0.5862622 0.130913,-1.1269894 0,-0.4041225 -0.150834,-0.5947999 -0.147989,-0.1935235 -0.461041,-0.1935235 -0.241905,0 -0.443966,0.1451426 -0.202061,0.1451426 -0.33582,0.4155062 -0.216291,0.4183521 -0.347204,0.9989224 -0.130913,0.5805702 -0.130913,1.1212975 0,0.4069683 0.147989,0.6004918 0.150834,0.1935234 0.463887,0.1935234 z m 1.84701,-2.5186505 q 0,0.3130526 -0.06546,0.6801779 -0.06261,0.3671254 -0.184986,0.7541722 -0.08253,0.2618258 -0.179293,0.4695789 -0.09392,0.2077531 -0.204908,0.3756631 -0.250442,0.3614335 -0.560648,0.5350354 -0.310207,0.170756 -0.722867,0.170756 -0.572033,0 -0.848088,-0.3500498 Q 17.55357,4.993302 17.55357,4.2647432 q 0,-0.3158985 0.05976,-0.677332 0.06261,-0.3642794 0.184985,-0.7513262 0.08253,-0.2618258 0.176448,-0.4695789 0.09676,-0.2077531 0.207753,-0.3756631 0.250442,-0.3614335 0.560649,-0.5321894 0.310207,-0.1736019 0.722867,-0.1736019 0.574878,0 0.850934,0.3500497 0.278901,0.3472038 0.278901,1.0729166 z"
       id="path35078"
       style="fill:#000000" /><path
       d="m 21.751321,5.1384446 q 0.526498,0 0.845242,-0.1764479 0.318745,-0.1792937 0.512268,-0.5805702 0.15368,-0.3272823 0.250442,-0.7797856 0.09961,-0.4553492 0.09961,-0.8338583 0,-0.5008841 -0.233367,-0.717175 Q 22.99215,1.8343167 22.442885,1.8343167 h -0.324437 l -0.64318,3.3041279 z m 0.745634,-3.7765528 q 0.77694,0 1.161141,0.3528957 0.387047,0.3528957 0.387047,1.0700707 0,0.4610411 -0.119529,0.9505415 -0.119529,0.4895005 -0.321591,0.8680095 -0.295977,0.5435732 -0.739942,0.7769397 -0.44112,0.2305205 -1.195292,0.2305205 h -0.862318 l 0.828167,-4.2489776 z"
       id="path35080"
       style="fill:#000000" /><path
       d="m 25.317275,1.3618918 h 2.51865 l -0.09391,0.4838086 h -1.946618 l -0.244751,1.2579023 h 1.858394 l -0.09107,0.4838085 h -1.86124 l -0.295977,1.5396496 h 1.997844 l -0.09391,0.4838086 h -2.57557 z"
       id="path35082"
       style="fill:#000000" /></g><g
     aria-label="I"
     id="text31867"
     style="font-style:italic;font-size:3.2785px;font-family:Menlo-Italic, Menlo, monospace;clip-rule:evenodd;fill:#000000;fill-rule:evenodd;stroke-width:0.0874265;stroke-linecap:round;stroke-linejoin:round;stroke-miterlimit:1.5"><path
       d="m 4.0683762,18.83297 h 1.328689 l -0.052827,0.272141 H 4.8415771 L 4.484592,20.950868 h 0.5026606 l -0.052827,0.272141 H 3.6057363 l 0.052827,-0.272141 H 4.1596235 L 4.5182094,19.105111 H 4.0155488 Z"
       id="path35066"
       style="fill:#000000" /><path
       d="m 6.185043,18.83297 h 1.3286891 l -0.05283,0.272141 h -0.502661 l -0.3569853,1.845757 h 0.5026603 l -0.05283,0.272141 h -1.328683 l 0.052827,-0.272141 H 6.2762903 L 6.6348762,19.105111 H 6.1322156 Z"
       id="path975"
       style="fill:#000000" /></g><g
     aria-label="CV I"
     id="text31873"
     style="font-style:italic;font-size:3.2785px;font-family:Menlo-Italic, Menlo, monospace;clip-rule:evenodd;fill:#000000;fill-rule:evenodd;stroke-width:0.0874265;stroke-linecap:round;stroke-linejoin:round;stroke-miterlimit:1.5"
     transform="translate(-0.52916667,1.0583333)"><path
       d="m 21.221589,14.10578 q -0.13447,0.06563 -0.272141,0.09765 -0.136071,0.03362 -0.281746,0.03362 -0.368191,0 -0.571497,-0.21291 -0.201704,-0.212911 -0.201704,-0.59711 0,-0.352182 0.112058,-0.697962 0.112058,-0.345779 0.294553,-0.565093 0.171288,-0.208108 0.377796,-0.307359 0.206507,-0.09925 0.470644,-0.09925 0.128066,0 0.254532,0.03362 0.126465,0.03362 0.246527,0.09765 l -0.06563,0.331371 q -0.102453,-0.100852 -0.216112,-0.150478 -0.113659,-0.04962 -0.241725,-0.04962 -0.152079,0 -0.281746,0.06563 -0.129667,0.06403 -0.243326,0.196902 -0.166487,0.196902 -0.26894,0.504261 -0.100852,0.30736 -0.100852,0.61632 0,0.276943 0.124865,0.42422 0.124864,0.147276 0.360186,0.147276 0.136071,0 0.280146,-0.05123 0.145675,-0.05123 0.286548,-0.148878 z"
       id="path35069"
       style="fill:#000000" /><path
       d="m 22.500652,13.886467 0.957297,-2.085882 h 0.344178 l -1.150997,2.390039 h -0.413014 l -0.235322,-2.390039 h 0.316964 z"
       id="path35071"
       style="fill:#000000" /><path
       d="m 26.185763,11.800585 h 1.328689 l -0.05283,0.272141 h -0.502661 l -0.356985,1.845757 h 0.502661 l -0.05283,0.272141 h -1.328689 l 0.05283,-0.272141 h 0.50106 l 0.358585,-1.845757 h -0.50266 z"
       id="path35073"
       style="fill:#000000" /><path
       d="m 28.302431,11.800585 h 1.328689 l -0.05283,0.272141 h -0.502661 l -0.356985,1.845757 h 0.502661 l -0.05283,0.272141 h -1.328689 l 0.05283,-0.272141 h 0.50106 l 0.358585,-1.845757 h -0.50266 z"
       id="path977"
       style="fill:#000000" /></g><g
     aria-label="GAIN I"
     id="text31879"
     style="font-style:italic;font-size:3.2785px;font-family:Menlo-Italic, Menlo, monospace;clip-rule:evenodd;fill:#000000;fill-rule:evenodd;stroke-width:0.0874265;stroke-linecap:round;stroke-linejoin:round;stroke-miterlimit:1.5"><path
       d="m 12.623431,46.958537 q -0.139272,0.09925 -0.304158,0.150478 -0.164885,0.04963 -0.352182,0.04963 -0.371393,0 -0.571497,-0.214511 -0.198503,-0.216112 -0.198503,-0.614719 0,-0.144075 0.02561,-0.305759 0.02721,-0.163284 0.07844,-0.340976 0.05603,-0.187297 0.131268,-0.337775 0.07524,-0.152079 0.164886,-0.259335 0.171289,-0.208108 0.377796,-0.307359 0.208108,-0.09925 0.473845,-0.09925 0.128067,0 0.254532,0.03362 0.128067,0.03362 0.251331,0.09765 l -0.06563,0.331372 q -0.104054,-0.100852 -0.219314,-0.150478 -0.113659,-0.04963 -0.243326,-0.04963 -0.156882,0 -0.294553,0.06724 -0.137671,0.06563 -0.246528,0.195301 -0.07044,0.08324 -0.132869,0.208108 -0.06243,0.124865 -0.110457,0.280146 -0.05443,0.182494 -0.08324,0.342577 -0.02721,0.160083 -0.02721,0.289751 0,0.273741 0.126465,0.422619 0.126466,0.148877 0.358586,0.148877 0.108857,0 0.195302,-0.02882 0.08644,-0.03042 0.145675,-0.08644 l 0.121663,-0.629126 h -0.34738 l 0.04803,-0.265738 h 0.65634 z"
       id="path35055"
       style="fill:#000000" /><path
       d="m 14.22266,44.991117 -0.582702,1.239043 h 0.688357 z m -0.153679,-0.268939 h 0.393804 l 0.265738,2.390039 h -0.321767 l -0.05603,-0.622723 h -0.832432 l -0.294553,0.622723 h -0.34738 z"
       id="path35057"
       style="fill:#000000" /><path
       d="m 15.573761,44.722178 h 1.328689 l -0.05283,0.272141 h -0.50266 l -0.356985,1.845757 h 0.50266 l -0.05283,0.272141 h -1.328689 l 0.05283,-0.272141 h 0.50106 l 0.358586,-1.845757 h -0.502661 z"
       id="path35059"
       style="fill:#000000" /><path
       d="m 17.449934,44.722178 h 0.409812 l 0.422619,1.96742 0.382599,-1.96742 h 0.312162 l -0.465842,2.390039 h -0.409812 l -0.42262,-1.96742 -0.384199,1.96742 h -0.310561 z"
       id="path35061"
       style="fill:#000000" /><path
       d="m 21.495231,44.722178 h 1.328689 l -0.05283,0.272141 h -0.502661 l -0.356985,1.845757 h 0.502661 l -0.05283,0.272141 h -1.328689 l 0.05283,-0.272141 h 0.50106 l 0.358586,-1.845757 h -0.502661 z"
       id="path35063"
       style="fill:#000000" /><path
       d="m 23.611899,44.722178 h 1.328689 l -0.05283,0.272141 h -0.502661 l -0.356985,1.845757 h 0.502661 l -0.05283,0.272141 h -1.328689 l 0.05283,-0.272141 h 0.50106 l 0.358586,-1.845757 h -0.502661 z"
       id="path979"
       style="fill:#000000" /></g><g
     aria-label="GAIN II"
     id="text31885"
     style="font-style:italic;font-size:3.2785px;font-family:Menlo-Italic, Menlo, monospace;clip-rule:evenodd;fill:#000000;fill-rule:evenodd;stroke-width:0.0874265;stroke-linecap:round;stroke-linejoin:round;stroke-miterlimit:1.5"><path
       d="m 12.742107,89.772826 q -0.139272,0.09925 -0.304158,0.150478 -0.164885,0.04963 -0.352182,0.04963 -0.371393,0 -0.571497,-0.214511 -0.198503,-0.216112 -0.198503,-0.614719 0,-0.144075 0.02561,-0.305758 0.02721,-0.163285 0.07844,-0.340977 0.05603,-0.187297 0.131268,-0.337775 0.07524,-0.152079 0.164886,-0.259335 0.171289,-0.208108 0.377796,-0.307359 0.208108,-0.09925 0.473846,-0.09925 0.128066,0 0.254532,0.03362 0.128066,0.03362 0.25133,0.09765 l -0.06563,0.331372 q -0.104054,-0.100852 -0.219314,-0.150478 -0.113659,-0.04963 -0.243326,-0.04963 -0.156881,0 -0.294553,0.06723 -0.137671,0.06563 -0.246528,0.195302 -0.07044,0.08324 -0.132868,0.208107 -0.06243,0.124865 -0.110458,0.280146 -0.05443,0.182494 -0.08324,0.342577 -0.02721,0.160083 -0.02721,0.289751 0,0.273742 0.126466,0.422619 0.126465,0.148877 0.358585,0.148877 0.108857,0 0.195302,-0.02881 0.08645,-0.03042 0.145675,-0.08644 l 0.121663,-0.629126 h -0.34738 l 0.04802,-0.265738 h 0.65634 z"
       id="path35022"
       style="fill:#000000" /><path
       d="m 14.341336,87.805406 -0.582702,1.239043 h 0.688357 z m -0.153679,-0.268939 h 0.393804 l 0.265738,2.390039 h -0.321767 l -0.05603,-0.622723 h -0.832432 l -0.294553,0.622723 h -0.34738 z"
       id="path35024"
       style="fill:#000000" /><path
       d="m 15.692437,87.536467 h 1.328689 l -0.05283,0.272141 h -0.502661 l -0.356985,1.845757 h 0.502661 l -0.05283,0.272141 h -1.328689 l 0.05283,-0.272141 h 0.501059 l 0.358586,-1.845757 h -0.50266 z"
       id="path35026"
       style="fill:#000000" /><path
       d="m 17.56861,87.536467 h 0.409812 l 0.42262,1.96742 0.382598,-1.96742 h 0.312162 l -0.465842,2.390039 h -0.409812 l -0.422619,-1.96742 -0.3842,1.96742 h -0.310561 z"
       id="path35028"
       style="fill:#000000" /><path
       d="m 21.613908,87.536467 h 1.328689 l -0.05283,0.272141 h -0.50266 l -0.356986,1.845757 h 0.502661 l -0.05283,0.272141 h -1.328689 l 0.05283,-0.272141 h 0.50106 l 0.358586,-1.845757 H 21.56108 Z"
       id="path35030"
       style="fill:#000000" /></g><g
     aria-label="CV II"
     id="text31891"
     style="font-style:italic;font-size:3.2785px;font-family:Menlo-Italic, Menlo, monospace;clip-rule:evenodd;fill:#000000;fill-rule:evenodd;stroke-width:0.0874265;stroke-linecap:round;stroke-linejoin:round;stroke-miterlimit:1.5"
     transform="translate(1.5875,-1.0583333)"><path
       d="m 20.234717,121.71851 q -0.134469,0.0656 -0.272141,0.0977 -0.13607,0.0336 -0.281746,0.0336 -0.368191,0 -0.571496,-0.21291 -0.201705,-0.21291 -0.201705,-0.59711 0,-0.35219 0.112058,-0.69797 0.112058,-0.34577 0.294553,-0.56509 0.171289,-0.20811 0.377796,-0.30736 0.206507,-0.0992 0.470644,-0.0992 0.128066,0 0.254532,0.0336 0.126465,0.0336 0.246528,0.0977 l -0.06563,0.33137 q -0.102453,-0.10085 -0.216112,-0.15048 -0.113659,-0.0496 -0.241726,-0.0496 -0.152079,0 -0.281746,0.0656 -0.129667,0.064 -0.243326,0.1969 -0.166486,0.1969 -0.268939,0.50426 -0.100853,0.30736 -0.100853,0.61632 0,0.27695 0.124865,0.42422 0.124865,0.14728 0.360187,0.14728 0.13607,0 0.280145,-0.0512 0.145676,-0.0512 0.286549,-0.14887 z"
       id="path35008"
       style="fill:#000000" /><path
       d="m 21.513781,121.49919 0.957296,-2.08588 h 0.344178 l -1.150996,2.39004 h -0.413015 l -0.235322,-2.39004 h 0.316965 z"
       id="path35010"
       style="fill:#000000" /><path
       d="m 25.198891,119.41331 h 1.328689 l -0.05283,0.27214 h -0.502661 l -0.356985,1.84576 h 0.502661 l -0.05283,0.27214 h -1.328689 l 0.05283,-0.27214 h 0.50106 l 0.358586,-1.84576 h -0.502661 z"
       id="path35012"
       style="fill:#000000" /></g><g
     aria-label="II"
     id="text31897"
     style="font-style:italic;font-size:3.2785px;font-family:Menlo-Italic, Menlo, monospace;clip-rule:evenodd;fill:#000000;fill-rule:evenodd;stroke-width:0.0874265;stroke-linecap:round;stroke-linejoin:round;stroke-miterlimit:1.5"
     transform="translate(1.0583333,0.52916667)"><path
       d="m 3.4311229,112.95214 h 1.328689 l -0.052827,0.27214 H 4.2043238 l -0.3569851,1.84576 h 0.5026607 l -0.052827,0.27214 H 2.968483 l 0.052827,-0.27214 h 0.5010598 l 0.3585859,-1.84576 H 3.3782955 Z"
       id="path35017"
       style="fill:#000000" /></g><path
     d="m 39.085697,57.676452 v 18.243514 c 0,2.587887 -2.102021,4.68889 -4.689576,4.68889 H 15.038704 c -2.587885,0 -4.688905,-2.101003 -4.688905,-4.68889 V 57.676452 c 0,-2.587891 2.10102,-4.688891 4.688905,-4.688891 h 19.357417 c 2.587555,0 4.689576,2.101 4.689576,4.688891 z"
     style="clip-rule:evenodd;fill:#434343;fill-rule:evenodd;stroke:#000000;stroke-width:0.35277778;stroke-linecap:round;stroke-linejoin:round;stroke-miterlimit:1.5;stroke-dasharray:none"
     id="path31901" /><path
     d="M 24.173659,20.553777 V 30.870113"
     style="clip-rule:evenodd;fill:none;fill-rule:evenodd;stroke:#000000;stroke-width:0.343602px;stroke-linecap:round;stroke-linejoin:round;stroke-miterlimit:1.5"
     id="path31953" /><path
     d="M 17.519397,23.281124 V 33.597461"
     style="clip-rule:evenodd;fill:none;fill-rule:evenodd;stroke:#000000;stroke-width:0.343602px;stroke-linecap:round;stroke-linejoin:round;stroke-miterlimit:1.5"
     id="path31961" /><path
     d="M 17.519397,111.22356 V 100.90722"
     style="clip-rule:evenodd;fill:none;fill-rule:evenodd;stroke:#000000;stroke-width:0.343602px;stroke-linecap:round;stroke-linejoin:round;stroke-miterlimit:1.5"
     id="path31965" /><path
     d="M 24.173659,105.32666 V 115.643"
     style="clip-rule:evenodd;fill:none;fill-rule:evenodd;stroke:#000000;stroke-width:0.343602px;stroke-linecap:round;stroke-linejoin:round;stroke-miterlimit:1.5"
     id="path31969" /><g
     aria-label="OUT"
     id="text31975"
     style="font-style:italic;font-size:3.2785px;font-family:Menlo-Italic, Menlo, monospace;clip-rule:evenodd;fill:#ffffff;fill-rule:evenodd;stroke-width:0.0874265;stroke-linecap:round;stroke-linejoin:round;stroke-miterlimit:1.5"
     transform="translate(-0.52916667)"><path
       d="m 32.175405,79.024679 q 0.13607,0 0.25133,-0.08164 0.11526,-0.08164 0.190499,-0.233721 0.118461,-0.232121 0.192099,-0.561892 0.07364,-0.329771 0.07364,-0.633928 0,-0.227318 -0.08484,-0.334574 -0.08324,-0.108856 -0.259335,-0.108856 -0.13607,0 -0.249729,0.08164 -0.113659,0.08164 -0.188898,0.233721 -0.121663,0.235322 -0.195302,0.561892 -0.07364,0.326569 -0.07364,0.630727 0,0.228918 0.08324,0.337775 0.08484,0.108856 0.260936,0.108856 z m 1.038938,-1.416734 q 0,0.176091 -0.03682,0.382598 -0.03522,0.206507 -0.104054,0.42422 -0.04642,0.147276 -0.100852,0.264137 -0.05283,0.116861 -0.11526,0.21131 -0.140873,0.203305 -0.315363,0.300956 -0.174491,0.09605 -0.406611,0.09605 -0.321767,0 -0.477047,-0.196902 -0.155281,-0.196902 -0.155281,-0.606714 0,-0.177692 0.03362,-0.380998 0.03522,-0.204906 0.104053,-0.422619 0.04643,-0.147276 0.09925,-0.264137 0.05443,-0.116861 0.116861,-0.21131 0.140873,-0.203305 0.315363,-0.299355 0.174491,-0.09765 0.406611,-0.09765 0.323368,0 0.478648,0.196902 0.156881,0.195301 0.156881,0.603513 z"
       id="path35001"
       style="fill:#ffffff" /><path
       d="m 33.529707,78.323516 0.284948,-1.472764 h 0.324968 l -0.286548,1.472764 q -0.0032,0.02081 -0.01281,0.06563 -0.04803,0.246528 -0.04803,0.340977 0,0.147276 0.08644,0.220914 0.08805,0.07364 0.264137,0.07364 0.142474,0 0.241725,-0.04482 0.09925,-0.04642 0.171289,-0.145676 0.03522,-0.04963 0.07044,-0.169688 0.03682,-0.121663 0.08004,-0.340976 l 0.284948,-1.472764 h 0.324968 l -0.284947,1.472764 q -0.06724,0.350581 -0.144075,0.515467 -0.07524,0.163285 -0.200104,0.264137 -0.113659,0.08965 -0.259334,0.137671 -0.145676,0.04642 -0.315364,0.04642 -0.307359,0 -0.473846,-0.144074 -0.164885,-0.144075 -0.164885,-0.409813 0,-0.05923 0.01281,-0.160083 0.01441,-0.100852 0.04322,-0.249729 z"
       id="path35003"
       style="fill:#ffffff" /><path
       d="m 35.628395,76.850752 h 1.824947 l -0.05283,0.272141 h -0.750789 l -0.409813,2.117898 h -0.326569 l 0.413014,-2.117898 h -0.750789 z"
       id="path35005"
       style="fill:#ffffff" /></g><g
     aria-label="VOL."
     id="text31981"
     style="font-style:italic;font-size:3.2785px;font-family:Menlo-Italic, Menlo, monospace;clip-rule:evenodd;fill:#ffffff;fill-rule:evenodd;stroke-width:0.0874265;stroke-linecap:round;stroke-linejoin:round;stroke-miterlimit:1.5"
     transform="translate(0.52916667)"><path
       d="m 17.616362,78.062366 0.957296,-2.085882 h 0.344178 l -1.150996,2.39004 h -0.413015 l -0.235322,-2.39004 h 0.316965 z"
       id="path35035"
       style="fill:#ffffff" /><path
       d="m 19.577378,78.150412 q 0.136071,0 0.251331,-0.08164 0.11526,-0.08164 0.190499,-0.233721 0.118461,-0.23212 0.192099,-0.561891 0.07364,-0.329771 0.07364,-0.633929 0,-0.227318 -0.08484,-0.334573 -0.08324,-0.108857 -0.259334,-0.108857 -0.136071,0 -0.24973,0.08164 -0.113659,0.08164 -0.188898,0.233722 -0.121663,0.235322 -0.195301,0.561891 -0.07364,0.326569 -0.07364,0.630727 0,0.228919 0.08324,0.337775 0.08484,0.108857 0.260935,0.108857 z m 1.038939,-1.416735 q 0,0.176091 -0.03682,0.382598 -0.03522,0.206508 -0.104054,0.42422 -0.04642,0.147277 -0.100852,0.264137 -0.05283,0.116861 -0.11526,0.21131 -0.140873,0.203305 -0.315363,0.300956 -0.174491,0.09605 -0.406611,0.09605 -0.321767,0 -0.477048,-0.196902 -0.15528,-0.196902 -0.15528,-0.606715 0,-0.177692 0.03362,-0.380997 0.03522,-0.204907 0.104054,-0.42262 0.04642,-0.147276 0.09925,-0.264137 0.05443,-0.11686 0.11686,-0.211309 0.140873,-0.203306 0.315364,-0.299355 0.17449,-0.09765 0.406611,-0.09765 0.323367,0 0.478648,0.196902 0.156881,0.195301 0.156881,0.603513 z"
       id="path35037"
       style="fill:#ffffff" /><path
       d="m 21.338292,75.976484 h 0.323367 l -0.413014,2.117899 h 1.154199 l -0.05283,0.272141 H 20.87245 Z"
       id="path35039"
       style="fill:#ffffff" /><path
       d="m 23.406564,77.719788 h 0.563492 l -0.126465,0.646736 h -0.563492 z"
       id="path35041"
       style="fill:#ffffff" /></g><g
     aria-label="XFADE"
     transform="rotate(-90,0.79374997,-0.79374997)"
     id="text31987"
     style="font-style:italic;font-size:3.2785px;font-family:Menlo-Italic, Menlo, monospace;clip-rule:evenodd;fill:#000000;fill-rule:evenodd;stroke-width:0.0874265;stroke-linecap:round;stroke-linejoin:round;stroke-miterlimit:1.5"><path
       d="m -71.58746,0.73322972 h 0.320166 l 0.358586,0.85164158 0.704365,-0.85164158 h 0.369792 l -0.954095,1.15099688 0.518669,1.2390425 h -0.321767 l -0.406611,-0.9797081 -0.81002,0.9797081 h -0.369792 l 1.051746,-1.2758616 z"
       id="path35044"
       style="fill:#000000" /><path
       d="m -69.38792,0.73322972 h 1.40713 l -0.05283,0.27214108 h -1.082162 l -0.137671,0.7043653 h 0.979708 l -0.05123,0.2721411 h -0.981309 L -69.5288,3.1232691 h -0.324968 z"
       id="path35046"
       style="fill:#000000" /><path
       d="m -66.850604,1.0021692 -0.582702,1.2390425 h 0.688357 z m -0.15368,-0.26893948 h 0.393805 l 0.265737,2.39003938 h -0.321766 l -0.05603,-0.6227229 h -0.832431 l -0.294553,0.6227229 h -0.34738 z"
       id="path35048"
       style="fill:#000000" /><path
       d="m -65.534722,2.8575313 q 0.296154,0 0.475447,-0.099252 0.179293,-0.1008523 0.288149,-0.3265693 0.08644,-0.1840955 0.140873,-0.4386275 0.05603,-0.2561328 0.05603,-0.4690432 0,-0.2817461 -0.131269,-0.4034092 -0.131268,-0.12166308 -0.440228,-0.12166308 h -0.182494 l -0.361788,1.85856378 z m 0.419418,-2.12430158 q 0.437027,0 0.653139,0.19850293 0.217713,0.19850295 0.217713,0.60191215 0,0.2593345 -0.06724,0.5346772 -0.06723,0.2753428 -0.180894,0.4882532 -0.166486,0.3057586 -0.416216,0.4370266 -0.248129,0.1296673 -0.672349,0.1296673 h -0.485051 l 0.465841,-2.39003938 z"
       id="path35050"
       style="fill:#000000" /><path
       d="m -63.528881,0.73322972 h 1.416734 l -0.05283,0.27214108 h -1.094968 l -0.137671,0.7075669 h 1.045342 l -0.05123,0.2721412 h -1.046943 l -0.166486,0.8660491 h 1.123783 l -0.05283,0.2721411 h -1.448751 z"
       id="path35052"
       style="fill:#000000" /></g><path
     d="m 11.031645,16.756549 v 1.027395 c 0,0 0.204223,2.305231 3.25097,2.305231"
     style="clip-rule:evenodd;fill:none;fill-rule:evenodd;stroke:#000000;stroke-width:0.353822px;stroke-linecap:round;stroke-linejoin:round;stroke-miterlimit:1.5"
     id="path32155" /><path
     d="m 11.031645,117.74802 v -1.02739 c 0,0 0.204223,-2.30523 3.25097,-2.30523"
     style="clip-rule:evenodd;fill:none;fill-rule:evenodd;stroke:#000000;stroke-width:0.353822px;stroke-linecap:round;stroke-linejoin:round;stroke-miterlimit:1.5"
     id="path32159" /><path
     d="m 11.112964,23.443661 v -1.027395 c 0,0 0.116811,-2.305231 3.250974,-2.305231"
     style="clip-rule:evenodd;fill:none;fill-rule:evenodd;stroke:#000000;stroke-width:0.353822px;stroke-linecap:round;stroke-linejoin:round;stroke-miterlimit:1.5"
     id="path32163" /><path
     d="m 11.112964,111.06087 v 1.0274 c 0,0 0.116811,2.30523 3.250974,2.30523"
     style="clip-rule:evenodd;fill:none;fill-rule:evenodd;stroke:#000000;stroke-width:0.353822px;stroke-linecap:round;stroke-linejoin:round;stroke-miterlimit:1.5"
     id="path32167" /><path
     d="m 14.151999,20.153006 h 1.027397 c 0,0 2.30523,0.116808 2.30523,3.250972"
     style="clip-rule:evenodd;fill:none;fill-rule:evenodd;stroke:#000000;stroke-width:0.353822px;stroke-linecap:round;stroke-linejoin:round;stroke-miterlimit:1.5"
     id="path32171" /><path
     d="m 14.151999,114.35153 h 1.027397 c 0,0 2.30523,-0.11681 2.30523,-3.25097"
     style="clip-rule:evenodd;fill:none;fill-rule:evenodd;stroke:#000000;stroke-width:0.353822px;stroke-linecap:round;stroke-linejoin:round;stroke-miterlimit:1.5"
     id="path32175" /><path
     d="m 17.501428,33.259634 v -1.027395 c 0,0 0.116808,-2.305231 3.25097,-2.305231"
     style="clip-rule:evenodd;fill:none;fill-rule:evenodd;stroke:#000000;stroke-width:0.353822px;stroke-linecap:round;stroke-linejoin:round;stroke-miterlimit:1.5"
     id="path32179" /><path
     d="m 17.501428,101.24505 v 1.02739 c 0,0 0.116808,2.30523 3.25097,2.30523"
     style="clip-rule:evenodd;fill:none;fill-rule:evenodd;stroke:#000000;stroke-width:0.353822px;stroke-linecap:round;stroke-linejoin:round;stroke-miterlimit:1.5"
     id="path32183" /><g
     id="g34999"
     inkscape:label="components"
     style="display:none"><circle
       cx="11.063871"
       cy="13.955072"
       r="2.7128987"
       style="clip-rule:evenodd;display:inline;fill:#0000ff;fill-opacity:1;fill-rule:evenodd;stroke:none;stroke-width:0.332729px;stroke-linecap:round;stroke-linejoin:round;stroke-miterlimit:1.5;stroke-opacity:1"
       id="circle11644"
       inkscape:label="1_IN1" /><circle
       cx="17.399714"
       cy="38.160805"
       r="2.7128987"
       style="clip-rule:evenodd;display:inline;fill:#ff0000;fill-opacity:1;fill-rule:evenodd;stroke:none;stroke-width:0.332729px;stroke-linecap:round;stroke-linejoin:round;stroke-miterlimit:1.5;stroke-opacity:1"
       id="circle14008"
       inkscape:label="GAIN1" /><rect
       style="display:inline;fill:#ffff00;fill-opacity:1;stroke:none;stroke-width:0.206986;stroke-linecap:round;stroke-opacity:1;paint-order:fill markers stroke"
       id="rect30341"
       width="2.8478837"
       height="26.608135"
       x="4.1977835"
       y="53.700089"
       inkscape:label="XFADE" /><circle
       cx="11.063871"
       cy="25.698448"
       r="2.7128987"
       style="clip-rule:evenodd;display:inline;fill:#0000ff;fill-opacity:1;fill-rule:evenodd;stroke:none;stroke-width:0.332729px;stroke-linecap:round;stroke-linejoin:round;stroke-miterlimit:1.5;stroke-opacity:1"
       id="circle34951"
       inkscape:label="1_IN2" /><circle
       cx="23.76589"
       cy="20.425913"
       r="2.7128987"
       style="clip-rule:evenodd;display:inline;fill:#0000ff;fill-opacity:1;fill-rule:evenodd;stroke:none;stroke-width:0.332729px;stroke-linecap:round;stroke-linejoin:round;stroke-miterlimit:1.5;stroke-opacity:1"
       id="circle34953"
       inkscape:label="CV1_IN" /><circle
       cx="23.870554"
       cy="29.533018"
       r="2.7128987"
       style="clip-rule:evenodd;display:inline;fill:#ff0000;fill-opacity:1;fill-rule:evenodd;stroke:none;stroke-width:0.332729px;stroke-linecap:round;stroke-linejoin:round;stroke-miterlimit:1.5;stroke-opacity:1"
       id="circle34955"
       inkscape:label="CV1_ATT" /><circle
       cx="11.063871"
       cy="-120.36443"
       r="2.7128987"
       style="clip-rule:evenodd;display:inline;fill:#0000ff;fill-opacity:1;fill-rule:evenodd;stroke:none;stroke-width:0.332729px;stroke-linecap:round;stroke-linejoin:round;stroke-miterlimit:1.5;stroke-opacity:1"
       id="circle34957"
       inkscape:label="2_IN2"
       transform="scale(1,-1)" /><circle
       cx="17.399714"
       cy="-96.158707"
       r="2.7128987"
       style="clip-rule:evenodd;display:inline;fill:#ff0000;fill-opacity:1;fill-rule:evenodd;stroke:none;stroke-width:0.332729px;stroke-linecap:round;stroke-linejoin:round;stroke-miterlimit:1.5;stroke-opacity:1"
       id="circle34959"
       inkscape:label="GAIN2"
       transform="scale(1,-1)" /><circle
       cx="11.063871"
       cy="-108.62106"
       r="2.7128987"
       style="clip-rule:evenodd;display:inline;fill:#0000ff;fill-opacity:1;fill-rule:evenodd;stroke:none;stroke-width:0.332729px;stroke-linecap:round;stroke-linejoin:round;stroke-miterlimit:1.5;stroke-opacity:1"
       id="circle34961"
       inkscape:label="2_IN1"
       transform="scale(1,-1)" /><circle
       cx="23.76589"
       cy="-113.8936"
       r="2.7128987"
       style="clip-rule:evenodd;display:inline;fill:#0000ff;fill-opacity:1;fill-rule:evenodd;stroke:none;stroke-width:0.332729px;stroke-linecap:round;stroke-linejoin:round;stroke-miterlimit:1.5;stroke-opacity:1"
       id="circle34963"
       inkscape:label="CV2_IN"
       transform="scale(1,-1)" /><circle
       cx="23.870554"
       cy="-104.78648"
       r="2.7128987"
       style="clip-rule:evenodd;display:inline;fill:#ff0000;fill-opacity:1;fill-rule:evenodd;stroke:none;stroke-width:0.332729px;stroke-linecap:round;stroke-linejoin:round;stroke-miterlimit:1.5;stroke-opacity:1"
       id="circle34965"
       inkscape:label="CV2_ATT"
       transform="scale(1,-1)" /><circle
       cx="20.754963"
       cy="67.399414"
       r="2.7128987"
       style="clip-rule:evenodd;display:inline;fill:#ff0000;fill-opacity:1;fill-rule:evenodd;stroke:none;stroke-width:0.332729px;stroke-linecap:round;stroke-linejoin:round;stroke-miterlimit:1.5;stroke-opacity:1"
       id="circle34967"
       inkscape:label="VOL" /><circle
       cx="34.121147"
       cy="60.928577"
       r="2.7128987"
       style="clip-rule:evenodd;display:inline;fill:#0000ff;fill-opacity:1;fill-rule:evenodd;stroke:none;stroke-width:0.332729px;stroke-linecap:round;stroke-linejoin:round;stroke-miterlimit:1.5;stroke-opacity:1"
       id="circle34969"
       inkscape:label="OUT1" /><circle
       cx="34.121147"
       cy="72.671951"
       r="2.7128987"
       style="clip-rule:evenodd;display:inline;fill:#0000ff;fill-opacity:1;fill-rule:evenodd;stroke:none;stroke-width:0.332729px;stroke-linecap:round;stroke-linejoin:round;stroke-miterlimit:1.5;stroke-opacity:1"
       id="circle34971"
       inkscape:label="OUT2" /><circle
       cx="34.635872"
       cy="13.344043"
       r="1.0267358"
       style="clip-rule:evenodd;display:inline;fill:#0000ff;fill-opacity:1;fill-rule:evenodd;stroke:none;stroke-width:0.125926px;stroke-linecap:round;stroke-linejoin:round;stroke-miterlimit:1.5;stroke-opacity:1"
       id="circle34973"
       inkscape:label="LIGHT_1_10" /><circle
       cx="34.635872"
       cy="42.60125"
       r="1.0267358"
       style="clip-rule:evenodd;display:inline;fill:#0000ff;fill-opacity:1;fill-rule:evenodd;stroke:none;stroke-width:0.125926px;stroke-linecap:round;stroke-linejoin:round;stroke-miterlimit:1.5;stroke-opacity:1"
       id="circle34975"
       inkscape:label="LIGHT_1_1" /><circle
       cx="34.635872"
       cy="92.184715"
       r="1.0267358"
       style="clip-rule:evenodd;display:inline;fill:#0000ff;fill-opacity:1;fill-rule:evenodd;stroke:none;stroke-width:0.125926px;stroke-linecap:round;stroke-linejoin:round;stroke-miterlimit:1.5;stroke-opacity:1"
       id="circle34977"
       inkscape:label="LIGHT_2_10" /><circle
       cx="34.635872"
       cy="121.44193"
       r="1.0267358"
       style="clip-rule:evenodd;display:inline;fill:#0000ff;fill-opacity:1;fill-rule:evenodd;stroke:none;stroke-width:0.125926px;stroke-linecap:round;stroke-linejoin:round;stroke-miterlimit:1.5;stroke-opacity:1"
       id="circle34979"
       inkscape:label="LIGHT_2_1" /></g><g
     aria-label="MUTE"
     id="text1154"
     style="font-style:italic;font-size:2.46944px;font-family:Menlo;-inkscape-font-specification:'Menlo Italic';text-align:center;text-anchor:middle;fill:#000000;stroke:#000000;stroke-width:0.352777;stroke-linecap:square;paint-order:fill markers stroke"
     transform="translate(-2.1166667,-2.1166667)"><path
       d="m 24.751113,34.619996 h 0.324355 l 0.132636,0.911572 0.499195,-0.911572 h 0.325561 l -0.350883,1.800235 h -0.224275 l 0.311092,-1.600075 -0.52331,0.958598 h -0.170016 l -0.138665,-0.958598 -0.30868,1.600075 h -0.224276 z"
       style="fill:#000000;stroke:none;stroke-width:0.352778"
       id="path1335" /><path
       d="m 26.100384,35.729317 0.21463,-1.109321 h 0.244774 l -0.215836,1.109321 q -0.0024,0.01568 -0.0096,0.04944 -0.03617,0.185691 -0.03617,0.256832 0,0.110932 0.06511,0.166398 0.06632,0.05547 0.198954,0.05547 0.107315,0 0.182074,-0.03376 0.07476,-0.03497 0.129018,-0.109726 0.02653,-0.03738 0.05306,-0.127813 0.02773,-0.09164 0.06029,-0.256832 l 0.21463,-1.109321 h 0.244774 l -0.21463,1.109321 q -0.05064,0.264067 -0.10852,0.388262 -0.05667,0.12299 -0.150723,0.198954 -0.08561,0.06752 -0.195337,0.103698 -0.109727,0.03497 -0.23754,0.03497 -0.23151,0 -0.356911,-0.108521 -0.124196,-0.10852 -0.124196,-0.30868 0,-0.04461 0.0096,-0.120579 0.01085,-0.07596 0.03256,-0.188102 z"
       style="fill:#000000;stroke:none;stroke-width:0.352778"
       id="path1337" /><path
       d="m 27.681166,34.619996 h 1.374594 l -0.03979,0.204983 h -0.565513 l -0.30868,1.595252 h -0.24598 l 0.311092,-1.595252 h -0.565512 z"
       style="fill:#000000;stroke:none;stroke-width:0.352778"
       id="path1339" /><path
       d="m 29.349971,34.619996 h 1.067118 l -0.03979,0.204983 h -0.824756 l -0.103697,0.532957 h 0.787377 l -0.03859,0.204983 H 29.40905 l -0.125401,0.652329 h 0.84646 l -0.03979,0.204983 h -1.091234 z"
       style="fill:#000000;stroke:none;stroke-width:0.352778"
       id="path1341" /></g><g
     aria-label="MUTE"
     id="text1158"
     style="font-style:italic;font-size:2.46944px;font-family:Menlo;-inkscape-font-specification:'Menlo Italic';text-align:center;text-anchor:middle;fill:#000000;stroke:#000000;stroke-width:0.352777;stroke-linecap:square;paint-order:fill markers stroke"
     transform="translate(-2.1166667,0.52916667)"><path
       d="m 24.751113,99.631787 h 0.324355 l 0.132636,0.911573 0.499195,-0.911573 h 0.325561 l -0.350883,1.800233 h -0.224275 l 0.311092,-1.600073 -0.52331,0.958603 h -0.170016 l -0.138665,-0.958603 -0.30868,1.600073 h -0.224276 z"
       style="fill:#000000;stroke:none;stroke-width:0.352778"
       id="path1344" /><path
       d="m 26.100384,100.74111 0.21463,-1.109323 h 0.244774 l -0.215836,1.109323 q -0.0024,0.0157 -0.0096,0.0494 -0.03617,0.18569 -0.03617,0.25683 0,0.11093 0.06511,0.1664 0.06632,0.0555 0.198954,0.0555 0.107315,0 0.182074,-0.0338 0.07476,-0.035 0.129018,-0.10973 0.02653,-0.0374 0.05306,-0.12781 0.02773,-0.0916 0.06029,-0.25683 l 0.21463,-1.109323 h 0.244774 l -0.21463,1.109323 q -0.05064,0.26406 -0.10852,0.38826 -0.05667,0.12299 -0.150723,0.19895 -0.08561,0.0675 -0.195337,0.1037 -0.109727,0.035 -0.23754,0.035 -0.23151,0 -0.356911,-0.10852 -0.124196,-0.10852 -0.124196,-0.30868 0,-0.0446 0.0096,-0.12058 0.01085,-0.076 0.03256,-0.1881 z"
       style="fill:#000000;stroke:none;stroke-width:0.352778"
       id="path1346" /><path
       d="m 27.681166,99.631787 h 1.374594 l -0.03979,0.204984 h -0.565513 l -0.30868,1.595249 h -0.24598 l 0.311092,-1.595249 h -0.565512 z"
       style="fill:#000000;stroke:none;stroke-width:0.352778"
       id="path1348" /><path
       d="m 29.349971,99.631787 h 1.067118 l -0.03979,0.204984 h -0.824756 l -0.103697,0.532959 h 0.787377 l -0.03859,0.20498 H 29.40905 l -0.125401,0.65233 h 0.84646 l -0.03979,0.20498 h -1.091234 z"
       style="fill:#000000;stroke:none;stroke-width:0.352778"
       id="path1350" /></g></svg>
