<?xml version="1.0" encoding="UTF-8" standalone="no"?>
<!-- Created with Inkscape (http://www.inkscape.org/) -->

<svg
   width="50.799999mm"
   height="128.5mm"
   viewBox="0 0 50.800003 128.50002"
   version="1.1"
   id="svg8"
   inkscape:version="1.2 (dc2aeda, 2022-05-15)"
   sodipodi:docname="Nona-dark.svg"
   xml:space="preserve"
   xmlns:inkscape="http://www.inkscape.org/namespaces/inkscape"
   xmlns:sodipodi="http://sodipodi.sourceforge.net/DTD/sodipodi-0.dtd"
   xmlns="http://www.w3.org/2000/svg"
   xmlns:svg="http://www.w3.org/2000/svg"
   xmlns:rdf="http://www.w3.org/1999/02/22-rdf-syntax-ns#"
   xmlns:cc="http://creativecommons.org/ns#"
   xmlns:dc="http://purl.org/dc/elements/1.1/"
   xmlns:serif="http://www.serif.com/"><defs
     id="defs2"><linearGradient
       id="_Linear1"
       x1="0"
       y1="0"
       x2="1"
       y2="-0.0028738601"
       gradientUnits="userSpaceOnUse"
       gradientTransform="matrix(75.07254,292.27101,-293.02254,74.879903,36.973994,42.144002)"><stop
         offset="0"
         style="stop-color:#e6e6e6;stop-opacity:1"
         id="stop1" /><stop
         offset="1"
         style="stop-color:#e6e6e6;stop-opacity:0"
         id="stop2" /></linearGradient></defs><sodipodi:namedview
     id="base"
     pagecolor="#ffffff"
     bordercolor="#666666"
     borderopacity="1.0"
     inkscape:pageopacity="0.0"
     inkscape:pageshadow="2"
     inkscape:zoom="1.3289991"
     inkscape:cx="37.622298"
     inkscape:cy="242.2876"
     inkscape:document-units="mm"
     inkscape:current-layer="Layer-1"
     showgrid="false"
     units="mm"
     inkscape:snap-bbox="true"
     inkscape:snap-page="true"
     inkscape:bbox-nodes="false"
     inkscape:snap-bbox-edge-midpoints="false"
     inkscape:window-width="1392"
     inkscape:window-height="916"
     inkscape:window-x="120"
     inkscape:window-y="38"
     inkscape:window-maximized="0"
     inkscape:snap-bbox-midpoints="true"
     inkscape:snap-nodes="false"
     inkscape:showpageshadow="2"
     inkscape:pagecheckerboard="0"
     inkscape:deskcolor="#d1d1d1"
     showguides="true" /><metadata
     id="metadata5"><rdf:RDF><cc:Work
         rdf:about=""><dc:format>image/svg+xml</dc:format><dc:type
           rdf:resource="http://purl.org/dc/dcmitype/StillImage" /></cc:Work></rdf:RDF></metadata><g
     id="Layer-1"
     serif:id="Layer 1"
     style="clip-rule:evenodd;fill-rule:evenodd;stroke-linejoin:round;stroke-miterlimit:1.5"
     transform="matrix(0.35618918,0,0,0.35618918,-0.39015967,-0.81904413)"><rect
       id="rect1"
       x="0.52905142"
       y="0.79500002"
       width="143.75348"
       height="364.815"
       style="fill:#202020;stroke-width:0.999998" /><path
       id="path20"
       style="opacity:1;fill:none;stroke:#b67d53;stroke-width:0.9904225;stroke-opacity:1;stroke-dasharray:none"
       d="m 120.75321,36.160552 c -16.19308,2.335245 -33.315319,3.587178 -51.026884,3.587178 -16.630209,0 -32.740859,-1.10373 -48.050631,-3.171606"
       sodipodi:nodetypes="csc" /><path
       id="path22"
       style="opacity:1;fill:none;stroke:#b67d53;stroke-width:0.990422;stroke-dasharray:none;stroke-opacity:1"
       d="m 120.75321,71.932044 c -16.19308,2.335245 -33.315319,3.587178 -51.026884,3.587178 -16.630209,0 -32.740859,-1.10373 -48.050631,-3.171606"
       sodipodi:nodetypes="csc" /><path
       id="path23"
       style="opacity:1;fill:none;stroke:#b67d53;stroke-width:0.990422;stroke-dasharray:none;stroke-opacity:1"
       d="m 120.75321,107.70354 c -16.19308,2.33524 -33.315319,3.58717 -51.026884,3.58717 -16.630209,0 -32.740859,-1.10373 -48.050631,-3.1716"
       sodipodi:nodetypes="csc" /><path
       id="path24"
       style="opacity:1;fill:none;stroke:#b67d53;stroke-width:0.990422;stroke-dasharray:none;stroke-opacity:1"
       d="m 120.75321,143.47503 c -16.19308,2.33524 -33.315319,3.58718 -51.026884,3.58718 -16.630209,0 -32.740859,-1.10373 -48.050631,-3.17161"
       sodipodi:nodetypes="csc" /><path
       id="path25"
       style="opacity:1;fill:none;stroke:#b67d53;stroke-width:0.990422;stroke-dasharray:none;stroke-opacity:1"
       d="m 120.75321,179.80545 c -16.19308,2.33524 -33.315319,3.58718 -51.026884,3.58718 -16.630209,0 -32.740859,-1.10373 -48.050631,-3.17161"
       sodipodi:nodetypes="csc" /><path
       id="path26"
       style="opacity:1;fill:none;stroke:#b67d53;stroke-width:0.990422;stroke-dasharray:none;stroke-opacity:1"
       d="m 120.75321,215.57694 c -16.19308,2.33525 -33.315319,3.58718 -51.026884,3.58718 -16.630209,0 -32.740859,-1.10373 -48.050631,-3.17161"
       sodipodi:nodetypes="csc" /><path
       id="path27"
       style="opacity:1;fill:none;stroke:#b67d53;stroke-width:0.990422;stroke-dasharray:none;stroke-opacity:1"
       d="m 120.75321,251.34844 c -16.19308,2.33524 -33.315319,3.58717 -51.026884,3.58717 -16.630209,0 -32.740859,-1.10373 -48.050631,-3.1716"
       sodipodi:nodetypes="csc" /><path
       id="path28"
       style="opacity:1;fill:none;stroke:#b67d53;stroke-width:0.990422;stroke-dasharray:none;stroke-opacity:1"
       d="m 120.75321,287.11993 c -16.19308,2.33524 -33.315319,3.58718 -51.026884,3.58718 -16.630209,0 -32.740859,-1.10373 -48.050631,-3.17161"
       sodipodi:nodetypes="csc" /><path
       id="path29"
       style="opacity:1;fill:none;stroke:#b67d53;stroke-width:0.990422;stroke-dasharray:none;stroke-opacity:1"
       d="m 120.75321,325.12714 c -16.19308,2.33524 -33.315319,3.58718 -51.026884,3.58718 -16.630209,0 -32.740859,-1.10373 -48.050631,-3.17161"
       sodipodi:nodetypes="csc" /><path
       id="path21"
       style="opacity:1;fill:none;stroke:#b67d53;stroke-width:0.990422;stroke-dasharray:none;stroke-opacity:1"
       d="m 120.75321,71.932044 c -16.19308,2.335245 -33.315319,3.587178 -51.026884,3.587178 -16.630209,0 -32.740859,-1.10373 -48.050631,-3.171606"
       sodipodi:nodetypes="csc" /><rect
       style="display:inline;fill:#333333;fill-opacity:1;stroke:#d08c59;stroke-width:0.990417;stroke-dasharray:none;stroke-opacity:1"
       id="rect49"
       width="30.516254"
       height="332.60959"
       x="106.76095"
       y="19.363462"
       rx="14.037486"
       ry="14.037489" /><g
       id="g3"
       transform="translate(-1.5477091)"
       style="display:inline"><path
         id="path128"
         d="m 65.011,354.825 c 0.168,0.356 0.223,0.713 0.164,1.073 h -1.177 c -0.018,-0.276 -0.072,-0.484 -0.164,-0.624 -0.161,-0.25 -0.452,-0.375 -0.872,-0.375 -0.428,0 -0.803,0.176 -1.123,0.529 -0.321,0.352 -0.548,0.85 -0.682,1.495 -0.135,0.645 -0.106,1.127 0.089,1.449 0.194,0.321 0.492,0.481 0.894,0.481 0.413,0 0.757,-0.138 1.032,-0.414 0.151,-0.147 0.296,-0.37 0.436,-0.666 h 1.166 c -0.232,0.627 -0.599,1.136 -1.099,1.529 -0.501,0.391 -1.079,0.588 -1.734,0.588 -0.81,0 -1.392,-0.265 -1.746,-0.795 -0.352,-0.533 -0.43,-1.263 -0.237,-2.192 0.208,-1.003 0.633,-1.777 1.273,-2.32 0.558,-0.473 1.191,-0.71 1.899,-0.71 0.948,0 1.574,0.318 1.881,0.952 z"
         style="fill:#ffffff;fill-rule:nonzero" /><path
         id="path129"
         d="m 67.617,358.347 2.145,-4.364 h 1.223 l -3.119,5.746 h -1.112 l -0.708,-5.746 h 1.259 z"
         style="fill:#ffffff;fill-rule:nonzero" /><path
         id="path130"
         d="m 75.43,355.519 -0.165,0.784 h -0.713 l -0.712,3.426 h -1.085 l 0.712,-3.426 h -0.609 l 0.164,-0.784 h 0.597 l 0.056,-0.273 c 0.096,-0.455 0.236,-0.768 0.421,-0.94 0.212,-0.254 0.619,-0.382 1.223,-0.382 0.069,0 0.131,0.002 0.186,0.006 0.055,0.004 0.131,0.01 0.228,0.017 l -0.191,0.906 c -0.059,-0.008 -0.16,-0.014 -0.302,-0.018 -0.143,-0.004 -0.25,0.028 -0.32,0.097 -0.07,0.069 -0.112,0.145 -0.128,0.228 -0.018,0.084 -0.043,0.203 -0.077,0.359 z"
         style="fill:#ffffff;fill-rule:nonzero" /><path
         id="path131"
         d="m 77.976,359.13 c -0.012,0.013 -0.046,0.052 -0.1,0.117 -0.053,0.065 -0.113,0.121 -0.179,0.171 -0.204,0.156 -0.392,0.262 -0.564,0.319 -0.171,0.057 -0.364,0.086 -0.579,0.086 -0.616,0 -0.985,-0.225 -1.104,-0.678 -0.067,-0.249 -0.049,-0.617 0.053,-1.103 l 0.532,-2.562 h 1.115 l -0.531,2.562 c -0.051,0.242 -0.061,0.423 -0.031,0.546 0.054,0.216 0.226,0.324 0.516,0.324 0.372,0 0.659,-0.154 0.861,-0.461 0.107,-0.166 0.189,-0.386 0.245,-0.658 l 0.481,-2.313 h 1.104 l -0.883,4.249 h -1.058 z"
         style="fill:#ffffff;fill-rule:nonzero" /><path
         id="path132"
         d="m 83.159,357.146 c 0.048,-0.224 0.055,-0.396 0.019,-0.515 -0.061,-0.219 -0.241,-0.328 -0.542,-0.328 -0.37,0 -0.657,0.16 -0.86,0.479 -0.108,0.17 -0.188,0.386 -0.241,0.648 l -0.478,2.299 h -1.085 l 0.882,-4.242 h 1.052 l -0.13,0.62 c 0.185,-0.217 0.351,-0.375 0.497,-0.471 0.259,-0.172 0.562,-0.257 0.905,-0.257 0.431,0 0.759,0.114 0.985,0.345 0.225,0.23 0.283,0.611 0.173,1.144 l -0.596,2.861 h -1.116 z"
         style="fill:#ffffff;fill-rule:nonzero" /><path
         id="path133"
         d="m 86.079,358.394 -0.274,1.335 h -1.071 l 1.193,-5.727 h 1.07 l -0.647,3.097 1.69,-1.6 h 1.35 l -1.797,1.627 0.974,2.603 h -1.315 l -0.618,-1.816 z"
         style="fill:#ffffff;fill-rule:nonzero" /><path
         id="path134"
         d="M 38.954,356.882 H 57.546"
         style="fill:none;stroke:#d08c59;stroke-width:0.64px;stroke-linecap:round" /><path
         id="path135"
         d="m 90.361,356.882 h 18.592"
         style="fill:none;stroke:#d08c59;stroke-width:0.64px;stroke-linecap:round" /></g><path
       d="m 56.257323,7.6498806 h 1.980837 l 2.042739,9.5095664 1.849297,-9.5095664 h 1.508841 L 61.387382,19.202186 H 59.406545 L 57.363806,9.6926193 55.506771,19.202186 H 54.005668 Z M 67.47691,18.157604 q 0.6577,0 1.21481,-0.39462 0.557111,-0.39462 0.92078,-1.129696 0.572586,-1.121959 0.928518,-2.715914 0.355932,-1.593955 0.355932,-3.064108 0,-1.0987457 -0.410096,-1.6171677 -0.402357,-0.52616 -1.253498,-0.52616 -0.6577,0 -1.207073,0.39462 -0.549373,0.39462 -0.913043,1.1296957 -0.588061,1.137434 -0.943992,2.715914 -0.355932,1.57848 -0.355932,3.048633 0,1.106483 0.402358,1.632643 0.410095,0.52616 1.261236,0.52616 z m 5.021732,-6.847817 q 0,0.851141 -0.177966,1.849297 -0.170228,0.998157 -0.502947,2.050477 -0.224391,0.711863 -0.487471,1.276711 -0.255343,0.564848 -0.557111,1.02137 -0.680913,0.982681 -1.524316,1.454677 -0.843404,0.464259 -1.965362,0.464259 -1.555267,0 -2.305819,-0.951731 -0.750552,-0.95173 -0.750552,-2.932568 0,-0.858878 0.162491,-1.841559 0.170228,-0.990419 0.502947,-2.042739 0.224392,-0.711864 0.479734,-1.276712 0.26308,-0.5648477 0.564848,-1.0213687 0.680913,-0.9826807 1.524317,-1.4469397 0.843403,-0.471996 1.965362,-0.471996 1.563004,0 2.313556,0.95173 0.758289,0.9439927 0.758289,2.9170924 z m 2.839716,-3.6599064 h 1.980838 l 2.042739,9.5095664 1.849297,-9.5095664 h 1.508841 L 80.468418,19.202186 H 78.48758 L 76.444842,9.6926193 74.587807,19.202186 h -1.501104 z m 13.022459,1.2999247 -2.816503,5.9889377 h 3.327188 z M 87.618003,7.6498806 h 1.903461 l 1.284449,11.5523054 h -1.555267 l -0.270817,-3.009944 h -4.023576 l -1.423727,3.009944 h -1.67907 z"
       id="text1"
       style="font-style:italic;font-size:15.8467px;font-family:Menlo;-inkscape-font-specification:'Menlo Italic';display:inline;fill:#ffffff;stroke-width:0.742817"
       aria-label="NONA" /><path
       d="m 47.403205,347.80313 q -0.294515,0.20988 -0.643194,0.31821 -0.348679,0.10494 -0.744752,0.10494 -0.785374,0 -1.208529,-0.45362 -0.419769,-0.457 -0.419769,-1.29993 0,-0.30467 0.05416,-0.64658 0.05755,-0.34529 0.165877,-0.72105 0.118483,-0.39607 0.277589,-0.71429 0.159106,-0.32159 0.348679,-0.5484 0.36222,-0.44008 0.798915,-0.64997 0.440081,-0.20988 1.00203,-0.20988 0.270818,0 0.538252,0.0711 0.270819,0.0711 0.531482,0.2065 l -0.138795,0.70074 q -0.22004,-0.21327 -0.463777,-0.31821 -0.240352,-0.10495 -0.514556,-0.10495 -0.331753,0 -0.622883,0.14218 -0.29113,0.1388 -0.521326,0.413 -0.14895,0.17604 -0.280974,0.44008 -0.132024,0.26405 -0.233581,0.59242 -0.115098,0.38592 -0.176033,0.72444 -0.05755,0.33852 -0.05755,0.61273 0,0.57887 0.267434,0.8937 0.267433,0.31483 0.758292,0.31483 0.230196,0 0.412999,-0.0609 0.182803,-0.0643 0.308056,-0.1828 l 0.257278,-1.3304 h -0.734596 l 0.101557,-0.56195 h 1.387946 z m 3.381849,-4.16045 -1.232225,2.62017 h 1.455651 z m -0.324982,-0.56872 h 0.832768 l 0.561948,5.05415 h -0.680432 l -0.118483,-1.31685 h -1.760322 l -0.622883,1.31685 h -0.734596 z m 3.18212,0 h 2.809745 l -0.111713,0.57549 H 55.27726 l -0.754907,3.90317 h 1.062964 l -0.111713,0.57549 H 52.66386 l 0.111712,-0.57549 h 1.059579 l 0.758292,-3.90317 H 53.53048 Z m 3.967495,0 h 0.86662 l 0.893702,4.16045 0.809071,-4.16045 h 0.660121 l -0.985104,5.05415 h -0.86662 l -0.893701,-4.16045 -0.812457,4.16045 h -0.656735 z"
       id="text4"
       style="font-style:italic;font-size:6.93296px;font-family:Menlo;-inkscape-font-specification:'Menlo Italic';fill:#ffffff;stroke-width:0.742817"
       aria-label="GAIN" /><path
       d="m 75.626992,347.67111 q 0.287745,0 0.531482,-0.17265 0.243737,-0.17265 0.402843,-0.49425 0.250507,-0.49085 0.406228,-1.18821 0.155721,-0.69736 0.155721,-1.34056 0,-0.4807 -0.179418,-0.70751 -0.176032,-0.2302 -0.548408,-0.2302 -0.287745,0 -0.528096,0.17265 -0.240352,0.17265 -0.399458,0.49425 -0.257278,0.49763 -0.412998,1.18821 -0.155721,0.69059 -0.155721,1.33379 0,0.48408 0.176032,0.71428 0.179417,0.2302 0.551793,0.2302 z m 2.197017,-2.99594 q 0,0.37238 -0.07786,0.80907 -0.07447,0.4367 -0.22004,0.89709 -0.09817,0.31144 -0.21327,0.55857 -0.111713,0.24712 -0.243737,0.44685 -0.297901,0.42992 -0.666891,0.63642 -0.368991,0.20311 -0.85985,0.20311 -0.680432,0 -1.0088,-0.41638 -0.328367,-0.41638 -0.328367,-1.283 0,-0.37576 0.07109,-0.80569 0.07448,-0.43331 0.22004,-0.8937 0.09817,-0.31144 0.209884,-0.55856 0.115098,-0.24713 0.247123,-0.44686 0.2979,-0.42992 0.666891,-0.63303 0.36899,-0.2065 0.859849,-0.2065 0.683818,0 1.012185,0.41638 0.331753,0.413 0.331753,1.27623 z m 1.574134,-1.60121 h 2.975621 l -0.111712,0.57549 h -2.288419 l -0.29113,1.4895 h 2.071763 l -0.108327,0.57549 H 79.57079 l -0.470547,2.41367 H 78.41304 Z m 4.173994,0 h 2.975621 l -0.111712,0.57549 h -2.288419 l -0.29113,1.4895 h 2.071764 l -0.108328,0.57549 h -2.075149 l -0.470547,2.41367 h -0.687203 z m 6.760314,0.17264 -0.132025,0.69398 q -0.274204,-0.19973 -0.568719,-0.30129 -0.294515,-0.10156 -0.609342,-0.10156 -0.558564,0 -0.910628,0.27759 -0.352065,0.27759 -0.352065,0.70752 0,0.24035 0.165877,0.3893 0.165876,0.14895 0.602572,0.28436 l 0.409613,0.13202 q 0.551793,0.16927 0.805686,0.45363 0.257278,0.28097 0.257278,0.71767 0,0.79553 -0.561949,1.26269 -0.561949,0.46377 -1.533511,0.46377 -0.352065,0 -0.693974,-0.0779 -0.338523,-0.0745 -0.677046,-0.22681 l 0.138794,-0.70751 q 0.331753,0.23358 0.670277,0.34529 0.341908,0.11172 0.721055,0.11172 0.558563,0 0.907242,-0.2979 0.348679,-0.29791 0.348679,-0.75491 0,-0.27759 -0.14895,-0.42993 -0.14895,-0.15233 -0.599186,-0.29113 l -0.341909,-0.11171 q -0.622883,-0.19634 -0.87339,-0.44347 -0.247123,-0.2505 -0.247123,-0.66012 0,-0.74813 0.558564,-1.22207 0.558564,-0.47731 1.459036,-0.47731 0.270819,0 0.57549,0.0677 0.308056,0.0677 0.629654,0.19634 z m 1.45565,-0.17264 h 2.995933 l -0.111713,0.57549 h -2.3155 l -0.29113,1.49627 h 2.210558 l -0.108328,0.57549 h -2.213943 l -0.352064,1.83141 h 2.376434 l -0.111713,0.57549 h -3.063637 z m 3.662824,0 h 3.859171 l -0.11172,0.57549 h -1.587671 l -0.86662,4.47866 h -0.690588 l 0.87339,-4.47866 h -1.587675 z"
       id="text5"
       style="font-style:italic;font-size:6.93296px;font-family:Menlo;-inkscape-font-specification:'Menlo Italic';fill:#ffffff;stroke-width:0.742817"
       aria-label="OFFSET" /><path
       style="font-style:italic;font-weight:bold;font-size:3.175px;font-family:Menlo;-inkscape-font-specification:'Menlo Bold Italic';text-align:center;text-anchor:middle;display:inline;fill:#ffffff;stroke-width:0.990423"
       d="m 117.51689,343.19826 q 0,-0.52231 -0.17406,-0.78346 -0.17407,-0.2611 -0.52666,-0.2611 -0.25689,0 -0.47441,0.15666 -0.21758,0.15244 -0.37433,0.45265 -0.0957,0.16985 -0.19147,0.45265 -0.0915,0.27851 -0.19147,0.67897 -0.12634,0.50055 -0.19147,0.93576 -0.0651,0.4309 -0.0651,0.75735 0,0.52228 0.17406,0.77908 0.17406,0.25689 0.52666,0.25689 0.25688,0 0.47006,-0.15245 0.21758,-0.15666 0.37864,-0.45703 0.10023,-0.19147 0.19597,-0.47441 0.10023,-0.28726 0.18726,-0.6485 0.12634,-0.50052 0.19147,-0.93142 0.0654,-0.43525 0.0654,-0.76167 z m -3.51243,2.41559 q 0,-0.87049 0.21758,-1.76274 0.21758,-0.89225 0.58758,-1.56254 0.33513,-0.60934 0.87917,-0.93577 0.54406,-0.33078 1.22306,-0.33078 0.93576,0 1.42758,0.54842 0.4962,0.54839 0.4962,1.58427 0,0.8792 -0.21337,1.78015 -0.21337,0.8966 -0.57888,1.55384 -0.33948,0.61369 -0.8879,0.94447 -0.54404,0.33078 -1.22303,0.33078 -0.94447,0 -1.43631,-0.54839 -0.49182,-0.55277 -0.49182,-1.60171 z m 5.39702,-0.37432 0.80087,-4.09998 h 1.28395 l -0.86611,4.42206 q 0,0.008 -0.006,0.0253 -0.0306,0.20467 -0.0306,0.29597 0,0.35689 0.20017,0.55274 0.20018,0.19596 0.56583,0.19596 0.47006,0 0.74861,-0.26559 0.28292,-0.26559 0.39171,-0.80521 l 0.86614,-4.42206 h 1.28398 l -0.80522,4.09998 q -0.15245,0.78346 -0.32643,1.18822 -0.17406,0.40043 -0.4483,0.67464 -0.33078,0.32207 -0.78343,0.49182 -0.45265,0.16985 -0.99672,0.16985 -0.95317,0 -1.46677,-0.4309 -0.51358,-0.43089 -0.51358,-1.22738 0,-0.18277 0.0225,-0.40043 0.0253,-0.21758 0.0783,-0.46571 z m 7.76043,2.39819 h -1.27963 l 1.04023,-5.37526 h -1.66698 l 0.21337,-1.12291 h 4.60924 l -0.22208,1.12291 h -1.64957 z"
       id="text2-6"
       aria-label="OUT" /><g
       id="g2"
       style="clip-rule:evenodd;fill-rule:evenodd;stroke-linecap:square;stroke-linejoin:round;stroke-miterlimit:1.5"
       transform="matrix(0,0.98830403,-0.98830403,0,341.62463,132.68299)"><path
         d="m 177.949,220.35 4.5,2.25 -4.5,2.25 z"
         style="fill:#d08c59"
         id="path54" /><path
         d="m 171.389,222.6 h 7.46"
         style="fill:none;stroke:#d08c59;stroke-width:1px;stroke-linejoin:miter"
         id="path55" /></g><g
       id="g7"
       style="clip-rule:evenodd;fill-rule:evenodd;stroke-linecap:square;stroke-linejoin:round;stroke-miterlimit:1.5"
       transform="matrix(0,0.98830403,-0.98830403,0,341.62463,96.352569)"><path
         d="m 177.949,220.35 4.5,2.25 -4.5,2.25 z"
         style="fill:#d08c59"
         id="path6" /><path
         d="m 171.389,222.6 h 7.46"
         style="fill:none;stroke:#d08c59;stroke-width:1px;stroke-linejoin:miter"
         id="path7" /></g><g
       id="g9"
       style="clip-rule:evenodd;fill-rule:evenodd;stroke-linecap:square;stroke-linejoin:round;stroke-miterlimit:1.5"
       transform="matrix(0,0.98830403,-0.98830403,0,341.62463,60.581077)"><path
         d="m 177.949,220.35 4.5,2.25 -4.5,2.25 z"
         style="fill:#d08c59"
         id="path8" /><path
         d="m 171.389,222.6 h 7.46"
         style="fill:none;stroke:#d08c59;stroke-width:1px;stroke-linejoin:miter"
         id="path9" /></g><g
       id="g11"
       style="clip-rule:evenodd;fill-rule:evenodd;stroke-linecap:square;stroke-linejoin:round;stroke-miterlimit:1.5"
       transform="matrix(0,0.98830403,-0.98830403,0,341.62463,24.250656)"><path
         d="m 177.949,220.35 4.5,2.25 -4.5,2.25 z"
         style="fill:#d08c59"
         id="path10" /><path
         d="m 171.389,222.6 h 7.46"
         style="fill:none;stroke:#d08c59;stroke-width:1px;stroke-linejoin:miter"
         id="path11" /></g><g
       id="g13"
       style="clip-rule:evenodd;fill-rule:evenodd;stroke-linecap:square;stroke-linejoin:round;stroke-miterlimit:1.5"
       transform="matrix(0,0.98830403,-0.98830403,0,341.62463,-12.079765)"><path
         d="m 177.949,220.35 4.5,2.25 -4.5,2.25 z"
         style="fill:#d08c59"
         id="path12" /><path
         d="m 171.389,222.6 h 7.46"
         style="fill:none;stroke:#d08c59;stroke-width:1px;stroke-linejoin:miter"
         id="path13" /></g><g
       id="g15"
       style="clip-rule:evenodd;fill-rule:evenodd;stroke-linecap:square;stroke-linejoin:round;stroke-miterlimit:1.5"
       transform="matrix(0,0.98830403,-0.98830403,0,341.62463,-48.410186)"><path
         d="m 177.949,220.35 4.5,2.25 -4.5,2.25 z"
         style="fill:#d08c59"
         id="path14" /><path
         d="m 171.389,222.6 h 7.46"
         style="fill:none;stroke:#d08c59;stroke-width:1px;stroke-linejoin:miter"
         id="path15" /></g><g
       id="g17"
       style="clip-rule:evenodd;fill-rule:evenodd;stroke-linecap:square;stroke-linejoin:round;stroke-miterlimit:1.5"
       transform="matrix(0,0.98830403,-0.98830403,0,341.62463,-84.181678)"><path
         d="m 177.949,220.35 4.5,2.25 -4.5,2.25 z"
         style="fill:#d08c59"
         id="path16" /><path
         d="m 171.389,222.6 h 7.46"
         style="fill:none;stroke:#d08c59;stroke-width:1px;stroke-linejoin:miter"
         id="path17" /></g><g
       id="g19"
       style="clip-rule:evenodd;fill-rule:evenodd;stroke-linecap:square;stroke-linejoin:round;stroke-miterlimit:1.5"
       transform="matrix(0,0.98830403,-0.98830403,0,341.62463,-120.5121)"><path
         d="m 177.949,220.35 4.5,2.25 -4.5,2.25 z"
         style="fill:#d08c59"
         id="path18" /><path
         d="m 171.389,222.6 h 7.46"
         style="fill:none;stroke:#d08c59;stroke-width:1px;stroke-linejoin:miter"
         id="path19" /></g></g></svg>
