<?xml version="1.0" encoding="UTF-8" standalone="no"?>
<!-- Created with Inkscape (http://www.inkscape.org/) -->

<svg
   width="50.799999mm"
   height="128.5mm"
   viewBox="0 0 50.800003 128.50002"
   version="1.1"
   id="svg8"
   inkscape:version="1.2 (dc2aeda, 2022-05-15)"
   sodipodi:docname="Onion.svg"
   xml:space="preserve"
   xmlns:inkscape="http://www.inkscape.org/namespaces/inkscape"
   xmlns:sodipodi="http://sodipodi.sourceforge.net/DTD/sodipodi-0.dtd"
   xmlns="http://www.w3.org/2000/svg"
   xmlns:svg="http://www.w3.org/2000/svg"
   xmlns:rdf="http://www.w3.org/1999/02/22-rdf-syntax-ns#"
   xmlns:cc="http://creativecommons.org/ns#"
   xmlns:dc="http://purl.org/dc/elements/1.1/"
   xmlns:serif="http://www.serif.com/"><defs
     id="defs2"><linearGradient
       id="_Linear1"
       x1="0"
       y1="0"
       x2="1"
       y2="-0.0028738601"
       gradientUnits="userSpaceOnUse"
       gradientTransform="matrix(75.07254,292.27101,-293.02254,74.879903,36.973994,42.144002)"><stop
         offset="0"
         style="stop-color:#e6e6e6;stop-opacity:1"
         id="stop1" /><stop
         offset="1"
         style="stop-color:#e6e6e6;stop-opacity:0"
         id="stop2" /></linearGradient></defs><sodipodi:namedview
     id="base"
     pagecolor="#ffffff"
     bordercolor="#666666"
     borderopacity="1.0"
     inkscape:pageopacity="0.0"
     inkscape:pageshadow="2"
     inkscape:zoom="1.4700979"
     inkscape:cx="122.10071"
     inkscape:cy="244.88165"
     inkscape:document-units="mm"
     inkscape:current-layer="Layer-1"
     showgrid="false"
     units="mm"
     inkscape:snap-bbox="true"
     inkscape:snap-page="true"
     inkscape:bbox-nodes="false"
     inkscape:snap-bbox-edge-midpoints="false"
     inkscape:window-width="1392"
     inkscape:window-height="916"
     inkscape:window-x="49"
     inkscape:window-y="38"
     inkscape:window-maximized="0"
     inkscape:snap-bbox-midpoints="true"
     inkscape:snap-nodes="false"
     inkscape:showpageshadow="2"
     inkscape:pagecheckerboard="0"
     inkscape:deskcolor="#d1d1d1"
     showguides="true" /><metadata
     id="metadata5"><rdf:RDF><cc:Work
         rdf:about=""><dc:format>image/svg+xml</dc:format><dc:type
           rdf:resource="http://purl.org/dc/dcmitype/StillImage" /></cc:Work></rdf:RDF></metadata><g
     id="Layer-1"
     serif:id="Layer 1"
     style="clip-rule:evenodd;fill-rule:evenodd;stroke-linejoin:round;stroke-miterlimit:1.5"
     transform="matrix(0.35618918,0,0,0.35618918,-0.39015967,-0.81904413)"><rect
       id="rect1"
       x="0.52905142"
       y="0.79500002"
       width="143.75348"
       height="364.815"
       style="fill:#e5e5e5;stroke-width:0.999998;fill-opacity:1" /><g
       id="g3"
       transform="translate(-1.5477091)"
       style="fill:#000000"><path
         id="path128"
         d="m 65.011,354.825 c 0.168,0.356 0.223,0.713 0.164,1.073 h -1.177 c -0.018,-0.276 -0.072,-0.484 -0.164,-0.624 -0.161,-0.25 -0.452,-0.375 -0.872,-0.375 -0.428,0 -0.803,0.176 -1.123,0.529 -0.321,0.352 -0.548,0.85 -0.682,1.495 -0.135,0.645 -0.106,1.127 0.089,1.449 0.194,0.321 0.492,0.481 0.894,0.481 0.413,0 0.757,-0.138 1.032,-0.414 0.151,-0.147 0.296,-0.37 0.436,-0.666 h 1.166 c -0.232,0.627 -0.599,1.136 -1.099,1.529 -0.501,0.391 -1.079,0.588 -1.734,0.588 -0.81,0 -1.392,-0.265 -1.746,-0.795 -0.352,-0.533 -0.43,-1.263 -0.237,-2.192 0.208,-1.003 0.633,-1.777 1.273,-2.32 0.558,-0.473 1.191,-0.71 1.899,-0.71 0.948,0 1.574,0.318 1.881,0.952 z"
         style="fill:#000000;fill-rule:nonzero" /><path
         id="path129"
         d="m 67.617,358.347 2.145,-4.364 h 1.223 l -3.119,5.746 h -1.112 l -0.708,-5.746 h 1.259 z"
         style="fill:#000000;fill-rule:nonzero" /><path
         id="path130"
         d="m 75.43,355.519 -0.165,0.784 h -0.713 l -0.712,3.426 h -1.085 l 0.712,-3.426 h -0.609 l 0.164,-0.784 h 0.597 l 0.056,-0.273 c 0.096,-0.455 0.236,-0.768 0.421,-0.94 0.212,-0.254 0.619,-0.382 1.223,-0.382 0.069,0 0.131,0.002 0.186,0.006 0.055,0.004 0.131,0.01 0.228,0.017 l -0.191,0.906 c -0.059,-0.008 -0.16,-0.014 -0.302,-0.018 -0.143,-0.004 -0.25,0.028 -0.32,0.097 -0.07,0.069 -0.112,0.145 -0.128,0.228 -0.018,0.084 -0.043,0.203 -0.077,0.359 z"
         style="fill:#000000;fill-rule:nonzero" /><path
         id="path131"
         d="m 77.976,359.13 c -0.012,0.013 -0.046,0.052 -0.1,0.117 -0.053,0.065 -0.113,0.121 -0.179,0.171 -0.204,0.156 -0.392,0.262 -0.564,0.319 -0.171,0.057 -0.364,0.086 -0.579,0.086 -0.616,0 -0.985,-0.225 -1.104,-0.678 -0.067,-0.249 -0.049,-0.617 0.053,-1.103 l 0.532,-2.562 h 1.115 l -0.531,2.562 c -0.051,0.242 -0.061,0.423 -0.031,0.546 0.054,0.216 0.226,0.324 0.516,0.324 0.372,0 0.659,-0.154 0.861,-0.461 0.107,-0.166 0.189,-0.386 0.245,-0.658 l 0.481,-2.313 h 1.104 l -0.883,4.249 h -1.058 z"
         style="fill:#000000;fill-rule:nonzero" /><path
         id="path132"
         d="m 83.159,357.146 c 0.048,-0.224 0.055,-0.396 0.019,-0.515 -0.061,-0.219 -0.241,-0.328 -0.542,-0.328 -0.37,0 -0.657,0.16 -0.86,0.479 -0.108,0.17 -0.188,0.386 -0.241,0.648 l -0.478,2.299 h -1.085 l 0.882,-4.242 h 1.052 l -0.13,0.62 c 0.185,-0.217 0.351,-0.375 0.497,-0.471 0.259,-0.172 0.562,-0.257 0.905,-0.257 0.431,0 0.759,0.114 0.985,0.345 0.225,0.23 0.283,0.611 0.173,1.144 l -0.596,2.861 h -1.116 z"
         style="fill:#000000;fill-rule:nonzero" /><path
         id="path133"
         d="m 86.079,358.394 -0.274,1.335 h -1.071 l 1.193,-5.727 h 1.07 l -0.647,3.097 1.69,-1.6 h 1.35 l -1.797,1.627 0.974,2.603 h -1.315 l -0.618,-1.816 z"
         style="fill:#000000;fill-rule:nonzero" /><path
         id="path134"
         d="M 38.954,356.882 H 57.546"
         style="fill:none;stroke:#000000;stroke-width:0.64px;stroke-linecap:round" /><path
         id="path135"
         d="m 90.361,356.882 h 18.592"
         style="fill:none;stroke:#000000;stroke-width:0.64px;stroke-linecap:round" /></g><g
       aria-label="ONION"
       id="text560"
       style="font-style:italic;font-size:15.8468px;font-family:Menlo;-inkscape-font-specification:'Menlo Italic';text-align:center;text-anchor:middle;fill:#000000;stroke:#000000;stroke-width:0.99042;stroke-linecap:round;paint-order:fill markers stroke"><path
         d="m 52.098208,21.347299 q 0.657704,0 1.214818,-0.394623 0.557114,-0.394622 0.920786,-1.129703 0.572589,-1.121966 0.928523,-2.715931 0.355934,-1.593965 0.355934,-3.064127 0,-1.098753 -0.410098,-1.617179 -0.40236,-0.526163 -1.253506,-0.526163 -0.657704,0 -1.207081,0.394622 -0.549376,0.394623 -0.913048,1.129704 -0.588065,1.137441 -0.943999,2.715931 -0.355934,1.57849 -0.355934,3.048652 0,1.10649 0.402361,1.632654 0.410097,0.526163 1.261244,0.526163 z m 5.021764,-6.84786 q 0,0.851146 -0.177967,1.849309 -0.170229,0.998162 -0.50295,2.050489 -0.224393,0.711868 -0.487475,1.27672 -0.255344,0.564851 -0.557114,1.021375 -0.680917,0.982688 -1.524326,1.454687 -0.843409,0.464262 -1.965374,0.464262 -1.555277,0 -2.305834,-0.951737 -0.750556,-0.951736 -0.750556,-2.932586 0,-0.858884 0.162492,-1.841572 0.170229,-0.990425 0.50295,-2.042751 0.224393,-0.711868 0.479737,-1.27672 0.263081,-0.564852 0.564852,-1.021376 0.680917,-0.982687 1.524326,-1.446949 0.843408,-0.471999 1.965374,-0.471999 1.563015,0 2.313571,0.951736 0.758294,0.943999 0.758294,2.917112 z"
         style="fill:#000000;stroke:none;stroke-width:0.990423"
         id="path666" /><path
         d="m 59.959706,10.839509 h 1.98085 l 2.042751,9.509627 1.84931,-9.509627 h 1.50885 l -2.251669,11.552379 h -1.98085 L 61.066196,12.88226 59.20915,22.391888 h -1.501113 z"
         style="fill:#000000;stroke:none;stroke-width:0.990423"
         id="path668" /><path
         d="m 69.972283,10.839509 h 6.422287 l -0.255344,1.315408 H 73.70959 l -1.725506,8.921562 h 2.429636 l -0.255344,1.315409 h -6.422287 l 0.255344,-1.315409 h 2.421899 l 1.733244,-8.921562 h -2.429637 z"
         style="fill:#000000;stroke:none;stroke-width:0.990423"
         id="path670" /><path
         d="m 80.719943,21.347299 q 0.657704,0 1.214818,-0.394623 0.557114,-0.394622 0.920785,-1.129703 0.57259,-1.121966 0.928524,-2.715931 0.355934,-1.593965 0.355934,-3.064127 0,-1.098753 -0.410098,-1.617179 -0.40236,-0.526163 -1.253507,-0.526163 -0.657704,0 -1.20708,0.394622 -0.549376,0.394623 -0.913048,1.129704 -0.588065,1.137441 -0.943999,2.715931 -0.355934,1.57849 -0.355934,3.048652 0,1.10649 0.40236,1.632654 0.410098,0.526163 1.261245,0.526163 z m 5.021764,-6.84786 q 0,0.851146 -0.177967,1.849309 -0.17023,0.998162 -0.50295,2.050489 -0.224394,0.711868 -0.487475,1.27672 -0.255344,0.564851 -0.557114,1.021375 -0.680917,0.982688 -1.524326,1.454687 -0.843409,0.464262 -1.965375,0.464262 -1.555277,0 -2.305833,-0.951737 -0.750556,-0.951736 -0.750556,-2.932586 0,-0.858884 0.162491,-1.841572 0.170229,-0.990425 0.50295,-2.042751 0.224394,-0.711868 0.479737,-1.27672 0.263082,-0.564852 0.564852,-1.021376 0.680917,-0.982687 1.524326,-1.446949 0.843409,-0.471999 1.965375,-0.471999 1.563014,0 2.313571,0.951736 0.758294,0.943999 0.758294,2.917112 z"
         style="fill:#000000;stroke:none;stroke-width:0.990423"
         id="path672" /><path
         d="m 88.58144,10.839509 h 1.98085 l 2.042751,9.509627 1.849309,-9.509627 h 1.508851 l -2.251669,11.552379 h -1.98085 L 89.68793,12.88226 87.830883,22.391888 H 86.32977 Z"
         style="fill:#000000;stroke:none;stroke-width:0.990423"
         id="path674" /></g><g
       aria-label="LAYERS"
       id="text1324"
       style="font-style:italic;font-size:8.9138px;font-family:Menlo;-inkscape-font-specification:'Menlo Italic';text-align:center;text-anchor:middle;opacity:1;fill:#000000;stroke-width:0.99042;stroke-linecap:round;paint-order:fill markers stroke"><path
         d="m 57.929572,66.882527 h 0.879193 l -1.122929,5.75828 h 3.13811 l -0.143631,0.739915 h -4.017303 z"
         style="stroke-width:0.990423;fill:#000000"
         id="path1399" /><path
         d="m 64.889126,67.613737 -1.584288,3.36879 h 1.871549 z m -0.417834,-0.73121 h 1.070701 l 0.722505,6.498195 h -0.874841 l -0.152335,-1.6931 h -2.26327 l -0.800849,1.6931 h -0.94448 z"
         style="stroke-width:0.990423;fill:#000000"
         id="path1401" /><path
         d="m 67.905368,66.882527 h 0.879194 l 1.027176,2.833439 2.163163,-2.833439 h 0.948832 l -2.7638,3.582059 -0.561465,2.916136 h -0.900955 l 0.57017,-2.916136 z"
         style="stroke-width:0.990423;fill:#000000"
         id="path1403" /><path
         d="m 73.920443,66.882527 h 3.851911 l -0.143631,0.739915 h -2.97707 l -0.37431,1.923779 h 2.842145 l -0.139279,0.739915 h -2.846496 l -0.452654,2.354671 h 3.055414 l -0.143631,0.739915 h -3.938959 z"
         style="stroke-width:0.990423;fill:#000000"
         id="path1405" /><path
         d="m 81.123733,70.312251 q 0.313376,0.06093 0.500531,0.291613 0.191508,0.23068 0.426539,1.001062 l 0.526646,1.775796 h -0.874841 l -0.461359,-1.64087 q -0.191507,-0.678981 -0.430891,-0.892251 -0.235032,-0.21327 -0.713801,-0.21327 h -0.835669 l -0.53535,2.746391 h -0.883546 l 1.257856,-6.498195 h 1.810616 q 0.900955,0 1.392781,0.39172 0.496178,0.387367 0.496178,1.096815 0,0.796497 -0.452654,1.31879 -0.448301,0.522293 -1.223036,0.622399 z m -1.275265,-2.707219 -0.443949,2.306794 h 0.953185 q 0.709448,0 1.131634,-0.369957 0.42654,-0.37431 0.42654,-0.992357 0,-0.487473 -0.274204,-0.7138 -0.274204,-0.23068 -0.866136,-0.23068 z"
         style="stroke-width:0.990423;fill:#000000"
         id="path1407" /><path
         d="m 88.148574,67.104501 -0.169746,0.892251 q -0.352547,-0.256794 -0.73121,-0.387367 -0.378662,-0.130574 -0.783439,-0.130574 -0.718153,0 -1.170807,0.356901 -0.452654,0.3569 -0.452654,0.90966 0,0.309023 0.21327,0.500531 0.213269,0.191507 0.774734,0.365605 l 0.526646,0.169745 q 0.709448,0.217622 1.035881,0.583227 0.330785,0.361253 0.330785,0.922718 0,1.022823 -0.722505,1.62346 -0.722505,0.596285 -1.971656,0.596285 -0.452654,0 -0.892251,-0.100106 -0.435244,-0.09575 -0.870488,-0.291614 l 0.17845,-0.90966 q 0.42654,0.300318 0.861784,0.443949 0.439596,0.14363 0.92707,0.14363 0.718153,0 1.166454,-0.383014 0.448302,-0.383015 0.448302,-0.970595 0,-0.3569 -0.191508,-0.55276 -0.191507,-0.19586 -0.770382,-0.37431 l -0.439597,-0.14363 q -0.800849,-0.252442 -1.12293,-0.57017 -0.317728,-0.322081 -0.317728,-0.848726 0,-0.96189 0.718153,-1.571232 0.718153,-0.613694 1.875902,-0.613694 0.348196,0 0.739915,0.08705 0.396073,0.08705 0.809555,0.252441 z"
         style="stroke-width:0.990423;fill:#000000"
         id="path1409" /></g><g
       aria-label="DEPTH"
       id="text1378"
       style="font-style:italic;font-size:6.93296px;font-family:Menlo;-inkscape-font-specification:'Menlo Italic';text-align:center;text-anchor:middle;opacity:1;fill:#000000;stroke-width:0.99042;stroke-linecap:round;paint-order:fill markers stroke"><path
         d="m 110.34503,66.876238 q 0.62627,0 1.00541,-0.209885 0.37915,-0.21327 0.60934,-0.690588 0.18281,-0.389302 0.29791,-0.927554 0.11848,-0.541637 0.11848,-0.991874 0,-0.595801 -0.27759,-0.853079 -0.27759,-0.257277 -0.93094,-0.257277 h -0.38592 l -0.76506,3.930257 z m 0.88693,-4.492206 q 0.92417,0 1.38117,0.419769 0.4604,0.419769 0.4604,1.272848 0,0.548408 -0.14218,1.130668 -0.14218,0.58226 -0.38253,1.032497 -0.35207,0.646579 -0.88017,0.924169 -0.52471,0.274204 -1.42179,0.274204 h -1.02573 l 0.9851,-5.054155 z"
         style="stroke-width:0.990423;fill:#000000"
         id="path1412" /><path
         d="m 114.58673,62.384032 h 2.99593 l -0.11171,0.57549 h -2.3155 l -0.29113,1.496273 h 2.21055 l -0.10832,0.57549 h -2.21395 l -0.35206,1.831412 h 2.37643 l -0.11171,0.57549 h -3.06364 z"
         style="stroke-width:0.990423;fill:#000000"
         id="path1414" /><path
         d="m 119.32944,62.945981 -0.36899,1.899116 h 0.79214 q 0.55857,0 0.89032,-0.321597 0.33514,-0.324983 0.33514,-0.863235 0,-0.365605 -0.20989,-0.538252 -0.20988,-0.176032 -0.64996,-0.176032 z m -0.57549,-0.561949 h 1.4895 q 0.69736,0 1.06297,0.311441 0.3656,0.311442 0.3656,0.900473 0,0.842923 -0.54164,1.327011 -0.54163,0.484089 -1.4895,0.484089 h -0.78876 l -0.39607,2.031141 h -0.6872 z"
         style="stroke-width:0.990423;fill:#000000"
         id="path1416" /><path
         d="m 122.42354,62.384032 h 3.85917 l -0.11171,0.57549 h -1.58768 l -0.86662,4.478665 h -0.69058 l 0.87339,-4.478665 h -1.58768 z"
         style="stroke-width:0.990423;fill:#000000"
         id="path1418" /><path
         d="m 126.90221,62.384032 h 0.68382 l -0.39946,2.071763 h 1.87203 l 0.39946,-2.071763 h 0.6872 l -0.9851,5.054155 h -0.68382 l 0.47055,-2.406902 h -1.8788 l -0.46378,2.406902 h -0.6872 z"
         style="stroke-width:0.990423;fill:#000000"
         id="path1420" /></g><rect
       style="opacity:1;fill:#666666;fill-opacity:1;stroke:#000000;stroke-width:0.990426;stroke-linejoin:round;stroke-dasharray:none;stroke-opacity:1"
       id="rect2036"
       width="137.01198"
       height="28.035583"
       x="3.8998017"
       y="138.35098"
       rx="14.037484"
       ry="14.037483" /><rect
       style="opacity:1;fill:#666666;fill-opacity:1;stroke:#000000;stroke-width:0.990426;stroke-linejoin:round;stroke-dasharray:none;stroke-opacity:1"
       id="rect1742"
       width="137.01198"
       height="28.035583"
       x="3.8998017"
       y="228.79681"
       rx="14.037484"
       ry="14.037483" /><rect
       style="opacity:1;fill:#666666;fill-opacity:1;stroke:#000000;stroke-width:0.990426;stroke-linejoin:round;stroke-dasharray:none;stroke-opacity:1"
       id="rect1744"
       width="137.01198"
       height="28.035583"
       x="3.8998017"
       y="319.24265"
       rx="14.037484"
       ry="14.037483" /><g
       aria-label="+"
       id="text2293"
       style="font-style:italic;font-size:8.9138px;font-family:Menlo;-inkscape-font-specification:'Menlo Italic';text-align:center;text-anchor:middle;clip-rule:evenodd;fill:#000000;fill-rule:evenodd;stroke-width:0.99042;stroke-linecap:round;stroke-linejoin:round;stroke-miterlimit:1.5;paint-order:fill markers stroke"
       transform="translate(0,-1.4856337)"><path
         d="m 26.709294,63.451533 -0.37431,1.928132 h 1.936837 l -0.143631,0.735562 h -1.936837 l -0.37431,1.928132 h -0.73121 l 0.37431,-1.928132 h -1.932484 l 0.14363,-0.735562 h 1.932485 l 0.37431,-1.928132 z"
         style="stroke-width:0.990423;fill:#000000"
         id="path2299" /></g><g
       aria-label="–/+"
       id="text2297"
       style="font-style:italic;font-size:8.9138px;font-family:Menlo;-inkscape-font-specification:'Menlo Italic';text-align:center;text-anchor:middle;clip-rule:evenodd;fill:#000000;fill-rule:evenodd;stroke-width:0.99042;stroke-linecap:round;stroke-linejoin:round;stroke-miterlimit:1.5;paint-order:fill markers stroke"
       transform="translate(0,-2.9712674)"><path
         d="m 17.734558,36.430096 h 5.366561 l -0.121868,0.613694 h -5.366562 z"
         style="stroke-width:0.990423;fill:#000000"
         id="path2302" /><path
         d="m 23.270864,40.012156 3.708281,-7.32516 h 0.831317 l -3.716986,7.32516 z"
         style="stroke-width:0.990423;fill:#000000"
         id="path2304" /><path
         d="m 32.075855,34.145064 -0.37431,1.928132 h 1.936837 l -0.14363,0.735563 h -1.936837 l -0.37431,1.928132 h -0.731211 l 0.37431,-1.928132 H 28.89422 l 0.143631,-0.735563 h 1.932484 l 0.37431,-1.928132 z"
         style="stroke-width:0.990423;fill:#000000"
         id="path2306" /></g></g></svg>
