<?xml version="1.0" encoding="UTF-8" standalone="no"?>
<!-- Created with Inkscape (http://www.inkscape.org/) -->

<svg
   width="71.120003mm"
   height="128.5mm"
   viewBox="0 0 71.120011 128.50002"
   version="1.1"
   id="svg8"
   inkscape:version="1.3.2 (091e20e, 2023-11-25)"
   sodipodi:docname="Ouros.svg"
   xml:space="preserve"
   xmlns:inkscape="http://www.inkscape.org/namespaces/inkscape"
   xmlns:sodipodi="http://sodipodi.sourceforge.net/DTD/sodipodi-0.dtd"
   xmlns="http://www.w3.org/2000/svg"
   xmlns:svg="http://www.w3.org/2000/svg"
   xmlns:rdf="http://www.w3.org/1999/02/22-rdf-syntax-ns#"
   xmlns:cc="http://creativecommons.org/ns#"
   xmlns:dc="http://purl.org/dc/elements/1.1/"
   xmlns:serif="http://www.serif.com/"><defs
     id="defs2">
            
            
        
            
            
        
            
            
        
            
            
        
            
            
        
            
            
        
            
            
        </defs><sodipodi:namedview
     id="base"
     pagecolor="#ffffff"
     bordercolor="#666666"
     borderopacity="1.0"
     inkscape:pageopacity="0.0"
     inkscape:pageshadow="2"
     inkscape:zoom="1.62"
     inkscape:cx="153.39506"
     inkscape:cy="245.67901"
     inkscape:document-units="mm"
     inkscape:current-layer="svg8"
     showgrid="false"
     units="mm"
     inkscape:snap-bbox="true"
     inkscape:snap-page="true"
     inkscape:bbox-nodes="false"
     inkscape:snap-bbox-edge-midpoints="false"
     inkscape:window-width="1512"
     inkscape:window-height="1051"
     inkscape:window-x="0"
     inkscape:window-y="38"
     inkscape:window-maximized="0"
     inkscape:snap-bbox-midpoints="true"
     inkscape:snap-nodes="false"
     inkscape:showpageshadow="2"
     inkscape:pagecheckerboard="0"
     inkscape:deskcolor="#d1d1d1" /><metadata
     id="metadata5"><rdf:RDF><cc:Work
         rdf:about=""><dc:format>image/svg+xml</dc:format><dc:type
           rdf:resource="http://purl.org/dc/dcmitype/StillImage" /></cc:Work></rdf:RDF></metadata><rect
     id="rect1"
     x="-0.16655782"
     y="-0.38949111"
     width="71.318932"
     height="129.34183"
     style="clip-rule:evenodd;display:inline;fill:#e5e5e5;fill-rule:evenodd;stroke-width:0.432575;stroke-linejoin:round;stroke-miterlimit:1.5;fill-opacity:1" /><path
     id="path128"
     d="m 32.37478,125.9342 c 0.05984,0.1268 0.07943,0.25396 0.05842,0.38219 h -0.419235 c -0.0064,-0.0983 -0.02565,-0.1724 -0.05842,-0.22227 -0.05735,-0.089 -0.160997,-0.13357 -0.310597,-0.13357 -0.152449,0 -0.28602,0.0627 -0.4,0.18843 -0.114337,0.12538 -0.195192,0.30276 -0.242921,0.5325 -0.04809,0.22974 -0.03776,0.40143 0.0317,0.51612 0.0691,0.11433 0.175246,0.17133 0.318434,0.17133 0.147106,0 0.269635,-0.0492 0.367587,-0.14747 0.05378,-0.0524 0.105432,-0.13179 0.155298,-0.23722 h 0.415317 c -0.08264,0.22333 -0.213357,0.40463 -0.391452,0.54461 -0.178451,0.13927 -0.384328,0.20944 -0.617632,0.20944 -0.288513,0 -0.495815,-0.0944 -0.621906,-0.28317 -0.125379,-0.18985 -0.153162,-0.44986 -0.08442,-0.78076 0.07409,-0.35726 0.225468,-0.63295 0.453429,-0.82636 0.198753,-0.16848 0.424221,-0.2529 0.676403,-0.2529 0.337667,0 0.560642,0.11327 0.669992,0.3391 z"
     style="clip-rule:evenodd;fill:#000000;fill-rule:nonzero;stroke-width:0.356189;stroke-linejoin:round;stroke-miterlimit:1.5" /><path
     id="path129"
     d="m 33.303009,127.18869 0.764026,-1.55441 h 0.435619 l -1.110954,2.04667 h -0.396083 l -0.252181,-2.04667 h 0.448442 z"
     style="clip-rule:evenodd;fill:#000000;fill-rule:nonzero;stroke-width:0.356189;stroke-linejoin:round;stroke-miterlimit:1.5" /><path
     id="path130"
     d="m 36.085915,126.18139 -0.05877,0.27925 h -0.253963 l -0.253607,1.22031 h -0.386466 l 0.253606,-1.22031 h -0.216919 l 0.05842,-0.27925 h 0.212645 l 0.01995,-0.0972 c 0.03419,-0.16207 0.08406,-0.27355 0.149955,-0.33482 0.07551,-0.0905 0.220482,-0.13606 0.43562,-0.13606 0.02458,0 0.04666,7.1e-4 0.06625,0.002 0.01959,0.001 0.04666,0.004 0.08121,0.006 l -0.06803,0.32271 c -0.02102,-0.003 -0.05699,-0.005 -0.107569,-0.006 -0.05093,-10e-4 -0.08905,0.01 -0.113981,0.0345 -0.02493,0.0246 -0.03989,0.0516 -0.04559,0.0812 -0.0064,0.0299 -0.01532,0.0723 -0.02743,0.12787 z"
     style="clip-rule:evenodd;fill:#000000;fill-rule:nonzero;stroke-width:0.356189;stroke-linejoin:round;stroke-miterlimit:1.5" /><path
     id="path131"
     d="m 36.992772,127.46759 c -0.0043,0.005 -0.01638,0.0185 -0.03562,0.0417 -0.01888,0.0232 -0.04025,0.0431 -0.06376,0.0609 -0.07266,0.0556 -0.139626,0.0933 -0.200891,0.11363 -0.06091,0.0203 -0.129653,0.0306 -0.206234,0.0306 -0.219412,0 -0.350846,-0.0801 -0.393232,-0.2415 -0.02386,-0.0887 -0.01745,-0.21977 0.01888,-0.39287 l 0.189492,-0.91256 h 0.397151 l -0.189136,0.91256 c -0.01817,0.0862 -0.02173,0.15066 -0.01104,0.19447 0.01923,0.0769 0.0805,0.11541 0.183794,0.11541 0.132502,0 0.234728,-0.0549 0.306678,-0.1642 0.03811,-0.0591 0.06732,-0.13749 0.08727,-0.23438 l 0.171327,-0.82386 h 0.393233 l -0.314515,1.51345 H 36.94932 Z"
     style="clip-rule:evenodd;fill:#000000;fill-rule:nonzero;stroke-width:0.356189;stroke-linejoin:round;stroke-miterlimit:1.5" /><path
     id="path132"
     d="m 38.838901,126.76091 c 0.0171,-0.0798 0.01959,-0.14105 0.0068,-0.18344 -0.02173,-0.078 -0.08584,-0.11683 -0.193055,-0.11683 -0.13179,0 -0.234016,0.057 -0.306323,0.17062 -0.03847,0.0605 -0.06696,0.13749 -0.08584,0.23081 l -0.170259,0.81888 h -0.386465 l 0.314159,-1.51096 h 0.374711 l -0.04631,0.22084 c 0.0659,-0.0773 0.125023,-0.13357 0.177026,-0.16777 0.09225,-0.0613 0.200179,-0.0915 0.322352,-0.0915 0.153517,0 0.270347,0.0406 0.350846,0.12289 0.08014,0.0819 0.100801,0.21763 0.06162,0.40748 l -0.212289,1.01906 h -0.397507 z"
     style="clip-rule:evenodd;fill:#000000;fill-rule:nonzero;stroke-width:0.356189;stroke-linejoin:round;stroke-miterlimit:1.5" /><path
     id="path133"
     d="m 39.878973,127.20543 -0.09759,0.47552 h -0.381484 l 0.424934,-2.0399 h 0.381122 l -0.230454,1.10312 0.601959,-0.5699 h 0.480856 l -0.640072,0.57952 0.346928,0.92716 h -0.468389 l -0.220125,-0.64684 z"
     style="clip-rule:evenodd;fill:#000000;fill-rule:nonzero;stroke-width:0.356189;stroke-linejoin:round;stroke-miterlimit:1.5" /><path
     id="path134"
     d="m 23.093558,126.66688 h 6.62227"
     style="clip-rule:evenodd;fill:none;fill-rule:evenodd;stroke:#000000;stroke-width:0.227961px;stroke-linecap:round;stroke-linejoin:round;stroke-miterlimit:1.5" /><path
     id="path135"
     d="m 41.404175,126.66688 h 6.62227"
     style="clip-rule:evenodd;fill:none;fill-rule:evenodd;stroke:#000000;stroke-width:0.227961px;stroke-linecap:round;stroke-linejoin:round;stroke-miterlimit:1.5" /><path
     style="font-style:italic;font-size:5.64444px;font-family:Menlo;-inkscape-font-specification:'Menlo Italic';text-align:center;text-anchor:middle;fill:#000000;stroke-width:0.352778;stroke-linejoin:round"
     d="m 28.453463,5.8416293 q 0.234267,0 0.432704,-0.1405598 0.198437,-0.1405598 0.327973,-0.4023868 0.203949,-0.3996308 0.330729,-0.9673821 0.126779,-0.5677513 0.126779,-1.0914054 0,-0.3913626 -0.146072,-0.5760196 -0.143316,-0.187413 -0.446484,-0.187413 -0.234266,0 -0.429947,0.1405598 -0.195682,0.1405598 -0.325217,0.4023868 -0.209462,0.4051429 -0.336241,0.9673821 -0.12678,0.5622392 -0.12678,1.0858933 0,0.3941186 0.143316,0.5815317 0.146072,0.187413 0.44924,0.187413 z m 1.788693,-2.4391257 q 0,0.3031681 -0.06339,0.6587017 -0.06063,0.3555336 -0.179145,0.7303597 -0.07993,0.2535588 -0.173633,0.4547523 -0.09095,0.2011934 -0.198437,0.3638018 -0.242535,0.3500214 -0.542947,0.5181419 -0.300412,0.1653645 -0.700043,0.1653645 -0.55397,0 -0.82131,-0.3389971 -0.267339,-0.3389972 -0.267339,-1.0445522 0,-0.3059243 0.05788,-0.6559457 0.06063,-0.3527775 0.179144,-0.7276036 0.07993,-0.2535588 0.170877,-0.4547523 0.09371,-0.2011934 0.201194,-0.3638018 0.242534,-0.3500214 0.542946,-0.5153859 0.300412,-0.1681205 0.700043,-0.1681205 0.556727,0 0.824066,0.3389971 0.270096,0.3362411 0.270096,1.0390401 z m 0.542946,1.2319652 0.490581,-2.5355884 h 0.559483 l -0.493337,2.5355884 q -0.0055,0.035829 -0.02205,0.112999 -0.08268,0.4244355 -0.08268,0.5870438 0,0.2535589 0.148828,0.3803383 0.151584,0.1267794 0.454753,0.1267794 0.24529,0 0.416167,-0.07717 0.170876,-0.079926 0.2949,-0.2508027 0.06063,-0.085438 0.121267,-0.2921439 0.06339,-0.2094617 0.137804,-0.5870438 l 0.490581,-2.5355884 h 0.559483 l -0.490581,2.5355884 q -0.115755,0.6035802 -0.248047,0.8874559 -0.129535,0.2811196 -0.344509,0.4547523 -0.195681,0.1543401 -0.446484,0.2370223 -0.250803,0.079926 -0.542947,0.079926 -0.529166,0 -0.815798,-0.2480467 -0.283875,-0.2480467 -0.283875,-0.705555 0,-0.1019748 0.02205,-0.2756074 0.02481,-0.1736327 0.07441,-0.4299476 z M 35.977546,4.270667 q 0.198437,0.038585 0.316949,0.1846569 0.121267,0.146072 0.270095,0.6338971 l 0.333485,1.1244783 H 36.344104 L 36.05196,5.1746593 Q 35.930693,4.7447117 35.779109,4.6096641 35.630281,4.4746165 35.327113,4.4746165 h -0.529167 l -0.338997,1.7390828 h -0.559483 l 0.796506,-4.1148189 h 1.146527 q 0.570507,0 0.881943,0.2480467 0.314193,0.2452906 0.314193,0.6945307 0,0.5043616 -0.286632,0.8350905 -0.283876,0.3307289 -0.774457,0.3941187 z m -0.80753,-1.7142783 -0.281119,1.4607194 h 0.60358 q 0.44924,0 0.716579,-0.2342663 0.270096,-0.2370224 0.270096,-0.6283849 0,-0.3086804 -0.173633,-0.4519962 -0.173633,-0.146072 -0.548459,-0.146072 z m 3.478167,3.2852406 q 0.234266,0 0.432703,-0.1405598 0.198438,-0.1405598 0.327973,-0.4023868 0.20395,-0.3996308 0.330729,-0.9673821 0.126779,-0.5677513 0.126779,-1.0914054 0,-0.3913626 -0.146071,-0.5760196 -0.143316,-0.187413 -0.446485,-0.187413 -0.234266,0 -0.429947,0.1405598 -0.195681,0.1405598 -0.325217,0.4023868 -0.209462,0.4051429 -0.336241,0.9673821 -0.126779,0.5622392 -0.126779,1.0858933 0,0.3941186 0.143316,0.5815317 0.146071,0.187413 0.44924,0.187413 z m 1.788692,-2.4391257 q 0,0.3031681 -0.06339,0.6587017 -0.06063,0.3555336 -0.179145,0.7303597 -0.07993,0.2535588 -0.173632,0.4547523 -0.09095,0.2011934 -0.198438,0.3638018 -0.242534,0.3500214 -0.542946,0.5181419 -0.300412,0.1653645 -0.700043,0.1653645 -0.553971,0 -0.82131,-0.3389971 -0.26734,-0.3389972 -0.26734,-1.0445522 0,-0.3059243 0.05788,-0.6559457 0.06063,-0.3527775 0.179145,-0.7276036 0.07993,-0.2535588 0.170876,-0.4547523 0.09371,-0.2011934 0.201194,-0.3638018 0.242534,-0.3500214 0.542946,-0.5153859 0.300413,-0.1681205 0.700043,-0.1681205 0.556727,0 0.824067,0.3389971 0.270095,0.3362411 0.270095,1.0390401 z M 43.82409,2.2394402 43.716603,2.8044354 Q 43.493361,2.641827 43.253582,2.5591448 q -0.239778,-0.082682 -0.496093,-0.082682 -0.454752,0 -0.741384,0.2259981 -0.286632,0.2259981 -0.286632,0.5760195 0,0.1956813 0.135048,0.3169486 0.135047,0.1212672 0.490581,0.2315102 l 0.333485,0.1074869 q 0.44924,0.1378037 0.655946,0.3693139 0.209461,0.2287542 0.209461,0.5842878 0,0.6476775 -0.457508,1.0280157 -0.457508,0.3775822 -1.248502,0.3775822 -0.286631,0 -0.564995,-0.06339 -0.275607,-0.060634 -0.551215,-0.184657 l 0.112999,-0.5760195 q 0.270096,0.1901691 0.545703,0.2811196 0.278364,0.09095 0.587044,0.09095 0.454752,0 0.738628,-0.2425345 0.283875,-0.2425346 0.283875,-0.6146046 0,-0.2259981 -0.121267,-0.3500214 -0.121267,-0.1240234 -0.487825,-0.2370224 l -0.278363,-0.09095 Q 41.60545,4.1466436 41.4015,3.9454502 41.200307,3.7415007 41.200307,3.4080157 q 0,-0.6090924 0.454752,-0.9949428 0.454752,-0.3886065 1.187868,-0.3886065 0.220486,0 0.468533,0.055121 0.250803,0.055122 0.51263,0.1598528 z"
     id="text1"
     aria-label="OUROS" /><text
     xml:space="preserve"
     style="font-style:italic;font-size:5.64444px;font-family:Menlo;-inkscape-font-specification:'Menlo Italic';text-align:center;text-anchor:middle;fill:#ffffff;stroke-width:0.352777;stroke-linejoin:round"
     x="4.0088382"
     y="121.4678"
     id="text2"><tspan
       sodipodi:role="line"
       id="tspan2"
       x="4.0088382"
       y="121.4678"
       style="stroke-width:0.352778" /></text><circle
     style="fill:#212121;fill-opacity:1;stroke:#000000;stroke-width:0.352777;stroke-linejoin:round;stroke-dasharray:none;stroke-opacity:1.0"
     id="path2"
     cx="27.534147"
     cy="27.304193"
     r="18.941759" /><path
     id="path401-6"
     serif:id="path40"
     d="m 31.469806,98.299902 -0.702124,-0.17526 0.174617,-0.703478"
     style="clip-rule:evenodd;fill:none;fill-rule:evenodd;stroke:#000000;stroke-width:0.246416px;stroke-linecap:butt;stroke-linejoin:miter;stroke-miterlimit:10" /><path
     id="path411-8"
     serif:id="path41"
     d="m 23.498332,97.951 c -1.628844,-1.183234 -2.786792,-3.190131 -2.786792,-5.33958 0,-3.586582 2.946242,-6.498336 6.57541,-6.498336 3.629168,0 6.575715,2.911754 6.575715,6.498336 0,1.848612 -0.782881,3.518001 -2.038417,4.701844 -0.322721,0.304191 -0.676526,0.576682 -1.056234,0.811378"
     style="clip-rule:evenodd;fill:none;fill-rule:evenodd;stroke:#000000;stroke-width:0.246416px;stroke-linecap:butt;stroke-linejoin:round;stroke-miterlimit:1.5"
     sodipodi:nodetypes="cssscc" /><path
     d="m 27.260174,97.928856 v 2.438384"
     style="clip-rule:evenodd;fill:none;fill-rule:evenodd;stroke:#000000;stroke-width:0.264017px;stroke-linecap:square;stroke-linejoin:round;stroke-miterlimit:1.5"
     id="path66-6" /><path
     id="path3"
     serif:id="path40"
     d="m 14.292972,103.93212 -0.702125,-0.17526 0.174617,-0.70348"
     style="clip-rule:evenodd;fill:none;fill-rule:evenodd;stroke:#000000;stroke-width:0.246416px;stroke-linecap:butt;stroke-linejoin:miter;stroke-miterlimit:10" /><path
     id="path4"
     serif:id="path41"
     d="m 6.2209744,103.48315 c -1.6288441,-1.18323 -2.6866023,-3.09006 -2.6866023,-5.239511 0,-3.586582 2.9462422,-6.498336 6.5754099,-6.498336 3.62917,0 6.575717,2.911754 6.575717,6.498336 0,1.848611 -0.782881,3.518001 -2.038417,4.701841 -0.322721,0.30419 -0.676526,0.57669 -1.056235,0.81138"
     style="clip-rule:evenodd;fill:none;fill-rule:evenodd;stroke:#000000;stroke-width:0.246416px;stroke-linecap:butt;stroke-linejoin:round;stroke-miterlimit:1.5" /><path
     id="path9"
     serif:id="path40"
     d="m 48.576346,98.299902 -0.702124,-0.17526 0.174617,-0.703478"
     style="clip-rule:evenodd;fill:none;fill-rule:evenodd;stroke:#000000;stroke-width:0.246416px;stroke-linecap:butt;stroke-linejoin:miter;stroke-miterlimit:10" /><path
     id="path10"
     serif:id="path41"
     d="m 40.60529,97.951 c -1.628844,-1.183234 -2.787082,-3.190131 -2.787082,-5.33958 0,-3.586582 2.946242,-6.498336 6.57541,-6.498336 3.629168,0 6.575715,2.911754 6.575715,6.498336 0,1.848612 -0.782881,3.518001 -2.038417,4.701844 -0.322721,0.304191 -0.676526,0.576682 -1.056234,0.811378"
     style="clip-rule:evenodd;fill:none;fill-rule:evenodd;stroke:#000000;stroke-width:0.246416px;stroke-linecap:butt;stroke-linejoin:round;stroke-miterlimit:1.5"
     sodipodi:nodetypes="cssscc" /><path
     d="m 44.394008,97.902022 v 2.438388"
     style="clip-rule:evenodd;fill:none;fill-rule:evenodd;stroke:#000000;stroke-width:0.264017px;stroke-linecap:square;stroke-linejoin:round;stroke-miterlimit:1.5"
     id="path11" /><path
     id="path15"
     serif:id="path40"
     d="m 65.397346,98.299902 -0.702124,-0.17526 0.174617,-0.703478"
     style="clip-rule:evenodd;fill:none;fill-rule:evenodd;stroke:#000000;stroke-width:0.246416px;stroke-linecap:butt;stroke-linejoin:miter;stroke-miterlimit:10" /><path
     id="path16"
     serif:id="path41"
     d="m 57.32481,97.850932 c -1.628844,-1.183234 -2.686602,-3.090063 -2.686602,-5.239512 0,-3.586582 2.946242,-6.498336 6.57541,-6.498336 3.629168,0 6.575715,2.911754 6.575715,6.498336 0,1.848612 -0.782881,3.518001 -2.038417,4.701844 -0.322721,0.304191 -0.676526,0.576682 -1.056234,0.811378"
     style="clip-rule:evenodd;fill:none;fill-rule:evenodd;stroke:#000000;stroke-width:0.246416px;stroke-linecap:butt;stroke-linejoin:round;stroke-miterlimit:1.5" /><path
     d="m 61.413998,97.902022 v 2.438388"
     style="clip-rule:evenodd;fill:none;fill-rule:evenodd;stroke:#000000;stroke-width:0.264017px;stroke-linecap:square;stroke-linejoin:round;stroke-miterlimit:1.5"
     id="path17" /><path
     d="m 57.231559,97.75613 -0.91392,1.290826"
     style="clip-rule:evenodd;fill:none;fill-rule:evenodd;stroke:#000000;stroke-width:0.264017px;stroke-linecap:square;stroke-linejoin:round;stroke-miterlimit:1.5"
     id="path18" /><path
     id="path21"
     serif:id="path40"
     d="m 31.469806,61.41942 -0.702124,-0.17526 0.174617,-0.703478"
     style="clip-rule:evenodd;fill:none;fill-rule:evenodd;stroke:#000000;stroke-width:0.246416px;stroke-linecap:butt;stroke-linejoin:miter;stroke-miterlimit:10;stroke-opacity:1.0" /><path
     id="path22"
     serif:id="path41"
     d="m 23.498332,61.169995 c -1.628844,-1.183234 -2.786792,-3.290002 -2.786792,-5.439451 0,-3.586582 2.946242,-6.498336 6.57541,-6.498336 3.629168,0 6.575715,2.911754 6.575715,6.498336 0,1.848612 -0.782881,3.518001 -2.038417,4.701844 -0.322721,0.304191 -0.676526,0.576682 -1.056234,0.811378"
     style="clip-rule:evenodd;fill:none;fill-rule:evenodd;stroke:#000000;stroke-width:0.246416px;stroke-linecap:butt;stroke-linejoin:round;stroke-miterlimit:1.5;stroke-opacity:1.0"
     sodipodi:nodetypes="cssscc" /><path
     d="m 27.287008,61.221151 v 2.438388"
     style="clip-rule:evenodd;fill:none;fill-rule:evenodd;stroke:#000000;stroke-width:0.264017px;stroke-linecap:square;stroke-linejoin:round;stroke-miterlimit:1.5;stroke-opacity:1.0"
     id="path23" /><path
     id="path27"
     serif:id="path40"
     d="m 48.576516,61.41942 -0.702124,-0.17526 0.174617,-0.703478"
     style="clip-rule:evenodd;fill:none;fill-rule:evenodd;stroke:#000000;stroke-width:0.246416px;stroke-linecap:butt;stroke-linejoin:miter;stroke-miterlimit:10;stroke-opacity:1.0" /><path
     id="path28"
     serif:id="path41"
     d="m 40.60529,61.169995 c -1.628844,-1.183234 -2.787082,-3.290002 -2.787082,-5.439451 0,-3.586582 2.946242,-6.498336 6.57541,-6.498336 3.629168,0 6.575715,2.911754 6.575715,6.498336 0,1.848612 -0.782881,3.518001 -2.038417,4.701844 -0.322721,0.304191 -0.676526,0.576682 -1.056234,0.811378"
     style="clip-rule:evenodd;fill:none;fill-rule:evenodd;stroke:#000000;stroke-width:0.246416px;stroke-linecap:butt;stroke-linejoin:round;stroke-miterlimit:1.5;stroke-opacity:1.0"
     sodipodi:nodetypes="cssscc" /><path
     d="m 44.394008,61.221151 v 2.438388"
     style="clip-rule:evenodd;fill:none;fill-rule:evenodd;stroke:#000000;stroke-width:0.264017px;stroke-linecap:square;stroke-linejoin:round;stroke-miterlimit:1.5;stroke-opacity:1.0"
     id="path29" /><path
     id="path33"
     serif:id="path40"
     d="m 65.397346,61.41942 -0.702124,-0.17526 0.174617,-0.703478"
     style="clip-rule:evenodd;fill:none;fill-rule:evenodd;stroke:#000000;stroke-width:0.246416px;stroke-linecap:butt;stroke-linejoin:miter;stroke-miterlimit:10;stroke-opacity:1.0" /><path
     id="path34"
     serif:id="path41"
     d="m 57.32481,60.970056 c -1.628844,-1.183234 -2.686602,-3.090063 -2.686602,-5.239512 0,-3.586582 2.946242,-6.498336 6.57541,-6.498336 3.629168,0 6.575715,2.911754 6.575715,6.498336 0,1.848612 -0.782881,3.518001 -2.038417,4.701844 -0.322721,0.304191 -0.676526,0.576682 -1.056234,0.811378"
     style="clip-rule:evenodd;fill:none;fill-rule:evenodd;stroke:#000000;stroke-width:0.246416px;stroke-linecap:butt;stroke-linejoin:round;stroke-miterlimit:1.5;stroke-opacity:1.0" /><path
     d="m 61.413998,61.221151 v 2.438388"
     style="clip-rule:evenodd;fill:none;fill-rule:evenodd;stroke:#000000;stroke-width:0.264017px;stroke-linecap:square;stroke-linejoin:round;stroke-miterlimit:1.5;stroke-opacity:1.0"
     id="path35" /><path
     d="m 57.260872,60.932281 -0.742853,1.233804"
     style="clip-rule:evenodd;fill:none;fill-rule:evenodd;stroke:#000000;stroke-width:0.264017px;stroke-linecap:square;stroke-linejoin:round;stroke-miterlimit:1.5;stroke-opacity:1.0"
     id="path36"
     sodipodi:nodetypes="cc" /><path
     id="path39"
     serif:id="path40"
     d="m 5.7635057,103.93212 0.702125,-0.17526 -0.174617,-0.70348"
     style="clip-rule:evenodd;fill:none;fill-rule:evenodd;stroke:#000000;stroke-width:0.246416px;stroke-linecap:butt;stroke-linejoin:miter;stroke-miterlimit:10" /><path
     d="m 10.040952,89.778715 v 1.912228"
     style="clip-rule:evenodd;fill:none;fill-rule:evenodd;stroke:#000000;stroke-width:0.264017px;stroke-linecap:square;stroke-linejoin:round;stroke-miterlimit:1.5"
     id="path40"
     sodipodi:nodetypes="cc" /><path
     d="m 27.28695,46.293586 v 2.918948"
     style="clip-rule:evenodd;fill:none;fill-rule:evenodd;stroke:#000000;stroke-width:0.264017px;stroke-linecap:square;stroke-linejoin:round;stroke-miterlimit:1.5;stroke-opacity:1.0"
     id="path41"
     sodipodi:nodetypes="cc" /><path
     id="path42"
     serif:id="path40"
     d="m 22.939839,61.41942 0.702124,-0.17526 -0.174617,-0.703478"
     style="clip-rule:evenodd;fill:none;fill-rule:evenodd;stroke:#000000;stroke-width:0.246416px;stroke-linecap:butt;stroke-linejoin:miter;stroke-miterlimit:10;stroke-opacity:1.0" /><path
     d="m 44.393618,46.993462 v 2.210299"
     style="clip-rule:evenodd;fill:none;fill-rule:evenodd;stroke:#000000;stroke-width:0.264017px;stroke-linecap:square;stroke-linejoin:round;stroke-miterlimit:1.5;stroke-opacity:1.0"
     id="path43"
     sodipodi:nodetypes="cc" /><path
     id="path44"
     serif:id="path40"
     d="m 40.046839,61.41942 0.702124,-0.17526 -0.174617,-0.703478"
     style="clip-rule:evenodd;fill:none;fill-rule:evenodd;stroke:#000000;stroke-width:0.246416px;stroke-linecap:butt;stroke-linejoin:miter;stroke-miterlimit:10;stroke-opacity:1.0" /><path
     d="m 27.28695,83.933559 v 2.087482"
     style="clip-rule:evenodd;fill:none;fill-rule:evenodd;stroke:#000000;stroke-width:0.264017px;stroke-linecap:square;stroke-linejoin:round;stroke-miterlimit:1.5"
     id="path45"
     sodipodi:nodetypes="cc" /><path
     id="path46"
     serif:id="path40"
     d="m 22.939839,98.227328 0.702124,-0.17526 -0.174617,-0.703478"
     style="clip-rule:evenodd;fill:none;fill-rule:evenodd;stroke:#000000;stroke-width:0.246416px;stroke-linecap:butt;stroke-linejoin:miter;stroke-miterlimit:10" /><path
     d="m 44.393618,83.801969 v 2.210299"
     style="clip-rule:evenodd;fill:none;fill-rule:evenodd;stroke:#000000;stroke-width:0.264017px;stroke-linecap:square;stroke-linejoin:round;stroke-miterlimit:1.5"
     id="path47"
     sodipodi:nodetypes="cc" /><path
     id="path48"
     serif:id="path40"
     d="m 40.046839,98.227328 0.702124,-0.17526 -0.174617,-0.703478"
     style="clip-rule:evenodd;fill:none;fill-rule:evenodd;stroke:#000000;stroke-width:0.246416px;stroke-linecap:butt;stroke-linejoin:miter;stroke-miterlimit:10" /><rect
     style="opacity:1;fill:#666666;fill-opacity:1;stroke:#000000;stroke-width:0.352777;stroke-linejoin:round;stroke-dasharray:none;stroke-opacity:1.0"
     id="rect48"
     width="11.765007"
     height="25.553108"
     x="55.433033"
     y="15.00216"
     rx="5"
     ry="5" /><path
     style="font-style:italic;font-size:2.82222px;font-family:Menlo;-inkscape-font-specification:'Menlo Italic';text-align:center;text-anchor:middle;fill:#000000;stroke-width:0.352778;stroke-linejoin:round"
     d="m 6.6446576,119.28597 0.809628,-1.8276 h 0.291087 l -0.9734491,2.0941 H 6.4226192 l -0.1990223,-2.0941 h 0.2680708 z m 1.0005268,0.53299 1.1535168,-2.36059 h 0.2585936 l -1.1562246,2.36059 z m 2.327342,-0.45585 q 0.1150806,0 0.2125606,-0.0716 0.09748,-0.0716 0.161114,-0.20478 0.100188,-0.20338 0.162467,-0.49232 0.06228,-0.28894 0.06228,-0.55544 0,-0.19917 -0.07176,-0.29313 -0.0704,-0.0954 -0.219331,-0.0954 -0.115081,0 -0.211207,0.0716 -0.096127,0.0716 -0.1597593,0.20478 -0.1028959,0.20618 -0.165175,0.49231 -0.062279,0.28614 -0.062279,0.55263 0,0.20058 0.070402,0.29596 0.071756,0.0954 0.2206846,0.0954 z m 0.8786766,-1.24131 q 0,0.15429 -0.03114,0.33523 -0.02979,0.18094 -0.088,0.37169 -0.03926,0.12904 -0.0853,0.23143 -0.04468,0.10239 -0.09748,0.18515 -0.119143,0.17813 -0.266717,0.26369 -0.147574,0.0842 -0.3438888,0.0842 -0.2721324,0 -0.40346,-0.17252 -0.1313276,-0.17252 -0.1313276,-0.53158 0,-0.1557 0.028432,-0.33383 0.029786,-0.17954 0.088004,-0.37029 0.039263,-0.12904 0.083941,-0.23144 0.046032,-0.10238 0.098834,-0.18514 0.1191425,-0.17813 0.2667169,-0.26229 0.1475745,-0.0856 0.3438885,-0.0856 0.273487,0 0.404814,0.17253 0.132682,0.17112 0.132682,0.52878 z m 1.389095,1.35633 q -0.113727,0.0575 -0.230162,0.0856 -0.115081,0.0294 -0.238285,0.0294 -0.311396,0 -0.48334,-0.18655 -0.170591,-0.18655 -0.170591,-0.52317 0,-0.30857 0.09477,-0.61154 0.09477,-0.30297 0.249117,-0.49512 0.144867,-0.18234 0.319519,-0.2693 0.174651,-0.0869 0.398044,-0.0869 0.108311,0 0.215269,0.0294 0.106957,0.0294 0.2085,0.0856 l -0.05551,0.29034 q -0.08665,-0.0884 -0.182776,-0.13184 -0.09613,-0.0435 -0.204438,-0.0435 -0.128621,0 -0.238285,0.0575 -0.109666,0.0561 -0.205792,0.17253 -0.140805,0.17252 -0.227454,0.44182 -0.0853,0.2693 -0.0853,0.54 0,0.24265 0.105603,0.37169 0.105604,0.12904 0.304626,0.12904 0.115081,0 0.236932,-0.0449 0.123204,-0.0449 0.242348,-0.13044 z m 0.652577,-2.01976 h 1.543437 l -0.04467,0.23844 h -0.634975 l -0.346597,1.85566 h -0.276195 l 0.349305,-1.85566 h -0.634976 z"
     id="text49"
     aria-label="V/OCT" /><path
     style="font-style:italic;font-size:2.82222px;font-family:Menlo;-inkscape-font-specification:'Menlo Italic';text-align:center;text-anchor:middle;fill:#000000;stroke-width:0.352778;stroke-linejoin:round"
     d="m 21.148269,117.45837 h 1.190072 l -0.04467,0.23844 h -0.915235 l -0.116435,0.61715 h 0.828582 l -0.04333,0.23845 h -0.829939 l -0.188191,1.00006 h -0.274839 z m 1.616548,0 h 1.198196 l -0.04468,0.23844 H 22.99227 l -0.116434,0.61996 h 0.884091 l -0.04333,0.23844 h -0.885446 l -0.140805,0.75881 h 0.950433 l -0.04467,0.23845 h -1.225274 z m 1.669351,0 h 1.198194 l -0.04467,0.23844 h -0.926066 l -0.116434,0.61996 h 0.884091 l -0.04333,0.23844 h -0.885449 l -0.140804,0.75881 h 0.950436 l -0.04468,0.23845 h -1.225272 z m 1.642272,1.86126 q 0.25047,0 0.402106,-0.0869 0.151636,-0.0883 0.243701,-0.28613 0.07311,-0.1613 0.119142,-0.38432 0.04738,-0.22441 0.04738,-0.41096 0,-0.24687 -0.111019,-0.35346 -0.111019,-0.1066 -0.37232,-0.1066 h -0.154344 l -0.30598,1.62843 z m 0.35472,-1.86126 q 0.369612,0 0.552388,0.17392 0.184129,0.17392 0.184129,0.52739 0,0.22722 -0.05687,0.46846 -0.05687,0.24125 -0.152989,0.4278 -0.140805,0.2679 -0.352013,0.38292 -0.209852,0.11361 -0.568634,0.11361 h -0.41023 l 0.393983,-2.0941 z m 1.370139,1.09404 -0.144867,0.76722 h 0.335765 q 0.249117,0 0.380445,-0.12203 0.132681,-0.12203 0.132681,-0.35205 0,-0.15008 -0.09207,-0.22161 -0.09207,-0.0716 -0.285672,-0.0716 z m 0.159759,-0.86121 -0.119143,0.63118 h 0.33035 q 0.204438,0 0.320873,-0.10097 0.117789,-0.1024 0.117789,-0.28053 0,-0.13184 -0.07582,-0.19075 -0.07446,-0.0589 -0.243701,-0.0589 z m -0.230162,-0.23283 h 0.599775 q 0.27484,0 0.415645,0.1122 0.140805,0.11082 0.140805,0.32681 0,0.216 -0.124559,0.36188 -0.124557,0.14446 -0.335765,0.17252 0.169237,0.0323 0.258594,0.14307 0.09071,0.1108 0.09071,0.28473 0,0.32821 -0.216623,0.51054 -0.215269,0.18235 -0.609252,0.18235 h -0.61196 z m 2.240693,0.23564 -0.492817,1.08562 h 0.582174 z m -0.129974,-0.23564 h 0.333058 l 0.224746,2.0941 h -0.272132 l -0.04739,-0.54562 h -0.704024 l -0.249116,0.54562 h -0.293795 z m 2.082289,2.01976 q -0.113728,0.0575 -0.230163,0.0856 -0.115081,0.0294 -0.238285,0.0294 -0.311395,0 -0.48334,-0.18655 -0.17059,-0.18655 -0.17059,-0.52317 0,-0.30857 0.09477,-0.61154 0.09477,-0.30297 0.249117,-0.49512 0.144866,-0.18234 0.319518,-0.2693 0.174653,-0.0869 0.398045,-0.0869 0.108312,0 0.215269,0.0294 0.106958,0.0294 0.2085,0.0856 l -0.05551,0.29034 q -0.08665,-0.0884 -0.182776,-0.13184 -0.09613,-0.0435 -0.204438,-0.0435 -0.128619,0 -0.238285,0.0575 -0.109665,0.0561 -0.205792,0.17253 -0.140805,0.17252 -0.227453,0.44182 -0.0853,0.2693 -0.0853,0.54 0,0.24265 0.105604,0.37169 0.105602,0.12904 0.304625,0.12904 0.115081,0 0.236931,-0.0449 0.123205,-0.0449 0.242347,-0.13044 z m 0.774426,-2.01976 h 0.273486 l -0.171945,0.90749 1.004589,-0.90749 h 0.343889 l -0.951787,0.86821 0.579466,1.22589 h -0.296502 l -0.487401,-1.03934 -0.261301,0.23564 -0.151637,0.8037 h -0.27484 z"
     id="text50"
     aria-label="FEEDBACK" /><path
     style="font-style:italic;font-size:2.82222px;font-family:Menlo;-inkscape-font-specification:'Menlo Italic';text-align:center;text-anchor:middle;fill:#000000;stroke-width:0.352778;stroke-linejoin:round"
     d="m 43.162054,117.6912 -0.147574,0.78686 h 0.316811 q 0.223393,0 0.356073,-0.13324 0.134036,-0.13465 0.134036,-0.35767 0,-0.15148 -0.08394,-0.22301 -0.08394,-0.073 -0.259947,-0.073 z m -0.230161,-0.23283 h 0.595712 q 0.278903,0 0.425123,0.12904 0.146221,0.12904 0.146221,0.37309 0,0.34926 -0.216623,0.54983 -0.216623,0.20056 -0.595714,0.20056 h -0.315456 l -0.158406,0.84158 h -0.27484 z m 1.885972,1.90474 q 0.115082,0 0.212561,-0.0716 0.09748,-0.0716 0.161114,-0.20478 0.100188,-0.20338 0.162467,-0.49232 0.06228,-0.28894 0.06228,-0.55544 0,-0.19917 -0.07176,-0.29313 -0.0704,-0.0954 -0.219331,-0.0954 -0.11508,0 -0.211207,0.0716 -0.09613,0.0716 -0.159759,0.20478 -0.102896,0.20618 -0.165176,0.49231 -0.06228,0.28614 -0.06228,0.55263 0,0.20058 0.07041,0.29596 0.07176,0.0954 0.220684,0.0954 z m 0.878677,-1.24131 q 0,0.15429 -0.03113,0.33523 -0.02979,0.18094 -0.088,0.37169 -0.03926,0.12904 -0.0853,0.23143 -0.04467,0.10239 -0.09748,0.18515 -0.119143,0.17813 -0.266717,0.26369 -0.147574,0.0842 -0.343889,0.0842 -0.272132,0 -0.40346,-0.17252 -0.131327,-0.17252 -0.131327,-0.53158 0,-0.1557 0.02843,-0.33383 0.02979,-0.17954 0.088,-0.37029 0.03926,-0.12904 0.08394,-0.23144 0.04603,-0.10238 0.09883,-0.18514 0.119142,-0.17813 0.266716,-0.26229 0.147575,-0.0856 0.34389,-0.0856 0.273485,0 0.404813,0.17253 0.132682,0.17112 0.132682,0.52878 z m 1.663934,-0.5919 -0.0528,0.28754 q -0.109666,-0.0828 -0.227455,-0.12484 -0.117788,-0.042 -0.2437,-0.042 -0.223392,0 -0.364197,0.11501 -0.140805,0.11502 -0.140805,0.29315 0,0.0995 0.06634,0.16129 0.06634,0.0617 0.240992,0.11783 l 0.163822,0.0547 q 0.220684,0.0701 0.322226,0.18795 0.102896,0.11641 0.102896,0.29735 0,0.32961 -0.224747,0.52317 -0.224746,0.19216 -0.613312,0.19216 -0.140805,0 -0.277549,-0.0323 -0.135389,-0.0308 -0.270779,-0.0939 l 0.05551,-0.29315 q 0.132682,0.0968 0.268071,0.14307 0.136743,0.0463 0.288379,0.0463 0.223392,0 0.362843,-0.12343 0.139451,-0.12342 0.139451,-0.31278 0,-0.11502 -0.05957,-0.17813 -0.05957,-0.0631 -0.239639,-0.12063 l -0.136743,-0.0463 q -0.249117,-0.0813 -0.349304,-0.18375 -0.09884,-0.10378 -0.09884,-0.2735 0,-0.30998 0.223393,-0.50635 0.223392,-0.19776 0.583527,-0.19776 0.108312,0 0.230162,0.0281 0.123205,0.0281 0.251824,0.0813 z"
     id="text51"
     aria-label="POS" /><path
     style="font-style:italic;font-size:2.82222px;font-family:Menlo;-inkscape-font-specification:'Menlo Italic';text-align:center;text-anchor:middle;fill:#000000;stroke-width:0.352778;stroke-linejoin:round"
     d="m 58.505447,117.45837 h 0.346597 l 0.357427,1.72381 0.323581,-1.72381 h 0.26401 l -0.393983,2.0941 h -0.346597 l -0.357428,-1.72381 -0.324934,1.72381 h -0.262656 z m 1.963145,1.90474 q 0.115081,0 0.212562,-0.0716 0.09748,-0.0716 0.161112,-0.20478 0.100189,-0.20338 0.162468,-0.49232 0.06228,-0.28894 0.06228,-0.55544 0,-0.19917 -0.07176,-0.29313 -0.0704,-0.0954 -0.21933,-0.0954 -0.115081,0 -0.211207,0.0716 -0.09613,0.0716 -0.15976,0.20478 -0.102896,0.20618 -0.165174,0.49231 -0.06228,0.28614 -0.06228,0.55263 0,0.20058 0.07041,0.29596 0.07176,0.0954 0.220684,0.0954 z m 0.878677,-1.24131 q 0,0.15429 -0.03113,0.33523 -0.02979,0.18094 -0.088,0.37169 -0.03926,0.12904 -0.0853,0.23143 -0.04468,0.10239 -0.09748,0.18515 -0.119143,0.17813 -0.266717,0.26369 -0.147575,0.0842 -0.343889,0.0842 -0.272132,0 -0.40346,-0.17252 -0.131328,-0.17252 -0.131328,-0.53158 0,-0.1557 0.02843,-0.33383 0.02979,-0.17954 0.088,-0.37029 0.03926,-0.12904 0.08394,-0.23144 0.04603,-0.10238 0.09884,-0.18514 0.119142,-0.17813 0.266717,-0.26229 0.147574,-0.0856 0.343888,-0.0856 0.273487,0 0.404815,0.17253 0.132681,0.17112 0.132681,0.52878 z m 0.54968,1.19783 q 0.25047,0 0.402106,-0.0869 0.151636,-0.0883 0.243701,-0.28613 0.07311,-0.1613 0.119143,-0.38432 0.04739,-0.22441 0.04739,-0.41096 0,-0.24687 -0.111021,-0.35346 -0.111019,-0.1066 -0.37232,-0.1066 H 62.0716 l -0.30598,1.62843 z m 0.35472,-1.86126 q 0.369613,0 0.552388,0.17392 0.18413,0.17392 0.18413,0.52739 0,0.22722 -0.05687,0.46846 -0.05687,0.24125 -0.152991,0.4278 -0.140804,0.2679 -0.352011,0.38292 -0.209854,0.11361 -0.568636,0.11361 H 61.44745 l 0.393983,-2.0941 z m 1.341708,0 h 1.198196 l -0.04467,0.23844 H 63.82084 l -0.116435,0.61996 h 0.884092 l -0.04333,0.23844 H 63.65972 l -0.140805,0.75881 h 0.950433 l -0.04467,0.23845 h -1.225274 z"
     id="text52"
     aria-label="NODE" /><path
     style="font-style:italic;font-size:2.82222px;font-family:Menlo;-inkscape-font-specification:'Menlo Italic';text-align:center;text-anchor:middle;fill:#000000;stroke-width:0.352778;stroke-linejoin:round"
     d="m 8.845756,83.387372 h 1.190072 l -0.044678,0.238444 H 9.0759178 L 8.959483,84.242966 H 9.7880655 L 9.7447415,84.48141 H 8.9148045 L 8.7266134,85.481471 H 8.4517732 Z m 1.46085,0 h 0.364198 l 0.148928,1.060375 0.560512,-1.060375 h 0.365551 l -0.393983,2.094099 h -0.251824 l 0.349305,-1.861265 -0.58759,1.115077 h -0.190899 l -0.155698,-1.115077 -0.346597,1.861265 H 9.9166853 Z"
     id="text53"
     aria-label="FM" /><path
     style="font-style:italic;font-size:2.82222px;font-family:Menlo;-inkscape-font-specification:'Menlo Italic';text-align:center;text-anchor:middle;fill:#000000;stroke-width:0.352778;stroke-linejoin:round"
     d="m 23.726942,80.104654 -0.147574,0.786865 h 0.316811 q 0.223392,0 0.356073,-0.133248 0.134036,-0.134651 0.134036,-0.357666 0,-0.151482 -0.08394,-0.223016 -0.08394,-0.07294 -0.259947,-0.07294 z M 23.496781,79.87182 h 0.595712 q 0.278903,0 0.425123,0.129041 0.14622,0.12904 0.14622,0.373095 0,0.34925 -0.216623,0.549823 -0.216622,0.200573 -0.595713,0.200573 h -0.315456 l -0.158407,0.841568 h -0.274839 z m 1.589469,0 h 0.273487 l -0.15976,0.858399 h 0.748704 l 0.159758,-0.858399 h 0.274841 l -0.393983,2.0941 h -0.273486 l 0.188191,-0.997257 h -0.751411 l -0.185483,0.997257 h -0.274841 z m 2.28131,0.235639 -0.492817,1.085622 h 0.582174 z M 27.237586,79.87182 h 0.333058 l 0.224747,2.0941 h -0.272133 l -0.04738,-0.545616 h -0.704029 l -0.249117,0.545616 h -0.293795 z m 2.357128,0.07153 -0.0528,0.287536 q -0.109666,-0.08275 -0.227454,-0.124833 -0.11779,-0.04208 -0.243701,-0.04208 -0.223392,0 -0.364197,0.115014 -0.140805,0.115014 -0.140805,0.293146 0,0.09959 0.06634,0.1613 0.06634,0.06171 0.240992,0.117821 l 0.163821,0.0547 q 0.220685,0.07013 0.322227,0.18795 0.102896,0.116417 0.102896,0.297354 0,0.329614 -0.224747,0.523174 -0.224746,0.192158 -0.613313,0.192158 -0.140805,0 -0.277548,-0.03226 -0.13539,-0.03086 -0.270778,-0.09398 l 0.05551,-0.293145 q 0.132682,0.09678 0.26807,0.143066 0.136744,0.04629 0.28838,0.04629 0.223392,0 0.362843,-0.123431 0.139451,-0.123429 0.139451,-0.312782 0,-0.115014 -0.05957,-0.178132 -0.05957,-0.06312 -0.239638,-0.120624 l -0.136743,-0.04629 q -0.249117,-0.08136 -0.349304,-0.183743 -0.09884,-0.103793 -0.09884,-0.273509 0,-0.309977 0.223393,-0.506343 0.223392,-0.197768 0.583527,-0.197768 0.108312,0 0.230162,0.02805 0.123205,0.02805 0.251824,0.08136 z m 0.582174,-0.07153 h 1.198195 l -0.04467,0.238445 H 30.40435 l -0.116435,0.619954 h 0.884092 l -0.04333,0.238444 h -0.885448 l -0.140805,0.758813 h 0.950433 l -0.04467,0.238444 h -1.225273 z"
     id="text54"
     aria-label="PHASE" /><path
     style="font-style:italic;font-size:2.82222px;font-family:Menlo;-inkscape-font-specification:'Menlo Italic';text-align:center;text-anchor:middle;fill:#000000;stroke-width:0.352778;stroke-linejoin:round"
     d="m 41.517752,79.943353 -0.0528,0.287536 q -0.109665,-0.08275 -0.227454,-0.124833 -0.117788,-0.04208 -0.243701,-0.04208 -0.223392,0 -0.364197,0.115014 -0.140804,0.115014 -0.140804,0.293146 0,0.09959 0.06634,0.1613 0.06634,0.06171 0.240993,0.117821 l 0.163822,0.0547 q 0.220685,0.07013 0.322226,0.18795 0.102896,0.116417 0.102896,0.297354 0,0.329614 -0.224746,0.523174 -0.224746,0.192158 -0.613314,0.192158 -0.140805,0 -0.277547,-0.03226 -0.13539,-0.03086 -0.27078,-0.09398 l 0.05551,-0.293145 q 0.13268,0.09678 0.26807,0.143066 0.136743,0.04629 0.288379,0.04629 0.223392,0 0.362844,-0.123431 0.139451,-0.123429 0.139451,-0.312782 0,-0.115014 -0.05957,-0.178132 -0.05957,-0.06312 -0.239638,-0.120624 l -0.136744,-0.04629 q -0.249116,-0.08136 -0.349305,-0.183743 -0.09883,-0.103793 -0.09883,-0.273509 0,-0.309977 0.223393,-0.506343 0.223392,-0.197768 0.583528,-0.197768 0.108311,0 0.230161,0.02805 0.123204,0.02805 0.251825,0.08136 z m 0.809627,0.161301 -0.147574,0.786865 h 0.316811 q 0.223393,0 0.356073,-0.133248 0.134036,-0.134651 0.134036,-0.357666 0,-0.151482 -0.08394,-0.223016 -0.08394,-0.07294 -0.259947,-0.07294 z M 42.097218,79.87182 h 0.595712 q 0.278903,0 0.425123,0.129041 0.146221,0.12904 0.146221,0.373095 0,0.34925 -0.216623,0.549823 -0.216623,0.200573 -0.595714,0.200573 h -0.315456 l -0.158406,0.841568 h -0.27484 z m 2.2434,1.105258 q 0.09748,0.01963 0.155698,0.09398 0.05957,0.07434 0.132681,0.322601 l 0.163822,0.572265 H 44.520686 L 44.377173,81.43714 q -0.05957,-0.218808 -0.134035,-0.287536 -0.07311,-0.06872 -0.222038,-0.06872 h -0.259948 l -0.166529,0.885048 h -0.27484 l 0.391275,-2.0941 h 0.563219 q 0.280256,0 0.433246,0.126236 0.154344,0.124832 0.154344,0.353458 0,0.256678 -0.140805,0.424991 -0.139451,0.168314 -0.380444,0.200573 z m -0.396691,-0.872424 -0.138096,0.743384 h 0.296502 q 0.220685,0 0.352012,-0.119222 0.132682,-0.120624 0.132682,-0.319796 0,-0.157092 -0.0853,-0.230028 -0.0853,-0.07434 -0.269426,-0.07434 z m 1.494699,-0.232834 h 1.198195 l -0.04468,0.238445 h -0.926062 l -0.116435,0.619954 h 0.884092 l -0.04333,0.238444 h -0.885447 l -0.140804,0.758813 h 0.950433 l -0.04468,0.238444 h -1.225273 z m 2.198722,0.235639 -0.492818,1.085622 h 0.582174 z M 47.507373,79.87182 h 0.333058 l 0.224747,2.0941 h -0.272133 l -0.04739,-0.545616 H 47.04163 L 46.792515,81.96592 H 46.49872 Z m 1.242874,1.861267 q 0.25047,0 0.402106,-0.08696 0.151636,-0.08837 0.243701,-0.286132 0.07311,-0.161301 0.119143,-0.384317 0.04739,-0.224416 0.04739,-0.410964 0,-0.24686 -0.11102,-0.353459 -0.111019,-0.106598 -0.37232,-0.106598 h -0.154344 l -0.30598,1.628433 z m 0.35472,-1.861267 q 0.369613,0 0.552388,0.173924 0.18413,0.173924 0.18413,0.527383 0,0.227223 -0.05687,0.468472 -0.05687,0.241249 -0.15299,0.427797 -0.140805,0.267899 -0.352011,0.382913 -0.209854,0.113611 -0.568636,0.113611 h -0.410229 l 0.393983,-2.0941 z"
     id="text55"
     aria-label="SPREAD" /><path
     style="font-style:italic;font-size:2.82222px;font-family:Menlo;-inkscape-font-specification:'Menlo Italic';text-align:center;text-anchor:middle;fill:#000000;stroke-width:0.352778;stroke-linejoin:round"
     d="m 55.090929,79.87182 h 0.364197 l 0.14893,1.060375 0.560511,-1.060375 h 0.365551 l -0.393983,2.0941 h -0.251824 l 0.349304,-1.861266 -0.587589,1.115077 h -0.1909 l -0.155697,-1.115077 -0.346596,1.861266 h -0.251824 z m 1.515007,1.290403 0.240993,-1.290403 h 0.27484 l -0.242346,1.290403 q -0.0028,0.01824 -0.01083,0.05751 -0.04062,0.216002 -0.04062,0.298756 0,0.12904 0.07311,0.19356 0.07446,0.06452 0.223393,0.06452 0.120497,0 0.204438,-0.03928 0.08394,-0.04067 0.144866,-0.127639 0.02979,-0.04348 0.05957,-0.148677 0.03113,-0.106598 0.06769,-0.298756 l 0.240993,-1.290403 h 0.274841 l -0.240991,1.290408 q -0.05686,0.307173 -0.12185,0.451641 -0.06364,0.143067 -0.169236,0.231431 -0.09613,0.07855 -0.219331,0.120625 -0.123204,0.04067 -0.266717,0.04067 -0.259948,0 -0.400752,-0.126236 -0.139451,-0.126235 -0.139451,-0.359068 0,-0.0519 0.01083,-0.140261 0.01218,-0.08837 0.03656,-0.218808 z m 2.013238,-1.290403 h 0.273487 l -0.349305,1.855656 h 0.976157 l -0.04468,0.238444 h -1.249639 z m 1.431066,0 h 1.543437 l -0.04468,0.238445 H 60.914021 L 60.567425,81.96592 H 60.29123 l 0.349305,-1.855655 h -0.63497 z m 1.876495,0 h 1.123731 l -0.04468,0.238445 H 62.58066 l -0.301918,1.617211 h 0.425122 l -0.04468,0.238444 H 61.53545 l 0.04468,-0.238444 h 0.423768 l 0.303271,-1.617211 h -0.425121 z m 1.894096,0.232834 -0.147574,0.786865 h 0.31681 q 0.223393,0 0.356074,-0.133248 0.134036,-0.134651 0.134036,-0.357666 0,-0.151482 -0.08394,-0.223016 -0.08394,-0.07294 -0.259948,-0.07294 z M 63.590669,79.87182 h 0.595713 q 0.278901,0 0.425122,0.129041 0.14622,0.12904 0.14622,0.373095 0,0.34925 -0.216622,0.549823 -0.216623,0.200573 -0.595713,0.200573 h -0.315457 l -0.158406,0.841568 h -0.274839 z m 1.705906,0 h 0.273486 l -0.349304,1.855656 h 0.976157 l -0.04468,0.238444 h -1.249639 z m 1.433772,0 h 0.273487 l 0.319518,0.9131 0.672885,-0.9131 h 0.295149 l -0.859723,1.15435 -0.174651,0.93975 h -0.280256 l 0.17736,-0.93975 z"
     id="text56"
     aria-label="MULTIPLY" /><path
     style="font-style:italic;font-size:2.82222px;font-family:Menlo;-inkscape-font-specification:'Menlo Italic';text-align:center;text-anchor:middle;fill:#000000;stroke-width:0.352778;stroke-linejoin:round"
     d="M 8.3417623,61.076724 8.2889609,61.36426 Q 8.1792956,61.28151 8.0615069,61.239428 7.9437182,61.19735 7.8178061,61.19735 q -0.2233923,0 -0.3641971,0.115015 -0.1408049,0.115014 -0.1408049,0.293145 0,0.09958 0.066341,0.161301 0.066341,0.06171 0.2409929,0.117819 l 0.163821,0.0547 q 0.2206846,0.07013 0.3222266,0.18795 0.1028958,0.116417 0.1028958,0.297354 0,0.329614 -0.2247462,0.523175 -0.2247462,0.192157 -0.6133135,0.192157 -0.1408049,0 -0.277548,-0.03225 -0.1353893,-0.03086 -0.2707786,-0.09398 l 0.05551,-0.293146 q 0.1326815,0.09678 0.2680708,0.143066 0.1367432,0.04629 0.2883791,0.04629 0.2233924,0 0.3628434,-0.123429 0.1394509,-0.123431 0.1394509,-0.312783 0,-0.115015 -0.059572,-0.178131 -0.059572,-0.06312 -0.2396391,-0.120626 l -0.1367437,-0.04629 q -0.2491164,-0.08135 -0.3493044,-0.183742 -0.098834,-0.103793 -0.098834,-0.273509 0,-0.309977 0.2233923,-0.506343 0.2233923,-0.197769 0.5835279,-0.197769 0.1083114,0 0.2301617,0.02805 0.1232043,0.02805 0.2518243,0.08135 z m 0.380444,-0.07153 h 0.2734863 l 0.3195187,0.913101 0.6728848,-0.913101 h 0.2951489 l -0.8597222,1.15435 -0.1746522,0.93975 H 8.9686147 l 0.17736,-0.93975 z m 1.7912007,0 h 0.346596 l 0.357428,1.72381 0.323581,-1.72381 h 0.264009 l -0.393983,2.0941 h -0.346597 l -0.357428,-1.723814 -0.324934,1.723811 h -0.262655 z m 2.561566,2.019761 q -0.113727,0.05751 -0.230161,0.08556 -0.115081,0.02946 -0.238286,0.02946 -0.311395,0 -0.483339,-0.186548 -0.170591,-0.186547 -0.170591,-0.523174 0,-0.308575 0.09477,-0.611539 0.09477,-0.302964 0.249116,-0.495122 0.144867,-0.18234 0.319518,-0.269301 0.174653,-0.08696 0.398045,-0.08696 0.108311,0 0.215269,0.02946 0.106958,0.02946 0.2085,0.08556 l -0.05551,0.290341 q -0.08665,-0.08837 -0.182776,-0.131845 -0.09613,-0.04348 -0.204437,-0.04348 -0.12862,0 -0.238286,0.05751 -0.109665,0.0561 -0.205791,0.172522 -0.140805,0.17252 -0.227455,0.441822 -0.0853,0.269301 -0.0853,0.540006 0,0.242651 0.105603,0.371691 0.105604,0.129041 0.304626,0.129041 0.115081,0 0.236932,-0.04489 0.123204,-0.04489 0.242346,-0.130444 z"
     id="text57"
     aria-label="SYNC" /><path
     d="M 10.040952,99.733337 V 113.17197"
     style="clip-rule:evenodd;fill:none;fill-rule:evenodd;stroke:#000000;stroke-width:0.264017px;stroke-linecap:square;stroke-linejoin:round;stroke-miterlimit:1.5"
     id="path57"
     sodipodi:nodetypes="cc" /><path
     d="M 27.251512,99.733337 V 113.17197"
     style="clip-rule:evenodd;fill:none;fill-rule:evenodd;stroke:#000000;stroke-width:0.264017px;stroke-linecap:square;stroke-linejoin:round;stroke-miterlimit:1.5"
     id="path58"
     sodipodi:nodetypes="cc" /><path
     d="M 44.393346,99.733337 V 113.17197"
     style="clip-rule:evenodd;fill:none;fill-rule:evenodd;stroke:#000000;stroke-width:0.264017px;stroke-linecap:square;stroke-linejoin:round;stroke-miterlimit:1.5"
     id="path59"
     sodipodi:nodetypes="cc" /><path
     d="M 61.408008,99.476423 V 113.42889"
     style="clip-rule:evenodd;fill:none;fill-rule:evenodd;stroke:#000000;stroke-width:0.264017px;stroke-linecap:square;stroke-linejoin:round;stroke-miterlimit:1.5"
     id="path60"
     sodipodi:nodetypes="cc" /><path
     style="font-style:italic;font-size:2.82223px;font-family:Menlo;-inkscape-font-specification:'Menlo Italic';text-align:center;text-anchor:middle;fill:#ffffff;stroke-width:0.352778;stroke-linejoin:round"
     d="m 58.545884,38.977539 q 0.117134,0 0.216353,-0.07028 0.09922,-0.07028 0.163987,-0.201194 0.101975,-0.199816 0.165365,-0.483692 0.06339,-0.283877 0.06339,-0.545705 0,-0.195682 -0.07304,-0.288011 -0.07166,-0.09371 -0.223242,-0.09371 -0.117134,0 -0.214975,0.07028 -0.09784,0.07028 -0.162609,0.201194 -0.104731,0.202573 -0.168121,0.483693 -0.06339,0.281121 -0.06339,0.542949 0,0.19706 0.07166,0.290767 0.07304,0.09371 0.224621,0.09371 z m 0.894349,-1.219568 q 0,0.151585 -0.03169,0.329352 -0.03032,0.177768 -0.08957,0.365182 -0.03996,0.126779 -0.08682,0.227376 -0.04547,0.100598 -0.09922,0.181902 -0.121268,0.175011 -0.271474,0.259072 -0.150207,0.08268 -0.350023,0.08268 -0.276986,0 -0.410656,-0.169499 -0.133671,-0.169499 -0.133671,-0.522278 0,-0.152962 0.02894,-0.327974 0.03032,-0.176389 0.08957,-0.363803 0.03996,-0.12678 0.08544,-0.227377 0.04685,-0.100597 0.100597,-0.181901 0.121267,-0.175012 0.271474,-0.257694 0.150207,-0.08406 0.350023,-0.08406 0.278364,0 0.412034,0.169499 0.135048,0.168122 0.135048,0.519522 z m 0.271475,0.615985 0.245291,-1.267799 h 0.279743 l -0.24667,1.267799 q -0.0028,0.01792 -0.01102,0.0565 -0.04134,0.212218 -0.04134,0.293523 0,0.12678 0.07441,0.19017 0.07579,0.06339 0.227377,0.06339 0.122646,0 0.208084,-0.03859 0.08544,-0.03996 0.147451,-0.125401 0.03032,-0.04272 0.06063,-0.146073 0.03169,-0.104731 0.0689,-0.293523 l 0.245291,-1.267799 h 0.279743 l -0.245292,1.267799 q -0.05788,0.301791 -0.124024,0.44373 -0.06477,0.14056 -0.172255,0.227377 -0.09784,0.07717 -0.223243,0.118511 -0.125402,0.03996 -0.271474,0.03996 -0.264584,0 -0.4079,-0.124023 -0.141939,-0.124024 -0.141939,-0.352779 0,-0.05099 0.01102,-0.137804 0.0124,-0.08682 0.03721,-0.214975 z m 1.806613,-1.267799 h 1.570968 l -0.04548,0.234268 h -0.646301 l -0.352779,1.823149 h -0.281121 l 0.355535,-1.823149 h -0.646298 z m 3.013778,0.07028 -0.05374,0.282498 q -0.111621,-0.0813 -0.231511,-0.122646 -0.119889,-0.04134 -0.248047,-0.04134 -0.227377,0 -0.370694,0.113 -0.143316,0.112999 -0.143316,0.28801 0,0.09784 0.06752,0.158475 0.06752,0.06063 0.245292,0.115756 l 0.166743,0.05374 q 0.224621,0.0689 0.327974,0.184658 0.104731,0.114378 0.104731,0.292145 0,0.32384 -0.228755,0.51401 -0.228755,0.188791 -0.624253,0.188791 -0.143317,0 -0.282499,-0.03169 -0.137804,-0.03032 -0.275608,-0.09233 l 0.0565,-0.288011 q 0.135048,0.09509 0.272852,0.14056 0.139182,0.04548 0.293523,0.04548 0.227377,0 0.369315,-0.121268 0.141938,-0.121268 0.141938,-0.307304 0,-0.112999 -0.06063,-0.175011 -0.06063,-0.06201 -0.243914,-0.118511 l -0.139182,-0.04548 q -0.25356,-0.07993 -0.355535,-0.180523 -0.100597,-0.101975 -0.100597,-0.268719 0,-0.304547 0.227377,-0.497473 0.227377,-0.194304 0.593936,-0.194304 0.110243,0 0.234267,0.02756 0.125402,0.02756 0.256316,0.07993 z"
     id="text60"
     aria-label="OUTS" /><path
     d="M 27.251512,61.879583 V 75.318216"
     style="clip-rule:evenodd;fill:none;fill-rule:evenodd;stroke:#000000;stroke-width:0.264017px;stroke-linecap:square;stroke-linejoin:round;stroke-miterlimit:1.5;stroke-opacity:1.0"
     id="path61"
     sodipodi:nodetypes="cc" /><path
     d="M 44.393346,61.879583 V 75.318216"
     style="clip-rule:evenodd;fill:none;fill-rule:evenodd;stroke:#000000;stroke-width:0.264017px;stroke-linecap:square;stroke-linejoin:round;stroke-miterlimit:1.5;stroke-opacity:1.0"
     id="path62"
     sodipodi:nodetypes="cc" /><path
     d="M 61.408008,61.622669 V 75.575136"
     style="clip-rule:evenodd;fill:none;fill-rule:evenodd;stroke:#000000;stroke-width:0.264017px;stroke-linecap:square;stroke-linejoin:round;stroke-miterlimit:1.5;stroke-opacity:1.0"
     id="path63"
     sodipodi:nodetypes="cc" /><path
     d="m 10.040952,71.305037 v 9.771141"
     style="clip-rule:evenodd;fill:none;fill-rule:evenodd;stroke:#000000;stroke-width:0.264017px;stroke-linecap:square;stroke-linejoin:round;stroke-miterlimit:1.5"
     id="path64"
     sodipodi:nodetypes="cc" /><path
     d="M 10.040952,47.062915 V 57.75093"
     style="clip-rule:evenodd;fill:none;fill-rule:evenodd;stroke:#000000;stroke-width:0.264017px;stroke-linecap:square;stroke-linejoin:round;stroke-miterlimit:1.5;stroke-opacity:1.0"
     id="path65"
     sodipodi:nodetypes="cc" /><text
     xml:space="preserve"
     style="font-style:italic;font-size:2.82223px;font-family:Menlo;-inkscape-font-specification:'Menlo Italic';text-align:center;text-anchor:middle;opacity:1;fill:#ffffff;fill-opacity:1;stroke:none;stroke-width:0.352777;stroke-linejoin:round;stroke-dasharray:none;stroke-opacity:1"
     x="37.417732"
     y="67.267838"
     id="text65"><tspan
       sodipodi:role="line"
       id="tspan65"
       style="stroke-width:0.352778"></tspan></text></svg>
