<?xml version="1.0" encoding="UTF-8" standalone="no"?>
<!-- Created with Inkscape (http://www.inkscape.org/) -->

<svg
   width="76.199997mm"
   height="128.5mm"
   viewBox="0 0 76.200002 128.50002"
   version="1.1"
   id="svg8"
   inkscape:version="1.2 (dc2aeda, 2022-05-15)"
   sodipodi:docname="Picus.svg"
   xml:space="preserve"
   xmlns:inkscape="http://www.inkscape.org/namespaces/inkscape"
   xmlns:sodipodi="http://sodipodi.sourceforge.net/DTD/sodipodi-0.dtd"
   xmlns="http://www.w3.org/2000/svg"
   xmlns:svg="http://www.w3.org/2000/svg"
   xmlns:rdf="http://www.w3.org/1999/02/22-rdf-syntax-ns#"
   xmlns:cc="http://creativecommons.org/ns#"
   xmlns:dc="http://purl.org/dc/elements/1.1/"><defs
     id="defs2" /><sodipodi:namedview
     id="base"
     pagecolor="#ffffff"
     bordercolor="#666666"
     borderopacity="1.0"
     inkscape:pageopacity="0.0"
     inkscape:pageshadow="2"
     inkscape:zoom="1.2222732"
     inkscape:cx="114.1316"
     inkscape:cy="239.71727"
     inkscape:document-units="mm"
     inkscape:current-layer="svg8"
     showgrid="false"
     units="mm"
     inkscape:snap-bbox="true"
     inkscape:snap-page="true"
     inkscape:bbox-nodes="false"
     inkscape:snap-bbox-edge-midpoints="false"
     inkscape:window-width="1062"
     inkscape:window-height="916"
     inkscape:window-x="460"
     inkscape:window-y="38"
     inkscape:window-maximized="0"
     inkscape:snap-bbox-midpoints="true"
     inkscape:snap-nodes="false"
     inkscape:showpageshadow="2"
     inkscape:pagecheckerboard="0"
     inkscape:deskcolor="#d1d1d1"
     showguides="false" /><metadata
     id="metadata5"><rdf:RDF><cc:Work
         rdf:about=""><dc:format>image/svg+xml</dc:format><dc:type
           rdf:resource="http://purl.org/dc/dcmitype/StillImage" /></cc:Work></rdf:RDF></metadata><rect
     id="rect1"
     x="-0.065109253"
     y="-0.38949111"
     width="76.330215"
     height="129.29376"
     style="clip-rule:evenodd;fill:#e5e5e5;fill-rule:evenodd;stroke-width:0.431861;stroke-linejoin:round;stroke-miterlimit:1.5;fill-opacity:1" /><g
     id="g10544"
     transform="translate(-6.8427985)"><g
       id="g473"
       transform="translate(25.033328)"
       style="fill:#000000"><path
         id="path128"
         d="m 16.724247,125.9342 c 0.05984,0.1268 0.07943,0.25396 0.05842,0.38219 h -0.419235 c -0.0064,-0.0983 -0.02565,-0.1724 -0.05842,-0.22227 -0.05735,-0.089 -0.160997,-0.13357 -0.310597,-0.13357 -0.152449,0 -0.28602,0.0627 -0.4,0.18843 -0.114337,0.12538 -0.195192,0.30276 -0.242921,0.5325 -0.04809,0.22974 -0.03776,0.40143 0.0317,0.51612 0.0691,0.11433 0.175246,0.17133 0.318434,0.17133 0.147106,0 0.269635,-0.0492 0.367587,-0.14747 0.05378,-0.0524 0.105432,-0.13179 0.155298,-0.23722 h 0.415317 c -0.08264,0.22333 -0.213357,0.40463 -0.391452,0.54461 -0.178451,0.13927 -0.384328,0.20944 -0.617632,0.20944 -0.288513,0 -0.495815,-0.0944 -0.621906,-0.28317 -0.125379,-0.18985 -0.153162,-0.44986 -0.08442,-0.78076 0.07409,-0.35726 0.225468,-0.63295 0.453429,-0.82636 0.198753,-0.16848 0.424221,-0.2529 0.676403,-0.2529 0.337667,0 0.560642,0.11327 0.669992,0.3391 z"
         style="clip-rule:evenodd;opacity:1;fill:#000000;fill-rule:nonzero;stroke-width:0.356189;stroke-linejoin:round;stroke-miterlimit:1.5" /><path
         id="path129"
         d="m 17.652476,127.18869 0.764026,-1.55441 h 0.435619 l -1.110954,2.04667 h -0.396083 l -0.252181,-2.04667 h 0.448442 z"
         style="clip-rule:evenodd;opacity:1;fill:#000000;fill-rule:nonzero;stroke-width:0.356189;stroke-linejoin:round;stroke-miterlimit:1.5" /><path
         id="path130"
         d="m 20.435382,126.18139 -0.05877,0.27925 h -0.253963 l -0.253607,1.22031 h -0.386466 l 0.253606,-1.22031 h -0.216919 l 0.05842,-0.27925 h 0.212645 l 0.01995,-0.0972 c 0.03419,-0.16207 0.08406,-0.27355 0.149955,-0.33482 0.07551,-0.0905 0.220482,-0.13606 0.43562,-0.13606 0.02458,0 0.04666,7.1e-4 0.06625,0.002 0.01959,0.001 0.04666,0.004 0.08121,0.006 l -0.06803,0.32271 c -0.02102,-0.003 -0.05699,-0.005 -0.107569,-0.006 -0.05093,-10e-4 -0.08905,0.01 -0.113981,0.0345 -0.02493,0.0246 -0.03989,0.0516 -0.04559,0.0812 -0.0064,0.0299 -0.01532,0.0723 -0.02743,0.12787 z"
         style="clip-rule:evenodd;opacity:1;fill:#000000;fill-rule:nonzero;stroke-width:0.356189;stroke-linejoin:round;stroke-miterlimit:1.5" /><path
         id="path131"
         d="m 21.342239,127.46759 c -0.0043,0.005 -0.01638,0.0185 -0.03562,0.0417 -0.01888,0.0232 -0.04025,0.0431 -0.06376,0.0609 -0.07266,0.0556 -0.139626,0.0933 -0.200891,0.11363 -0.06091,0.0203 -0.129653,0.0306 -0.206234,0.0306 -0.219412,0 -0.350846,-0.0801 -0.393232,-0.2415 -0.02386,-0.0887 -0.01745,-0.21977 0.01888,-0.39287 l 0.189492,-0.91256 h 0.397151 l -0.189136,0.91256 c -0.01817,0.0862 -0.02173,0.15066 -0.01104,0.19447 0.01923,0.0769 0.0805,0.11541 0.183794,0.11541 0.132502,0 0.234728,-0.0549 0.306678,-0.1642 0.03811,-0.0591 0.06732,-0.13749 0.08727,-0.23438 l 0.171327,-0.82386 h 0.393233 l -0.314515,1.51345 h -0.376849 z"
         style="clip-rule:evenodd;opacity:1;fill:#000000;fill-rule:nonzero;stroke-width:0.356189;stroke-linejoin:round;stroke-miterlimit:1.5" /><path
         id="path132"
         d="m 23.188368,126.76091 c 0.0171,-0.0798 0.01959,-0.14105 0.0068,-0.18344 -0.02173,-0.078 -0.08584,-0.11683 -0.193055,-0.11683 -0.13179,0 -0.234016,0.057 -0.306323,0.17062 -0.03847,0.0605 -0.06696,0.13749 -0.08584,0.23081 l -0.170259,0.81888 h -0.386465 l 0.314159,-1.51096 h 0.374711 l -0.04631,0.22084 c 0.0659,-0.0773 0.125023,-0.13357 0.177026,-0.16777 0.09225,-0.0613 0.200179,-0.0915 0.322352,-0.0915 0.153517,0 0.270347,0.0406 0.350846,0.12289 0.08014,0.0819 0.100801,0.21763 0.06162,0.40748 l -0.212289,1.01906 h -0.397507 z"
         style="clip-rule:evenodd;opacity:1;fill:#000000;fill-rule:nonzero;stroke-width:0.356189;stroke-linejoin:round;stroke-miterlimit:1.5" /><path
         id="path133"
         d="m 24.22844,127.20543 -0.09759,0.47552 h -0.381484 l 0.424934,-2.0399 h 0.381122 l -0.230454,1.10312 0.601959,-0.5699 h 0.480856 l -0.640072,0.57952 0.346928,0.92716 H 24.64625 l -0.220125,-0.64684 z"
         style="clip-rule:evenodd;opacity:1;fill:#000000;fill-rule:nonzero;stroke-width:0.356189;stroke-linejoin:round;stroke-miterlimit:1.5" /><path
         id="path134"
         d="m 7.443026,126.66688 h 6.622269"
         style="clip-rule:evenodd;opacity:1;fill:#000000;fill-rule:evenodd;stroke:#000000;stroke-width:0.227961px;stroke-linecap:round;stroke-linejoin:round;stroke-miterlimit:1.5" /><path
         id="path135"
         d="m 25.753642,126.66688 h 6.62227"
         style="clip-rule:evenodd;opacity:1;fill:#000000;fill-rule:evenodd;stroke:#000000;stroke-width:0.227961px;stroke-linecap:round;stroke-linejoin:round;stroke-miterlimit:1.5" /></g></g><rect
     style="clip-rule:evenodd;fill:#666666;fill-opacity:1;fill-rule:evenodd;stroke:#000000;stroke-width:0.35277778;stroke-linejoin:round;stroke-miterlimit:1.5;stroke-dasharray:none;stroke-opacity:1"
     id="rect2-9"
     width="13.532489"
     height="31.094898"
     x="109.53902"
     y="26.232512"
     rx="2.7377527"
     ry="2.7377527"
     transform="matrix(0,1,1,0,0,0)" /><g
     aria-label="PICUS"
     id="text828"
     style="font-style:italic;font-size:5.64444px;font-family:Menlo;-inkscape-font-specification:'Menlo Italic';text-align:center;text-anchor:middle;fill:#000000;stroke-width:0.352777;stroke-linecap:round;paint-order:fill markers stroke"><path
       d="M 31.063743,3.0753712 30.76333,4.6215288 h 0.644922 q 0.454752,0 0.724847,-0.261827 0.272852,-0.2645832 0.272852,-0.702799 0,-0.297656 -0.170877,-0.4382158 Q 32.064197,3.0753712 31.705908,3.0753712 Z M 30.59521,2.6178628 h 1.212673 q 0.567751,0 0.865407,0.2535589 0.297656,0.2535588 0.297656,0.7331157 0,0.6862625 -0.440972,1.0803811 -0.440972,0.3941187 -1.212673,0.3941187 h -0.642165 l -0.322461,1.6536446 h -0.559483 z"
       style="stroke-width:0.352778;fill:#000000"
       id="path5159" /><path
       d="m 34.004474,2.6178628 h 2.287541 l -0.09095,0.4685326 h -0.865407 l -0.614605,3.1777537 h 0.865407 l -0.09095,0.4685327 h -2.287542 l 0.09095,-0.4685327 h 0.862651 l 0.617361,-3.1777537 h -0.865408 z"
       style="stroke-width:0.352778;fill:#000000"
       id="path5161" /><path
       d="m 39.050846,6.5866098 q -0.23151,0.1129991 -0.468533,0.1681205 -0.234266,0.057878 -0.485069,0.057878 -0.633897,0 -0.983918,-0.3665579 -0.347266,-0.3665579 -0.347266,-1.0280157 0,-0.6063363 0.192925,-1.2016484 0.192926,-0.595312 0.507118,-0.9728942 0.2949,-0.3582897 0.650434,-0.5291663 0.355533,-0.1708766 0.810285,-0.1708766 0.220486,0 0.438216,0.057878 0.21773,0.057878 0.424436,0.1681205 l -0.112999,0.5705074 q -0.176389,-0.1736327 -0.37207,-0.259071 -0.195682,-0.085438 -0.416168,-0.085438 -0.261827,0 -0.485069,0.112999 -0.223242,0.110243 -0.418923,0.3389972 -0.286632,0.3389971 -0.46302,0.8681634 -0.173633,0.5291663 -0.173633,1.0610886 0,0.4768008 0.214974,0.7303597 0.214974,0.2535588 0.620116,0.2535588 0.234267,0 0.482313,-0.088194 0.250803,-0.088194 0.493338,-0.2563149 z"
       style="stroke-width:0.352778;fill:#000000"
       id="path5163" /><path
       d="m 40.1643,5.1534512 0.490582,-2.5355884 h 0.559483 l -0.493338,2.5355884 q -0.0055,0.035829 -0.02205,0.112999 -0.08268,0.4244355 -0.08268,0.5870438 0,0.2535589 0.148828,0.3803383 0.151584,0.1267794 0.454752,0.1267794 0.24529,0 0.416167,-0.07717 0.170877,-0.079926 0.2949,-0.2508027 0.06063,-0.085438 0.121267,-0.2921439 0.06339,-0.2094616 0.137804,-0.5870438 l 0.490581,-2.5355884 h 0.559483 l -0.490581,2.5355884 q -0.115755,0.6035802 -0.248047,0.8874559 -0.129535,0.2811196 -0.344509,0.4547523 -0.195681,0.1543401 -0.446484,0.2370224 -0.250803,0.079926 -0.542947,0.079926 -0.529166,0 -0.815798,-0.2480467 -0.283875,-0.2480467 -0.283875,-0.705555 0,-0.1019748 0.02205,-0.2756074 0.02481,-0.1736327 0.07441,-0.4299476 z"
       style="stroke-width:0.352778;fill:#000000"
       id="path5165" /><path
       d="M 46.406808,2.7584226 46.299321,3.3234178 Q 46.076079,3.1608095 45.836301,3.0781272 45.596522,2.995445 45.340207,2.995445 q -0.454752,0 -0.741384,0.2259981 -0.286631,0.2259981 -0.286631,0.5760195 0,0.1956813 0.135047,0.3169486 0.135048,0.1212672 0.490582,0.2315102 l 0.333485,0.1074869 q 0.44924,0.1378037 0.655945,0.369314 0.209462,0.2287541 0.209462,0.5842877 0,0.6476775 -0.457508,1.0280157 -0.457509,0.3775822 -1.248502,0.3775822 -0.286632,0 -0.564995,-0.06339 -0.275608,-0.060634 -0.551215,-0.184657 l 0.112999,-0.5760195 q 0.270095,0.1901691 0.545703,0.2811196 0.278363,0.09095 0.587043,0.09095 0.454753,0 0.738628,-0.2425345 0.283876,-0.2425346 0.283876,-0.6146046 0,-0.2259981 -0.121267,-0.3500214 Q 45.340207,5.0294278 44.97365,4.9164288 l -0.278364,-0.09095 Q 44.188168,4.665626 43.984219,4.4644326 43.783025,4.2604831 43.783025,3.9269981 q 0,-0.6090924 0.454753,-0.9949428 0.454752,-0.3886065 1.187868,-0.3886065 0.220486,0 0.468532,0.055121 0.250803,0.055121 0.51263,0.1598523 z"
       style="stroke-width:0.352778;fill:#000000"
       id="path5167" /></g><rect
     style="clip-rule:evenodd;fill:#212121;fill-opacity:1;fill-rule:evenodd;stroke:#000000;stroke-width:0.35277778;stroke-linejoin:round;stroke-miterlimit:1.5;stroke-dasharray:none;stroke-opacity:1"
     id="rect1111"
     width="66.2155"
     height="7.7872543"
     x="4.9922485"
     y="12.829243"
     ry="3.8056121"
     rx="3.8056118" /><g
     aria-label="CLOCK"
     id="text1194"
     style="font-style:italic;font-size:2.82222px;font-family:Menlo;-inkscape-font-specification:'Menlo Italic';text-align:center;text-anchor:middle;fill:#000000;stroke-width:0.352777;stroke-linecap:round;paint-order:fill markers stroke"
     transform="translate(0,-1.0783806)"><path
       d="m 3.5823326,122.51625 q -0.1157552,0.0565 -0.2342665,0.0841 -0.1171332,0.0289 -0.2425347,0.0289 -0.3169488,0 -0.4919596,-0.18328 -0.1736328,-0.18328 -0.1736328,-0.51401 0,-0.30317 0.096463,-0.60082 0.096463,-0.29766 0.2535591,-0.48645 0.14745,-0.17914 0.325217,-0.26458 0.1777669,-0.0854 0.4051432,-0.0854 0.1102431,0 0.2191081,0.0289 0.108865,0.0289 0.2122179,0.0841 l -0.0565,0.28525 q -0.088195,-0.0868 -0.1860352,-0.12953 -0.097841,-0.0427 -0.2080837,-0.0427 -0.1309137,0 -0.2425348,0.0565 -0.111621,0.0551 -0.2094618,0.1695 -0.1433159,0.16949 -0.2315104,0.43408 -0.086816,0.26458 -0.086816,0.53054 0,0.2384 0.107487,0.36518 0.107487,0.12678 0.3100586,0.12678 0.1171332,0 0.2411567,-0.0441 0.1254014,-0.0441 0.2466688,-0.12815 z"
       style="stroke-width:0.352778;fill:#000000"
       id="path5129" /><path
       d="m 4.4890818,120.53188 h 0.2783637 l -0.3555339,1.82314 h 0.9935656 l -0.045475,0.23427 H 4.0880727 Z"
       style="stroke-width:0.352778;fill:#000000"
       id="path5131" /><path
       d="m 6.371482,122.40325 q 0.1171332,0 0.216352,-0.0703 0.099219,-0.0703 0.1639865,-0.20119 0.1019748,-0.19982 0.1653646,-0.48369 0.06339,-0.28388 0.06339,-0.54571 0,-0.19568 -0.073036,-0.28801 -0.071658,-0.0937 -0.2232422,-0.0937 -0.1171332,0 -0.2149739,0.0703 -0.097841,0.0703 -0.1626085,0.20119 -0.1047309,0.20257 -0.1681207,0.48369 -0.06339,0.28112 -0.06339,0.54295 0,0.19706 0.071658,0.29077 0.073036,0.0937 0.2246202,0.0937 z m 0.8943468,-1.21956 q 0,0.15158 -0.031695,0.32935 -0.030317,0.17777 -0.089573,0.36518 -0.039963,0.12678 -0.086816,0.22738 -0.045475,0.10059 -0.099219,0.1819 -0.1212673,0.17501 -0.2714735,0.25907 -0.1502061,0.0827 -0.3500217,0.0827 -0.2769857,0 -0.4106554,-0.1695 -0.1336697,-0.1695 -0.1336697,-0.52228 0,-0.15296 0.028939,-0.32797 0.030317,-0.17639 0.089573,-0.3638 0.039963,-0.12678 0.085438,-0.22738 0.046853,-0.10059 0.1005968,-0.1819 0.1212673,-0.17501 0.2714735,-0.25769 0.1502062,-0.0841 0.3500217,-0.0841 0.2783637,0 0.4120334,0.1695 0.1350478,0.16812 0.1350478,0.51952 z"
       style="stroke-width:0.352778;fill:#000000"
       id="path5133" /><path
       d="m 8.6796961,122.51625 q -0.1157552,0.0565 -0.2342665,0.0841 -0.1171332,0.0289 -0.2425347,0.0289 -0.3169488,0 -0.4919597,-0.18328 -0.1736328,-0.18328 -0.1736328,-0.51401 0,-0.30317 0.096463,-0.60082 0.096463,-0.29766 0.253559,-0.48645 0.1474501,-0.17914 0.325217,-0.26458 0.177767,-0.0854 0.4051433,-0.0854 0.110243,0 0.219108,0.0289 0.1088651,0.0289 0.2122179,0.0841 l -0.0565,0.28525 q -0.088195,-0.0868 -0.1860352,-0.12953 -0.097841,-0.0427 -0.2080838,-0.0427 -0.1309136,0 -0.2425347,0.0565 -0.1116211,0.0551 -0.2094618,0.1695 -0.143316,0.16949 -0.2315104,0.43408 -0.086816,0.26458 -0.086816,0.53054 0,0.2384 0.107487,0.36518 0.1074869,0.12678 0.3100586,0.12678 0.1171332,0 0.2411566,-0.0441 0.1254015,-0.0441 0.2466689,-0.12815 z"
       style="stroke-width:0.352778;fill:#000000"
       id="path5135" /><path
       d="m 9.4679338,120.53188 h 0.2783638 l -0.1750109,0.89159 1.0225043,-0.89159 h 0.350022 l -0.9687611,0.853 0.5898001,1.20441 h -0.30179 l -0.4960939,-1.02113 -0.2659613,0.23151 -0.1543403,0.78962 H 9.0669247 Z"
       style="stroke-width:0.352778;fill:#000000"
       id="path5137" /></g><g
     aria-label="RESET"
     id="text1198"
     style="font-style:italic;font-size:2.82222px;font-family:Menlo;-inkscape-font-specification:'Menlo Italic';text-align:center;text-anchor:middle;fill:#000000;stroke-width:0.352777;stroke-linecap:round;paint-order:fill markers stroke"
     transform="translate(-2.1166667,-1.0784306)"><path
       d="m 15.7946,121.61777 q 0.09922,0.0193 0.158475,0.0923 0.06063,0.073 0.135048,0.31695 l 0.166742,0.56224 H 15.97788 l -0.146073,-0.51952 q -0.06063,-0.21498 -0.136425,-0.2825 -0.07441,-0.0675 -0.225999,-0.0675 H 15.2048 l -0.169499,0.86955 H 14.75556 l 0.398253,-2.05741 h 0.573264 q 0.285253,0 0.440972,0.12402 0.157096,0.12264 0.157096,0.34726 0,0.25219 -0.143316,0.41755 -0.141938,0.16536 -0.387229,0.19706 z m -0.403765,-0.85714 -0.14056,0.73036 h 0.301791 q 0.22462,0 0.35829,-0.11713 0.135047,-0.11851 0.135047,-0.3142 0,-0.15434 -0.08682,-0.22599 -0.08682,-0.073 -0.27423,-0.073 z"
       style="stroke-width:0.352778;fill:#000000"
       id="path5140" /><path
       d="m 16.912189,120.53188 h 1.219564 l -0.04547,0.23426 H 17.1437 l -0.118511,0.6091 h 0.899859 l -0.0441,0.23426 h -0.901237 l -0.143316,0.74552 h 0.967383 l -0.04547,0.23427 H 16.51118 Z"
       style="stroke-width:0.352778;fill:#000000"
       id="path5142" /><path
       d="m 19.717875,120.60216 -0.05374,0.28249 q -0.111621,-0.0813 -0.231511,-0.12264 -0.119889,-0.0413 -0.248047,-0.0413 -0.227376,0 -0.370692,0.113 -0.143316,0.113 -0.143316,0.28801 0,0.0978 0.06752,0.15847 0.06752,0.0606 0.245291,0.11576 l 0.166743,0.0537 q 0.22462,0.0689 0.327973,0.18466 0.10473,0.11437 0.10473,0.29214 0,0.32384 -0.228754,0.51401 -0.228754,0.18879 -0.624251,0.18879 -0.143316,0 -0.282498,-0.0317 -0.137804,-0.0303 -0.275608,-0.0923 l 0.0565,-0.28801 q 0.135048,0.0951 0.272852,0.14056 0.139181,0.0455 0.293522,0.0455 0.227376,0 0.369314,-0.12127 0.141938,-0.12126 0.141938,-0.3073 0,-0.113 -0.06063,-0.17501 -0.06063,-0.062 -0.243913,-0.11851 l -0.139181,-0.0455 q -0.25356,-0.0799 -0.355534,-0.18052 -0.100597,-0.10197 -0.100597,-0.26872 0,-0.30454 0.227376,-0.49747 0.227376,-0.1943 0.593935,-0.1943 0.110243,0 0.234266,0.0276 0.125402,0.0276 0.256315,0.0799 z"
       style="stroke-width:0.352778;fill:#000000"
       id="path5144" /><path
       d="m 20.310432,120.53188 h 1.219564 l -0.04548,0.23426 h -0.942578 l -0.118511,0.6091 h 0.899859 l -0.0441,0.23426 h -0.901237 l -0.143316,0.74552 h 0.967383 l -0.04548,0.23427 h -1.247124 z"
       style="stroke-width:0.352778;fill:#000000"
       id="path5146" /><path
       d="m 21.801469,120.53188 h 1.570964 l -0.04548,0.23426 h -0.6463 l -0.352777,1.82315 h -0.28112 l 0.355534,-1.82315 h -0.6463 z"
       style="stroke-width:0.352778;fill:#000000"
       id="path5148" /></g><path
     d="m 21.026355,35.052459 h 10.09504"
     style="clip-rule:evenodd;display:inline;fill:none;fill-rule:evenodd;stroke:#000000;stroke-width:0.338361px;stroke-linecap:round;stroke-linejoin:round;stroke-miterlimit:1.5"
     id="path7549" /><path
     d="m 21.026355,45.585974 h 10.09504"
     style="clip-rule:evenodd;display:inline;fill:none;fill-rule:evenodd;stroke:#000000;stroke-width:0.338361px;stroke-linecap:round;stroke-linejoin:round;stroke-miterlimit:1.5"
     id="path7553" /><path
     d="m 21.026355,55.995593 h 10.09504"
     style="clip-rule:evenodd;display:inline;fill:none;fill-rule:evenodd;stroke:#000000;stroke-width:0.338361px;stroke-linecap:round;stroke-linejoin:round;stroke-miterlimit:1.5"
     id="path7557" /><path
     d="m 21.026355,66.264663 h 10.09504"
     style="clip-rule:evenodd;display:inline;fill:none;fill-rule:evenodd;stroke:#000000;stroke-width:0.338361px;stroke-linecap:round;stroke-linejoin:round;stroke-miterlimit:1.5"
     id="path7561" /><path
     d="m 21.026355,76.222163 h 10.09504"
     style="clip-rule:evenodd;display:inline;fill:none;fill-rule:evenodd;stroke:#000000;stroke-width:0.338361px;stroke-linecap:round;stroke-linejoin:round;stroke-miterlimit:1.5"
     id="path7565" /><path
     d="m 21.026355,86.666143 h 10.09504"
     style="clip-rule:evenodd;display:inline;fill:none;fill-rule:evenodd;stroke:#000000;stroke-width:0.338361px;stroke-linecap:round;stroke-linejoin:round;stroke-miterlimit:1.5"
     id="path7569" /><path
     d="m 44.903405,35.052459 h 10.09504"
     style="clip-rule:evenodd;display:inline;fill:none;fill-rule:evenodd;stroke:#000000;stroke-width:0.338361px;stroke-linecap:round;stroke-linejoin:round;stroke-miterlimit:1.5"
     id="path7573" /><path
     d="m 44.903405,45.585974 h 10.09504"
     style="clip-rule:evenodd;display:inline;fill:none;fill-rule:evenodd;stroke:#000000;stroke-width:0.338361px;stroke-linecap:round;stroke-linejoin:round;stroke-miterlimit:1.5"
     id="path7577" /><path
     d="m 44.903405,55.995593 h 10.09504"
     style="clip-rule:evenodd;display:inline;fill:none;fill-rule:evenodd;stroke:#000000;stroke-width:0.338361px;stroke-linecap:round;stroke-linejoin:round;stroke-miterlimit:1.5"
     id="path7581" /><path
     d="m 44.903405,66.264663 h 10.09504"
     style="clip-rule:evenodd;display:inline;fill:none;fill-rule:evenodd;stroke:#000000;stroke-width:0.338361px;stroke-linecap:round;stroke-linejoin:round;stroke-miterlimit:1.5"
     id="path7585" /><path
     d="m 44.903405,76.222163 h 10.09504"
     style="clip-rule:evenodd;display:inline;fill:none;fill-rule:evenodd;stroke:#000000;stroke-width:0.338361px;stroke-linecap:round;stroke-linejoin:round;stroke-miterlimit:1.5"
     id="path7589" /><path
     d="m 44.903405,86.666143 h 10.09504"
     style="clip-rule:evenodd;display:inline;fill:none;fill-rule:evenodd;stroke:#000000;stroke-width:0.338361px;stroke-linecap:round;stroke-linejoin:round;stroke-miterlimit:1.5"
     id="path7593" /><path
     d="m 44.778187,30.119797 v 71.252643 c 0,1.42638 -1.029287,2.58432 -2.296284,2.58432 h -8.840045 c -1.267227,0 -2.296055,-1.15794 -2.296055,-2.58432 V 30.119797 c 0,-1.426379 1.028828,-2.58433 2.296055,-2.58433 h 8.840045 c 1.266997,0 2.296284,1.157951 2.296284,2.58433 z"
     style="clip-rule:evenodd;display:inline;fill:#212121;fill-rule:evenodd;stroke:#000000;stroke-width:0.373694;stroke-linecap:round;stroke-linejoin:round;stroke-miterlimit:1.5;stroke-dasharray:none;fill-opacity:1"
     id="path7309" /><g
     aria-label="–"
     id="text7925"
     style="font-style:italic;font-size:4.23333px;font-family:Menlo-Italic, Menlo, monospace;clip-rule:evenodd;display:inline;fill:#000000;fill-rule:evenodd;stroke-width:0.0846666;stroke-linecap:round;stroke-linejoin:round;stroke-miterlimit:1.5"
     transform="translate(-94.117275,-14.066703)"><path
       d="m 113.91962,44.495181 h 2.54868 l -0.0579,0.291455 h -2.54868 z"
       id="path14495"
       style="fill:#000000" /></g><g
     aria-label="–"
     id="text7931"
     style="font-style:italic;font-size:4.23333px;font-family:Menlo-Italic, Menlo, monospace;clip-rule:evenodd;display:inline;fill:#000000;fill-rule:evenodd;stroke-width:0.0846666;stroke-linecap:round;stroke-linejoin:round;stroke-miterlimit:1.5"
     transform="translate(-94.117275,-14.066703)"><path
       d="m 141.73047,44.495181 h 2.54868 l -0.0579,0.291455 h -2.54867 z"
       id="path14938"
       style="fill:#000000" /></g><g
     aria-label="+"
     id="text7937"
     style="font-style:italic;font-size:4.23333px;font-family:Menlo-Italic, Menlo, monospace;clip-rule:evenodd;display:inline;fill:#000000;fill-rule:evenodd;stroke-width:0.0846666;stroke-linecap:round;stroke-linejoin:round;stroke-miterlimit:1.5"
     transform="translate(-94.117275,-14.066703)"><path
       d="m 122.06187,43.409977 -0.17777,0.915705 h 0.91984 l -0.0682,0.349333 h -0.91984 l -0.17777,0.915705 h -0.34726 l 0.17776,-0.915705 h -0.91777 l 0.0682,-0.349333 h 0.91778 l 0.17776,-0.915705 z"
       id="path14498"
       style="fill:#000000" /></g><g
     aria-label="+"
     id="text7949"
     style="font-style:italic;font-size:4.23333px;font-family:Menlo-Italic, Menlo, monospace;clip-rule:evenodd;display:inline;fill:#000000;fill-rule:evenodd;stroke-width:0.0846666;stroke-linecap:round;stroke-linejoin:round;stroke-miterlimit:1.5"
     transform="translate(-94.117275,-14.066703)"><path
       d="m 150.88908,43.409977 -0.17776,0.915705 h 0.91984 l -0.0682,0.349333 h -0.91984 l -0.17776,0.915705 h -0.34727 l 0.17777,-0.915705 h -0.91777 l 0.0682,-0.349333 h 0.91777 l 0.17777,-0.915705 z"
       id="path14928"
       style="fill:#000000" /></g><path
     d="m 21.026355,97.056619 h 10.09504"
     style="clip-rule:evenodd;display:inline;fill:none;fill-rule:evenodd;stroke:#000000;stroke-width:0.338361px;stroke-linecap:round;stroke-linejoin:round;stroke-miterlimit:1.5"
     id="path4314" /><path
     d="m 44.903405,97.056619 h 10.09504"
     style="clip-rule:evenodd;display:inline;fill:none;fill-rule:evenodd;stroke:#000000;stroke-width:0.338361px;stroke-linecap:round;stroke-linejoin:round;stroke-miterlimit:1.5"
     id="path4316" /><path
     d="M 67.954915,20.771709 V 114.46375"
     style="clip-rule:evenodd;display:inline;fill:none;fill-rule:evenodd;stroke:#000000;stroke-width:0.352778;stroke-linecap:square;stroke-linejoin:round;stroke-miterlimit:1.5;stroke-dasharray:none"
     id="path11336" /><g
     aria-label="PATTERN
LEN."
     id="text5978"
     style="font-style:italic;font-size:2.82223px;font-family:Menlo;-inkscape-font-specification:'Menlo Italic';text-align:center;text-anchor:middle;fill:#000000;stroke-width:0.352777;stroke-linecap:round;paint-order:fill markers stroke"
     transform="translate(1.0583333,1.5875)"><path
       d="m 61.887783,118.05752 -0.150207,0.77308 h 0.322462 q 0.227377,0 0.362425,-0.13092 0.136426,-0.13229 0.136426,-0.3514 0,-0.14883 -0.08544,-0.21911 -0.08544,-0.0717 -0.264584,-0.0717 z m -0.234267,-0.22876 h 0.606338 q 0.283877,0 0.432705,0.12678 0.148829,0.12678 0.148829,0.36656 0,0.34313 -0.220487,0.54019 -0.220487,0.19706 -0.606338,0.19706 h -0.321084 l -0.161231,0.82683 h -0.279743 z"
       style="stroke-width:0.352778;fill:#000000"
       id="path378" /><path
       d="m 63.894212,118.06027 -0.501607,1.06661 h 0.592558 z m -0.132292,-0.23151 h 0.338998 l 0.228755,2.05742 h -0.276986 l -0.04823,-0.53606 h -0.716581 l -0.25356,0.53606 h -0.299035 z"
       style="stroke-width:0.352778;fill:#000000"
       id="path380" /><path
       d="m 64.846439,117.82876 h 1.570968 l -0.04547,0.23427 H 65.72563 l -0.352779,1.82315 h -0.28112 l 0.355534,-1.82315 h -0.646301 z"
       style="stroke-width:0.352778;fill:#000000"
       id="path382" /><path
       d="m 66.545565,117.82876 h 1.570968 l -0.04548,0.23427 h -0.646302 l -0.352779,1.82315 h -0.28112 l 0.355534,-1.82315 H 66.50009 Z"
       style="stroke-width:0.352778;fill:#000000"
       id="path384" /><path
       d="m 68.452775,117.82876 h 1.219567 l -0.04547,0.23427 h -0.942581 l -0.118511,0.60909 h 0.899861 l -0.0441,0.23427 h -0.90124 l -0.143316,0.74552 h 0.967385 l -0.04547,0.23427 h -1.247128 z"
       style="stroke-width:0.352778;fill:#000000"
       id="path386" /><path
       d="m 70.733435,118.91466 q 0.09922,0.0193 0.158475,0.0923 0.06063,0.073 0.135048,0.31695 l 0.166743,0.56224 h -0.276987 l -0.146072,-0.51952 q -0.06063,-0.21498 -0.136426,-0.2825 -0.07442,-0.0675 -0.225999,-0.0675 h -0.264584 l -0.169499,0.86955 h -0.279743 l 0.398254,-2.05742 h 0.573266 q 0.285254,0 0.440973,0.12402 0.157097,0.12265 0.157097,0.34727 0,0.25218 -0.143316,0.41755 -0.141939,0.16536 -0.38723,0.19706 z m -0.403767,-0.85714 -0.14056,0.73036 h 0.301791 q 0.224621,0 0.358291,-0.11714 0.135048,-0.11851 0.135048,-0.31419 0,-0.15434 -0.08682,-0.226 -0.08682,-0.073 -0.274231,-0.073 z"
       style="stroke-width:0.352778;fill:#000000"
       id="path388" /><path
       d="m 71.769723,117.82876 h 0.352779 l 0.363803,1.69361 0.329352,-1.69361 h 0.268718 l -0.40101,2.05742 h -0.352779 l -0.363803,-1.69362 -0.33073,1.69362 h -0.26734 z"
       style="stroke-width:0.352778;fill:#000000"
       id="path390" /><path
       d="m 64.239411,121.35655 h 0.278365 l -0.355535,1.82315 h 0.993568 l -0.04548,0.23426 h -1.271933 z"
       style="stroke-width:0.352778;fill:#000000"
       id="path392" /><path
       d="m 65.904086,121.35655 h 1.219568 l -0.04548,0.23427 h -0.942581 l -0.118511,0.60909 h 0.899861 l -0.0441,0.23427 h -0.90124 l -0.143316,0.74552 h 0.967386 l -0.04548,0.23426 h -1.247128 z"
       style="stroke-width:0.352778;fill:#000000"
       id="path394" /><path
       d="m 67.521908,121.35655 h 0.352778 l 0.363804,1.69361 0.329352,-1.69361 h 0.268718 l -0.40101,2.05741 h -0.352779 l -0.363803,-1.69361 -0.33073,1.69361 h -0.267341 z"
       style="stroke-width:0.352778;fill:#000000"
       id="path396" /><path
       d="m 69.418094,122.85724 h 0.485071 l -0.108866,0.55672 h -0.485071 z"
       style="stroke-width:0.352778;fill:#000000"
       id="path398" /></g><g
     aria-label="DON"
     id="text6752"
     style="font-style:italic;font-size:2.82223px;font-family:Menlo;-inkscape-font-specification:'Menlo Italic';text-align:center;text-anchor:middle;fill:#ffffff;stroke-width:0.352777;stroke-linecap:round;paint-order:fill markers stroke"
     transform="translate(-0.52916667,1.5875)"><path
       d="m 29.935093,119.69464 q 0.254938,0 0.409279,-0.0854 0.15434,-0.0868 0.248047,-0.28112 0.07441,-0.15848 0.121268,-0.37758 0.04823,-0.22049 0.04823,-0.40377 0,-0.24254 -0.112999,-0.34727 -0.113,-0.10473 -0.378962,-0.10473 H 30.11286 l -0.311438,1.59991 z m 0.361047,-1.82866 q 0.376206,0 0.562241,0.17087 0.187414,0.17088 0.187414,0.51815 0,0.22324 -0.05788,0.46026 -0.05788,0.23703 -0.155718,0.42031 -0.143317,0.2632 -0.358291,0.3762 -0.213597,0.11162 -0.578778,0.11162 h -0.417547 l 0.40101,-2.05741 z"
       style="stroke-width:0.352778"
       id="path366" /><path
       d="m 31.879511,119.73736 q 0.117133,0 0.216352,-0.0703 0.09922,-0.0703 0.163987,-0.2012 0.101975,-0.19981 0.165365,-0.48369 0.06339,-0.28388 0.06339,-0.5457 0,-0.19569 -0.07304,-0.28801 -0.07166,-0.0937 -0.223243,-0.0937 -0.117133,0 -0.214974,0.0703 -0.09784,0.0703 -0.162609,0.20119 -0.104732,0.20257 -0.168122,0.4837 -0.06339,0.28112 -0.06339,0.54294 0,0.19706 0.07166,0.29077 0.07304,0.0937 0.224621,0.0937 z m 0.894349,-1.21957 q 0,0.15158 -0.03169,0.32935 -0.03032,0.17777 -0.08957,0.36518 -0.03996,0.12678 -0.08682,0.22738 -0.04548,0.1006 -0.09922,0.1819 -0.121267,0.17501 -0.271474,0.25907 -0.150206,0.0827 -0.350023,0.0827 -0.276986,0 -0.410656,-0.1695 -0.13367,-0.1695 -0.13367,-0.52228 0,-0.15296 0.02894,-0.32797 0.03032,-0.17639 0.08957,-0.36381 0.03996,-0.12678 0.08544,-0.22737 0.04685,-0.1006 0.100597,-0.18191 0.121268,-0.17501 0.271474,-0.25769 0.150207,-0.0841 0.350023,-0.0841 0.278365,0 0.412035,0.1695 0.135048,0.16812 0.135048,0.51952 z"
       style="stroke-width:0.352778"
       id="path368" /><path
       d="m 33.279601,117.86598 h 0.352779 l 0.363803,1.69361 0.329352,-1.69361 h 0.268718 l -0.40101,2.05741 h -0.352779 l -0.363803,-1.69361 -0.33073,1.69361 h -0.26734 z"
       style="stroke-width:0.352778"
       id="path370" /></g><g
     aria-label="KA"
     id="text6756"
     style="font-style:italic;font-size:2.82223px;font-family:Menlo;-inkscape-font-specification:'Menlo Italic';text-align:center;text-anchor:middle;fill:#ffffff;stroke-width:0.352777;stroke-linecap:round;paint-order:fill markers stroke"
     transform="translate(-1.5875,1.5875)"><path
       d="m 41.455337,117.82876 h 0.278364 l -0.175011,0.89159 1.022507,-0.89159 h 0.350023 l -0.968764,0.85301 0.589802,1.20441 h -0.301791 l -0.496095,-1.02113 -0.265962,0.23151 -0.154341,0.78962 h -0.279742 z"
       style="stroke-width:0.352778"
       id="path373" /><path
       d="m 43.777338,118.06027 -0.501608,1.06661 h 0.592559 z m -0.132292,-0.23151 h 0.338998 l 0.228755,2.05742 h -0.276986 l -0.04823,-0.53606 h -0.716582 l -0.25356,0.53606 h -0.299035 z"
       style="stroke-width:0.352778"
       id="path375" /></g><g
     aria-label="END"
     id="text6760"
     style="font-style:italic;font-size:2.82223px;font-family:Menlo;-inkscape-font-specification:'Menlo Italic';text-align:center;text-anchor:middle;fill:#ffffff;stroke-width:0.352777;stroke-linecap:round;paint-order:fill markers stroke"
     transform="translate(-2.6458334,1.3338094)"><path
       d="m 52.475353,118.08246 h 1.219567 l -0.04548,0.23427 h -0.942581 l -0.118511,0.60909 h 0.899861 l -0.0441,0.23427 h -0.90124 l -0.143316,0.74552 h 0.967385 l -0.04547,0.23427 H 52.07434 Z"
       style="stroke-width:0.352778"
       id="path6762" /><path
       d="m 54.093175,118.08246 h 0.352778 l 0.363803,1.69361 0.329352,-1.69361 h 0.268719 l -0.401011,2.05742 h -0.352778 l -0.363803,-1.69362 -0.330731,1.69362 h -0.26734 z"
       style="stroke-width:0.352778"
       id="path6764" /><path
       d="m 55.846044,119.91112 q 0.254938,0 0.409279,-0.0854 0.15434,-0.0868 0.248047,-0.28112 0.07441,-0.15847 0.121268,-0.37758 0.04823,-0.22049 0.04823,-0.40377 0,-0.24253 -0.112999,-0.34726 -0.113,-0.10473 -0.378962,-0.10473 H 56.02381 l -0.311437,1.5999 z m 0.361047,-1.82866 q 0.376206,0 0.562241,0.17088 0.187414,0.17087 0.187414,0.51814 0,0.22324 -0.05788,0.46027 -0.05788,0.23702 -0.155719,0.4203 -0.143316,0.26321 -0.358291,0.37621 -0.213596,0.11162 -0.578777,0.11162 h -0.417547 l 0.40101,-2.05742 z"
       style="stroke-width:0.352778"
       id="path6766" /></g><g
     aria-label="CYCLES"
     id="text21647"
     style="font-style:italic;font-size:2.82222px;font-family:Menlo;-inkscape-font-specification:'Menlo Italic';text-align:center;text-anchor:middle;fill:#000000;stroke-width:0.352777;stroke-linecap:square;paint-order:fill markers stroke"><path
       d="m 48.805285,28.284304 q -0.115756,0.0565 -0.234267,0.08406 -0.117133,0.02894 -0.242535,0.02894 -0.316948,0 -0.491959,-0.183279 -0.173633,-0.183279 -0.173633,-0.514008 0,-0.303169 0.09646,-0.600825 0.09646,-0.297656 0.253559,-0.486448 0.14745,-0.179144 0.325217,-0.264583 0.177767,-0.08544 0.405143,-0.08544 0.110243,0 0.219108,0.02894 0.108865,0.02894 0.212218,0.08406 l -0.0565,0.285254 q -0.08819,-0.08682 -0.186035,-0.129536 -0.09784,-0.04272 -0.208084,-0.04272 -0.130913,0 -0.242534,0.0565 -0.111621,0.05512 -0.209462,0.169498 -0.143316,0.169499 -0.231511,0.434082 -0.08682,0.264584 -0.08682,0.530545 0,0.238401 0.107487,0.36518 0.107487,0.12678 0.310059,0.12678 0.117133,0 0.241156,-0.0441 0.125402,-0.0441 0.246669,-0.128157 z"
       style="stroke-width:0.352778;fill:#000000"
       id="path22407" /><path
       d="m 49.472255,26.299929 h 0.278364 l 0.325217,0.897103 0.684885,-0.897103 h 0.300412 l -0.875054,1.134125 -0.177767,0.923286 h -0.285254 l 0.180523,-0.923286 z"
       style="stroke-width:0.352778;fill:#000000"
       id="path22409" /><path
       d="m 52.203527,28.284304 q -0.115755,0.0565 -0.234267,0.08406 -0.117133,0.02894 -0.242534,0.02894 -0.316949,0 -0.49196,-0.183279 -0.173633,-0.183279 -0.173633,-0.514008 0,-0.303169 0.09646,-0.600825 0.09646,-0.297656 0.253559,-0.486448 0.14745,-0.179144 0.325217,-0.264583 0.177767,-0.08544 0.405143,-0.08544 0.110243,0 0.219108,0.02894 0.108865,0.02894 0.212218,0.08406 l -0.0565,0.285254 q -0.08819,-0.08682 -0.186036,-0.129536 -0.09784,-0.04272 -0.208083,-0.04272 -0.130914,0 -0.242535,0.0565 -0.111621,0.05512 -0.209462,0.169498 -0.143316,0.169499 -0.23151,0.434082 -0.08682,0.264584 -0.08682,0.530545 0,0.238401 0.107487,0.36518 0.107487,0.12678 0.310059,0.12678 0.117133,0 0.241157,-0.0441 0.125401,-0.0441 0.246668,-0.128157 z"
       style="stroke-width:0.352778;fill:#000000"
       id="path22411" /><path
       d="m 53.110276,26.299929 h 0.278364 l -0.355534,1.823144 h 0.993566 l -0.04548,0.234267 h -1.271929 z"
       style="stroke-width:0.352778;fill:#000000"
       id="path22413" /><path
       d="m 54.774946,26.299929 h 1.219564 l -0.04547,0.234266 h -0.942578 l -0.118512,0.609093 h 0.899859 l -0.0441,0.234267 H 54.84247 l -0.143316,0.745518 h 0.967383 l -0.04547,0.234267 h -1.247125 z"
       style="stroke-width:0.352778;fill:#000000"
       id="path22415" /><path
       d="m 57.580632,26.370209 -0.05374,0.282498 q -0.111621,-0.08131 -0.23151,-0.122646 -0.119889,-0.04134 -0.248047,-0.04134 -0.227376,0 -0.370692,0.112999 -0.143316,0.112999 -0.143316,0.28801 0,0.09784 0.06752,0.158475 0.06752,0.06063 0.245291,0.115755 l 0.166742,0.05374 q 0.22462,0.0689 0.327973,0.184657 0.104731,0.114378 0.104731,0.292144 0,0.323839 -0.228754,0.514009 -0.228755,0.188791 -0.624251,0.188791 -0.143316,0 -0.282498,-0.03169 -0.137804,-0.03032 -0.275608,-0.09233 l 0.0565,-0.28801 q 0.135047,0.09508 0.272851,0.140559 0.139182,0.04548 0.293522,0.04548 0.227377,0 0.369315,-0.121268 0.141937,-0.121267 0.141937,-0.307302 0,-0.112999 -0.06063,-0.175011 -0.06063,-0.06201 -0.243913,-0.118511 l -0.139182,-0.04548 q -0.253559,-0.07993 -0.355534,-0.180523 -0.100596,-0.101974 -0.100596,-0.268717 0,-0.304546 0.227376,-0.497472 0.227376,-0.194303 0.593934,-0.194303 0.110243,0 0.234267,0.02756 0.125401,0.02756 0.256315,0.07993 z"
       style="stroke-width:0.352778;fill:#000000"
       id="path22417" /></g><g
     aria-label="BEATS"
     id="text21651"
     style="font-style:italic;font-size:2.82222px;font-family:Menlo;-inkscape-font-specification:'Menlo Italic';text-align:center;text-anchor:middle;fill:#000000;stroke-width:0.352777;stroke-linecap:square;paint-order:fill markers stroke"><path
       d="m 20.71609,27.374799 -0.14745,0.753787 h 0.341753 q 0.253559,0 0.387229,-0.11989 0.135048,-0.119889 0.135048,-0.345887 0,-0.14745 -0.09371,-0.21773 -0.09371,-0.07028 -0.290766,-0.07028 z m 0.162609,-0.846116 -0.121268,0.620117 h 0.336242 q 0.208083,0 0.326595,-0.09922 0.119889,-0.100597 0.119889,-0.275608 0,-0.129536 -0.07717,-0.187413 -0.07579,-0.05788 -0.248047,-0.05788 z m -0.234267,-0.228754 h 0.610471 q 0.279742,0 0.423058,0.110243 0.143316,0.108865 0.143316,0.321083 0,0.212218 -0.12678,0.355534 -0.126779,0.141938 -0.341753,0.169498 0.172255,0.03169 0.263205,0.14056 0.09233,0.108865 0.09233,0.279742 0,0.322461 -0.220487,0.501606 -0.219108,0.179145 -0.620117,0.179145 h -0.622873 z"
       style="stroke-width:0.352778;fill:#000000"
       id="path22396" /><path
       d="m 22.386272,26.299929 h 1.219564 l -0.04547,0.234266 h -0.942578 l -0.118511,0.609093 h 0.899858 l -0.0441,0.234267 h -0.901237 l -0.143316,0.745518 h 0.967383 l -0.04547,0.234267 h -1.247125 z"
       style="stroke-width:0.352778;fill:#000000"
       id="path22398" /><path
       d="m 24.624206,26.531439 -0.501605,1.066602 h 0.592556 z m -0.132291,-0.23151 h 0.338997 l 0.228755,2.057411 h -0.276986 l -0.04823,-0.536057 h -0.71658 l -0.253559,0.536057 h -0.299035 z"
       style="stroke-width:0.352778;fill:#000000"
       id="path22400" /><path
       d="m 25.576431,26.299929 h 1.570964 l -0.04548,0.234266 h -0.6463 l -0.352777,1.823145 h -0.28112 l 0.355534,-1.823145 h -0.6463 z"
       style="stroke-width:0.352778;fill:#000000"
       id="path22402" /><path
       d="m 28.5902,26.370209 -0.05374,0.282498 q -0.111621,-0.08131 -0.23151,-0.122646 -0.11989,-0.04134 -0.248047,-0.04134 -0.227377,0 -0.370693,0.112999 -0.143316,0.112999 -0.143316,0.28801 0,0.09784 0.06752,0.158475 0.06752,0.06063 0.245291,0.115755 l 0.166743,0.05374 q 0.22462,0.0689 0.327973,0.184657 0.104731,0.114378 0.104731,0.292144 0,0.323839 -0.228755,0.514009 -0.228754,0.188791 -0.624251,0.188791 -0.143316,0 -0.282498,-0.03169 -0.137804,-0.03032 -0.275607,-0.09233 l 0.0565,-0.28801 q 0.135048,0.09508 0.272852,0.140559 0.139182,0.04548 0.293522,0.04548 0.227376,0 0.369314,-0.121268 0.141938,-0.121267 0.141938,-0.307302 0,-0.112999 -0.06063,-0.175011 -0.06063,-0.06201 -0.243912,-0.118511 l -0.139182,-0.04548 q -0.253559,-0.07993 -0.355534,-0.180523 -0.100597,-0.101974 -0.100597,-0.268717 0,-0.304546 0.227376,-0.497472 0.227377,-0.194303 0.593935,-0.194303 0.110243,0 0.234266,0.02756 0.125402,0.02756 0.256315,0.07993 z"
       style="stroke-width:0.352778;fill:#000000"
       id="path22404" /></g><g
     aria-label="SELECT"
     id="text21655"
     style="font-style:italic;font-size:2.82222px;font-family:Menlo;-inkscape-font-specification:'Menlo Italic';text-align:center;text-anchor:middle;fill:#000000;stroke-width:0.352777;stroke-linecap:square;paint-order:fill markers stroke"
     transform="translate(2.1166667,3.1750001)"><path
       d="m 4.9255053,26.370209 -0.053743,0.282498 Q 4.7601408,26.571402 4.6402514,26.530061 4.5203621,26.48872 4.3922046,26.48872 q -0.2273763,0 -0.3706923,0.112999 -0.143316,0.112999 -0.143316,0.28801 0,0.09784 0.067524,0.158475 0.067524,0.06063 0.2452908,0.115755 l 0.1667426,0.05374 q 0.2246202,0.0689 0.3279731,0.184657 0.1047309,0.114378 0.1047309,0.292144 0,0.323839 -0.2287543,0.514009 Q 4.332949,28.3973 3.9374521,28.3973 q -0.143316,0 -0.2824979,-0.03169 -0.1378038,-0.03032 -0.2756076,-0.09233 l 0.0565,-0.28801 q 0.1350477,0.09508 0.2728515,0.140559 0.1391819,0.04548 0.2935222,0.04548 0.2273763,0 0.3693142,-0.121268 0.1419379,-0.121267 0.1419379,-0.307302 0,-0.112999 -0.060634,-0.175011 -0.060634,-0.06201 -0.2439127,-0.118511 L 4.0697436,27.403737 Q 3.8161846,27.323811 3.7142098,27.223214 3.613613,27.12124 3.613613,26.954497 q 0,-0.304546 0.2273763,-0.497472 0.2273763,-0.194303 0.5939345,-0.194303 0.110243,0 0.2342664,0.02756 0.1254015,0.02756 0.2563151,0.07993 z"
       style="stroke-width:0.352778;fill:#000000"
       id="path22383" /><path
       d="m 5.5180618,26.299929 h 1.2195638 l -0.045475,0.234266 H 5.7495722 l -0.1185113,0.609093 h 0.899859 l -0.044097,0.234267 H 5.5855857 l -0.143316,0.745518 H 6.4096525 L 6.3641772,28.35734 H 5.1170527 Z"
       style="stroke-width:0.352778;fill:#000000"
       id="path22385" /><path
       d="M 7.2516339,26.299929 H 7.5299976 L 7.1744637,28.123073 H 8.1680293 L 8.122554,28.35734 H 6.8506247 Z"
       style="stroke-width:0.352778;fill:#000000"
       id="path22387" /><path
       d="m 8.9163041,26.299929 h 1.2195639 l -0.04547,0.234266 H 9.1478146 L 9.0293033,27.143288 H 9.9291622 L 9.885065,27.377555 H 8.983828 L 8.840512,28.123073 H 9.8078949 L 9.7624196,28.35734 H 8.515295 Z"
       style="stroke-width:0.352778;fill:#000000"
       id="path22389" /><path
       d="m 11.442248,28.284304 q -0.115755,0.0565 -0.234266,0.08406 -0.117134,0.02894 -0.242535,0.02894 -0.316949,0 -0.49196,-0.183279 -0.173633,-0.183279 -0.173633,-0.514008 0,-0.303169 0.09646,-0.600825 0.09646,-0.297656 0.253559,-0.486448 0.14745,-0.179144 0.325217,-0.264583 0.177767,-0.08544 0.405143,-0.08544 0.110243,0 0.219108,0.02894 0.108865,0.02894 0.212218,0.08406 l -0.0565,0.285254 q -0.0882,-0.08682 -0.186035,-0.129536 -0.09784,-0.04272 -0.208084,-0.04272 -0.130914,0 -0.242535,0.0565 -0.111621,0.05512 -0.209462,0.169498 -0.143316,0.169499 -0.23151,0.434082 -0.08682,0.264584 -0.08682,0.530545 0,0.238401 0.107487,0.36518 0.107487,0.12678 0.310059,0.12678 0.117133,0 0.241157,-0.0441 0.125401,-0.0441 0.246669,-0.128157 z"
       style="stroke-width:0.352778;fill:#000000"
       id="path22391" /><path
       d="m 12.106462,26.299929 h 1.570964 l -0.04547,0.234266 h -0.6463 l -0.352778,1.823145 h -0.28112 l 0.355534,-1.823145 h -0.6463 z"
       style="stroke-width:0.352778;fill:#000000"
       id="path22393" /></g><g
     aria-label="O I 1"
     id="text22426"
     style="font-style:italic;font-size:2.82223px;font-family:Menlo;-inkscape-font-specification:'Menlo Italic';text-align:center;text-anchor:middle;fill:#000000;stroke-width:0.352777;stroke-linecap:square;paint-order:fill markers stroke"
     transform="translate(0,-1.5875)"><path
       d="m 3.5874147,106.09988 q 0.1171336,0 0.2163526,-0.0703 0.099219,-0.0703 0.163987,-0.2012 0.1019751,-0.19981 0.165365,-0.48369 0.06339,-0.28388 0.06339,-0.54571 0,-0.19568 -0.073036,-0.28801 -0.071658,-0.0937 -0.2232428,-0.0937 -0.1171336,0 -0.2149745,0.0703 -0.097841,0.0703 -0.162609,0.20119 -0.1047312,0.20257 -0.1681211,0.48369 -0.06339,0.28112 -0.06339,0.54295 0,0.19706 0.071658,0.29077 0.073036,0.0937 0.2246209,0.0937 z m 0.8943493,-1.21957 q 0,0.15158 -0.031695,0.32935 -0.030317,0.17777 -0.089573,0.36518 -0.039963,0.12678 -0.086817,0.22738 -0.045475,0.1006 -0.099219,0.1819 -0.1212677,0.17501 -0.2714743,0.25907 -0.1502066,0.0827 -0.3500227,0.0827 -0.2769864,0 -0.4106565,-0.16949 -0.1336701,-0.1695 -0.1336701,-0.52228 0,-0.15296 0.028939,-0.32798 0.030317,-0.17639 0.089573,-0.3638 0.039963,-0.12678 0.085439,-0.22738 0.046853,-0.10059 0.1005971,-0.1819 0.1212677,-0.17501 0.2714743,-0.25769 0.1502066,-0.0841 0.3500227,-0.0841 0.2783645,0 0.4120345,0.1695 0.1350482,0.16812 0.1350482,0.51952 z"
       style="stroke-width:0.352778;fill:#000000"
       id="path22428" /><path
       d="m 6.7706919,104.22849 h 1.1437749 l -0.045475,0.23427 H 7.4362862 l -0.3073034,1.58888 H 7.561688 l -0.045475,0.23427 H 6.3724377 l 0.045475,-0.23427 h 0.4313272 l 0.3086814,-1.58888 H 6.7252165 Z"
       style="stroke-width:0.352778;fill:#000000"
       id="path22430" /><path
       d="m 9.9071157,106.05164 h 0.4313273 l 0.304547,-1.57234 -0.485071,0.10473 0.04823,-0.25356 0.485071,-0.10198 h 0.279742 l -0.355535,1.82315 h 0.425815 l -0.04548,0.23427 H 9.8616403 Z"
       style="stroke-width:0.352778;fill:#000000"
       id="path22432" /></g></svg>
