<?xml version="1.0" encoding="UTF-8" standalone="no"?>
<svg
   width="243.84mm"
   height="128.5mm"
   viewBox="0 0 243.84 128.5"
   version="1.1"
   xml:space="preserve"
   style="clip-rule:evenodd;fill-rule:evenodd;stroke-linecap:square;stroke-linejoin:round;stroke-miterlimit:1.5"
   id="svg78"
   sodipodi:docname="PreeeeeeeeeeessedDuck-dark.svg"
   inkscape:version="1.2 (dc2aeda, 2022-05-15)"
   xmlns:inkscape="http://www.inkscape.org/namespaces/inkscape"
   xmlns:sodipodi="http://sodipodi.sourceforge.net/DTD/sodipodi-0.dtd"
   xmlns="http://www.w3.org/2000/svg"
   xmlns:svg="http://www.w3.org/2000/svg"
   xmlns:serif="http://www.serif.com/"><defs
   id="defs78">
        
        
        
        
        
        
        
        
        
        
        
        
        
        
        
        
        
        
        
        
        
        
        
        
        
        
        
        
        
        
        
        
        
        
        
        
    
        
        
        
        
        
        
        
        
        
        
        
        
        
        
        
        
        
        
        
        
        
        
        
        
        
        
        
        
        
        
        
        
        
        
        
        
        
        
        
        
        
        
        
        
        
        
        
        
        
        
        
        
        
        
        
        
        
        
        
        
        
        
        
        
        
        
        
        
    
        
        
        
        
        
        
        
        
        
        
        
        
        
        
        
        
        
        
        
        
        
        
        
        
        
        
        
        
        
        
        
        
        
        
        
        
        
        
        
        
        
        
    
        
        
        
        
        
        
        
        
        
        
        
        
        
        
        
        
        
        
        
        
        
        
        
        
        
        
        
        
        
        
        
        
        
        
        
        
        
        
        
        
        
        
        
        
        
        
        
        
        
        
        
        
        
        
        
        
        
        
        
        
        
        
        
        
        
        
        
        
        
        
        
        
        
        
        
        
        
        
        
    
            
            
            
        </defs><sodipodi:namedview
   id="namedview78"
   pagecolor="#ffffff"
   bordercolor="#000000"
   borderopacity="0.25"
   inkscape:showpageshadow="2"
   inkscape:pageopacity="0.0"
   inkscape:pagecheckerboard="0"
   inkscape:deskcolor="#d1d1d1"
   inkscape:zoom="0.93"
   inkscape:cx="650.53763"
   inkscape:cy="249.46237"
   inkscape:window-width="1379"
   inkscape:window-height="916"
   inkscape:window-x="86"
   inkscape:window-y="38"
   inkscape:window-maximized="0"
   inkscape:current-layer="svg78"
   inkscape:document-units="mm"
   showgrid="false"
   showguides="false" />
    
    
<rect
   id="rect420"
   x="-0.082814574"
   y="-129.4751"
   width="244.1245"
   height="129.675"
   style="clip-rule:evenodd;fill:#212121;fill-opacity:1;fill-rule:evenodd;stroke-width:0.497684;stroke-linecap:square;stroke-linejoin:round;stroke-miterlimit:1.5"
   transform="scale(1,-1)" /><path
   d="m 98.188691,87.64507 v 26.25811"
   style="clip-rule:evenodd;fill:none;fill-rule:evenodd;stroke:#d08c58;stroke-width:0.352778;stroke-linecap:square;stroke-linejoin:round;stroke-miterlimit:1.5;stroke-dasharray:none;stroke-opacity:1"
   id="path6456" /><path
   style="font-style:italic;font-size:2.11667px;font-family:Menlo;-inkscape-font-specification:'Menlo Italic';text-align:center;text-anchor:middle;fill:#ffffff;fill-opacity:1;stroke-width:0.352778"
   d="m 96.526479,83.369496 h 0.208773 l -0.266651,1.36736 h 0.745175 l -0.03411,0.175701 h -0.953948 z"
   id="path6458"
   aria-label="L" /><path
   style="font-style:italic;font-size:2.11667px;font-family:Menlo;-inkscape-font-specification:'Menlo Italic';text-align:center;text-anchor:middle;fill:#ffffff;fill-opacity:1;stroke-width:0.352778"
   d="m 99.775537,84.183918 q 0.07442,0.01447 0.118856,0.06925 0.04548,0.05478 0.101286,0.237712 l 0.125061,0.421681 H 99.912997 L 99.803443,84.52292 q -0.04548,-0.161231 -0.10232,-0.211874 -0.05581,-0.05064 -0.169499,-0.05064 h -0.198438 l -0.127124,0.652158 h -0.209806 l 0.29869,-1.543061 h 0.429948 q 0.213941,0 0.330726,0.09302 0.11783,0.09198 0.11783,0.260449 0,0.189136 -0.10749,0.31316 -0.106454,0.124024 -0.290423,0.147795 z m -0.302824,-0.642856 -0.10542,0.547771 h 0.226343 q 0.168465,0 0.268718,-0.08785 0.101286,-0.08888 0.101286,-0.235645 0,-0.115755 -0.06511,-0.169499 -0.06511,-0.05478 -0.205672,-0.05478 z"
   id="path6460"
   aria-label="R" /><path
   d="m 110.19069,87.64507 v 26.25811"
   style="clip-rule:evenodd;fill:none;fill-rule:evenodd;stroke:#d08c58;stroke-width:0.352778;stroke-linecap:square;stroke-linejoin:round;stroke-miterlimit:1.5;stroke-dasharray:none;stroke-opacity:1"
   id="path6462" /><path
   style="font-style:italic;font-size:2.11667px;font-family:Menlo;-inkscape-font-specification:'Menlo Italic';text-align:center;text-anchor:middle;fill:#ffffff;fill-opacity:1;stroke-width:0.352778"
   d="m 108.52848,83.369496 h 0.20877 l -0.26665,1.36736 h 0.74518 l -0.0341,0.175701 h -0.95395 z"
   id="path6464"
   aria-label="L" /><path
   style="font-style:italic;font-size:2.11667px;font-family:Menlo;-inkscape-font-specification:'Menlo Italic';text-align:center;text-anchor:middle;fill:#ffffff;fill-opacity:1;stroke-width:0.352778"
   d="m 111.77754,84.183918 q 0.0744,0.01447 0.11885,0.06925 0.0455,0.05478 0.10129,0.237712 l 0.12506,0.421681 H 111.915 l -0.10956,-0.389641 q -0.0455,-0.161231 -0.10232,-0.211874 -0.0558,-0.05064 -0.1695,-0.05064 h -0.19843 l -0.12713,0.652158 h -0.2098 l 0.29869,-1.543061 h 0.42994 q 0.21395,0 0.33073,0.09302 0.11783,0.09198 0.11783,0.260449 0,0.189136 -0.10749,0.31316 -0.10645,0.124024 -0.29042,0.147795 z m -0.30283,-0.642856 -0.10542,0.547771 h 0.22635 q 0.16846,0 0.26871,-0.08785 0.10129,-0.08888 0.10129,-0.235645 0,-0.115755 -0.0651,-0.169499 -0.0651,-0.05478 -0.20567,-0.05478 z"
   id="path6466"
   aria-label="R" /><path
   d="m 122.30569,87.64507 v 26.25811"
   style="clip-rule:evenodd;fill:none;fill-rule:evenodd;stroke:#d08c58;stroke-width:0.352778;stroke-linecap:square;stroke-linejoin:round;stroke-miterlimit:1.5;stroke-dasharray:none;stroke-opacity:1"
   id="path6468" /><path
   style="font-style:italic;font-size:2.11667px;font-family:Menlo;-inkscape-font-specification:'Menlo Italic';text-align:center;text-anchor:middle;fill:#ffffff;fill-opacity:1;stroke-width:0.352778"
   d="m 120.64348,83.369496 h 0.20877 l -0.26665,1.36736 h 0.74518 l -0.0341,0.175701 h -0.95395 z"
   id="path6470"
   aria-label="L" /><path
   style="font-style:italic;font-size:2.11667px;font-family:Menlo;-inkscape-font-specification:'Menlo Italic';text-align:center;text-anchor:middle;fill:#ffffff;fill-opacity:1;stroke-width:0.352778"
   d="m 123.89254,84.183918 q 0.0744,0.01447 0.11885,0.06925 0.0455,0.05478 0.10129,0.237712 l 0.12506,0.421681 H 124.03 l -0.10956,-0.389641 q -0.0455,-0.161231 -0.10232,-0.211874 -0.0558,-0.05064 -0.1695,-0.05064 h -0.19843 l -0.12713,0.652158 h -0.2098 l 0.29869,-1.543061 h 0.42994 q 0.21395,0 0.33073,0.09302 0.11783,0.09198 0.11783,0.260449 0,0.189136 -0.10749,0.31316 -0.10645,0.124024 -0.29042,0.147795 z m -0.30283,-0.642856 -0.10542,0.547771 h 0.22635 q 0.16846,0 0.26871,-0.08785 0.10129,-0.08888 0.10129,-0.235645 0,-0.115755 -0.0651,-0.169499 -0.0651,-0.05478 -0.20567,-0.05478 z"
   id="path6472"
   aria-label="R" /><path
   d="m 134.40869,87.64507 v 26.25811"
   style="clip-rule:evenodd;fill:none;fill-rule:evenodd;stroke:#d08c58;stroke-width:0.352778;stroke-linecap:square;stroke-linejoin:round;stroke-miterlimit:1.5;stroke-dasharray:none;stroke-opacity:1"
   id="path6474" /><path
   style="font-style:italic;font-size:2.11667px;font-family:Menlo;-inkscape-font-specification:'Menlo Italic';text-align:center;text-anchor:middle;fill:#ffffff;fill-opacity:1;stroke-width:0.352778"
   d="m 132.74648,83.369496 h 0.20877 l -0.26665,1.36736 h 0.74518 l -0.0341,0.175701 h -0.95395 z"
   id="path6476"
   aria-label="L" /><path
   style="font-style:italic;font-size:2.11667px;font-family:Menlo;-inkscape-font-specification:'Menlo Italic';text-align:center;text-anchor:middle;fill:#ffffff;fill-opacity:1;stroke-width:0.352778"
   d="m 135.99554,84.183918 q 0.0744,0.01447 0.11885,0.06925 0.0455,0.05478 0.10129,0.237712 l 0.12506,0.421681 H 136.133 l -0.10956,-0.389641 q -0.0455,-0.161231 -0.10232,-0.211874 -0.0558,-0.05064 -0.1695,-0.05064 h -0.19843 l -0.12713,0.652158 h -0.2098 l 0.29869,-1.543061 h 0.42994 q 0.21395,0 0.33073,0.09302 0.11783,0.09198 0.11783,0.260449 0,0.189136 -0.10749,0.31316 -0.10645,0.124024 -0.29042,0.147795 z m -0.30283,-0.642856 -0.10542,0.547771 h 0.22635 q 0.16846,0 0.26871,-0.08785 0.10129,-0.08888 0.10129,-0.235645 0,-0.115755 -0.0651,-0.169499 -0.0651,-0.05478 -0.20567,-0.05478 z"
   id="path6478"
   aria-label="R" /><path
   style="font-style:italic;font-size:2.11667px;font-family:Menlo;-inkscape-font-specification:'Menlo Italic';text-align:center;text-anchor:middle;fill:#ffffff;fill-opacity:1;stroke-width:0.352778"
   d="m 144.94948,83.369496 h 0.20877 l -0.26665,1.36736 h 0.74518 l -0.0341,0.175701 h -0.95395 z"
   id="path6480"
   aria-label="L" /><path
   style="font-style:italic;font-size:2.11667px;font-family:Menlo;-inkscape-font-specification:'Menlo Italic';text-align:center;text-anchor:middle;fill:#ffffff;fill-opacity:1;stroke-width:0.352778"
   d="m 148.39887,84.183918 q 0.0744,0.01447 0.11885,0.06925 0.0455,0.05478 0.10129,0.237712 l 0.12506,0.421681 h -0.20774 l -0.10956,-0.389641 q -0.0455,-0.161231 -0.10232,-0.211874 -0.0558,-0.05064 -0.1695,-0.05064 h -0.19843 l -0.12713,0.652158 h -0.2098 l 0.29869,-1.543061 h 0.42994 q 0.21395,0 0.33073,0.09302 0.11783,0.09198 0.11783,0.260449 0,0.189136 -0.10749,0.31316 -0.10645,0.124024 -0.29042,0.147795 z m -0.30283,-0.642856 -0.10542,0.547771 h 0.22635 q 0.16846,0 0.26871,-0.08785 0.10129,-0.08888 0.10129,-0.235645 0,-0.115755 -0.0651,-0.169499 -0.0651,-0.05478 -0.20567,-0.05478 z"
   id="path6482"
   aria-label="R" /><path
   d="m 98.32331,20.093209 v 54.21713"
   style="clip-rule:evenodd;fill:none;fill-rule:evenodd;stroke:#d08c58;stroke-width:0.352778;stroke-linecap:square;stroke-linejoin:round;stroke-miterlimit:1.5;stroke-dasharray:none;stroke-opacity:1"
   id="path6484" /><path
   d="m 110.09165,20.093209 v 54.21713"
   style="clip-rule:evenodd;fill:none;fill-rule:evenodd;stroke:#d08c58;stroke-width:0.352778;stroke-linecap:square;stroke-linejoin:round;stroke-miterlimit:1.5;stroke-dasharray:none;stroke-opacity:1"
   id="path6486" /><path
   d="m 122.32926,20.093209 v 54.21713"
   style="clip-rule:evenodd;fill:none;fill-rule:evenodd;stroke:#d08c58;stroke-width:0.352778;stroke-linecap:square;stroke-linejoin:round;stroke-miterlimit:1.5;stroke-dasharray:none;stroke-opacity:1"
   id="path6488" /><path
   d="m 134.19861,20.093209 v 54.21713"
   style="clip-rule:evenodd;fill:none;fill-rule:evenodd;stroke:#d08c58;stroke-width:0.352778;stroke-linecap:square;stroke-linejoin:round;stroke-miterlimit:1.5;stroke-dasharray:none;stroke-opacity:1"
   id="path6490" /><path
   d="M 146.63589,20.093209 V 67.618216"
   style="clip-rule:evenodd;fill:none;fill-rule:evenodd;stroke:#d08c58;stroke-width:0.352778;stroke-linecap:square;stroke-linejoin:round;stroke-miterlimit:1.5;stroke-dasharray:none;stroke-opacity:1"
   id="path6492" /><path
   d="M 146.6786,67.527522 V 114.62732"
   style="clip-rule:evenodd;fill:none;fill-rule:evenodd;stroke:#d08c58;stroke-width:0.352778;stroke-linecap:square;stroke-linejoin:round;stroke-miterlimit:1.5;stroke-dasharray:none;stroke-opacity:1"
   id="path6494" /><path
   d="m 159.30371,87.64507 v 26.25811"
   style="clip-rule:evenodd;fill:none;fill-rule:evenodd;stroke:#d08c58;stroke-width:0.352778;stroke-linecap:square;stroke-linejoin:round;stroke-miterlimit:1.5;stroke-dasharray:none;stroke-opacity:1"
   id="path6496" /><path
   style="font-style:italic;font-size:2.11667px;font-family:Menlo;-inkscape-font-specification:'Menlo Italic';text-align:center;text-anchor:middle;fill:#ffffff;fill-opacity:1;stroke-width:0.352778"
   d="m 157.6415,83.369496 h 0.20878 l -0.26666,1.36736 h 0.74518 l -0.0341,0.175701 h -0.95395 z"
   id="path6498"
   aria-label="L" /><path
   style="font-style:italic;font-size:2.11667px;font-family:Menlo;-inkscape-font-specification:'Menlo Italic';text-align:center;text-anchor:middle;fill:#ffffff;fill-opacity:1;stroke-width:0.352778"
   d="m 160.89056,84.183918 q 0.0744,0.01447 0.11886,0.06925 0.0455,0.05478 0.10128,0.237712 l 0.12506,0.421681 h -0.20774 l -0.10955,-0.389641 q -0.0455,-0.161231 -0.10232,-0.211874 -0.0558,-0.05064 -0.1695,-0.05064 h -0.19844 l -0.12712,0.652158 h -0.20981 l 0.29869,-1.543061 h 0.42995 q 0.21394,0 0.33072,0.09302 0.11783,0.09198 0.11783,0.260449 0,0.189136 -0.10749,0.31316 -0.10645,0.124024 -0.29042,0.147795 z m -0.30282,-0.642856 -0.10542,0.547771 h 0.22634 q 0.16846,0 0.26872,-0.08785 0.10128,-0.08888 0.10128,-0.235645 0,-0.115755 -0.0651,-0.169499 -0.0651,-0.05478 -0.20567,-0.05478 z"
   id="path6500"
   aria-label="R" /><path
   d="m 171.30571,87.64507 v 26.25811"
   style="clip-rule:evenodd;fill:none;fill-rule:evenodd;stroke:#d08c58;stroke-width:0.352778;stroke-linecap:square;stroke-linejoin:round;stroke-miterlimit:1.5;stroke-dasharray:none;stroke-opacity:1"
   id="path6502" /><path
   style="font-style:italic;font-size:2.11667px;font-family:Menlo;-inkscape-font-specification:'Menlo Italic';text-align:center;text-anchor:middle;fill:#ffffff;fill-opacity:1;stroke-width:0.352778"
   d="m 169.6435,83.369496 h 0.20877 l -0.26665,1.36736 h 0.74518 l -0.0341,0.175701 h -0.95395 z"
   id="path6504"
   aria-label="L" /><path
   style="font-style:italic;font-size:2.11667px;font-family:Menlo;-inkscape-font-specification:'Menlo Italic';text-align:center;text-anchor:middle;fill:#ffffff;fill-opacity:1;stroke-width:0.352778"
   d="m 172.89256,84.183918 q 0.0744,0.01447 0.11885,0.06925 0.0455,0.05478 0.10129,0.237712 l 0.12506,0.421681 h -0.20774 l -0.10956,-0.389641 q -0.0455,-0.161231 -0.10232,-0.211874 -0.0558,-0.05064 -0.1695,-0.05064 h -0.19843 l -0.12713,0.652158 h -0.2098 l 0.29869,-1.543061 h 0.42994 q 0.21395,0 0.33073,0.09302 0.11783,0.09198 0.11783,0.260449 0,0.189136 -0.10749,0.31316 -0.10645,0.124024 -0.29042,0.147795 z m -0.30283,-0.642856 -0.10542,0.547771 h 0.22635 q 0.16846,0 0.26871,-0.08785 0.10129,-0.08888 0.10129,-0.235645 0,-0.115755 -0.0651,-0.169499 -0.0651,-0.05478 -0.20567,-0.05478 z"
   id="path6506"
   aria-label="R" /><path
   d="m 183.42071,87.64507 v 26.25811"
   style="clip-rule:evenodd;fill:none;fill-rule:evenodd;stroke:#d08c58;stroke-width:0.352778;stroke-linecap:square;stroke-linejoin:round;stroke-miterlimit:1.5;stroke-dasharray:none;stroke-opacity:1"
   id="path6508" /><path
   style="font-style:italic;font-size:2.11667px;font-family:Menlo;-inkscape-font-specification:'Menlo Italic';text-align:center;text-anchor:middle;fill:#ffffff;fill-opacity:1;stroke-width:0.352778"
   d="m 181.7585,83.369496 h 0.20877 l -0.26665,1.36736 h 0.74518 l -0.0341,0.175701 h -0.95395 z"
   id="path6510"
   aria-label="L" /><path
   style="font-style:italic;font-size:2.11667px;font-family:Menlo;-inkscape-font-specification:'Menlo Italic';text-align:center;text-anchor:middle;fill:#ffffff;fill-opacity:1;stroke-width:0.352778"
   d="m 185.00756,84.183918 q 0.0744,0.01447 0.11885,0.06925 0.0455,0.05478 0.10129,0.237712 l 0.12506,0.421681 h -0.20774 l -0.10956,-0.389641 q -0.0455,-0.161231 -0.10232,-0.211874 -0.0558,-0.05064 -0.1695,-0.05064 h -0.19843 l -0.12713,0.652158 h -0.2098 l 0.29869,-1.543061 h 0.42994 q 0.21395,0 0.33073,0.09302 0.11783,0.09198 0.11783,0.260449 0,0.189136 -0.10749,0.31316 -0.10645,0.124024 -0.29042,0.147795 z m -0.30283,-0.642856 -0.10542,0.547771 h 0.22635 q 0.16846,0 0.26871,-0.08785 0.10129,-0.08888 0.10129,-0.235645 0,-0.115755 -0.0651,-0.169499 -0.0651,-0.05478 -0.20567,-0.05478 z"
   id="path6512"
   aria-label="R" /><path
   d="m 195.52371,87.64507 v 26.25811"
   style="clip-rule:evenodd;fill:none;fill-rule:evenodd;stroke:#d08c58;stroke-width:0.352778;stroke-linecap:square;stroke-linejoin:round;stroke-miterlimit:1.5;stroke-dasharray:none;stroke-opacity:1"
   id="path6514" /><path
   style="font-style:italic;font-size:2.11667px;font-family:Menlo;-inkscape-font-specification:'Menlo Italic';text-align:center;text-anchor:middle;fill:#ffffff;fill-opacity:1;stroke-width:0.352778"
   d="m 193.8615,83.369496 h 0.20877 l -0.26665,1.36736 h 0.74518 l -0.0341,0.175701 h -0.95395 z"
   id="path6516"
   aria-label="L" /><path
   style="font-style:italic;font-size:2.11667px;font-family:Menlo;-inkscape-font-specification:'Menlo Italic';text-align:center;text-anchor:middle;fill:#ffffff;fill-opacity:1;stroke-width:0.352778"
   d="m 197.11056,84.183918 q 0.0744,0.01447 0.11885,0.06925 0.0455,0.05478 0.10129,0.237712 l 0.12506,0.421681 h -0.20774 l -0.10956,-0.389641 q -0.0455,-0.161231 -0.10232,-0.211874 -0.0558,-0.05064 -0.1695,-0.05064 h -0.19843 l -0.12713,0.652158 h -0.2098 l 0.29869,-1.543061 h 0.42994 q 0.21395,0 0.33073,0.09302 0.11783,0.09198 0.11783,0.260449 0,0.189136 -0.10749,0.31316 -0.10645,0.124024 -0.29042,0.147795 z m -0.30283,-0.642856 -0.10542,0.547771 h 0.22635 q 0.16846,0 0.26871,-0.08785 0.10129,-0.08888 0.10129,-0.235645 0,-0.115755 -0.0651,-0.169499 -0.0651,-0.05478 -0.20567,-0.05478 z"
   id="path6518"
   aria-label="R" /><path
   style="font-style:italic;font-size:2.11667px;font-family:Menlo;-inkscape-font-specification:'Menlo Italic';text-align:center;text-anchor:middle;fill:#ffffff;fill-opacity:1;stroke-width:0.352778"
   d="m 206.0645,83.369496 h 0.20877 l -0.26665,1.36736 h 0.74518 l -0.0341,0.175701 h -0.95395 z"
   id="path6520"
   aria-label="L" /><path
   style="font-style:italic;font-size:2.11667px;font-family:Menlo;-inkscape-font-specification:'Menlo Italic';text-align:center;text-anchor:middle;fill:#ffffff;fill-opacity:1;stroke-width:0.352778"
   d="m 209.51389,84.183918 q 0.0744,0.01447 0.11885,0.06925 0.0455,0.05478 0.10129,0.237712 l 0.12506,0.421681 h -0.20774 l -0.10956,-0.389641 q -0.0455,-0.161231 -0.10232,-0.211874 -0.0558,-0.05064 -0.1695,-0.05064 h -0.19843 l -0.12713,0.652158 h -0.2098 l 0.29869,-1.543061 h 0.42994 q 0.21395,0 0.33073,0.09302 0.11783,0.09198 0.11783,0.260449 0,0.189136 -0.10749,0.31316 -0.10645,0.124024 -0.29042,0.147795 z m -0.30283,-0.642856 -0.10542,0.547771 h 0.22635 q 0.16846,0 0.26871,-0.08785 0.10129,-0.08888 0.10129,-0.235645 0,-0.115755 -0.0651,-0.169499 -0.0651,-0.05478 -0.20567,-0.05478 z"
   id="path6522"
   aria-label="R" /><path
   d="M 159.32639,20.114792 V 88.430279"
   style="clip-rule:evenodd;fill:none;fill-rule:evenodd;stroke:#d08c58;stroke-width:0.352778;stroke-linecap:square;stroke-linejoin:round;stroke-miterlimit:1.5;stroke-dasharray:none;stroke-opacity:1"
   id="path6524" /><path
   d="M 171.2917,20.114792 V 88.430279"
   style="clip-rule:evenodd;fill:none;fill-rule:evenodd;stroke:#d08c58;stroke-width:0.352778;stroke-linecap:square;stroke-linejoin:round;stroke-miterlimit:1.5;stroke-dasharray:none;stroke-opacity:1"
   id="path6526" /><path
   d="M 183.42595,20.114792 V 88.430279"
   style="clip-rule:evenodd;fill:none;fill-rule:evenodd;stroke:#d08c58;stroke-width:0.35277778;stroke-linecap:square;stroke-linejoin:round;stroke-miterlimit:1.5;stroke-dasharray:none;stroke-opacity:1"
   id="path6528" /><path
   d="M 195.49239,20.114792 V 88.430279"
   style="clip-rule:evenodd;fill:none;fill-rule:evenodd;stroke:#d08c58;stroke-width:0.352778;stroke-linecap:square;stroke-linejoin:round;stroke-miterlimit:1.5;stroke-dasharray:none;stroke-opacity:1"
   id="path6530" /><path
   d="M 207.75091,20.093209 V 67.618216"
   style="clip-rule:evenodd;fill:none;fill-rule:evenodd;stroke:#d08c58;stroke-width:0.352778;stroke-linecap:square;stroke-linejoin:round;stroke-miterlimit:1.5;stroke-dasharray:none;stroke-opacity:1"
   id="path6532" /><path
   d="M 207.79362,67.527522 V 114.62732"
   style="clip-rule:evenodd;fill:none;fill-rule:evenodd;stroke:#d08c58;stroke-width:0.352778;stroke-linecap:square;stroke-linejoin:round;stroke-miterlimit:1.5;stroke-dasharray:none;stroke-opacity:1"
   id="path6534" /><g
   id="g6245"
   style="clip-rule:evenodd;fill-rule:evenodd;stroke-linecap:square;stroke-linejoin:round;stroke-miterlimit:1.5"
   transform="translate(60.959999)"><g
     id="g29"
     style="clip-rule:evenodd;fill:#ffffff;fill-opacity:1;fill-rule:evenodd;stroke:none;stroke-linecap:square;stroke-linejoin:round;stroke-miterlimit:1.5;stroke-opacity:1"
     transform="matrix(0.35202321,0,0,0.35202321,24.021852,0.86910258)">
                <path
   d="m 95.792,354.678 c 0.172,0.357 0.228,0.715 0.168,1.075 h -1.203 c -0.018,-0.276 -0.074,-0.485 -0.168,-0.625 -0.164,-0.25 -0.461,-0.375 -0.89,-0.375 -0.438,0 -0.821,0.176 -1.149,0.529 -0.328,0.353 -0.56,0.852 -0.695,1.498 -0.138,0.646 -0.108,1.129 0.09,1.451 0.198,0.322 0.502,0.482 0.914,0.482 0.422,0 0.773,-0.138 1.054,-0.414 0.154,-0.148 0.303,-0.371 0.446,-0.668 h 1.191 c -0.237,0.628 -0.611,1.138 -1.123,1.532 -0.512,0.393 -1.102,0.59 -1.771,0.59 -0.828,0 -1.424,-0.266 -1.786,-0.797 -0.359,-0.534 -0.44,-1.266 -0.242,-2.196 0.214,-1.005 0.647,-1.78 1.301,-2.324 0.57,-0.474 1.218,-0.711 1.941,-0.711 0.969,0 1.61,0.318 1.922,0.953 z"
   style="fill:#ffffff;fill-opacity:1;fill-rule:nonzero;stroke:none;stroke-opacity:1"
   id="path24" />
                <path
   d="m 98.456,358.206 2.192,-4.371 h 1.25 l -3.188,5.757 h -1.136 l -0.723,-5.757 h 1.285 z"
   style="fill:#ffffff;fill-opacity:1;fill-rule:nonzero;stroke:none;stroke-opacity:1"
   id="path25" />
                <path
   d="m 106.441,355.374 -0.168,0.785 h -0.731 l -0.726,3.433 h -1.11 l 0.727,-3.433 h -0.621 l 0.168,-0.785 h 0.609 l 0.059,-0.274 c 0.096,-0.456 0.239,-0.769 0.43,-0.941 0.216,-0.255 0.632,-0.383 1.25,-0.383 0.07,0 0.133,0.002 0.189,0.006 0.056,0.004 0.133,0.01 0.232,0.017 l -0.195,0.907 c -0.06,-0.008 -0.163,-0.014 -0.309,-0.018 -0.145,-0.004 -0.254,0.029 -0.326,0.098 -0.071,0.069 -0.115,0.145 -0.131,0.228 -0.018,0.084 -0.044,0.203 -0.078,0.36 z"
   style="fill:#ffffff;fill-opacity:1;fill-rule:nonzero;stroke:none;stroke-opacity:1"
   id="path26" />
                <path
   d="m 109.042,358.991 c -0.013,0.013 -0.047,0.052 -0.101,0.117 -0.055,0.065 -0.116,0.122 -0.184,0.172 -0.208,0.156 -0.4,0.263 -0.576,0.32 -0.176,0.057 -0.373,0.086 -0.592,0.086 -0.63,0 -1.006,-0.226 -1.129,-0.68 -0.067,-0.25 -0.049,-0.618 0.055,-1.105 l 0.543,-2.566 h 1.141 l -0.543,2.566 c -0.052,0.242 -0.063,0.424 -0.032,0.547 0.055,0.216 0.231,0.324 0.528,0.324 0.38,0 0.673,-0.154 0.879,-0.461 0.109,-0.167 0.192,-0.387 0.25,-0.66 l 0.492,-2.316 h 1.129 l -0.903,4.257 h -1.082 z"
   style="fill:#ffffff;fill-opacity:1;fill-rule:nonzero;stroke:none;stroke-opacity:1"
   id="path27" />
                <path
   d="m 114.339,357.003 c 0.05,-0.224 0.056,-0.396 0.02,-0.516 -0.063,-0.219 -0.248,-0.328 -0.555,-0.328 -0.378,0 -0.67,0.16 -0.879,0.48 -0.109,0.17 -0.191,0.386 -0.246,0.649 l -0.488,2.304 h -1.11 l 0.903,-4.25 h 1.074 l -0.133,0.621 c 0.19,-0.218 0.36,-0.376 0.508,-0.472 0.266,-0.172 0.574,-0.258 0.926,-0.258 0.44,0 0.775,0.115 1.006,0.346 0.23,0.23 0.289,0.612 0.177,1.146 l -0.609,2.867 h -1.141 z"
   style="fill:#ffffff;fill-opacity:1;fill-rule:nonzero;stroke:none;stroke-opacity:1"
   id="path28" />
                <path
   d="m 117.324,358.253 -0.282,1.339 h -1.093 l 1.218,-5.738 h 1.094 l -0.66,3.102 1.727,-1.602 h 1.378 l -1.836,1.629 0.997,2.609 h -1.344 l -0.633,-1.82 z"
   style="fill:#ffffff;fill-opacity:1;fill-rule:nonzero;stroke:none;stroke-opacity:1"
   id="path29" />
            </g><path
     d="m 48.368833,126.44948 h 6.688441"
     style="clip-rule:evenodd;fill:#000000;fill-rule:evenodd;stroke:#d08c58;stroke-width:0.228815px;stroke-linecap:round;stroke-linejoin:round;stroke-miterlimit:1.5;stroke-opacity:1"
     id="path30" /><path
     d="m 66.862725,126.44948 h 6.688441"
     style="clip-rule:evenodd;fill:#000000;fill-rule:evenodd;stroke:#d08c58;stroke-width:0.228815px;stroke-linecap:round;stroke-linejoin:round;stroke-miterlimit:1.5;stroke-opacity:1"
     id="path31" /></g><path
   style="font-style:italic;font-size:3.175px;font-family:Menlo;-inkscape-font-specification:'Menlo Italic';text-align:center;text-anchor:middle;clip-rule:evenodd;fill:#ffffff;fill-opacity:1;fill-rule:evenodd;stroke-width:0.352778;stroke-linecap:square;stroke-linejoin:round;stroke-miterlimit:1.5"
   d="m 106.02898,12.599928 -0.0605,0.31781 q -0.12558,-0.09147 -0.26045,-0.137976 -0.13488,-0.04651 -0.27906,-0.04651 -0.25579,0 -0.41702,0.127124 -0.16123,0.127124 -0.16123,0.324012 0,0.11007 0.076,0.178283 0.076,0.06821 0.27595,0.130225 l 0.18758,0.06046 q 0.2527,0.07752 0.36897,0.20774 0.11783,0.128674 0.11783,0.328662 0,0.364319 -0.25735,0.578259 -0.25735,0.21239 -0.70229,0.21239 -0.16123,0 -0.31781,-0.03566 -0.15503,-0.03411 -0.31005,-0.103869 l 0.0636,-0.324012 q 0.15192,0.106971 0.30695,0.15813 0.15658,0.05116 0.33022,0.05116 0.25579,0 0.41547,-0.136426 0.15968,-0.136426 0.15968,-0.345715 0,-0.127124 -0.0682,-0.196887 -0.0682,-0.06976 -0.2744,-0.133325 l -0.15658,-0.05116 q -0.28525,-0.08992 -0.39997,-0.203089 -0.11317,-0.114721 -0.11317,-0.302307 0,-0.342614 0.25579,-0.559655 0.2558,-0.218592 0.66818,-0.218592 0.12402,0 0.26355,0.03101 0.14108,0.03101 0.28835,0.08992 z m 0.43253,-0.07906 h 1.76733 l -0.0512,0.26355 h -0.72708 l -0.39688,2.051038 h -0.31626 l 0.39998,-2.051038 h -0.72709 z m 2.1456,0 h 1.37201 l -0.0512,0.26355 h -1.0604 l -0.13332,0.685229 h 1.01234 l -0.0496,0.26355 h -1.01389 l -0.16123,0.838709 h 1.0883 l -0.0512,0.26355 h -1.40301 z m 2.56574,1.221631 q 0.11162,0.0217 0.17828,0.10387 0.0682,0.08216 0.15193,0.356567 l 0.18759,0.63252 h -0.31161 l -0.16433,-0.584461 q -0.0682,-0.241846 -0.15348,-0.31781 -0.0837,-0.07596 -0.25425,-0.07596 h -0.29766 l -0.19068,0.978235 h -0.31471 l 0.44803,-2.314588 h 0.64492 q 0.32091,0 0.4961,0.139527 0.17673,0.137976 0.17673,0.390673 0,0.283704 -0.16123,0.469739 -0.15968,0.186035 -0.43563,0.221692 z m -0.45424,-0.964282 -0.15813,0.821655 H 110.9 q 0.25269,0 0.40307,-0.131775 0.15193,-0.133325 0.15193,-0.353467 0,-0.173632 -0.0977,-0.254248 -0.0977,-0.08216 -0.30851,-0.08216 z m 1.71153,-0.257349 h 1.37201 l -0.0512,0.26355 h -1.0604 l -0.13333,0.685229 h 1.01234 l -0.0496,0.26355 h -1.01389 l -0.16123,0.838709 h 1.0883 l -0.0512,0.26355 h -1.40301 z m 2.15645,2.105298 q 0.13178,0 0.2434,-0.07906 0.11162,-0.07906 0.18448,-0.226343 0.11473,-0.224792 0.18604,-0.544153 0.0713,-0.31936 0.0713,-0.613916 0,-0.220141 -0.0822,-0.324011 -0.0806,-0.10542 -0.25115,-0.10542 -0.13177,0 -0.24184,0.07906 -0.11007,0.07906 -0.18294,0.226343 -0.11782,0.227893 -0.18913,0.544153 -0.0713,0.31626 -0.0713,0.610815 0,0.221692 0.0806,0.327112 0.0822,0.10542 0.25269,0.10542 z m 1.00614,-1.372009 q 0,0.170532 -0.0357,0.37052 -0.0341,0.199988 -0.10076,0.410827 -0.045,0.142627 -0.0977,0.255799 -0.0512,0.113171 -0.11163,0.204638 -0.13642,0.196888 -0.3054,0.291455 -0.16898,0.09302 -0.39378,0.09302 -0.31161,0 -0.46198,-0.190686 -0.15038,-0.190686 -0.15038,-0.587561 0,-0.172083 0.0326,-0.36897 0.0341,-0.198437 0.10077,-0.409277 0.045,-0.142627 0.0961,-0.255798 0.0527,-0.113172 0.11317,-0.204639 0.13642,-0.196887 0.30541,-0.289905 0.16898,-0.09457 0.39377,-0.09457 0.31316,0 0.46354,0.190686 0.15193,0.189136 0.15193,0.584461 z m 2.57504,-0.733289 h 1.28674 l -0.0512,0.26355 h -0.48679 l -0.34571,1.787488 h 0.48679 l -0.0512,0.26355 h -1.28674 l 0.0512,-0.26355 h 0.48524 l 0.34726,-1.787488 h -0.48679 z m 1.81694,0 h 0.39688 l 0.40928,1.90531 0.37052,-1.90531 h 0.3023 l -0.45113,2.314588 h -0.39688 l -0.40927,-1.90531 -0.37207,1.90531 h -0.30076 z m 2.26343,0.257349 -0.16898,0.869714 h 0.36277 q 0.2558,0 0.40772,-0.147278 0.15348,-0.148828 0.15348,-0.395324 0,-0.167432 -0.0961,-0.246497 -0.0961,-0.08061 -0.29765,-0.08061 z m -0.26355,-0.257349 h 0.68213 q 0.31936,0 0.48679,0.142627 0.16743,0.142627 0.16743,0.412378 0,0.386023 -0.24804,0.607715 -0.24805,0.221692 -0.68213,0.221692 h -0.36122 l -0.18138,0.930176 h -0.31471 z m 1.5596,1.42627 0.27595,-1.42627 h 0.31471 l -0.2775,1.42627 q -0.003,0.02015 -0.0124,0.06356 -0.0465,0.238745 -0.0465,0.330212 0,0.142627 0.0837,0.213941 0.0853,0.07131 0.2558,0.07131 0.13797,0 0.23409,-0.04341 0.0961,-0.04496 0.16588,-0.141077 0.0341,-0.04806 0.0682,-0.164331 0.0357,-0.117822 0.0775,-0.330212 l 0.27595,-1.42627 h 0.31471 l -0.27595,1.42627 q -0.0651,0.339514 -0.13953,0.499194 -0.0729,0.15813 -0.19378,0.255798 -0.11007,0.08682 -0.25115,0.133326 -0.14108,0.04496 -0.30541,0.04496 -0.29765,0 -0.45889,-0.139526 -0.15968,-0.139527 -0.15968,-0.396875 0,-0.05736 0.0124,-0.15503 0.0139,-0.09767 0.0419,-0.241845 z m 2.03243,-1.42627 h 1.76733 l -0.0512,0.26355 h -0.72708 l -0.39688,2.051038 h -0.31626 l 0.39998,-2.051038 h -0.72709 z m 3.39049,0.07906 -0.0605,0.31781 q -0.12557,-0.09147 -0.26045,-0.137976 -0.13487,-0.04651 -0.27905,-0.04651 -0.2558,0 -0.41703,0.127124 -0.16123,0.127124 -0.16123,0.324012 0,0.11007 0.076,0.178283 0.076,0.06821 0.27595,0.130225 l 0.18759,0.06046 q 0.2527,0.07752 0.36897,0.20774 0.11782,0.128674 0.11782,0.328662 0,0.364319 -0.25735,0.578259 -0.25735,0.21239 -0.70228,0.21239 -0.16123,0 -0.31781,-0.03566 -0.15503,-0.03411 -0.31006,-0.103869 l 0.0636,-0.324012 q 0.15193,0.106971 0.30696,0.15813 0.15658,0.05116 0.33021,0.05116 0.2558,0 0.41548,-0.136426 0.15968,-0.136426 0.15968,-0.345715 0,-0.127124 -0.0682,-0.196887 -0.0682,-0.06976 -0.2744,-0.133325 l -0.15658,-0.05116 q -0.28526,-0.08992 -0.39998,-0.203089 -0.11317,-0.114721 -0.11317,-0.302307 0,-0.342614 0.2558,-0.559655 0.2558,-0.218592 0.66817,-0.218592 0.12403,0 0.26355,0.03101 0.14108,0.03101 0.28836,0.08992 z"
   id="text44"
   aria-label="STEREO INPUTS" /><path
   style="font-style:italic;font-size:3.175px;font-family:Menlo;-inkscape-font-specification:'Menlo Italic';text-align:center;text-anchor:middle;clip-rule:evenodd;fill:#ffffff;fill-opacity:1;fill-rule:evenodd;stroke-width:0.352778;stroke-linecap:square;stroke-linejoin:round;stroke-miterlimit:1.5"
   d="m 99.172033,81.117935 0.927077,-2.020031 h 0.33331 l -1.114657,2.314587 h -0.39998 l -0.22789,-2.314587 h 0.30696 z m 2.584337,0.21239 q -0.13023,0.06356 -0.26355,0.09457 -0.13178,0.03256 -0.27285,0.03256 -0.35657,0 -0.55346,-0.206189 -0.19533,-0.206189 -0.19533,-0.57826 0,-0.341064 0.10852,-0.675927 0.10852,-0.334864 0.28525,-0.547254 0.16588,-0.201538 0.36587,-0.297656 0.19999,-0.09612 0.45579,-0.09612 0.12402,0 0.24649,0.03256 0.12248,0.03256 0.23875,0.09457 l -0.0636,0.32091 q -0.0992,-0.09767 -0.20929,-0.145727 -0.11007,-0.04806 -0.2341,-0.04806 -0.14727,0 -0.27285,0.06356 -0.12557,0.06201 -0.23564,0.190686 -0.16123,0.190686 -0.26045,0.488342 -0.0977,0.297656 -0.0977,0.596863 0,0.268201 0.12092,0.410828 0.12092,0.142626 0.34882,0.142626 0.13177,0 0.2713,-0.04961 0.14108,-0.04961 0.2775,-0.144177 z m 1.5875,-1.971972 -0.56431,1.199927 h 0.66663 z m -0.14883,-0.260449 h 0.38137 l 0.25735,2.314587 h -0.31161 l -0.0543,-0.603064 h -0.80615 l -0.28525,0.603064 h -0.33642 z m 3.36879,0 h 1.28674 l -0.0512,0.263549 h -0.48679 l -0.34572,1.787488 h 0.4868 l -0.0512,0.26355 h -1.28675 l 0.0512,-0.26355 h 0.48524 l 0.34727,-1.787488 h -0.48679 z m 1.81694,0 h 0.39688 l 0.40927,1.90531 0.37052,-1.90531 h 0.30231 l -0.45114,2.314587 h -0.39687 l -0.40928,-1.90531 -0.37207,1.90531 h -0.30075 z m 2.26343,0.257348 -0.16898,0.869715 h 0.36276 q 0.2558,0 0.40773,-0.147278 0.15348,-0.148828 0.15348,-0.395325 0,-0.167432 -0.0961,-0.246496 -0.0961,-0.08062 -0.29766,-0.08062 z m -0.26355,-0.257348 h 0.68213 q 0.31936,0 0.48679,0.142627 0.16743,0.142627 0.16743,0.412378 0,0.386022 -0.24805,0.607714 -0.24804,0.221692 -0.68213,0.221692 h -0.36121 l -0.18139,0.930176 h -0.31471 z m 1.55959,1.426269 0.27595,-1.426269 h 0.31471 l -0.2775,1.426269 q -0.003,0.02015 -0.0124,0.06356 -0.0465,0.238745 -0.0465,0.330213 0,0.142627 0.0837,0.21394 0.0853,0.07131 0.2558,0.07131 0.13798,0 0.23409,-0.04341 0.0961,-0.04496 0.16589,-0.141076 0.0341,-0.04806 0.0682,-0.164331 0.0357,-0.117823 0.0775,-0.330213 l 0.27595,-1.426269 h 0.31471 l -0.27595,1.426276 q -0.0651,0.339514 -0.13953,0.499194 -0.0729,0.15813 -0.19379,0.255799 -0.11007,0.08682 -0.25114,0.133325 -0.14108,0.04496 -0.30541,0.04496 -0.29766,0 -0.45889,-0.139527 -0.15968,-0.139526 -0.15968,-0.396875 0,-0.05736 0.0124,-0.155029 0.0139,-0.09767 0.0419,-0.241847 z m 2.03244,-1.426269 h 1.76733 l -0.0512,0.263549 h -0.72709 l -0.39687,2.051038 h -0.31626 l 0.39997,-2.051038 h -0.72708 z m 3.39049,0.07906 -0.0605,0.31781 q -0.12558,-0.09147 -0.26045,-0.137976 -0.13488,-0.04651 -0.27906,-0.04651 -0.25579,0 -0.41702,0.127124 -0.16123,0.127124 -0.16123,0.324011 0,0.110071 0.076,0.178284 0.076,0.06821 0.27595,0.130224 l 0.18758,0.06046 q 0.2527,0.07751 0.36897,0.207739 0.11783,0.128674 0.11783,0.328662 0,0.364319 -0.25735,0.578259 -0.25735,0.212391 -0.70229,0.212391 -0.16123,0 -0.31781,-0.03566 -0.15503,-0.03411 -0.31005,-0.10387 l 0.0636,-0.324011 q 0.15192,0.10697 0.30695,0.15813 0.15658,0.05116 0.33022,0.05116 0.25579,0 0.41547,-0.136425 0.15968,-0.136426 0.15968,-0.345716 0,-0.127124 -0.0682,-0.196887 -0.0682,-0.06976 -0.2744,-0.133325 l -0.15658,-0.05116 q -0.28525,-0.08992 -0.39997,-0.203088 -0.11317,-0.114722 -0.11317,-0.302307 0,-0.342615 0.25579,-0.559656 0.2558,-0.218591 0.66818,-0.218591 0.12402,0 0.26355,0.03101 0.14108,0.031 0.28835,0.08992 z m 2.06964,2.530078 1.32085,-2.609143 h 0.2961 l -1.32395,2.609143 z m 4.37027,-2.609143 h 0.31316 l -0.39997,2.051037 h 1.11776 l -0.0512,0.26355 h -1.43092 z m 1.87276,0 h 1.37201 l -0.0512,0.263554 h -1.0604 l -0.13333,0.68523 h 1.01234 l -0.0496,0.26355 h -1.01389 l -0.16123,0.838708 h 1.08831 l -0.0512,0.26355 h -1.40302 z m 2.16886,2.020031 0.92707,-2.020031 h 0.33332 l -1.11466,2.314587 h -0.39998 l -0.22789,-2.314582 h 0.30696 z m 1.65416,-2.020031 h 1.37201 l -0.0512,0.263549 h -1.0604 l -0.13333,0.68523 h 1.01239 l -0.0496,0.26355 h -1.0139 l -0.16123,0.838708 h 1.08831 l -0.0512,0.26355 h -1.40302 z m 1.95027,0 h 0.31316 l -0.39998,2.051037 h 1.11776 l -0.0512,0.26355 h -1.43092 z m 3.11764,0.07906 -0.0605,0.31781 q -0.12558,-0.09147 -0.26045,-0.137976 -0.13488,-0.04651 -0.27906,-0.04651 -0.25579,0 -0.41702,0.127124 -0.16123,0.127124 -0.16123,0.324011 0,0.110071 0.076,0.178284 0.076,0.06821 0.27595,0.130224 l 0.18758,0.06046 q 0.2527,0.07751 0.36897,0.207739 0.11783,0.128674 0.11783,0.328662 0,0.364319 -0.25735,0.578259 -0.25735,0.212391 -0.70229,0.212391 -0.16123,0 -0.31781,-0.03566 -0.15503,-0.03411 -0.31005,-0.10387 l 0.0636,-0.324011 q 0.15192,0.10697 0.30695,0.15813 0.15658,0.05116 0.33022,0.05116 0.25579,0 0.41547,-0.136425 0.15968,-0.136426 0.15968,-0.345716 0,-0.127124 -0.0682,-0.196887 -0.0682,-0.06976 -0.2744,-0.133325 l -0.15658,-0.05116 q -0.28525,-0.0899 -0.39997,-0.203073 -0.11317,-0.114722 -0.11317,-0.302307 0,-0.342615 0.2558,-0.559656 0.25579,-0.218591 0.66817,-0.218591 0.12403,0 0.26355,0.03101 0.14108,0.031 0.28836,0.08992 z"
   id="text45"
   aria-label="VCA INPUTS / LEVELS" /><rect
   style="opacity:1;fill:#3b3b3b;fill-opacity:1;stroke:#d08c58;stroke-width:0.352777;stroke-linejoin:round;stroke-opacity:1"
   id="rect65"
   width="23.385597"
   height="13.994199"
   x="217.83339"
   y="108.94213"
   rx="5"
   ry="5" /><g
   id="g55"
   transform="matrix(0.28261779,0,0,0.28261004,1.2879219,64.730189)"
   style="clip-rule:evenodd;fill-rule:evenodd;stroke:#d08c58;stroke-width:1.2456;stroke-linecap:square;stroke-linejoin:round;stroke-miterlimit:1.5;stroke-opacity:1">
            <path
   id="path401"
   serif:id="path40"
   d="M 44.843,92.605 42.539,92.03 43.112,89.722"
   style="fill:none;stroke:#d08c58;stroke-width:0.871918px;stroke-linecap:butt;stroke-linejoin:miter;stroke-miterlimit:10;stroke-opacity:1" />
            <path
   id="path411"
   serif:id="path41"
   d="M 18.355,91.132 C 13.01,87.25 9.539,80.994 9.539,73.942 c 0,-11.767 9.668,-21.32 21.577,-21.32 11.909,0 21.578,9.553 21.578,21.32 0,6.065 -2.569,11.542 -6.689,15.426 -1.059,0.998 -2.22,1.892 -3.466,2.662"
   style="fill:none;stroke:#d08c58;stroke-width:0.871918px;stroke-linecap:butt;stroke-opacity:1" />
        </g><path
   d="M 6.6528751,90.477299 5.8053039,91.674154"
   style="clip-rule:evenodd;fill:none;fill-rule:evenodd;stroke:#d08c58;stroke-width:0.264017px;stroke-linecap:square;stroke-linejoin:round;stroke-miterlimit:1.5;stroke-opacity:1"
   id="path67" /><path
   d="M 10.109389,88.412999 V 112.8443"
   style="clip-rule:evenodd;fill:none;fill-rule:evenodd;stroke:#d08c58;stroke-width:0.352778;stroke-linecap:square;stroke-linejoin:round;stroke-miterlimit:1.5;stroke-dasharray:none;stroke-opacity:1"
   id="path66" /><g
   id="g5"
   transform="translate(-0.099997)"><path
     style="font-style:italic;font-size:2.11667px;font-family:Menlo;-inkscape-font-specification:'Menlo Italic';text-align:center;text-anchor:middle;fill:#d08c59;stroke-width:0.352778"
     d="m 23.953758,83.369499 h 0.208773 l -0.266651,1.36736 h 0.745175 l -0.03411,0.175701 h -0.953948 z"
     id="text5"
     aria-label="L" /><path
     style="font-style:italic;font-size:2.11667px;font-family:Menlo;-inkscape-font-specification:'Menlo Italic';text-align:center;text-anchor:middle;fill:#d08c59;stroke-width:0.352778"
     d="m 27.202816,84.183921 q 0.07442,0.01447 0.118856,0.06925 0.04548,0.05478 0.101286,0.237712 l 0.125057,0.421681 h -0.207739 l -0.109554,-0.389641 q -0.04548,-0.161231 -0.10232,-0.211874 -0.05581,-0.05064 -0.169499,-0.05064 h -0.198438 l -0.127124,0.652158 h -0.209806 l 0.29869,-1.543061 h 0.429948 q 0.213941,0 0.33073,0.09302 0.117823,0.09198 0.117823,0.260449 0,0.189136 -0.107488,0.31316 -0.106453,0.124024 -0.290422,0.147795 z m -0.302824,-0.642856 -0.10542,0.547771 h 0.226343 q 0.168465,0 0.268718,-0.08785 0.101286,-0.08888 0.101286,-0.235645 0,-0.115755 -0.06511,-0.169499 -0.06511,-0.05478 -0.205672,-0.05478 z"
     id="text4"
     aria-label="R" /></g><path
   d="M 25.441232,67.354739 V 113.45"
   style="clip-rule:evenodd;fill:none;fill-rule:evenodd;stroke:#d08c58;stroke-width:0.352778;stroke-linecap:square;stroke-linejoin:round;stroke-miterlimit:1.5;stroke-dasharray:none;stroke-opacity:1"
   id="path2" /><path
   style="font-style:italic;font-size:2.11667px;font-family:Menlo;-inkscape-font-specification:'Menlo Italic';text-align:center;text-anchor:middle;fill:#ffffff;fill-opacity:1;stroke-width:0.352778"
   d="m 23.853761,83.369496 h 0.208773 l -0.266651,1.36736 h 0.745175 l -0.03411,0.175701 H 23.553 Z"
   id="path5"
   aria-label="L" /><path
   style="font-style:italic;font-size:2.11667px;font-family:Menlo;-inkscape-font-specification:'Menlo Italic';text-align:center;text-anchor:middle;fill:#ffffff;fill-opacity:1;stroke-width:0.352778"
   d="m 27.102819,84.183918 q 0.07442,0.01447 0.118856,0.06925 0.04548,0.05478 0.101286,0.237712 l 0.125057,0.421681 H 27.240279 L 27.130725,84.52292 q -0.04548,-0.161231 -0.10232,-0.211874 -0.05581,-0.05064 -0.169499,-0.05064 h -0.198438 l -0.127124,0.652158 h -0.209806 l 0.29869,-1.543061 h 0.429948 q 0.213941,0 0.33073,0.09302 0.117823,0.09198 0.117823,0.260449 0,0.189136 -0.107488,0.31316 -0.106453,0.124024 -0.290422,0.147795 z m -0.302824,-0.642856 -0.10542,0.547771 h 0.226343 q 0.168465,0 0.268718,-0.08785 0.101286,-0.08888 0.101286,-0.235645 0,-0.115755 -0.06511,-0.169499 -0.06511,-0.05478 -0.205672,-0.05478 z"
   id="path6"
   aria-label="R" /><path
   d="m 37.818973,87.64507 v 26.25811"
   style="clip-rule:evenodd;fill:none;fill-rule:evenodd;stroke:#d08c58;stroke-width:0.352778;stroke-linecap:square;stroke-linejoin:round;stroke-miterlimit:1.5;stroke-dasharray:none;stroke-opacity:1"
   id="path7" /><path
   style="font-style:italic;font-size:2.11667px;font-family:Menlo;-inkscape-font-specification:'Menlo Italic';text-align:center;text-anchor:middle;fill:#ffffff;fill-opacity:1;stroke-width:0.352778"
   d="m 36.156761,83.369496 h 0.208773 l -0.266651,1.36736 h 0.745175 l -0.03411,0.175701 H 35.856 Z"
   id="path8"
   aria-label="L" /><path
   style="font-style:italic;font-size:2.11667px;font-family:Menlo;-inkscape-font-specification:'Menlo Italic';text-align:center;text-anchor:middle;fill:#ffffff;fill-opacity:1;stroke-width:0.352778"
   d="m 39.405819,84.183918 q 0.07442,0.01447 0.118856,0.06925 0.04548,0.05478 0.101286,0.237712 l 0.125057,0.421681 H 39.543279 L 39.433725,84.52292 q -0.04548,-0.161231 -0.10232,-0.211874 -0.05581,-0.05064 -0.169499,-0.05064 h -0.198438 l -0.127124,0.652158 h -0.209806 l 0.29869,-1.543061 h 0.429948 q 0.213941,0 0.33073,0.09302 0.117823,0.09198 0.117823,0.260449 0,0.189136 -0.107488,0.31316 -0.106453,0.124024 -0.290422,0.147795 z m -0.302824,-0.642856 -0.10542,0.547771 h 0.226343 q 0.168465,0 0.268718,-0.08785 0.101286,-0.08888 0.101286,-0.235645 0,-0.115755 -0.06511,-0.169499 -0.06511,-0.05478 -0.205672,-0.05478 z"
   id="path9"
   aria-label="R" /><path
   d="m 49.820973,87.64507 v 26.25811"
   style="clip-rule:evenodd;fill:none;fill-rule:evenodd;stroke:#d08c58;stroke-width:0.352778;stroke-linecap:square;stroke-linejoin:round;stroke-miterlimit:1.5;stroke-dasharray:none;stroke-opacity:1"
   id="path10" /><path
   style="font-style:italic;font-size:2.11667px;font-family:Menlo;-inkscape-font-specification:'Menlo Italic';text-align:center;text-anchor:middle;fill:#ffffff;fill-opacity:1;stroke-width:0.352778"
   d="m 48.158761,83.369496 h 0.208773 l -0.266651,1.36736 h 0.745175 l -0.03411,0.175701 H 47.858 Z"
   id="path11"
   aria-label="L" /><path
   style="font-style:italic;font-size:2.11667px;font-family:Menlo;-inkscape-font-specification:'Menlo Italic';text-align:center;text-anchor:middle;fill:#ffffff;fill-opacity:1;stroke-width:0.352778"
   d="m 51.407819,84.183918 q 0.07442,0.01447 0.118856,0.06925 0.04548,0.05478 0.101286,0.237712 l 0.125057,0.421681 H 51.545279 L 51.435725,84.52292 q -0.04548,-0.161231 -0.10232,-0.211874 -0.05581,-0.05064 -0.169499,-0.05064 h -0.198438 l -0.127124,0.652158 h -0.209806 l 0.29869,-1.543061 h 0.429948 q 0.213941,0 0.33073,0.09302 0.117823,0.09198 0.117823,0.260449 0,0.189136 -0.107488,0.31316 -0.106453,0.124024 -0.290422,0.147795 z m -0.302824,-0.642856 -0.10542,0.547771 h 0.226343 q 0.168465,0 0.268718,-0.08785 0.101286,-0.08888 0.101286,-0.235645 0,-0.115755 -0.06511,-0.169499 -0.06511,-0.05478 -0.205672,-0.05478 z"
   id="path12"
   aria-label="R" /><path
   d="m 61.935973,87.64507 v 26.25811"
   style="clip-rule:evenodd;fill:none;fill-rule:evenodd;stroke:#d08c58;stroke-width:0.352778;stroke-linecap:square;stroke-linejoin:round;stroke-miterlimit:1.5;stroke-dasharray:none;stroke-opacity:1"
   id="path13" /><path
   style="font-style:italic;font-size:2.11667px;font-family:Menlo;-inkscape-font-specification:'Menlo Italic';text-align:center;text-anchor:middle;fill:#ffffff;fill-opacity:1;stroke-width:0.352778"
   d="m 60.273761,83.369496 h 0.208773 l -0.266651,1.36736 h 0.745175 l -0.03411,0.175701 H 59.973 Z"
   id="path14"
   aria-label="L" /><path
   style="font-style:italic;font-size:2.11667px;font-family:Menlo;-inkscape-font-specification:'Menlo Italic';text-align:center;text-anchor:middle;fill:#ffffff;fill-opacity:1;stroke-width:0.352778"
   d="m 63.522819,84.183918 q 0.07442,0.01447 0.118856,0.06925 0.04548,0.05478 0.101286,0.237712 l 0.125057,0.421681 H 63.660279 L 63.550725,84.52292 q -0.04548,-0.161231 -0.10232,-0.211874 -0.05581,-0.05064 -0.169499,-0.05064 h -0.198438 l -0.127124,0.652158 h -0.209806 l 0.29869,-1.543061 h 0.429948 q 0.213941,0 0.33073,0.09302 0.117823,0.09198 0.117823,0.260449 0,0.189136 -0.107488,0.31316 -0.106453,0.124024 -0.290422,0.147795 z m -0.302824,-0.642856 -0.10542,0.547771 h 0.226343 q 0.168465,0 0.268718,-0.08785 0.101286,-0.08888 0.101286,-0.235645 0,-0.115755 -0.06511,-0.169499 -0.06511,-0.05478 -0.205672,-0.05478 z"
   id="path15"
   aria-label="R" /><path
   d="m 74.038973,87.64507 v 26.25811"
   style="clip-rule:evenodd;fill:none;fill-rule:evenodd;stroke:#d08c58;stroke-width:0.352778;stroke-linecap:square;stroke-linejoin:round;stroke-miterlimit:1.5;stroke-dasharray:none;stroke-opacity:1"
   id="path16" /><path
   style="font-style:italic;font-size:2.11667px;font-family:Menlo;-inkscape-font-specification:'Menlo Italic';text-align:center;text-anchor:middle;fill:#ffffff;fill-opacity:1;stroke-width:0.352778"
   d="m 72.376761,83.369496 h 0.208773 l -0.266651,1.36736 h 0.745175 l -0.03411,0.175701 H 72.076 Z"
   id="path17"
   aria-label="L" /><path
   style="font-style:italic;font-size:2.11667px;font-family:Menlo;-inkscape-font-specification:'Menlo Italic';text-align:center;text-anchor:middle;fill:#ffffff;fill-opacity:1;stroke-width:0.352778"
   d="m 75.625819,84.183918 q 0.07442,0.01447 0.118856,0.06925 0.04548,0.05478 0.101286,0.237712 l 0.125057,0.421681 H 75.763279 L 75.653725,84.52292 q -0.04548,-0.161231 -0.10232,-0.211874 -0.05581,-0.05064 -0.169499,-0.05064 h -0.198438 l -0.127124,0.652158 h -0.209806 l 0.29869,-1.543061 h 0.429948 q 0.213941,0 0.33073,0.09302 0.117823,0.09198 0.117823,0.260449 0,0.189136 -0.107488,0.31316 -0.106453,0.124024 -0.290422,0.147795 z m -0.302824,-0.642856 -0.10542,0.547771 h 0.226343 q 0.168465,0 0.268718,-0.08785 0.101286,-0.08888 0.101286,-0.235645 0,-0.115755 -0.06511,-0.169499 -0.06511,-0.05478 -0.205672,-0.05478 z"
   id="path18"
   aria-label="R" /><path
   d="M 236.2723,69.606061 H 223.57137"
   style="clip-rule:evenodd;fill:none;fill-rule:evenodd;stroke:#d08c58;stroke-width:0.352778;stroke-linecap:square;stroke-linejoin:round;stroke-miterlimit:1.5;stroke-dasharray:none;stroke-opacity:1"
   id="path19" /><path
   style="font-style:italic;font-size:2.11667px;font-family:Menlo;-inkscape-font-specification:'Menlo Italic';text-align:center;text-anchor:middle;fill:#ffffff;fill-opacity:1;stroke-width:0.352778"
   d="m 84.579761,83.369496 h 0.208773 l -0.266651,1.36736 h 0.745175 l -0.03411,0.175701 H 84.279 Z"
   id="path20"
   aria-label="L" /><path
   style="font-style:italic;font-size:2.11667px;font-family:Menlo;-inkscape-font-specification:'Menlo Italic';text-align:center;text-anchor:middle;fill:#ffffff;fill-opacity:1;stroke-width:0.352778"
   d="m 88.029149,84.183918 q 0.07442,0.01447 0.118856,0.06925 0.04548,0.05478 0.101286,0.237712 l 0.125057,0.421681 H 88.166609 L 88.057055,84.52292 q -0.04548,-0.161231 -0.10232,-0.211874 -0.05581,-0.05064 -0.169499,-0.05064 h -0.198438 l -0.127124,0.652158 h -0.209806 l 0.29869,-1.543061 h 0.429948 q 0.213941,0 0.33073,0.09302 0.117823,0.09198 0.117823,0.260449 0,0.189136 -0.107488,0.31316 -0.106453,0.124024 -0.290422,0.147795 z m -0.302824,-0.642856 -0.10542,0.547771 h 0.226343 q 0.168465,0 0.268718,-0.08785 0.101286,-0.08888 0.101286,-0.235645 0,-0.115755 -0.06511,-0.169499 -0.06511,-0.05478 -0.205672,-0.05478 z"
   id="path21"
   aria-label="R" /><path
   d="M 10.109389,20.106988 V 79.449802"
   style="clip-rule:evenodd;fill:none;fill-rule:evenodd;stroke:#d08c58;stroke-width:0.352777;stroke-linecap:square;stroke-linejoin:round;stroke-miterlimit:1.5;stroke-dasharray:none;stroke-opacity:1"
   id="path22" /><path
   d="M 25.515973,20.093209 V 67.618216"
   style="clip-rule:evenodd;fill:none;fill-rule:evenodd;stroke:#d08c58;stroke-width:0.352778;stroke-linecap:square;stroke-linejoin:round;stroke-miterlimit:1.5;stroke-dasharray:none;stroke-opacity:1"
   id="path23" /><path
   d="M 37.775389,20.114792 V 88.430279"
   style="clip-rule:evenodd;fill:none;fill-rule:evenodd;stroke:#d08c58;stroke-width:0.352778;stroke-linecap:square;stroke-linejoin:round;stroke-miterlimit:1.5;stroke-dasharray:none;stroke-opacity:1"
   id="path32" /><path
   d="M 49.740289,20.114792 V 88.430279"
   style="clip-rule:evenodd;fill:none;fill-rule:evenodd;stroke:#d08c58;stroke-width:0.35277778;stroke-linecap:square;stroke-linejoin:round;stroke-miterlimit:1.5;stroke-dasharray:none;stroke-opacity:1"
   id="path33" /><path
   d="M 61.974543,20.114792 V 88.430279"
   style="clip-rule:evenodd;fill:none;fill-rule:evenodd;stroke:#d08c58;stroke-width:0.35277778;stroke-linecap:square;stroke-linejoin:round;stroke-miterlimit:1.5;stroke-dasharray:none;stroke-opacity:1"
   id="path34" /><path
   d="M 74.040389,20.114792 V 88.430279"
   style="clip-rule:evenodd;fill:none;fill-rule:evenodd;stroke:#d08c58;stroke-width:0.352778;stroke-linecap:square;stroke-linejoin:round;stroke-miterlimit:1.5;stroke-dasharray:none;stroke-opacity:1"
   id="path35" /><path
   d="M 86.266171,20.093209 V 67.618216"
   style="clip-rule:evenodd;fill:none;fill-rule:evenodd;stroke:#d08c58;stroke-width:0.352778;stroke-linecap:square;stroke-linejoin:round;stroke-miterlimit:1.5;stroke-dasharray:none;stroke-opacity:1"
   id="path36" /><rect
   style="opacity:1;fill:#3b3b3b;fill-opacity:1;stroke:#d08c58;stroke-width:0.579536;stroke-linejoin:round;stroke-opacity:1"
   id="rect66"
   width="193.23564"
   height="30.708519"
   x="20.184484"
   y="36.756954"
   rx="5"
   ry="5" /><path
   d="M 236.2723,38.773073 H 223.57137"
   style="clip-rule:evenodd;fill:none;fill-rule:evenodd;stroke:#d08c58;stroke-width:0.352778;stroke-linecap:square;stroke-linejoin:round;stroke-miterlimit:1.5;stroke-dasharray:none;stroke-opacity:1"
   id="path37" /><path
   d="M 236.2723,114.41235 H 223.57137"
   style="clip-rule:evenodd;fill:none;fill-rule:evenodd;stroke:#d08c58;stroke-width:0.352778;stroke-linecap:square;stroke-linejoin:round;stroke-miterlimit:1.5;stroke-dasharray:none;stroke-opacity:1"
   id="path38" /><path
   d="M 229.71289,84.926806 V 100.33494"
   style="clip-rule:evenodd;fill:none;fill-rule:evenodd;stroke:#d08c58;stroke-width:0.352778;stroke-linecap:square;stroke-linejoin:round;stroke-miterlimit:1.5;stroke-dasharray:none;stroke-opacity:1"
   id="path39" /><path
   d="M 229.54201,53.758242 V 69.519684"
   style="clip-rule:evenodd;fill:none;fill-rule:evenodd;stroke:#d08c58;stroke-width:0.352778;stroke-linecap:square;stroke-linejoin:round;stroke-miterlimit:1.5;stroke-dasharray:none;stroke-opacity:1"
   id="path40" /><path
   d="M 229.52729,17.515296 V 38.258218"
   style="clip-rule:evenodd;fill:none;fill-rule:evenodd;stroke:#d08c58;stroke-width:0.352778;stroke-linecap:square;stroke-linejoin:round;stroke-miterlimit:1.5;stroke-dasharray:none;stroke-opacity:1"
   id="path41" /><path
   d="M 86.308885,67.527522 V 114.62732"
   style="clip-rule:evenodd;fill:none;fill-rule:evenodd;stroke:#d08c58;stroke-width:0.352778;stroke-linecap:square;stroke-linejoin:round;stroke-miterlimit:1.5;stroke-dasharray:none;stroke-opacity:1"
   id="path42" /><rect
   style="opacity:1;fill:#3b3b3b;fill-opacity:1;stroke:#d08c58;stroke-width:0.352777;stroke-linejoin:round;stroke-opacity:1"
   id="rect67"
   width="11.416588"
   height="30.935278"
   x="4.6034641"
   y="36.643578"
   rx="5"
   ry="5" /><path
   d="M 213.10796,51.992121 H 4.6569177"
   style="clip-rule:evenodd;display:inline;fill:none;fill-rule:evenodd;stroke:#545454;stroke-width:0.54842;stroke-linecap:square;stroke-linejoin:round;stroke-miterlimit:1.5;stroke-dasharray:none;stroke-opacity:1"
   id="path46" /><path
   style="font-style:italic;font-size:3.175px;font-family:Menlo;-inkscape-font-specification:'Menlo Italic';text-align:center;text-anchor:middle;fill:#ffffff;fill-opacity:1;stroke-width:0.352778"
   d="m 4.3628505,100.41485 c 0,-0.1912 -0.032,-0.34468 -0.0961,-0.460437 -0.0651,-0.11575 -0.17055,-0.20877 -0.31626,-0.27905 -0.11885,-0.0558 -0.26045,-0.10128 -0.42478,-0.13642 -0.16536,-0.0362 -0.3167698,-0.0543 -0.4542297,-0.0543 -0.1819,0 -0.31213,0.0424 -0.39068,0.12712 -0.0785,0.0847 -0.1178171,0.22686 -0.1178171,0.426327 v 0.17673 l 1.7998868,0.35037 z m -2.0572367,-0.40618 c 0,-0.282147 0.0641,-0.492987 0.19224,-0.632504 0.128157,-0.14056 0.322457,-0.21084 0.582907,-0.21084 0.16743,0 0.3400297,0.0217 0.5177997,0.0651 0.17777,0.0434 0.33538,0.1018 0.47284,0.17518 0.1974,0.107487 0.33848,0.241847 0.42323,0.403077 0.0837,0.16019 0.12557,0.377227 0.12557,0.651117 v 0.46974 L 2.3056138,100.4784 Z m 1.4262667,-1.181311 -1.4262667,-0.27595 v -0.314707 l 1.4262667,0.277497 c 0.0135,0.002 0.0347,0.006 0.0636,0.0124 0.15917,0.031 0.26924,0.0465 0.33022,0.0465 0.0951,0 0.16639,-0.0279 0.21394,-0.0837 0.0475,-0.0568 0.0713,-0.142107 0.0713,-0.255797 0,-0.092 -0.0145,-0.17002 -0.0434,-0.2341 -0.03,-0.0641 -0.077,-0.119367 -0.14107,-0.165877 -0.0321,-0.0227 -0.0868,-0.0455 -0.16434,-0.0682 -0.0786,-0.0238 -0.18862,-0.0496 -0.33021,-0.0775 l -1.4262667,-0.27596 v -0.31471 l 1.4262667,0.27596 c 0.22635,0.0434 0.39275,0.0899 0.4992,0.13952 0.10542,0.0486 0.19068,0.11317 0.25579,0.19379 0.0579,0.0734 0.10231,0.1571 0.13333,0.251147 0.03,0.094 0.045,0.19585 0.045,0.3054 0,0.198437 -0.0465,0.351397 -0.13953,0.458887 -0.093,0.10645 -0.2253,0.15968 -0.39687,0.15968 -0.0383,0 -0.0899,-0.004 -0.15503,-0.0124 -0.0651,-0.009 -0.14575,-0.0233 -0.24185,-0.0419 z m 0.80615,-3.196694 c 0.0424,0.0868 0.0739,0.17467 0.0946,0.26355 0.0217,0.0879 0.0326,0.1788 0.0326,0.27285 0,0.23771 -0.0687,0.4222 -0.20619,0.55345 -0.13746,0.13023 -0.33021,0.19534 -0.57826,0.19534 -0.22737,0 -0.45268,-0.0362 -0.6759297,-0.10852 -0.2232401,-0.0724 -0.40566,-0.16743 -0.5472501,-0.28525 -0.1343569,-0.11059 -0.2335769,-0.23255 -0.297657,-0.36587 -0.0641,-0.13332 -0.0961,-0.28525 -0.0961,-0.45579 0,-0.0827 0.0109,-0.16484 0.0326,-0.24649 0.0217,-0.0816 0.0533,-0.16123 0.0946,-0.23875 l 0.320907,0.0636 c -0.0651,0.0662 -0.113707,0.13591 -0.1457269,0.20929 -0.0321,0.0734 -0.0481,0.15141 -0.0481,0.2341 0,0.0982 0.0212,0.18913 0.0636,0.27285 0.0413,0.0837 0.104897,0.16226 0.190687,0.23564 0.12713,0.10749 0.28991,0.1943 0.48834,0.26045 0.1984397,0.0651 0.3973997,0.0977 0.5968697,0.0977 0.1788,0 0.31574,-0.0403 0.41082,-0.12092 0.0951,-0.0806 0.14263,-0.19689 0.14263,-0.34882 0,-0.0879 -0.0165,-0.17828 -0.0496,-0.2713 -0.0331,-0.094 -0.0811,-0.18655 -0.14418,-0.2775 z m -2.2324167,-0.88677 v -0.31316 l 1.0030367,0.19689 -1.0030367,-1.15032 v -0.39377 l 0.959627,1.08985 1.3549597,-0.66352 v 0.33951 l -1.14877,0.55811 0.26045,0.29921 0.88832,0.17363 v 0.31471 z"
   id="text42"
   aria-label="DUCKING"
   sodipodi:nodetypes="scccsssccsscssccsccscccccscsccccccccccscscscccscsscssscccscccssscccccccccccccccccc"
   inkscape:transform-center-x="-5.7260573"
   inkscape:transform-center-y="-3.7515548" /><path
   style="font-style:italic;font-size:3.175px;font-family:Menlo;-inkscape-font-specification:'Menlo Italic';text-align:center;text-anchor:middle;fill:#ffffff;fill-opacity:1;stroke-width:0.352778"
   d="m 213.03388,97.263114 0.8697,0.16898 v -0.36277 c 0,-0.170532 -0.0491,-0.306441 -0.14728,-0.407726 -0.0992,-0.102319 -0.23098,-0.153479 -0.39531,-0.153479 -0.11162,0 -0.19379,0.03204 -0.2465,0.09612 -0.0537,0.06408 -0.0806,0.163299 -0.0806,0.297656 z m -0.25735,0.26355 v -0.682132 c 0,-0.212907 0.0475,-0.375171 0.14263,-0.486792 0.0951,-0.111621 0.23254,-0.167431 0.41237,-0.167431 0.25735,0 0.45992,0.08268 0.60771,0.248046 0.14779,0.165365 0.22169,0.392741 0.22169,0.682129 v 0.36122 l 0.93018,0.18138 v 0.31471 z m 0.26045,-2.520779 1.19991,0.564306 v -0.666626 z m -0.26045,0.148828 v -0.381372 l 2.31458,-0.257349 v 0.311609 l -0.60307,0.05426 v 0.806153 l 0.60307,0.285254 v 0.336413 z m 0,-1.362708 V 93.39513 l 1.9053,-0.409277 -1.9053,-0.37052 v -0.302307 l 2.31458,0.451135 v 0.396875 l -1.9053,0.409278 1.9053,0.37207 v 0.300757 z"
   id="text46"
   aria-label="PANNING"
   sodipodi:nodetypes="ccssscsccssssscccccccccccccccccccccccccccccc" /><path
   style="font-style:italic;font-size:3.175px;font-family:Menlo;-inkscape-font-specification:'Menlo Italic';text-align:center;text-anchor:middle;fill:#ffffff;fill-opacity:1;stroke-width:0.352778"
   d="m 225.15463,104.46391 h 0.31316 l -0.39997,2.05103 h 1.11776 l -0.0512,0.26355 h -1.43092 z m 1.87276,0 h 1.37201 l -0.0512,0.26355 h -1.0604 l -0.13333,0.68523 h 1.01234 l -0.0496,0.26355 h -1.01389 l -0.16123,0.8387 h 1.08831 l -0.0512,0.26355 h -1.40302 z m 2.16886,2.02003 0.92707,-2.02003 h 0.33331 l -1.11466,2.31458 H 228.942 l -0.2279,-2.31458 h 0.30696 z m 1.65416,-2.02003 h 1.37201 l -0.0512,0.26355 h -1.0604 l -0.13333,0.68523 h 1.01234 l -0.0496,0.26355 h -1.0139 l -0.16123,0.8387 h 1.08831 l -0.0512,0.26355 h -1.40302 z m 1.95027,0 h 0.31316 l -0.39998,2.05103 h 1.11776 l -0.0512,0.26355 h -1.43092 z"
   id="text49"
   aria-label="OUTPUT LEVEL"
   sodipodi:nodetypes="cccccccccccccccccccccccccccccccccccccccccccccccc" /><path
   d="m 17.474955,19.211953 h 0.313159 l -0.399976,2.051038 h 1.117761 l -0.05116,0.26355 h -1.430921 z"
   id="text68"
   style="font-style:italic;font-size:3.175px;font-family:Menlo;-inkscape-font-specification:'Menlo Italic';text-align:center;text-anchor:middle;fill:#ffffff;fill-opacity:1"
   aria-label="L" /><path
   d="m 18.050889,29.786997 q 0.111621,0.0217 0.178284,0.103869 0.06821,0.08217 0.151929,0.356568 l 0.187585,0.632519 h -0.311609 l -0.164331,-0.58446 q -0.06821,-0.241846 -0.153479,-0.31781 -0.08372,-0.07596 -0.254248,-0.07596 h -0.297656 l -0.190686,0.978234 h -0.31471 l 0.448035,-2.314587 h 0.644922 q 0.32091,0 0.496094,0.139526 0.176733,0.137976 0.176733,0.390674 0,0.283704 -0.16123,0.469739 -0.159681,0.186035 -0.435633,0.221692 z m -0.454236,-0.964282 -0.15813,0.821655 h 0.339515 q 0.252697,0 0.403076,-0.131775 0.151929,-0.133325 0.151929,-0.353467 0,-0.173633 -0.09767,-0.254248 -0.09767,-0.08216 -0.308508,-0.08216 z"
   id="text69"
   style="font-style:italic;font-size:3.175px;font-family:Menlo;-inkscape-font-specification:'Menlo Italic';text-align:center;text-anchor:middle;fill:#ffffff;fill-opacity:1"
   aria-label="R" /><path
   d="m 225.4728,43.422217 -0.16899,0.869714 h 0.36277 q 0.2558,0 0.40773,-0.147278 0.15348,-0.148828 0.15348,-0.395324 0,-0.167432 -0.0961,-0.246497 -0.0961,-0.08062 -0.29766,-0.08062 z m -0.26355,-0.257349 h 0.68212 q 0.31937,0 0.4868,0.142627 0.16743,0.142627 0.16743,0.412378 0,0.386023 -0.24805,0.607715 -0.24805,0.221692 -0.68213,0.221692 h -0.36122 l -0.18138,0.930176 h -0.31471 z m 2.56883,1.221631 q 0.11162,0.0217 0.17829,0.10387 0.0682,0.08217 0.15192,0.356567 l 0.18759,0.63252 h -0.31161 l -0.16433,-0.584461 q -0.0682,-0.241846 -0.15348,-0.31781 -0.0837,-0.07596 -0.25425,-0.07596 h -0.29765 l -0.19069,0.978235 h -0.31471 l 0.44804,-2.314588 h 0.64492 q 0.32091,0 0.49609,0.139527 0.17673,0.137976 0.17673,0.390673 0,0.283704 -0.16123,0.469739 -0.15968,0.186035 -0.43563,0.221692 z m -0.45423,-0.964282 -0.15813,0.821655 h 0.33951 q 0.2527,0 0.40308,-0.131775 0.15192,-0.133325 0.15192,-0.353467 0,-0.173632 -0.0977,-0.254248 -0.0977,-0.08217 -0.30851,-0.08217 z m 1.71152,-0.257349 h 1.37201 l -0.0512,0.26355 h -1.0604 l -0.13333,0.68523 h 1.01234 l -0.0496,0.263549 h -1.01389 l -0.16123,0.838709 h 1.08831 l -0.0512,0.26355 h -1.40302 z m 3.1564,0.07906 -0.0605,0.31781 q -0.12557,-0.09147 -0.26045,-0.137976 -0.13487,-0.04651 -0.27905,-0.04651 -0.2558,0 -0.41703,0.127124 -0.16123,0.127124 -0.16123,0.324012 0,0.11007 0.076,0.178283 0.076,0.06821 0.27595,0.130225 l 0.18758,0.06046 q 0.2527,0.07751 0.36897,0.20774 0.11783,0.128674 0.11783,0.328662 0,0.364319 -0.25735,0.578259 -0.25735,0.21239 -0.70228,0.21239 -0.16124,0 -0.31781,-0.03566 -0.15503,-0.03411 -0.31006,-0.103869 l 0.0636,-0.324011 q 0.15193,0.10697 0.30696,0.158129 0.15658,0.05116 0.33021,0.05116 0.2558,0 0.41548,-0.136426 0.15968,-0.136426 0.15968,-0.345715 0,-0.127124 -0.0682,-0.196887 -0.0682,-0.06976 -0.2744,-0.133325 l -0.15658,-0.05116 q -0.28525,-0.08992 -0.39997,-0.203088 -0.11317,-0.114722 -0.11317,-0.302308 0,-0.342614 0.25579,-0.559655 0.2558,-0.218592 0.66818,-0.218592 0.12402,0 0.26355,0.03101 0.14108,0.03101 0.28836,0.08992 z m 1.91151,0 -0.0605,0.31781 q -0.12558,-0.09147 -0.26045,-0.137976 -0.13488,-0.04651 -0.27906,-0.04651 -0.2558,0 -0.41703,0.127124 -0.16123,0.127124 -0.16123,0.324012 0,0.11007 0.076,0.178283 0.076,0.06821 0.27595,0.130225 l 0.18759,0.06046 q 0.25269,0.07751 0.36897,0.20774 0.11782,0.128674 0.11782,0.328662 0,0.364319 -0.25735,0.578259 -0.25735,0.21239 -0.70228,0.21239 -0.16123,0 -0.31781,-0.03566 -0.15503,-0.03411 -0.31006,-0.103869 l 0.0636,-0.324011 q 0.15193,0.10697 0.30696,0.158129 0.15658,0.05116 0.33021,0.05116 0.2558,0 0.41548,-0.136426 0.15968,-0.136426 0.15968,-0.345715 0,-0.127124 -0.0682,-0.196887 -0.0682,-0.06976 -0.27441,-0.133325 l -0.15658,-0.05116 q -0.28525,-0.08992 -0.39997,-0.203088 -0.11317,-0.114722 -0.11317,-0.302308 0,-0.342614 0.2558,-0.559655 0.25579,-0.218592 0.66817,-0.218592 0.12403,0 0.26355,0.03101 0.14108,0.03101 0.28836,0.08992 z"
   id="text71"
   style="font-style:italic;font-size:3.175px;font-family:Menlo;-inkscape-font-specification:'Menlo Italic';text-align:center;text-anchor:middle;fill:#ffffff;fill-opacity:1;stroke-width:0.264583"
   aria-label="PRESS" /><path
   d="m 223.35564,119.19203 h 0.31316 l -0.39998,2.05104 h 1.11776 l -0.0512,0.26355 h -1.43092 z m 12.08453,1.22163 q 0.11162,0.0217 0.17829,0.10387 0.0682,0.0822 0.15193,0.35657 l 0.18758,0.63252 h -0.31161 l -0.16433,-0.58446 q -0.0682,-0.24185 -0.15348,-0.31781 -0.0837,-0.076 -0.25425,-0.076 h -0.29765 l -0.19069,0.97824 h -0.31471 l 0.44804,-2.31459 h 0.64492 q 0.32091,0 0.49609,0.13953 0.17674,0.13797 0.17674,0.39067 0,0.2837 -0.16124,0.46974 -0.15968,0.18603 -0.43563,0.22169 z m -0.45423,-0.96428 -0.15813,0.82165 h 0.33951 q 0.2527,0 0.40308,-0.13177 0.15193,-0.13333 0.15193,-0.35347 0,-0.17363 -0.0977,-0.25425 -0.0977,-0.0822 -0.30851,-0.0822 z"
   id="text72"
   style="font-style:italic;font-size:3.175px;font-family:Menlo;-inkscape-font-specification:'Menlo Italic';text-align:center;text-anchor:middle;fill:#ffffff;fill-opacity:1;stroke:#ffffff;stroke-width:0.141111;stroke-dasharray:none;stroke-opacity:1"
   aria-label="L     R" /><path
   d="M 236.2723,100.57264 H 223.57137"
   style="clip-rule:evenodd;fill:none;fill-rule:evenodd;stroke:#d08c58;stroke-width:0.352778;stroke-linecap:square;stroke-linejoin:round;stroke-miterlimit:1.5;stroke-dasharray:none;stroke-opacity:1"
   id="path72" /><path
   d="m 226.11259,73.601 h 1.3627 l -0.0512,0.263549 h -1.04799 l -0.13333,0.682129 h 0.94878 l -0.0496,0.26355 h -0.95033 l -0.21549,1.105359 h -0.31471 z m 1.85105,0 h 1.37201 l -0.0512,0.263549 h -1.0604 l -0.13333,0.68523 h 1.01234 l -0.0496,0.26355 h -1.01389 l -0.16123,0.838708 h 1.08831 l -0.0512,0.26355 h -1.40302 z m 1.91151,0 h 1.37201 l -0.0512,0.263549 h -1.0604 l -0.13333,0.68523 h 1.01234 l -0.0496,0.26355 h -1.01389 l -0.16123,0.838708 h 1.08831 l -0.0512,0.26355 h -1.40302 z m 1.8805,2.057238 q 0.28681,0 0.46044,-0.09612 0.17363,-0.09767 0.27905,-0.31626 0.0837,-0.178283 0.13643,-0.42478 0.0543,-0.248047 0.0543,-0.454236 0,-0.272851 -0.12713,-0.390674 -0.12712,-0.117822 -0.42633,-0.117822 h -0.17673 l -0.35037,1.79989 z M 232.16183,73.601 q 0.42323,0 0.63252,0.192236 0.21084,0.192236 0.21084,0.58291 0,0.251148 -0.0651,0.517798 -0.0651,0.26665 -0.17519,0.472839 -0.16123,0.296106 -0.40307,0.42323 -0.2403,0.125574 -0.65113,0.125574 h -0.46973 L 231.6921,73.601 Z"
   id="text73"
   style="font-style:italic;font-size:3.175px;font-family:Menlo;-inkscape-font-specification:'Menlo Italic';text-align:center;text-anchor:middle;fill:#ffffff;fill-opacity:1;stroke-width:0.264583"
   aria-label="FEED" /><text
   xml:space="preserve"
   style="font-style:italic;font-size:3.175px;font-family:Menlo;-inkscape-font-specification:'Menlo Italic';text-align:center;text-anchor:middle;display:none;opacity:1;fill:#ffffff;fill-opacity:1;stroke-width:0.264583"
   x="107.42139"
   y="77.702591"
   id="text74"><tspan
     sodipodi:role="line"
     id="tspan73"
     style="stroke-width:0.264583"
     x="0"
     y="0">FEED</tspan></text><path
   d="M 20.128795,52.628736 H 16.154711"
   style="clip-rule:evenodd;fill:none;fill-rule:evenodd;stroke:#d08c58;stroke-width:0.352777;stroke-linecap:square;stroke-linejoin:round;stroke-miterlimit:1.5;stroke-dasharray:none;stroke-opacity:1"
   id="path68" /><path
   d="m 8.0894286,13.085505 -0.060462,0.31781 q -0.1255737,-0.09147 -0.2604492,-0.137976 -0.1348755,-0.04651 -0.2790527,-0.04651 -0.2557984,0 -0.4170288,0.127124 -0.1612305,0.127124 -0.1612305,0.324011 0,0.110071 0.075964,0.178283 0.075964,0.06821 0.2759521,0.130225 l 0.1875855,0.06046 q 0.2526977,0.07752 0.3689697,0.20774 0.1178222,0.128674 0.1178222,0.328662 0,0.364319 -0.2573486,0.578259 -0.2573486,0.21239 -0.7022827,0.21239 -0.1612305,0 -0.31781,-0.03566 -0.1550293,-0.03411 -0.3100586,-0.10387 l 0.063562,-0.324011 q 0.1519287,0.10697 0.306958,0.15813 0.1565796,0.05116 0.3302124,0.05116 0.2557983,0 0.4154785,-0.136426 0.1596802,-0.136425 0.1596802,-0.345715 0,-0.127124 -0.068213,-0.196887 -0.068213,-0.06976 -0.2744019,-0.133325 L 7.1266966,14.248225 Q 6.8414427,14.158308 6.7267211,14.045137 6.6135497,13.930415 6.6135497,13.74283 q 0,-0.342615 0.2557983,-0.559656 0.2557983,-0.218592 0.6681763,-0.218592 0.1240234,0 0.2635498,0.03101 0.1410766,0.03101 0.2883545,0.08992 z m 0.6697265,-0.07906 h 1.2867429 l -0.051159,0.26355 H 9.507947 l -0.3457153,1.787488 h 0.4867919 l -0.05116,0.26355 H 8.3111204 l 0.05116,-0.26355 H 8.8475218 L 9.1947874,13.26999 h -0.486792 z m 1.8774049,2.057239 q 0.286804,0 0.460437,-0.09612 0.173633,-0.09767 0.279053,-0.31626 0.08372,-0.178283 0.136425,-0.42478 0.05426,-0.248047 0.05426,-0.454236 0,-0.272851 -0.127124,-0.390674 -0.127124,-0.117822 -0.426331,-0.117822 h -0.176733 l -0.350367,1.79989 z m 0.406177,-2.057239 q 0.42323,0 0.632519,0.192237 0.21084,0.192236 0.21084,0.58291 0,0.251147 -0.06511,0.517798 -0.06511,0.26665 -0.175183,0.472839 -0.161231,0.296106 -0.403077,0.42323 -0.240295,0.125574 -0.651123,0.125574 H 10.121865 L 10.573,13.006445 Z m 1.53634,0 h 1.372009 l -0.05116,0.26355 h -1.0604 l -0.133325,0.68523 h 1.012341 l -0.04961,0.263549 H 12.65504 l -0.16123,0.838709 h 1.088305 l -0.05116,0.26355 H 12.12794 Z"
   id="text1"
   style="font-style:italic;font-size:3.175px;font-family:Menlo;-inkscape-font-specification:'Menlo Italic';text-align:center;text-anchor:middle;fill:#ffffff;stroke-width:0.141111"
   aria-label="SIDE" /><path
   d="m 212.81834,118.83139 v -0.41703 l 1.17202,-0.17053 -1.17202,-0.64182 v -0.41858 l 2.31459,0.45113 v 0.28836 l -2.05724,-0.39998 1.23248,0.67283 v 0.21859 l -1.23248,0.17828 2.05724,0.39688 v 0.28835 z m 1.42627,-1.73478 -1.42627,-0.27595 v -0.31471 l 1.42627,0.2775 q 0.0201,0.003 0.0636,0.0124 0.23875,0.0465 0.33021,0.0465 0.14263,0 0.21394,-0.0837 0.0713,-0.0853 0.0713,-0.2558 0,-0.13797 -0.0434,-0.23409 -0.045,-0.0961 -0.14108,-0.16588 -0.0481,-0.0341 -0.16433,-0.0682 -0.11782,-0.0357 -0.33021,-0.0775 l -1.42627,-0.27595 v -0.31471 l 1.42627,0.27595 q 0.33951,0.0651 0.49919,0.13953 0.15813,0.0729 0.2558,0.19378 0.0868,0.11007 0.13333,0.25115 0.045,0.14108 0.045,0.30541 0,0.29765 -0.13953,0.45888 -0.13953,0.15968 -0.39688,0.15968 -0.0574,0 -0.15502,-0.0124 -0.0977,-0.0139 -0.24185,-0.0419 z m -1.42627,-2.03243 v -1.76734 l 0.26355,0.0512 v 0.72709 l 2.05104,0.39688 v 0.31626 l -2.05104,-0.39998 v 0.72709 z m 0,-2.14561 v -1.37201 l 0.26355,0.0512 v 1.0604 l 0.68523,0.13333 v -1.01234 l 0.26355,0.0496 v 1.01389 l 0.83871,0.16123 v -1.08831 l 0.26355,0.0512 v 1.40302 z m 0.0791,-3.15639 0.31781,0.0605 q -0.0915,0.12557 -0.13797,0.26045 -0.0465,0.13487 -0.0465,0.27905 0,0.2558 0.12712,0.41703 0.12713,0.16123 0.32402,0.16123 0.11007,0 0.17828,-0.076 0.0682,-0.076 0.13022,-0.27595 l 0.0605,-0.18759 q 0.0775,-0.2527 0.20774,-0.36897 0.12868,-0.11782 0.32867,-0.11782 0.36432,0 0.57826,0.25735 0.21239,0.25734 0.21239,0.70228 0,0.16123 -0.0357,0.31781 -0.0341,0.15503 -0.10387,0.31006 l -0.32401,-0.0636 q 0.10697,-0.15193 0.15813,-0.30696 0.0512,-0.15658 0.0512,-0.33021 0,-0.2558 -0.13643,-0.41548 -0.13642,-0.15968 -0.34571,-0.15968 -0.12713,0 -0.19689,0.0682 -0.0698,0.0682 -0.13333,0.2744 l -0.0512,0.15658 q -0.0899,0.28525 -0.20308,0.39997 -0.11473,0.11318 -0.30231,0.11318 -0.34262,0 -0.55966,-0.2558 -0.21859,-0.2558 -0.21859,-0.66818 0,-0.12402 0.031,-0.26355 0.031,-0.14107 0.0899,-0.28835 z"
   id="text2"
   style="font-style:italic;font-size:3.175px;font-family:Menlo;-inkscape-font-specification:'Menlo Italic';text-align:center;text-anchor:middle;fill:#ffffff;stroke-width:0.141111"
   aria-label="MUTES" /><path
   style="font-style:italic;font-size:2.11667px;font-family:Menlo;-inkscape-font-specification:'Menlo Italic';text-align:center;text-anchor:middle;clip-rule:evenodd;fill:#ffffff;fill-rule:evenodd;stroke-width:0.352778;stroke-linecap:square;stroke-linejoin:round;stroke-miterlimit:1.5"
   d="m 22.347376,51.892331 -0.529167,0.565341 0.328663,0.592213 h -0.203606 l -0.252181,-0.458888 -0.430982,0.458888 h -0.233578 l 0.582911,-0.615984 -0.302824,-0.54157 h 0.202571 l 0.224277,0.408244 0.381372,-0.408244 z m 0.187069,0.981854 h 0.323495 l 0.228411,-1.179258 -0.363803,0.07855 0.03617,-0.19017 0.363802,-0.07648 h 0.209807 l -0.266651,1.367361 h 0.319361 l -0.03411,0.1757 h -0.850595 z"
   id="text6"
   aria-label="x1" /><path
   style="font-style:italic;font-size:2.11667px;font-family:Menlo;-inkscape-font-specification:'Menlo Italic';text-align:center;text-anchor:middle;clip-rule:evenodd;fill:#ffffff;fill-rule:evenodd;stroke-width:0.352778;stroke-linecap:square;stroke-linejoin:round;stroke-miterlimit:1.5"
   d="m 22.347376,40.195157 -0.529167,0.565341 0.328663,0.592213 h -0.203606 l -0.252181,-0.458888 -0.430982,0.458888 h -0.233578 l 0.582911,-0.615984 -0.302824,-0.54157 h 0.202571 l 0.224277,0.408244 0.381372,-0.408244 z m 0.302825,0.981854 h 0.706935 l -0.03307,0.1757 h -0.944647 l 0.03411,-0.1757 0.321428,-0.283188 0.04031,-0.03617 q 0.555006,-0.486793 0.555006,-0.6966 0,-0.09612 -0.06615,-0.150895 -0.06615,-0.05478 -0.183969,-0.05478 -0.09508,0 -0.204639,0.03514 -0.109554,0.03411 -0.239779,0.104386 l 0.04237,-0.21084 q 0.115756,-0.05064 0.223243,-0.07648 0.10852,-0.02584 0.208773,-0.02584 0.191203,0 0.309025,0.100252 0.117823,0.100253 0.117823,0.26045 0,0.09922 -0.03721,0.189136 -0.03617,0.08888 -0.120923,0.195337 -0.03411,0.04341 -0.12299,0.125057 -0.08888,0.08165 -0.274919,0.241846 z"
   id="text7"
   aria-label="x2" /><path
   style="font-style:italic;font-size:2.11667px;font-family:Menlo;-inkscape-font-specification:'Menlo Italic';text-align:center;text-anchor:middle;clip-rule:evenodd;fill:#ffffff;fill-rule:evenodd;stroke-width:0.352778;stroke-linecap:square;stroke-linejoin:round;stroke-miterlimit:1.5"
   d="m 22.515325,63.094683 q 0.247014,-0.0083 0.335897,0.191204 0.08992,0.199471 0.0186,0.596347 -0.07131,0.397909 -0.234611,0.604615 -0.163298,0.206706 -0.410312,0.21394 -0.247014,0.0072 -0.335897,-0.191203 -0.08888,-0.199471 -0.0186,-0.596347 0.07235,-0.397909 0.234612,-0.604615 0.163297,-0.206706 0.410311,-0.213941 z m -0.260449,1.438675 q 0.146761,-0.0041 0.247013,-0.163298 0.100253,-0.159164 0.15813,-0.481625 0.03204,-0.171566 0.03617,-0.309026 l -0.632521,0.790651 q 0.04651,0.168465 0.191204,0.163298 z m 0.230477,-1.271243 q -0.145728,0.0041 -0.24598,0.163298 -0.100253,0.159164 -0.159164,0.481625 -0.02687,0.145728 -0.02997,0.273886 L 22.67139,63.39234 q -0.05271,-0.135392 -0.186035,-0.130225 z"
   id="text8"
   aria-label="0" /><g
   aria-label="PREEEEEEEEEEESSED DUCK"
   id="text8315"
   style="font-style:italic;font-size:5.64444px;font-family:Menlo;-inkscape-font-specification:'Menlo Italic';text-align:center;text-anchor:middle;opacity:1;fill:#ffffff;stroke-width:0.352777"><path
     d="m 85.795718,3.4551438 -0.300412,1.5461577 h 0.644921 q 0.454752,0 0.724848,-0.2618271 0.272851,-0.2645831 0.272851,-0.7027989 0,-0.297656 -0.170877,-0.4382158 Q 86.796173,3.4551438 86.437883,3.4551438 Z M 85.327185,2.9976355 h 1.212673 q 0.567751,0 0.865407,0.2535588 0.297656,0.2535589 0.297656,0.7331158 0,0.6862625 -0.440972,1.0803811 -0.440972,0.3941186 -1.212672,0.3941186 h -0.642166 l -0.32246,1.6536446 h -0.559483 z"
     style="stroke-width:0.352778"
     id="path9115" /><path
     d="m 89.894,5.169422 q 0.198438,0.038585 0.316949,0.184657 0.121267,0.1460719 0.270095,0.6338971 l 0.333485,1.1244783 h -0.553971 l -0.292144,-1.03904 Q 89.847147,5.6434668 89.695563,5.5084192 89.546735,5.3733715 89.243567,5.3733715 H 88.7144 L 88.375403,7.1124544 H 87.81592 l 0.796506,-4.1148189 h 1.146527 q 0.570507,0 0.881943,0.2480467 0.314193,0.2452906 0.314193,0.6945307 0,0.5043616 -0.286632,0.8350905 Q 90.384582,5.1060323 89.894,5.169422 Z m -0.807529,-1.7142782 -0.28112,1.4607194 h 0.60358 q 0.44924,0 0.71658,-0.2342663 0.270095,-0.2370224 0.270095,-0.628385 0,-0.3086803 -0.173633,-0.4519961 -0.173633,-0.146072 -0.548459,-0.146072 z"
     style="stroke-width:0.352778"
     id="path9117" /><path
     d="m 92.129177,2.9976355 h 2.439125 l -0.09095,0.4685326 H 92.592197 L 92.355175,4.684353 h 1.799716 l -0.08819,0.4685326 h -1.802473 l -0.286632,1.4910362 h 1.934765 l -0.09095,0.4685326 h -2.494247 z"
     style="stroke-width:0.352778"
     id="path9119" /><path
     d="m 95.527417,2.9976355 h 2.439125 l -0.09095,0.4685326 H 95.990437 L 95.753415,4.684353 h 1.799716 l -0.08819,0.4685326 h -1.802473 l -0.286631,1.4910362 h 1.934764 l -0.09095,0.4685326 h -2.494247 z"
     style="stroke-width:0.352778"
     id="path9121" /><path
     d="m 98.925656,2.9976355 h 2.439124 l -0.0909,0.4685326 H 99.388676 L 99.151654,4.684353 h 1.799716 l -0.0882,0.4685326 h -1.802477 l -0.286631,1.4910362 h 1.934768 l -0.0909,0.4685326 h -2.494252 z"
     style="stroke-width:0.352778"
     id="path9123" /><path
     d="m 102.32389,2.9976355 h 2.43913 l -0.0909,0.4685326 h -1.88515 l -0.23703,1.2181849 h 1.79972 l -0.0882,0.4685326 h -1.80248 l -0.28663,1.4910362 h 1.93476 l -0.0909,0.4685326 h -2.49424 z"
     style="stroke-width:0.352778"
     id="path9125" /><path
     d="m 105.72214,2.9976355 h 2.43912 l -0.0909,0.4685326 h -1.88515 l -0.23703,1.2181849 h 1.79972 l -0.0882,0.4685326 h -1.80248 l -0.28663,1.4910362 h 1.93477 l -0.0909,0.4685326 h -2.49425 z"
     style="stroke-width:0.352778"
     id="path9127" /><path
     d="m 109.12038,2.9976355 h 2.43912 l -0.091,0.4685326 h -1.88515 l -0.23703,1.2181849 h 1.79972 l -0.0882,0.4685326 h -1.80248 l -0.28663,1.4910362 h 1.93477 l -0.091,0.4685326 h -2.49424 z"
     style="stroke-width:0.352778"
     id="path9129" /><path
     d="m 112.51861,2.9976355 h 2.43913 l -0.091,0.4685326 h -1.88516 l -0.23702,1.2181849 h 1.79972 l -0.0882,0.4685326 h -1.80247 l -0.28663,1.4910362 h 1.93476 l -0.0909,0.4685326 h -2.49424 z"
     style="stroke-width:0.352778"
     id="path9131" /><path
     d="m 115.91685,2.9976355 h 2.43913 l -0.091,0.4685326 h -1.88516 l -0.23702,1.2181849 h 1.79972 l -0.0882,0.4685326 h -1.80247 l -0.28663,1.4910362 h 1.93476 l -0.0909,0.4685326 h -2.49424 z"
     style="stroke-width:0.352778"
     id="path9133" /><path
     d="m 119.31509,2.9976355 h 2.43913 l -0.091,0.4685326 h -1.88516 l -0.23702,1.2181849 h 1.79972 l -0.0882,0.4685326 h -1.80247 l -0.28663,1.4910362 h 1.93476 l -0.0909,0.4685326 h -2.49425 z"
     style="stroke-width:0.352778"
     id="path9135" /><path
     d="m 122.71333,2.9976355 h 2.43913 l -0.091,0.4685326 h -1.88516 l -0.23702,1.2181849 h 1.79972 l -0.0882,0.4685326 h -1.80247 l -0.28663,1.4910362 h 1.93476 l -0.091,0.4685326 h -2.49425 z"
     style="stroke-width:0.352778"
     id="path9137" /><path
     d="m 126.11157,2.9976355 h 2.43913 l -0.0909,0.4685326 h -1.88515 l -0.23703,1.2181849 h 1.79972 l -0.0882,0.4685326 h -1.80247 l -0.28663,1.4910362 h 1.93476 l -0.091,0.4685326 h -2.49424 z"
     style="stroke-width:0.352778"
     id="path9139" /><path
     d="m 131.72294,3.1381953 -0.10749,0.5649952 q -0.22324,-0.1626084 -0.46302,-0.2452906 -0.23977,-0.082682 -0.49609,-0.082682 -0.45475,0 -0.74138,0.2259981 -0.28664,0.225998 -0.28664,0.5760195 0,0.1956813 0.13505,0.3169485 0.13505,0.1212673 0.49058,0.2315103 l 0.33349,0.1074869 q 0.44924,0.1378037 0.65594,0.3693139 0.20947,0.2287542 0.20947,0.5842878 0,0.6476774 -0.45751,1.0280157 -0.45751,0.3775822 -1.2485,0.3775822 -0.28664,0 -0.565,-0.06339 -0.27561,-0.060634 -0.55121,-0.184657 l 0.113,-0.5760195 q 0.27009,0.1901691 0.5457,0.2811195 0.27836,0.09095 0.58704,0.09095 0.45475,0 0.73863,-0.2425346 0.28388,-0.2425345 0.28388,-0.6146045 0,-0.2259981 -0.12127,-0.3500215 -0.12127,-0.1240233 -0.48783,-0.2370224 l -0.27836,-0.09095 q -0.50712,-0.1598523 -0.71107,-0.3610457 -0.20119,-0.2039495 -0.20119,-0.5374345 0,-0.6090924 0.45475,-0.9949429 0.45475,-0.3886064 1.18787,-0.3886064 0.22048,0 0.46853,0.055122 0.2508,0.055121 0.51263,0.1598523 z"
     style="stroke-width:0.352778"
     id="path9141" /><path
     d="m 135.12118,3.1381953 -0.10749,0.5649952 q -0.22324,-0.1626084 -0.46302,-0.2452906 -0.23978,-0.082682 -0.49609,-0.082682 -0.45475,0 -0.74138,0.2259981 -0.28664,0.225998 -0.28664,0.5760195 0,0.1956813 0.13505,0.3169485 0.13505,0.1212673 0.49058,0.2315103 l 0.33349,0.1074869 q 0.44924,0.1378037 0.65594,0.3693139 0.20947,0.2287542 0.20947,0.5842878 0,0.6476774 -0.45751,1.0280157 -0.45751,0.3775822 -1.2485,0.3775822 -0.28664,0 -0.565,-0.06339 -0.27561,-0.060634 -0.55121,-0.184657 l 0.11299,-0.5760195 q 0.2701,0.1901691 0.54571,0.2811195 0.27836,0.09095 0.58704,0.09095 0.45475,0 0.73863,-0.2425346 0.28387,-0.2425345 0.28387,-0.6146045 0,-0.2259981 -0.12126,-0.3500215 -0.12127,-0.1240233 -0.48783,-0.2370224 l -0.27836,-0.09095 q -0.50712,-0.1598523 -0.71107,-0.3610457 -0.20119,-0.2039495 -0.20119,-0.5374345 0,-0.6090924 0.45475,-0.9949429 0.45475,-0.3886064 1.18787,-0.3886064 0.22048,0 0.46853,0.055122 0.2508,0.055121 0.51263,0.1598523 z"
     style="stroke-width:0.352778"
     id="path9143" /><path
     d="m 136.30629,2.9976355 h 2.43913 l -0.0909,0.4685326 h -1.88516 l -0.23702,1.2181849 h 1.79972 l -0.0882,0.4685326 h -1.80247 l -0.28663,1.4910362 h 1.93476 l -0.0909,0.4685326 h -2.49425 z"
     style="stroke-width:0.352778"
     id="path9145" /><path
     d="m 139.64941,6.6549461 q 0.50987,0 0.81855,-0.1708766 0.30868,-0.1736327 0.4961,-0.5622392 0.14883,-0.3169485 0.24253,-0.7551643 0.0965,-0.4409719 0.0965,-0.8075298 0,-0.4850691 -0.22599,-0.6945307 -0.226,-0.2094617 -0.75792,-0.2094617 h -0.3142 l -0.62287,3.1998023 z m 0.72209,-3.6573106 q 0.75241,0 1.12448,0.3417532 0.37483,0.3417532 0.37483,1.0362839 0,0.4464841 -0.11576,0.9205288 -0.11575,0.4740448 -0.31144,0.8406027 -0.28663,0.5264102 -0.71658,0.7524083 -0.42719,0.223242 -1.15755,0.223242 h -0.83509 l 0.80202,-4.1148189 z"
     style="stroke-width:0.352778"
     id="path9147" /><path
     d="m 146.44589,6.6549461 q 0.50987,0 0.81855,-0.1708766 0.30868,-0.1736327 0.4961,-0.5622392 0.14882,-0.3169485 0.24253,-0.7551643 0.0965,-0.4409719 0.0965,-0.8075298 0,-0.4850691 -0.226,-0.6945307 -0.22599,-0.2094617 -0.75792,-0.2094617 h -0.31419 l -0.62287,3.1998023 z m 0.72209,-3.6573106 q 0.75241,0 1.12448,0.3417532 0.37482,0.3417532 0.37482,1.0362839 0,0.4464841 -0.11575,0.9205288 -0.11576,0.4740448 -0.31144,0.8406027 -0.28663,0.5264102 -0.71658,0.7524083 -0.42719,0.223242 -1.15755,0.223242 h -0.83509 l 0.80202,-4.1148189 z"
     style="stroke-width:0.352778"
     id="path9149" /><path
     d="m 149.26811,5.5332238 0.49058,-2.5355883 h 0.55948 l -0.49334,2.5355883 q -0.006,0.035829 -0.022,0.1129991 -0.0827,0.4244354 -0.0827,0.5870438 0,0.2535588 0.14883,0.3803383 0.15159,0.1267794 0.45475,0.1267794 0.24529,0 0.41617,-0.07717 0.17088,-0.079926 0.2949,-0.2508028 0.0606,-0.085438 0.12127,-0.2921438 0.0634,-0.2094617 0.1378,-0.5870439 l 0.49058,-2.5355883 h 0.55949 l -0.49058,2.5355883 q -0.11576,0.6035803 -0.24805,0.887456 -0.12954,0.2811195 -0.34451,0.4547522 -0.19568,0.1543402 -0.44648,0.2370224 -0.25081,0.079926 -0.54295,0.079926 -0.52917,0 -0.8158,-0.2480467 -0.28388,-0.2480467 -0.28388,-0.705555 0,-0.1019748 0.0221,-0.2756075 0.0248,-0.1736327 0.0744,-0.4299476 z"
     style="stroke-width:0.352778"
     id="path9151" /><path
     d="m 154.95113,6.9663825 q -0.23151,0.112999 -0.46853,0.1681205 -0.23427,0.057878 -0.48507,0.057878 -0.6339,0 -0.98392,-0.3665579 -0.34726,-0.3665579 -0.34726,-1.0280157 0,-0.6063364 0.19292,-1.2016484 0.19293,-0.5953121 0.50712,-0.9728943 0.2949,-0.3582896 0.65043,-0.5291662 0.35554,-0.1708766 0.81029,-0.1708766 0.22048,0 0.43821,0.057878 0.21773,0.057878 0.42444,0.1681206 l -0.113,0.5705073 q -0.17639,-0.1736326 -0.37207,-0.2590709 -0.19568,-0.085438 -0.41617,-0.085438 -0.26182,0 -0.48507,0.112999 -0.22324,0.110243 -0.41892,0.3389971 -0.28663,0.3389972 -0.46302,0.8681634 -0.17363,0.5291663 -0.17363,1.0610887 0,0.4768008 0.21497,0.7303596 0.21498,0.2535589 0.62012,0.2535589 0.23427,0 0.48231,-0.088194 0.2508,-0.088194 0.49334,-0.2563149 z"
     style="stroke-width:0.352778"
     id="path9153" /><path
     d="m 156.52761,2.9976355 h 0.55672 l -0.35002,1.7831801 2.04501,-1.7831801 h 0.70004 l -1.93752,1.70601 1.1796,2.4088089 h -0.60358 l -0.99219,-2.042251 -0.53192,0.4630204 -0.30868,1.5792306 h -0.55948 z"
     style="stroke-width:0.352778"
     id="path9155" /></g></svg>
