<?xml version="1.0" encoding="UTF-8" standalone="no"?>
<svg
   width="121.92mm"
   height="128.5mm"
   viewBox="0 0 121.92 128.5"
   version="1.1"
   xml:space="preserve"
   style="clip-rule:evenodd;fill-rule:evenodd;stroke-linecap:square;stroke-linejoin:round;stroke-miterlimit:1.5"
   id="svg78"
   sodipodi:docname="PressedDuck-dark.svg"
   inkscape:version="1.3.2 (091e20e, 2023-11-25)"
   xmlns:inkscape="http://www.inkscape.org/namespaces/inkscape"
   xmlns:sodipodi="http://sodipodi.sourceforge.net/DTD/sodipodi-0.dtd"
   xmlns="http://www.w3.org/2000/svg"
   xmlns:svg="http://www.w3.org/2000/svg"
   xmlns:serif="http://www.serif.com/"><defs
   id="defs78">
        
        
        
        
        
        
        
        
        
        
        
        
        
        
        
        
        
        
        
        
        
        
        
        
        
        
        
        
        
        
        
        
        
        
        
        
    
        
        
        
        
        
        
        
        
        
        
        
        
        
        
        
        
        
        
        
        
        
        
        
        
        
        
        
        
        
        
        
        
        
        
        
        
        
        
        
        
        
        
        
        
        
        
        
        
        
        
        
        
        
        
        
        
        
        
        
        
        
        
        
        
        
        
        
        
    
        
        
        
        
        
        
        
        
        
        
        
        
        
        
        
        
        
        
        
        
        
        
        
        
        
        
        
        
        
        
        
        
        
        
        
        
        
        
        
        
        
        
    
        
        
        
        
        
        
        
        
        
        
        
        
        
        
        
        
        
        
        
        
        
        
        
        
        
        
        
        
        
        
        
        
        
        
        
        
        
        
        
        
        
        
        
        
        
        
        
        
        
        
        
        
        
        
        
        
        
        
        
        
        
        
        
        
        
        
        
        
        
        
        
        
        
        
        
        
        
        
        
    
            
            
            
        </defs><sodipodi:namedview
   id="namedview78"
   pagecolor="#ffffff"
   bordercolor="#000000"
   borderopacity="0.25"
   inkscape:showpageshadow="2"
   inkscape:pageopacity="0.0"
   inkscape:pagecheckerboard="0"
   inkscape:deskcolor="#d1d1d1"
   inkscape:zoom="1.34"
   inkscape:cx="191.41791"
   inkscape:cy="227.98507"
   inkscape:window-width="1160"
   inkscape:window-height="1000"
   inkscape:window-x="0"
   inkscape:window-y="38"
   inkscape:window-maximized="0"
   inkscape:current-layer="svg78"
   inkscape:document-units="mm"
   showgrid="false"
   showguides="false" />
    
    
<rect
   id="rect420"
   x="-0.082814574"
   y="-129.42876"
   width="122.18098"
   height="129.62866"
   style="clip-rule:evenodd;fill:#212121;fill-opacity:1;fill-rule:evenodd;stroke-width:0.352024;stroke-linecap:square;stroke-linejoin:round;stroke-miterlimit:1.5"
   transform="scale(1,-1)" /><rect
   style="opacity:1;fill:#3b3b3b;fill-opacity:1;stroke:#d08c58;stroke-width:0.352777;stroke-linejoin:round;stroke-opacity:1"
   id="rect65"
   width="23.385597"
   height="13.994199"
   x="95.912949"
   y="108.94213"
   rx="5"
   ry="5" /><g
   id="g29"
   style="clip-rule:evenodd;fill:#ffffff;fill-opacity:1;fill-rule:evenodd;stroke:none;stroke-linecap:square;stroke-linejoin:round;stroke-miterlimit:1.5;stroke-opacity:1"
   transform="matrix(0.35202321,0,0,0.35202321,24.021852,0.86910258)">
                <path
   d="m 95.792,354.678 c 0.172,0.357 0.228,0.715 0.168,1.075 h -1.203 c -0.018,-0.276 -0.074,-0.485 -0.168,-0.625 -0.164,-0.25 -0.461,-0.375 -0.89,-0.375 -0.438,0 -0.821,0.176 -1.149,0.529 -0.328,0.353 -0.56,0.852 -0.695,1.498 -0.138,0.646 -0.108,1.129 0.09,1.451 0.198,0.322 0.502,0.482 0.914,0.482 0.422,0 0.773,-0.138 1.054,-0.414 0.154,-0.148 0.303,-0.371 0.446,-0.668 h 1.191 c -0.237,0.628 -0.611,1.138 -1.123,1.532 -0.512,0.393 -1.102,0.59 -1.771,0.59 -0.828,0 -1.424,-0.266 -1.786,-0.797 -0.359,-0.534 -0.44,-1.266 -0.242,-2.196 0.214,-1.005 0.647,-1.78 1.301,-2.324 0.57,-0.474 1.218,-0.711 1.941,-0.711 0.969,0 1.61,0.318 1.922,0.953 z"
   style="fill:#ffffff;fill-opacity:1;fill-rule:nonzero;stroke:none;stroke-opacity:1"
   id="path24" />
                <path
   d="m 98.456,358.206 2.192,-4.371 h 1.25 l -3.188,5.757 h -1.136 l -0.723,-5.757 h 1.285 z"
   style="fill:#ffffff;fill-opacity:1;fill-rule:nonzero;stroke:none;stroke-opacity:1"
   id="path25" />
                <path
   d="m 106.441,355.374 -0.168,0.785 h -0.731 l -0.726,3.433 h -1.11 l 0.727,-3.433 h -0.621 l 0.168,-0.785 h 0.609 l 0.059,-0.274 c 0.096,-0.456 0.239,-0.769 0.43,-0.941 0.216,-0.255 0.632,-0.383 1.25,-0.383 0.07,0 0.133,0.002 0.189,0.006 0.056,0.004 0.133,0.01 0.232,0.017 l -0.195,0.907 c -0.06,-0.008 -0.163,-0.014 -0.309,-0.018 -0.145,-0.004 -0.254,0.029 -0.326,0.098 -0.071,0.069 -0.115,0.145 -0.131,0.228 -0.018,0.084 -0.044,0.203 -0.078,0.36 z"
   style="fill:#ffffff;fill-opacity:1;fill-rule:nonzero;stroke:none;stroke-opacity:1"
   id="path26" />
                <path
   d="m 109.042,358.991 c -0.013,0.013 -0.047,0.052 -0.101,0.117 -0.055,0.065 -0.116,0.122 -0.184,0.172 -0.208,0.156 -0.4,0.263 -0.576,0.32 -0.176,0.057 -0.373,0.086 -0.592,0.086 -0.63,0 -1.006,-0.226 -1.129,-0.68 -0.067,-0.25 -0.049,-0.618 0.055,-1.105 l 0.543,-2.566 h 1.141 l -0.543,2.566 c -0.052,0.242 -0.063,0.424 -0.032,0.547 0.055,0.216 0.231,0.324 0.528,0.324 0.38,0 0.673,-0.154 0.879,-0.461 0.109,-0.167 0.192,-0.387 0.25,-0.66 l 0.492,-2.316 h 1.129 l -0.903,4.257 h -1.082 z"
   style="fill:#ffffff;fill-opacity:1;fill-rule:nonzero;stroke:none;stroke-opacity:1"
   id="path27" />
                <path
   d="m 114.339,357.003 c 0.05,-0.224 0.056,-0.396 0.02,-0.516 -0.063,-0.219 -0.248,-0.328 -0.555,-0.328 -0.378,0 -0.67,0.16 -0.879,0.48 -0.109,0.17 -0.191,0.386 -0.246,0.649 l -0.488,2.304 h -1.11 l 0.903,-4.25 h 1.074 l -0.133,0.621 c 0.19,-0.218 0.36,-0.376 0.508,-0.472 0.266,-0.172 0.574,-0.258 0.926,-0.258 0.44,0 0.775,0.115 1.006,0.346 0.23,0.23 0.289,0.612 0.177,1.146 l -0.609,2.867 h -1.141 z"
   style="fill:#ffffff;fill-opacity:1;fill-rule:nonzero;stroke:none;stroke-opacity:1"
   id="path28" />
                <path
   d="m 117.324,358.253 -0.282,1.339 h -1.093 l 1.218,-5.738 h 1.094 l -0.66,3.102 1.727,-1.602 h 1.378 l -1.836,1.629 0.997,2.609 h -1.344 l -0.633,-1.82 z"
   style="fill:#ffffff;fill-opacity:1;fill-rule:nonzero;stroke:none;stroke-opacity:1"
   id="path29" />
            </g><path
   d="m 48.368833,126.44948 h 6.688441"
   style="clip-rule:evenodd;fill:#000000;fill-rule:evenodd;stroke:#d08c58;stroke-width:0.228815px;stroke-linecap:round;stroke-linejoin:round;stroke-miterlimit:1.5;stroke-opacity:1"
   id="path30" /><path
   d="m 66.862725,126.44948 h 6.688441"
   style="clip-rule:evenodd;fill:#000000;fill-rule:evenodd;stroke:#d08c58;stroke-width:0.228815px;stroke-linecap:round;stroke-linejoin:round;stroke-miterlimit:1.5;stroke-opacity:1"
   id="path31" /><g
   id="g55"
   transform="matrix(0.28261779,0,0,0.28261004,1.2879219,64.730189)"
   style="clip-rule:evenodd;fill-rule:evenodd;stroke:#d08c58;stroke-width:1.2456;stroke-linecap:square;stroke-linejoin:round;stroke-miterlimit:1.5;stroke-opacity:1">
            <path
   id="path401"
   serif:id="path40"
   d="M 44.843,92.605 42.539,92.03 43.112,89.722"
   style="fill:none;stroke:#d08c58;stroke-width:0.871918px;stroke-linecap:butt;stroke-linejoin:miter;stroke-miterlimit:10;stroke-opacity:1" />
            <path
   id="path411"
   serif:id="path41"
   d="M 18.355,91.132 C 13.01,87.25 9.539,80.994 9.539,73.942 c 0,-11.767 9.668,-21.32 21.577,-21.32 11.909,0 21.578,9.553 21.578,21.32 0,6.065 -2.569,11.542 -6.689,15.426 -1.059,0.998 -2.22,1.892 -3.466,2.662"
   style="fill:none;stroke:#d08c58;stroke-width:0.871918px;stroke-linecap:butt;stroke-opacity:1" />
        </g><path
   d="M 6.6528751,90.477299 5.8053039,91.674154"
   style="clip-rule:evenodd;fill:none;fill-rule:evenodd;stroke:#d08c58;stroke-width:0.264017px;stroke-linecap:square;stroke-linejoin:round;stroke-miterlimit:1.5;stroke-opacity:1"
   id="path67" /><path
   d="M 10.109389,88.412999 V 112.8443"
   style="clip-rule:evenodd;fill:none;fill-rule:evenodd;stroke:#d08c58;stroke-width:0.352778;stroke-linecap:square;stroke-linejoin:round;stroke-miterlimit:1.5;stroke-dasharray:none;stroke-opacity:1"
   id="path66" /><g
   id="g5"
   transform="translate(-0.099997)"><path
     style="font-style:italic;font-size:2.11667px;font-family:Menlo;-inkscape-font-specification:'Menlo Italic';text-align:center;text-anchor:middle;fill:#d08c59;stroke-width:0.352778"
     d="m 23.953758,83.369499 h 0.208773 l -0.266651,1.36736 h 0.745175 l -0.03411,0.175701 h -0.953948 z"
     id="text5"
     aria-label="L" /><path
     style="font-style:italic;font-size:2.11667px;font-family:Menlo;-inkscape-font-specification:'Menlo Italic';text-align:center;text-anchor:middle;fill:#d08c59;stroke-width:0.352778"
     d="m 27.202816,84.183921 q 0.07442,0.01447 0.118856,0.06925 0.04548,0.05478 0.101286,0.237712 l 0.125057,0.421681 h -0.207739 l -0.109554,-0.389641 q -0.04548,-0.161231 -0.10232,-0.211874 -0.05581,-0.05064 -0.169499,-0.05064 h -0.198438 l -0.127124,0.652158 h -0.209806 l 0.29869,-1.543061 h 0.429948 q 0.213941,0 0.33073,0.09302 0.117823,0.09198 0.117823,0.260449 0,0.189136 -0.107488,0.31316 -0.106453,0.124024 -0.290422,0.147795 z m -0.302824,-0.642856 -0.10542,0.547771 h 0.226343 q 0.168465,0 0.268718,-0.08785 0.101286,-0.08888 0.101286,-0.235645 0,-0.115755 -0.06511,-0.169499 -0.06511,-0.05478 -0.205672,-0.05478 z"
     id="text4"
     aria-label="R" /></g><path
   d="M 25.441232,67.354739 V 113.45"
   style="clip-rule:evenodd;fill:none;fill-rule:evenodd;stroke:#d08c58;stroke-width:0.352778;stroke-linecap:square;stroke-linejoin:round;stroke-miterlimit:1.5;stroke-dasharray:none;stroke-opacity:1"
   id="path2" /><path
   style="font-style:italic;font-size:2.11667px;font-family:Menlo;-inkscape-font-specification:'Menlo Italic';text-align:center;text-anchor:middle;fill:#ffffff;fill-opacity:1;stroke-width:0.352778"
   d="m 23.853761,83.369496 h 0.208773 l -0.266651,1.36736 h 0.745175 l -0.03411,0.175701 H 23.553 Z"
   id="path5"
   aria-label="L" /><path
   style="font-style:italic;font-size:2.11667px;font-family:Menlo;-inkscape-font-specification:'Menlo Italic';text-align:center;text-anchor:middle;fill:#ffffff;fill-opacity:1;stroke-width:0.352778"
   d="m 27.102819,84.183918 q 0.07442,0.01447 0.118856,0.06925 0.04548,0.05478 0.101286,0.237712 l 0.125057,0.421681 H 27.240279 L 27.130725,84.52292 q -0.04548,-0.161231 -0.10232,-0.211874 -0.05581,-0.05064 -0.169499,-0.05064 h -0.198438 l -0.127124,0.652158 h -0.209806 l 0.29869,-1.543061 h 0.429948 q 0.213941,0 0.33073,0.09302 0.117823,0.09198 0.117823,0.260449 0,0.189136 -0.107488,0.31316 -0.106453,0.124024 -0.290422,0.147795 z m -0.302824,-0.642856 -0.10542,0.547771 h 0.226343 q 0.168465,0 0.268718,-0.08785 0.101286,-0.08888 0.101286,-0.235645 0,-0.115755 -0.06511,-0.169499 -0.06511,-0.05478 -0.205672,-0.05478 z"
   id="path6"
   aria-label="R" /><path
   d="m 37.818973,87.64507 v 26.25811"
   style="clip-rule:evenodd;fill:none;fill-rule:evenodd;stroke:#d08c58;stroke-width:0.352778;stroke-linecap:square;stroke-linejoin:round;stroke-miterlimit:1.5;stroke-dasharray:none;stroke-opacity:1"
   id="path7" /><path
   style="font-style:italic;font-size:2.11667px;font-family:Menlo;-inkscape-font-specification:'Menlo Italic';text-align:center;text-anchor:middle;fill:#ffffff;fill-opacity:1;stroke-width:0.352778"
   d="m 36.156761,83.369496 h 0.208773 l -0.266651,1.36736 h 0.745175 l -0.03411,0.175701 H 35.856 Z"
   id="path8"
   aria-label="L" /><path
   style="font-style:italic;font-size:2.11667px;font-family:Menlo;-inkscape-font-specification:'Menlo Italic';text-align:center;text-anchor:middle;fill:#ffffff;fill-opacity:1;stroke-width:0.352778"
   d="m 39.405819,84.183918 q 0.07442,0.01447 0.118856,0.06925 0.04548,0.05478 0.101286,0.237712 l 0.125057,0.421681 H 39.543279 L 39.433725,84.52292 q -0.04548,-0.161231 -0.10232,-0.211874 -0.05581,-0.05064 -0.169499,-0.05064 h -0.198438 l -0.127124,0.652158 h -0.209806 l 0.29869,-1.543061 h 0.429948 q 0.213941,0 0.33073,0.09302 0.117823,0.09198 0.117823,0.260449 0,0.189136 -0.107488,0.31316 -0.106453,0.124024 -0.290422,0.147795 z m -0.302824,-0.642856 -0.10542,0.547771 h 0.226343 q 0.168465,0 0.268718,-0.08785 0.101286,-0.08888 0.101286,-0.235645 0,-0.115755 -0.06511,-0.169499 -0.06511,-0.05478 -0.205672,-0.05478 z"
   id="path9"
   aria-label="R" /><path
   d="m 49.820973,87.64507 v 26.25811"
   style="clip-rule:evenodd;fill:none;fill-rule:evenodd;stroke:#d08c58;stroke-width:0.352778;stroke-linecap:square;stroke-linejoin:round;stroke-miterlimit:1.5;stroke-dasharray:none;stroke-opacity:1"
   id="path10" /><path
   style="font-style:italic;font-size:2.11667px;font-family:Menlo;-inkscape-font-specification:'Menlo Italic';text-align:center;text-anchor:middle;fill:#ffffff;fill-opacity:1;stroke-width:0.352778"
   d="m 48.158761,83.369496 h 0.208773 l -0.266651,1.36736 h 0.745175 l -0.03411,0.175701 H 47.858 Z"
   id="path11"
   aria-label="L" /><path
   style="font-style:italic;font-size:2.11667px;font-family:Menlo;-inkscape-font-specification:'Menlo Italic';text-align:center;text-anchor:middle;fill:#ffffff;fill-opacity:1;stroke-width:0.352778"
   d="m 51.407819,84.183918 q 0.07442,0.01447 0.118856,0.06925 0.04548,0.05478 0.101286,0.237712 l 0.125057,0.421681 H 51.545279 L 51.435725,84.52292 q -0.04548,-0.161231 -0.10232,-0.211874 -0.05581,-0.05064 -0.169499,-0.05064 h -0.198438 l -0.127124,0.652158 h -0.209806 l 0.29869,-1.543061 h 0.429948 q 0.213941,0 0.33073,0.09302 0.117823,0.09198 0.117823,0.260449 0,0.189136 -0.107488,0.31316 -0.106453,0.124024 -0.290422,0.147795 z m -0.302824,-0.642856 -0.10542,0.547771 h 0.226343 q 0.168465,0 0.268718,-0.08785 0.101286,-0.08888 0.101286,-0.235645 0,-0.115755 -0.06511,-0.169499 -0.06511,-0.05478 -0.205672,-0.05478 z"
   id="path12"
   aria-label="R" /><path
   d="m 61.935973,87.64507 v 26.25811"
   style="clip-rule:evenodd;fill:none;fill-rule:evenodd;stroke:#d08c58;stroke-width:0.352778;stroke-linecap:square;stroke-linejoin:round;stroke-miterlimit:1.5;stroke-dasharray:none;stroke-opacity:1"
   id="path13" /><path
   style="font-style:italic;font-size:2.11667px;font-family:Menlo;-inkscape-font-specification:'Menlo Italic';text-align:center;text-anchor:middle;fill:#ffffff;fill-opacity:1;stroke-width:0.352778"
   d="m 60.273761,83.369496 h 0.208773 l -0.266651,1.36736 h 0.745175 l -0.03411,0.175701 H 59.973 Z"
   id="path14"
   aria-label="L" /><path
   style="font-style:italic;font-size:2.11667px;font-family:Menlo;-inkscape-font-specification:'Menlo Italic';text-align:center;text-anchor:middle;fill:#ffffff;fill-opacity:1;stroke-width:0.352778"
   d="m 63.522819,84.183918 q 0.07442,0.01447 0.118856,0.06925 0.04548,0.05478 0.101286,0.237712 l 0.125057,0.421681 H 63.660279 L 63.550725,84.52292 q -0.04548,-0.161231 -0.10232,-0.211874 -0.05581,-0.05064 -0.169499,-0.05064 h -0.198438 l -0.127124,0.652158 h -0.209806 l 0.29869,-1.543061 h 0.429948 q 0.213941,0 0.33073,0.09302 0.117823,0.09198 0.117823,0.260449 0,0.189136 -0.107488,0.31316 -0.106453,0.124024 -0.290422,0.147795 z m -0.302824,-0.642856 -0.10542,0.547771 h 0.226343 q 0.168465,0 0.268718,-0.08785 0.101286,-0.08888 0.101286,-0.235645 0,-0.115755 -0.06511,-0.169499 -0.06511,-0.05478 -0.205672,-0.05478 z"
   id="path15"
   aria-label="R" /><path
   d="m 74.038973,87.64507 v 26.25811"
   style="clip-rule:evenodd;fill:none;fill-rule:evenodd;stroke:#d08c58;stroke-width:0.352778;stroke-linecap:square;stroke-linejoin:round;stroke-miterlimit:1.5;stroke-dasharray:none;stroke-opacity:1"
   id="path16" /><path
   style="font-style:italic;font-size:2.11667px;font-family:Menlo;-inkscape-font-specification:'Menlo Italic';text-align:center;text-anchor:middle;fill:#ffffff;fill-opacity:1;stroke-width:0.352778"
   d="m 72.376761,83.369496 h 0.208773 l -0.266651,1.36736 h 0.745175 l -0.03411,0.175701 H 72.076 Z"
   id="path17"
   aria-label="L" /><path
   style="font-style:italic;font-size:2.11667px;font-family:Menlo;-inkscape-font-specification:'Menlo Italic';text-align:center;text-anchor:middle;fill:#ffffff;fill-opacity:1;stroke-width:0.352778"
   d="m 75.625819,84.183918 q 0.07442,0.01447 0.118856,0.06925 0.04548,0.05478 0.101286,0.237712 l 0.125057,0.421681 H 75.763279 L 75.653725,84.52292 q -0.04548,-0.161231 -0.10232,-0.211874 -0.05581,-0.05064 -0.169499,-0.05064 h -0.198438 l -0.127124,0.652158 h -0.209806 l 0.29869,-1.543061 h 0.429948 q 0.213941,0 0.33073,0.09302 0.117823,0.09198 0.117823,0.260449 0,0.189136 -0.107488,0.31316 -0.106453,0.124024 -0.290422,0.147795 z m -0.302824,-0.642856 -0.10542,0.547771 h 0.226343 q 0.168465,0 0.268718,-0.08785 0.101286,-0.08888 0.101286,-0.235645 0,-0.115755 -0.06511,-0.169499 -0.06511,-0.05478 -0.205672,-0.05478 z"
   id="path18"
   aria-label="R" /><path
   d="M 114.35184,70.135228 H 101.65091"
   style="clip-rule:evenodd;fill:none;fill-rule:evenodd;stroke:#d08c58;stroke-width:0.35277778;stroke-linecap:square;stroke-linejoin:round;stroke-miterlimit:1.5;stroke-opacity:1;stroke-dasharray:none"
   id="path19" /><path
   style="font-style:italic;font-size:2.11667px;font-family:Menlo;-inkscape-font-specification:'Menlo Italic';text-align:center;text-anchor:middle;fill:#ffffff;fill-opacity:1;stroke-width:0.352778"
   d="m 84.579761,83.369496 h 0.208773 l -0.266651,1.36736 h 0.745175 l -0.03411,0.175701 H 84.279 Z"
   id="path20"
   aria-label="L" /><path
   style="font-style:italic;font-size:2.11667px;font-family:Menlo;-inkscape-font-specification:'Menlo Italic';text-align:center;text-anchor:middle;fill:#ffffff;fill-opacity:1;stroke-width:0.352778"
   d="m 88.029149,84.183918 q 0.07442,0.01447 0.118856,0.06925 0.04548,0.05478 0.101286,0.237712 l 0.125057,0.421681 H 88.166609 L 88.057055,84.52292 q -0.04548,-0.161231 -0.10232,-0.211874 -0.05581,-0.05064 -0.169499,-0.05064 h -0.198438 l -0.127124,0.652158 h -0.209806 l 0.29869,-1.543061 h 0.429948 q 0.213941,0 0.33073,0.09302 0.117823,0.09198 0.117823,0.260449 0,0.189136 -0.107488,0.31316 -0.106453,0.124024 -0.290422,0.147795 z m -0.302824,-0.642856 -0.10542,0.547771 h 0.226343 q 0.168465,0 0.268718,-0.08785 0.101286,-0.08888 0.101286,-0.235645 0,-0.115755 -0.06511,-0.169499 -0.06511,-0.05478 -0.205672,-0.05478 z"
   id="path21"
   aria-label="R" /><path
   d="M 10.109389,20.106988 V 79.449802"
   style="clip-rule:evenodd;fill:none;fill-rule:evenodd;stroke:#d08c58;stroke-width:0.352777;stroke-linecap:square;stroke-linejoin:round;stroke-miterlimit:1.5;stroke-dasharray:none;stroke-opacity:1"
   id="path22" /><path
   d="M 25.515973,20.093209 V 67.618216"
   style="clip-rule:evenodd;fill:none;fill-rule:evenodd;stroke:#d08c58;stroke-width:0.35277778;stroke-linecap:square;stroke-linejoin:round;stroke-miterlimit:1.5;stroke-opacity:1;stroke-dasharray:none"
   id="path23" /><path
   d="m 37.953592,20.093209 v 54.21713"
   style="clip-rule:evenodd;fill:none;fill-rule:evenodd;stroke:#d08c58;stroke-width:0.35277778;stroke-linecap:square;stroke-linejoin:round;stroke-miterlimit:1.5;stroke-opacity:1;stroke-dasharray:none"
   id="path32" /><path
   d="m 49.721934,20.093209 v 54.21713"
   style="clip-rule:evenodd;fill:none;fill-rule:evenodd;stroke:#d08c58;stroke-width:0.35277778;stroke-linecap:square;stroke-linejoin:round;stroke-miterlimit:1.5;stroke-opacity:1;stroke-dasharray:none"
   id="path33" /><path
   d="m 61.959545,20.093209 v 54.21713"
   style="clip-rule:evenodd;fill:none;fill-rule:evenodd;stroke:#d08c58;stroke-width:0.35277778;stroke-linecap:square;stroke-linejoin:round;stroke-miterlimit:1.5;stroke-opacity:1;stroke-dasharray:none"
   id="path34" /><path
   d="m 73.828887,20.093209 v 54.21713"
   style="clip-rule:evenodd;fill:none;fill-rule:evenodd;stroke:#d08c58;stroke-width:0.35277778;stroke-linecap:square;stroke-linejoin:round;stroke-miterlimit:1.5;stroke-opacity:1;stroke-dasharray:none"
   id="path35" /><path
   d="M 86.266171,20.093209 V 67.618216"
   style="clip-rule:evenodd;fill:none;fill-rule:evenodd;stroke:#d08c58;stroke-width:0.35277778;stroke-linecap:square;stroke-linejoin:round;stroke-miterlimit:1.5;stroke-opacity:1;stroke-dasharray:none"
   id="path36" /><rect
   style="opacity:1;fill:#3b3b3b;fill-opacity:1;stroke:#d08c58;stroke-width:0.352777;stroke-linejoin:round;stroke-opacity:1"
   id="rect66"
   width="71.077484"
   height="30.935278"
   x="20.071104"
   y="36.643578"
   rx="5"
   ry="5" /><path
   d="M 114.35184,38.773073 H 101.65091"
   style="clip-rule:evenodd;fill:none;fill-rule:evenodd;stroke:#d08c58;stroke-width:0.35277778;stroke-linecap:square;stroke-linejoin:round;stroke-miterlimit:1.5;stroke-opacity:1;stroke-dasharray:none"
   id="path37" /><path
   d="M 114.35184,114.41235 H 101.65091"
   style="clip-rule:evenodd;fill:none;fill-rule:evenodd;stroke:#d08c58;stroke-width:0.35277778;stroke-linecap:square;stroke-linejoin:round;stroke-miterlimit:1.5;stroke-opacity:1;stroke-dasharray:none"
   id="path38" /><path
   d="M 107.79243,84.926806 V 100.33494"
   style="clip-rule:evenodd;fill:none;fill-rule:evenodd;stroke:#d08c58;stroke-width:0.352778;stroke-linecap:square;stroke-linejoin:round;stroke-miterlimit:1.5;stroke-dasharray:none;stroke-opacity:1"
   id="path39" /><path
   d="M 107.62155,54.287409 V 70.048851"
   style="clip-rule:evenodd;fill:none;fill-rule:evenodd;stroke:#d08c58;stroke-width:0.352778;stroke-linecap:square;stroke-linejoin:round;stroke-miterlimit:1.5;stroke-dasharray:none;stroke-opacity:1"
   id="path40" /><path
   d="M 107.60683,17.515296 V 38.258218"
   style="clip-rule:evenodd;fill:none;fill-rule:evenodd;stroke:#d08c58;stroke-width:0.352778;stroke-linecap:square;stroke-linejoin:round;stroke-miterlimit:1.5;stroke-dasharray:none;stroke-opacity:1"
   id="path41" /><path
   d="M 86.308885,67.527522 V 114.62732"
   style="clip-rule:evenodd;fill:none;fill-rule:evenodd;stroke:#d08c58;stroke-width:0.352778;stroke-linecap:square;stroke-linejoin:round;stroke-miterlimit:1.5;stroke-dasharray:none;stroke-opacity:1"
   id="path42" /><rect
   style="opacity:1;fill:#3b3b3b;fill-opacity:1;stroke:#d08c58;stroke-width:0.352777;stroke-linejoin:round;stroke-opacity:1"
   id="rect67"
   width="11.416588"
   height="30.935278"
   x="4.6034641"
   y="36.643578"
   rx="5"
   ry="5" /><path
   d="M 90.657161,52.628734 H 4.4033781"
   style="clip-rule:evenodd;display:inline;fill:none;fill-rule:evenodd;stroke:#545454;stroke-width:0.352777;stroke-linecap:square;stroke-linejoin:round;stroke-miterlimit:1.5;stroke-dasharray:none;stroke-opacity:1"
   id="path46" /><path
   style="font-style:italic;font-size:3.175px;font-family:Menlo;-inkscape-font-specification:'Menlo Italic';text-align:center;text-anchor:middle;fill:#ffffff;fill-opacity:1;stroke-width:0.352778"
   d="m 4.3628505,100.41485 c 0,-0.1912 -0.032,-0.34468 -0.0961,-0.460437 -0.0651,-0.11575 -0.17055,-0.20877 -0.31626,-0.27905 -0.11885,-0.0558 -0.26045,-0.10128 -0.42478,-0.13642 -0.16536,-0.0362 -0.3167698,-0.0543 -0.4542297,-0.0543 -0.1819,0 -0.31213,0.0424 -0.39068,0.12712 -0.0785,0.0847 -0.1178171,0.22686 -0.1178171,0.426327 v 0.17673 l 1.7998868,0.35037 z m -2.0572367,-0.40618 c 0,-0.282147 0.0641,-0.492987 0.19224,-0.632504 0.128157,-0.14056 0.322457,-0.21084 0.582907,-0.21084 0.16743,0 0.3400297,0.0217 0.5177997,0.0651 0.17777,0.0434 0.33538,0.1018 0.47284,0.17518 0.1974,0.107487 0.33848,0.241847 0.42323,0.403077 0.0837,0.16019 0.12557,0.377227 0.12557,0.651117 v 0.46974 L 2.3056138,100.4784 Z m 1.4262667,-1.181311 -1.4262667,-0.27595 v -0.314707 l 1.4262667,0.277497 c 0.0135,0.002 0.0347,0.006 0.0636,0.0124 0.15917,0.031 0.26924,0.0465 0.33022,0.0465 0.0951,0 0.16639,-0.0279 0.21394,-0.0837 0.0475,-0.0568 0.0713,-0.142107 0.0713,-0.255797 0,-0.092 -0.0145,-0.17002 -0.0434,-0.2341 -0.03,-0.0641 -0.077,-0.119367 -0.14107,-0.165877 -0.0321,-0.0227 -0.0868,-0.0455 -0.16434,-0.0682 -0.0786,-0.0238 -0.18862,-0.0496 -0.33021,-0.0775 l -1.4262667,-0.27596 v -0.31471 l 1.4262667,0.27596 c 0.22635,0.0434 0.39275,0.0899 0.4992,0.13952 0.10542,0.0486 0.19068,0.11317 0.25579,0.19379 0.0579,0.0734 0.10231,0.1571 0.13333,0.251147 0.03,0.094 0.045,0.19585 0.045,0.3054 0,0.198437 -0.0465,0.351397 -0.13953,0.458887 -0.093,0.10645 -0.2253,0.15968 -0.39687,0.15968 -0.0383,0 -0.0899,-0.004 -0.15503,-0.0124 -0.0651,-0.009 -0.14575,-0.0233 -0.24185,-0.0419 z m 0.80615,-3.196694 c 0.0424,0.0868 0.0739,0.17467 0.0946,0.26355 0.0217,0.0879 0.0326,0.1788 0.0326,0.27285 0,0.23771 -0.0687,0.4222 -0.20619,0.55345 -0.13746,0.13023 -0.33021,0.19534 -0.57826,0.19534 -0.22737,0 -0.45268,-0.0362 -0.6759297,-0.10852 -0.2232401,-0.0724 -0.40566,-0.16743 -0.5472501,-0.28525 -0.1343569,-0.11059 -0.2335769,-0.23255 -0.297657,-0.36587 -0.0641,-0.13332 -0.0961,-0.28525 -0.0961,-0.45579 0,-0.0827 0.0109,-0.16484 0.0326,-0.24649 0.0217,-0.0816 0.0533,-0.16123 0.0946,-0.23875 l 0.320907,0.0636 c -0.0651,0.0662 -0.113707,0.13591 -0.1457269,0.20929 -0.0321,0.0734 -0.0481,0.15141 -0.0481,0.2341 0,0.0982 0.0212,0.18913 0.0636,0.27285 0.0413,0.0837 0.104897,0.16226 0.190687,0.23564 0.12713,0.10749 0.28991,0.1943 0.48834,0.26045 0.1984397,0.0651 0.3973997,0.0977 0.5968697,0.0977 0.1788,0 0.31574,-0.0403 0.41082,-0.12092 0.0951,-0.0806 0.14263,-0.19689 0.14263,-0.34882 0,-0.0879 -0.0165,-0.17828 -0.0496,-0.2713 -0.0331,-0.094 -0.0811,-0.18655 -0.14418,-0.2775 z m -2.2324167,-0.88677 v -0.31316 l 1.0030367,0.19689 -1.0030367,-1.15032 v -0.39377 l 0.959627,1.08985 1.3549597,-0.66352 v 0.33951 l -1.14877,0.55811 0.26045,0.29921 0.88832,0.17363 v 0.31471 z"
   id="text42"
   aria-label="DUCKING"
   sodipodi:nodetypes="scccsssccsscssccsccscccccscsccccccccccscscscccscsscssscccscccssscccccccccccccccccc"
   inkscape:transform-center-x="-5.7260573"
   inkscape:transform-center-y="-3.7515548" /><path
   style="font-style:italic;font-size:3.175px;font-family:Menlo;-inkscape-font-specification:'Menlo Italic';text-align:center;text-anchor:middle;fill:#ffffff;stroke-width:0.352778;fill-opacity:1"
   d="m 45.414089,12.599928 -0.06046,0.31781 q -0.125574,-0.09147 -0.260449,-0.137976 -0.134876,-0.04651 -0.279053,-0.04651 -0.255798,0 -0.417029,0.127124 -0.16123,0.127124 -0.16123,0.324012 0,0.11007 0.07596,0.178283 0.07596,0.06821 0.275952,0.130225 l 0.187586,0.06046 q 0.252697,0.07752 0.368969,0.20774 0.117823,0.128674 0.117823,0.328662 0,0.364319 -0.257349,0.578259 -0.257349,0.21239 -0.702283,0.21239 -0.16123,0 -0.31781,-0.03566 -0.155029,-0.03411 -0.310058,-0.103869 l 0.06356,-0.324012 q 0.151928,0.106971 0.306958,0.15813 0.156579,0.05116 0.330212,0.05116 0.255798,0 0.415479,-0.136426 0.15968,-0.136426 0.15968,-0.345715 0,-0.127124 -0.06821,-0.196887 -0.06821,-0.06976 -0.274402,-0.133325 l -0.15658,-0.05116 q -0.285253,-0.08992 -0.399975,-0.203089 -0.113172,-0.114721 -0.113172,-0.302307 0,-0.342614 0.255799,-0.559655 0.255798,-0.218592 0.668176,-0.218592 0.124024,0 0.26355,0.03101 0.141077,0.03101 0.288354,0.08992 z m 0.432532,-0.07906 h 1.767334 l -0.05116,0.26355 h -0.727087 l -0.396875,2.051038 h -0.31626 l 0.399976,-2.051038 h -0.727088 z m 2.145605,0 h 1.37201 l -0.05116,0.26355 h -1.0604 l -0.133325,0.685229 h 1.012341 l -0.04961,0.26355 h -1.013891 l -0.161231,0.838709 h 1.088306 l -0.05116,0.26355 h -1.403015 z m 2.565735,1.221631 q 0.111621,0.0217 0.178284,0.10387 0.06821,0.08216 0.151928,0.356567 l 0.187586,0.63252 H 50.76415 l -0.164331,-0.584461 q -0.06821,-0.241846 -0.153479,-0.31781 -0.08372,-0.07596 -0.254248,-0.07596 H 49.894436 L 49.70375,14.83546 h -0.31471 l 0.448035,-2.314588 h 0.644922 q 0.32091,0 0.496093,0.139527 0.176734,0.137976 0.176734,0.390673 0,0.283704 -0.161231,0.469739 -0.15968,0.186035 -0.435632,0.221692 z m -0.454236,-0.964282 -0.15813,0.821655 h 0.339515 q 0.252697,0 0.403076,-0.131775 0.151928,-0.133325 0.151928,-0.353467 0,-0.173632 -0.09767,-0.254248 -0.09767,-0.08216 -0.308508,-0.08216 z m 1.711524,-0.257349 h 1.372009 l -0.05116,0.26355 h -1.0604 l -0.133325,0.685229 h 1.012341 l -0.04961,0.26355 h -1.013892 l -0.16123,0.838709 h 1.088305 l -0.05116,0.26355 h -1.403015 z m 2.156458,2.105298 q 0.131774,0 0.243396,-0.07906 0.111621,-0.07906 0.184484,-0.226343 0.114722,-0.224792 0.186036,-0.544153 0.07131,-0.31936 0.07131,-0.613916 0,-0.220141 -0.08217,-0.324011 -0.08062,-0.10542 -0.251148,-0.10542 -0.131775,0 -0.241846,0.07906 -0.11007,0.07906 -0.182934,0.226343 -0.117822,0.227893 -0.189136,0.544153 -0.07131,0.31626 -0.07131,0.610815 0,0.221692 0.08062,0.327112 0.08217,0.10542 0.252698,0.10542 z m 1.00614,-1.372009 q 0,0.170532 -0.03566,0.37052 -0.03411,0.199988 -0.100769,0.410827 -0.04496,0.142627 -0.09767,0.255799 -0.05116,0.113171 -0.111621,0.204638 -0.136425,0.196888 -0.305407,0.291455 -0.168982,0.09302 -0.393775,0.09302 -0.311609,0 -0.461987,-0.190686 -0.150378,-0.190686 -0.150378,-0.587561 0,-0.172083 0.03256,-0.36897 0.03411,-0.198437 0.100769,-0.409277 0.04496,-0.142627 0.09612,-0.255798 0.05271,-0.113172 0.113171,-0.204639 0.136426,-0.196887 0.305408,-0.289905 0.168982,-0.09457 0.393774,-0.09457 0.31316,0 0.463538,0.190686 0.151929,0.189136 0.151929,0.584461 z m 2.575036,-0.733289 h 1.286743 l -0.05116,0.26355 h -0.486792 l -0.345715,1.787488 h 0.486792 l -0.05116,0.26355 h -1.286743 l 0.05116,-0.26355 h 0.485241 l 0.347266,-1.787488 h -0.486792 z m 1.816943,0 h 0.396875 l 0.409278,1.90531 0.37052,-1.90531 h 0.302307 l -0.451135,2.314588 h -0.396875 l -0.409278,-1.90531 -0.37207,1.90531 h -0.300757 z m 2.263427,0.257349 -0.168982,0.869714 h 0.362769 q 0.255798,0 0.407727,-0.147278 0.153479,-0.148828 0.153479,-0.395324 0,-0.167432 -0.09612,-0.246497 -0.09612,-0.08061 -0.297656,-0.08061 z m -0.26355,-0.257349 h 0.682129 q 0.319361,0 0.486792,0.142627 0.167432,0.142627 0.167432,0.412378 0,0.386023 -0.248047,0.607715 -0.248047,0.221692 -0.682129,0.221692 h -0.361218 l -0.181384,0.930176 h -0.31471 z m 1.559596,1.42627 0.275952,-1.42627 h 0.31471 l -0.277502,1.42627 q -0.0031,0.02015 -0.0124,0.06356 -0.04651,0.238745 -0.04651,0.330212 0,0.142627 0.08372,0.213941 0.08527,0.07131 0.255799,0.07131 0.137976,0 0.234094,-0.04341 0.09612,-0.04496 0.165881,-0.141077 0.03411,-0.04806 0.06821,-0.164331 0.03566,-0.117822 0.07751,-0.330212 l 0.275952,-1.42627 h 0.314709 l -0.275952,1.42627 q -0.06511,0.339514 -0.139526,0.499194 -0.07286,0.15813 -0.193787,0.255798 -0.110071,0.08682 -0.251147,0.133326 -0.141077,0.04496 -0.305408,0.04496 -0.297656,0 -0.458887,-0.139526 -0.15968,-0.139527 -0.15968,-0.396875 0,-0.05736 0.0124,-0.15503 0.01395,-0.09767 0.04186,-0.241845 z m 2.032434,-1.42627 h 1.767334 l -0.05116,0.26355 H 65.95082 l -0.396875,2.051038 h -0.31626 l 0.399975,-2.051038 h -0.727087 z m 3.39049,0.07906 -0.06046,0.31781 q -0.125574,-0.09147 -0.260449,-0.137976 -0.134876,-0.04651 -0.279053,-0.04651 -0.255798,0 -0.417029,0.127124 -0.16123,0.127124 -0.16123,0.324012 0,0.11007 0.07596,0.178283 0.07596,0.06821 0.275952,0.130225 l 0.187586,0.06046 q 0.252698,0.07752 0.36897,0.20774 0.117822,0.128674 0.117822,0.328662 0,0.364319 -0.257349,0.578259 -0.257348,0.21239 -0.702282,0.21239 -0.161231,0 -0.31781,-0.03566 -0.15503,-0.03411 -0.310059,-0.103869 l 0.06356,-0.324012 q 0.151929,0.106971 0.306958,0.15813 0.15658,0.05116 0.330212,0.05116 0.255799,0 0.415479,-0.136426 0.15968,-0.136426 0.15968,-0.345715 0,-0.127124 -0.06821,-0.196887 -0.06821,-0.06976 -0.274402,-0.133325 l -0.156579,-0.05116 q -0.285254,-0.08992 -0.399976,-0.203089 -0.113171,-0.114721 -0.113171,-0.302307 0,-0.342614 0.255798,-0.559655 0.255798,-0.218592 0.668176,-0.218592 0.124024,0 0.26355,0.03101 0.141077,0.03101 0.288355,0.08992 z"
   id="text44"
   aria-label="STEREO INPUTS" /><path
   style="font-style:italic;font-size:3.175px;font-family:Menlo;-inkscape-font-specification:'Menlo Italic';text-align:center;text-anchor:middle;fill:#ffffff;fill-opacity:1;stroke-width:0.352778"
   d="m 38.557143,81.117935 0.927075,-2.020031 h 0.333313 l -1.114661,2.314587 h -0.399975 l -0.227893,-2.314587 h 0.306958 z m 2.584338,0.21239 q -0.130224,0.06356 -0.26355,0.09457 -0.131774,0.03256 -0.272851,0.03256 -0.356568,0 -0.553455,-0.206189 -0.195337,-0.206189 -0.195337,-0.57826 0,-0.341064 0.108521,-0.675927 0.10852,-0.334864 0.285254,-0.547254 0.165881,-0.201538 0.365869,-0.297656 0.199988,-0.09612 0.455786,-0.09612 0.124023,0 0.246497,0.03256 0.122473,0.03256 0.238745,0.09457 l -0.06356,0.32091 q -0.09922,-0.09767 -0.20929,-0.145727 -0.110071,-0.04806 -0.234094,-0.04806 -0.147278,0 -0.272852,0.06356 -0.125573,0.06201 -0.235644,0.190686 -0.161231,0.190686 -0.260449,0.488342 -0.09767,0.297656 -0.09767,0.596863 0,0.268201 0.120923,0.410828 0.120923,0.142626 0.348816,0.142626 0.131775,0 0.271301,-0.04961 0.141077,-0.04961 0.277503,-0.144177 z m 1.5875,-1.971972 -0.564306,1.199927 h 0.666626 z m -0.148828,-0.260449 h 0.381372 l 0.257349,2.314587 h -0.311609 l -0.05426,-0.603064 h -0.806153 l -0.285254,0.603064 h -0.336413 z m 3.368787,0 h 1.286743 l -0.05116,0.263549 h -0.486792 l -0.345715,1.787488 h 0.486792 l -0.05116,0.26355 h -1.286743 l 0.05116,-0.26355 h 0.485241 l 0.347266,-1.787488 H 45.89778 Z m 1.816943,0 h 0.396875 l 0.409277,1.90531 0.37052,-1.90531 h 0.302308 l -0.451136,2.314587 h -0.396875 l -0.409277,-1.90531 -0.37207,1.90531 h -0.300757 z m 2.263427,0.257348 -0.168982,0.869715 h 0.362769 q 0.255798,0 0.407727,-0.147278 0.153479,-0.148828 0.153479,-0.395325 0,-0.167432 -0.09612,-0.246496 -0.09612,-0.08062 -0.297657,-0.08062 z m -0.26355,-0.257348 h 0.682129 q 0.319361,0 0.486792,0.142627 0.167432,0.142627 0.167432,0.412378 0,0.386022 -0.248047,0.607714 -0.248047,0.221692 -0.682129,0.221692 h -0.361218 l -0.181384,0.930176 h -0.31471 z m 1.559595,1.426269 0.275952,-1.426269 h 0.31471 l -0.277503,1.426269 q -0.0031,0.02015 -0.0124,0.06356 -0.04651,0.238745 -0.04651,0.330213 0,0.142627 0.08372,0.21394 0.08527,0.07131 0.255798,0.07131 0.137976,0 0.234095,-0.04341 0.09612,-0.04496 0.165881,-0.141076 0.03411,-0.04806 0.06821,-0.164331 0.03566,-0.117823 0.07751,-0.330213 l 0.275952,-1.426269 h 0.314709 l -0.275949,1.426276 q -0.06511,0.339514 -0.139526,0.499194 -0.07286,0.15813 -0.193787,0.255799 -0.110071,0.08682 -0.251147,0.133325 -0.141077,0.04496 -0.305408,0.04496 -0.297656,0 -0.458887,-0.139527 -0.15968,-0.139526 -0.15968,-0.396875 0,-0.05736 0.0124,-0.155029 0.01395,-0.09767 0.04186,-0.241847 z m 2.032434,-1.426269 h 1.767334 l -0.05116,0.263549 H 54.346875 L 53.95,81.412491 h -0.316258 l 0.399975,-2.051038 H 53.30663 Z m 3.39049,0.07906 -0.06046,0.31781 q -0.125574,-0.09147 -0.260449,-0.137976 -0.134876,-0.04651 -0.279053,-0.04651 -0.255798,0 -0.417029,0.127124 -0.16123,0.127124 -0.16123,0.324011 0,0.110071 0.07596,0.178284 0.07597,0.06821 0.275952,0.130224 l 0.187586,0.06046 q 0.252697,0.07751 0.368969,0.207739 0.117823,0.128674 0.117823,0.328662 0,0.364319 -0.257349,0.578259 -0.257349,0.212391 -0.702283,0.212391 -0.16123,0 -0.31781,-0.03566 -0.155029,-0.03411 -0.310058,-0.10387 l 0.06356,-0.324011 q 0.151928,0.10697 0.306958,0.15813 0.156579,0.05116 0.330212,0.05116 0.255798,0 0.415479,-0.136425 0.15968,-0.136426 0.15968,-0.345716 0,-0.127124 -0.06821,-0.196887 -0.06821,-0.06976 -0.274402,-0.133325 l -0.156579,-0.05116 q -0.285254,-0.08992 -0.399976,-0.203088 -0.113171,-0.114722 -0.113171,-0.302307 0,-0.342615 0.255798,-0.559656 0.255798,-0.218591 0.668176,-0.218591 0.124024,0 0.26355,0.03101 0.141077,0.031 0.288354,0.08992 z m 2.069642,2.530078 1.32085,-2.609143 h 0.296105 l -1.32395,2.609143 z m 4.370276,-2.609143 h 0.313159 l -0.399975,2.051037 h 1.117761 l -0.05116,0.26355 h -1.43092 z m 1.872753,0 h 1.37201 l -0.05116,0.263554 h -1.0604 l -0.133326,0.68523 h 1.012342 l -0.04961,0.26355 h -1.013891 l -0.161231,0.838708 h 1.088306 l -0.05116,0.26355 h -1.403015 z m 2.168861,2.020031 0.927076,-2.020031 H 68.4902 l -1.114661,2.314587 H 66.975563 L 66.74767,79.097904 h 0.306958 z m 1.654162,-2.020031 h 1.372009 l -0.05116,0.263549 h -1.060401 l -0.133325,0.68523 h 1.012342 l -0.04961,0.26355 h -1.013891 l -0.161231,0.838708 h 1.088306 l -0.05116,0.26355 h -1.403015 z m 1.950268,0 H 71.1474 l -0.399975,2.051037 h 1.117761 l -0.05116,0.26355 h -1.43092 z m 3.117638,0.07906 -0.06046,0.31781 q -0.125574,-0.09147 -0.260449,-0.137976 -0.134876,-0.04651 -0.279053,-0.04651 -0.255798,0 -0.417029,0.127124 -0.16123,0.127124 -0.16123,0.324011 0,0.110071 0.07596,0.178284 0.07596,0.06821 0.275952,0.130224 l 0.187586,0.06046 q 0.252697,0.07751 0.368969,0.207739 0.117823,0.128674 0.117823,0.328662 0,0.364319 -0.257349,0.578259 -0.257349,0.212391 -0.702283,0.212391 -0.16123,0 -0.31781,-0.03566 -0.155029,-0.03411 -0.310058,-0.10387 l 0.06356,-0.324011 q 0.151928,0.10697 0.306958,0.15813 0.156579,0.05116 0.330212,0.05116 0.255798,0 0.415479,-0.136425 0.15968,-0.136426 0.15968,-0.345716 0,-0.127124 -0.06821,-0.196887 -0.06821,-0.06976 -0.274402,-0.133325 l -0.15658,-0.05116 Q 72.703894,80.249771 72.589172,80.1366 72.476,80.021878 72.476,79.834293 q 0,-0.342615 0.255799,-0.559656 0.255798,-0.218591 0.668176,-0.218591 0.124024,0 0.26355,0.03101 0.141077,0.031 0.288354,0.08992 z"
   id="text45"
   aria-label="VCA INPUTS / LEVELS" /><path
   style="font-style:italic;font-size:3.175px;font-family:Menlo;-inkscape-font-specification:'Menlo Italic';text-align:center;text-anchor:middle;fill:#ffffff;fill-opacity:1;stroke-width:0.352778"
   d="m 53.433685,97.309068 -0.168982,0.869704 h 0.362768 c 0.170533,0 0.306442,-0.0491 0.407727,-0.14728 0.102319,-0.0992 0.153479,-0.230987 0.153479,-0.395317 0,-0.11162 -0.03204,-0.19379 -0.09612,-0.2465 -0.06408,-0.0537 -0.163299,-0.0806 -0.297656,-0.0806 z m -0.26355,-0.25735 h 0.682129 c 0.212907,0 0.375171,0.0475 0.486792,0.14263 0.111621,0.0951 0.167431,0.232537 0.167431,0.412367 0,0.25735 -0.08268,0.459927 -0.248046,0.607717 -0.165365,0.14779 -0.392741,0.221687 -0.682129,0.221687 h -0.361219 l -0.181384,0.930177 H 52.719 Z m 2.520776,0.26045 -0.564306,1.199911 h 0.666626 z m -0.148828,-0.26045 h 0.381372 l 0.257349,2.314578 h -0.311609 l -0.05426,-0.603067 h -0.806153 l -0.285254,0.603067 h -0.336413 z m 1.362708,0 h 0.396875 l 0.409277,1.905298 0.37052,-1.905298 h 0.302307 l -0.451135,2.314578 H 57.53576 l -0.409278,-1.905301 -0.37207,1.905301 h -0.300757 z"
   id="text46"
   aria-label="PANNING"
   sodipodi:nodetypes="ccssscsccssssscccccccccccccccccccccccccccccc" /><path
   style="font-style:italic;font-size:3.175px;font-family:Menlo;-inkscape-font-specification:'Menlo Italic';text-align:center;text-anchor:middle;fill:#ffffff;stroke-width:0.352778;fill-opacity:1"
   d="m 103.23417,104.46391 h 0.31316 l -0.39997,2.05103 h 1.11776 l -0.0512,0.26355 H 102.783 Z m 1.87276,0 h 1.37201 l -0.0512,0.26355 h -1.0604 l -0.13333,0.68523 h 1.01234 l -0.0496,0.26355 h -1.01389 l -0.16123,0.8387 h 1.08831 l -0.0512,0.26355 h -1.40302 z m 2.16886,2.02003 0.92707,-2.02003 h 0.33331 l -1.11466,2.31458 h -0.39997 l -0.2279,-2.31458 h 0.30696 z m 1.65416,-2.02003 h 1.37201 l -0.0512,0.26355 h -1.0604 l -0.13333,0.68523 h 1.01234 l -0.0496,0.26355 h -1.0139 l -0.16123,0.8387 h 1.08831 l -0.0512,0.26355 h -1.40302 z m 1.95027,0 h 0.31316 l -0.39998,2.05103 h 1.11776 l -0.0512,0.26355 h -1.43092 z"
   id="text49"
   aria-label="OUTPUT LEVEL"
   sodipodi:nodetypes="cccccccccccccccccccccccccccccccccccccccccccccccc" /><path
   d="m 17.474955,19.211953 h 0.313159 l -0.399976,2.051038 h 1.117761 l -0.05116,0.26355 h -1.430921 z"
   id="text68"
   style="font-style:italic;font-size:3.175px;font-family:Menlo;-inkscape-font-specification:'Menlo Italic';text-align:center;text-anchor:middle;fill:#ffffff;fill-opacity:1"
   aria-label="L" /><path
   d="m 18.050889,29.786997 q 0.111621,0.0217 0.178284,0.103869 0.06821,0.08217 0.151929,0.356568 l 0.187585,0.632519 h -0.311609 l -0.164331,-0.58446 q -0.06821,-0.241846 -0.153479,-0.31781 -0.08372,-0.07596 -0.254248,-0.07596 h -0.297656 l -0.190686,0.978234 h -0.31471 l 0.448035,-2.314587 h 0.644922 q 0.32091,0 0.496094,0.139526 0.176733,0.137976 0.176733,0.390674 0,0.283704 -0.16123,0.469739 -0.159681,0.186035 -0.435633,0.221692 z m -0.454236,-0.964282 -0.15813,0.821655 h 0.339515 q 0.252697,0 0.403076,-0.131775 0.151929,-0.133325 0.151929,-0.353467 0,-0.173633 -0.09767,-0.254248 -0.09767,-0.08216 -0.308508,-0.08216 z"
   id="text69"
   style="font-style:italic;font-size:3.175px;font-family:Menlo;-inkscape-font-specification:'Menlo Italic';text-align:center;text-anchor:middle;fill:#ffffff;fill-opacity:1"
   aria-label="R" /><path
   d="M 41.74465,3.4320244 41.444238,4.978182 h 0.644921 q 0.454753,0 0.724848,-0.261827 0.272851,-0.2645831 0.272851,-0.702799 0,-0.297656 -0.170876,-0.4382158 Q 42.745105,3.4320244 42.386815,3.4320244 Z M 41.276117,2.974516 h 1.212673 q 0.567751,0 0.865407,0.2535589 0.297656,0.2535588 0.297656,0.7331157 0,0.6862625 -0.440971,1.0803812 -0.440972,0.3941186 -1.212673,0.3941186 H 41.356044 L 41.033583,7.089335 H 40.4741 Z m 4.566816,2.1717866 q 0.198437,0.038585 0.316948,0.184657 0.121267,0.1460719 0.270095,0.633897 L 46.763461,7.089335 H 46.20949 L 45.917347,6.050295 Q 45.796079,5.6203474 45.644495,5.4852997 45.495667,5.3502521 45.192499,5.3502521 H 44.663333 L 44.324336,7.089335 h -0.559484 l 0.796506,-4.114819 h 1.146527 q 0.570507,0 0.881944,0.2480467 0.314192,0.2452906 0.314192,0.6945307 0,0.5043616 -0.286632,0.8350906 -0.283875,0.3307289 -0.774456,0.3941186 z m -0.80753,-1.7142782 -0.28112,1.4607193 h 0.60358 q 0.449241,0 0.71658,-0.2342663 0.270095,-0.2370224 0.270095,-0.6283849 0,-0.3086803 -0.173633,-0.4519962 Q 45.997273,3.4320244 45.622447,3.4320244 Z M 48.078109,2.974516 h 2.439126 l -0.09095,0.4685327 H 48.54113 l -0.237022,1.2181848 h 1.799716 l -0.08819,0.4685326 H 48.213161 L 47.92653,6.6208023 h 1.934764 l -0.09096,0.4685327 h -2.494247 z m 5.611368,0.1405598 -0.107487,0.5649953 q -0.223242,-0.1626084 -0.463021,-0.2452907 -0.239778,-0.082682 -0.496093,-0.082682 -0.454752,0 -0.741384,0.2259981 -0.286632,0.2259981 -0.286632,0.5760195 0,0.1956813 0.135048,0.3169486 0.135047,0.1212672 0.490581,0.2315102 l 0.333485,0.1074869 q 0.44924,0.1378037 0.655946,0.369314 0.209461,0.2287541 0.209461,0.5842877 0,0.6476775 -0.457508,1.0280157 -0.457508,0.3775822 -1.248502,0.3775822 -0.286631,0 -0.564995,-0.06339 -0.275607,-0.060634 -0.551215,-0.184657 L 50.71016,6.3451946 q 0.270095,0.1901691 0.545703,0.2811196 0.278363,0.09095 0.587044,0.09095 0.454752,0 0.738628,-0.2425345 0.283875,-0.2425345 0.283875,-0.6146046 0,-0.2259981 -0.121267,-0.3500214 Q 52.622876,5.386081 52.256318,5.273082 L 51.977954,5.182132 Q 51.470837,5.0222792 51.266887,4.8210858 51.065694,4.6171363 51.065694,4.2836513 q 0,-0.6090924 0.454752,-0.9949428 0.454752,-0.3886065 1.187868,-0.3886065 0.220486,0 0.468533,0.055121 0.250802,0.055122 0.51263,0.1598528 z m 3.398239,0 -0.107487,0.5649953 Q 56.756987,3.5174627 56.517208,3.4347804 56.27743,3.3520984 56.021115,3.3520984 q -0.454752,0 -0.741384,0.2259981 -0.286632,0.2259981 -0.286632,0.5760195 0,0.1956813 0.135048,0.3169486 0.135047,0.1212672 0.490581,0.2315102 l 0.333485,0.1074869 q 0.44924,0.1378037 0.655946,0.369314 0.209461,0.2287541 0.209461,0.5842877 0,0.6476775 -0.457508,1.0280157 -0.457508,0.3775822 -1.248502,0.3775822 -0.286631,0 -0.564995,-0.06339 -0.275607,-0.060634 -0.551215,-0.184657 l 0.112999,-0.5760195 q 0.270096,0.1901691 0.545703,0.2811196 0.278364,0.09095 0.587044,0.09095 0.454752,0 0.738628,-0.2425345 0.283875,-0.2425345 0.283875,-0.6146046 0,-0.2259981 -0.121267,-0.3500214 Q 56.021115,5.386081 55.654557,5.273082 L 55.376194,5.182132 Q 54.869076,5.0222792 54.665126,4.8210858 54.463933,4.6171363 54.463933,4.2836513 q 0,-0.6090924 0.454752,-0.9949428 0.454752,-0.3886065 1.187868,-0.3886065 0.220486,0 0.468533,0.055121 0.250803,0.055122 0.51263,0.1598528 z M 58.272827,2.974516 h 2.439126 l -0.09095,0.4685327 h -1.885154 l -0.237023,1.2181848 h 1.799717 l -0.08819,0.4685326 h -1.802472 l -0.286632,1.4910362 h 1.934764 l -0.09095,0.4685327 h -2.494247 z m 3.34312,3.6573106 q 0.509873,0 0.818554,-0.1708766 0.30868,-0.1736327 0.496093,-0.5622391 0.148828,-0.3169486 0.242535,-0.7551644 0.09646,-0.4409719 0.09646,-0.8075298 0,-0.485069 -0.225998,-0.6945307 -0.225998,-0.2094616 -0.75792,-0.2094616 H 61.97148 L 61.348607,6.6318266 Z M 62.338038,2.974516 q 0.752408,0 1.124478,0.3417532 0.374827,0.3417533 0.374827,1.036284 0,0.446484 -0.115756,0.9205288 Q 63.605832,5.7471268 63.410151,6.1136847 63.123519,6.6400949 62.693572,6.8660929 62.26638,7.089335 61.536021,7.089335 H 60.70093 l 0.802018,-4.114819 z m 6.074387,3.6573106 q 0.509874,0 0.818554,-0.1708766 0.30868,-0.1736327 0.496093,-0.5622391 0.148828,-0.3169486 0.242535,-0.7551644 0.09646,-0.4409719 0.09646,-0.8075298 0,-0.485069 -0.225999,-0.6945307 Q 69.614073,3.4320244 69.082151,3.4320244 H 68.767959 L 68.145086,6.6318266 Z M 69.134516,2.974516 q 0.752409,0 1.124479,0.3417532 0.374826,0.3417533 0.374826,1.036284 0,0.446484 -0.115755,0.9205288 Q 70.402311,5.7471268 70.206629,6.1136847 69.919998,6.6400949 69.49005,6.8660929 69.062858,7.089335 68.332499,7.089335 h -0.835091 l 0.802018,-4.114819 z m 2.100129,2.5355884 0.490581,-2.5355884 h 0.559483 l -0.493337,2.5355884 q -0.0055,0.035829 -0.02205,0.112999 -0.08268,0.4244355 -0.08268,0.5870439 0,0.2535588 0.148828,0.3803382 0.151584,0.1267794 0.454752,0.1267794 0.245291,0 0.416167,-0.07717 0.170877,-0.079926 0.2949,-0.2508028 0.06063,-0.085438 0.121267,-0.2921439 0.06339,-0.2094616 0.137804,-0.5870438 L 73.75094,2.974516 h 0.559483 l -0.490581,2.5355884 q -0.115755,0.6035803 -0.248046,0.8874559 -0.129536,0.2811196 -0.34451,0.4547523 -0.195681,0.1543401 -0.446484,0.2370224 -0.250803,0.079926 -0.542946,0.079926 -0.529167,0 -0.815798,-0.2480467 -0.283876,-0.2480467 -0.283876,-0.705555 0,-0.1019747 0.02205,-0.2756074 0.0248,-0.1736327 0.07441,-0.4299476 z m 5.683024,1.4331586 q -0.23151,0.1129991 -0.468532,0.1681206 -0.234267,0.057878 -0.485069,0.057878 -0.633897,0 -0.983919,-0.3665579 -0.347265,-0.3665578 -0.347265,-1.0280157 0,-0.6063363 0.192925,-1.2016484 0.192925,-0.595312 0.507118,-0.9728942 0.2949,-0.3582897 0.650433,-0.5291663 0.355534,-0.1708766 0.810286,-0.1708766 0.220486,0 0.438216,0.057878 0.21773,0.057878 0.424435,0.1681205 l -0.112999,0.5705074 q -0.176389,-0.1736327 -0.37207,-0.259071 -0.195681,-0.085438 -0.416167,-0.085438 -0.261827,0 -0.485069,0.1129991 -0.223242,0.1102429 -0.418923,0.3389971 -0.286632,0.3389971 -0.463021,0.8681634 -0.173633,0.5291663 -0.173633,1.0610886 0,0.4768009 0.214974,0.7303597 0.214974,0.2535588 0.620117,0.2535588 0.234266,0 0.482313,-0.088194 0.250803,-0.088194 0.493337,-0.256315 z M 78.494143,2.974516 H 79.05087 L 78.700849,4.7576961 80.745856,2.974516 h 0.700043 l -1.93752,1.70601 1.179599,2.408809 h -0.60358 L 79.092211,5.0470839 78.560289,5.5101044 78.251609,7.089335 h -0.559483 z"
   id="text70"
   style="font-style:italic;font-size:5.64444px;font-family:Menlo;-inkscape-font-specification:'Menlo Italic';text-align:center;text-anchor:middle;fill:#ffffff;fill-opacity:1;stroke-width:0.264583"
   aria-label="PRESSED DUCK" /><path
   d="m 103.55234,43.422217 -0.16899,0.869714 h 0.36277 q 0.2558,0 0.40773,-0.147278 0.15348,-0.148828 0.15348,-0.395324 0,-0.167432 -0.0961,-0.246497 -0.0961,-0.08062 -0.29766,-0.08062 z m -0.26355,-0.257349 h 0.68212 q 0.31937,0 0.4868,0.142627 0.16743,0.142627 0.16743,0.412378 0,0.386023 -0.24805,0.607715 -0.24805,0.221692 -0.68213,0.221692 h -0.36122 l -0.18138,0.930176 h -0.31471 z m 2.56883,1.221631 q 0.11162,0.0217 0.17829,0.10387 0.0682,0.08217 0.15192,0.356567 l 0.18759,0.63252 h -0.31161 l -0.16433,-0.584461 q -0.0682,-0.241846 -0.15348,-0.31781 -0.0837,-0.07596 -0.25425,-0.07596 h -0.29765 l -0.19069,0.978235 h -0.31471 l 0.44804,-2.314588 h 0.64492 q 0.32091,0 0.49609,0.139527 0.17673,0.137976 0.17673,0.390673 0,0.283704 -0.16123,0.469739 -0.15968,0.186035 -0.43563,0.221692 z m -0.45423,-0.964282 -0.15813,0.821655 h 0.33951 q 0.2527,0 0.40308,-0.131775 0.15192,-0.133325 0.15192,-0.353467 0,-0.173632 -0.0977,-0.254248 -0.0977,-0.08217 -0.30851,-0.08217 z m 1.71152,-0.257349 h 1.37201 l -0.0512,0.26355 h -1.0604 l -0.13333,0.68523 h 1.01234 l -0.0496,0.263549 h -1.01389 l -0.16123,0.838709 h 1.08831 l -0.0512,0.26355 h -1.40302 z m 3.1564,0.07906 -0.0605,0.31781 q -0.12557,-0.09147 -0.26045,-0.137976 -0.13487,-0.04651 -0.27905,-0.04651 -0.2558,0 -0.41703,0.127124 -0.16123,0.127124 -0.16123,0.324012 0,0.11007 0.076,0.178283 0.076,0.06821 0.27595,0.130225 l 0.18758,0.06046 q 0.2527,0.07751 0.36897,0.20774 0.11783,0.128674 0.11783,0.328662 0,0.364319 -0.25735,0.578259 -0.25735,0.21239 -0.70228,0.21239 -0.16124,0 -0.31781,-0.03566 -0.15503,-0.03411 -0.31006,-0.103869 l 0.0636,-0.324011 q 0.15193,0.10697 0.30696,0.158129 0.15658,0.05116 0.33021,0.05116 0.2558,0 0.41548,-0.136426 0.15968,-0.136426 0.15968,-0.345715 0,-0.127124 -0.0682,-0.196887 -0.0682,-0.06976 -0.2744,-0.133325 l -0.15658,-0.05116 q -0.28525,-0.08992 -0.39997,-0.203088 -0.11317,-0.114722 -0.11317,-0.302308 0,-0.342614 0.25579,-0.559655 0.2558,-0.218592 0.66818,-0.218592 0.12402,0 0.26355,0.03101 0.14108,0.03101 0.28836,0.08992 z m 1.91151,0 -0.0605,0.31781 q -0.12558,-0.09147 -0.26045,-0.137976 -0.13488,-0.04651 -0.27906,-0.04651 -0.2558,0 -0.41703,0.127124 -0.16123,0.127124 -0.16123,0.324012 0,0.11007 0.076,0.178283 0.076,0.06821 0.27595,0.130225 l 0.18759,0.06046 q 0.25269,0.07751 0.36897,0.20774 0.11782,0.128674 0.11782,0.328662 0,0.364319 -0.25735,0.578259 -0.25735,0.21239 -0.70228,0.21239 -0.16123,0 -0.31781,-0.03566 -0.15503,-0.03411 -0.31006,-0.103869 l 0.0636,-0.324011 q 0.15193,0.10697 0.30696,0.158129 0.15658,0.05116 0.33021,0.05116 0.2558,0 0.41548,-0.136426 0.15968,-0.136426 0.15968,-0.345715 0,-0.127124 -0.0682,-0.196887 -0.0682,-0.06976 -0.27441,-0.133325 l -0.15658,-0.05116 q -0.28525,-0.08992 -0.39997,-0.203088 -0.11317,-0.114722 -0.11317,-0.302308 0,-0.342614 0.2558,-0.559655 0.25579,-0.218592 0.66817,-0.218592 0.12403,0 0.26355,0.03101 0.14108,0.03101 0.28836,0.08992 z"
   id="text71"
   style="font-style:italic;font-size:3.175px;font-family:Menlo;-inkscape-font-specification:'Menlo Italic';text-align:center;text-anchor:middle;fill:#ffffff;stroke-width:0.264583;fill-opacity:1"
   aria-label="PRESS" /><path
   d="m 101.43518,119.19203 h 0.31316 l -0.39998,2.05104 h 1.11776 l -0.0512,0.26355 H 100.984 Z m 12.08453,1.22163 q 0.11162,0.0217 0.17829,0.10387 0.0682,0.0822 0.15193,0.35657 l 0.18758,0.63252 h -0.31161 l -0.16433,-0.58446 q -0.0682,-0.24185 -0.15348,-0.31781 -0.0837,-0.076 -0.25425,-0.076 h -0.29765 l -0.19069,0.97824 h -0.31471 l 0.44804,-2.31459 h 0.64492 q 0.32091,0 0.49609,0.13953 0.17674,0.13797 0.17674,0.39067 0,0.2837 -0.16124,0.46974 -0.15968,0.18603 -0.43563,0.22169 z m -0.45423,-0.96428 -0.15813,0.82165 h 0.33951 q 0.2527,0 0.40308,-0.13177 0.15193,-0.13333 0.15193,-0.35347 0,-0.17363 -0.0977,-0.25425 -0.0977,-0.0822 -0.30851,-0.0822 z"
   id="text72"
   style="font-style:italic;font-size:3.175px;font-family:Menlo;-inkscape-font-specification:'Menlo Italic';text-align:center;text-anchor:middle;fill:#ffffff;stroke-width:0.14111111;fill-opacity:1;stroke:#ffffff;stroke-opacity:1;stroke-dasharray:none"
   aria-label="L     R" /><path
   d="M 114.35184,100.57264 H 101.65091"
   style="clip-rule:evenodd;fill:none;fill-rule:evenodd;stroke:#d08c58;stroke-width:0.35277778;stroke-linecap:square;stroke-linejoin:round;stroke-miterlimit:1.5;stroke-opacity:1;stroke-dasharray:none"
   id="path72" /><path
   d="m 104.19213,75.388004 h 1.3627 l -0.0512,0.263549 h -1.04799 l -0.13333,0.682129 h 0.94878 l -0.0496,0.26355 h -0.95033 l -0.21549,1.105359 h -0.31471 z m 1.85105,0 h 1.37201 l -0.0512,0.263549 h -1.0604 l -0.13333,0.68523 h 1.01234 l -0.0496,0.26355 h -1.01389 l -0.16123,0.838708 h 1.08831 l -0.0512,0.26355 h -1.40302 z m 1.91151,0 h 1.37201 l -0.0512,0.263549 h -1.0604 l -0.13333,0.68523 h 1.01234 l -0.0496,0.26355 h -1.01389 l -0.16123,0.838708 h 1.08831 l -0.0512,0.26355 h -1.40302 z m 1.8805,2.057238 q 0.28681,0 0.46044,-0.09612 0.17363,-0.09767 0.27905,-0.31626 0.0837,-0.178283 0.13643,-0.42478 0.0543,-0.248047 0.0543,-0.454236 0,-0.272851 -0.12713,-0.390674 -0.12712,-0.117822 -0.42633,-0.117822 h -0.17673 l -0.35037,1.79989 z m 0.40618,-2.057238 q 0.42323,0 0.63252,0.192236 0.21084,0.192236 0.21084,0.58291 0,0.251148 -0.0651,0.517798 -0.0651,0.26665 -0.17519,0.472839 -0.16123,0.296106 -0.40307,0.42323 -0.2403,0.125574 -0.65113,0.125574 h -0.46973 l 0.45113,-2.314587 z"
   id="text73"
   style="font-style:italic;font-size:3.175px;font-family:Menlo;-inkscape-font-specification:'Menlo Italic';text-align:center;text-anchor:middle;fill:#ffffff;stroke-width:0.264583;fill-opacity:1"
   aria-label="FEED" /><text
   xml:space="preserve"
   style="font-style:italic;font-size:3.175px;font-family:Menlo;-inkscape-font-specification:'Menlo Italic';text-align:center;text-anchor:middle;display:none;opacity:1;fill:#ffffff;fill-opacity:1;stroke-width:0.264583"
   x="107.42139"
   y="77.702591"
   id="text74"><tspan
     sodipodi:role="line"
     id="tspan73"
     style="stroke-width:0.264583"
     x="107.42139"
     y="77.702591">FEED</tspan></text><g
   id="g3"
   transform="matrix(0.3520232,0,0,0.3520232,96.574389,63.293208)"
   style="clip-rule:evenodd;fill-rule:evenodd;stroke:#d08c58;stroke-linecap:square;stroke-linejoin:round;stroke-miterlimit:1.5;stroke-opacity:1">
            <path
   id="path1"
   serif:id="path40"
   d="M 44.843,92.605 42.539,92.03 43.112,89.722"
   style="fill:none;stroke:#d08c58;stroke-width:0.7px;stroke-linecap:butt;stroke-linejoin:miter;stroke-miterlimit:10;stroke-opacity:1" />
            <path
   id="path3"
   serif:id="path41"
   d="M 18.355,91.132 C 13.01,87.25 9.539,80.994 9.539,73.942 c 0,-11.767 9.668,-21.32 21.577,-21.32 11.909,0 21.578,9.553 21.578,21.32 0,6.065 -2.569,11.542 -6.689,15.426 -1.059,0.998 -2.22,1.892 -3.466,2.662"
   style="fill:none;stroke:#d08c58;stroke-width:0.7px;stroke-linecap:butt;stroke-opacity:1" />
        </g><path
   d="m 103.25687,95.364186 -1.05572,1.490821"
   style="clip-rule:evenodd;fill:none;fill-rule:evenodd;stroke:#d08c58;stroke-width:0.264017px;stroke-linecap:square;stroke-linejoin:round;stroke-miterlimit:1.5;stroke-opacity:1"
   id="path4" /><g
   id="g44"
   transform="matrix(0.3520232,0,0,0.3520232,96.574389,33.230821)"
   style="clip-rule:evenodd;fill-rule:evenodd;stroke:#d08c58;stroke-linecap:square;stroke-linejoin:round;stroke-miterlimit:1.5;stroke-opacity:1">
            <path
   id="path43"
   serif:id="path40"
   d="M 44.843,92.605 42.539,92.03 43.112,89.722"
   style="fill:none;stroke:#d08c58;stroke-width:0.7px;stroke-linecap:butt;stroke-linejoin:miter;stroke-miterlimit:10;stroke-opacity:1" />
            <path
   id="path44"
   serif:id="path41"
   d="M 18.355,91.132 C 13.01,87.25 9.539,80.994 9.539,73.942 c 0,-11.767 9.668,-21.32 21.577,-21.32 11.909,0 21.578,9.553 21.578,21.32 0,6.065 -2.569,11.542 -6.689,15.426 -1.059,0.998 -2.22,1.892 -3.466,2.662"
   style="fill:none;stroke:#d08c58;stroke-width:0.7px;stroke-linecap:butt;stroke-opacity:1" />
        </g><path
   d="m 103.25687,65.301799 -1.05572,1.490821"
   style="clip-rule:evenodd;fill:none;fill-rule:evenodd;stroke:#d08c58;stroke-width:0.264017px;stroke-linecap:square;stroke-linejoin:round;stroke-miterlimit:1.5;stroke-opacity:1"
   id="path45" /><path
   d="M 20.128795,52.628736 H 16.154711"
   style="clip-rule:evenodd;fill:none;fill-rule:evenodd;stroke:#d08c58;stroke-width:0.352777;stroke-linecap:square;stroke-linejoin:round;stroke-miterlimit:1.5;stroke-dasharray:none;stroke-opacity:1"
   id="path68" /><path
   d="m 8.0894286,13.085505 -0.060462,0.31781 q -0.1255737,-0.09147 -0.2604492,-0.137976 -0.1348755,-0.04651 -0.2790527,-0.04651 -0.2557984,0 -0.4170288,0.127124 -0.1612305,0.127124 -0.1612305,0.324011 0,0.110071 0.075964,0.178283 0.075964,0.06821 0.2759521,0.130225 l 0.1875855,0.06046 q 0.2526977,0.07752 0.3689697,0.20774 0.1178222,0.128674 0.1178222,0.328662 0,0.364319 -0.2573486,0.578259 -0.2573486,0.21239 -0.7022827,0.21239 -0.1612305,0 -0.31781,-0.03566 -0.1550293,-0.03411 -0.3100586,-0.10387 l 0.063562,-0.324011 q 0.1519287,0.10697 0.306958,0.15813 0.1565796,0.05116 0.3302124,0.05116 0.2557983,0 0.4154785,-0.136426 0.1596802,-0.136425 0.1596802,-0.345715 0,-0.127124 -0.068213,-0.196887 -0.068213,-0.06976 -0.2744019,-0.133325 L 7.1266966,14.248225 Q 6.8414427,14.158308 6.7267211,14.045137 6.6135497,13.930415 6.6135497,13.74283 q 0,-0.342615 0.2557983,-0.559656 0.2557983,-0.218592 0.6681763,-0.218592 0.1240234,0 0.2635498,0.03101 0.1410766,0.03101 0.2883545,0.08992 z m 0.6697265,-0.07906 h 1.2867429 l -0.051159,0.26355 h -0.486792 l -0.3457153,1.787488 h 0.4867919 l -0.05116,0.26355 H 8.3111204 l 0.05116,-0.26355 H 8.8475218 L 9.1947874,13.26999 h -0.486792 z m 1.8774049,2.057239 q 0.286804,0 0.460437,-0.09612 0.173633,-0.09767 0.279053,-0.31626 0.08372,-0.178283 0.136425,-0.42478 0.05426,-0.248047 0.05426,-0.454236 0,-0.272851 -0.127124,-0.390674 -0.127124,-0.117822 -0.426331,-0.117822 h -0.176733 l -0.350367,1.79989 z m 0.406177,-2.057239 q 0.42323,0 0.632519,0.192237 0.21084,0.192236 0.21084,0.58291 0,0.251147 -0.06511,0.517798 -0.06511,0.26665 -0.175183,0.472839 -0.161231,0.296106 -0.403077,0.42323 -0.240295,0.125574 -0.651123,0.125574 h -0.469738 l 0.451135,-2.314588 z m 1.53634,0 h 1.372009 l -0.05116,0.26355 h -1.0604 l -0.133325,0.68523 h 1.012341 l -0.04961,0.263549 h -1.013892 l -0.16123,0.838709 h 1.088305 l -0.05116,0.26355 h -1.403015 z"
   id="text1"
   style="font-style:italic;font-size:3.175px;font-family:Menlo;-inkscape-font-specification:'Menlo Italic';text-align:center;text-anchor:middle;fill:#ffffff;stroke-width:0.141111"
   aria-label="SIDE" /><path
   d="m 51.333064,118.37427 h 0.417028 l 0.170533,1.17202 0.641821,-1.17202 h 0.418579 l -0.451135,2.31459 h -0.288355 l 0.399976,-2.05724 -0.672827,1.23248 h -0.218592 l -0.178283,-1.23248 -0.396875,2.05724 h -0.288355 z m 1.734777,1.42627 0.275953,-1.42627 h 0.314709 l -0.277502,1.42627 q -0.0031,0.0201 -0.0124,0.0636 -0.04651,0.23875 -0.04651,0.33021 0,0.14263 0.08372,0.21394 0.08527,0.0713 0.255799,0.0713 0.137976,0 0.234094,-0.0434 0.09612,-0.045 0.165881,-0.14108 0.03411,-0.0481 0.06821,-0.16433 0.03566,-0.11782 0.07751,-0.33021 l 0.275952,-1.42627 h 0.314709 l -0.275952,1.42627 q -0.06511,0.33951 -0.139526,0.49919 -0.07286,0.15813 -0.193787,0.2558 -0.110071,0.0868 -0.251147,0.13333 -0.141077,0.045 -0.305408,0.045 -0.297656,0 -0.458887,-0.13953 -0.15968,-0.13953 -0.15968,-0.39688 0,-0.0574 0.0124,-0.15502 0.01395,-0.0977 0.04186,-0.24185 z m 2.032434,-1.42627 h 1.767334 l -0.05116,0.26355 h -0.727088 l -0.396875,2.05104 h -0.316259 l 0.399975,-2.05104 h -0.727087 z m 2.145606,0 h 1.372009 l -0.05116,0.26355 h -1.0604 l -0.133325,0.68523 h 1.012341 l -0.04961,0.26355 h -1.013892 l -0.161231,0.83871 h 1.088306 l -0.05116,0.26355 h -1.403015 z m 3.156396,0.0791 -0.06046,0.31781 q -0.125574,-0.0915 -0.260449,-0.13797 -0.134876,-0.0465 -0.279053,-0.0465 -0.255798,0 -0.417029,0.12712 -0.16123,0.12713 -0.16123,0.32402 0,0.11007 0.07596,0.17828 0.07596,0.0682 0.275952,0.13022 l 0.187586,0.0605 q 0.252697,0.0775 0.368969,0.20774 0.117823,0.12868 0.117823,0.32867 0,0.36432 -0.257349,0.57826 -0.257349,0.21239 -0.702283,0.21239 -0.16123,0 -0.31781,-0.0357 -0.155029,-0.0341 -0.310058,-0.10387 l 0.06356,-0.32401 q 0.151928,0.10697 0.306958,0.15813 0.156579,0.0512 0.330212,0.0512 0.255798,0 0.415478,-0.13643 0.159681,-0.13642 0.159681,-0.34571 0,-0.12713 -0.06821,-0.19689 -0.06821,-0.0698 -0.274402,-0.13333 l -0.15658,-0.0512 q -0.285254,-0.0899 -0.399975,-0.20308 -0.113172,-0.11473 -0.113172,-0.30231 0,-0.34262 0.255799,-0.55966 0.255798,-0.21859 0.668176,-0.21859 0.124023,0 0.26355,0.031 0.141076,0.031 0.288354,0.0899 z"
   id="text2"
   style="font-style:italic;font-size:3.175px;font-family:Menlo;-inkscape-font-specification:'Menlo Italic';text-align:center;text-anchor:middle;fill:#ffffff;stroke-width:0.141111"
   aria-label="MUTES" /></svg>
