<?xml version="1.0" encoding="UTF-8" standalone="no"?>
<!-- Created with Inkscape (http://www.inkscape.org/) -->

<svg
   width="20.32mm"
   height="128.5mm"
   viewBox="0 0 20.320001 128.50002"
   version="1.1"
   id="svg8"
   inkscape:version="1.2 (dc2aeda, 2022-05-15)"
   sodipodi:docname="Rat-dark.svg"
   xml:space="preserve"
   xmlns:inkscape="http://www.inkscape.org/namespaces/inkscape"
   xmlns:sodipodi="http://sodipodi.sourceforge.net/DTD/sodipodi-0.dtd"
   xmlns="http://www.w3.org/2000/svg"
   xmlns:svg="http://www.w3.org/2000/svg"
   xmlns:rdf="http://www.w3.org/1999/02/22-rdf-syntax-ns#"
   xmlns:cc="http://creativecommons.org/ns#"
   xmlns:dc="http://purl.org/dc/elements/1.1/"
   xmlns:serif="http://www.serif.com/"><defs
     id="defs2"><clipPath
       id="_clip1">
            <rect
   x="1625"
   y="1115"
   width="205"
   height="598"
   id="rect6630" />
        </clipPath></defs><sodipodi:namedview
     id="base"
     pagecolor="#ffffff"
     bordercolor="#666666"
     borderopacity="1.0"
     inkscape:pageopacity="0.0"
     inkscape:pageshadow="2"
     inkscape:zoom="1.3747502"
     inkscape:cx="26.91398"
     inkscape:cy="245.86285"
     inkscape:document-units="mm"
     inkscape:current-layer="svg8"
     showgrid="false"
     units="mm"
     inkscape:snap-bbox="true"
     inkscape:snap-page="true"
     inkscape:bbox-nodes="false"
     inkscape:snap-bbox-edge-midpoints="false"
     inkscape:window-width="1512"
     inkscape:window-height="916"
     inkscape:window-x="300"
     inkscape:window-y="38"
     inkscape:window-maximized="0"
     inkscape:snap-bbox-midpoints="true"
     inkscape:snap-nodes="false"
     inkscape:showpageshadow="2"
     inkscape:pagecheckerboard="0"
     inkscape:deskcolor="#d1d1d1" /><metadata
     id="metadata5"><rdf:RDF><cc:Work
         rdf:about=""><dc:format>image/svg+xml</dc:format><dc:type
           rdf:resource="http://purl.org/dc/dcmitype/StillImage" /></cc:Work></rdf:RDF></metadata><rect
     id="rect1"
     x="4.7184479e-16"
     y="-0.72158051"
     width="20.32"
     height="129.94316"
     style="clip-rule:evenodd;fill:#202020;fill-rule:evenodd;stroke-width:0.317257;stroke-linejoin:round;stroke-miterlimit:1.5" /><rect
     style="fill:#3b3b3b;fill-opacity:1;stroke:#d08c58;stroke-width:0.352777;stroke-linejoin:round;stroke-dasharray:none;stroke-opacity:1"
     id="rect2036"
     width="14.074518"
     height="22.185074"
     x="3.1227407"
     y="96.859833"
     rx="4"
     ry="4" /><rect
     style="clip-rule:evenodd;display:none;fill:#3b3b3b;fill-opacity:1;fill-rule:evenodd;stroke:#d08c59;stroke-width:0.351999;stroke-linejoin:round;stroke-miterlimit:1.5;stroke-dasharray:none;stroke-opacity:1"
     id="rect2"
     width="17.226421"
     height="111.5742"
     x="19.288095"
     y="11.274678"
     rx="4"
     ry="4" /><g
     transform="matrix(0.13694857,0,0,0.17250733,-404.92521,-150.33416)"
     id="g761"
     style="clip-rule:evenodd;fill-rule:evenodd;stroke-width:1.53375;stroke-linejoin:round;stroke-miterlimit:1.5">
        
    </g><g
     aria-label="RAT"
     id="text799"
     style="font-style:italic;font-size:5.64444px;font-family:Menlo;-inkscape-font-specification:'Menlo Italic';text-align:center;text-anchor:middle;fill:none;stroke:#000000;stroke-width:0.352777;stroke-linecap:round;stroke-linejoin:round;paint-order:fill markers stroke"><path
       d="m 7.0194535,4.0448931 q 0.1984374,0.038585 0.3169486,0.184657 0.1212673,0.146072 0.2700953,0.6338971 l 0.333485,1.1244783 H 7.3860114 L 7.0938676,4.9488855 Q 6.9726003,4.5189379 6.8210162,4.3838903 6.6721882,4.2488426 6.36902,4.2488426 H 5.8398537 L 5.5008566,5.9879255 H 4.9413735 L 5.737879,1.8731066 h 1.1465269 q 0.5705074,0 0.8819438,0.2480467 0.3141925,0.2452906 0.3141925,0.6945307 0,0.5043616 -0.2866318,0.8350905 Q 7.5100348,3.9815034 7.0194535,4.0448931 Z M 6.2119238,2.3306149 5.9308042,3.7913343 h 0.6035803 q 0.4492401,0 0.7165793,-0.2342663 0.2700953,-0.2370224 0.2700953,-0.6283849 0,-0.3086804 -0.1736327,-0.4519962 -0.1736327,-0.146072 -0.5484588,-0.146072 z"
       style="fill:#ffffff;stroke:none;stroke-width:0.352778"
       id="path334" /><path
       d="M 10.332255,2.3361271 9.3290438,4.4693286 H 10.514156 Z M 10.067672,1.8731066 h 0.677994 l 0.457508,4.1148189 H 10.649203 L 10.552741,4.9158126 H 9.1195822 L 8.6124645,5.9879255 H 8.0143964 Z"
       style="fill:#ffffff;stroke:none;stroke-width:0.352778"
       id="path336" /><path
       d="m 12.236702,1.8731066 h 3.141925 l -0.09095,0.4685326 h -1.292598 l -0.705555,3.6462863 h -0.56224 l 0.711068,-3.6462863 h -1.292599 z"
       style="fill:#ffffff;stroke:none;stroke-width:0.352778"
       id="path338" /></g><g
     id="g2489"
     transform="translate(-25.400002,-0.64808971)"
     style="display:inline"
     inkscape:label="logo"><path
       id="path128"
       d="m 32.37478,125.9342 c 0.05984,0.1268 0.07943,0.25396 0.05842,0.38219 h -0.419235 c -0.0064,-0.0983 -0.02565,-0.1724 -0.05842,-0.22227 -0.05735,-0.089 -0.160997,-0.13357 -0.310597,-0.13357 -0.152449,0 -0.28602,0.0627 -0.4,0.18843 -0.114337,0.12538 -0.195192,0.30276 -0.242921,0.5325 -0.04809,0.22974 -0.03776,0.40143 0.0317,0.51612 0.0691,0.11433 0.175246,0.17133 0.318434,0.17133 0.147106,0 0.269635,-0.0492 0.367587,-0.14747 0.05378,-0.0524 0.105432,-0.13179 0.155298,-0.23722 h 0.415317 c -0.08264,0.22333 -0.213357,0.40463 -0.391452,0.54461 -0.178451,0.13927 -0.384328,0.20944 -0.617632,0.20944 -0.288513,0 -0.495815,-0.0944 -0.621906,-0.28317 -0.125379,-0.18985 -0.153162,-0.44986 -0.08442,-0.78076 0.07409,-0.35726 0.225468,-0.63295 0.453429,-0.82636 0.198753,-0.16848 0.424221,-0.2529 0.676403,-0.2529 0.337667,0 0.560642,0.11327 0.669992,0.3391 z"
       style="clip-rule:evenodd;fill:#ffffff;fill-rule:nonzero;stroke-width:0.356189;stroke-linejoin:round;stroke-miterlimit:1.5" /><path
       id="path129"
       d="m 33.303009,127.18869 0.764026,-1.55441 h 0.435619 l -1.110954,2.04667 h -0.396083 l -0.252181,-2.04667 h 0.448442 z"
       style="clip-rule:evenodd;fill:#ffffff;fill-rule:nonzero;stroke-width:0.356189;stroke-linejoin:round;stroke-miterlimit:1.5" /><path
       id="path130"
       d="m 36.085915,126.18139 -0.05877,0.27925 h -0.253963 l -0.253607,1.22031 h -0.386466 l 0.253606,-1.22031 h -0.216919 l 0.05842,-0.27925 h 0.212645 l 0.01995,-0.0972 c 0.03419,-0.16207 0.08406,-0.27355 0.149955,-0.33482 0.07551,-0.0905 0.220482,-0.13606 0.43562,-0.13606 0.02458,0 0.04666,7.1e-4 0.06625,0.002 0.01959,0.001 0.04666,0.004 0.08121,0.006 l -0.06803,0.32271 c -0.02102,-0.003 -0.05699,-0.005 -0.107569,-0.006 -0.05093,-10e-4 -0.08905,0.01 -0.113981,0.0345 -0.02493,0.0246 -0.03989,0.0516 -0.04559,0.0812 -0.0064,0.0299 -0.01532,0.0723 -0.02743,0.12787 z"
       style="clip-rule:evenodd;fill:#ffffff;fill-rule:nonzero;stroke-width:0.356189;stroke-linejoin:round;stroke-miterlimit:1.5" /><path
       id="path131"
       d="m 36.992772,127.46759 c -0.0043,0.005 -0.01638,0.0185 -0.03562,0.0417 -0.01888,0.0232 -0.04025,0.0431 -0.06376,0.0609 -0.07266,0.0556 -0.139626,0.0933 -0.200891,0.11363 -0.06091,0.0203 -0.129653,0.0306 -0.206234,0.0306 -0.219412,0 -0.350846,-0.0801 -0.393232,-0.2415 -0.02386,-0.0887 -0.01745,-0.21977 0.01888,-0.39287 l 0.189492,-0.91256 h 0.397151 l -0.189136,0.91256 c -0.01817,0.0862 -0.02173,0.15066 -0.01104,0.19447 0.01923,0.0769 0.0805,0.11541 0.183794,0.11541 0.132502,0 0.234728,-0.0549 0.306678,-0.1642 0.03811,-0.0591 0.06732,-0.13749 0.08727,-0.23438 l 0.171327,-0.82386 h 0.393233 l -0.314515,1.51345 H 36.94932 Z"
       style="clip-rule:evenodd;fill:#ffffff;fill-rule:nonzero;stroke-width:0.356189;stroke-linejoin:round;stroke-miterlimit:1.5" /><path
       id="path132"
       d="m 38.838901,126.76091 c 0.0171,-0.0798 0.01959,-0.14105 0.0068,-0.18344 -0.02173,-0.078 -0.08584,-0.11683 -0.193055,-0.11683 -0.13179,0 -0.234016,0.057 -0.306323,0.17062 -0.03847,0.0605 -0.06696,0.13749 -0.08584,0.23081 l -0.170259,0.81888 h -0.386465 l 0.314159,-1.51096 h 0.374711 l -0.04631,0.22084 c 0.0659,-0.0773 0.125023,-0.13357 0.177026,-0.16777 0.09225,-0.0613 0.200179,-0.0915 0.322352,-0.0915 0.153517,0 0.270347,0.0406 0.350846,0.12289 0.08014,0.0819 0.100801,0.21763 0.06162,0.40748 l -0.212289,1.01906 h -0.397507 z"
       style="clip-rule:evenodd;fill:#ffffff;fill-rule:nonzero;stroke-width:0.356189;stroke-linejoin:round;stroke-miterlimit:1.5" /><path
       id="path133"
       d="m 39.878973,127.20543 -0.09759,0.47552 h -0.381484 l 0.424934,-2.0399 h 0.381122 l -0.230454,1.10312 0.601959,-0.5699 h 0.480856 l -0.640072,0.57952 0.346928,0.92716 h -0.468389 l -0.220125,-0.64684 z"
       style="clip-rule:evenodd;fill:#ffffff;fill-rule:nonzero;stroke-width:0.356189;stroke-linejoin:round;stroke-miterlimit:1.5" /><path
       id="path134"
       d="m 23.093558,126.66688 h 6.62227"
       style="clip-rule:evenodd;fill:none;fill-rule:evenodd;stroke:#d08c58;stroke-width:0.227961px;stroke-linecap:round;stroke-linejoin:round;stroke-miterlimit:1.5;stroke-opacity:1" /><path
       id="path135"
       d="m 41.404175,126.66688 h 6.62227"
       style="clip-rule:evenodd;fill:none;fill-rule:evenodd;stroke:#d08c58;stroke-width:0.227961px;stroke-linecap:round;stroke-linejoin:round;stroke-miterlimit:1.5;stroke-opacity:1" /></g><g
     aria-label="OSC I"
     id="text1495"
     style="font-style:italic;font-size:3.175px;font-family:Menlo;-inkscape-font-specification:'Menlo Italic';text-align:center;text-anchor:middle;fill:#ffffff;stroke-width:0.352777;stroke-linecap:round;stroke-linejoin:round;paint-order:fill markers stroke"><path
       d="m 6.1400902,15.862391 q 0.1317749,0 0.243396,-0.07906 0.1116211,-0.07906 0.1844849,-0.226343 0.1147217,-0.224793 0.1860351,-0.544153 0.071313,-0.31936 0.071313,-0.613916 0,-0.220142 -0.082165,-0.324011 -0.080615,-0.10542 -0.2511475,-0.10542 -0.1317749,0 -0.2418457,0.07906 -0.1100708,0.07906 -0.1829345,0.226343 -0.1178223,0.227893 -0.1891358,0.544152 -0.071313,0.31626 -0.071313,0.610816 0,0.221692 0.080615,0.327112 0.082166,0.10542 0.2526977,0.10542 z m 1.0061402,-1.37201 q 0,0.170532 -0.035657,0.37052 -0.034106,0.199988 -0.100769,0.410828 -0.044958,0.142627 -0.097669,0.255798 -0.05116,0.113172 -0.1116211,0.204639 -0.1364257,0.196887 -0.3054077,0.291455 -0.1689819,0.09302 -0.3937744,0.09302 -0.3116089,0 -0.4619873,-0.190686 -0.1503784,-0.190687 -0.1503784,-0.587561 0,-0.172083 0.032556,-0.36897 0.034106,-0.198438 0.100769,-0.409278 0.044958,-0.142627 0.096118,-0.255798 0.05271,-0.113171 0.1131713,-0.204639 0.1364258,-0.196887 0.3054078,-0.289904 0.1689819,-0.09457 0.3937744,-0.09457 0.3131591,0 0.4635376,0.190686 0.1519287,0.189136 0.1519287,0.58446 z"
       style="stroke-width:0.352778"
       id="path341" /><path
       d="m 9.0515404,13.836158 -0.060462,0.31781 Q 8.8655052,14.0625 8.7306297,14.015992 8.5957542,13.969483 8.451577,13.969483 q -0.2557983,0 -0.4170288,0.127124 -0.1612305,0.127124 -0.1612305,0.324011 0,0.110071 0.075964,0.178284 0.075964,0.06821 0.2759521,0.130224 l 0.1875855,0.06046 q 0.2526977,0.07751 0.3689697,0.207739 0.1178223,0.128674 0.1178223,0.328662 0,0.364319 -0.2573487,0.578259 -0.2573486,0.212391 -0.7022827,0.212391 -0.1612304,0 -0.31781,-0.03566 -0.1550293,-0.03411 -0.3100586,-0.10387 l 0.063562,-0.324011 q 0.1519287,0.10697 0.306958,0.15813 0.1565796,0.05116 0.3302124,0.05116 0.2557983,0 0.4154785,-0.136426 0.1596802,-0.136426 0.1596802,-0.345716 0,-0.127124 -0.068213,-0.196887 Q 8.451577,15.113599 8.245388,15.050037 L 8.0888085,14.998877 Q 7.8035546,14.90896 7.6888329,14.795789 7.5756615,14.681067 7.5756615,14.493482 q 0,-0.342615 0.2557983,-0.559656 0.2557984,-0.218591 0.6681763,-0.218591 0.1240234,0 0.2635498,0.03101 0.1410766,0.03101 0.2883545,0.08992 z"
       style="stroke-width:0.352778"
       id="path343" /><path
       d="m 10.648342,15.989515 q -0.130225,0.06356 -0.26355,0.09457 -0.131775,0.03256 -0.272851,0.03256 -0.3565676,0 -0.5534549,-0.206189 -0.1953369,-0.206189 -0.1953369,-0.57826 0,-0.341064 0.1085205,-0.675927 0.1085205,-0.334864 0.2852539,-0.547254 0.1658814,-0.201538 0.3658694,-0.297656 0.199988,-0.09612 0.455786,-0.09612 0.124023,0 0.246496,0.03256 0.122474,0.03256 0.238746,0.09457 l -0.06356,0.32091 q -0.09922,-0.09767 -0.20929,-0.145727 -0.110071,-0.04806 -0.234094,-0.04806 -0.147278,0 -0.272852,0.06356 -0.125573,0.06201 -0.235644,0.190686 -0.1612307,0.190686 -0.2604495,0.488342 -0.097669,0.297656 -0.097669,0.596863 0,0.268201 0.1209229,0.410828 0.1209228,0.142627 0.3488161,0.142627 0.131775,0 0.271301,-0.04961 0.141077,-0.04961 0.277503,-0.144177 z"
       style="stroke-width:0.352778"
       id="path345" /><path
       d="m 13.544289,13.757093 h 1.286743 l -0.05116,0.26355 h -0.486792 l -0.345716,1.787487 h 0.486792 l -0.05116,0.26355 h -1.286743 l 0.05116,-0.26355 h 0.485242 l 0.347266,-1.787487 H 13.49313 Z"
       style="stroke-width:0.352778"
       id="path347" /></g><g
     aria-label="V/OCT"
     id="text1499"
     style="font-style:italic;font-size:3.175px;font-family:Menlo;-inkscape-font-specification:'Menlo Italic';text-align:center;text-anchor:middle;fill:#ffffff;stroke-width:0.352777;stroke-linecap:round;stroke-linejoin:round;paint-order:fill markers stroke"><path
       d="m 5.9401026,30.019104 0.9270752,-2.020032 h 0.333313 L 6.0858302,30.31366 H 5.6858546 L 5.4579615,27.999072 h 0.306958 z"
       style="stroke-width:0.352778"
       id="path350" /><path
       d="M 7.0857691,30.608215 8.4066187,27.999072 H 8.7027246 L 7.3787745,30.608215 Z"
       style="stroke-width:0.352778"
       id="path352" /><path
       d="m 9.7507227,30.10437 q 0.1317749,0 0.243396,-0.07906 0.1116213,-0.07906 0.1844853,-0.226343 0.114721,-0.224792 0.186035,-0.544152 0.07131,-0.319361 0.07131,-0.613916 0,-0.220142 -0.08216,-0.324012 -0.08062,-0.10542 -0.251148,-0.10542 -0.1317747,0 -0.2418455,0.07906 -0.1100708,0.07906 -0.1829346,0.226343 -0.1178223,0.227893 -0.1891357,0.544153 -0.071314,0.31626 -0.071314,0.610815 0,0.221692 0.080615,0.327112 0.082165,0.10542 0.2526978,0.10542 z m 1.0061403,-1.372009 q 0,0.170532 -0.03566,0.37052 -0.03411,0.199988 -0.100769,0.410828 -0.04496,0.142626 -0.09767,0.255798 -0.05116,0.113171 -0.111622,0.204639 -0.136425,0.196887 -0.305407,0.291455 -0.1689822,0.09302 -0.3937747,0.09302 -0.3116088,0 -0.4619873,-0.190686 -0.1503784,-0.190686 -0.1503784,-0.587561 0,-0.172082 0.032556,-0.36897 0.034106,-0.198437 0.100769,-0.409277 0.044958,-0.142627 0.096118,-0.255798 0.05271,-0.113172 0.1131714,-0.204639 0.1364257,-0.196887 0.3054077,-0.289905 0.1689819,-0.09457 0.3937739,-0.09457 0.31316,0 0.463538,0.190686 0.151929,0.189136 0.151929,0.584461 z"
       style="stroke-width:0.352778"
       id="path354" /><path
       d="m 12.347463,30.231494 q -0.130225,0.06356 -0.26355,0.09457 -0.131775,0.03256 -0.272851,0.03256 -0.356568,0 -0.553455,-0.206189 -0.195337,-0.206189 -0.195337,-0.578259 0,-0.341065 0.108521,-0.675928 0.10852,-0.334863 0.285254,-0.547253 0.165881,-0.201538 0.365869,-0.297656 0.199988,-0.09612 0.455786,-0.09612 0.124023,0 0.246496,0.03256 0.122474,0.03256 0.238746,0.09457 l -0.06356,0.320911 q -0.09922,-0.09767 -0.20929,-0.145727 -0.110071,-0.04806 -0.234094,-0.04806 -0.147278,0 -0.272852,0.06356 -0.125573,0.06201 -0.235644,0.190686 -0.161231,0.190687 -0.260449,0.488343 -0.09767,0.297656 -0.09767,0.596863 0,0.2682 0.120923,0.410827 0.120923,0.142627 0.348816,0.142627 0.131775,0 0.271301,-0.04961 0.141077,-0.04961 0.277503,-0.144177 z"
       style="stroke-width:0.352778"
       id="path356" /><path
       d="m 13.094705,27.999072 h 1.767333 l -0.05116,0.26355 h -0.727088 l -0.396875,2.051038 h -0.316259 l 0.399975,-2.051038 h -0.727087 z"
       style="stroke-width:0.352778"
       id="path358" /></g><g
     aria-label="OSC II"
     id="text1503"
     style="font-style:italic;font-size:3.175px;font-family:Menlo;-inkscape-font-specification:'Menlo Italic';text-align:center;text-anchor:middle;fill:#ffffff;stroke-width:0.352777;stroke-linecap:round;stroke-linejoin:round;paint-order:fill markers stroke"><path
       d="m 5.1843346,101.79487 q 0.1317749,0 0.243396,-0.0791 0.1116211,-0.0791 0.1844849,-0.22634 0.1147217,-0.22479 0.1860351,-0.54415 0.071313,-0.31936 0.071313,-0.61392 0,-0.22014 -0.082165,-0.32401 -0.080615,-0.105419 -0.2511475,-0.105419 -0.1317749,0 -0.2418457,0.07906 -0.1100708,0.07906 -0.1829345,0.226344 -0.1178223,0.22789 -0.1891358,0.54415 -0.071313,0.31626 -0.071313,0.61082 0,0.22169 0.080615,0.32711 0.082166,0.10542 0.2526977,0.10542 z m 1.0061402,-1.37201 q 0,0.17053 -0.035657,0.37052 -0.034106,0.19999 -0.100769,0.41083 -0.044958,0.14262 -0.097669,0.2558 -0.05116,0.11317 -0.1116211,0.20463 -0.1364257,0.19689 -0.3054077,0.29146 -0.1689819,0.093 -0.3937744,0.093 -0.3116089,0 -0.4619873,-0.19069 -0.1503784,-0.19069 -0.1503784,-0.58756 0,-0.17208 0.032556,-0.36897 0.034106,-0.19844 0.100769,-0.40928 0.044958,-0.14262 0.096118,-0.2558 0.05271,-0.11317 0.1131713,-0.20463 0.1364258,-0.196892 0.3054078,-0.289909 0.1689819,-0.09457 0.3937744,-0.09457 0.3131591,0 0.4635376,0.190686 0.1519287,0.189131 0.1519287,0.584461 z"
       style="stroke-width:0.352778"
       id="path372" /><path
       d="m 8.0957848,99.768636 -0.060462,0.317814 q -0.1255737,-0.09147 -0.2604492,-0.13798 -0.1348755,-0.04651 -0.2790527,-0.04651 -0.2557983,0 -0.4170288,0.127119 -0.1612305,0.12713 -0.1612305,0.32402 0,0.11007 0.075964,0.17828 0.075964,0.0682 0.2759521,0.13022 l 0.1875855,0.0605 q 0.2526977,0.0775 0.3689697,0.20774 0.1178223,0.12867 0.1178223,0.32866 0,0.36432 -0.2573487,0.57826 -0.2573486,0.21239 -0.7022827,0.21239 -0.1612304,0 -0.31781,-0.0357 -0.1550293,-0.0341 -0.3100586,-0.10387 l 0.063562,-0.32401 q 0.1519287,0.10697 0.306958,0.15813 0.1565796,0.0512 0.3302124,0.0512 0.2557983,0 0.4154785,-0.13643 0.1596802,-0.13642 0.1596802,-0.34571 0,-0.12713 -0.068213,-0.19689 -0.068213,-0.0698 -0.2744019,-0.13333 l -0.1565795,-0.0512 q -0.2852539,-0.0899 -0.3999756,-0.20309 -0.1131714,-0.11472 -0.1131714,-0.30231 0,-0.34261 0.2557983,-0.559656 0.2557984,-0.218591 0.6681763,-0.218591 0.1240234,0 0.2635498,0.03101 0.1410766,0.031 0.2883545,0.08992 z"
       style="stroke-width:0.352778"
       id="path374" /><path
       d="m 9.6925865,101.92199 q -0.1302246,0.0636 -0.2635498,0.0946 -0.1317749,0.0326 -0.2728516,0.0326 -0.3565674,0 -0.5534546,-0.20619 -0.1953369,-0.20619 -0.1953369,-0.57826 0,-0.34107 0.1085205,-0.67593 0.1085205,-0.33486 0.2852539,-0.54725 0.1658814,-0.201541 0.3658692,-0.297659 0.1999878,-0.09612 0.4557861,-0.09612 0.1240234,0 0.2464966,0.03256 0.1224731,0.03256 0.2387451,0.09457 l -0.06356,0.320913 q -0.099219,-0.09767 -0.2092896,-0.14573 -0.1100708,-0.04806 -0.2340942,-0.04806 -0.1472778,0 -0.2728516,0.06356 -0.1255737,0.06201 -0.2356445,0.190687 -0.1612305,0.19068 -0.2604492,0.48834 -0.097669,0.29766 -0.097669,0.59686 0,0.2682 0.1209229,0.41083 0.1209228,0.14263 0.3488159,0.14263 0.1317749,0 0.2713013,-0.0496 0.1410766,-0.0496 0.2775024,-0.14418 z"
       style="stroke-width:0.352778"
       id="path376" /><path
       d="m 12.588534,99.689571 h 1.286743 l -0.05116,0.263549 h -0.486792 l -0.345715,1.78749 h 0.486792 l -0.05116,0.26355 h -1.286743 l 0.05116,-0.26355 H 12.6769 l 0.347266,-1.78749 h -0.486792 z"
       style="stroke-width:0.352778"
       id="path378" /><path
       d="m 14.500045,99.689571 h 1.286743 l -0.05116,0.263549 h -0.486792 l -0.345716,1.78749 h 0.486792 l -0.05116,0.26355 H 14.05201 l 0.05116,-0.26355 h 0.485242 l 0.347265,-1.78749 h -0.486792 z"
       style="stroke-width:0.352778"
       id="path380" /></g><g
     aria-label="V/OCT"
     id="text1507"
     style="font-style:italic;font-size:3.175px;font-family:Menlo;-inkscape-font-specification:'Menlo Italic';text-align:center;text-anchor:middle;fill:#ffffff;stroke-width:0.352777;stroke-linecap:round;stroke-linejoin:round;paint-order:fill markers stroke"><path
       d="m 5.9401026,115.95156 0.9270752,-2.02003 h 0.333313 l -1.1146606,2.31459 H 5.6858546 l -0.2278931,-2.31459 h 0.306958 z"
       style="stroke-width:0.352778"
       id="path383" /><path
       d="m 7.0857691,116.54067 1.3208496,-2.60914 h 0.2961059 l -1.3239501,2.60914 z"
       style="stroke-width:0.352778"
       id="path385" /><path
       d="m 9.7507227,116.03683 q 0.1317749,0 0.243396,-0.0791 0.1116213,-0.0791 0.1844853,-0.22634 0.114721,-0.22479 0.186035,-0.54415 0.07131,-0.31936 0.07131,-0.61392 0,-0.22014 -0.08216,-0.32401 -0.08062,-0.10542 -0.251148,-0.10542 -0.1317747,0 -0.2418455,0.0791 -0.1100708,0.0791 -0.1829346,0.22635 -0.1178223,0.22789 -0.1891357,0.54415 -0.071314,0.31626 -0.071314,0.61082 0,0.22169 0.080615,0.32711 0.082165,0.10542 0.2526978,0.10542 z m 1.0061403,-1.37201 q 0,0.17053 -0.03566,0.37052 -0.03411,0.19999 -0.100769,0.41083 -0.04496,0.14262 -0.09767,0.25579 -0.05116,0.11318 -0.111622,0.20464 -0.136425,0.19689 -0.305407,0.29146 -0.1689822,0.093 -0.3937747,0.093 -0.3116088,0 -0.4619873,-0.19069 -0.1503784,-0.19069 -0.1503784,-0.58756 0,-0.17208 0.032556,-0.36897 0.034106,-0.19844 0.100769,-0.40928 0.044958,-0.14263 0.096118,-0.2558 0.05271,-0.11317 0.1131714,-0.20464 0.1364257,-0.19688 0.3054077,-0.2899 0.1689819,-0.0946 0.3937739,-0.0946 0.31316,0 0.463538,0.19069 0.151929,0.18913 0.151929,0.58446 z"
       style="stroke-width:0.352778"
       id="path387" /><path
       d="m 12.347463,116.16395 q -0.130225,0.0636 -0.26355,0.0946 -0.131775,0.0326 -0.272851,0.0326 -0.356568,0 -0.553455,-0.20619 -0.195337,-0.20619 -0.195337,-0.57826 0,-0.34107 0.108521,-0.67593 0.10852,-0.33486 0.285254,-0.54725 0.165881,-0.20154 0.365869,-0.29766 0.199988,-0.0961 0.455786,-0.0961 0.124023,0 0.246496,0.0326 0.122474,0.0326 0.238746,0.0946 l -0.06356,0.32091 q -0.09922,-0.0977 -0.20929,-0.14573 -0.110071,-0.0481 -0.234094,-0.0481 -0.147278,0 -0.272852,0.0636 -0.125573,0.062 -0.235644,0.19069 -0.161231,0.19068 -0.260449,0.48834 -0.09767,0.29766 -0.09767,0.59686 0,0.2682 0.120923,0.41083 0.120923,0.14263 0.348816,0.14263 0.131775,0 0.271301,-0.0496 0.141077,-0.0496 0.277503,-0.14418 z"
       style="stroke-width:0.352778"
       id="path389" /><path
       d="m 13.094705,113.93153 h 1.767333 l -0.05116,0.26355 h -0.727088 l -0.396875,2.05104 h -0.316259 l 0.399975,-2.05104 h -0.727087 z"
       style="stroke-width:0.352778"
       id="path391" /></g><path
     d="m 10.16,71.708548 v 2.438388"
     style="clip-rule:evenodd;fill:none;fill-rule:evenodd;stroke:#d08c59;stroke-width:0.264017px;stroke-linecap:square;stroke-linejoin:round;stroke-miterlimit:1.5"
     id="path11" /><path
     d="m 10.16,57.808534 v 2.210299"
     style="clip-rule:evenodd;fill:none;fill-rule:evenodd;stroke:#d08c59;stroke-width:0.264017px;stroke-linecap:square;stroke-linejoin:round;stroke-miterlimit:1.5"
     id="path47"
     sodipodi:nodetypes="cc" /><g
     id="g3080"
     transform="translate(0.1521214,11.641668)"><path
       id="path9"
       serif:id="path40"
       d="m 14.190454,60.664793 -0.702124,-0.17526 0.174617,-0.703478"
       style="clip-rule:evenodd;fill:none;fill-rule:evenodd;stroke:#d08c59;stroke-width:0.246416px;stroke-linecap:butt;stroke-linejoin:miter;stroke-miterlimit:10" /><path
       id="path10"
       serif:id="path41"
       d="m 6.2193979,60.315891 c -1.628844,-1.183234 -2.787082,-3.190131 -2.787082,-5.33958 0,-3.586582 2.946242,-6.498336 6.5754101,-6.498336 3.629168,0 6.575715,2.911754 6.575715,6.498336 0,1.848612 -0.782881,3.518001 -2.038417,4.701844 -0.322721,0.304191 -0.676526,0.576682 -1.056234,0.811378"
       style="clip-rule:evenodd;fill:none;fill-rule:evenodd;stroke:#d08c59;stroke-width:0.246416px;stroke-linecap:butt;stroke-linejoin:round;stroke-miterlimit:1.5"
       sodipodi:nodetypes="cssscc" /><path
       id="path48"
       serif:id="path40"
       d="m 5.6609469,60.592219 0.702124,-0.17526 -0.174617,-0.703478"
       style="clip-rule:evenodd;fill:none;fill-rule:evenodd;stroke:#d08c59;stroke-width:0.246416px;stroke-linecap:butt;stroke-linejoin:miter;stroke-miterlimit:10" /></g><path
     d="M 10.16,73.539863 V 86.978496"
     style="clip-rule:evenodd;fill:none;fill-rule:evenodd;stroke:#d08c59;stroke-width:0.264017px;stroke-linecap:square;stroke-linejoin:round;stroke-miterlimit:1.5"
     id="path59"
     sodipodi:nodetypes="cc" /><g
     aria-label="RATIO"
     id="text1563"
     style="font-style:italic;font-size:3.175px;font-family:Menlo;-inkscape-font-specification:'Menlo Italic';text-align:center;text-anchor:middle;fill:#ffffff;stroke-width:0.352777;stroke-linecap:round;stroke-linejoin:round;paint-order:fill markers stroke"><path
       d="m 6.6230065,91.863304 q 0.1116211,0.0217 0.1782837,0.10387 0.068213,0.08217 0.1519287,0.356567 l 0.1875854,0.63252 H 6.8291955 L 6.6648644,92.3718 q -0.068213,-0.241845 -0.153479,-0.31781 -0.083716,-0.07596 -0.254248,-0.07596 H 5.9594811 l -0.190686,0.978235 H 5.4540856 l 0.4480347,-2.314588 h 0.6449218 q 0.3209107,0 0.4960938,0.139527 0.1767334,0.137976 0.1767334,0.390674 0,0.283703 -0.1612305,0.469738 -0.1596802,0.186035 -0.4356323,0.221692 z M 6.1687707,90.899022 6.0106408,91.720677 h 0.3395141 q 0.2526978,0 0.4030762,-0.131775 0.1519287,-0.133325 0.1519287,-0.353466 0,-0.173633 -0.097668,-0.254249 -0.097669,-0.08217 -0.3085083,-0.08217 z"
       style="stroke-width:0.352778"
       id="path361" /><path
       d="M 8.4864586,90.902123 7.922152,92.102049 h 0.6666259 z m -0.1488281,-0.26045 h 0.381372 l 0.2573487,2.314588 H 8.6647423 L 8.610482,92.353197 H 7.8043297 L 7.5190758,92.956261 H 7.1826622 Z"
       style="stroke-width:0.352778"
       id="path363" /><path
       d="m 9.557711,90.641673 h 1.767334 l -0.05116,0.26355 h -0.727087 l -0.396875,2.051038 H 9.8336631 L 10.233639,90.905223 H 9.5065513 Z"
       style="stroke-width:0.352778"
       id="path365" /><path
       d="m 11.706417,90.641673 h 1.286743 l -0.05116,0.26355 h -0.486792 l -0.345715,1.787488 h 0.486792 l -0.05116,0.26355 h -1.286743 l 0.05116,-0.26355 h 0.485241 l 0.347266,-1.787488 h -0.486792 z"
       style="stroke-width:0.352778"
       id="path367" /><path
       d="m 13.859774,92.746971 q 0.131775,0 0.243396,-0.07906 0.111621,-0.07906 0.184485,-0.226343 0.114721,-0.224792 0.186035,-0.544152 0.07131,-0.319361 0.07131,-0.613916 0,-0.220142 -0.08216,-0.324012 -0.08061,-0.10542 -0.251148,-0.10542 -0.131775,0 -0.241845,0.07906 -0.110071,0.07906 -0.182935,0.226343 -0.117822,0.227893 -0.189136,0.544153 -0.07131,0.31626 -0.07131,0.610815 0,0.221692 0.08061,0.327112 0.08217,0.10542 0.252698,0.10542 z m 1.00614,-1.372009 q 0,0.170532 -0.03566,0.37052 -0.03411,0.199988 -0.100769,0.410828 -0.04496,0.142626 -0.09767,0.255798 -0.05116,0.113171 -0.111621,0.204639 -0.136426,0.196887 -0.305408,0.291455 -0.168982,0.09302 -0.393774,0.09302 -0.311609,0 -0.461988,-0.190686 -0.150378,-0.190686 -0.150378,-0.587561 0,-0.172082 0.03256,-0.36897 0.03411,-0.198437 0.100769,-0.409277 0.04496,-0.142627 0.09612,-0.255798 0.05271,-0.113172 0.113172,-0.204639 0.136425,-0.196887 0.305407,-0.289905 0.168982,-0.09457 0.393775,-0.09457 0.313159,0 0.463537,0.190686 0.151929,0.189136 0.151929,0.584461 z"
       style="stroke-width:0.352778"
       id="path369" /></g><rect
     style="clip-rule:evenodd;display:inline;fill:#212121;fill-opacity:1;fill-rule:evenodd;stroke:#d08c59;stroke-width:0.352778;stroke-linejoin:round;stroke-miterlimit:1.5;stroke-dasharray:none;stroke-opacity:1"
     id="rect112-0"
     width="16.352657"
     height="8.8634748"
     x="1.9836712"
     y="34.639015"
     rx="5"
     ry="5"
     inkscape:transform-center-x="-38.207991"
     inkscape:transform-center-y="-9.91983" /><g
     aria-label="LOCK"
     id="text4185"
     style="font-style:italic;font-size:3.175px;font-family:Menlo;-inkscape-font-specification:'Menlo Italic';text-align:center;text-anchor:middle;fill:#ffffff;stroke-width:0.352777;stroke-linecap:round;stroke-linejoin:round;paint-order:fill markers stroke"><path
       d="m 6.7547816,51.189075 h 0.3131592 l -0.3999756,2.051037 h 1.1177612 l -0.05116,0.26355 H 6.3036463 Z"
       style="stroke-width:0.352778"
       id="path4187" /><path
       d="m 8.8724817,53.294373 q 0.1317749,0 0.243396,-0.07906 0.1116211,-0.07906 0.1844849,-0.226343 0.1147217,-0.224793 0.1860351,-0.544153 0.071314,-0.31936 0.071314,-0.613916 0,-0.220142 -0.082166,-0.324011 -0.080615,-0.10542 -0.2511475,-0.10542 -0.1317749,0 -0.2418457,0.07906 -0.1100708,0.07906 -0.1829345,0.226343 -0.1178223,0.227893 -0.1891358,0.544152 -0.071314,0.31626 -0.071314,0.610816 0,0.221692 0.080615,0.327112 0.082166,0.10542 0.2526977,0.10542 z m 1.0061401,-1.37201 q 0,0.170533 -0.035657,0.37052 -0.034106,0.199988 -0.100769,0.410828 -0.044958,0.142627 -0.097668,0.255798 -0.05116,0.113172 -0.1116211,0.204639 -0.1364258,0.196887 -0.3054077,0.291455 -0.1689819,0.09302 -0.3937744,0.09302 -0.3116089,0 -0.4619873,-0.190686 -0.1503784,-0.190686 -0.1503784,-0.587561 0,-0.172083 0.032556,-0.36897 0.034107,-0.198438 0.1007691,-0.409278 0.044958,-0.142626 0.096118,-0.255798 0.05271,-0.113171 0.1131714,-0.204639 0.1364258,-0.196887 0.3054077,-0.289904 0.168982,-0.09457 0.3937744,-0.09457 0.3131592,0 0.4635376,0.190686 0.1519287,0.189136 0.1519287,0.58446 z"
       style="stroke-width:0.352778"
       id="path4189" /><path
       d="m 11.469222,53.421497 q -0.130224,0.06356 -0.263549,0.09457 -0.131775,0.03256 -0.272852,0.03256 -0.356567,0 -0.553455,-0.206189 -0.195336,-0.206189 -0.195336,-0.57826 0,-0.341064 0.10852,-0.675927 0.108521,-0.334864 0.285254,-0.547254 0.165881,-0.201538 0.365869,-0.297656 0.199988,-0.09612 0.455786,-0.09612 0.124024,0 0.246497,0.03256 0.122473,0.03256 0.238745,0.09457 l -0.06356,0.32091 q -0.09922,-0.09767 -0.20929,-0.145727 -0.11007,-0.04806 -0.234094,-0.04806 -0.147278,0 -0.272851,0.06356 -0.125574,0.06201 -0.235645,0.190686 -0.16123,0.190686 -0.260449,0.488342 -0.09767,0.297656 -0.09767,0.596863 0,0.268201 0.120923,0.410828 0.120923,0.142627 0.348816,0.142627 0.131775,0 0.271301,-0.04961 0.141077,-0.04961 0.277503,-0.144177 z"
       style="stroke-width:0.352778"
       id="path4191" /><path
       d="m 12.35599,51.189075 h 0.313159 l -0.196887,1.003039 1.150317,-1.003039 h 0.393774 l -1.089855,0.959631 0.663525,1.354956 h -0.339514 l -0.558106,-1.148767 -0.299206,0.260449 -0.173633,0.888318 h -0.31471 z"
       style="stroke-width:0.352778"
       id="path4193" /></g></svg>
