<?xml version="1.0" encoding="UTF-8" standalone="no"?>
<!-- Created with Inkscape (http://www.inkscape.org/) -->

<svg
   width="152.384mm"
   height="128.5mm"
   viewBox="0 0 152.38401 128.50002"
   version="1.1"
   id="svg8"
   inkscape:version="1.2 (dc2aeda, 2022-05-15)"
   sodipodi:docname="StepWave.svg"
   xml:space="preserve"
   xmlns:inkscape="http://www.inkscape.org/namespaces/inkscape"
   xmlns:sodipodi="http://sodipodi.sourceforge.net/DTD/sodipodi-0.dtd"
   xmlns="http://www.w3.org/2000/svg"
   xmlns:svg="http://www.w3.org/2000/svg"
   xmlns:rdf="http://www.w3.org/1999/02/22-rdf-syntax-ns#"
   xmlns:cc="http://creativecommons.org/ns#"
   xmlns:dc="http://purl.org/dc/elements/1.1/"><defs
     id="defs2">
            
            
        
            
            
        </defs><sodipodi:namedview
     id="base"
     pagecolor="#ffffff"
     bordercolor="#666666"
     borderopacity="1.0"
     inkscape:pageopacity="0.0"
     inkscape:pageshadow="2"
     inkscape:zoom="1.4462011"
     inkscape:cx="281.77271"
     inkscape:cy="244.08777"
     inkscape:document-units="mm"
     inkscape:current-layer="layer1"
     showgrid="false"
     units="mm"
     inkscape:snap-bbox="true"
     inkscape:snap-page="true"
     inkscape:bbox-nodes="false"
     inkscape:snap-bbox-edge-midpoints="false"
     inkscape:window-width="1466"
     inkscape:window-height="900"
     inkscape:window-x="1"
     inkscape:window-y="38"
     inkscape:window-maximized="0"
     inkscape:snap-bbox-midpoints="true"
     inkscape:snap-nodes="false"
     inkscape:showpageshadow="2"
     inkscape:pagecheckerboard="0"
     inkscape:deskcolor="#d1d1d1"
     showguides="true" /><metadata
     id="metadata5"><rdf:RDF><cc:Work
         rdf:about=""><dc:format>image/svg+xml</dc:format><dc:type
           rdf:resource="http://purl.org/dc/dcmitype/StillImage" /></cc:Work></rdf:RDF></metadata><g
     inkscape:label="Layer 1"
     inkscape:groupmode="layer"
     id="layer1"
     transform="translate(0,-168.49998)"
     style="display:inline"><rect
       x="-0.045016449"
       y="168.29933"
       width="152.87804"
       height="129.37991"
       style="clip-rule:evenodd;display:inline;fill:#e5e5e5;fill-opacity:1;fill-rule:evenodd;stroke:#ebebeb;stroke-width:0.0846107px;stroke-linecap:round;stroke-linejoin:round;stroke-miterlimit:1.5"
       id="rect1-0" /><g
       id="g9108"
       style="stroke-width:0.42897415;stroke-dasharray:none;stroke:#000000;stroke-opacity:1.0"
       transform="matrix(0.99619516,0,0,0.67888429,0.4916979,90.757239)"><path
         style="opacity:1;fill:#ffffff;stroke:#000000;stroke-width:0.42897415;stroke-dasharray:none;stroke-opacity:1.0"
         d="m 24.269361,230.57865 v 52.67647"
         id="path9084" /><path
         style="opacity:1;fill:#ffffff;stroke:#000000;stroke-width:0.42897415;stroke-dasharray:none;stroke-opacity:1.0"
         d="m 39.229075,230.57865 v 52.67647"
         id="path9086" /><path
         style="opacity:1;fill:#ffffff;stroke:#000000;stroke-width:0.42897415;stroke-dasharray:none;stroke-opacity:1.0"
         d="m 54.188789,230.57865 v 52.67647"
         id="path9088" /><path
         style="opacity:1;fill:#ffffff;stroke:#000000;stroke-width:0.42897415;stroke-dasharray:none;stroke-opacity:1.0"
         d="m 69.148503,230.57865 v 52.67647"
         id="path9090" /><path
         style="opacity:1;fill:#ffffff;stroke:#000000;stroke-width:0.42897415;stroke-dasharray:none;stroke-opacity:1.0"
         d="m 84.108218,230.57865 v 52.67647"
         id="path9092" /><path
         style="opacity:1;fill:#ffffff;stroke:#000000;stroke-width:0.42897415;stroke-dasharray:none;stroke-opacity:1.0"
         d="m 99.067932,230.57865 v 52.67647"
         id="path9094" /><path
         style="opacity:1;fill:#ffffff;stroke:#000000;stroke-width:0.42897415;stroke-dasharray:none;stroke-opacity:1.0"
         d="m 114.02765,230.57865 v 52.67647"
         id="path9096" /><path
         style="opacity:1;fill:#ffffff;stroke:#000000;stroke-width:0.42897415;stroke-dasharray:none;stroke-opacity:1.0"
         d="m 128.98736,230.57865 v 52.67647"
         id="path9098" /></g><rect
       style="display:inline;fill:#666666;fill-opacity:1;stroke:#000000;stroke-width:0.352778;stroke-linejoin:round;stroke-dasharray:none;stroke-opacity:1"
       id="rect570"
       width="11.510139"
       height="121.3497"
       x="279.90778"
       y="-139.68524"
       rx="5"
       ry="5"
       transform="rotate(90)" /><rect
       style="display:inline;fill:#666666;fill-opacity:1;stroke:#000000;stroke-width:0.334825;stroke-linejoin:round;stroke-dasharray:none;stroke-opacity:1"
       id="rect48"
       width="10.639826"
       height="18.919374"
       x="138.89685"
       y="184.2339"
       rx="5"
       ry="5" /><rect
       style="display:inline;fill:#666666;fill-opacity:1;stroke:#000000;stroke-width:0.334825;stroke-linejoin:round;stroke-dasharray:none;stroke-opacity:1"
       id="rect6054"
       width="10.634409"
       height="19.684959"
       x="138.89958"
       y="259.85355"
       rx="5"
       ry="5" /><rect
       style="display:inline;fill:#212121;fill-opacity:1;stroke:#000000;stroke-width:0.312418;stroke-dasharray:none;stroke-opacity:1"
       id="rect2-7"
       width="120.53146"
       height="23.595324"
       x="16.455448"
       y="181.86339"
       ry="2.6164761"
       rx="2.7867291" /><path
       id="path128"
       d="m 73.042155,293.88119 c 0.05918,0.1254 0.07855,0.25115 0.05777,0.37795 h -0.414579 c -0.0063,-0.0972 -0.02536,-0.17048 -0.05777,-0.21979 -0.05671,-0.0881 -0.159209,-0.13209 -0.307147,-0.13209 -0.150756,0 -0.282844,0.062 -0.395558,0.18633 -0.113067,0.12399 -0.193024,0.2994 -0.240224,0.52659 -0.04755,0.22719 -0.03734,0.39697 0.03135,0.51039 0.06833,0.11306 0.173299,0.16942 0.314897,0.16942 0.145472,0 0.26664,-0.0486 0.363505,-0.14582 0.05319,-0.0518 0.104261,-0.13033 0.153573,-0.23459 h 0.410704 c -0.08172,0.22085 -0.210987,0.40014 -0.387104,0.53856 -0.176469,0.13773 -0.38006,0.20712 -0.610773,0.20712 -0.285309,0 -0.490308,-0.0933 -0.614999,-0.28003 -0.123986,-0.18774 -0.15146,-0.44487 -0.08348,-0.77209 0.07326,-0.35329 0.222963,-0.62592 0.448393,-0.81719 0.196546,-0.1666 0.41951,-0.25008 0.668891,-0.25008 0.333917,0 0.554415,0.11201 0.662551,0.33532 z"
       style="clip-rule:evenodd;fill:#000000;fill-rule:nonzero;stroke-width:0.352233;stroke-linecap:round;stroke-linejoin:round;stroke-miterlimit:1.5" /><path
       id="path129"
       d="m 73.960075,295.12176 0.75554,-1.53715 h 0.430782 l -1.098616,2.02394 h -0.391684 l -0.249381,-2.02394 h 0.443462 z"
       style="clip-rule:evenodd;fill:#000000;fill-rule:nonzero;stroke-width:0.352233;stroke-linecap:round;stroke-linejoin:round;stroke-miterlimit:1.5" /><path
       id="path130"
       d="m 76.712074,294.12564 -0.05812,0.27616 h -0.251142 l -0.25079,1.20675 H 75.76985 l 0.25079,-1.20675 h -0.21451 l 0.05777,-0.27616 h 0.210283 l 0.01972,-0.0961 c 0.03382,-0.16027 0.08313,-0.27052 0.148291,-0.3311 0.07467,-0.0895 0.218032,-0.13456 0.430781,-0.13456 0.0243,0 0.04614,7.1e-4 0.06551,0.002 0.01937,0.001 0.04614,0.004 0.08031,0.006 l -0.06728,0.31913 c -0.02078,-0.003 -0.05636,-0.005 -0.106374,-0.006 -0.05037,-0.001 -0.08806,0.01 -0.112715,0.0342 -0.02466,0.0243 -0.03945,0.0511 -0.04509,0.0803 -0.0063,0.0296 -0.01515,0.0715 -0.02712,0.12645 z"
       style="clip-rule:evenodd;fill:#000000;fill-rule:nonzero;stroke-width:0.352233;stroke-linecap:round;stroke-linejoin:round;stroke-miterlimit:1.5" /><path
       id="path131"
       d="m 77.60886,295.39756 c -0.0042,0.005 -0.0162,0.0183 -0.03522,0.0412 -0.01867,0.0229 -0.0398,0.0426 -0.06305,0.0602 -0.07186,0.0549 -0.138076,0.0923 -0.19866,0.11237 -0.06023,0.0201 -0.128213,0.0303 -0.203943,0.0303 -0.216976,0 -0.34695,-0.0793 -0.388865,-0.23882 -0.0236,-0.0877 -0.01726,-0.21733 0.01867,-0.38851 l 0.187388,-0.90242 h 0.39274 l -0.187036,0.90242 c -0.01796,0.0852 -0.02149,0.14899 -0.01092,0.19232 0.01902,0.0761 0.0796,0.11412 0.181752,0.11412 0.131031,0 0.232122,-0.0542 0.303273,-0.16238 0.03769,-0.0585 0.06657,-0.13596 0.0863,-0.23177 l 0.169424,-0.81471 h 0.388865 l -0.311022,1.49664 h -0.372663 z"
       style="clip-rule:evenodd;fill:#000000;fill-rule:nonzero;stroke-width:0.352233;stroke-linecap:round;stroke-linejoin:round;stroke-miterlimit:1.5" /><path
       id="path132"
       d="m 79.434485,294.69873 c 0.01691,-0.0789 0.01937,-0.13949 0.0067,-0.1814 -0.02149,-0.0771 -0.08489,-0.11553 -0.190911,-0.11553 -0.130326,0 -0.231417,0.0564 -0.30292,0.16872 -0.03804,0.0599 -0.06622,0.13596 -0.08489,0.22824 l -0.168367,0.80979 h -0.382173 l 0.310669,-1.49418 h 0.37055 l -0.04579,0.21839 c 0.06516,-0.0764 0.123634,-0.13209 0.17506,-0.1659 0.09123,-0.0606 0.197955,-0.0905 0.318771,-0.0905 0.151812,0 0.267345,0.0402 0.34695,0.12152 0.07925,0.081 0.09968,0.21522 0.06094,0.40296 l -0.209931,1.00774 H 79.24604 Z"
       style="clip-rule:evenodd;fill:#000000;fill-rule:nonzero;stroke-width:0.352233;stroke-linecap:round;stroke-linejoin:round;stroke-miterlimit:1.5" /><path
       id="path133"
       d="m 80.463007,295.13832 -0.09651,0.47023 h -0.377242 l 0.420214,-2.01724 h 0.37689 l -0.227895,1.09086 0.595274,-0.56357 h 0.475515 l -0.632963,0.57308 0.343075,0.91687 h -0.463187 l -0.21768,-0.63966 z"
       style="clip-rule:evenodd;fill:#000000;fill-rule:nonzero;stroke-width:0.352233;stroke-linecap:round;stroke-linejoin:round;stroke-miterlimit:1.5" /><path
       id="path134"
       d="m 63.864011,294.60574 h 6.548722"
       style="clip-rule:evenodd;fill:none;fill-rule:evenodd;stroke:#000000;stroke-width:0.225429px;stroke-linecap:round;stroke-linejoin:round;stroke-miterlimit:1.5;stroke-opacity:1.0" /><path
       id="path135"
       d="m 81.97127,294.60574 h 6.548722"
       style="clip-rule:evenodd;fill:none;fill-rule:evenodd;stroke:#000000;stroke-width:0.225429px;stroke-linecap:round;stroke-linejoin:round;stroke-miterlimit:1.5;stroke-opacity:1.0" /><path
       style="font-style:italic;font-size:5.5575px;font-family:Menlo;-inkscape-font-specification:'Menlo Italic';display:none;fill:#ffffff;stroke-width:0.463124"
       d="m 13.941867,173.03067 h 0.518302 l -0.244226,3.28348 0.892782,-2.1709 h 0.572574 l 0.0407,2.17633 1.023036,-3.28891 h 0.537298 l -1.383948,4.05144 h -0.526443 l -0.08412,-2.36085 -1.006754,2.36085 h -0.510162 z m 4.946934,0.45589 -0.987758,2.10034 h 1.166858 z m -0.260507,-0.45589 h 0.667551 l 0.450461,4.05144 h -0.545438 l -0.09498,-1.0556 h -1.411084 l -0.499306,1.0556 h -0.588856 z m 2.995839,3.53585 1.622747,-3.53585 h 0.583429 l -1.951095,4.05144 h -0.700115 l -0.398902,-4.05144 h 0.537297 z m 2.895436,-3.53585 h 2.401556 l -0.08955,0.46131 h -1.856119 l -0.233371,1.19943 h 1.771996 l -0.08684,0.46131 h -1.77471 l -0.282216,1.46807 h 1.904963 l -0.08955,0.46132 h -2.455829 z m 7.147684,0.45046 -0.295785,1.52234 h 0.634988 q 0.447747,0 0.713682,-0.25779 0.268649,-0.26051 0.268649,-0.69198 0,-0.29307 -0.168244,-0.43146 -0.168245,-0.14111 -0.521016,-0.14111 z m -0.461316,-0.45046 h 1.193994 q 0.559006,0 0.852078,0.24965 0.293071,0.24966 0.293071,0.72183 0,0.67569 -0.43418,1.06374 -0.434179,0.38804 -1.193994,0.38804 h -0.632274 l -0.317494,1.62818 h -0.550865 z m 4.496472,2.13833 q 0.195381,0.038 0.312066,0.18182 0.1194,0.14382 0.265935,0.62413 l 0.328349,1.10716 h -0.545438 l -0.287644,-1.02304 q -0.1194,-0.42332 -0.268649,-0.55629 -0.146536,-0.13297 -0.445034,-0.13297 h -0.521016 l -0.333775,1.7123 h -0.550866 l 0.784237,-4.05144 h 1.128867 q 0.56172,0 0.86836,0.24422 0.309353,0.24152 0.309353,0.68384 0,0.49659 -0.282217,0.82223 -0.279503,0.32563 -0.762528,0.38804 z m -0.795092,-1.68787 -0.276789,1.43822 h 0.594283 q 0.442321,0 0.705542,-0.23066 0.265935,-0.23337 0.265935,-0.6187 0,-0.30393 -0.170958,-0.44504 -0.170958,-0.14382 -0.540011,-0.14382 z m 3.424593,3.23464 q 0.230658,0 0.426039,-0.1384 0.195381,-0.13839 0.322921,-0.39619 0.200808,-0.39347 0.325635,-0.95248 0.124826,-0.559 0.124826,-1.07459 0,-0.38534 -0.143822,-0.56715 -0.141108,-0.18453 -0.439607,-0.18453 -0.230658,0 -0.423325,0.1384 -0.192667,0.13839 -0.320207,0.39619 -0.206236,0.3989 -0.331062,0.95248 -0.124827,0.55358 -0.124827,1.06917 0,0.38805 0.141108,0.57257 0.143822,0.18453 0.442321,0.18453 z m 1.761141,-2.40156 q 0,0.2985 -0.06241,0.64856 -0.0597,0.35006 -0.176386,0.71911 -0.0787,0.24965 -0.170958,0.44775 -0.08955,0.19809 -0.195381,0.35819 -0.238798,0.34463 -0.534583,0.51017 -0.295785,0.16281 -0.689261,0.16281 -0.545438,0 -0.808659,-0.33377 -0.263222,-0.33378 -0.263222,-1.02847 0,-0.30121 0.05699,-0.64584 0.0597,-0.34734 0.176386,-0.71639 0.0787,-0.24966 0.168245,-0.44775 0.09226,-0.1981 0.198094,-0.3582 0.238799,-0.34463 0.534584,-0.50745 0.295785,-0.16553 0.68926,-0.16553 0.548152,0 0.811373,0.33378 0.265935,0.33106 0.265935,1.02303 z m 1.611893,-0.83308 -0.295785,1.52234 h 0.634988 q 0.447748,0 0.713683,-0.25779 0.268648,-0.26051 0.268648,-0.69198 0,-0.29307 -0.168244,-0.43146 -0.168245,-0.14111 -0.521016,-0.14111 z m -0.461316,-0.45046 h 1.193994 q 0.559006,0 0.852078,0.24965 0.293071,0.24966 0.293071,0.72183 0,0.67569 -0.43418,1.06374 -0.434179,0.38804 -1.193994,0.38804 h -0.632274 l -0.317494,1.62818 h -0.550865 z m 4.412351,0.45589 -0.987758,2.10034 h 1.166858 z m -0.260507,-0.45589 h 0.667551 l 0.450461,4.05144 h -0.545438 l -0.09498,-1.0556 h -1.411084 l -0.499306,1.0556 H 43.37382 Z m 4.241393,3.79093 q -0.236085,0.16824 -0.515588,0.25508 -0.279504,0.0841 -0.596997,0.0841 -0.629561,0 -0.968764,-0.36362 -0.336489,-0.36634 -0.336489,-1.04203 0,-0.24423 0.04342,-0.51831 0.04613,-0.27679 0.132967,-0.578 0.09498,-0.31749 0.222517,-0.57257 0.127541,-0.2578 0.279504,-0.43961 0.290357,-0.35277 0.640415,-0.52101 0.352771,-0.16825 0.803232,-0.16825 0.21709,0 0.431466,0.057 0.21709,0.057 0.426039,0.16553 l -0.111259,0.56172 q -0.176385,-0.17096 -0.371766,-0.25508 -0.192667,-0.0841 -0.412471,-0.0841 -0.265935,0 -0.499306,0.11398 -0.233372,0.11126 -0.417898,0.33106 -0.1194,0.14111 -0.225231,0.35277 -0.105831,0.21166 -0.18724,0.47488 -0.09226,0.30936 -0.141108,0.58072 -0.04613,0.27136 -0.04613,0.49117 0,0.46402 0.214376,0.71639 0.214377,0.25237 0.607852,0.25237 0.184526,0 0.331062,-0.0488 0.146535,-0.0516 0.24694,-0.14653 l 0.206235,-1.06646 h -0.588856 l 0.08141,-0.45046 h 1.112586 z m 2.71091,-3.33504 -0.987759,2.10034 h 1.166858 z m -0.260508,-0.45589 h 0.667551 l 0.450462,4.05144 h -0.545439 l -0.09498,-1.0556 h -1.411084 l -0.499307,1.0556 h -0.588856 z m 2.135618,0 h 3.09353 l -0.08955,0.46131 h -1.272689 l -0.694688,3.59013 H 54.70591 l 0.700115,-3.59013 h -1.27269 z m 3.761082,0 h 2.252307 l -0.08955,0.46131 h -0.852078 l -0.605138,3.12881 h 0.852078 l -0.08955,0.46132 H 57.19973 l 0.08955,-0.46132 h 0.849364 l 0.607851,-3.12881 h -0.852078 z m 3.769223,3.6851 q 0.230658,0 0.426039,-0.1384 0.195381,-0.13839 0.322921,-0.39619 0.200808,-0.39347 0.325635,-0.95248 0.124826,-0.559 0.124826,-1.07459 0,-0.38534 -0.143822,-0.56715 -0.141108,-0.18453 -0.439607,-0.18453 -0.230658,0 -0.423325,0.1384 -0.192667,0.13839 -0.320207,0.39619 -0.206236,0.3989 -0.331062,0.95248 -0.124827,0.55358 -0.124827,1.06917 0,0.38805 0.141108,0.57257 0.143822,0.18453 0.442321,0.18453 z m 1.761141,-2.40156 q 0,0.2985 -0.06241,0.64856 -0.0597,0.35006 -0.176386,0.71911 -0.07869,0.24965 -0.170958,0.44775 -0.08955,0.19809 -0.195381,0.35819 -0.238799,0.34463 -0.534583,0.51017 -0.295785,0.16281 -0.689261,0.16281 -0.545438,0 -0.808659,-0.33377 -0.263222,-0.33378 -0.263222,-1.02847 0,-0.30121 0.05699,-0.64584 0.0597,-0.34734 0.176386,-0.71639 0.0787,-0.24966 0.168244,-0.44775 0.09226,-0.1981 0.198095,-0.3582 0.238799,-0.34463 0.534584,-0.50745 0.295785,-0.16553 0.68926,-0.16553 0.548152,0 0.811373,0.33378 0.265935,0.33106 0.265935,1.02303 z m 0.9959,-1.28354 h 0.694688 l 0.716396,3.33504 0.648556,-3.33504 h 0.529157 l -0.789665,4.05144 h -0.694687 l -0.716397,-3.33505 -0.651269,3.33505 h -0.526443 z"
       id="text1"
       aria-label="WAVE PROPAGATION" /><path
       d="m 27.523752,256.2821 2.18466,-2.29555 2.05405,2.29555 h -4.12641"
       style="clip-rule:evenodd;display:none;fill:#d08c59;fill-rule:evenodd;stroke-width:0.352023;stroke-linecap:square;stroke-linejoin:round;stroke-miterlimit:1.5"
       id="path38" /><path
       d="m 45.881382,256.2821 2.18465,-2.29555 2.05406,2.29555 h -4.12642"
       style="clip-rule:evenodd;display:none;fill:#d08c59;fill-rule:evenodd;stroke-width:0.352023;stroke-linecap:square;stroke-linejoin:round;stroke-miterlimit:1.5"
       id="path39" /><path
       d="m 33.417682,268.35051 3.73355,-2.29519 0.50516,2.29519 h -4.12642"
       style="clip-rule:evenodd;display:none;fill:#d08c59;fill-rule:evenodd;stroke-width:0.352023;stroke-linecap:square;stroke-linejoin:round;stroke-miterlimit:1.5"
       id="path42" /><path
       d="m 21.305996,268.36705 0.49495,-2.29554 3.74376,2.29554 h -4.12641"
       style="clip-rule:evenodd;display:none;fill:#d08c59;fill-rule:evenodd;stroke-width:0.352023;stroke-linecap:square;stroke-linejoin:round;stroke-miterlimit:1.5"
       id="path43" /><path
       d="m 56.551202,268.36705 c -0.22072,-1.67739 -0.95293,-2.43564 -2.18466,-2.29554 0.14468,1.19618 -0.26753,2.10264 -2.05405,2.29554 h 4.12641"
       style="clip-rule:evenodd;display:none;fill:#d08c59;fill-rule:evenodd;stroke-width:0.352023;stroke-linecap:square;stroke-linejoin:round;stroke-miterlimit:1.5"
       id="path44" /><path
       d="m 39.802642,268.36705 c 0.22072,-1.67739 0.95293,-2.43564 2.1843,-2.29554 -0.14433,1.19618 0.26789,2.10264 2.05441,2.29554 h -4.12642"
       style="clip-rule:evenodd;display:none;fill:#d08c59;fill-rule:evenodd;stroke-width:0.352023;stroke-linecap:square;stroke-linejoin:round;stroke-miterlimit:1.5"
       id="path45" /><g
       aria-label="STEP WAVE"
       id="text324"
       style="font-size:5.64444px;stroke-width:0.264583;fill:#000000"><path
         d="m 64.0322,171.30682 -0.107487,0.565 q -0.223242,-0.16261 -0.46302,-0.24529 -0.239778,-0.0827 -0.496093,-0.0827 -0.454753,0 -0.741384,0.22599 -0.286632,0.226 -0.286632,0.57602 0,0.19568 0.135048,0.31695 0.135047,0.12127 0.490581,0.23151 l 0.333485,0.10749 q 0.44924,0.1378 0.655945,0.36931 0.209462,0.22876 0.209462,0.58429 0,0.64768 -0.457508,1.02802 -0.457509,0.37758 -1.248502,0.37758 -0.286632,0 -0.564995,-0.0634 -0.275608,-0.0606 -0.551215,-0.18466 l 0.112999,-0.57602 q 0.270095,0.19017 0.545703,0.28112 0.278363,0.0909 0.587044,0.0909 0.454752,0 0.738627,-0.24253 0.283876,-0.24254 0.283876,-0.61461 0,-0.226 -0.121267,-0.35002 -0.121267,-0.12402 -0.487825,-0.23702 l -0.278364,-0.0909 q -0.507117,-0.15985 -0.711067,-0.36105 -0.201193,-0.20395 -0.201193,-0.53743 0,-0.60909 0.454752,-0.99494 0.454752,-0.38861 1.187868,-0.38861 0.220486,0 0.468533,0.0551 0.250802,0.0551 0.512629,0.15985 z"
         style="font-style:italic;font-family:Menlo;-inkscape-font-specification:'Menlo Italic';fill:#000000"
         id="path457" /><path
         d="m 64.801145,171.16626 h 3.141925 l -0.09095,0.46854 h -1.2926 l -0.705555,3.64628 h -0.562239 l 0.711067,-3.64628 h -1.292598 z"
         style="font-style:italic;font-family:Menlo;-inkscape-font-specification:'Menlo Italic';fill:#000000"
         id="path459" /><path
         d="m 68.615552,171.16626 h 2.439126 l -0.09095,0.46854 h -1.885155 l -0.237022,1.21818 h 1.799717 l -0.08819,0.46853 H 68.7506 l -0.286632,1.49104 h 1.934764 l -0.09095,0.46853 h -2.494248 z"
         style="font-style:italic;font-family:Menlo;-inkscape-font-specification:'Menlo Italic';fill:#000000"
         id="path461" /><path
         d="m 72.476812,171.62377 -0.300412,1.54616 h 0.644922 q 0.454752,0 0.724847,-0.26183 0.272852,-0.26458 0.272852,-0.7028 0,-0.29765 -0.170877,-0.43821 -0.170877,-0.14332 -0.529166,-0.14332 z m -0.468532,-0.45751 h 1.212673 q 0.567751,0 0.865407,0.25356 0.297656,0.25356 0.297656,0.73312 0,0.68626 -0.440972,1.08038 -0.440972,0.39412 -1.212673,0.39412 h -0.642165 l -0.322461,1.65364 h -0.559483 z"
         style="font-style:italic;font-family:Menlo;-inkscape-font-specification:'Menlo Italic';fill:#000000"
         id="path463" /><path
         d="m 78.261811,171.16626 h 0.526411 l -0.248047,3.33485 0.906748,-2.20486 h 0.581532 l 0.04134,2.21038 1.03904,-3.34037 h 0.545703 l -1.405598,4.11482 h -0.534678 l -0.08544,-2.39778 -1.022503,2.39778 h -0.518142 z"
         style="font-style:italic;font-family:Menlo;-inkscape-font-specification:'Menlo Italic';fill:#000000"
         id="path465" /><path
         d="m 83.286136,171.62928 -1.003211,2.13321 h 1.185112 z m -0.264583,-0.46302 h 0.677995 l 0.457508,4.11482 h -0.553971 l -0.09646,-1.07211 h -1.433158 l -0.507118,1.07211 h -0.598068 z"
         style="font-style:italic;font-family:Menlo;-inkscape-font-specification:'Menlo Italic';fill:#000000"
         id="path467" /><path
         d="m 86.064259,174.75743 1.648132,-3.59117 h 0.592556 l -1.981617,4.11482 h -0.711067 l -0.405143,-4.11482 h 0.545702 z"
         style="font-style:italic;font-family:Menlo;-inkscape-font-specification:'Menlo Italic';fill:#000000"
         id="path469" /><path
         d="m 89.00499,171.16626 h 2.439125 l -0.09095,0.46854 H 89.46801 l -0.237022,1.21818 h 1.799716 l -0.08819,0.46853 h -1.802473 l -0.286632,1.49104 h 1.934765 l -0.09095,0.46853 h -2.494247 z"
         style="font-style:italic;font-family:Menlo;-inkscape-font-specification:'Menlo Italic';fill:#000000"
         id="path471" /></g><text
       xml:space="preserve"
       style="font-size:3.175px;fill:#ffffff;stroke-width:0.264583"
       x="69.043961"
       y="182.88414"
       id="text430"><tspan
         sodipodi:role="line"
         id="tspan428"
         style="stroke-width:0.264583"
         x="69.043961"
         y="182.88414"> </tspan></text><g
       aria-label="SHAPE"
       transform="rotate(-90,-6.0702641,-6.9998441)"
       id="text6789"
       style="font-style:italic;font-size:3.175px;font-family:Menlo;-inkscape-font-specification:'Menlo Italic';opacity:1;fill:#000000;stroke-width:0.352778"
       inkscape:transform-center-x="53.230269"
       inkscape:transform-center-y="2.5715106"><path
         d="m -266.30085,133.13435 -0.0605,0.31781 q -0.12557,-0.0915 -0.26045,-0.13798 -0.13487,-0.0465 -0.27905,-0.0465 -0.2558,0 -0.41703,0.12712 -0.16123,0.12712 -0.16123,0.32401 0,0.11007 0.076,0.17828 0.076,0.0682 0.27595,0.13023 l 0.18758,0.0605 q 0.2527,0.0775 0.36897,0.20774 0.11783,0.12867 0.11783,0.32866 0,0.36432 -0.25735,0.57826 -0.25735,0.21239 -0.70228,0.21239 -0.16124,0 -0.31781,-0.0357 -0.15503,-0.0341 -0.31006,-0.10386 l 0.0636,-0.32402 q 0.15193,0.10697 0.30696,0.15813 0.15658,0.0512 0.33021,0.0512 0.2558,0 0.41548,-0.13642 0.15968,-0.13643 0.15968,-0.34572 0,-0.12712 -0.0682,-0.19688 -0.0682,-0.0698 -0.27441,-0.13333 l -0.15658,-0.0512 q -0.28525,-0.0899 -0.39997,-0.20309 -0.11317,-0.11472 -0.11317,-0.30231 0,-0.34261 0.25579,-0.55965 0.2558,-0.21859 0.66818,-0.21859 0.12402,0 0.26355,0.031 0.14108,0.031 0.28836,0.0899 z"
         id="path6882"
         style="fill:#000000" /><path
         d="m -265.7288,133.05529 h 0.31316 l -0.18293,0.94877 h 0.85731 l 0.18293,-0.94877 h 0.31471 l -0.45113,2.31458 h -0.31316 l 0.21549,-1.10226 h -0.86041 l -0.21239,1.10226 h -0.31471 z"
         id="path6884"
         style="fill:#000000" /><path
         d="m -263.11655,133.31573 -0.56431,1.19993 h 0.66663 z m -0.14883,-0.26044 h 0.38137 l 0.25735,2.31458 h -0.31161 l -0.0543,-0.60306 h -0.80615 l -0.28526,0.60306 h -0.33641 z"
         id="path6886"
         style="fill:#000000" /><path
         d="m -261.55076,133.31263 -0.16898,0.86972 h 0.36277 q 0.2558,0 0.40773,-0.14728 0.15348,-0.14883 0.15348,-0.39532 0,-0.16744 -0.0961,-0.2465 -0.0961,-0.0806 -0.29766,-0.0806 z m -0.26355,-0.25734 h 0.68213 q 0.31936,0 0.48679,0.14262 0.16744,0.14263 0.16744,0.41238 0,0.38602 -0.24805,0.60772 -0.24805,0.22169 -0.68213,0.22169 h -0.36122 l -0.18138,0.93017 h -0.31471 z"
         id="path6888"
         style="fill:#000000" /><path
         d="m -259.8997,133.05529 h 1.37201 l -0.0512,0.26355 h -1.0604 l -0.13332,0.68522 h 1.01234 l -0.0496,0.26355 h -1.01389 l -0.16123,0.83871 h 1.0883 l -0.0512,0.26355 h -1.40301 z"
         id="path6890"
         style="fill:#000000" /></g><g
       aria-label="VALUE"
       transform="rotate(-90,8.646178,6.2807381)"
       id="text6801"
       style="font-style:italic;font-size:3.175px;font-family:Menlo;-inkscape-font-specification:'Menlo Italic';opacity:1;fill:#000000;stroke-width:0.352778"
       inkscape:transform-center-x="55.544629"
       inkscape:transform-center-y="4.8858701"><path
         d="m -227.30623,133.63942 0.92708,-2.02003 h 0.33331 l -1.11466,2.31459 h -0.39998 l -0.22789,-2.31459 h 0.30696 z"
         id="path6860"
         style="fill:#000000" /><path
         d="m -225.0459,131.87984 -0.56431,1.19992 h 0.66663 z m -0.14883,-0.26045 h 0.38137 l 0.25735,2.31459 h -0.31161 l -0.0543,-0.60307 h -0.80615 l -0.28525,0.60307 h -0.33642 z"
         id="path6862"
         style="fill:#000000" /><path
         d="m -223.7018,131.61939 h 0.31316 l -0.39997,2.05104 h 1.11776 l -0.0512,0.26355 h -1.43092 z"
         id="path6864"
         style="fill:#000000" /><path
         d="m -222.18406,133.04566 0.27595,-1.42627 h 0.31471 l -0.2775,1.42627 q -0.003,0.0202 -0.0124,0.0636 -0.0465,0.23874 -0.0465,0.33021 0,0.14263 0.0837,0.21394 0.0853,0.0713 0.2558,0.0713 0.13798,0 0.2341,-0.0434 0.0961,-0.045 0.16588,-0.14108 0.0341,-0.0481 0.0682,-0.16433 0.0357,-0.11782 0.0775,-0.33021 l 0.27596,-1.42627 h 0.31471 l -0.27596,1.42627 q -0.0651,0.33951 -0.13952,0.49919 -0.0729,0.15813 -0.19379,0.2558 -0.11007,0.0868 -0.25115,0.13333 -0.14107,0.045 -0.3054,0.045 -0.29766,0 -0.45889,-0.13952 -0.15968,-0.13953 -0.15968,-0.39688 0,-0.0574 0.0124,-0.15503 0.0139,-0.0977 0.0419,-0.24184 z"
         id="path6866"
         style="fill:#000000" /><path
         d="m -219.91753,131.61939 h 1.37201 l -0.0512,0.26355 h -1.0604 l -0.13333,0.68523 h 1.01234 l -0.0496,0.26355 h -1.01389 l -0.16123,0.83871 h 1.08831 l -0.0512,0.26355 h -1.40302 z"
         id="path6868"
         style="fill:#000000" /></g><g
       id="g32922"
       transform="translate(0,3.5752859)"
       style="fill:#000000"><path
         d="m 132.20387,208.75789 q 0.0992,0.0193 0.15847,0.0923 0.0606,0.073 0.13505,0.31694 l 0.16674,0.56224 h -0.27698 l -0.14607,-0.51952 q -0.0606,-0.21497 -0.13643,-0.28249 -0.0744,-0.0675 -0.226,-0.0675 h -0.26458 l -0.1695,0.86954 h -0.27974 l 0.39825,-2.05741 h 0.57327 q 0.28525,0 0.44097,0.12402 0.15709,0.12265 0.15709,0.34727 0,0.25218 -0.14331,0.41754 -0.14194,0.16537 -0.38723,0.19706 z m -0.40376,-0.85714 -0.14056,0.73036 h 0.30179 q 0.22462,0 0.35829,-0.11714 0.13504,-0.11851 0.13504,-0.31419 0,-0.15434 -0.0868,-0.226 -0.0868,-0.073 -0.27423,-0.073 z"
         style="font-style:italic;font-size:2.82222px;font-family:Menlo;-inkscape-font-specification:'Menlo Italic';text-align:center;text-anchor:middle;fill:#000000;stroke-width:0.352778"
         id="path6893" /><path
         d="m 133.2374,207.67199 h 0.27836 l -0.16261,0.84336 h 0.76206 l 0.16261,-0.84336 h 0.27974 l -0.40101,2.05741 h -0.27836 l 0.19154,-0.97978 h -0.76481 l -0.18879,0.97978 h -0.27974 z"
         style="font-style:italic;font-size:2.82222px;font-family:Menlo;-inkscape-font-specification:'Menlo Italic';text-align:center;text-anchor:middle;fill:#000000;stroke-width:0.352778"
         id="path6895" /><path
         d="m 134.81525,207.67199 h 0.27836 l 0.32522,0.8971 0.68489,-0.8971 h 0.30041 l -0.87506,1.13413 -0.17776,0.92328 h -0.28526 l 0.18053,-0.92328 z"
         style="font-style:italic;font-size:2.82222px;font-family:Menlo;-inkscape-font-specification:'Menlo Italic';text-align:center;text-anchor:middle;fill:#000000;stroke-width:0.352778"
         id="path6897" /><path
         d="m 136.51161,207.67199 h 1.57097 l -0.0455,0.23427 h -0.6463 l -0.35278,1.82314 h -0.28111 l 0.35553,-1.82314 h -0.6463 z"
         style="font-style:italic;font-size:2.82222px;font-family:Menlo;-inkscape-font-specification:'Menlo Italic';text-align:center;text-anchor:middle;fill:#000000;stroke-width:0.352778"
         id="path6899" /><path
         d="m 138.33476,207.67199 h 0.27836 l -0.16261,0.84336 h 0.76206 l 0.16261,-0.84336 h 0.27974 l -0.40101,2.05741 h -0.27837 l 0.19155,-0.97978 h -0.76481 l -0.18879,0.97978 h -0.27974 z"
         style="font-style:italic;font-size:2.82222px;font-family:Menlo;-inkscape-font-specification:'Menlo Italic';text-align:center;text-anchor:middle;fill:#000000;stroke-width:0.352778"
         id="path6901" /><path
         d="m 139.95946,207.67199 h 0.3707 l 0.15158,1.0418 0.57051,-1.0418 h 0.37207 l -0.40101,2.05741 h -0.25632 l 0.35554,-1.82865 -0.59807,1.09554 h -0.1943 l -0.15848,-1.09554 -0.35278,1.82865 h -0.25631 z"
         style="font-style:italic;font-size:2.82222px;font-family:Menlo;-inkscape-font-specification:'Menlo Italic';text-align:center;text-anchor:middle;fill:#000000;stroke-width:0.352778"
         id="path6903" /><path
         d="m 141.81981,207.67199 h 1.14377 l -0.0455,0.23427 h -0.4327 l -0.30731,1.58888 h 0.43271 l -0.0455,0.23426 h -1.14377 l 0.0455,-0.23426 h 0.43132 l 0.30868,-1.58888 h -0.4327 z"
         style="font-style:italic;font-size:2.82222px;font-family:Menlo;-inkscape-font-specification:'Menlo Italic';text-align:center;text-anchor:middle;fill:#000000;stroke-width:0.352778"
         id="path6905" /><path
         d="m 144.343,209.65637 q -0.11576,0.0565 -0.23427,0.0841 -0.11713,0.0289 -0.24253,0.0289 -0.31695,0 -0.49196,-0.18328 -0.17363,-0.18328 -0.17363,-0.51401 0,-0.30317 0.0965,-0.60083 0.0965,-0.29765 0.25356,-0.48644 0.14745,-0.17915 0.32522,-0.26459 0.17776,-0.0854 0.40514,-0.0854 0.11024,0 0.21911,0.0289 0.10886,0.0289 0.21221,0.0841 l -0.0565,0.28526 q -0.0882,-0.0868 -0.18603,-0.12954 -0.0978,-0.0427 -0.20808,-0.0427 -0.13092,0 -0.24254,0.0565 -0.11162,0.0551 -0.20946,0.1695 -0.14332,0.1695 -0.23151,0.43408 -0.0868,0.26459 -0.0868,0.53055 0,0.2384 0.10749,0.36518 0.10749,0.12678 0.31006,0.12678 0.11713,0 0.24115,-0.0441 0.12541,-0.0441 0.24667,-0.12816 z"
         style="font-style:italic;font-size:2.82222px;font-family:Menlo;-inkscape-font-specification:'Menlo Italic';text-align:center;text-anchor:middle;fill:#000000;stroke-width:0.352778"
         id="path6907" /><path
         d="m 131.6004,212.85203 q 0.25494,0 0.40928,-0.0854 0.15434,-0.0868 0.24804,-0.28112 0.0744,-0.15848 0.12127,-0.37758 0.0482,-0.22049 0.0482,-0.40377 0,-0.24253 -0.113,-0.34726 -0.113,-0.10473 -0.37896,-0.10473 h -0.15709 l -0.31144,1.5999 z m 0.36104,-1.82866 q 0.37621,0 0.56224,0.17088 0.18742,0.17088 0.18742,0.51814 0,0.22324 -0.0579,0.46027 -0.0579,0.23702 -0.15572,0.4203 -0.14332,0.2632 -0.35829,0.3762 -0.21359,0.11162 -0.57877,0.11162 h -0.41755 l 0.40101,-2.05741 z"
         style="font-style:italic;font-size:2.82222px;font-family:Menlo;-inkscape-font-specification:'Menlo Italic';text-align:center;text-anchor:middle;fill:#000000;stroke-width:0.352778"
         id="path6909" /><path
         d="m 133.32983,211.02337 h 1.14378 l -0.0455,0.23427 h -0.4327 l -0.30731,1.58888 h 0.43271 l -0.0455,0.23426 h -1.14377 l 0.0455,-0.23426 h 0.43132 l 0.30868,-1.58888 h -0.4327 z"
         style="font-style:italic;font-size:2.82222px;font-family:Menlo;-inkscape-font-specification:'Menlo Italic';text-align:center;text-anchor:middle;fill:#000000;stroke-width:0.352778"
         id="path6911" /><path
         d="m 136.13276,211.09365 -0.0537,0.2825 q -0.11162,-0.0813 -0.23151,-0.12264 -0.11989,-0.0413 -0.24805,-0.0413 -0.22737,0 -0.37069,0.113 -0.14332,0.11299 -0.14332,0.288 0,0.0978 0.0675,0.15848 0.0675,0.0606 0.24529,0.11575 l 0.16674,0.0537 q 0.22462,0.0689 0.32797,0.18466 0.10473,0.11438 0.10473,0.29214 0,0.32384 -0.22875,0.51401 -0.22875,0.18879 -0.62425,0.18879 -0.14332,0 -0.2825,-0.0317 -0.1378,-0.0303 -0.27561,-0.0923 l 0.0565,-0.28801 q 0.13505,0.0951 0.27286,0.14056 0.13918,0.0455 0.29352,0.0455 0.22737,0 0.36931,-0.12126 0.14194,-0.12127 0.14194,-0.30731 0,-0.11299 -0.0606,-0.17501 -0.0606,-0.062 -0.24392,-0.11851 l -0.13918,-0.0455 q -0.25356,-0.0799 -0.35553,-0.18052 -0.1006,-0.10198 -0.1006,-0.26872 0,-0.30454 0.22738,-0.49747 0.22737,-0.1943 0.59393,-0.1943 0.11024,0 0.23427,0.0276 0.1254,0.0276 0.25631,0.0799 z"
         style="font-style:italic;font-size:2.82222px;font-family:Menlo;-inkscape-font-specification:'Menlo Italic';text-align:center;text-anchor:middle;fill:#000000;stroke-width:0.352778"
         id="path6913" /><path
         d="m 136.95683,211.25213 -0.15021,0.77308 h 0.32246 q 0.22738,0 0.36243,-0.13092 0.13642,-0.13229 0.13642,-0.3514 0,-0.14882 -0.0854,-0.2191 -0.0854,-0.0717 -0.26458,-0.0717 z m -0.23427,-0.22876 h 0.60634 q 0.28387,0 0.4327,0.12678 0.14883,0.12678 0.14883,0.36656 0,0.34313 -0.22049,0.54019 -0.22048,0.19706 -0.60633,0.19706 h -0.32108 l -0.16123,0.82682 h -0.27975 z"
         style="font-style:italic;font-size:2.82222px;font-family:Menlo;-inkscape-font-specification:'Menlo Italic';text-align:center;text-anchor:middle;fill:#000000;stroke-width:0.352778"
         id="path6915" /><path
         d="m 138.45889,211.02337 h 0.27836 l -0.35553,1.82315 h 0.99356 l -0.0455,0.23426 h -1.27193 z"
         style="font-style:italic;font-size:2.82222px;font-family:Menlo;-inkscape-font-specification:'Menlo Italic';text-align:center;text-anchor:middle;fill:#000000;stroke-width:0.352778"
         id="path6917" /><path
         d="m 140.66237,211.25488 -0.50161,1.0666 h 0.59256 z m -0.13229,-0.23151 h 0.339 l 0.22875,2.05741 h -0.27699 l -0.0482,-0.53605 h -0.71658 l -0.25355,0.53605 h -0.29904 z"
         style="font-style:italic;font-size:2.82222px;font-family:Menlo;-inkscape-font-specification:'Menlo Italic';text-align:center;text-anchor:middle;fill:#000000;stroke-width:0.352778"
         id="path6919" /><path
         d="m 142.6495,213.00775 q -0.11575,0.0565 -0.23427,0.0841 -0.11713,0.0289 -0.24253,0.0289 -0.31695,0 -0.49196,-0.18328 -0.17363,-0.18328 -0.17363,-0.51401 0,-0.30317 0.0965,-0.60082 0.0965,-0.29766 0.25356,-0.48645 0.14745,-0.17915 0.32522,-0.26458 0.17776,-0.0854 0.40514,-0.0854 0.11024,0 0.21911,0.0289 0.10886,0.0289 0.21221,0.0841 l -0.0565,0.28525 q -0.0882,-0.0868 -0.18604,-0.12954 -0.0978,-0.0427 -0.20808,-0.0427 -0.13092,0 -0.24254,0.0565 -0.11162,0.0551 -0.20946,0.1695 -0.14332,0.1695 -0.23151,0.43408 -0.0868,0.26459 -0.0868,0.53055 0,0.2384 0.10749,0.36518 0.10749,0.12678 0.31006,0.12678 0.11713,0 0.24116,-0.0441 0.1254,-0.0441 0.24666,-0.12816 z"
         style="font-style:italic;font-size:2.82222px;font-family:Menlo;-inkscape-font-specification:'Menlo Italic';text-align:center;text-anchor:middle;fill:#000000;stroke-width:0.352778"
         id="path6921" /><path
         d="m 143.5218,211.02337 h 1.21956 l -0.0455,0.23427 h -0.94258 l -0.11851,0.60909 h 0.89986 l -0.0441,0.23427 h -0.90124 l -0.14331,0.74552 h 0.96738 l -0.0455,0.23426 h -1.24712 z"
         style="font-style:italic;font-size:2.82222px;font-family:Menlo;-inkscape-font-specification:'Menlo Italic';text-align:center;text-anchor:middle;fill:#000000;stroke-width:0.352778"
         id="path6923" /><path
         d="m 145.06244,211.02337 h 0.3707 l 0.15158,1.0418 0.57051,-1.0418 h 0.37207 l -0.40101,2.05741 h -0.25632 l 0.35554,-1.82865 -0.59807,1.09554 h -0.1943 l -0.15848,-1.09554 -0.35278,1.82865 h -0.25631 z"
         style="font-style:italic;font-size:2.82222px;font-family:Menlo;-inkscape-font-specification:'Menlo Italic';text-align:center;text-anchor:middle;fill:#000000;stroke-width:0.352778"
         id="path6925" /><path
         d="m 146.92004,211.02337 h 1.21956 l -0.0455,0.23427 h -0.94257 l -0.11851,0.60909 h 0.89985 l -0.0441,0.23427 h -0.90124 l -0.14331,0.74552 h 0.96738 l -0.0455,0.23426 h -1.24712 z"
         style="font-style:italic;font-size:2.82222px;font-family:Menlo;-inkscape-font-specification:'Menlo Italic';text-align:center;text-anchor:middle;fill:#000000;stroke-width:0.352778"
         id="path6927" /><path
         d="m 148.53785,211.02337 h 0.35278 l 0.3638,1.69361 0.32935,-1.69361 h 0.26872 l -0.40101,2.05741 h -0.35278 l -0.3638,-1.6936 -0.33073,1.6936 h -0.26734 z"
         style="font-style:italic;font-size:2.82222px;font-family:Menlo;-inkscape-font-specification:'Menlo Italic';text-align:center;text-anchor:middle;fill:#000000;stroke-width:0.352778"
         id="path6929" /><path
         d="m 150.11019,211.02337 h 1.57096 l -0.0455,0.23427 h -0.6463 l -0.35278,1.82314 h -0.28112 l 0.35554,-1.82314 h -0.6463 z"
         style="font-style:italic;font-size:2.82222px;font-family:Menlo;-inkscape-font-specification:'Menlo Italic';text-align:center;text-anchor:middle;fill:#000000;stroke-width:0.352778"
         id="path6931" /></g><path
       style="opacity:1;fill:#ffffff;stroke:#000000;stroke-width:0.352777;stroke-dasharray:none;stroke-opacity:1.0"
       d="m 143.95761,226.96708 v 11.94831"
       id="path7360" /><path
       style="opacity:1;fill:#ffffff;stroke:#000000;stroke-width:0.352777;stroke-dasharray:none;stroke-opacity:1.0"
       d="m 8.4233885,195.21703 v 11.94831"
       id="path8052" /><path
       style="fill:none;stroke:#000000;stroke-width:0.35177;stroke-dasharray:none;stroke-opacity:1"
       d="m 32.240036,205.36298 v 20.27545"
       id="path9110" /><path
       style="fill:none;stroke:#000000;stroke-width:0.35177;stroke-dasharray:none;stroke-opacity:1"
       d="m 47.11437,205.36298 v 20.27545"
       id="path9112" /><path
       style="fill:none;stroke:#000000;stroke-width:0.35177;stroke-dasharray:none;stroke-opacity:1"
       d="m 61.988704,205.36298 v 20.27545"
       id="path9114" /><path
       style="fill:none;stroke:#000000;stroke-width:0.35177;stroke-dasharray:none;stroke-opacity:1"
       d="m 76.863038,205.36298 v 20.27545"
       id="path9116" /><path
       style="fill:none;stroke:#000000;stroke-width:0.35177;stroke-dasharray:none;stroke-opacity:1"
       d="m 91.737372,205.36298 v 20.27545"
       id="path9118" /><path
       style="fill:none;stroke:#000000;stroke-width:0.35177;stroke-dasharray:none;stroke-opacity:1"
       d="m 106.61171,205.36298 v 20.27545"
       id="path9120" /><path
       style="fill:none;stroke:#000000;stroke-width:0.35177;stroke-dasharray:none;stroke-opacity:1"
       d="m 121.48604,205.36298 v 20.27545"
       id="path9122" /><path
       style="opacity:1;fill:#999999;stroke:#999999;stroke-width:0.35277778;stroke-dasharray:none;stroke-opacity:1"
       d="M 131.91847,221.21594 H 8.3143923"
       id="path9885" /><g
       aria-label="BEATS"
       transform="rotate(-90,8.4762639,7.4819639)"
       id="text6785"
       style="font-style:italic;font-size:3.175px;font-family:Menlo;-inkscape-font-specification:'Menlo Italic';display:inline;fill:#000000;stroke-width:0.352778"><path
         d="m -253.2606,134.19979 -0.16589,0.84801 h 0.38448 q 0.28525,0 0.43563,-0.13488 0.15193,-0.13487 0.15193,-0.38912 0,-0.16588 -0.10542,-0.24495 -0.10542,-0.0791 -0.32711,-0.0791 z m 0.18293,-0.95188 -0.13643,0.69763 h 0.37828 q 0.23409,0 0.36741,-0.11162 0.13488,-0.11317 0.13488,-0.31006 0,-0.14573 -0.0868,-0.21084 -0.0853,-0.0651 -0.27905,-0.0651 z m -0.26355,-0.25735 h 0.68678 q 0.31471,0 0.47594,0.12402 0.16123,0.12247 0.16123,0.36122 0,0.23874 -0.14263,0.39998 -0.14262,0.15968 -0.38447,0.19068 0.19379,0.0357 0.29611,0.15813 0.10387,0.12247 0.10387,0.31471 0,0.36277 -0.24805,0.56431 -0.2465,0.20154 -0.69763,0.20154 h -0.70074 z"
         id="path6871"
         style="fill:#000000" /><path
         d="m -251.38165,132.99056 h 1.37201 l -0.0512,0.26355 h -1.0604 l -0.13333,0.68523 h 1.01235 l -0.0496,0.26355 h -1.0139 l -0.16123,0.83871 h 1.08831 l -0.0512,0.26355 h -1.40302 z"
         id="path6873"
         style="fill:#000000" /><path
         d="m -248.86397,133.25101 -0.56431,1.19992 h 0.66663 z m -0.14883,-0.26045 h 0.38137 l 0.25735,2.31459 h -0.31161 l -0.0543,-0.60307 h -0.80615 l -0.28526,0.60307 h -0.33641 z"
         id="path6875"
         style="fill:#000000" /><path
         d="m -247.79272,132.99056 h 1.76733 l -0.0512,0.26355 h -0.72709 l -0.39687,2.05104 h -0.31626 l 0.39998,-2.05104 h -0.72709 z"
         id="path6877"
         style="fill:#000000" /><path
         d="m -244.40223,133.06962 -0.0605,0.31781 q -0.12558,-0.0915 -0.26045,-0.13797 -0.13488,-0.0465 -0.27905,-0.0465 -0.2558,0 -0.41703,0.12712 -0.16123,0.12713 -0.16123,0.32401 0,0.11007 0.076,0.17829 0.076,0.0682 0.27595,0.13022 l 0.18759,0.0605 q 0.2527,0.0775 0.36897,0.20774 0.11782,0.12868 0.11782,0.32866 0,0.36432 -0.25735,0.57826 -0.25735,0.21239 -0.70228,0.21239 -0.16123,0 -0.31781,-0.0357 -0.15503,-0.0341 -0.31006,-0.10387 l 0.0636,-0.32401 q 0.15193,0.10697 0.30696,0.15813 0.15658,0.0512 0.33021,0.0512 0.2558,0 0.41548,-0.13643 0.15968,-0.13643 0.15968,-0.34572 0,-0.12712 -0.0682,-0.19688 -0.0682,-0.0698 -0.2744,-0.13333 l -0.15658,-0.0512 q -0.28526,-0.0899 -0.39998,-0.20309 -0.11317,-0.11472 -0.11317,-0.3023 0,-0.34262 0.2558,-0.55966 0.2558,-0.21859 0.66817,-0.21859 0.12403,0 0.26355,0.031 0.14108,0.031 0.28836,0.0899 z"
         id="path6879"
         style="fill:#000000" /></g><g
       aria-label="STAGE"
       transform="rotate(-90,0.79374999,0.79374999)"
       id="text18825"
       style="font-style:italic;font-size:3.175px;font-family:Menlo;-inkscape-font-specification:'Menlo Italic';text-align:center;text-anchor:middle;opacity:1;fill:#ffffff;stroke-width:0.352777"
       inkscape:transform-center-x="0.2571514"
       inkscape:transform-center-y="-2.0572085"><path
         d="m -286.85051,134.19793 -0.0605,0.31781 q -0.12557,-0.0915 -0.26045,-0.13797 -0.13487,-0.0465 -0.27905,-0.0465 -0.2558,0 -0.41703,0.12712 -0.16123,0.12713 -0.16123,0.32401 0,0.11008 0.076,0.17829 0.076,0.0682 0.27595,0.13022 l 0.18758,0.0605 q 0.2527,0.0775 0.36897,0.20774 0.11782,0.12868 0.11782,0.32867 0,0.36431 -0.25734,0.57825 -0.25735,0.21239 -0.70229,0.21239 -0.16123,0 -0.31781,-0.0357 -0.15503,-0.0341 -0.31006,-0.10387 l 0.0636,-0.32401 q 0.15193,0.10697 0.30695,0.15813 0.15658,0.0512 0.33022,0.0512 0.2558,0 0.41548,-0.13643 0.15968,-0.13642 0.15968,-0.34571 0,-0.12713 -0.0682,-0.19689 -0.0682,-0.0698 -0.2744,-0.13333 l -0.15658,-0.0512 q -0.28525,-0.0899 -0.39997,-0.20308 -0.11318,-0.11473 -0.11318,-0.30231 0,-0.34262 0.2558,-0.55966 0.2558,-0.21859 0.66818,-0.21859 0.12402,0 0.26355,0.031 0.14108,0.031 0.28835,0.0899 z"
         style="stroke-width:0.352778;fill:#ffffff"
         id="path19169" /><path
         d="m -286.41797,134.11887 h 1.76733 l -0.0512,0.26355 h -0.72709 l -0.39687,2.05104 h -0.31626 l 0.39997,-2.05104 h -0.72708 z"
         style="stroke-width:0.352778;fill:#ffffff"
         id="path19171" /><path
         d="m -283.6662,134.37932 -0.56431,1.19993 h 0.66662 z m -0.14883,-0.26045 h 0.38137 l 0.25735,2.31459 h -0.31161 l -0.0543,-0.60307 h -0.80615 l -0.28526,0.60307 H -284.97 Z"
         style="stroke-width:0.352778;fill:#ffffff"
         id="path19173" /><path
         d="m -281.39193,136.28463 q -0.13487,0.0961 -0.29455,0.14573 -0.15968,0.048 -0.34107,0.048 -0.35966,0 -0.55345,-0.20773 -0.19224,-0.20929 -0.19224,-0.59532 0,-0.13952 0.0248,-0.2961 0.0263,-0.15813 0.076,-0.33022 0.0543,-0.18138 0.12713,-0.32711 0.0729,-0.14727 0.15968,-0.25114 0.16588,-0.20154 0.36587,-0.29766 0.20153,-0.0961 0.45888,-0.0961 0.12403,0 0.2465,0.0326 0.12402,0.0326 0.2434,0.0946 l -0.0636,0.32091 q -0.10077,-0.0977 -0.21239,-0.14573 -0.11007,-0.0481 -0.23564,-0.0481 -0.15193,0 -0.28526,0.0651 -0.13332,0.0636 -0.23874,0.18914 -0.0682,0.0806 -0.12867,0.20154 -0.0605,0.12092 -0.10697,0.2713 -0.0527,0.17673 -0.0806,0.33176 -0.0264,0.15503 -0.0264,0.2806 0,0.2651 0.12248,0.40928 0.12247,0.14418 0.34726,0.14418 0.10542,0 0.18914,-0.0279 0.0837,-0.0294 0.14108,-0.0837 l 0.11782,-0.60927 h -0.33642 l 0.0465,-0.25735 h 0.63562 z"
         style="stroke-width:0.352778;fill:#ffffff"
         id="path19175" /><path
         d="m -280.44935,134.11887 h 1.37201 l -0.0512,0.26355 h -1.0604 l -0.13332,0.68523 h 1.01234 l -0.0496,0.26355 h -1.01389 l -0.16123,0.83871 h 1.0883 l -0.0512,0.26355 h -1.40301 z"
         style="stroke-width:0.352778;fill:#ffffff"
         id="path19177" /></g><path
       style="fill:none;stroke:#333333;stroke-width:0.351762;stroke-dasharray:none;stroke-opacity:1"
       d="m 32.010881,183.49028 v 20.275"
       id="path19613" /><path
       style="fill:none;stroke:#333333;stroke-width:0.351762;stroke-dasharray:none;stroke-opacity:1"
       d="m 46.856381,183.49028 v 20.275"
       id="path19615" /><path
       style="fill:none;stroke:#333333;stroke-width:0.351762;stroke-dasharray:none;stroke-opacity:1"
       d="m 61.701881,183.49028 v 20.275"
       id="path19617" /><path
       style="fill:none;stroke:#333333;stroke-width:0.351762;stroke-dasharray:none;stroke-opacity:1"
       d="m 76.547381,183.49028 v 20.275"
       id="path19619" /><path
       style="fill:none;stroke:#333333;stroke-width:0.351762;stroke-dasharray:none;stroke-opacity:1"
       d="m 91.39288,183.49028 v 20.275"
       id="path19621" /><path
       style="fill:none;stroke:#333333;stroke-width:0.351762;stroke-dasharray:none;stroke-opacity:1"
       d="m 106.23838,183.49028 v 20.275"
       id="path19623" /><path
       style="fill:none;stroke:#333333;stroke-width:0.351762;stroke-dasharray:none;stroke-opacity:1"
       d="m 121.08388,183.49028 v 20.275"
       id="path19625" /><path
       style="opacity:0.5;fill:none;stroke:#4d4d4d;stroke-width:0.365707;stroke-dasharray:none;stroke-opacity:1"
       d="M 135.888,193.82083 H 16.23"
       id="path19627" /><path
       id="path33032"
       style="opacity:1;fill:none;stroke:#000000;stroke-width:0.307705;stroke-opacity:1.0"
       d="m 25.183181,266.07003 c -4.427181,0 -8.016121,-3.92858 -8.016124,-8.77474 -2e-6,-4.84616 3.588939,-8.77475 8.016124,-8.77475"
       sodipodi:nodetypes="csc" /><path
       style="opacity:1;fill:#ffffff;stroke:#000000;stroke-width:0.352777;stroke-dasharray:none;stroke-opacity:1.0"
       d="m 8.4233885,271.04175 v 11.94831"
       id="path34208" /><path
       style="opacity:1;fill:#ffffff;stroke:#000000;stroke-width:0.352777;stroke-dasharray:none;stroke-opacity:1.0"
       d="M 17.462074,258.11796 H 5.5137643"
       id="path38571" /><g
       aria-label="CLOCK"
       id="text3744"
       style="font-style:italic;font-size:3.52778px;font-family:Menlo;-inkscape-font-specification:'Menlo Italic';text-align:center;text-anchor:middle;display:inline;fill:#000000;stroke-width:0.352777"><path
         d="m 4.8289149,188.15788 q -0.1446941,0.0706 -0.2928333,0.10508 -0.1464166,0.0362 -0.3031686,0.0362 -0.3961862,0 -0.6149499,-0.2291 -0.2170412,-0.2291 -0.2170412,-0.64251 0,-0.37896 0.1205784,-0.75103 0.1205785,-0.37207 0.316949,-0.60806 0.1843127,-0.22393 0.4065216,-0.33073 0.2222088,-0.1068 0.5064293,-0.1068 0.1378039,0 0.2738853,0.0362 0.1360813,0.0362 0.2652725,0.10507 l -0.070625,0.35657 q -0.1102431,-0.10852 -0.2325441,-0.16192 -0.122301,-0.0534 -0.2601049,-0.0534 -0.1636421,0 -0.3031686,0.0706 -0.1395264,0.0689 -0.2618274,0.21188 -0.1791451,0.21187 -0.2893882,0.5426 -0.1085206,0.33073 -0.1085206,0.66318 0,0.298 0.1343588,0.45648 0.1343588,0.15847 0.3875735,0.15847 0.1464167,0 0.3014461,-0.0551 0.1567519,-0.0551 0.3083362,-0.1602 z"
         style="stroke-width:0.352778;fill:#000000"
         id="path4143" /><path
         d="M 5.9623521,185.67741 H 6.310307 l -0.4444176,2.27893 h 1.2419577 l -0.056844,0.29284 H 5.4610904 Z"
         style="stroke-width:0.352778;fill:#000000"
         id="path4145" /><path
         d="m 8.3153539,188.01663 q 0.1464167,0 0.2704402,-0.0879 0.1240235,-0.0879 0.2049833,-0.25149 0.1274686,-0.24977 0.2067059,-0.60461 0.079237,-0.35485 0.079237,-0.68213 0,-0.24461 -0.091295,-0.36002 -0.089573,-0.11713 -0.2790529,-0.11713 -0.1464166,0 -0.2687176,0.0879 -0.122301,0.0879 -0.2032608,0.25149 -0.1309137,0.25322 -0.2101509,0.60462 -0.079237,0.3514 -0.079237,0.67868 0,0.24633 0.089573,0.36346 0.091295,0.11713 0.2807748,0.11713 z m 1.1179342,-1.52445 q 0,0.18948 -0.039619,0.41169 -0.037896,0.2222 -0.1119657,0.45647 -0.049954,0.15848 -0.1085206,0.28422 -0.056844,0.12575 -0.1240235,0.22738 -0.1515843,0.21876 -0.3393421,0.32384 -0.1877578,0.10335 -0.4375274,0.10335 -0.3462323,0 -0.5133196,-0.21187 -0.1670872,-0.21188 -0.1670872,-0.65285 0,-0.1912 0.036173,-0.40997 0.037896,-0.22048 0.1119657,-0.45475 0.049954,-0.15847 0.106798,-0.28422 0.058567,-0.12575 0.1257461,-0.22738 0.1515843,-0.21876 0.3393421,-0.32211 0.1877578,-0.10508 0.4375274,-0.10508 0.3479549,0 0.5150421,0.21188 0.1688098,0.21015 0.1688107,0.6494 z"
         style="stroke-width:0.352778;fill:#000000"
         id="path4147" /><path
         d="m 11.200623,188.15788 q -0.144694,0.0706 -0.292833,0.10508 -0.146417,0.0362 -0.303169,0.0362 -0.396186,0 -0.6149495,-0.2291 -0.2170412,-0.2291 -0.2170412,-0.64251 0,-0.37896 0.1205784,-0.75103 0.1205783,-0.37207 0.3169493,-0.60806 0.184312,-0.22393 0.406521,-0.33073 0.222209,-0.1068 0.50643,-0.1068 0.137804,0 0.273885,0.0362 0.136081,0.0362 0.265272,0.10507 l -0.07062,0.35657 q -0.110243,-0.10852 -0.232544,-0.16192 -0.122301,-0.0534 -0.260105,-0.0534 -0.163642,0 -0.303169,0.0706 -0.139526,0.0689 -0.261827,0.21188 -0.179145,0.21187 -0.289388,0.5426 -0.108521,0.33073 -0.108521,0.66318 0,0.298 0.134359,0.45648 0.134359,0.15847 0.387573,0.15847 0.146417,0 0.301446,-0.0551 0.156752,-0.0551 0.308337,-0.1602 z"
         style="stroke-width:0.352778;fill:#000000"
         id="path4149" /><path
         d="m 12.185921,185.67741 h 0.347955 l -0.218764,1.11449 1.278132,-1.11449 h 0.437527 l -1.210952,1.06626 0.737251,1.50551 h -0.377238 l -0.620118,-1.27641 -0.332452,0.28939 -0.192925,0.98702 H 11.68466 Z"
         style="stroke-width:0.352778;fill:#000000"
         id="path4151" /></g><g
       aria-label="ON/OFF"
       id="text3902"
       style="font-style:italic;font-size:3.52778px;font-family:Menlo;-inkscape-font-specification:'Menlo Italic';text-align:center;text-anchor:middle;display:inline;fill:#000000;stroke-width:0.352777"><path
         d="m 3.0055969,211.68163 q 0.1464167,0 0.2704402,-0.0879 0.1240235,-0.0879 0.2049833,-0.2515 0.1274686,-0.24977 0.2067059,-0.60461 0.079237,-0.35485 0.079237,-0.68213 0,-0.2446 -0.091295,-0.36001 -0.089573,-0.11714 -0.279053,-0.11714 -0.1464166,0 -0.2687176,0.0878 -0.122301,0.0879 -0.2032607,0.2515 -0.1309138,0.25321 -0.210151,0.60461 -0.079237,0.3514 -0.079237,0.67868 0,0.24633 0.089573,0.36346 0.091295,0.11714 0.2807754,0.11714 z m 1.1179343,-1.52446 q 0,0.18948 -0.039619,0.41169 -0.037896,0.22221 -0.1119656,0.45647 -0.049954,0.15848 -0.1085206,0.28422 -0.056844,0.12575 -0.1240235,0.22738 -0.1515843,0.21876 -0.3393422,0.32384 -0.1877578,0.10335 -0.4375274,0.10335 -0.3462323,0 -0.5133195,-0.21187 -0.1670873,-0.21187 -0.1670873,-0.65285 0,-0.1912 0.036174,-0.40996 0.037896,-0.22049 0.1119656,-0.45476 0.049954,-0.15847 0.1067981,-0.28422 0.058567,-0.12574 0.125746,-0.22737 0.1515843,-0.21877 0.3393422,-0.32212 0.1877578,-0.10507 0.4375274,-0.10507 0.3479548,0 0.5150421,0.21187 0.1688098,0.21015 0.1688097,0.6494 z"
         style="stroke-width:0.352778;fill:#000000"
         id="path4130" /><path
         d="m 4.7557066,209.3424 h 0.4409726 l 0.4547528,2.11702 0.4116892,-2.11702 h 0.3358971 l -0.5012618,2.57177 H 5.456784 l -0.4547529,-2.11701 -0.4134117,2.11701 H 4.2544449 Z"
         style="stroke-width:0.352778;fill:#000000"
         id="path4132" /><path
         d="m 6.4162438,212.24145 1.4676116,-2.89905 h 0.3290069 l -1.4710568,2.89905 z"
         style="stroke-width:0.352778;fill:#000000"
         id="path4134" /><path
         d="m 9.3773053,211.68163 q 0.1464167,0 0.2704402,-0.0879 0.1240235,-0.0879 0.2049833,-0.2515 0.1274686,-0.24977 0.2067062,-0.60461 0.07924,-0.35485 0.07924,-0.68213 0,-0.2446 -0.0913,-0.36001 -0.089573,-0.11714 -0.2790531,-0.11714 -0.1464166,0 -0.2687176,0.0878 -0.122301,0.0879 -0.2032608,0.2515 -0.1309137,0.25321 -0.2101509,0.60461 -0.079237,0.3514 -0.079237,0.67868 0,0.24633 0.089573,0.36346 0.091295,0.11714 0.2807754,0.11714 z m 1.1179347,-1.52446 q 0,0.18948 -0.03962,0.41169 -0.0379,0.22221 -0.111966,0.45647 -0.04995,0.15848 -0.10852,0.28422 -0.05684,0.12575 -0.124024,0.22738 -0.1515841,0.21876 -0.339342,0.32384 -0.1877578,0.10335 -0.4375274,0.10335 -0.3462323,0 -0.5133195,-0.21187 -0.1670873,-0.21187 -0.1670873,-0.65285 0,-0.1912 0.036174,-0.40996 0.037896,-0.22049 0.1119657,-0.45476 0.049954,-0.15847 0.1067981,-0.28422 0.058567,-0.12574 0.125746,-0.22737 0.1515843,-0.21877 0.3393421,-0.32212 0.1877579,-0.10507 0.4375275,-0.10507 0.3479548,0 0.5150418,0.21187 0.16881,0.21015 0.168811,0.6494 z"
         style="stroke-width:0.352778;fill:#000000"
         id="path4136" /><path
         d="m 11.296225,209.3424 h 1.51412 l -0.05684,0.29284 h -1.164443 l -0.148139,0.75792 h 1.0542 l -0.05512,0.29283 h -1.055922 l -0.239434,1.22818 h -0.349678 z"
         style="stroke-width:0.352778;fill:#000000"
         id="path4138" /><path
         d="m 13.420128,209.3424 h 1.514121 l -0.05684,0.29284 h -1.164443 l -0.148139,0.75792 h 1.0542 l -0.05512,0.29283 h -1.055923 l -0.239434,1.22818 h -0.349678 z"
         style="stroke-width:0.352778;fill:#000000"
         id="path4140" /></g><g
       aria-label="TRACK"
       id="text3993"
       style="font-style:italic;font-size:3.52777px;font-family:Menlo;-inkscape-font-specification:'Menlo Italic';text-align:center;text-anchor:middle;display:inline;fill:#000000;stroke-width:0.352777"><path
         d="m 5.9188188,228.4106 h 1.9637001 l -0.056844,0.29284 H 7.0178018 l -0.4409712,2.27892 H 6.2254316 L 6.669848,228.70344 H 5.8619748 Z"
         style="stroke-width:0.352778;fill:#000000"
         id="path4119" /><path
         d="m 9.0297331,229.76797 q 0.1240231,0.0241 0.1980925,0.11541 0.075792,0.0913 0.1688093,0.39618 l 0.2084279,0.7028 H 9.2588314 l -0.1825896,-0.6494 q -0.075792,-0.26872 -0.1705319,-0.35312 -0.093017,-0.0844 -0.2824972,-0.0844 H 8.2924843 l -0.2118729,1.08692 H 7.7309349 l 0.4978152,-2.57176 h 0.7165783 q 0.3565666,0 0.5512141,0.15503 0.19637,0.15331 0.19637,0.43408 0,0.31523 -0.1791446,0.52193 -0.177422,0.20671 -0.4840348,0.24633 z m -0.5047054,-1.07143 -0.1756995,0.91295 h 0.3772371 q 0.2807747,0 0.4478615,-0.14641 0.1688093,-0.14814 0.1688093,-0.39274 0,-0.19293 -0.1085203,-0.2825 -0.1085203,-0.0913 -0.3427862,-0.0913 z"
         style="stroke-width:0.352778;fill:#000000"
         id="path4121" /><path
         d="m 11.100231,228.69999 -0.627006,1.33325 h 0.740694 z m -0.165364,-0.28939 h 0.423745 l 0.285943,2.57176 h -0.346232 l -0.06029,-0.67007 H 10.34231 l -0.316948,0.67007 H 9.6515713 Z"
         style="stroke-width:0.352778;fill:#000000"
         id="path4123" /><path
         d="m 13.584139,230.89107 q -0.144694,0.0706 -0.292832,0.10507 -0.146417,0.0362 -0.303168,0.0362 -0.396185,0 -0.614948,-0.22909 -0.217041,-0.2291 -0.217041,-0.64251 0,-0.37896 0.120578,-0.75103 0.120578,-0.37207 0.316948,-0.60806 0.184313,-0.22393 0.406521,-0.33073 0.222208,-0.1068 0.506428,-0.1068 0.137803,0 0.273884,0.0362 0.136081,0.0362 0.265272,0.10507 l -0.07062,0.35657 q -0.110243,-0.10852 -0.232544,-0.16192 -0.1223,-0.0534 -0.260104,-0.0534 -0.163642,0 -0.303168,0.0706 -0.139526,0.0689 -0.261826,0.21187 -0.179145,0.21187 -0.289388,0.5426 -0.10852,0.33073 -0.10852,0.66318 0,0.298 0.134358,0.45647 0.134359,0.15848 0.387573,0.15848 0.146416,0 0.301445,-0.0551 0.156751,-0.0551 0.308335,-0.1602 z"
         style="stroke-width:0.352778;fill:#000000"
         id="path4125" /><path
         d="m 14.569434,228.4106 h 0.347954 l -0.218763,1.11449 1.278128,-1.11449 h 0.437526 l -1.210949,1.06626 0.737249,1.5055 h -0.377237 l -0.620116,-1.2764 -0.332451,0.28938 -0.192925,0.98702 h -0.349676 z"
         style="stroke-width:0.352778;fill:#000000"
         id="path4127" /></g><g
       aria-label="LINK"
       id="text4066"
       style="font-style:italic;font-size:3.52777px;font-family:Menlo;-inkscape-font-specification:'Menlo Italic';text-align:center;text-anchor:middle;display:inline;fill:#000000;stroke-width:0.352777"><path
         d="M 7.2842601,249.21099 H 7.632214 l -0.4444164,2.27892 h 1.2419542 l -0.056844,0.29284 h -1.589908 z"
         style="stroke-width:0.352778;fill:#000000"
         id="path4110" /><path
         d="M 9.3685382,249.21099 H 10.79825 l -0.05684,0.29283 h -0.540879 l -0.3841274,1.98609 h 0.5408784 l -0.05684,0.29284 H 8.870723 l 0.056844,-0.29284 H 9.4667232 L 9.852573,249.50382 H 9.3116942 Z"
         style="stroke-width:0.352778;fill:#000000"
         id="path4112" /><path
         d="m 11.38736,249.21099 h 0.440971 l 0.454751,2.117 0.411688,-2.117 h 0.335897 l -0.501261,2.57176 h -0.440971 l -0.454752,-2.11701 -0.41341,2.11701 h -0.334174 z"
         style="stroke-width:0.352778;fill:#000000"
         id="path4114" /><path
         d="m 13.507811,249.21099 h 0.347954 l -0.218763,1.11448 1.278128,-1.11448 h 0.437526 l -1.210949,1.06625 0.737249,1.50551 h -0.377237 l -0.620116,-1.27641 -0.332451,0.28939 -0.192925,0.98702 h -0.349676 z"
         style="stroke-width:0.352778;fill:#000000"
         id="path4116" /></g><g
       aria-label="RESET"
       id="text4070"
       style="font-style:italic;font-size:3.52778px;font-family:Menlo;-inkscape-font-specification:'Menlo Italic';text-align:center;text-anchor:middle;display:inline;fill:#000000;stroke-width:0.352777"><path
         d="m 4.5223012,288.8453 q 0.1240235,0.0241 0.1980931,0.11541 0.075792,0.0913 0.1688098,0.39618 l 0.2084284,0.7028 H 4.7514002 L 4.56881,289.41029 q -0.075792,-0.26872 -0.1705323,-0.35312 -0.093018,-0.0844 -0.282498,-0.0844 H 3.7850503 L 3.5731768,290.0597 H 3.2234994 l 0.4978166,-2.57176 h 0.7165803 q 0.3565676,0 0.5512157,0.15503 0.1963705,0.1533 0.1963705,0.43408 0,0.31523 -0.1791451,0.52193 -0.1774225,0.20671 -0.4840362,0.24633 z m -0.5047068,-1.07143 -0.1757,0.91295 h 0.3772382 q 0.2807755,0 0.4478627,-0.14642 0.1688098,-0.14813 0.1688098,-0.39274 0,-0.19292 -0.1085206,-0.28249 -0.1085205,-0.0913 -0.3427872,-0.0913 z"
         style="stroke-width:0.352778;fill:#000000"
         id="path4099" /><path
         d="M 5.9192884,287.48793 H 7.4437441 L 7.3869,287.78076 H 6.2086766 l -0.1481392,0.76137 h 1.1248244 l -0.055122,0.29283 H 6.0036933 l -0.1791451,0.9319 h 1.2092293 l -0.056844,0.29283 H 5.4180267 Z"
         style="stroke-width:0.352778;fill:#000000"
         id="path4101" /><path
         d="m 9.4263979,287.57578 -0.067179,0.35312 q -0.1395264,-0.10163 -0.2893882,-0.15331 -0.1498617,-0.0517 -0.3100588,-0.0517 -0.2842205,0 -0.4633656,0.14125 -0.1791451,0.14124 -0.1791451,0.36001 0,0.1223 0.084405,0.19809 0.084405,0.0758 0.3066137,0.1447 l 0.2084284,0.0672 q 0.2807755,0.0861 0.4099666,0.23083 0.1309137,0.14297 0.1309137,0.36518 0,0.4048 -0.2859431,0.64251 -0.2859431,0.23599 -0.7803146,0.23599 -0.1791451,0 -0.3531225,-0.0396 -0.1722549,-0.0379 -0.3445098,-0.11541 l 0.070625,-0.36002 q 0.1688098,0.11886 0.3410647,0.1757 0.1739774,0.0568 0.3669029,0.0568 0.2842206,0 0.4616431,-0.15159 0.1774225,-0.15158 0.1774225,-0.38412 0,-0.14125 -0.075792,-0.21877 -0.075792,-0.0775 -0.3048912,-0.14814 l -0.1739774,-0.0568 q -0.316949,-0.0999 -0.4444176,-0.22566 -0.1257461,-0.12746 -0.1257461,-0.33589 0,-0.38069 0.2842206,-0.62184 0.2842205,-0.24288 0.7424185,-0.24288 0.1378039,0 0.2928333,0.0344 0.156752,0.0344 0.3203941,0.0999 z"
         style="stroke-width:0.352778;fill:#000000"
         id="path4103" /><path
         d="m 10.167094,287.48793 h 1.524456 l -0.05684,0.29283 h -1.178224 l -0.148139,0.76137 h 1.124824 l -0.05512,0.29283 h -1.126547 l -0.179145,0.9319 h 1.209229 l -0.05684,0.29283 H 9.6658323 Z"
         style="stroke-width:0.352778;fill:#000000"
         id="path4105" /><path
         d="m 12.030892,287.48793 h 1.963706 l -0.05684,0.29283 h -0.807875 l -0.440972,2.27893 h -0.3514 l 0.444417,-2.27893 h -0.807875 z"
         style="stroke-width:0.352778;fill:#000000"
         id="path4107" /></g><g
       aria-label="CV"
       id="text4160"
       style="font-style:italic;font-size:3.52777px;font-family:Menlo;-inkscape-font-specification:'Menlo Italic';text-align:center;text-anchor:middle;display:inline;fill:#ffffff;stroke-width:0.352777"><path
         d="m 143.61096,189.36804 q -0.14469,0.0706 -0.29283,0.10508 -0.14641,0.0362 -0.30317,0.0362 -0.39618,0 -0.61494,-0.2291 -0.21704,-0.2291 -0.21704,-0.64251 0,-0.37896 0.12057,-0.75103 0.12058,-0.37207 0.31695,-0.60806 0.18431,-0.22393 0.40652,-0.33072 0.22221,-0.1068 0.50643,-0.1068 0.1378,0 0.27388,0.0362 0.13609,0.0362 0.26528,0.10508 l -0.0706,0.35656 q -0.11024,-0.10852 -0.23254,-0.16192 -0.1223,-0.0534 -0.26011,-0.0534 -0.16364,0 -0.30316,0.0706 -0.13953,0.0689 -0.26183,0.21187 -0.17914,0.21188 -0.28939,0.5426 -0.10852,0.33073 -0.10852,0.66318 0,0.298 0.13436,0.45648 0.13436,0.15847 0.38757,0.15847 0.14642,0 0.30145,-0.0551 0.15675,-0.0551 0.30833,-0.1602 z"
         style="stroke-width:0.352778"
         id="path4290" /><path
         d="m 144.98728,189.13205 1.03008,-2.24447 h 0.37035 l -1.23851,2.57176 h -0.44442 l -0.25321,-2.57176 h 0.34106 z"
         style="stroke-width:0.352778"
         id="path4292" /></g><g
       aria-label="OUT"
       id="text4164"
       style="font-style:italic;font-size:3.52777px;font-family:Menlo;-inkscape-font-specification:'Menlo Italic';text-align:center;text-anchor:middle;display:inline;fill:#ffffff;stroke-width:0.352777"><path
         d="m 141.80746,200.80391 q 0.14641,0 0.27044,-0.0879 0.12402,-0.0879 0.20498,-0.25149 0.12747,-0.24977 0.20671,-0.60461 0.0792,-0.35485 0.0792,-0.68213 0,-0.2446 -0.0913,-0.36001 -0.0896,-0.11714 -0.27905,-0.11714 -0.14642,0 -0.26872,0.0879 -0.1223,0.0879 -0.20326,0.25149 -0.13092,0.25322 -0.21015,0.60462 -0.0792,0.3514 -0.0792,0.67868 0,0.24632 0.0896,0.36346 0.0913,0.11713 0.28078,0.11713 z m 1.11793,-1.52445 q 0,0.18948 -0.0396,0.41169 -0.0379,0.2222 -0.11197,0.45647 -0.0499,0.15847 -0.10852,0.28422 -0.0568,0.12575 -0.12402,0.22738 -0.15158,0.21876 -0.33934,0.32383 -0.18776,0.10336 -0.43753,0.10336 -0.34623,0 -0.51331,-0.21188 -0.16709,-0.21187 -0.16709,-0.65284 0,-0.1912 0.0362,-0.40997 0.0379,-0.22048 0.11197,-0.45475 0.0499,-0.15847 0.1068,-0.28422 0.0586,-0.12574 0.12574,-0.22737 0.15159,-0.21877 0.33934,-0.32212 0.18776,-0.10507 0.43753,-0.10507 0.34795,0 0.51504,0.21187 0.16881,0.21015 0.16881,0.6494 z"
         style="stroke-width:0.352778"
         id="path4283" /><path
         d="m 143.26473,200.04944 0.30661,-1.58474 h 0.34968 l -0.30834,1.58474 q -0.003,0.0224 -0.0138,0.0706 -0.0517,0.26527 -0.0517,0.3669 0,0.15848 0.093,0.23771 0.0947,0.0792 0.28422,0.0792 0.15331,0 0.26011,-0.0482 0.1068,-0.05 0.18431,-0.15675 0.0379,-0.0534 0.0758,-0.18259 0.0396,-0.13092 0.0861,-0.3669 l 0.30661,-1.58474 h 0.34968 l -0.30661,1.58474 q -0.0724,0.37723 -0.15503,0.55465 -0.081,0.1757 -0.21532,0.28422 -0.1223,0.0965 -0.27905,0.14814 -0.15675,0.05 -0.33934,0.05 -0.33073,0 -0.50988,-0.15503 -0.17742,-0.15503 -0.17742,-0.44097 0,-0.0637 0.0138,-0.17226 0.0155,-0.10852 0.0465,-0.26871 z"
         style="stroke-width:0.352778"
         id="path4285" /><path
         d="m 145.52298,198.4647 h 1.96371 l -0.0568,0.29283 h -0.80787 l -0.44097,2.27892 h -0.3514 l 0.44441,-2.27892 h -0.80787 z"
         style="stroke-width:0.352778"
         id="path4287" /></g><g
       aria-label="OUT"
       id="text4168"
       style="font-style:italic;font-size:3.52777px;font-family:Menlo;-inkscape-font-specification:'Menlo Italic';text-align:center;text-anchor:middle;display:inline;fill:#ffffff;stroke-width:0.352777"><path
         d="m 141.80746,277.07669 q 0.14641,0 0.27044,-0.0879 0.12402,-0.0879 0.20498,-0.25149 0.12747,-0.24977 0.20671,-0.60461 0.0792,-0.35485 0.0792,-0.68213 0,-0.2446 -0.0913,-0.36001 -0.0896,-0.11713 -0.27905,-0.11713 -0.14642,0 -0.26872,0.0878 -0.1223,0.0879 -0.20326,0.2515 -0.13092,0.25321 -0.21015,0.60461 -0.0792,0.3514 -0.0792,0.67868 0,0.24633 0.0896,0.36346 0.0913,0.11713 0.28078,0.11713 z m 1.11793,-1.52445 q 0,0.18948 -0.0396,0.41169 -0.0379,0.22221 -0.11197,0.45647 -0.0499,0.15848 -0.10852,0.28422 -0.0568,0.12575 -0.12402,0.22738 -0.15158,0.21876 -0.33934,0.32384 -0.18776,0.10335 -0.43753,0.10335 -0.34623,0 -0.51331,-0.21187 -0.16709,-0.21188 -0.16709,-0.65285 0,-0.1912 0.0362,-0.40996 0.0379,-0.22049 0.11197,-0.45476 0.0499,-0.15847 0.1068,-0.28422 0.0586,-0.12574 0.12574,-0.22737 0.15159,-0.21876 0.33934,-0.32212 0.18776,-0.10507 0.43753,-0.10507 0.34795,0 0.51504,0.21187 0.16881,0.21015 0.16881,0.6494 z"
         style="stroke-width:0.352778"
         id="path4267" /><path
         d="m 143.26473,276.32222 0.30661,-1.58474 h 0.34968 l -0.30834,1.58474 q -0.003,0.0224 -0.0138,0.0706 -0.0517,0.26527 -0.0517,0.3669 0,0.15848 0.093,0.23771 0.0947,0.0792 0.28422,0.0792 0.15331,0 0.26011,-0.0482 0.1068,-0.0499 0.18431,-0.15675 0.0379,-0.0534 0.0758,-0.18259 0.0396,-0.13091 0.0861,-0.3669 l 0.30661,-1.58474 h 0.34968 l -0.30661,1.58474 q -0.0724,0.37723 -0.15503,0.55466 -0.081,0.1757 -0.21532,0.28422 -0.1223,0.0965 -0.27905,0.14813 -0.15675,0.05 -0.33934,0.05 -0.33073,0 -0.50988,-0.15503 -0.17742,-0.15503 -0.17742,-0.44097 0,-0.0637 0.0138,-0.17226 0.0155,-0.10852 0.0465,-0.26871 z"
         style="stroke-width:0.352778"
         id="path4269" /><path
         d="m 145.52298,274.73748 h 1.96371 l -0.0568,0.29283 h -0.80787 l -0.44097,2.27892 h -0.3514 l 0.44441,-2.27892 h -0.80787 z"
         style="stroke-width:0.352778"
         id="path4271" /></g><g
       aria-label="GATE"
       id="text4172"
       style="font-style:italic;font-size:3.52777px;font-family:Menlo;-inkscape-font-specification:'Menlo Italic';text-align:center;text-anchor:middle;display:inline;fill:#ffffff;stroke-width:0.352777"><path
         d="m 141.64296,265.22624 q -0.14987,0.1068 -0.32729,0.16192 -0.17742,0.0534 -0.37896,0.0534 -0.39963,0 -0.61495,-0.23083 -0.21359,-0.23254 -0.21359,-0.66145 0,-0.15503 0.0276,-0.32901 0.0293,-0.1757 0.0844,-0.3669 0.0603,-0.20154 0.14125,-0.36346 0.081,-0.16364 0.17742,-0.27905 0.18432,-0.22393 0.40652,-0.33073 0.22394,-0.1068 0.50988,-0.1068 0.1378,0 0.27388,0.0362 0.13781,0.0362 0.27044,0.10507 l -0.0706,0.35657 q -0.11197,-0.10852 -0.23599,-0.16192 -0.1223,-0.0534 -0.26183,-0.0534 -0.16881,0 -0.31695,0.0723 -0.14813,0.0706 -0.26527,0.21015 -0.0758,0.0896 -0.14297,0.22393 -0.0672,0.13436 -0.11885,0.30145 -0.0586,0.19637 -0.0896,0.36862 -0.0293,0.17225 -0.0293,0.31178 0,0.29455 0.13608,0.45475 0.13608,0.1602 0.38585,0.1602 0.11713,0 0.21015,-0.031 0.093,-0.0327 0.15675,-0.093 l 0.13092,-0.67695 h -0.3738 l 0.0517,-0.28595 h 0.70624 z"
         style="stroke-width:0.352778"
         id="path4258" /><path
         d="m 143.36378,263.10923 -0.62701,1.33325 h 0.74069 z m -0.16537,-0.28939 h 0.42375 l 0.28594,2.57176 h -0.34623 l -0.0603,-0.67007 h -0.89572 l -0.31695,0.67007 h -0.37379 z"
         style="stroke-width:0.352778"
         id="path4260" /><path
         d="m 144.55405,262.81984 h 1.9637 l -0.0568,0.29284 h -0.80787 l -0.44097,2.27892 h -0.3514 l 0.44441,-2.27892 h -0.80787 z"
         style="stroke-width:0.352778"
         id="path4262" /><path
         d="m 146.93805,262.81984 h 1.52446 l -0.0568,0.29284 h -1.17822 l -0.14814,0.76136 h 1.12482 l -0.0551,0.29283 h -1.12654 l -0.17915,0.9319 h 1.20923 l -0.0568,0.29283 h -1.55891 z"
         style="stroke-width:0.352778"
         id="path4264" /></g><g
       aria-label="SLEW"
       id="text4156"
       style="font-style:italic;font-size:3.52777px;font-family:Menlo;-inkscape-font-specification:'Menlo Italic';text-align:center;text-anchor:middle;display:inline;fill:#000000;stroke-width:0.352777"><path
         d="m 141.76091,241.60783 -0.0672,0.35312 q -0.13953,-0.10163 -0.28939,-0.15331 -0.14986,-0.0517 -0.31006,-0.0517 -0.28422,0 -0.46336,0.14124 -0.17915,0.14125 -0.17915,0.36002 0,0.1223 0.0844,0.19809 0.0844,0.0758 0.30661,0.14469 l 0.20843,0.0672 q 0.28077,0.0861 0.40997,0.23082 0.13091,0.14297 0.13091,0.36518 0,0.4048 -0.28594,0.64251 -0.28595,0.23599 -0.78032,0.23599 -0.17914,0 -0.35312,-0.0396 -0.17225,-0.0379 -0.34451,-0.11541 l 0.0706,-0.36001 q 0.16881,0.11885 0.34106,0.1757 0.17398,0.0568 0.3669,0.0568 0.28422,0 0.46165,-0.15158 0.17742,-0.15159 0.17742,-0.38413 0,-0.14125 -0.0758,-0.21876 -0.0758,-0.0775 -0.30489,-0.14814 l -0.17398,-0.0568 q -0.31695,-0.0999 -0.44442,-0.22566 -0.12574,-0.12747 -0.12574,-0.33589 0,-0.38069 0.28422,-0.62184 0.28422,-0.24288 0.74241,-0.24288 0.13781,0 0.29284,0.0345 0.15675,0.0344 0.32039,0.0999 z"
         style="stroke-width:0.352778;fill:#000000"
         id="path4274" /><path
         d="m 142.54467,241.51998 h 0.34795 l -0.44442,2.27892 h 1.24196 l -0.0568,0.29284 h -1.5899 z"
         style="stroke-width:0.352778;fill:#000000"
         id="path4276" /><path
         d="m 144.6255,241.51998 h 1.52445 l -0.0568,0.29283 h -1.17822 l -0.14814,0.76136 h 1.12482 l -0.0551,0.29284 h -1.12655 l -0.17914,0.93189 h 1.20922 l -0.0568,0.29284 h -1.5589 z"
         style="stroke-width:0.352778;fill:#000000"
         id="path4278" /><path
         d="m 146.40661,241.51998 h 0.329 l -0.15502,2.08428 0.56671,-1.37804 h 0.36346 l 0.0258,1.38148 0.6494,-2.08772 h 0.34106 l -0.8785,2.57176 h -0.33417 l -0.0534,-1.49862 -0.63906,1.49862 h -0.32384 z"
         style="stroke-width:0.352778;fill:#000000"
         id="path4280" /></g></g></svg>
