<?xml version="1.0" encoding="UTF-8" standalone="no"?>
<!-- Created with Inkscape (http://www.inkscape.org/) -->

<svg
   width="152.384mm"
   height="128.5mm"
   viewBox="0 0 152.38401 128.50002"
   version="1.1"
   id="svg8"
   inkscape:version="1.2 (dc2aeda, 2022-05-15)"
   sodipodi:docname="StepWave.svg"
   xml:space="preserve"
   xmlns:inkscape="http://www.inkscape.org/namespaces/inkscape"
   xmlns:sodipodi="http://sodipodi.sourceforge.net/DTD/sodipodi-0.dtd"
   xmlns="http://www.w3.org/2000/svg"
   xmlns:svg="http://www.w3.org/2000/svg"
   xmlns:rdf="http://www.w3.org/1999/02/22-rdf-syntax-ns#"
   xmlns:cc="http://creativecommons.org/ns#"
   xmlns:dc="http://purl.org/dc/elements/1.1/"><defs
     id="defs2">
            
            
        
            
            
        </defs><sodipodi:namedview
     id="base"
     pagecolor="#ffffff"
     bordercolor="#666666"
     borderopacity="1.0"
     inkscape:pageopacity="0.0"
     inkscape:pageshadow="2"
     inkscape:zoom="1.4462011"
     inkscape:cx="326.71804"
     inkscape:cy="244.08776"
     inkscape:document-units="mm"
     inkscape:current-layer="layer1"
     showgrid="false"
     units="mm"
     inkscape:snap-bbox="true"
     inkscape:snap-page="true"
     inkscape:bbox-nodes="false"
     inkscape:snap-bbox-edge-midpoints="false"
     inkscape:window-width="1512"
     inkscape:window-height="900"
     inkscape:window-x="21"
     inkscape:window-y="38"
     inkscape:window-maximized="0"
     inkscape:snap-bbox-midpoints="true"
     inkscape:snap-nodes="false"
     inkscape:showpageshadow="2"
     inkscape:pagecheckerboard="0"
     inkscape:deskcolor="#d1d1d1"
     showguides="false" /><metadata
     id="metadata5"><rdf:RDF><cc:Work
         rdf:about=""><dc:format>image/svg+xml</dc:format><dc:type
           rdf:resource="http://purl.org/dc/dcmitype/StillImage" /></cc:Work></rdf:RDF></metadata><g
     inkscape:label="Layer 1"
     inkscape:groupmode="layer"
     id="layer1"
     transform="translate(0,-168.49998)"
     style="display:inline"><rect
       x="-0.045016449"
       y="168.29933"
       width="152.87804"
       height="129.37991"
       style="clip-rule:evenodd;display:inline;fill:#e5e5e5;fill-opacity:1;fill-rule:evenodd;stroke:#ebebeb;stroke-width:0.0846107px;stroke-linecap:round;stroke-linejoin:round;stroke-miterlimit:1.5"
       id="rect1-0" /><path
       id="path128"
       d="m 73.042155,293.88119 c 0.05918,0.1254 0.07855,0.25115 0.05777,0.37795 h -0.414579 c -0.0063,-0.0972 -0.02536,-0.17048 -0.05777,-0.21979 -0.05671,-0.0881 -0.159209,-0.13209 -0.307147,-0.13209 -0.150756,0 -0.282844,0.062 -0.395558,0.18633 -0.113067,0.12399 -0.193024,0.2994 -0.240224,0.52659 -0.04755,0.22719 -0.03734,0.39697 0.03135,0.51039 0.06833,0.11306 0.173299,0.16942 0.314897,0.16942 0.145472,0 0.26664,-0.0486 0.363505,-0.14582 0.05319,-0.0518 0.104261,-0.13033 0.153573,-0.23459 h 0.410704 c -0.08172,0.22085 -0.210987,0.40014 -0.387104,0.53856 -0.176469,0.13773 -0.38006,0.20712 -0.610773,0.20712 -0.285309,0 -0.490308,-0.0933 -0.614999,-0.28003 -0.123986,-0.18774 -0.15146,-0.44487 -0.08348,-0.77209 0.07326,-0.35329 0.222963,-0.62592 0.448393,-0.81719 0.196546,-0.1666 0.41951,-0.25008 0.668891,-0.25008 0.333917,0 0.554415,0.11201 0.662551,0.33532 z"
       style="clip-rule:evenodd;fill:#000000;fill-rule:nonzero;stroke-width:0.352233;stroke-linecap:round;stroke-linejoin:round;stroke-miterlimit:1.5" /><path
       id="path129"
       d="m 73.960075,295.12176 0.75554,-1.53715 h 0.430782 l -1.098616,2.02394 h -0.391684 l -0.249381,-2.02394 h 0.443462 z"
       style="clip-rule:evenodd;fill:#000000;fill-rule:nonzero;stroke-width:0.352233;stroke-linecap:round;stroke-linejoin:round;stroke-miterlimit:1.5" /><path
       id="path130"
       d="m 76.712074,294.12564 -0.05812,0.27616 h -0.251142 l -0.25079,1.20675 H 75.76985 l 0.25079,-1.20675 h -0.21451 l 0.05777,-0.27616 h 0.210283 l 0.01972,-0.0961 c 0.03382,-0.16027 0.08313,-0.27052 0.148291,-0.3311 0.07467,-0.0895 0.218032,-0.13456 0.430781,-0.13456 0.0243,0 0.04614,7.1e-4 0.06551,0.002 0.01937,0.001 0.04614,0.004 0.08031,0.006 l -0.06728,0.31913 c -0.02078,-0.003 -0.05636,-0.005 -0.106374,-0.006 -0.05037,-0.001 -0.08806,0.01 -0.112715,0.0342 -0.02466,0.0243 -0.03945,0.0511 -0.04509,0.0803 -0.0063,0.0296 -0.01515,0.0715 -0.02712,0.12645 z"
       style="clip-rule:evenodd;fill:#000000;fill-rule:nonzero;stroke-width:0.352233;stroke-linecap:round;stroke-linejoin:round;stroke-miterlimit:1.5" /><path
       id="path131"
       d="m 77.60886,295.39756 c -0.0042,0.005 -0.0162,0.0183 -0.03522,0.0412 -0.01867,0.0229 -0.0398,0.0426 -0.06305,0.0602 -0.07186,0.0549 -0.138076,0.0923 -0.19866,0.11237 -0.06023,0.0201 -0.128213,0.0303 -0.203943,0.0303 -0.216976,0 -0.34695,-0.0793 -0.388865,-0.23882 -0.0236,-0.0877 -0.01726,-0.21733 0.01867,-0.38851 l 0.187388,-0.90242 h 0.39274 l -0.187036,0.90242 c -0.01796,0.0852 -0.02149,0.14899 -0.01092,0.19232 0.01902,0.0761 0.0796,0.11412 0.181752,0.11412 0.131031,0 0.232122,-0.0542 0.303273,-0.16238 0.03769,-0.0585 0.06657,-0.13596 0.0863,-0.23177 l 0.169424,-0.81471 h 0.388865 l -0.311022,1.49664 h -0.372663 z"
       style="clip-rule:evenodd;fill:#000000;fill-rule:nonzero;stroke-width:0.352233;stroke-linecap:round;stroke-linejoin:round;stroke-miterlimit:1.5" /><path
       id="path132"
       d="m 79.434485,294.69873 c 0.01691,-0.0789 0.01937,-0.13949 0.0067,-0.1814 -0.02149,-0.0771 -0.08489,-0.11553 -0.190911,-0.11553 -0.130326,0 -0.231417,0.0564 -0.30292,0.16872 -0.03804,0.0599 -0.06622,0.13596 -0.08489,0.22824 l -0.168367,0.80979 h -0.382173 l 0.310669,-1.49418 h 0.37055 l -0.04579,0.21839 c 0.06516,-0.0764 0.123634,-0.13209 0.17506,-0.1659 0.09123,-0.0606 0.197955,-0.0905 0.318771,-0.0905 0.151812,0 0.267345,0.0402 0.34695,0.12152 0.07925,0.081 0.09968,0.21522 0.06094,0.40296 l -0.209931,1.00774 H 79.24604 Z"
       style="clip-rule:evenodd;fill:#000000;fill-rule:nonzero;stroke-width:0.352233;stroke-linecap:round;stroke-linejoin:round;stroke-miterlimit:1.5" /><path
       id="path133"
       d="m 80.463007,295.13832 -0.09651,0.47023 h -0.377242 l 0.420214,-2.01724 h 0.37689 l -0.227895,1.09086 0.595274,-0.56357 h 0.475515 l -0.632963,0.57308 0.343075,0.91687 h -0.463187 l -0.21768,-0.63966 z"
       style="clip-rule:evenodd;fill:#000000;fill-rule:nonzero;stroke-width:0.352233;stroke-linecap:round;stroke-linejoin:round;stroke-miterlimit:1.5" /><path
       id="path134"
       d="m 63.864011,294.60574 h 6.548722"
       style="clip-rule:evenodd;fill:none;fill-rule:evenodd;stroke:#000000;stroke-width:0.225429px;stroke-linecap:round;stroke-linejoin:round;stroke-miterlimit:1.5;stroke-opacity:1.0" /><path
       id="path135"
       d="m 81.97127,294.60574 h 6.548722"
       style="clip-rule:evenodd;fill:none;fill-rule:evenodd;stroke:#000000;stroke-width:0.225429px;stroke-linecap:round;stroke-linejoin:round;stroke-miterlimit:1.5;stroke-opacity:1.0" /><path
       style="font-style:italic;font-size:5.5575px;font-family:Menlo;-inkscape-font-specification:'Menlo Italic';display:none;fill:#ffffff;stroke-width:0.463124"
       d="m 13.941867,173.03067 h 0.518302 l -0.244226,3.28348 0.892782,-2.1709 h 0.572574 l 0.0407,2.17633 1.023036,-3.28891 h 0.537298 l -1.383948,4.05144 h -0.526443 l -0.08412,-2.36085 -1.006754,2.36085 h -0.510162 z m 4.946934,0.45589 -0.987758,2.10034 h 1.166858 z m -0.260507,-0.45589 h 0.667551 l 0.450461,4.05144 h -0.545438 l -0.09498,-1.0556 h -1.411084 l -0.499306,1.0556 h -0.588856 z m 2.995839,3.53585 1.622747,-3.53585 h 0.583429 l -1.951095,4.05144 h -0.700115 l -0.398902,-4.05144 h 0.537297 z m 2.895436,-3.53585 h 2.401556 l -0.08955,0.46131 h -1.856119 l -0.233371,1.19943 h 1.771996 l -0.08684,0.46131 h -1.77471 l -0.282216,1.46807 h 1.904963 l -0.08955,0.46132 h -2.455829 z m 7.147684,0.45046 -0.295785,1.52234 h 0.634988 q 0.447747,0 0.713682,-0.25779 0.268649,-0.26051 0.268649,-0.69198 0,-0.29307 -0.168244,-0.43146 -0.168245,-0.14111 -0.521016,-0.14111 z m -0.461316,-0.45046 h 1.193994 q 0.559006,0 0.852078,0.24965 0.293071,0.24966 0.293071,0.72183 0,0.67569 -0.43418,1.06374 -0.434179,0.38804 -1.193994,0.38804 h -0.632274 l -0.317494,1.62818 h -0.550865 z m 4.496472,2.13833 q 0.195381,0.038 0.312066,0.18182 0.1194,0.14382 0.265935,0.62413 l 0.328349,1.10716 h -0.545438 l -0.287644,-1.02304 q -0.1194,-0.42332 -0.268649,-0.55629 -0.146536,-0.13297 -0.445034,-0.13297 h -0.521016 l -0.333775,1.7123 h -0.550866 l 0.784237,-4.05144 h 1.128867 q 0.56172,0 0.86836,0.24422 0.309353,0.24152 0.309353,0.68384 0,0.49659 -0.282217,0.82223 -0.279503,0.32563 -0.762528,0.38804 z m -0.795092,-1.68787 -0.276789,1.43822 h 0.594283 q 0.442321,0 0.705542,-0.23066 0.265935,-0.23337 0.265935,-0.6187 0,-0.30393 -0.170958,-0.44504 -0.170958,-0.14382 -0.540011,-0.14382 z m 3.424593,3.23464 q 0.230658,0 0.426039,-0.1384 0.195381,-0.13839 0.322921,-0.39619 0.200808,-0.39347 0.325635,-0.95248 0.124826,-0.559 0.124826,-1.07459 0,-0.38534 -0.143822,-0.56715 -0.141108,-0.18453 -0.439607,-0.18453 -0.230658,0 -0.423325,0.1384 -0.192667,0.13839 -0.320207,0.39619 -0.206236,0.3989 -0.331062,0.95248 -0.124827,0.55358 -0.124827,1.06917 0,0.38805 0.141108,0.57257 0.143822,0.18453 0.442321,0.18453 z m 1.761141,-2.40156 q 0,0.2985 -0.06241,0.64856 -0.0597,0.35006 -0.176386,0.71911 -0.0787,0.24965 -0.170958,0.44775 -0.08955,0.19809 -0.195381,0.35819 -0.238798,0.34463 -0.534583,0.51017 -0.295785,0.16281 -0.689261,0.16281 -0.545438,0 -0.808659,-0.33377 -0.263222,-0.33378 -0.263222,-1.02847 0,-0.30121 0.05699,-0.64584 0.0597,-0.34734 0.176386,-0.71639 0.0787,-0.24966 0.168245,-0.44775 0.09226,-0.1981 0.198094,-0.3582 0.238799,-0.34463 0.534584,-0.50745 0.295785,-0.16553 0.68926,-0.16553 0.548152,0 0.811373,0.33378 0.265935,0.33106 0.265935,1.02303 z m 1.611893,-0.83308 -0.295785,1.52234 h 0.634988 q 0.447748,0 0.713683,-0.25779 0.268648,-0.26051 0.268648,-0.69198 0,-0.29307 -0.168244,-0.43146 -0.168245,-0.14111 -0.521016,-0.14111 z m -0.461316,-0.45046 h 1.193994 q 0.559006,0 0.852078,0.24965 0.293071,0.24966 0.293071,0.72183 0,0.67569 -0.43418,1.06374 -0.434179,0.38804 -1.193994,0.38804 h -0.632274 l -0.317494,1.62818 h -0.550865 z m 4.412351,0.45589 -0.987758,2.10034 h 1.166858 z m -0.260507,-0.45589 h 0.667551 l 0.450461,4.05144 h -0.545438 l -0.09498,-1.0556 h -1.411084 l -0.499306,1.0556 H 43.37382 Z m 4.241393,3.79093 q -0.236085,0.16824 -0.515588,0.25508 -0.279504,0.0841 -0.596997,0.0841 -0.629561,0 -0.968764,-0.36362 -0.336489,-0.36634 -0.336489,-1.04203 0,-0.24423 0.04342,-0.51831 0.04613,-0.27679 0.132967,-0.578 0.09498,-0.31749 0.222517,-0.57257 0.127541,-0.2578 0.279504,-0.43961 0.290357,-0.35277 0.640415,-0.52101 0.352771,-0.16825 0.803232,-0.16825 0.21709,0 0.431466,0.057 0.21709,0.057 0.426039,0.16553 l -0.111259,0.56172 q -0.176385,-0.17096 -0.371766,-0.25508 -0.192667,-0.0841 -0.412471,-0.0841 -0.265935,0 -0.499306,0.11398 -0.233372,0.11126 -0.417898,0.33106 -0.1194,0.14111 -0.225231,0.35277 -0.105831,0.21166 -0.18724,0.47488 -0.09226,0.30936 -0.141108,0.58072 -0.04613,0.27136 -0.04613,0.49117 0,0.46402 0.214376,0.71639 0.214377,0.25237 0.607852,0.25237 0.184526,0 0.331062,-0.0488 0.146535,-0.0516 0.24694,-0.14653 l 0.206235,-1.06646 h -0.588856 l 0.08141,-0.45046 h 1.112586 z m 2.71091,-3.33504 -0.987759,2.10034 h 1.166858 z m -0.260508,-0.45589 h 0.667551 l 0.450462,4.05144 h -0.545439 l -0.09498,-1.0556 h -1.411084 l -0.499307,1.0556 h -0.588856 z m 2.135618,0 h 3.09353 l -0.08955,0.46131 h -1.272689 l -0.694688,3.59013 H 54.70591 l 0.700115,-3.59013 h -1.27269 z m 3.761082,0 h 2.252307 l -0.08955,0.46131 h -0.852078 l -0.605138,3.12881 h 0.852078 l -0.08955,0.46132 H 57.19973 l 0.08955,-0.46132 h 0.849364 l 0.607851,-3.12881 h -0.852078 z m 3.769223,3.6851 q 0.230658,0 0.426039,-0.1384 0.195381,-0.13839 0.322921,-0.39619 0.200808,-0.39347 0.325635,-0.95248 0.124826,-0.559 0.124826,-1.07459 0,-0.38534 -0.143822,-0.56715 -0.141108,-0.18453 -0.439607,-0.18453 -0.230658,0 -0.423325,0.1384 -0.192667,0.13839 -0.320207,0.39619 -0.206236,0.3989 -0.331062,0.95248 -0.124827,0.55358 -0.124827,1.06917 0,0.38805 0.141108,0.57257 0.143822,0.18453 0.442321,0.18453 z m 1.761141,-2.40156 q 0,0.2985 -0.06241,0.64856 -0.0597,0.35006 -0.176386,0.71911 -0.07869,0.24965 -0.170958,0.44775 -0.08955,0.19809 -0.195381,0.35819 -0.238799,0.34463 -0.534583,0.51017 -0.295785,0.16281 -0.689261,0.16281 -0.545438,0 -0.808659,-0.33377 -0.263222,-0.33378 -0.263222,-1.02847 0,-0.30121 0.05699,-0.64584 0.0597,-0.34734 0.176386,-0.71639 0.0787,-0.24966 0.168244,-0.44775 0.09226,-0.1981 0.198095,-0.3582 0.238799,-0.34463 0.534584,-0.50745 0.295785,-0.16553 0.68926,-0.16553 0.548152,0 0.811373,0.33378 0.265935,0.33106 0.265935,1.02303 z m 0.9959,-1.28354 h 0.694688 l 0.716396,3.33504 0.648556,-3.33504 h 0.529157 l -0.789665,4.05144 h -0.694687 l -0.716397,-3.33505 -0.651269,3.33505 h -0.526443 z"
       id="text1"
       aria-label="WAVE PROPAGATION" /><path
       d="m 27.523752,256.2821 2.18466,-2.29555 2.05405,2.29555 h -4.12641"
       style="clip-rule:evenodd;display:none;fill:#d08c59;fill-rule:evenodd;stroke-width:0.352023;stroke-linecap:square;stroke-linejoin:round;stroke-miterlimit:1.5"
       id="path38" /><path
       d="m 45.881382,256.2821 2.18465,-2.29555 2.05406,2.29555 h -4.12642"
       style="clip-rule:evenodd;display:none;fill:#d08c59;fill-rule:evenodd;stroke-width:0.352023;stroke-linecap:square;stroke-linejoin:round;stroke-miterlimit:1.5"
       id="path39" /><path
       d="m 33.417682,268.35051 3.73355,-2.29519 0.50516,2.29519 h -4.12642"
       style="clip-rule:evenodd;display:none;fill:#d08c59;fill-rule:evenodd;stroke-width:0.352023;stroke-linecap:square;stroke-linejoin:round;stroke-miterlimit:1.5"
       id="path42" /><path
       d="m 21.305996,268.36705 0.49495,-2.29554 3.74376,2.29554 h -4.12641"
       style="clip-rule:evenodd;display:none;fill:#d08c59;fill-rule:evenodd;stroke-width:0.352023;stroke-linecap:square;stroke-linejoin:round;stroke-miterlimit:1.5"
       id="path43" /><path
       d="m 56.551202,268.36705 c -0.22072,-1.67739 -0.95293,-2.43564 -2.18466,-2.29554 0.14468,1.19618 -0.26753,2.10264 -2.05405,2.29554 h 4.12641"
       style="clip-rule:evenodd;display:none;fill:#d08c59;fill-rule:evenodd;stroke-width:0.352023;stroke-linecap:square;stroke-linejoin:round;stroke-miterlimit:1.5"
       id="path44" /><path
       d="m 39.802642,268.36705 c 0.22072,-1.67739 0.95293,-2.43564 2.1843,-2.29554 -0.14433,1.19618 0.26789,2.10264 2.05441,2.29554 h -4.12642"
       style="clip-rule:evenodd;display:none;fill:#d08c59;fill-rule:evenodd;stroke-width:0.352023;stroke-linecap:square;stroke-linejoin:round;stroke-miterlimit:1.5"
       id="path45" /><g
       aria-label="STEP WAVE"
       id="text324"
       style="font-size:5.64444px;stroke-width:0.264583;fill:#000000"><path
         d="m 64.0322,171.30682 -0.107487,0.565 q -0.223242,-0.16261 -0.46302,-0.24529 -0.239778,-0.0827 -0.496093,-0.0827 -0.454753,0 -0.741384,0.22599 -0.286632,0.226 -0.286632,0.57602 0,0.19568 0.135048,0.31695 0.135047,0.12127 0.490581,0.23151 l 0.333485,0.10749 q 0.44924,0.1378 0.655945,0.36931 0.209462,0.22876 0.209462,0.58429 0,0.64768 -0.457508,1.02802 -0.457509,0.37758 -1.248502,0.37758 -0.286632,0 -0.564995,-0.0634 -0.275608,-0.0606 -0.551215,-0.18466 l 0.112999,-0.57602 q 0.270095,0.19017 0.545703,0.28112 0.278363,0.0909 0.587044,0.0909 0.454752,0 0.738627,-0.24253 0.283876,-0.24254 0.283876,-0.61461 0,-0.226 -0.121267,-0.35002 -0.121267,-0.12402 -0.487825,-0.23702 l -0.278364,-0.0909 q -0.507117,-0.15985 -0.711067,-0.36105 -0.201193,-0.20395 -0.201193,-0.53743 0,-0.60909 0.454752,-0.99494 0.454752,-0.38861 1.187868,-0.38861 0.220486,0 0.468533,0.0551 0.250802,0.0551 0.512629,0.15985 z"
         style="font-style:italic;font-family:Menlo;-inkscape-font-specification:'Menlo Italic';fill:#000000"
         id="path457" /><path
         d="m 64.801145,171.16626 h 3.141925 l -0.09095,0.46854 h -1.2926 l -0.705555,3.64628 h -0.562239 l 0.711067,-3.64628 h -1.292598 z"
         style="font-style:italic;font-family:Menlo;-inkscape-font-specification:'Menlo Italic';fill:#000000"
         id="path459" /><path
         d="m 68.615552,171.16626 h 2.439126 l -0.09095,0.46854 h -1.885155 l -0.237022,1.21818 h 1.799717 l -0.08819,0.46853 H 68.7506 l -0.286632,1.49104 h 1.934764 l -0.09095,0.46853 h -2.494248 z"
         style="font-style:italic;font-family:Menlo;-inkscape-font-specification:'Menlo Italic';fill:#000000"
         id="path461" /><path
         d="m 72.476812,171.62377 -0.300412,1.54616 h 0.644922 q 0.454752,0 0.724847,-0.26183 0.272852,-0.26458 0.272852,-0.7028 0,-0.29765 -0.170877,-0.43821 -0.170877,-0.14332 -0.529166,-0.14332 z m -0.468532,-0.45751 h 1.212673 q 0.567751,0 0.865407,0.25356 0.297656,0.25356 0.297656,0.73312 0,0.68626 -0.440972,1.08038 -0.440972,0.39412 -1.212673,0.39412 h -0.642165 l -0.322461,1.65364 h -0.559483 z"
         style="font-style:italic;font-family:Menlo;-inkscape-font-specification:'Menlo Italic';fill:#000000"
         id="path463" /><path
         d="m 78.261811,171.16626 h 0.526411 l -0.248047,3.33485 0.906748,-2.20486 h 0.581532 l 0.04134,2.21038 1.03904,-3.34037 h 0.545703 l -1.405598,4.11482 h -0.534678 l -0.08544,-2.39778 -1.022503,2.39778 h -0.518142 z"
         style="font-style:italic;font-family:Menlo;-inkscape-font-specification:'Menlo Italic';fill:#000000"
         id="path465" /><path
         d="m 83.286136,171.62928 -1.003211,2.13321 h 1.185112 z m -0.264583,-0.46302 h 0.677995 l 0.457508,4.11482 h -0.553971 l -0.09646,-1.07211 h -1.433158 l -0.507118,1.07211 h -0.598068 z"
         style="font-style:italic;font-family:Menlo;-inkscape-font-specification:'Menlo Italic';fill:#000000"
         id="path467" /><path
         d="m 86.064259,174.75743 1.648132,-3.59117 h 0.592556 l -1.981617,4.11482 h -0.711067 l -0.405143,-4.11482 h 0.545702 z"
         style="font-style:italic;font-family:Menlo;-inkscape-font-specification:'Menlo Italic';fill:#000000"
         id="path469" /><path
         d="m 89.00499,171.16626 h 2.439125 l -0.09095,0.46854 H 89.46801 l -0.237022,1.21818 h 1.799716 l -0.08819,0.46853 h -1.802473 l -0.286632,1.49104 h 1.934765 l -0.09095,0.46853 h -2.494247 z"
         style="font-style:italic;font-family:Menlo;-inkscape-font-specification:'Menlo Italic';fill:#000000"
         id="path471" /></g><text
       xml:space="preserve"
       style="font-size:3.175px;fill:#ffffff;stroke-width:0.264583"
       x="69.043961"
       y="182.88414"
       id="text430"><tspan
         sodipodi:role="line"
         id="tspan428"
         style="stroke-width:0.264583"
         x="69.043961"
         y="182.88414"> </tspan></text><rect
       style="display:inline;fill:#212121;fill-opacity:1;stroke:#000000;stroke-width:0.312418;stroke-dasharray:none;stroke-opacity:1.0"
       id="rect2"
       width="120.53146"
       height="23.595324"
       x="15.926281"
       y="181.86339"
       ry="5"
       rx="5" /><rect
       style="opacity:1;fill:#666666;fill-opacity:1;stroke:#000000;stroke-width:0.352778;stroke-linejoin:round;stroke-dasharray:none;stroke-opacity:1"
       id="rect48"
       width="11.813635"
       height="18.91581"
       x="138.22482"
       y="184.24287"
       rx="5"
       ry="5" /><rect
       style="opacity:1;fill:#666666;fill-opacity:1;stroke:#000000;stroke-width:0.352778;stroke-linejoin:round;stroke-dasharray:none;stroke-opacity:1"
       id="rect6054"
       width="11.807621"
       height="19.68125"
       x="138.22784"
       y="259.84827"
       rx="5"
       ry="5" /><g
       aria-label="OUT"
       id="text6661"
       style="font-style:italic;font-size:3.88056px;font-family:Menlo;-inkscape-font-specification:'Menlo Italic';opacity:1;fill:#ffffff;stroke-width:0.352778"><path
         d="m 141.40596,201.41666 q 0.16106,0 0.29749,-0.0966 0.13643,-0.0966 0.22548,-0.27664 0.14022,-0.27475 0.22738,-0.66508 0.0872,-0.39033 0.0872,-0.75034 0,-0.26906 -0.10043,-0.39601 -0.0985,-0.12885 -0.30695,-0.12885 -0.16106,0 -0.29559,0.0966 -0.13454,0.0966 -0.22359,0.27665 -0.14401,0.27853 -0.23117,0.66507 -0.0872,0.38654 -0.0872,0.74656 0,0.27095 0.0985,0.3998 0.10043,0.12885 0.30885,0.12885 z m 1.22973,-1.67691 q 0,0.20843 -0.0436,0.45286 -0.0417,0.24443 -0.12316,0.50213 -0.055,0.17432 -0.11937,0.31264 -0.0625,0.13832 -0.13643,0.25011 -0.16674,0.24064 -0.37327,0.35623 -0.20654,0.11368 -0.48129,0.11368 -0.38085,0 -0.56465,-0.23306 -0.18379,-0.23306 -0.18379,-0.71813 0,-0.21032 0.0398,-0.45096 0.0417,-0.24254 0.12316,-0.50023 0.0549,-0.17432 0.11748,-0.31264 0.0644,-0.13832 0.13832,-0.25012 0.16674,-0.24064 0.37328,-0.35433 0.20653,-0.11558 0.48128,-0.11558 0.38275,0 0.56654,0.23306 0.18569,0.23117 0.18569,0.71434 z"
         id="path6848"
         style="fill:#ffffff" /><path
         d="m 143.00897,200.58673 0.33727,-1.74322 h 0.38465 l -0.33917,1.74322 q -0.004,0.0246 -0.0152,0.0777 -0.0568,0.2918 -0.0568,0.40359 0,0.17432 0.10232,0.26149 0.10421,0.0872 0.31264,0.0872 0.16864,0 0.28612,-0.0531 0.11747,-0.0549 0.20274,-0.17243 0.0417,-0.0587 0.0834,-0.20084 0.0436,-0.14401 0.0947,-0.4036 l 0.33728,-1.74322 h 0.38464 l -0.33727,1.74322 q -0.0796,0.41496 -0.17054,0.61013 -0.089,0.19327 -0.23685,0.31264 -0.13453,0.10611 -0.30695,0.16295 -0.17243,0.0549 -0.37328,0.0549 -0.3638,0 -0.56086,-0.17053 -0.19517,-0.17053 -0.19517,-0.48507 0,-0.0701 0.0152,-0.18948 0.0171,-0.11937 0.0512,-0.29559 z"
         id="path6850"
         style="fill:#ffffff" /><path
         d="m 145.49306,198.84351 h 2.16008 l -0.0625,0.32212 h -0.88867 l -0.48507,2.50682 h -0.38654 l 0.48886,-2.50682 h -0.88866 z"
         id="path6852"
         style="fill:#ffffff" /></g><g
       aria-label="OUT"
       id="text6717"
       style="font-style:italic;font-size:3.88056px;font-family:Menlo;-inkscape-font-specification:'Menlo Italic';opacity:1;fill:#ffffff;stroke-width:0.352778"><path
         d="m 141.40596,277.7905 q 0.16106,0 0.29749,-0.0966 0.13643,-0.0966 0.22548,-0.27664 0.14022,-0.27475 0.22738,-0.66508 0.0872,-0.39033 0.0872,-0.75034 0,-0.26906 -0.10043,-0.39601 -0.0985,-0.12885 -0.30695,-0.12885 -0.16106,0 -0.29559,0.0966 -0.13454,0.0966 -0.22359,0.27664 -0.14401,0.27853 -0.23117,0.66507 -0.0872,0.38654 -0.0872,0.74656 0,0.27095 0.0985,0.3998 0.10043,0.12885 0.30885,0.12885 z m 1.22973,-1.67691 q 0,0.20843 -0.0436,0.45286 -0.0417,0.24443 -0.12316,0.50213 -0.055,0.17432 -0.11937,0.31264 -0.0625,0.13832 -0.13643,0.25011 -0.16674,0.24064 -0.37327,0.35623 -0.20654,0.11368 -0.48129,0.11368 -0.38085,0 -0.56465,-0.23306 -0.18379,-0.23306 -0.18379,-0.71813 0,-0.21032 0.0398,-0.45096 0.0417,-0.24254 0.12316,-0.50023 0.0549,-0.17432 0.11748,-0.31264 0.0644,-0.13832 0.13832,-0.25012 0.16674,-0.24064 0.37328,-0.35432 0.20653,-0.11559 0.48128,-0.11559 0.38275,0 0.56654,0.23306 0.18569,0.23117 0.18569,0.71434 z"
         id="path6823"
         style="fill:#ffffff" /><path
         d="m 143.00897,276.96057 0.33727,-1.74322 h 0.38465 l -0.33917,1.74322 q -0.004,0.0246 -0.0152,0.0777 -0.0568,0.2918 -0.0568,0.40359 0,0.17432 0.10232,0.26149 0.10421,0.0872 0.31264,0.0872 0.16864,0 0.28612,-0.0531 0.11747,-0.055 0.20274,-0.17243 0.0417,-0.0587 0.0834,-0.20084 0.0436,-0.14401 0.0947,-0.4036 l 0.33728,-1.74322 h 0.38464 l -0.33727,1.74322 q -0.0796,0.41496 -0.17054,0.61013 -0.089,0.19327 -0.23685,0.31264 -0.13453,0.10611 -0.30695,0.16296 -0.17243,0.0549 -0.37328,0.0549 -0.3638,0 -0.56086,-0.17053 -0.19517,-0.17053 -0.19517,-0.48507 0,-0.0701 0.0152,-0.18948 0.0171,-0.11937 0.0512,-0.29559 z"
         id="path6825"
         style="fill:#ffffff" /><path
         d="m 145.49306,275.21735 h 2.16008 l -0.0625,0.32212 h -0.88867 l -0.48507,2.50683 h -0.38654 l 0.48886,-2.50683 h -0.88866 z"
         id="path6827"
         style="fill:#ffffff" /></g><g
       aria-label="GATE"
       id="text6723"
       style="font-style:italic;font-size:3.88056px;font-family:Menlo;-inkscape-font-specification:'Menlo Italic';opacity:1;fill:#ffffff;stroke-width:0.352778"><path
         d="m 141.22501,264.74968 q -0.16485,0.11748 -0.36001,0.17811 -0.19517,0.0587 -0.41686,0.0587 -0.43959,0 -0.67644,-0.2539 -0.23496,-0.2558 -0.23496,-0.72761 0,-0.17053 0.0303,-0.36191 0.0322,-0.19327 0.0928,-0.40359 0.0663,-0.22169 0.15538,-0.3998 0.089,-0.18001 0.19516,-0.30696 0.20275,-0.24633 0.44718,-0.36381 0.24632,-0.11747 0.56086,-0.11747 0.15158,0 0.30127,0.0398 0.15159,0.0398 0.29749,0.11558 l -0.0777,0.39223 q -0.12316,-0.11938 -0.25959,-0.17812 -0.13453,-0.0587 -0.28801,-0.0587 -0.18569,0 -0.34864,0.0796 -0.16296,0.0777 -0.2918,0.23116 -0.0834,0.0985 -0.15727,0.24633 -0.0739,0.14779 -0.13074,0.33159 -0.0644,0.21601 -0.0985,0.40549 -0.0322,0.18948 -0.0322,0.34296 0,0.32401 0.14969,0.50022 0.14968,0.17622 0.42443,0.17622 0.12885,0 0.23117,-0.0341 0.10232,-0.036 0.17242,-0.10231 l 0.14401,-0.74466 h -0.41117 l 0.0568,-0.31454 h 0.77687 z"
         id="path6830"
         style="fill:#ffffff" /><path
         d="m 143.11792,262.42096 -0.68971,1.46658 h 0.81477 z m -0.1819,-0.31832 h 0.46612 l 0.31454,2.82894 h -0.38086 l -0.0663,-0.73708 h -0.9853 l -0.34865,0.73708 h -0.41117 z"
         id="path6832"
         style="fill:#ffffff" /><path
         d="m 144.42723,262.10264 h 2.16008 l -0.0625,0.32211 h -0.88866 l -0.48507,2.50683 h -0.38654 l 0.48886,-2.50683 h -0.88867 z"
         id="path6834"
         style="fill:#ffffff" /><path
         d="m 147.04964,262.10264 h 1.6769 l -0.0625,0.32211 h -1.29605 l -0.16295,0.83751 h 1.2373 l -0.0606,0.32211 h -1.2392 l -0.19706,1.02509 h 1.33015 l -0.0625,0.32212 h -1.7148 z"
         id="path6836"
         style="fill:#ffffff" /></g><g
       aria-label="CV"
       id="text6777"
       style="font-style:italic;font-size:3.88056px;font-family:Menlo;-inkscape-font-specification:'Menlo Italic';opacity:1;fill:#ffffff;stroke-width:0.352778"><path
         d="m 143.38983,188.71446 q -0.15916,0.0777 -0.32212,0.11558 -0.16105,0.0398 -0.33348,0.0398 -0.43581,0 -0.67645,-0.25201 -0.23874,-0.25201 -0.23874,-0.70676 0,-0.41686 0.13263,-0.82614 0.13264,-0.40927 0.34865,-0.66886 0.20274,-0.24633 0.44717,-0.3638 0.24443,-0.11748 0.55707,-0.11748 0.15159,0 0.30128,0.0398 0.14969,0.0398 0.2918,0.11558 l -0.0777,0.39223 q -0.12127,-0.11938 -0.2558,-0.17812 -0.13453,-0.0587 -0.28611,-0.0587 -0.18001,0 -0.33349,0.0777 -0.15348,0.0758 -0.28801,0.23306 -0.19706,0.23306 -0.31833,0.59687 -0.11937,0.3638 -0.11937,0.7295 0,0.3278 0.1478,0.50212 0.14779,0.17432 0.42633,0.17432 0.16106,0 0.33159,-0.0606 0.17243,-0.0606 0.33917,-0.17622 z"
         id="path6855"
         style="fill:#ffffff" /><path
         d="m 144.90378,188.45487 1.13309,-2.46893 h 0.40739 l -1.36237,2.82894 h -0.48886 l -0.27853,-2.82894 h 0.37517 z"
         id="path6857"
         style="fill:#ffffff" /></g><g
       aria-label="SLEW"
       id="text6781"
       style="font-style:italic;font-size:3.88056px;font-family:Menlo;-inkscape-font-specification:'Menlo Italic';opacity:1;fill:#000000;stroke-width:0.352778"
       transform="translate(3.9615042e-7,-0.17954)"><path
         d="m 141.5995,241.62722 -0.0739,0.38843 q -0.15348,-0.11179 -0.31833,-0.16863 -0.16485,-0.0568 -0.34107,-0.0568 -0.31264,0 -0.5097,0.15538 -0.19706,0.15537 -0.19706,0.39601 0,0.13453 0.0928,0.2179 0.0928,0.0834 0.33727,0.15917 l 0.22927,0.0739 q 0.30886,0.0947 0.45097,0.25391 0.144,0.15727 0.144,0.4017 0,0.44528 -0.31453,0.70676 -0.31454,0.25959 -0.85835,0.25959 -0.19706,0 -0.38844,-0.0436 -0.18948,-0.0417 -0.37896,-0.12696 l 0.0777,-0.39601 q 0.18569,0.13074 0.37517,0.19327 0.19138,0.0625 0.40359,0.0625 0.31265,0 0.50781,-0.16674 0.19517,-0.16675 0.19517,-0.42255 0,-0.15537 -0.0834,-0.24064 -0.0834,-0.0853 -0.33538,-0.16295 l -0.19138,-0.0625 q -0.34864,-0.1099 -0.48886,-0.24822 -0.13832,-0.14021 -0.13832,-0.36948 0,-0.41876 0.31264,-0.68403 0.31265,-0.26717 0.81666,-0.26717 0.15159,0 0.32212,0.0379 0.17243,0.0379 0.35243,0.1099 z"
         id="path6839"
         style="fill:#000000" /><path
         d="m 142.46164,241.53058 h 0.38275 l -0.48886,2.50683 h 1.36615 l -0.0625,0.32212 h -1.74891 z"
         id="path6841"
         style="fill:#000000" /><path
         d="m 144.75056,241.53058 h 1.67691 l -0.0625,0.32212 h -1.29605 l -0.16295,0.8375 h 1.23731 l -0.0606,0.32212 h -1.2392 l -0.19706,1.02509 h 1.33015 l -0.0625,0.32212 h -1.71479 z"
         id="path6843"
         style="fill:#000000" /><path
         d="m 146.70979,241.53058 h 0.36191 l -0.17053,2.29272 0.62339,-1.51585 h 0.3998 l 0.0284,1.51964 0.71435,-2.29651 h 0.37517 l -0.96635,2.82895 h -0.3676 l -0.0587,-1.64848 -0.70298,1.64848 h -0.35622 z"
         id="path6845"
         style="fill:#000000" /></g><g
       aria-label="SHAPE"
       transform="rotate(-90,-6.0702641,-6.9998441)"
       id="text6789"
       style="font-style:italic;font-size:3.175px;font-family:Menlo;-inkscape-font-specification:'Menlo Italic';opacity:1;fill:#000000;stroke-width:0.352778"
       inkscape:transform-center-x="53.230269"
       inkscape:transform-center-y="2.5715106"><path
         d="m -266.30085,133.13435 -0.0605,0.31781 q -0.12557,-0.0915 -0.26045,-0.13798 -0.13487,-0.0465 -0.27905,-0.0465 -0.2558,0 -0.41703,0.12712 -0.16123,0.12712 -0.16123,0.32401 0,0.11007 0.076,0.17828 0.076,0.0682 0.27595,0.13023 l 0.18758,0.0605 q 0.2527,0.0775 0.36897,0.20774 0.11783,0.12867 0.11783,0.32866 0,0.36432 -0.25735,0.57826 -0.25735,0.21239 -0.70228,0.21239 -0.16124,0 -0.31781,-0.0357 -0.15503,-0.0341 -0.31006,-0.10386 l 0.0636,-0.32402 q 0.15193,0.10697 0.30696,0.15813 0.15658,0.0512 0.33021,0.0512 0.2558,0 0.41548,-0.13642 0.15968,-0.13643 0.15968,-0.34572 0,-0.12712 -0.0682,-0.19688 -0.0682,-0.0698 -0.27441,-0.13333 l -0.15658,-0.0512 q -0.28525,-0.0899 -0.39997,-0.20309 -0.11317,-0.11472 -0.11317,-0.30231 0,-0.34261 0.25579,-0.55965 0.2558,-0.21859 0.66818,-0.21859 0.12402,0 0.26355,0.031 0.14108,0.031 0.28836,0.0899 z"
         id="path6882"
         style="fill:#000000" /><path
         d="m -265.7288,133.05529 h 0.31316 l -0.18293,0.94877 h 0.85731 l 0.18293,-0.94877 h 0.31471 l -0.45113,2.31458 h -0.31316 l 0.21549,-1.10226 h -0.86041 l -0.21239,1.10226 h -0.31471 z"
         id="path6884"
         style="fill:#000000" /><path
         d="m -263.11655,133.31573 -0.56431,1.19993 h 0.66663 z m -0.14883,-0.26044 h 0.38137 l 0.25735,2.31458 h -0.31161 l -0.0543,-0.60306 h -0.80615 l -0.28526,0.60306 h -0.33641 z"
         id="path6886"
         style="fill:#000000" /><path
         d="m -261.55076,133.31263 -0.16898,0.86972 h 0.36277 q 0.2558,0 0.40773,-0.14728 0.15348,-0.14883 0.15348,-0.39532 0,-0.16744 -0.0961,-0.2465 -0.0961,-0.0806 -0.29766,-0.0806 z m -0.26355,-0.25734 h 0.68213 q 0.31936,0 0.48679,0.14262 0.16744,0.14263 0.16744,0.41238 0,0.38602 -0.24805,0.60772 -0.24805,0.22169 -0.68213,0.22169 h -0.36122 l -0.18138,0.93017 h -0.31471 z"
         id="path6888"
         style="fill:#000000" /><path
         d="m -259.8997,133.05529 h 1.37201 l -0.0512,0.26355 h -1.0604 l -0.13332,0.68522 h 1.01234 l -0.0496,0.26355 h -1.01389 l -0.16123,0.83871 h 1.0883 l -0.0512,0.26355 h -1.40301 z"
         id="path6890"
         style="fill:#000000" /></g><g
       aria-label="VALUE"
       transform="rotate(-90,8.646178,6.2807381)"
       id="text6801"
       style="font-style:italic;font-size:3.175px;font-family:Menlo;-inkscape-font-specification:'Menlo Italic';opacity:1;fill:#000000;stroke-width:0.352778"
       inkscape:transform-center-x="55.544629"
       inkscape:transform-center-y="4.8858701"><path
         d="m -227.30623,133.63942 0.92708,-2.02003 h 0.33331 l -1.11466,2.31459 h -0.39998 l -0.22789,-2.31459 h 0.30696 z"
         id="path6860"
         style="fill:#000000" /><path
         d="m -225.0459,131.87984 -0.56431,1.19992 h 0.66663 z m -0.14883,-0.26045 h 0.38137 l 0.25735,2.31459 h -0.31161 l -0.0543,-0.60307 h -0.80615 l -0.28525,0.60307 h -0.33642 z"
         id="path6862"
         style="fill:#000000" /><path
         d="m -223.7018,131.61939 h 0.31316 l -0.39997,2.05104 h 1.11776 l -0.0512,0.26355 h -1.43092 z"
         id="path6864"
         style="fill:#000000" /><path
         d="m -222.18406,133.04566 0.27595,-1.42627 h 0.31471 l -0.2775,1.42627 q -0.003,0.0202 -0.0124,0.0636 -0.0465,0.23874 -0.0465,0.33021 0,0.14263 0.0837,0.21394 0.0853,0.0713 0.2558,0.0713 0.13798,0 0.2341,-0.0434 0.0961,-0.045 0.16588,-0.14108 0.0341,-0.0481 0.0682,-0.16433 0.0357,-0.11782 0.0775,-0.33021 l 0.27596,-1.42627 h 0.31471 l -0.27596,1.42627 q -0.0651,0.33951 -0.13952,0.49919 -0.0729,0.15813 -0.19379,0.2558 -0.11007,0.0868 -0.25115,0.13333 -0.14107,0.045 -0.3054,0.045 -0.29766,0 -0.45889,-0.13952 -0.15968,-0.13953 -0.15968,-0.39688 0,-0.0574 0.0124,-0.15503 0.0139,-0.0977 0.0419,-0.24184 z"
         id="path6866"
         style="fill:#000000" /><path
         d="m -219.91753,131.61939 h 1.37201 l -0.0512,0.26355 h -1.0604 l -0.13333,0.68523 h 1.01234 l -0.0496,0.26355 h -1.01389 l -0.16123,0.83871 h 1.08831 l -0.0512,0.26355 h -1.40302 z"
         id="path6868"
         style="fill:#000000" /></g><g
       id="g32922"
       transform="translate(0,3.5752859)"
       style="fill:#000000"><path
         d="m 132.20387,208.75789 q 0.0992,0.0193 0.15847,0.0923 0.0606,0.073 0.13505,0.31694 l 0.16674,0.56224 h -0.27698 l -0.14607,-0.51952 q -0.0606,-0.21497 -0.13643,-0.28249 -0.0744,-0.0675 -0.226,-0.0675 h -0.26458 l -0.1695,0.86954 h -0.27974 l 0.39825,-2.05741 h 0.57327 q 0.28525,0 0.44097,0.12402 0.15709,0.12265 0.15709,0.34727 0,0.25218 -0.14331,0.41754 -0.14194,0.16537 -0.38723,0.19706 z m -0.40376,-0.85714 -0.14056,0.73036 h 0.30179 q 0.22462,0 0.35829,-0.11714 0.13504,-0.11851 0.13504,-0.31419 0,-0.15434 -0.0868,-0.226 -0.0868,-0.073 -0.27423,-0.073 z"
         style="font-style:italic;font-size:2.82222px;font-family:Menlo;-inkscape-font-specification:'Menlo Italic';text-align:center;text-anchor:middle;fill:#000000;stroke-width:0.352778"
         id="path6893" /><path
         d="m 133.2374,207.67199 h 0.27836 l -0.16261,0.84336 h 0.76206 l 0.16261,-0.84336 h 0.27974 l -0.40101,2.05741 h -0.27836 l 0.19154,-0.97978 h -0.76481 l -0.18879,0.97978 h -0.27974 z"
         style="font-style:italic;font-size:2.82222px;font-family:Menlo;-inkscape-font-specification:'Menlo Italic';text-align:center;text-anchor:middle;fill:#000000;stroke-width:0.352778"
         id="path6895" /><path
         d="m 134.81525,207.67199 h 0.27836 l 0.32522,0.8971 0.68489,-0.8971 h 0.30041 l -0.87506,1.13413 -0.17776,0.92328 h -0.28526 l 0.18053,-0.92328 z"
         style="font-style:italic;font-size:2.82222px;font-family:Menlo;-inkscape-font-specification:'Menlo Italic';text-align:center;text-anchor:middle;fill:#000000;stroke-width:0.352778"
         id="path6897" /><path
         d="m 136.51161,207.67199 h 1.57097 l -0.0455,0.23427 h -0.6463 l -0.35278,1.82314 h -0.28111 l 0.35553,-1.82314 h -0.6463 z"
         style="font-style:italic;font-size:2.82222px;font-family:Menlo;-inkscape-font-specification:'Menlo Italic';text-align:center;text-anchor:middle;fill:#000000;stroke-width:0.352778"
         id="path6899" /><path
         d="m 138.33476,207.67199 h 0.27836 l -0.16261,0.84336 h 0.76206 l 0.16261,-0.84336 h 0.27974 l -0.40101,2.05741 h -0.27837 l 0.19155,-0.97978 h -0.76481 l -0.18879,0.97978 h -0.27974 z"
         style="font-style:italic;font-size:2.82222px;font-family:Menlo;-inkscape-font-specification:'Menlo Italic';text-align:center;text-anchor:middle;fill:#000000;stroke-width:0.352778"
         id="path6901" /><path
         d="m 139.95946,207.67199 h 0.3707 l 0.15158,1.0418 0.57051,-1.0418 h 0.37207 l -0.40101,2.05741 h -0.25632 l 0.35554,-1.82865 -0.59807,1.09554 h -0.1943 l -0.15848,-1.09554 -0.35278,1.82865 h -0.25631 z"
         style="font-style:italic;font-size:2.82222px;font-family:Menlo;-inkscape-font-specification:'Menlo Italic';text-align:center;text-anchor:middle;fill:#000000;stroke-width:0.352778"
         id="path6903" /><path
         d="m 141.81981,207.67199 h 1.14377 l -0.0455,0.23427 h -0.4327 l -0.30731,1.58888 h 0.43271 l -0.0455,0.23426 h -1.14377 l 0.0455,-0.23426 h 0.43132 l 0.30868,-1.58888 h -0.4327 z"
         style="font-style:italic;font-size:2.82222px;font-family:Menlo;-inkscape-font-specification:'Menlo Italic';text-align:center;text-anchor:middle;fill:#000000;stroke-width:0.352778"
         id="path6905" /><path
         d="m 144.343,209.65637 q -0.11576,0.0565 -0.23427,0.0841 -0.11713,0.0289 -0.24253,0.0289 -0.31695,0 -0.49196,-0.18328 -0.17363,-0.18328 -0.17363,-0.51401 0,-0.30317 0.0965,-0.60083 0.0965,-0.29765 0.25356,-0.48644 0.14745,-0.17915 0.32522,-0.26459 0.17776,-0.0854 0.40514,-0.0854 0.11024,0 0.21911,0.0289 0.10886,0.0289 0.21221,0.0841 l -0.0565,0.28526 q -0.0882,-0.0868 -0.18603,-0.12954 -0.0978,-0.0427 -0.20808,-0.0427 -0.13092,0 -0.24254,0.0565 -0.11162,0.0551 -0.20946,0.1695 -0.14332,0.1695 -0.23151,0.43408 -0.0868,0.26459 -0.0868,0.53055 0,0.2384 0.10749,0.36518 0.10749,0.12678 0.31006,0.12678 0.11713,0 0.24115,-0.0441 0.12541,-0.0441 0.24667,-0.12816 z"
         style="font-style:italic;font-size:2.82222px;font-family:Menlo;-inkscape-font-specification:'Menlo Italic';text-align:center;text-anchor:middle;fill:#000000;stroke-width:0.352778"
         id="path6907" /><path
         d="m 131.6004,212.85203 q 0.25494,0 0.40928,-0.0854 0.15434,-0.0868 0.24804,-0.28112 0.0744,-0.15848 0.12127,-0.37758 0.0482,-0.22049 0.0482,-0.40377 0,-0.24253 -0.113,-0.34726 -0.113,-0.10473 -0.37896,-0.10473 h -0.15709 l -0.31144,1.5999 z m 0.36104,-1.82866 q 0.37621,0 0.56224,0.17088 0.18742,0.17088 0.18742,0.51814 0,0.22324 -0.0579,0.46027 -0.0579,0.23702 -0.15572,0.4203 -0.14332,0.2632 -0.35829,0.3762 -0.21359,0.11162 -0.57877,0.11162 h -0.41755 l 0.40101,-2.05741 z"
         style="font-style:italic;font-size:2.82222px;font-family:Menlo;-inkscape-font-specification:'Menlo Italic';text-align:center;text-anchor:middle;fill:#000000;stroke-width:0.352778"
         id="path6909" /><path
         d="m 133.32983,211.02337 h 1.14378 l -0.0455,0.23427 h -0.4327 l -0.30731,1.58888 h 0.43271 l -0.0455,0.23426 h -1.14377 l 0.0455,-0.23426 h 0.43132 l 0.30868,-1.58888 h -0.4327 z"
         style="font-style:italic;font-size:2.82222px;font-family:Menlo;-inkscape-font-specification:'Menlo Italic';text-align:center;text-anchor:middle;fill:#000000;stroke-width:0.352778"
         id="path6911" /><path
         d="m 136.13276,211.09365 -0.0537,0.2825 q -0.11162,-0.0813 -0.23151,-0.12264 -0.11989,-0.0413 -0.24805,-0.0413 -0.22737,0 -0.37069,0.113 -0.14332,0.11299 -0.14332,0.288 0,0.0978 0.0675,0.15848 0.0675,0.0606 0.24529,0.11575 l 0.16674,0.0537 q 0.22462,0.0689 0.32797,0.18466 0.10473,0.11438 0.10473,0.29214 0,0.32384 -0.22875,0.51401 -0.22875,0.18879 -0.62425,0.18879 -0.14332,0 -0.2825,-0.0317 -0.1378,-0.0303 -0.27561,-0.0923 l 0.0565,-0.28801 q 0.13505,0.0951 0.27286,0.14056 0.13918,0.0455 0.29352,0.0455 0.22737,0 0.36931,-0.12126 0.14194,-0.12127 0.14194,-0.30731 0,-0.11299 -0.0606,-0.17501 -0.0606,-0.062 -0.24392,-0.11851 l -0.13918,-0.0455 q -0.25356,-0.0799 -0.35553,-0.18052 -0.1006,-0.10198 -0.1006,-0.26872 0,-0.30454 0.22738,-0.49747 0.22737,-0.1943 0.59393,-0.1943 0.11024,0 0.23427,0.0276 0.1254,0.0276 0.25631,0.0799 z"
         style="font-style:italic;font-size:2.82222px;font-family:Menlo;-inkscape-font-specification:'Menlo Italic';text-align:center;text-anchor:middle;fill:#000000;stroke-width:0.352778"
         id="path6913" /><path
         d="m 136.95683,211.25213 -0.15021,0.77308 h 0.32246 q 0.22738,0 0.36243,-0.13092 0.13642,-0.13229 0.13642,-0.3514 0,-0.14882 -0.0854,-0.2191 -0.0854,-0.0717 -0.26458,-0.0717 z m -0.23427,-0.22876 h 0.60634 q 0.28387,0 0.4327,0.12678 0.14883,0.12678 0.14883,0.36656 0,0.34313 -0.22049,0.54019 -0.22048,0.19706 -0.60633,0.19706 h -0.32108 l -0.16123,0.82682 h -0.27975 z"
         style="font-style:italic;font-size:2.82222px;font-family:Menlo;-inkscape-font-specification:'Menlo Italic';text-align:center;text-anchor:middle;fill:#000000;stroke-width:0.352778"
         id="path6915" /><path
         d="m 138.45889,211.02337 h 0.27836 l -0.35553,1.82315 h 0.99356 l -0.0455,0.23426 h -1.27193 z"
         style="font-style:italic;font-size:2.82222px;font-family:Menlo;-inkscape-font-specification:'Menlo Italic';text-align:center;text-anchor:middle;fill:#000000;stroke-width:0.352778"
         id="path6917" /><path
         d="m 140.66237,211.25488 -0.50161,1.0666 h 0.59256 z m -0.13229,-0.23151 h 0.339 l 0.22875,2.05741 h -0.27699 l -0.0482,-0.53605 h -0.71658 l -0.25355,0.53605 h -0.29904 z"
         style="font-style:italic;font-size:2.82222px;font-family:Menlo;-inkscape-font-specification:'Menlo Italic';text-align:center;text-anchor:middle;fill:#000000;stroke-width:0.352778"
         id="path6919" /><path
         d="m 142.6495,213.00775 q -0.11575,0.0565 -0.23427,0.0841 -0.11713,0.0289 -0.24253,0.0289 -0.31695,0 -0.49196,-0.18328 -0.17363,-0.18328 -0.17363,-0.51401 0,-0.30317 0.0965,-0.60082 0.0965,-0.29766 0.25356,-0.48645 0.14745,-0.17915 0.32522,-0.26458 0.17776,-0.0854 0.40514,-0.0854 0.11024,0 0.21911,0.0289 0.10886,0.0289 0.21221,0.0841 l -0.0565,0.28525 q -0.0882,-0.0868 -0.18604,-0.12954 -0.0978,-0.0427 -0.20808,-0.0427 -0.13092,0 -0.24254,0.0565 -0.11162,0.0551 -0.20946,0.1695 -0.14332,0.1695 -0.23151,0.43408 -0.0868,0.26459 -0.0868,0.53055 0,0.2384 0.10749,0.36518 0.10749,0.12678 0.31006,0.12678 0.11713,0 0.24116,-0.0441 0.1254,-0.0441 0.24666,-0.12816 z"
         style="font-style:italic;font-size:2.82222px;font-family:Menlo;-inkscape-font-specification:'Menlo Italic';text-align:center;text-anchor:middle;fill:#000000;stroke-width:0.352778"
         id="path6921" /><path
         d="m 143.5218,211.02337 h 1.21956 l -0.0455,0.23427 h -0.94258 l -0.11851,0.60909 h 0.89986 l -0.0441,0.23427 h -0.90124 l -0.14331,0.74552 h 0.96738 l -0.0455,0.23426 h -1.24712 z"
         style="font-style:italic;font-size:2.82222px;font-family:Menlo;-inkscape-font-specification:'Menlo Italic';text-align:center;text-anchor:middle;fill:#000000;stroke-width:0.352778"
         id="path6923" /><path
         d="m 145.06244,211.02337 h 0.3707 l 0.15158,1.0418 0.57051,-1.0418 h 0.37207 l -0.40101,2.05741 h -0.25632 l 0.35554,-1.82865 -0.59807,1.09554 h -0.1943 l -0.15848,-1.09554 -0.35278,1.82865 h -0.25631 z"
         style="font-style:italic;font-size:2.82222px;font-family:Menlo;-inkscape-font-specification:'Menlo Italic';text-align:center;text-anchor:middle;fill:#000000;stroke-width:0.352778"
         id="path6925" /><path
         d="m 146.92004,211.02337 h 1.21956 l -0.0455,0.23427 h -0.94257 l -0.11851,0.60909 h 0.89985 l -0.0441,0.23427 h -0.90124 l -0.14331,0.74552 h 0.96738 l -0.0455,0.23426 h -1.24712 z"
         style="font-style:italic;font-size:2.82222px;font-family:Menlo;-inkscape-font-specification:'Menlo Italic';text-align:center;text-anchor:middle;fill:#000000;stroke-width:0.352778"
         id="path6927" /><path
         d="m 148.53785,211.02337 h 0.35278 l 0.3638,1.69361 0.32935,-1.69361 h 0.26872 l -0.40101,2.05741 h -0.35278 l -0.3638,-1.6936 -0.33073,1.6936 h -0.26734 z"
         style="font-style:italic;font-size:2.82222px;font-family:Menlo;-inkscape-font-specification:'Menlo Italic';text-align:center;text-anchor:middle;fill:#000000;stroke-width:0.352778"
         id="path6929" /><path
         d="m 150.11019,211.02337 h 1.57096 l -0.0455,0.23427 h -0.6463 l -0.35278,1.82314 h -0.28112 l 0.35554,-1.82314 h -0.6463 z"
         style="font-style:italic;font-size:2.82222px;font-family:Menlo;-inkscape-font-specification:'Menlo Italic';text-align:center;text-anchor:middle;fill:#000000;stroke-width:0.352778"
         id="path6931" /></g><g
       aria-label="RESET"
       id="text6813"
       style="font-style:italic;font-size:3.88056px;font-family:Menlo;-inkscape-font-specification:'Menlo Italic';opacity:1;fill:#000000;stroke-width:0.352778"
       transform="translate(0,12.170837)"><path
         d="m 4.2282391,276.74024 q 0.1364259,0.0265 0.2179025,0.12695 0.083372,0.10043 0.1856909,0.43581 l 0.2292714,0.77308 H 4.4802481 l -0.2008493,-0.71434 q -0.083371,-0.29559 -0.1875856,-0.38844 -0.1023195,-0.0928 -0.310748,-0.0928 H 3.4172627 l -0.2330609,1.19562 H 2.7995564 l 0.5475986,-2.82894 h 0.7882387 q 0.3922245,0 0.6063375,0.17053 0.2160077,0.16864 0.2160077,0.47749 0,0.34675 -0.1970597,0.57413 -0.1951649,0.22737 -0.5324401,0.27095 z m -0.5551777,-1.17857 -0.1932701,1.00425 h 0.4149622 q 0.3088532,0 0.4926492,-0.16106 0.1856909,-0.16295 0.1856909,-0.43201 0,-0.21222 -0.1193727,-0.31075 -0.1193727,-0.10043 -0.3770662,-0.10043 z"
         id="path6945"
         style="fill:#000000" /><path
         d="m 5.7649257,275.24714 h 1.6769021 l -0.062529,0.32211 H 6.0832529 l -0.1629532,0.83751 h 1.2373074 l -0.060634,0.32211 H 5.8577712 l -0.1970597,1.02509 h 1.3301528 l -0.062528,0.32212 H 5.2135376 Z"
         id="path6947"
         style="fill:#000000" /><path
         d="m 9.622748,275.34377 -0.073897,0.38844 q -0.1534792,-0.1118 -0.3183272,-0.16864 -0.164848,-0.0568 -0.3410649,-0.0568 -0.3126427,0 -0.5097024,0.15537 -0.1970597,0.15537 -0.1970597,0.39601 0,0.13453 0.092845,0.21791 0.092845,0.0834 0.3372753,0.15916 l 0.2292713,0.0739 q 0.3088532,0.0947 0.4509635,0.2539 0.1440052,0.15727 0.1440052,0.4017 0,0.44528 -0.3145376,0.70676 -0.3145376,0.25959 -0.8583465,0.25959 -0.1970597,0 -0.388435,-0.0436 -0.1894804,-0.0417 -0.3789609,-0.12695 l 0.077687,-0.39602 q 0.1856909,0.13074 0.3751713,0.19327 0.1913753,0.0625 0.4035934,0.0625 0.3126428,0 0.5078077,-0.16674 0.1951648,-0.16674 0.1951648,-0.42254 0,-0.15538 -0.083371,-0.24064 -0.083371,-0.0853 -0.3353804,-0.16296 l -0.1913753,-0.0625 q -0.348644,-0.1099 -0.4888596,-0.24822 -0.1383207,-0.14022 -0.1383207,-0.36949 0,-0.41875 0.3126428,-0.68403 0.3126427,-0.26716 0.8166608,-0.26716 0.1515844,0 0.3221168,0.0379 0.1724272,0.0379 0.3524336,0.1099 z"
         id="path6949"
         style="fill:#000000" /><path
         d="m 10.437514,275.24714 h 1.676902 l -0.06253,0.32211 h -1.296047 l -0.162953,0.83751 h 1.237307 l -0.06063,0.32211 H 10.53036 l -0.19706,1.02509 h 1.330153 l -0.06253,0.32212 H 9.8861259 Z"
         id="path6951"
         style="fill:#000000" /><path
         d="m 12.487693,275.24714 h 2.160077 l -0.06253,0.32211 h -0.888663 l -0.48507,2.50683 h -0.38654 l 0.48886,-2.50683 h -0.888664 z"
         id="path6953"
         style="fill:#000000" /></g><g
       aria-label="ON/OFF"
       id="text6817"
       style="font-style:italic;font-size:3.88056px;font-family:Menlo;-inkscape-font-specification:'Menlo Italic';opacity:1;fill:#000000;stroke-width:0.352778"
       transform="translate(4.5e-7,-31.750004)"><path
         d="m 2.560811,243.61919 q 0.1610584,0 0.2974843,-0.0966 0.1364259,-0.0966 0.2254817,-0.27664 0.1402156,-0.27475 0.2273766,-0.66508 0.087161,-0.39033 0.087161,-0.75034 0,-0.26906 -0.1004246,-0.39601 -0.09853,-0.12885 -0.3069584,-0.12885 -0.1610584,0 -0.2955895,0.0966 -0.1345311,0.0966 -0.223587,0.27665 -0.1440051,0.27853 -0.2311661,0.66507 -0.087161,0.38654 -0.087161,0.74656 0,0.27095 0.09853,0.3998 0.1004246,0.12885 0.3088532,0.12885 z m 1.2297282,-1.67691 q 0,0.20843 -0.043581,0.45286 -0.041686,0.24443 -0.1231623,0.50213 -0.054949,0.17432 -0.1193727,0.31264 -0.062529,0.13832 -0.136426,0.25011 -0.1667428,0.24064 -0.3732765,0.35623 -0.2065337,0.11368 -0.4812804,0.11368 -0.3808557,0 -0.5646517,-0.23306 -0.1837961,-0.23306 -0.1837961,-0.71813 0,-0.21032 0.039791,-0.45096 0.041686,-0.24254 0.1231623,-0.50023 0.054949,-0.17432 0.1174779,-0.31264 0.064423,-0.13832 0.1383207,-0.25012 0.1667428,-0.24064 0.3732765,-0.35433 0.2065338,-0.11558 0.4812804,-0.11558 0.3827506,0 0.5665466,0.23306 0.1856909,0.23117 0.1856913,0.71434 z"
         id="path6956"
         style="fill:#000000" /><path
         d="m 4.4859325,241.04604 h 0.48507 l 0.5002284,2.32872 0.4528583,-2.32872 h 0.369487 l -0.5513882,2.82894 h -0.48507 l -0.5002284,-2.32871 -0.4547531,2.32871 H 3.9345444 Z"
         id="path6958"
         style="fill:#000000" /><path
         d="m 6.3125242,244.235 1.6143736,-3.18896 H 8.2888055 L 6.6706423,244.235 Z"
         id="path6960"
         style="fill:#000000" /><path
         d="m 9.5696935,243.61919 q 0.1610584,0 0.2974843,-0.0966 0.1364262,-0.0966 0.2254822,-0.27664 0.140215,-0.27475 0.227376,-0.66508 0.08716,-0.39033 0.08716,-0.75034 0,-0.26906 -0.100425,-0.39601 -0.09853,-0.12885 -0.3069579,-0.12885 -0.1610584,0 -0.2955895,0.0966 -0.1345311,0.0966 -0.2235869,0.27665 -0.1440052,0.27853 -0.2311662,0.66507 -0.087161,0.38654 -0.087161,0.74656 0,0.27095 0.09853,0.3998 0.1004247,0.12885 0.3088532,0.12885 z m 1.2297285,-1.67691 q 0,0.20843 -0.04358,0.45286 -0.04169,0.24443 -0.123162,0.50213 -0.05495,0.17432 -0.119373,0.31264 -0.06253,0.13832 -0.136426,0.25011 -0.166743,0.24064 -0.373276,0.35623 -0.206534,0.11368 -0.4812806,0.11368 -0.3808558,0 -0.5646518,-0.23306 -0.1837961,-0.23306 -0.1837961,-0.71813 0,-0.21032 0.039791,-0.45096 0.041686,-0.24254 0.1231623,-0.50023 0.054949,-0.17432 0.1174779,-0.31264 0.064423,-0.13832 0.1383208,-0.25012 0.1667428,-0.24064 0.3732765,-0.35433 0.2065337,-0.11558 0.48128,-0.11558 0.382751,0 0.566547,0.23306 0.185691,0.23117 0.18569,0.71434 z"
         id="path6962"
         style="fill:#000000" /><path
         d="m 11.680506,241.04604 h 1.665533 l -0.06253,0.32212 h -1.280888 l -0.162954,0.83371 h 1.159621 l -0.06063,0.32212 h -1.161515 l -0.263378,1.35099 H 11.12912 Z"
         id="path6964"
         style="fill:#000000" /><path
         d="m 14.0168,241.04604 h 1.665533 l -0.06253,0.32212 h -1.280888 l -0.162953,0.83371 h 1.15962 l -0.06063,0.32212 h -1.161515 l -0.263378,1.35099 h -0.384645 z"
         id="path6966"
         style="fill:#000000" /></g><g
       aria-label="CLOCK"
       id="text6821"
       style="font-style:italic;font-size:3.88056px;font-family:Menlo;-inkscape-font-specification:'Menlo Italic';opacity:1;fill:#000000;stroke-width:0.352778"><path
         d="m 4.4480364,188.22994 q -0.1591635,0.0777 -0.3221167,0.11559 -0.1610584,0.0398 -0.3334857,0.0398 -0.435805,0 -0.6764452,-0.25201 -0.2387454,-0.25201 -0.2387454,-0.70676 0,-0.41686 0.1326363,-0.82614 0.1326363,-0.40928 0.3486441,-0.66886 0.2027441,-0.24633 0.4471739,-0.36381 0.2444298,-0.11748 0.5570725,-0.11748 0.1515844,0 0.301274,0.0398 0.1496895,0.0398 0.2917999,0.11558 l -0.077687,0.39222 q -0.1212675,-0.11937 -0.2557986,-0.17811 -0.1345312,-0.0587 -0.2861155,-0.0587 -0.1800065,0 -0.3334856,0.0777 -0.1534792,0.0758 -0.2880104,0.23306 -0.1970596,0.23306 -0.3183271,0.59686 -0.1193727,0.36381 -0.1193727,0.7295 0,0.32781 0.1477947,0.50213 0.1477948,0.17432 0.4263311,0.17432 0.1610584,0 0.3315908,-0.0606 0.1724272,-0.0606 0.33917,-0.17622 z"
         id="path6969"
         style="fill:#000000" /><path
         d="m 5.6948179,185.50142 h 0.3827506 l -0.4888596,2.50683 H 6.954863 l -0.062528,0.32212 H 5.1434298 Z"
         id="path6971"
         style="fill:#000000" /><path
         d="m 8.2831211,188.07457 q 0.1610584,0 0.2974844,-0.0966 0.1364259,-0.0966 0.2254817,-0.27664 0.1402156,-0.27474 0.2273766,-0.66507 0.087161,-0.39033 0.087161,-0.75035 0,-0.26906 -0.1004247,-0.39601 -0.09853,-0.12885 -0.3069583,-0.12885 -0.1610584,0 -0.2955895,0.0966 -0.1345312,0.0966 -0.223587,0.27664 -0.1440051,0.27854 -0.2311661,0.66508 -0.087161,0.38654 -0.087161,0.74655 0,0.27096 0.09853,0.3998 0.1004246,0.12885 0.3088529,0.12885 z m 1.2297283,-1.6769 q 0,0.20843 -0.043581,0.45286 -0.041686,0.24443 -0.1231624,0.50212 -0.054949,0.17432 -0.1193726,0.31264 -0.062529,0.13832 -0.136426,0.25012 -0.1667428,0.24064 -0.3732765,0.35622 -0.2065337,0.11369 -0.4812804,0.11369 -0.3808557,0 -0.5646518,-0.23306 -0.183796,-0.23306 -0.183796,-0.71813 0,-0.21033 0.039791,-0.45097 0.041686,-0.24253 0.1231623,-0.50023 0.054949,-0.17432 0.1174779,-0.31264 0.064423,-0.13832 0.1383207,-0.25011 0.1667428,-0.24064 0.3732765,-0.35433 0.2065337,-0.11559 0.4812804,-0.11559 0.3827506,0 0.5665466,0.23307 0.1856909,0.23116 0.1856913,0.71434 z"
         id="path6973"
         style="fill:#000000" /><path
         d="m 11.456919,188.22994 q -0.159164,0.0777 -0.322117,0.11559 -0.161058,0.0398 -0.333485,0.0398 -0.435806,0 -0.676446,-0.25201 -0.2387451,-0.25201 -0.2387451,-0.70676 0,-0.41686 0.1326361,-0.82614 0.132637,-0.40928 0.348644,-0.66886 0.202744,-0.24633 0.447174,-0.36381 0.24443,-0.11748 0.557073,-0.11748 0.151584,0 0.301274,0.0398 0.149689,0.0398 0.2918,0.11558 l -0.07769,0.39222 q -0.121268,-0.11937 -0.255799,-0.17811 -0.134531,-0.0587 -0.286116,-0.0587 -0.180006,0 -0.333485,0.0777 -0.153479,0.0758 -0.28801,0.23306 -0.19706,0.23306 -0.318328,0.59686 -0.119372,0.36381 -0.119372,0.7295 0,0.32781 0.147794,0.50213 0.147795,0.17432 0.426332,0.17432 0.161058,0 0.33159,-0.0606 0.172428,-0.0606 0.33917,-0.17622 z"
         id="path6975"
         style="fill:#000000" /><path
         d="m 12.540747,185.50142 h 0.382751 l -0.24064,1.22594 1.405945,-1.22594 h 0.48128 l -1.332048,1.17289 0.810977,1.65606 H 13.63405 l -0.68213,-1.40405 -0.365697,0.31832 -0.212219,1.08573 h -0.384645 z"
         id="path6977"
         style="fill:#000000" /></g><path
       style="opacity:1;fill:#ffffff;stroke:#000000;stroke-width:0.352777;stroke-dasharray:none;stroke-opacity:1.0"
       d="m 143.95761,226.96708 v 11.94831"
       id="path7360" /><path
       style="opacity:1;fill:#ffffff;stroke:#000000;stroke-width:0.352777;stroke-dasharray:none;stroke-opacity:1.0"
       d="m 8.4233885,195.21703 v 11.94831"
       id="path8052" /><g
       id="g9108"
       style="stroke-width:0.42897415;stroke-dasharray:none;stroke:#000000;stroke-opacity:1.0"
       transform="matrix(0.99619516,0,0,0.67888429,0.4916979,90.757239)"><path
         style="opacity:1;fill:#ffffff;stroke:#000000;stroke-width:0.42897415;stroke-dasharray:none;stroke-opacity:1.0"
         d="m 24.269361,230.57865 v 52.67647"
         id="path9084" /><path
         style="opacity:1;fill:#ffffff;stroke:#000000;stroke-width:0.42897415;stroke-dasharray:none;stroke-opacity:1.0"
         d="m 39.229075,230.57865 v 52.67647"
         id="path9086" /><path
         style="opacity:1;fill:#ffffff;stroke:#000000;stroke-width:0.42897415;stroke-dasharray:none;stroke-opacity:1.0"
         d="m 54.188789,230.57865 v 52.67647"
         id="path9088" /><path
         style="opacity:1;fill:#ffffff;stroke:#000000;stroke-width:0.42897415;stroke-dasharray:none;stroke-opacity:1.0"
         d="m 69.148503,230.57865 v 52.67647"
         id="path9090" /><path
         style="opacity:1;fill:#ffffff;stroke:#000000;stroke-width:0.42897415;stroke-dasharray:none;stroke-opacity:1.0"
         d="m 84.108218,230.57865 v 52.67647"
         id="path9092" /><path
         style="opacity:1;fill:#ffffff;stroke:#000000;stroke-width:0.42897415;stroke-dasharray:none;stroke-opacity:1.0"
         d="m 99.067932,230.57865 v 52.67647"
         id="path9094" /><path
         style="opacity:1;fill:#ffffff;stroke:#000000;stroke-width:0.42897415;stroke-dasharray:none;stroke-opacity:1.0"
         d="m 114.02765,230.57865 v 52.67647"
         id="path9096" /><path
         style="opacity:1;fill:#ffffff;stroke:#000000;stroke-width:0.42897415;stroke-dasharray:none;stroke-opacity:1.0"
         d="m 128.98736,230.57865 v 52.67647"
         id="path9098" /></g><path
       style="fill:none;stroke:#000000;stroke-width:0.35177;stroke-dasharray:none;stroke-opacity:1"
       d="m 32.240036,205.36298 v 20.27545"
       id="path9110" /><path
       style="fill:none;stroke:#000000;stroke-width:0.35177;stroke-dasharray:none;stroke-opacity:1"
       d="m 47.11437,205.36298 v 20.27545"
       id="path9112" /><path
       style="fill:none;stroke:#000000;stroke-width:0.35177;stroke-dasharray:none;stroke-opacity:1"
       d="m 61.988704,205.36298 v 20.27545"
       id="path9114" /><path
       style="fill:none;stroke:#000000;stroke-width:0.35177;stroke-dasharray:none;stroke-opacity:1"
       d="m 76.863038,205.36298 v 20.27545"
       id="path9116" /><path
       style="fill:none;stroke:#000000;stroke-width:0.35177;stroke-dasharray:none;stroke-opacity:1"
       d="m 91.737372,205.36298 v 20.27545"
       id="path9118" /><path
       style="fill:none;stroke:#000000;stroke-width:0.35177;stroke-dasharray:none;stroke-opacity:1"
       d="m 106.61171,205.36298 v 20.27545"
       id="path9120" /><path
       style="fill:none;stroke:#000000;stroke-width:0.35177;stroke-dasharray:none;stroke-opacity:1"
       d="m 121.48604,205.36298 v 20.27545"
       id="path9122" /><path
       style="opacity:1;fill:#999999;stroke:#999999;stroke-width:0.35277778;stroke-dasharray:none;stroke-opacity:1"
       d="M 131.91847,221.21594 H 8.3143923"
       id="path9885" /><g
       aria-label="BEATS"
       transform="rotate(-90,8.4762639,7.4819639)"
       id="text6785"
       style="font-style:italic;font-size:3.175px;font-family:Menlo;-inkscape-font-specification:'Menlo Italic';display:inline;fill:#000000;stroke-width:0.352778"><path
         d="m -253.2606,134.19979 -0.16589,0.84801 h 0.38448 q 0.28525,0 0.43563,-0.13488 0.15193,-0.13487 0.15193,-0.38912 0,-0.16588 -0.10542,-0.24495 -0.10542,-0.0791 -0.32711,-0.0791 z m 0.18293,-0.95188 -0.13643,0.69763 h 0.37828 q 0.23409,0 0.36741,-0.11162 0.13488,-0.11317 0.13488,-0.31006 0,-0.14573 -0.0868,-0.21084 -0.0853,-0.0651 -0.27905,-0.0651 z m -0.26355,-0.25735 h 0.68678 q 0.31471,0 0.47594,0.12402 0.16123,0.12247 0.16123,0.36122 0,0.23874 -0.14263,0.39998 -0.14262,0.15968 -0.38447,0.19068 0.19379,0.0357 0.29611,0.15813 0.10387,0.12247 0.10387,0.31471 0,0.36277 -0.24805,0.56431 -0.2465,0.20154 -0.69763,0.20154 h -0.70074 z"
         id="path6871"
         style="fill:#000000" /><path
         d="m -251.38165,132.99056 h 1.37201 l -0.0512,0.26355 h -1.0604 l -0.13333,0.68523 h 1.01235 l -0.0496,0.26355 h -1.0139 l -0.16123,0.83871 h 1.08831 l -0.0512,0.26355 h -1.40302 z"
         id="path6873"
         style="fill:#000000" /><path
         d="m -248.86397,133.25101 -0.56431,1.19992 h 0.66663 z m -0.14883,-0.26045 h 0.38137 l 0.25735,2.31459 h -0.31161 l -0.0543,-0.60307 h -0.80615 l -0.28526,0.60307 h -0.33641 z"
         id="path6875"
         style="fill:#000000" /><path
         d="m -247.79272,132.99056 h 1.76733 l -0.0512,0.26355 h -0.72709 l -0.39687,2.05104 h -0.31626 l 0.39998,-2.05104 h -0.72709 z"
         id="path6877"
         style="fill:#000000" /><path
         d="m -244.40223,133.06962 -0.0605,0.31781 q -0.12558,-0.0915 -0.26045,-0.13797 -0.13488,-0.0465 -0.27905,-0.0465 -0.2558,0 -0.41703,0.12712 -0.16123,0.12713 -0.16123,0.32401 0,0.11007 0.076,0.17829 0.076,0.0682 0.27595,0.13022 l 0.18759,0.0605 q 0.2527,0.0775 0.36897,0.20774 0.11782,0.12868 0.11782,0.32866 0,0.36432 -0.25735,0.57826 -0.25735,0.21239 -0.70228,0.21239 -0.16123,0 -0.31781,-0.0357 -0.15503,-0.0341 -0.31006,-0.10387 l 0.0636,-0.32401 q 0.15193,0.10697 0.30696,0.15813 0.15658,0.0512 0.33021,0.0512 0.2558,0 0.41548,-0.13643 0.15968,-0.13643 0.15968,-0.34572 0,-0.12712 -0.0682,-0.19688 -0.0682,-0.0698 -0.2744,-0.13333 l -0.15658,-0.0512 q -0.28526,-0.0899 -0.39998,-0.20309 -0.11317,-0.11472 -0.11317,-0.3023 0,-0.34262 0.2558,-0.55966 0.2558,-0.21859 0.66817,-0.21859 0.12403,0 0.26355,0.031 0.14108,0.031 0.28836,0.0899 z"
         id="path6879"
         style="fill:#000000" /></g><g
       aria-label="STAGE"
       transform="rotate(-90,0.79374999,0.79374999)"
       id="text18825"
       style="font-style:italic;font-size:3.175px;font-family:Menlo;-inkscape-font-specification:'Menlo Italic';text-align:center;text-anchor:middle;opacity:1;fill:#000000;stroke-width:0.352777"
       inkscape:transform-center-x="0.2571514"
       inkscape:transform-center-y="-2.0572085"><path
         d="m -286.85051,134.19793 -0.0605,0.31781 q -0.12557,-0.0915 -0.26045,-0.13797 -0.13487,-0.0465 -0.27905,-0.0465 -0.2558,0 -0.41703,0.12712 -0.16123,0.12713 -0.16123,0.32401 0,0.11008 0.076,0.17829 0.076,0.0682 0.27595,0.13022 l 0.18758,0.0605 q 0.2527,0.0775 0.36897,0.20774 0.11782,0.12868 0.11782,0.32867 0,0.36431 -0.25734,0.57825 -0.25735,0.21239 -0.70229,0.21239 -0.16123,0 -0.31781,-0.0357 -0.15503,-0.0341 -0.31006,-0.10387 l 0.0636,-0.32401 q 0.15193,0.10697 0.30695,0.15813 0.15658,0.0512 0.33022,0.0512 0.2558,0 0.41548,-0.13643 0.15968,-0.13642 0.15968,-0.34571 0,-0.12713 -0.0682,-0.19689 -0.0682,-0.0698 -0.2744,-0.13333 l -0.15658,-0.0512 q -0.28525,-0.0899 -0.39997,-0.20308 -0.11318,-0.11473 -0.11318,-0.30231 0,-0.34262 0.2558,-0.55966 0.2558,-0.21859 0.66818,-0.21859 0.12402,0 0.26355,0.031 0.14108,0.031 0.28835,0.0899 z"
         style="stroke-width:0.352778;fill:#000000"
         id="path19169" /><path
         d="m -286.41797,134.11887 h 1.76733 l -0.0512,0.26355 h -0.72709 l -0.39687,2.05104 h -0.31626 l 0.39997,-2.05104 h -0.72708 z"
         style="stroke-width:0.352778;fill:#000000"
         id="path19171" /><path
         d="m -283.6662,134.37932 -0.56431,1.19993 h 0.66662 z m -0.14883,-0.26045 h 0.38137 l 0.25735,2.31459 h -0.31161 l -0.0543,-0.60307 h -0.80615 l -0.28526,0.60307 H -284.97 Z"
         style="stroke-width:0.352778;fill:#000000"
         id="path19173" /><path
         d="m -281.39193,136.28463 q -0.13487,0.0961 -0.29455,0.14573 -0.15968,0.048 -0.34107,0.048 -0.35966,0 -0.55345,-0.20773 -0.19224,-0.20929 -0.19224,-0.59532 0,-0.13952 0.0248,-0.2961 0.0263,-0.15813 0.076,-0.33022 0.0543,-0.18138 0.12713,-0.32711 0.0729,-0.14727 0.15968,-0.25114 0.16588,-0.20154 0.36587,-0.29766 0.20153,-0.0961 0.45888,-0.0961 0.12403,0 0.2465,0.0326 0.12402,0.0326 0.2434,0.0946 l -0.0636,0.32091 q -0.10077,-0.0977 -0.21239,-0.14573 -0.11007,-0.0481 -0.23564,-0.0481 -0.15193,0 -0.28526,0.0651 -0.13332,0.0636 -0.23874,0.18914 -0.0682,0.0806 -0.12867,0.20154 -0.0605,0.12092 -0.10697,0.2713 -0.0527,0.17673 -0.0806,0.33176 -0.0264,0.15503 -0.0264,0.2806 0,0.2651 0.12248,0.40928 0.12247,0.14418 0.34726,0.14418 0.10542,0 0.18914,-0.0279 0.0837,-0.0294 0.14108,-0.0837 l 0.11782,-0.60927 h -0.33642 l 0.0465,-0.25735 h 0.63562 z"
         style="stroke-width:0.352778;fill:#000000"
         id="path19175" /><path
         d="m -280.44935,134.11887 h 1.37201 l -0.0512,0.26355 h -1.0604 l -0.13332,0.68523 h 1.01234 l -0.0496,0.26355 h -1.01389 l -0.16123,0.83871 h 1.0883 l -0.0512,0.26355 h -1.40301 z"
         style="stroke-width:0.352778;fill:#000000"
         id="path19177" /></g><path
       style="fill:none;stroke:#333333;stroke-width:0.351762;stroke-dasharray:none;stroke-opacity:1"
       d="m 32.010881,183.49028 v 20.275"
       id="path19613" /><path
       style="fill:none;stroke:#333333;stroke-width:0.351762;stroke-dasharray:none;stroke-opacity:1"
       d="m 46.856381,183.49028 v 20.275"
       id="path19615" /><path
       style="fill:none;stroke:#333333;stroke-width:0.351762;stroke-dasharray:none;stroke-opacity:1"
       d="m 61.701881,183.49028 v 20.275"
       id="path19617" /><path
       style="fill:none;stroke:#333333;stroke-width:0.351762;stroke-dasharray:none;stroke-opacity:1"
       d="m 76.547381,183.49028 v 20.275"
       id="path19619" /><path
       style="fill:none;stroke:#333333;stroke-width:0.351762;stroke-dasharray:none;stroke-opacity:1"
       d="m 91.39288,183.49028 v 20.275"
       id="path19621" /><path
       style="fill:none;stroke:#333333;stroke-width:0.351762;stroke-dasharray:none;stroke-opacity:1"
       d="m 106.23838,183.49028 v 20.275"
       id="path19623" /><path
       style="fill:none;stroke:#333333;stroke-width:0.351762;stroke-dasharray:none;stroke-opacity:1"
       d="m 121.08388,183.49028 v 20.275"
       id="path19625" /><path
       style="opacity:0.5;fill:none;stroke:#4d4d4d;stroke-width:0.365707;stroke-dasharray:none;stroke-opacity:1"
       d="M 135.888,193.82083 H 16.23"
       id="path19627" /><g
       aria-label="LINK"
       id="text32978"
       style="font-style:italic;font-size:3.88056px;font-family:Menlo;-inkscape-font-specification:'Menlo Italic';text-align:center;text-anchor:middle;opacity:1;fill:#000000;stroke:#4d4d4d;stroke-width:0.352777"
       transform="translate(2.5169525,-22.947158)"><path
         d="m 4.576008,272.06922 h 0.3827501 l -0.4888591,2.50683 h 1.3661527 l -0.062528,0.32211 H 4.0246204 Z"
         style="fill:#000000;stroke:none"
         id="path38562" /><path
         d="m 6.8687191,272.06922 h 1.5726861 l -0.062529,0.32212 h -0.594968 l -0.422541,2.18471 h 0.594968 l -0.062528,0.32211 H 6.3211211 l 0.062528,-0.32211 h 0.5930732 l 0.4244358,-2.18471 h -0.594968 z"
         style="fill:#000000;stroke:none"
         id="path38564" /><path
         d="m 9.0894276,272.06922 h 0.4850695 l 0.5002279,2.32871 0.452858,-2.32871 h 0.369486 l -0.551387,2.82894 H 9.8606123 l -0.5002279,-2.32871 -0.4547526,2.32871 H 8.5380401 Z"
         style="fill:#000000;stroke:none"
         id="path38566" /><path
         d="m 11.42193,272.06922 h 0.38275 l -0.24064,1.22594 1.405944,-1.22594 h 0.481279 l -1.332046,1.17289 0.810976,1.65605 h -0.414962 l -0.682129,-1.40405 -0.365697,0.31833 -0.212218,1.08572 h -0.384645 z"
         style="fill:#000000;stroke:none"
         id="path38568" /></g><path
       id="path33032"
       style="opacity:1;fill:none;stroke:#000000;stroke-width:0.307705;stroke-opacity:1.0"
       d="m 25.183181,266.07003 c -4.427181,0 -8.016121,-3.92858 -8.016124,-8.77474 -2e-6,-4.84616 3.588939,-8.77475 8.016124,-8.77475"
       sodipodi:nodetypes="csc" /><path
       style="opacity:1;fill:#ffffff;stroke:#000000;stroke-width:0.352777;stroke-dasharray:none;stroke-opacity:1.0"
       d="m 8.4233885,271.04175 v 11.94831"
       id="path34208" /><path
       style="opacity:1;fill:#ffffff;stroke:#000000;stroke-width:0.352777;stroke-dasharray:none;stroke-opacity:1.0"
       d="M 17.462074,258.11796 H 5.5137643"
       id="path38571" /><g
       aria-label="TRACK"
       id="text39046"
       style="font-style:italic;font-size:3.88056px;font-family:Menlo;-inkscape-font-specification:'Menlo Italic';text-align:center;text-anchor:middle;opacity:1;fill:#000000;stroke-width:0.352777"
       transform="translate(0,2.1166667)"><path
         d="m 5.5136361,226.1104 h 2.1600773 l -0.062528,0.32212 H 6.7225215 l -0.48507,2.50683 H 5.8509114 L 6.339771,226.43252 H 5.4511076 Z"
         style="stroke-width:0.352778;fill:#000000"
         id="path39577" /><path
         d="m 8.9356534,227.60351 q 0.1364259,0.0265 0.2179025,0.12695 0.083371,0.10043 0.1856909,0.43581 l 0.2292713,0.77308 H 9.1876624 L 8.9868131,228.225 q -0.083371,-0.29558 -0.1875857,-0.38843 -0.1023194,-0.0928 -0.3107479,-0.0928 H 8.124677 L 7.891616,228.9394 H 7.5069707 l 0.5475985,-2.82895 h 0.7882387 q 0.3922246,0 0.6063375,0.17054 0.2160078,0.16863 0.2160078,0.47749 0,0.34675 -0.1970597,0.57412 -0.1951649,0.22738 -0.5324401,0.27096 z m -0.5551778,-1.17857 -0.1932701,1.00425 h 0.4149623 q 0.3088531,0 0.4926492,-0.16106 0.1856908,-0.16295 0.1856908,-0.43202 0,-0.21221 -0.1193727,-0.31074 -0.1193727,-0.10043 -0.3770661,-0.10043 z"
         style="stroke-width:0.352778;fill:#000000"
         id="path39579" /><path
         d="m 11.213209,226.42873 -0.689709,1.46658 h 0.814766 z m -0.181902,-0.31833 h 0.466122 l 0.314538,2.82895 h -0.380856 l -0.06632,-0.73708 h -0.985298 l -0.348645,0.73708 H 9.6196779 Z"
         style="stroke-width:0.352778;fill:#000000"
         id="path39581" /><path
         d="m 13.945517,228.83892 q -0.159164,0.0777 -0.322117,0.11558 -0.161058,0.0398 -0.333485,0.0398 -0.435806,0 -0.676446,-0.25201 -0.238745,-0.25201 -0.238745,-0.70677 0,-0.41685 0.132636,-0.82613 0.132637,-0.40928 0.348644,-0.66887 0.202744,-0.24632 0.447174,-0.3638 0.24443,-0.11748 0.557073,-0.11748 0.151584,0 0.301274,0.0398 0.149689,0.0398 0.2918,0.11559 l -0.07769,0.39222 q -0.121268,-0.11937 -0.255799,-0.17811 -0.134531,-0.0587 -0.286116,-0.0587 -0.180006,0 -0.333485,0.0777 -0.153479,0.0758 -0.28801,0.23306 -0.19706,0.23306 -0.318328,0.59686 -0.119372,0.36381 -0.119372,0.7295 0,0.3278 0.147794,0.50213 0.147795,0.17432 0.426331,0.17432 0.161059,0 0.331591,-0.0606 0.172428,-0.0606 0.33917,-0.17621 z"
         style="stroke-width:0.352778;fill:#000000"
         id="path39583" /><path
         d="m 15.029345,226.1104 h 0.382751 l -0.24064,1.22594 1.405945,-1.22594 h 0.48128 l -1.332048,1.17289 0.810977,1.65606 h -0.414962 l -0.68213,-1.40405 -0.365697,0.31832 -0.212219,1.08573 h -0.384645 z"
         style="stroke-width:0.352778;fill:#000000"
         id="path39585" /></g></g></svg>
