<?xml version="1.0" encoding="UTF-8" standalone="no"?>
<!-- Created with Inkscape (http://www.inkscape.org/) -->

<svg
   width="162.56mm"
   height="128.5mm"
   viewBox="0 0 162.56001 128.50002"
   version="1.1"
   id="svg8"
   inkscape:version="1.2 (dc2aeda, 2022-05-15)"
   sodipodi:docname="Strata-dark.svg"
   xml:space="preserve"
   xmlns:inkscape="http://www.inkscape.org/namespaces/inkscape"
   xmlns:sodipodi="http://sodipodi.sourceforge.net/DTD/sodipodi-0.dtd"
   xmlns="http://www.w3.org/2000/svg"
   xmlns:svg="http://www.w3.org/2000/svg"
   xmlns:rdf="http://www.w3.org/1999/02/22-rdf-syntax-ns#"
   xmlns:cc="http://creativecommons.org/ns#"
   xmlns:dc="http://purl.org/dc/elements/1.1/"><defs
     id="defs2">
            
            
        
            
            
        
            
        
            
        
            
        
            
        
            
        
            
        
            
        
            
        
            
        
            
        
            
        
            
        
            
        
            
        
            
        
            
        
            
        
            
        
            
        
            
        
            
        
            
        
            
        
            
        
            
        
            
        
            
        
            
        
            
        
            
        
            
        
            
        
            
        
            
        
            
        
            
        
            
        
            
        
            
        
            
        
            
        
            
        
            
        
            
        
            
        
            
        
            
        
            
        
            
        
            
        
            
        
            
        
            
        
            
        
            
        
            
        
            
        
            
        
            
        
            
        
            
        
            
        
            
        
            
        
            
        
            
        
            
        
            
        
            
        
            
        
            
        
            
        
            
        
            
        
            
        
            
        
            
        
            
        
            
        
            
        
            
        
            
        
            
        
            
        
            
        
            
        
            
        
            
        
            
        
            
        
            
        
            
        
            
        
            
        
            
        
            
        
            
        
            
        
            
        
            
        
            
        
            
        
            
        
            
        
            
        
            
        
            
        
            
        
            
        
            
        
            
        
            
        
            
        
            
        
            
        
            
        
            
        
            
        
            
        
            
        
            
        
            
        
            
        
            
        
            
        
            
        
            
        
            
        
            
        
            
        
            
        
            
        
            
        
            
        
            
        
            
        
            
        
            
        
            
        
            
        
            
        
            
        
            
        
            
        
            
        
            
        
            
        
            
        
            
        
            
        
            
        
            
        
            
        
            
        
            
        
            
        
            
        
            
        
            
        
            
        
            
        
            
        
            
        
            
        
            
        
            
        
            
        
            
        
            
        
            
        
            
        
            
        
            
        
            
        
            
        
            
        
            
        
            
        
            
        
            
            
        
            
        
            
        
            
        
            
            
        
            
            
            
            
            
            
            
            
        
            
            
            
        
            
            
            
            
            
        
            
            
            
        
            
            
            
        
            
            
        
            
        
            
        
            
        
            
            
            
            
        
            
        
            
        
            
        
            
        
            
        
            
        
            
        
            
        
            
        
            
        
            
        
            
        
            
        
            
        
            
            
            
            
            
        
            
            
            
            
            
        
            
            
            
            
            
            
        
            
            
            
            
        
            
            
            
            
        
            
            
            
            
        
            
            
            
            
            
        
            
            
            
            
            
            
        
            
            
            
            
            
            
        
            
            
            
            
            
            
        
                
                
                
                
                
                
                
                
            
                
                
                
                
                
                
                
                
            
                
                
                
                
                
                
                
                
                
                
                
                
                
                
                
                
                
                
            
                
            
                
            
                
            
                
            
                
            
                
            
                
            
                
            
                
            
                
            
                
            
                
            
                
            
                
            
                
            
                
            
                
            
                
            
                
            
                
            
                
            
                
            
                
            
                
            
                
            
                
            
                
            
                
            
                
            
                
            
                
            
                
            
                
            
                
            
                
            
                
            
                
            
                
            
                
            
                
            
                
            
                
            
                
            
                
            
                
            
                
            
                
            
                
            
                
            
                
            
                
            
                
            
                
            
                
            
                
            
                
            
                
            
                
            
                
            
                
            
                
            
                
            
                
            
                
            
                
            
                
            
                
            
                
            
                
            
                
            
                
            
                
            
                
            
                
            
                
            
                
            
                
            
                
            
                
            
                
            
                
            
                
            
                
            
                
            
                
            
                
            
        
        
        
        
        
        
        
        
        
        
        
        
        
        
        
        
        
        
        
        
        
        
        
        
        
        
        
        
        
        
        
        
        
        
        
        
        
        
        
        
    </defs><sodipodi:namedview
     id="base"
     pagecolor="#ffffff"
     bordercolor="#666666"
     borderopacity="1.0"
     inkscape:pageopacity="0.0"
     inkscape:pageshadow="2"
     inkscape:zoom="1.3965312"
     inkscape:cx="259.21369"
     inkscape:cy="262.79399"
     inkscape:document-units="mm"
     inkscape:current-layer="svg8"
     showgrid="false"
     units="mm"
     inkscape:snap-bbox="true"
     inkscape:snap-page="true"
     inkscape:bbox-nodes="false"
     inkscape:snap-bbox-edge-midpoints="false"
     inkscape:window-width="1466"
     inkscape:window-height="900"
     inkscape:window-x="46"
     inkscape:window-y="38"
     inkscape:window-maximized="0"
     inkscape:snap-bbox-midpoints="true"
     inkscape:snap-nodes="false"
     inkscape:showpageshadow="2"
     inkscape:pagecheckerboard="0"
     inkscape:deskcolor="#d1d1d1"
     showguides="false" /><metadata
     id="metadata5"><rdf:RDF><cc:Work
         rdf:about=""><dc:format>image/svg+xml</dc:format><dc:type
           rdf:resource="http://purl.org/dc/dcmitype/StillImage" /></cc:Work></rdf:RDF></metadata><rect
     x="0.031013155"
     y="0.095075063"
     width="162.65105"
     height="128.5"
     style="clip-rule:evenodd;fill:#232323;fill-rule:evenodd;stroke-width:0.51254;stroke-linecap:round;stroke-linejoin:round;stroke-miterlimit:1.5"
     id="rect132"
     sodipodi:insensitive="true" /><rect
     style="opacity:1;fill:#3b3b3b;fill-opacity:1;stroke:#d08b58;stroke-width:0.352778;stroke-linecap:round;stroke-linejoin:round;stroke-dasharray:none;stroke-opacity:1;paint-order:fill markers stroke"
     id="rect2847"
     width="35.08136"
     height="14.208213"
     x="117.64552"
     y="111.63845"
     rx="3.9999998"
     ry="4" /><g
     id="g1044"
     sodipodi:insensitive="true"><path
       id="path128"
       d="m 79.141644,126.02924 c 0.05997,0.12664 0.07973,0.254 0.05856,0.38206 h -0.4191 c -0.0063,-0.0981 -0.02575,-0.17251 -0.05856,-0.22225 -0.05715,-0.0889 -0.160867,-0.13371 -0.310444,-0.13371 -0.1524,0 -0.286103,0.0628 -0.40005,0.18874 -0.1143,0.12524 -0.195086,0.30268 -0.243064,0.53234 -0.04798,0.22966 -0.03775,0.40146 0.03175,0.51611 0.06915,0.1143 0.175331,0.17145 0.318558,0.17145 0.147109,0 0.269522,-0.0494 0.367595,-0.14746 0.05362,-0.0526 0.10548,-0.13194 0.155222,-0.23742 h 0.415219 c -0.08255,0.22331 -0.213431,0.40464 -0.39123,0.54469 -0.178506,0.13935 -0.384528,0.20955 -0.617714,0.20955 -0.288572,0 -0.496005,-0.0945 -0.621947,-0.28328 -0.125236,-0.18979 -0.153105,-0.44979 -0.08431,-0.78069 0.07408,-0.35737 0.225425,-0.63289 0.45332,-0.82656 0.198613,-0.16828 0.424038,-0.25259 0.676274,-0.25259 0.337608,0 0.560916,0.11324 0.669925,0.33902 z"
       style="clip-rule:evenodd;fill:#ffffff;fill-rule:nonzero;stroke-width:0.352778;stroke-linecap:round;stroke-linejoin:round;stroke-miterlimit:1.5" /><path
       id="path129"
       d="m 80.070154,127.28371 0.763764,-1.55433 h 0.43568 l -1.110896,2.04646 h -0.39617 l -0.252236,-2.04646 h 0.448733 z"
       style="clip-rule:evenodd;fill:#ffffff;fill-rule:nonzero;stroke-width:0.352778;stroke-linecap:round;stroke-linejoin:round;stroke-miterlimit:1.5" /><path
       id="path130"
       d="m 82.852864,126.27618 -0.05856,0.2794 h -0.254 l -0.253647,1.22026 h -0.386644 l 0.253647,-1.22026 h -0.216958 l 0.05856,-0.2794 h 0.212724 l 0.01976,-0.097 c 0.03422,-0.16193 0.08431,-0.2734 0.149931,-0.33479 0.07549,-0.0907 0.220485,-0.13617 0.43568,-0.13617 0.02469,0 0.04657,7.1e-4 0.06632,0.002 0.01976,10e-4 0.04657,0.004 0.08114,0.006 l -0.06809,0.3228 c -0.02081,-0.003 -0.0568,-0.005 -0.107597,-0.006 -0.0508,-10e-4 -0.0889,0.01 -0.113948,0.0342 -0.02469,0.0247 -0.03986,0.0519 -0.04551,0.0815 -0.0063,0.0296 -0.01517,0.0723 -0.02752,0.1277 z"
       style="clip-rule:evenodd;fill:#ffffff;fill-rule:nonzero;stroke-width:0.352778;stroke-linecap:round;stroke-linejoin:round;stroke-miterlimit:1.5" /><path
       id="path131"
       d="m 83.759855,127.56241 c -0.0042,0.005 -0.01658,0.0187 -0.03563,0.042 -0.01905,0.0229 -0.04022,0.043 -0.06385,0.0607 -0.07267,0.0557 -0.1397,0.0935 -0.200731,0.11359 -0.06103,0.0205 -0.129822,0.0307 -0.206375,0.0307 -0.219427,0 -0.35066,-0.0801 -0.393347,-0.2413 -0.02364,-0.0889 -0.01729,-0.21978 0.01905,-0.39299 l 0.189442,-0.91264 h 0.397228 l -0.189089,0.91264 c -0.01834,0.0861 -0.02187,0.15064 -0.01129,0.19438 0.0194,0.0769 0.08079,0.11536 0.183797,0.11536 0.132644,0 0.23495,-0.0547 0.306917,-0.16404 0.0381,-0.0593 0.06738,-0.13759 0.08714,-0.2346 l 0.171449,-0.82374 h 0.392995 l -0.314325,1.51342 h -0.376767 z"
       style="clip-rule:evenodd;fill:#ffffff;fill-rule:nonzero;stroke-width:0.352778;stroke-linecap:round;stroke-linejoin:round;stroke-miterlimit:1.5" /><path
       id="path132"
       d="m 85.60594,126.8558 c 0.01693,-0.0797 0.01976,-0.14112 0.0067,-0.18345 -0.02152,-0.078 -0.08573,-0.11677 -0.192969,-0.11677 -0.131939,0 -0.233892,0.0571 -0.306211,0.17075 -0.03845,0.0603 -0.06703,0.13723 -0.08608,0.23071 l -0.170039,0.8188 h -0.386644 l 0.314325,-1.51095 h 0.374649 l -0.04621,0.22084 c 0.06562,-0.0773 0.124883,-0.13335 0.176741,-0.16757 0.09243,-0.0614 0.200378,-0.0917 0.322439,-0.0917 0.153458,0 0.27058,0.0406 0.351014,0.12312 0.08008,0.0818 0.100894,0.21731 0.06138,0.40746 l -0.212019,1.01882 H 85.41544 Z"
       style="clip-rule:evenodd;fill:#ffffff;fill-rule:nonzero;stroke-width:0.352778;stroke-linecap:round;stroke-linejoin:round;stroke-miterlimit:1.5" /><path
       id="path133"
       d="m 86.645928,127.3003 -0.09737,0.47554 h -0.381706 l 0.425097,-2.03976 h 0.381 l -0.230363,1.10314 0.601838,-0.57009 h 0.480836 l -0.639939,0.57961 0.346781,0.9271 H 87.06397 l -0.220133,-0.64664 z"
       style="clip-rule:evenodd;fill:#ffffff;fill-rule:nonzero;stroke-width:0.352778;stroke-linecap:round;stroke-linejoin:round;stroke-miterlimit:1.5" /><path
       id="path134"
       d="m 69.860771,126.76196 h 6.621988"
       style="clip-rule:evenodd;fill:none;fill-rule:evenodd;stroke:#d08c59;stroke-width:0.229305px;stroke-linecap:round;stroke-linejoin:round;stroke-miterlimit:1.5" /><path
       id="path135"
       d="m 88.171339,126.76196 h 6.621988"
       style="clip-rule:evenodd;fill:none;fill-rule:evenodd;stroke:#d08c59;stroke-width:0.229305px;stroke-linecap:round;stroke-linejoin:round;stroke-miterlimit:1.5" /></g><g
     aria-label="STRATA"
     id="text743"
     style="font-style:italic;font-size:5.64444px;font-family:Menlo;-inkscape-font-specification:'Menlo Italic';text-align:center;text-anchor:middle;stroke:#000000;stroke-width:0.352777;stroke-linecap:round;stroke-linejoin:round;paint-order:fill markers stroke"
     sodipodi:insensitive="true"><path
       d="M 74.462852,2.7993324 74.355365,3.3643276 Q 74.132123,3.2017192 73.892344,3.119037 73.652566,3.036355 73.396251,3.036355 q -0.454752,0 -0.741384,0.2259981 -0.286632,0.225998 -0.286632,0.5760195 0,0.1956813 0.135048,0.3169485 0.135047,0.1212673 0.490581,0.2315103 l 0.333485,0.1074869 q 0.44924,0.1378037 0.655946,0.3693139 0.209461,0.2287542 0.209461,0.5842878 0,0.6476774 -0.457508,1.0280157 -0.457508,0.3775822 -1.248502,0.3775822 -0.286631,0 -0.564995,-0.06339 -0.275607,-0.060634 -0.551215,-0.184657 l 0.112999,-0.5760195 q 0.270095,0.1901691 0.545703,0.2811195 0.278363,0.09095 0.587044,0.09095 0.454752,0 0.738628,-0.2425346 0.283875,-0.2425345 0.283875,-0.6146045 0,-0.2259981 -0.121267,-0.3500215 Q 73.396251,5.070337 73.029693,4.957338 L 72.751329,4.866388 Q 72.244212,4.7065358 72.040262,4.5053424 71.839069,4.3013929 71.839069,3.9679079 q 0,-0.6090924 0.454752,-0.9949428 0.454752,-0.3886065 1.187868,-0.3886065 0.220486,0 0.468533,0.055122 0.250802,0.055121 0.51263,0.1598518 z"
       style="fill:#ffffff;stroke:none;stroke-width:0.352778"
       id="path581" /><path
       d="m 75.231796,2.6587726 h 3.141925 l -0.09095,0.4685326 h -1.292599 l -0.705555,3.6462863 h -0.56224 l 0.711068,-3.6462863 h -1.292599 z"
       style="fill:#ffffff;stroke:none;stroke-width:0.352778"
       id="path583" /><path
       d="m 80.209266,4.8305591 q 0.198438,0.038585 0.316949,0.184657 0.121267,0.146072 0.270095,0.6338971 l 0.333485,1.1244783 H 80.575824 L 80.28368,5.7345515 Q 80.162413,5.3046039 80.010829,5.1695563 79.862001,5.0345086 79.558833,5.0345086 H 79.029667 L 78.69067,6.7735915 h -0.559484 l 0.796506,-4.1148189 h 1.146527 q 0.570507,0 0.881944,0.2480467 0.314192,0.2452906 0.314192,0.6945307 0,0.5043616 -0.286632,0.8350905 -0.283875,0.3307289 -0.774457,0.3941186 z m -0.807529,-1.7142782 -0.28112,1.4607194 h 0.60358 q 0.44924,0 0.71658,-0.2342663 0.270095,-0.2370224 0.270095,-0.628385 0,-0.3086803 -0.173633,-0.4519961 -0.173632,-0.146072 -0.548459,-0.146072 z"
       style="fill:#ffffff;stroke:none;stroke-width:0.352778"
       id="path585" /><path
       d="m 83.522068,3.1217931 -1.003211,2.1332015 h 1.185112 z M 83.257485,2.6587726 h 0.677994 l 0.457509,4.1148189 H 83.839017 L 83.742554,5.7014786 H 82.309396 L 81.802278,6.7735915 H 81.20421 Z"
       style="fill:#ffffff;stroke:none;stroke-width:0.352778"
       id="path587" /><path
       d="m 85.426515,2.6587726 h 3.141925 l -0.09095,0.4685326 h -1.2926 l -0.705555,3.6462863 h -0.562239 l 0.711067,-3.6462863 h -1.292598 z"
       style="fill:#ffffff;stroke:none;stroke-width:0.352778"
       id="path589" /><path
       d="m 90.318546,3.1217931 -1.003211,2.1332015 h 1.185112 z M 90.053963,2.6587726 h 0.677995 l 0.457508,4.1148189 h -0.553971 l -0.09646,-1.0721129 h -1.433158 l -0.507118,1.0721129 h -0.598068 z"
       style="fill:#ffffff;stroke:none;stroke-width:0.352778"
       id="path591" /></g><rect
     style="opacity:1;fill:none;stroke:#d08b58;stroke-width:0.352778;stroke-linecap:round;stroke-linejoin:round;stroke-dasharray:none;stroke-opacity:1;paint-order:fill markers stroke"
     id="rect2282"
     width="132.07436"
     height="24.647223"
     x="26.941719"
     y="70.500053"
     rx="4"
     ry="4" /><rect
     style="opacity:1;fill:none;stroke:#d08b58;stroke-width:0.352779;stroke-linecap:round;stroke-linejoin:round;stroke-dasharray:none;stroke-opacity:1;paint-order:fill markers stroke"
     id="rect2284"
     width="132.07436"
     height="24.647221"
     x="26.941719"
     y="42.117764"
     rx="4"
     ry="3.9999998" /><rect
     style="opacity:1;fill:none;stroke:#d08b58;stroke-width:0.352779;stroke-linecap:round;stroke-linejoin:round;stroke-dasharray:none;stroke-opacity:1;paint-order:fill markers stroke"
     id="rect2286"
     width="86.590889"
     height="24.647221"
     x="26.941719"
     y="98.882347"
     rx="4"
     ry="4" /><rect
     style="opacity:1;fill:none;stroke:#d08b58;stroke-width:0.352779;stroke-linecap:round;stroke-linejoin:round;stroke-dasharray:none;stroke-opacity:1;paint-order:fill markers stroke"
     id="rect2288"
     width="124.11806"
     height="29.004745"
     x="34.898006"
     y="9.3779478"
     rx="4"
     ry="4" /><rect
     style="opacity:1;fill:none;stroke:#d08b58;stroke-width:0.35278;stroke-linecap:round;stroke-linejoin:round;stroke-dasharray:none;stroke-opacity:1;paint-order:fill markers stroke"
     id="rect2290"
     width="18.824961"
     height="49.830143"
     x="5.19807"
     y="41.969296"
     rx="4"
     ry="4.0000005" /><g
     aria-label="CLOCK"
     id="text2346"
     style="font-style:italic;font-size:3.175px;font-family:Menlo;-inkscape-font-specification:'Menlo Italic';text-align:center;text-anchor:middle;opacity:1;fill:none;stroke:#d08b58;stroke-width:0.352777;stroke-linecap:round;stroke-linejoin:round;paint-order:fill markers stroke"
     transform="translate(8.7558373,2.6224671)"><path
       d="m 11.422507,22.449407 q -0.130225,0.06356 -0.26355,0.09457 -0.131775,0.03256 -0.272852,0.03256 -0.356567,0 -0.553454,-0.206189 -0.195337,-0.206189 -0.195337,-0.578259 0,-0.341065 0.10852,-0.675928 0.108521,-0.334863 0.285254,-0.547254 0.165882,-0.201538 0.365869,-0.297656 0.199988,-0.09612 0.455787,-0.09612 0.124023,0 0.246496,0.03256 0.122473,0.03256 0.238745,0.09457 l -0.06356,0.320911 q -0.09922,-0.09767 -0.209289,-0.145728 -0.110071,-0.04806 -0.234095,-0.04806 -0.147277,0 -0.272851,0.06356 -0.125574,0.06201 -0.235645,0.190686 -0.16123,0.190686 -0.260449,0.488342 -0.09767,0.297657 -0.09767,0.596863 0,0.268201 0.120923,0.410828 0.120922,0.142627 0.348815,0.142627 0.131775,0 0.271302,-0.04961 0.141076,-0.04961 0.277502,-0.144177 z"
       style="fill:#ffffff;stroke:none;stroke-width:0.352778"
       id="path2851" /><path
       d="m 12.4426,20.216985 h 0.313159 l -0.399976,2.051038 h 1.117761 l -0.05116,0.263549 h -1.430921 z"
       style="fill:#ffffff;stroke:none;stroke-width:0.352778"
       id="path2853" /><path
       d="m 14.5603,22.322283 q 0.131775,0 0.243396,-0.07906 0.111621,-0.07906 0.184485,-0.226343 0.114721,-0.224792 0.186035,-0.544153 0.07131,-0.31936 0.07131,-0.613916 0,-0.220141 -0.08216,-0.324011 -0.08062,-0.10542 -0.251148,-0.10542 -0.131775,0 -0.241846,0.07906 -0.11007,0.07906 -0.182934,0.226343 -0.117822,0.227893 -0.189136,0.544153 -0.07131,0.316259 -0.07131,0.610815 0,0.221692 0.08061,0.327112 0.08217,0.10542 0.252698,0.10542 z m 1.00614,-1.372009 q 0,0.170532 -0.03566,0.37052 -0.03411,0.199987 -0.100769,0.410827 -0.04496,0.142627 -0.09767,0.255799 -0.05116,0.113171 -0.111622,0.204638 -0.136425,0.196887 -0.305407,0.291455 -0.168982,0.09302 -0.393775,0.09302 -0.311609,0 -0.461987,-0.190686 -0.150378,-0.190686 -0.150378,-0.587561 0,-0.172083 0.03256,-0.36897 0.03411,-0.198437 0.100769,-0.409277 0.04496,-0.142627 0.09612,-0.255799 0.05271,-0.113171 0.113171,-0.204638 0.136426,-0.196887 0.305408,-0.289905 0.168982,-0.09457 0.393774,-0.09457 0.31316,0 0.463538,0.190686 0.151929,0.189136 0.151928,0.584461 z"
       style="fill:#ffffff;stroke:none;stroke-width:0.352778"
       id="path2855" /><path
       d="m 17.15704,22.449407 q -0.130225,0.06356 -0.26355,0.09457 -0.131775,0.03256 -0.272851,0.03256 -0.356568,0 -0.553455,-0.206189 -0.195337,-0.206189 -0.195337,-0.578259 0,-0.341065 0.108521,-0.675928 0.10852,-0.334863 0.285254,-0.547254 0.165881,-0.201538 0.365869,-0.297656 0.199988,-0.09612 0.455786,-0.09612 0.124023,0 0.246496,0.03256 0.122474,0.03256 0.238746,0.09457 l -0.06356,0.320911 q -0.09922,-0.09767 -0.20929,-0.145728 -0.110071,-0.04806 -0.234094,-0.04806 -0.147278,0 -0.272852,0.06356 -0.125573,0.06201 -0.235644,0.190686 -0.161231,0.190686 -0.26045,0.488342 -0.09767,0.297657 -0.09767,0.596863 0,0.268201 0.120923,0.410828 0.120923,0.142627 0.348816,0.142627 0.131775,0 0.271301,-0.04961 0.141077,-0.04961 0.277502,-0.144177 z"
       style="fill:#ffffff;stroke:none;stroke-width:0.352778"
       id="path2857" /><path
       d="m 18.043808,20.216985 h 0.313159 l -0.196887,1.00304 1.150317,-1.00304 h 0.393775 l -1.089856,0.959631 0.663525,1.354956 h -0.339514 l -0.558106,-1.148767 -0.299206,0.260449 -0.173633,0.888318 h -0.314709 z"
       style="fill:#ffffff;stroke:none;stroke-width:0.352778"
       id="path2859" /></g><g
     aria-label="RESET"
     id="text2350"
     style="font-style:italic;font-size:3.175px;font-family:Menlo;-inkscape-font-specification:'Menlo Italic';text-align:center;text-anchor:middle;opacity:1;fill:none;stroke:#d08b58;stroke-width:0.352777;stroke-linecap:round;stroke-linejoin:round;paint-order:fill markers stroke"
     transform="translate(13.518337,0.65605489)"><path
       d="m 10.922041,34.235935 q 0.111621,0.0217 0.178283,0.10387 0.06821,0.08217 0.151929,0.356567 l 0.187585,0.63252 H 11.12823 l -0.164331,-0.584461 q -0.06821,-0.241845 -0.153479,-0.31781 -0.08372,-0.07596 -0.254249,-0.07596 h -0.297656 l -0.190686,0.978235 H 9.7531197 l 0.4480343,-2.314588 h 0.644922 q 0.320911,0 0.496094,0.139527 0.176733,0.137976 0.176733,0.390674 0,0.283703 -0.16123,0.469738 -0.15968,0.186035 -0.435632,0.221692 z m -0.454236,-0.964282 -0.15813,0.821655 h 0.339514 q 0.252698,0 0.403076,-0.131775 0.151929,-0.133325 0.151929,-0.353466 0,-0.173633 -0.09767,-0.254248 -0.09767,-0.08217 -0.308508,-0.08217 z"
       style="fill:#ffffff;stroke:none;stroke-width:0.352778"
       id="path2862" /><path
       d="m 12.179328,33.014304 h 1.372009 l -0.05116,0.26355 h -1.060401 l -0.133325,0.68523 h 1.012341 l -0.04961,0.263549 h -1.013891 l -0.161231,0.838709 h 1.088306 l -0.05116,0.26355 h -1.403015 z"
       style="fill:#ffffff;stroke:none;stroke-width:0.352778"
       id="path2864" /><path
       d="m 15.335725,33.093369 -0.06046,0.31781 q -0.125574,-0.09147 -0.260449,-0.137976 -0.134876,-0.04651 -0.279053,-0.04651 -0.255798,0 -0.417029,0.127124 -0.16123,0.127124 -0.16123,0.324011 0,0.110071 0.07596,0.178283 0.07597,0.06821 0.275952,0.130225 l 0.187586,0.06046 q 0.252698,0.07751 0.36897,0.20774 0.117822,0.128674 0.117822,0.328662 0,0.364319 -0.257349,0.578259 -0.257348,0.21239 -0.702282,0.21239 -0.161231,0 -0.317811,-0.03566 -0.155029,-0.03411 -0.310058,-0.10387 l 0.06356,-0.324011 q 0.151929,0.10697 0.306958,0.15813 0.15658,0.05116 0.330212,0.05116 0.255799,0 0.415479,-0.136426 0.15968,-0.136425 0.15968,-0.345715 0,-0.127124 -0.06821,-0.196887 -0.06821,-0.06976 -0.274402,-0.133325 l -0.156579,-0.05116 q -0.285254,-0.08992 -0.399976,-0.203088 -0.113171,-0.114722 -0.113171,-0.302307 0,-0.342615 0.255798,-0.559656 0.255798,-0.218592 0.668176,-0.218592 0.124024,0 0.26355,0.03101 0.141077,0.03101 0.288355,0.08992 z"
       style="fill:#ffffff;stroke:none;stroke-width:0.352778"
       id="path2866" /><path
       d="m 16.00235,33.014304 h 1.37201 l -0.05116,0.26355 h -1.0604 l -0.133326,0.68523 h 1.012342 l -0.04961,0.263549 h -1.013891 l -0.161231,0.838709 h 1.088306 l -0.05116,0.26355 h -1.403015 z"
       style="fill:#ffffff;stroke:none;stroke-width:0.352778"
       id="path2868" /><path
       d="m 17.679767,33.014304 h 1.767334 l -0.05116,0.26355 h -0.727088 l -0.396875,2.051038 H 17.95572 l 0.399975,-2.051038 h -0.727087 z"
       style="fill:#ffffff;stroke:none;stroke-width:0.352778"
       id="path2870" /></g><g
     aria-label="LAYER"
     id="text2456"
     style="font-style:italic;font-size:3.175px;font-family:Menlo;-inkscape-font-specification:'Menlo Italic';text-align:center;text-anchor:middle;opacity:1;fill:none;stroke:#d08b58;stroke-width:0.352777;stroke-linecap:round;stroke-linejoin:round;paint-order:fill markers stroke"
     transform="translate(0,1.5875)"><path
       d="m 10.162198,85.919551 h 0.313159 l -0.399976,2.051038 h 1.117761 l -0.05116,0.263549 H 9.7110623 Z"
       style="fill:#ffffff;stroke:none;stroke-width:0.352778"
       id="path2873" /><path
       d="m 12.641116,86.18 -0.564307,1.199927 h 0.666626 z m -0.148828,-0.260449 h 0.381372 l 0.257349,2.314587 H 12.8194 l -0.05426,-0.603063 h -0.806152 l -0.285254,0.603063 H 11.33732 Z"
       style="fill:#ffffff;stroke:none;stroke-width:0.352778"
       id="path2875" /><path
       d="m 13.715469,85.919551 h 0.313159 l 0.365869,1.009241 0.770496,-1.009241 h 0.337964 l -0.984436,1.275891 -0.199988,1.038696 h -0.320911 l 0.203089,-1.038696 z"
       style="fill:#ffffff;stroke:none;stroke-width:0.352778"
       id="path2877" /><path
       d="m 15.857974,85.919551 h 1.372009 l -0.05116,0.26355 h -1.0604 l -0.133325,0.685229 h 1.012341 l -0.04961,0.26355 h -1.013891 l -0.161231,0.838709 h 1.088306 l -0.05116,0.263549 h -1.403015 z"
       style="fill:#ffffff;stroke:none;stroke-width:0.352778"
       id="path2879" /><path
       d="m 18.423709,87.141182 q 0.111621,0.0217 0.178283,0.10387 0.06821,0.08217 0.151929,0.356567 l 0.187585,0.632519 h -0.311608 l -0.164332,-0.58446 q -0.06821,-0.241846 -0.153479,-0.31781 -0.08371,-0.07596 -0.254248,-0.07596 h -0.297656 l -0.190686,0.978234 h -0.314709 l 0.448034,-2.314587 h 0.644922 q 0.320911,0 0.496094,0.139526 0.176733,0.137977 0.176733,0.390674 0,0.283704 -0.16123,0.469739 -0.15968,0.186035 -0.435632,0.221692 z m -0.454236,-0.964282 -0.15813,0.821655 h 0.339514 q 0.252698,0 0.403076,-0.131775 0.151929,-0.133325 0.151929,-0.353467 0,-0.173632 -0.09767,-0.254248 -0.09767,-0.08217 -0.308508,-0.08217 z"
       style="fill:#ffffff;stroke:none;stroke-width:0.352778"
       id="path2881" /></g><g
     aria-label="OFFSET"
     id="text2460"
     style="font-style:italic;font-size:3.175px;font-family:Menlo;-inkscape-font-specification:'Menlo Italic';text-align:center;text-anchor:middle;opacity:1;fill:none;stroke:#d08b58;stroke-width:0.352777;stroke-linecap:round;stroke-linejoin:round;paint-order:fill markers stroke"
     transform="translate(0,-1.5875)"><path
       d="m 10.086174,107.49335 q 0.131775,0 0.243396,-0.0791 0.111621,-0.0791 0.184485,-0.22634 0.114721,-0.22479 0.186035,-0.54415 0.07131,-0.31936 0.07131,-0.61392 0,-0.22014 -0.08216,-0.32401 -0.08061,-0.10542 -0.251148,-0.10542 -0.131775,0 -0.241845,0.0791 -0.110071,0.0791 -0.182935,0.22635 -0.1178221,0.22789 -0.1891356,0.54415 -0.071314,0.31626 -0.071314,0.61082 0,0.22169 0.080615,0.32711 0.082166,0.10542 0.2526976,0.10542 z m 1.00614,-1.37201 q 0,0.17053 -0.03566,0.37052 -0.03411,0.19999 -0.100769,0.41083 -0.04496,0.14262 -0.09767,0.25579 -0.05116,0.11318 -0.111621,0.20464 -0.136426,0.19689 -0.305408,0.29146 -0.168982,0.093 -0.393774,0.093 -0.3116093,0 -0.4619877,-0.19069 -0.1503784,-0.19069 -0.1503784,-0.58756 0,-0.17208 0.032556,-0.36897 0.034107,-0.19844 0.1007691,-0.40928 0.044958,-0.14263 0.096118,-0.2558 0.05271,-0.11317 0.1131714,-0.20464 0.1364258,-0.19688 0.3054076,-0.2899 0.168982,-0.0946 0.393775,-0.0946 0.313159,0 0.463537,0.19069 0.151929,0.18913 0.151929,0.58446 z"
       style="fill:#ffffff;stroke:none;stroke-width:0.352778"
       id="path2884" /><path
       d="m 11.8132,105.38805 h 1.362708 l -0.05116,0.26355 H 12.07675 l -0.133325,0.68213 h 0.948779 l -0.04961,0.26355 h -0.95033 l -0.215491,1.10536 h -0.314709 z"
       style="fill:#ffffff;stroke:none;stroke-width:0.352778"
       id="path2886" /><path
       d="m 13.724711,105.38805 h 1.362708 l -0.05116,0.26355 h -1.047998 l -0.133325,0.68213 h 0.948779 l -0.04961,0.26355 h -0.95033 l -0.21549,1.10536 h -0.31471 z"
       style="fill:#ffffff;stroke:none;stroke-width:0.352778"
       id="path2888" /><path
       d="m 16.820646,105.46711 -0.06046,0.31781 q -0.125574,-0.0915 -0.260449,-0.13797 -0.134876,-0.0465 -0.279053,-0.0465 -0.255799,0 -0.417029,0.12712 -0.16123,0.12713 -0.16123,0.32401 0,0.11008 0.07596,0.17829 0.07596,0.0682 0.275952,0.13022 l 0.187585,0.0605 q 0.252698,0.0775 0.36897,0.20774 0.117822,0.12868 0.117822,0.32867 0,0.36431 -0.257348,0.57826 -0.257349,0.21239 -0.702283,0.21239 -0.16123,0 -0.31781,-0.0357 -0.155029,-0.0341 -0.310059,-0.10387 l 0.06356,-0.32401 q 0.151929,0.10697 0.306958,0.15813 0.15658,0.0512 0.330213,0.0512 0.255798,0 0.415478,-0.13643 0.159681,-0.13642 0.159681,-0.34571 0,-0.12713 -0.06821,-0.19689 -0.06821,-0.0698 -0.274402,-0.13333 l -0.15658,-0.0512 q -0.285254,-0.0899 -0.399975,-0.20308 -0.113172,-0.11473 -0.113172,-0.30231 0,-0.34262 0.255799,-0.55966 0.255798,-0.21859 0.668176,-0.21859 0.124023,0 0.26355,0.031 0.141076,0.031 0.288354,0.0899 z"
       style="fill:#ffffff;stroke:none;stroke-width:0.352778"
       id="path2890" /><path
       d="m 17.487272,105.38805 h 1.37201 l -0.05116,0.26355 h -1.0604 l -0.133326,0.68523 h 1.012342 l -0.04961,0.26355 h -1.013891 l -0.161231,0.83871 h 1.088306 l -0.05116,0.26355 h -1.403015 z"
       style="fill:#ffffff;stroke:none;stroke-width:0.352778"
       id="path2892" /><path
       d="m 19.16469,105.38805 h 1.767333 l -0.05116,0.26355 h -0.727088 l -0.396875,2.05104 h -0.316259 l 0.399975,-2.05104 H 19.11353 Z"
       style="fill:#ffffff;stroke:none;stroke-width:0.352778"
       id="path2894" /></g><path
     style="opacity:1;fill:none;stroke:#d08b58;stroke-width:0.352777;stroke-linecap:round;stroke-linejoin:round;stroke-dasharray:none;stroke-opacity:1;paint-order:fill markers stroke"
     d="M 22.786697,9.9753053 H 10.140087"
     id="path2529" /><path
     style="opacity:1;fill:none;stroke:#d08b58;stroke-width:0.352778;stroke-linecap:round;stroke-linejoin:round;stroke-dasharray:none;stroke-opacity:1;paint-order:fill markers stroke"
     d="M 20.20629,98.321382 H 9.8786308"
     id="path2661" /><path
     style="opacity:1;fill:none;stroke:#d08b58;stroke-width:0.352778;stroke-linecap:round;stroke-linejoin:round;stroke-dasharray:none;stroke-opacity:1;paint-order:fill markers stroke"
     d="M 20.20629,83.086206 H 9.8786308"
     id="path2663" /><path
     style="opacity:1;fill:none;stroke:#d08b58;stroke-width:0.352778;stroke-linecap:round;stroke-linejoin:round;stroke-dasharray:none;stroke-opacity:1;paint-order:fill markers stroke"
     d="M 43.306389,17.500486 V 33.147708"
     id="path2761" /><path
     style="opacity:1;fill:none;stroke:#d08b58;stroke-width:0.352778;stroke-linecap:round;stroke-linejoin:round;stroke-dasharray:none;stroke-opacity:1;paint-order:fill markers stroke"
     d="M 58.622103,17.500486 V 33.147708"
     id="path2763" /><path
     style="opacity:1;fill:none;stroke:#d08b58;stroke-width:0.352778;stroke-linecap:round;stroke-linejoin:round;stroke-dasharray:none;stroke-opacity:1;paint-order:fill markers stroke"
     d="M 73.937818,17.500486 V 33.147708"
     id="path2765" /><path
     style="opacity:1;fill:none;stroke:#d08b58;stroke-width:0.352778;stroke-linecap:round;stroke-linejoin:round;stroke-dasharray:none;stroke-opacity:1;paint-order:fill markers stroke"
     d="M 89.253532,17.500486 V 33.147708"
     id="path2767" /><path
     style="opacity:1;fill:none;stroke:#d08b58;stroke-width:0.352778;stroke-linecap:round;stroke-linejoin:round;stroke-dasharray:none;stroke-opacity:1;paint-order:fill markers stroke"
     d="M 104.56925,17.500486 V 33.147708"
     id="path2769" /><path
     style="opacity:1;fill:none;stroke:#d08b58;stroke-width:0.352778;stroke-linecap:round;stroke-linejoin:round;stroke-dasharray:none;stroke-opacity:1;paint-order:fill markers stroke"
     d="M 119.88496,17.500486 V 33.147708"
     id="path2771" /><path
     style="opacity:1;fill:none;stroke:#d08b58;stroke-width:0.352778;stroke-linecap:round;stroke-linejoin:round;stroke-dasharray:none;stroke-opacity:1;paint-order:fill markers stroke"
     d="M 135.20068,17.500486 V 33.147708"
     id="path2773" /><path
     style="opacity:1;fill:none;stroke:#d08b58;stroke-width:0.352778;stroke-linecap:round;stroke-linejoin:round;stroke-dasharray:none;stroke-opacity:1;paint-order:fill markers stroke"
     d="M 150.51639,17.500486 V 33.147708"
     id="path2775" /><path
     style="opacity:1;fill:none;stroke:#d08b58;stroke-width:0.352778;stroke-linecap:round;stroke-linejoin:round;stroke-dasharray:none;stroke-opacity:1;paint-order:fill markers stroke"
     d="M 50.856776,70.746382 V 94.817461"
     id="path2777" /><path
     style="opacity:1;fill:none;stroke:#d08b58;stroke-width:0.352778;stroke-linecap:round;stroke-linejoin:round;stroke-dasharray:none;stroke-opacity:1;paint-order:fill markers stroke"
     d="m 43.306389,104.96857 v 15.65978"
     id="path2779" /><path
     style="opacity:1;fill:none;stroke:#d08b58;stroke-width:0.352778;stroke-linecap:round;stroke-linejoin:round;stroke-dasharray:none;stroke-opacity:1;paint-order:fill markers stroke"
     d="M 43.306389,76.339638 V 91.999419"
     id="path2781" /><g
     aria-label="OUT"
     id="text2787"
     style="font-style:italic;font-size:3.175px;font-family:Menlo;-inkscape-font-specification:'Menlo Italic';text-align:center;text-anchor:middle;opacity:1;fill:none;stroke:#d08b58;stroke-width:0.352777;stroke-linecap:round;stroke-linejoin:round;paint-order:fill markers stroke"
     transform="translate(0,1.5875)"><path
       d="m 142.72273,122.15103 q 0.13178,0 0.2434,-0.0791 0.11162,-0.0791 0.18448,-0.22635 0.11473,-0.22479 0.18604,-0.54415 0.0713,-0.31936 0.0713,-0.61392 0,-0.22014 -0.0822,-0.32401 -0.0806,-0.10542 -0.25115,-0.10542 -0.13178,0 -0.24185,0.0791 -0.11007,0.0791 -0.18293,0.22634 -0.11782,0.22789 -0.18914,0.54415 -0.0713,0.31626 -0.0713,0.61082 0,0.22169 0.0806,0.32711 0.0822,0.10542 0.2527,0.10542 z m 1.00614,-1.37201 q 0,0.17053 -0.0357,0.37052 -0.0341,0.19999 -0.10077,0.41083 -0.045,0.14263 -0.0977,0.2558 -0.0512,0.11317 -0.11162,0.20464 -0.13643,0.19688 -0.30541,0.29145 -0.16898,0.093 -0.39377,0.093 -0.31161,0 -0.46199,-0.19069 -0.15038,-0.19068 -0.15038,-0.58756 0,-0.17208 0.0326,-0.36897 0.0341,-0.19843 0.10076,-0.40927 0.045,-0.14263 0.0961,-0.2558 0.0527,-0.11317 0.11317,-0.20464 0.13643,-0.19689 0.30541,-0.28991 0.16898,-0.0946 0.39378,-0.0946 0.31316,0 0.46353,0.19068 0.15193,0.18914 0.15193,0.58446 z"
       style="fill:#ffffff;stroke:none;stroke-width:0.352778"
       id="path2926" /><path
       d="m 144.03428,121.472 0.27595,-1.42627 h 0.31471 l -0.2775,1.42627 q -0.003,0.0202 -0.0124,0.0636 -0.0465,0.23874 -0.0465,0.33021 0,0.14262 0.0837,0.21394 0.0853,0.0713 0.2558,0.0713 0.13798,0 0.2341,-0.0434 0.0961,-0.045 0.16588,-0.14107 0.0341,-0.0481 0.0682,-0.16433 0.0357,-0.11783 0.0775,-0.33022 l 0.27595,-1.42627 h 0.31471 l -0.27595,1.42627 q -0.0651,0.33952 -0.13953,0.4992 -0.0729,0.15813 -0.19379,0.2558 -0.11007,0.0868 -0.25115,0.13332 -0.14107,0.045 -0.3054,0.045 -0.29766,0 -0.45889,-0.13953 -0.15968,-0.13952 -0.15968,-0.39687 0,-0.0574 0.0124,-0.15503 0.014,-0.0977 0.0419,-0.24185 z"
       style="fill:#ffffff;stroke:none;stroke-width:0.352778"
       id="path2928" /><path
       d="m 146.06671,120.04573 h 1.76734 l -0.0512,0.26355 h -0.72709 l -0.39687,2.05104 h -0.31626 l 0.39997,-2.05104 h -0.72709 z"
       style="fill:#ffffff;stroke:none;stroke-width:0.352778"
       id="path2930" /></g><g
     aria-label="GATE"
     id="text2841"
     style="font-style:italic;font-size:3.175px;font-family:Menlo;-inkscape-font-specification:'Menlo Italic';text-align:center;text-anchor:middle;opacity:1;fill:none;stroke:#d08b58;stroke-width:0.352777;stroke-linecap:round;stroke-linejoin:round;paint-order:fill markers stroke"
     transform="translate(0,1.5875)"><path
       d="m 132.61233,122.21149 q -0.13487,0.0961 -0.29455,0.14573 -0.15968,0.0481 -0.34107,0.0481 -0.35967,0 -0.55345,-0.20774 -0.19224,-0.20929 -0.19224,-0.59531 0,-0.13953 0.0248,-0.29611 0.0264,-0.15813 0.076,-0.33021 0.0543,-0.18138 0.12712,-0.32711 0.0729,-0.14728 0.15968,-0.25115 0.16589,-0.20154 0.36587,-0.29766 0.20154,-0.0961 0.45889,-0.0961 0.12402,0 0.2465,0.0326 0.12402,0.0326 0.24339,0.0946 l -0.0636,0.32091 q -0.10077,-0.0977 -0.21239,-0.14573 -0.11007,-0.0481 -0.23564,-0.0481 -0.15193,0 -0.28526,0.0651 -0.13332,0.0636 -0.23874,0.18913 -0.0682,0.0806 -0.12868,0.20154 -0.0605,0.12092 -0.10697,0.2713 -0.0527,0.17673 -0.0806,0.33176 -0.0264,0.15503 -0.0264,0.28061 0,0.2651 0.12248,0.40927 0.12247,0.14418 0.34726,0.14418 0.10542,0 0.18914,-0.0279 0.0837,-0.0295 0.14107,-0.0837 l 0.11783,-0.60926 h -0.33642 l 0.0465,-0.25735 h 0.63562 z"
       style="fill:#ffffff;stroke:none;stroke-width:0.352778"
       id="path2917" /><path
       d="m 134.16107,120.30618 -0.5643,1.19993 h 0.66662 z m -0.14882,-0.26045 h 0.38137 l 0.25735,2.31459 h -0.31161 l -0.0543,-0.60306 h -0.80615 l -0.28526,0.60306 h -0.33641 z"
       style="fill:#ffffff;stroke:none;stroke-width:0.352778"
       id="path2919" /><path
       d="m 135.23233,120.04573 h 1.76733 l -0.0512,0.26355 h -0.72709 l -0.39687,2.05104 h -0.31626 l 0.39997,-2.05104 h -0.72708 z"
       style="fill:#ffffff;stroke:none;stroke-width:0.352778"
       id="path2921" /><path
       d="m 137.37793,120.04573 h 1.37201 l -0.0512,0.26355 h -1.0604 l -0.13332,0.68523 h 1.01234 l -0.0496,0.26355 h -1.01389 l -0.16123,0.83871 h 1.0883 l -0.0512,0.26355 h -1.40301 z"
       style="fill:#ffffff;stroke:none;stroke-width:0.352778"
       id="path2923" /></g><g
     aria-label="INV"
     id="text2845"
     style="font-style:italic;font-size:3.175px;font-family:Menlo;-inkscape-font-specification:'Menlo Italic';text-align:center;text-anchor:middle;opacity:1;fill:none;stroke:#d08b58;stroke-width:0.352777;stroke-linecap:round;stroke-linejoin:round;paint-order:fill markers stroke"
     transform="translate(0,1.5875)"><path
       d="m 122.49911,120.04573 h 1.28675 l -0.0512,0.26355 h -0.4868 l -0.34571,1.78749 h 0.48679 l -0.0512,0.26355 H 122.051 l 0.0512,-0.26355 h 0.48524 l 0.34727,-1.78749 h -0.4868 z"
       style="fill:#ffffff;stroke:none;stroke-width:0.352778"
       id="path2910" /><path
       d="m 124.31606,120.04573 h 0.39687 l 0.40928,1.90531 0.37052,-1.90531 h 0.30231 l -0.45114,2.31459 h -0.39687 l -0.40928,-1.90531 -0.37207,1.90531 h -0.30076 z"
       style="fill:#ffffff;stroke:none;stroke-width:0.352778"
       id="path2912" /><path
       d="m 126.57638,122.06577 0.92708,-2.02004 h 0.33331 l -1.11466,2.31459 h -0.39997 l -0.2279,-2.31459 h 0.30696 z"
       style="fill:#ffffff;stroke:none;stroke-width:0.352778"
       id="path2914" /></g><rect
     style="opacity:1;fill:none;stroke:#d08b58;stroke-width:0.352778;stroke-linecap:round;stroke-linejoin:round;stroke-dasharray:none;stroke-opacity:1;paint-order:fill markers stroke"
     id="rect2849"
     width="35.08136"
     height="10.945166"
     x="117.64552"
     y="98.120102"
     rx="3.9999998"
     ry="4" /><path
     style="opacity:1;fill:none;stroke:#d08b58;stroke-width:0.352777;stroke-linecap:round;stroke-linejoin:round;stroke-dasharray:none;stroke-opacity:1;paint-order:fill markers stroke"
     d="M 50.74024,99.128808 V 123.47997"
     id="path2933" /><g
     aria-label="SEMITONE"
     id="text3171"
     style="font-style:italic;font-size:3.175px;font-family:Menlo;-inkscape-font-specification:'Menlo Italic';text-align:center;text-anchor:middle;opacity:1;fill:#3b3b3b;stroke:#d08b58;stroke-width:0.352777;stroke-linecap:round;stroke-linejoin:round;paint-order:fill markers stroke"
     transform="translate(-61.619789,3.7041668)"><path
       d="m 95.519684,68.153066 -0.06046,0.31781 q -0.125574,-0.09147 -0.26045,-0.137976 -0.134875,-0.04651 -0.279052,-0.04651 -0.255799,0 -0.417029,0.127124 -0.161231,0.127124 -0.161231,0.324011 0,0.110071 0.07597,0.178284 0.07596,0.06821 0.275952,0.130224 l 0.187585,0.06046 q 0.252698,0.07751 0.36897,0.207739 0.117822,0.128674 0.117822,0.328662 0,0.364319 -0.257348,0.578259 -0.257349,0.21239 -0.702283,0.21239 -0.161231,0 -0.31781,-0.03566 -0.155029,-0.03411 -0.310059,-0.10387 l 0.06356,-0.324011 q 0.151929,0.10697 0.306958,0.15813 0.15658,0.05116 0.330213,0.05116 0.255798,0 0.415478,-0.136425 0.15968,-0.136426 0.15968,-0.345716 0,-0.127124 -0.06821,-0.196887 -0.06821,-0.06976 -0.274401,-0.133325 l -0.15658,-0.05116 q -0.285254,-0.08992 -0.399976,-0.203088 -0.113171,-0.114722 -0.113171,-0.302307 0,-0.342615 0.255798,-0.559656 0.255799,-0.218591 0.668177,-0.218591 0.124023,0 0.263549,0.03101 0.141077,0.03101 0.288355,0.08992 z"
       style="fill:#ffffff;stroke:none;stroke-width:0.352778"
       id="path3240" /><path
       d="m 96.18631,68.074001 h 1.372009 l -0.05116,0.263549 h -1.0604 l -0.133325,0.68523 h 1.012341 l -0.04961,0.26355 h -1.013892 l -0.16123,0.838708 h 1.088305 l -0.05116,0.26355 h -1.403015 z"
       style="fill:#ffffff;stroke:none;stroke-width:0.352778"
       id="path3242" /><path
       d="m 97.919537,68.074001 h 0.417029 l 0.170532,1.172021 0.641822,-1.172021 h 0.418579 l -0.451135,2.314587 h -0.288355 l 0.399976,-2.057239 -0.672828,1.232483 h -0.218591 l -0.178284,-1.232483 -0.396875,2.057239 h -0.288354 z"
       style="fill:#ffffff;stroke:none;stroke-width:0.352778"
       id="path3244" /><path
       d="m 100.01243,68.074001 h 1.28675 l -0.0512,0.263549 h -0.4868 l -0.34571,1.787488 h 0.48679 l -0.0512,0.26355 h -1.286742 l 0.05116,-0.26355 h 0.485242 l 0.34726,-1.787488 h -0.486787 z"
       style="fill:#ffffff;stroke:none;stroke-width:0.352778"
       id="path3246" /><path
       d="m 101.68675,68.074001 h 1.76733 l -0.0512,0.263549 h -0.72708 l -0.39688,2.051038 h -0.31626 l 0.39998,-2.051038 h -0.72709 z"
       style="fill:#ffffff;stroke:none;stroke-width:0.352778"
       id="path3248" /><path
       d="m 104.0773,70.179298 q 0.13178,0 0.2434,-0.07906 0.11162,-0.07906 0.18448,-0.226342 0.11472,-0.224793 0.18604,-0.544153 0.0713,-0.31936 0.0713,-0.613916 0,-0.220142 -0.0822,-0.324011 -0.0806,-0.10542 -0.25115,-0.10542 -0.13178,0 -0.24185,0.07906 -0.11007,0.07906 -0.18293,0.226342 -0.11782,0.227893 -0.18914,0.544153 -0.0713,0.31626 -0.0713,0.610816 0,0.221692 0.0806,0.327111 0.0822,0.10542 0.2527,0.10542 z m 1.00614,-1.372009 q 0,0.170532 -0.0357,0.37052 -0.0341,0.199988 -0.10076,0.410828 -0.045,0.142627 -0.0977,0.255798 -0.0512,0.113172 -0.11162,0.204639 -0.13643,0.196887 -0.30541,0.291455 -0.16898,0.09302 -0.39378,0.09302 -0.31161,0 -0.46198,-0.190686 -0.15038,-0.190686 -0.15038,-0.587561 0,-0.172082 0.0326,-0.368969 0.0341,-0.198438 0.10077,-0.409278 0.045,-0.142627 0.0961,-0.255798 0.0527,-0.113171 0.11317,-0.204639 0.13643,-0.196887 0.30541,-0.289904 0.16898,-0.09457 0.39377,-0.09457 0.31316,0 0.46354,0.190686 0.15193,0.189135 0.15193,0.58446 z"
       style="fill:#ffffff;stroke:none;stroke-width:0.352778"
       id="path3250" /><path
       d="m 105.6524,68.074001 h 0.39687 l 0.40928,1.90531 0.37052,-1.90531 h 0.30231 l -0.45114,2.314587 h -0.39687 l -0.40928,-1.90531 -0.37207,1.90531 h -0.30076 z"
       style="fill:#ffffff;stroke:none;stroke-width:0.352778"
       id="path3252" /><path
       d="m 107.65538,68.074001 h 1.37201 l -0.0512,0.263549 h -1.0604 l -0.13333,0.68523 h 1.01234 l -0.0496,0.26355 h -1.01389 l -0.16123,0.838708 h 1.08831 l -0.0512,0.26355 h -1.40302 z"
       style="fill:#ffffff;stroke:none;stroke-width:0.352778"
       id="path3254" /></g><g
     aria-label="OCTAVE"
     id="text3225"
     style="font-style:italic;font-size:3.175px;font-family:Menlo;-inkscape-font-specification:'Menlo Italic';text-align:center;text-anchor:middle;opacity:1;fill:#3b3b3b;stroke:#d08b58;stroke-width:0.352777;stroke-linecap:round;stroke-linejoin:round;paint-order:fill markers stroke"
     transform="translate(-40.895127,3.6411497)"><path
       d="m 74.988377,98.614418 q 0.131775,0 0.243396,-0.07906 0.111622,-0.07906 0.184485,-0.226343 0.114722,-0.224792 0.186035,-0.544153 0.07131,-0.31936 0.07131,-0.613916 0,-0.220141 -0.08217,-0.324011 -0.08062,-0.10542 -0.251147,-0.10542 -0.131775,0 -0.241846,0.07906 -0.110071,0.07906 -0.182934,0.226343 -0.117823,0.227893 -0.189136,0.544153 -0.07131,0.31626 -0.07131,0.610815 0,0.221692 0.08062,0.327112 0.08217,0.10542 0.252697,0.10542 z m 1.006141,-1.372009 q 0,0.170532 -0.03566,0.37052 -0.03411,0.199988 -0.100769,0.410827 -0.04496,0.142627 -0.09767,0.255799 -0.05116,0.113171 -0.111621,0.204638 -0.136426,0.196888 -0.305407,0.291455 -0.168982,0.09302 -0.393775,0.09302 -0.311609,0 -0.461987,-0.190686 -0.150379,-0.190686 -0.150379,-0.587561 0,-0.172082 0.03256,-0.36897 0.03411,-0.198437 0.100769,-0.409277 0.04496,-0.142627 0.09612,-0.255798 0.05271,-0.113172 0.113171,-0.204639 0.136426,-0.196887 0.305408,-0.289905 0.168982,-0.09457 0.393774,-0.09457 0.313159,0 0.463538,0.190686 0.151929,0.189136 0.151928,0.584461 z"
       style="fill:#ffffff;stroke:none;stroke-width:0.352778"
       id="path3227" /><path
       d="m 77.585118,98.741542 q -0.130224,0.06356 -0.26355,0.09457 -0.131775,0.03256 -0.272851,0.03256 -0.356568,0 -0.553455,-0.206189 -0.195337,-0.206189 -0.195337,-0.578259 0,-0.341065 0.108521,-0.675928 0.10852,-0.334863 0.285254,-0.547253 0.165881,-0.201538 0.365869,-0.297657 0.199988,-0.09612 0.455786,-0.09612 0.124023,0 0.246497,0.03256 0.122473,0.03256 0.238745,0.09457 l -0.06356,0.320911 q -0.09922,-0.09767 -0.20929,-0.145728 -0.110071,-0.04806 -0.234094,-0.04806 -0.147278,0 -0.272852,0.06356 -0.125573,0.06201 -0.235644,0.190686 -0.161231,0.190686 -0.260449,0.488343 -0.09767,0.297656 -0.09767,0.596862 0,0.268201 0.120923,0.410828 0.120923,0.142627 0.348816,0.142627 0.131775,0 0.271301,-0.04961 0.141077,-0.04961 0.277503,-0.144178 z"
       style="fill:#ffffff;stroke:none;stroke-width:0.352778"
       id="path3229" /><path
       d="m 78.332359,96.50912 h 1.767334 l -0.05116,0.26355 H 79.321445 L 78.92457,98.823708 H 78.60831 L 79.008287,96.77267 H 78.2812 Z"
       style="fill:#ffffff;stroke:none;stroke-width:0.352778"
       id="path3231" /><path
       d="m 81.084129,96.769569 -0.564307,1.199927 h 0.666626 z M 80.935301,96.50912 h 0.381372 l 0.257349,2.314588 h -0.311609 l -0.05426,-0.603064 H 80.402 l -0.285254,0.603064 h -0.336413 z"
       style="fill:#ffffff;stroke:none;stroke-width:0.352778"
       id="path3233" /><path
       d="M 82.646825,98.529152 83.5739,96.50912 h 0.333313 l -1.114661,2.314588 H 82.392576 L 82.164683,96.50912 h 0.306958 z"
       style="fill:#ffffff;stroke:none;stroke-width:0.352778"
       id="path3235" /><path
       d="m 84.300987,96.50912 h 1.37201 l -0.05116,0.26355 h -1.0604 l -0.133326,0.685229 h 1.012342 l -0.04961,0.26355 h -1.013891 l -0.161231,0.838709 h 1.088306 l -0.05116,0.26355 h -1.403015 z"
       style="fill:#ffffff;stroke:none;stroke-width:0.352778"
       id="path3237" /></g><g
     aria-label="STEP"
     id="text3267"
     style="font-style:italic;font-size:2.46944px;font-family:Menlo;-inkscape-font-specification:'Menlo Italic';text-align:center;text-anchor:middle;fill:#ffffff;stroke-width:0.352777;stroke-linecap:round;stroke-linejoin:round;paint-order:fill markers stroke"
     transform="translate(0.3000065,0.06543346)"><path
       d="m 29.989323,46.754931 -0.04703,0.247185 q -0.09767,-0.07114 -0.202571,-0.107314 -0.104903,-0.03617 -0.217041,-0.03617 -0.198954,0 -0.324355,0.09887 -0.125401,0.09887 -0.125401,0.252009 0,0.08561 0.05908,0.138664 0.05908,0.05306 0.214629,0.101286 l 0.1459,0.04703 q 0.196542,0.06029 0.286976,0.161574 0.09164,0.10008 0.09164,0.255626 0,0.283358 -0.20016,0.449756 -0.200159,0.165192 -0.546218,0.165192 -0.125402,0 -0.247186,-0.02773 -0.120578,-0.02653 -0.241156,-0.08079 l 0.04944,-0.252008 q 0.118167,0.0832 0.238745,0.122989 0.121784,0.03979 0.256831,0.03979 0.198954,0 0.32315,-0.106109 0.124195,-0.106108 0.124195,-0.268889 0,-0.09887 -0.05305,-0.153134 -0.05306,-0.05426 -0.213424,-0.103697 l -0.121783,-0.03979 q -0.221864,-0.06994 -0.311092,-0.157957 -0.08802,-0.08923 -0.08802,-0.235128 0,-0.266477 0.198954,-0.435287 0.198954,-0.170015 0.519692,-0.170015 0.09646,0 0.204982,0.02412 0.109726,0.02412 0.224276,0.06994 z"
       style="stroke-width:0.352778"
       id="path3281" /><path
       d="m 30.325736,46.693436 h 1.37459 l -0.03979,0.204983 h -0.565512 l -0.30868,1.595249 h -0.245979 l 0.311091,-1.595249 h -0.565511 z"
       style="stroke-width:0.352778"
       id="path3283" /><path
       d="m 31.994537,46.693436 h 1.067116 l -0.03979,0.204983 h -0.824755 l -0.103697,0.532955 h 0.787375 l -0.03858,0.204983 H 32.05362 l -0.125401,0.652328 h 0.846458 l -0.03979,0.204983 h -1.091232 z"
       style="stroke-width:0.352778"
       id="path3285" /><path
       d="m 33.683837,46.893596 -0.13143,0.676443 h 0.282152 q 0.198954,0 0.317121,-0.114549 0.119372,-0.115755 0.119372,-0.307474 0,-0.130225 -0.07476,-0.191719 -0.07476,-0.0627 -0.23151,-0.0627 z m -0.204983,-0.20016 h 0.530544 q 0.248391,0 0.378615,0.110932 0.130224,0.110932 0.130224,0.320738 0,0.300239 -0.192925,0.472666 -0.192925,0.172427 -0.530543,0.172427 h -0.280947 l -0.141077,0.723469 h -0.244773 z"
       style="stroke-width:0.352778"
       id="path3287" /></g><g
     aria-label="STAGE"
     id="text3271"
     style="font-style:italic;font-size:2.46944px;font-family:Menlo;-inkscape-font-specification:'Menlo Italic';text-align:center;text-anchor:middle;fill:#ffffff;stroke-width:0.352777;stroke-linecap:round;stroke-linejoin:round;paint-order:fill markers stroke"
     transform="translate(0.300006,3.2404336)"><path
       d="m 29.230887,58.200625 -0.04703,0.247185 q -0.09767,-0.07114 -0.202571,-0.107314 -0.104903,-0.03617 -0.217041,-0.03617 -0.198954,0 -0.324355,0.09887 -0.125401,0.09887 -0.125401,0.252009 0,0.08561 0.05908,0.138664 0.05908,0.05306 0.214629,0.101286 l 0.1459,0.04702 q 0.196542,0.06029 0.286976,0.161575 0.09164,0.10008 0.09164,0.255626 0,0.283358 -0.20016,0.449756 -0.200159,0.165192 -0.546218,0.165192 -0.125402,0 -0.247186,-0.02773 -0.120578,-0.02653 -0.241156,-0.08079 l 0.04944,-0.252008 q 0.118167,0.0832 0.238745,0.122989 0.121784,0.03979 0.256831,0.03979 0.198954,0 0.32315,-0.106109 0.124195,-0.106108 0.124195,-0.268889 0,-0.09887 -0.05305,-0.153134 -0.05306,-0.05426 -0.213424,-0.103697 l -0.121783,-0.03979 q -0.221864,-0.06994 -0.311092,-0.157957 -0.08802,-0.08923 -0.08802,-0.235128 0,-0.266477 0.198954,-0.435287 0.198954,-0.170015 0.519692,-0.170015 0.09646,0 0.204982,0.02412 0.109726,0.02412 0.224276,0.06994 z"
       style="stroke-width:0.352778"
       id="path3290" /><path
       d="m 29.5673,58.13913 h 1.37459 l -0.03979,0.204983 h -0.565512 l -0.30868,1.595249 h -0.245979 l 0.311091,-1.595249 h -0.565511 z"
       style="stroke-width:0.352778"
       id="path3292" /><path
       d="m 31.707561,58.341701 -0.438904,0.933275 h 0.518486 z M 31.591806,58.13913 h 0.296623 l 0.200159,1.800232 h -0.242362 l -0.0422,-0.469049 H 31.17702 l -0.221864,0.469049 h -0.261655 z"
       style="stroke-width:0.352778"
       id="path3294" /><path
       d="m 33.476443,59.823607 q -0.104903,0.07476 -0.229099,0.113343 -0.124195,0.03738 -0.265272,0.03738 -0.279741,0 -0.430464,-0.161574 -0.149516,-0.162781 -0.149516,-0.46302 0,-0.108521 0.01929,-0.230305 0.0205,-0.122989 0.05908,-0.256831 0.0422,-0.141076 0.09887,-0.25442 0.05667,-0.114549 0.124196,-0.195336 0.129018,-0.156752 0.284564,-0.23151 0.156752,-0.07476 0.356912,-0.07476 0.09646,0 0.191719,0.02532 0.09646,0.02532 0.189307,0.07355 l -0.04944,0.249597 q -0.07838,-0.07596 -0.165192,-0.113344 -0.08561,-0.03738 -0.183278,-0.03738 -0.118167,0 -0.221864,0.05064 -0.103697,0.04944 -0.18569,0.147105 -0.05306,0.0627 -0.10008,0.156752 -0.04703,0.09405 -0.0832,0.211012 -0.041,0.137459 -0.0627,0.258037 -0.0205,0.120578 -0.0205,0.218246 0,0.206189 0.09526,0.318326 0.09526,0.112138 0.270095,0.112138 0.08199,0 0.147105,-0.0217 0.06511,-0.02291 0.109726,-0.06511 l 0.09164,-0.473872 h -0.261654 l 0.03617,-0.20016 h 0.494371 z"
       style="stroke-width:0.352778"
       id="path3296" /><path
       d="m 34.209558,58.13913 h 1.067116 l -0.03979,0.204983 H 34.41213 l -0.103697,0.532955 h 0.787375 l -0.03858,0.204983 h -0.788581 l -0.125401,0.652328 h 0.846458 l -0.03979,0.204983 h -1.091232 z"
       style="stroke-width:0.352778"
       id="path3298" /></g><path
     style="opacity:1;fill:none;stroke:#d08b58;stroke-width:0.352778;stroke-linecap:round;stroke-linejoin:round;stroke-dasharray:none;stroke-opacity:1;paint-order:fill markers stroke"
     d="m 36.83692,42.375149 v 24.5333"
     id="path4473" /><path
     style="opacity:1;fill:none;stroke:#d08b58;stroke-width:0.352778;stroke-linecap:round;stroke-linejoin:round;stroke-dasharray:none;stroke-opacity:1;paint-order:fill markers stroke"
     d="m 97.084409,42.375149 v 24.5333"
     id="path4475" /><path
     style="opacity:1;fill:none;stroke:#d08b58;stroke-width:0.352778;stroke-linecap:round;stroke-linejoin:round;stroke-dasharray:none;stroke-opacity:1;paint-order:fill markers stroke"
     d="M 20.20629,35.084942 H 9.8786308"
     id="path5024" /><path
     style="opacity:1;fill:none;stroke:#d08b58;stroke-width:0.352779;stroke-linecap:round;stroke-linejoin:round;stroke-dasharray:none;stroke-opacity:1;paint-order:fill markers stroke"
     d="M 17.69208,24.138842 H 9.9298925"
     id="path6684" /><g
     aria-label="PATTERN LEN."
     id="text6688"
     style="font-style:italic;font-size:2.82223px;font-family:Menlo;-inkscape-font-specification:'Menlo Italic';text-align:center;text-anchor:middle;opacity:1;fill:#ffffff;stroke-width:0.352777;stroke-linecap:round;stroke-linejoin:round;paint-order:fill markers stroke"
     transform="translate(0,10.583334)"><path
       d="M 9.0776398,5.7496387 8.9274332,6.5227203 h 0.3224619 q 0.2273769,0 0.362425,-0.130914 0.1364262,-0.1322921 0.1364262,-0.3514007 0,-0.1488286 -0.085439,-0.2191087 -0.085439,-0.071658 -0.2645841,-0.071658 z M 8.8433727,5.5208837 h 0.6063385 q 0.2838766,0 0.4327052,0.1267799 0.1488286,0.1267798 0.1488286,0.3665592 0,0.3431324 -0.2204868,0.5401924 Q 9.5902715,6.7514753 9.2044197,6.7514753 H 8.8833359 L 8.722105,7.5783005 H 8.4423624 Z"
       style="stroke-width:0.352778"
       id="path6690" /><path
       d="M 11.084069,5.7523948 10.582462,6.8189993 H 11.17502 Z M 10.951777,5.5208837 h 0.338998 l 0.228755,2.0574168 h -0.276986 l -0.04823,-0.5360584 h -0.716581 l -0.25356,0.5360584 H 9.9251357 Z"
       style="stroke-width:0.352778"
       id="path6692" /><path
       d="m 12.036296,5.5208837 h 1.570968 l -0.04548,0.2342672 h -0.646302 l -0.352779,1.8231496 h -0.28112 l 0.355535,-1.8231496 h -0.646302 z"
       style="stroke-width:0.352778"
       id="path6694" /><path
       d="m 13.735422,5.5208837 h 1.570968 l -0.04547,0.2342672 h -0.646302 l -0.352779,1.8231496 h -0.28112 l 0.355535,-1.8231496 h -0.646302 z"
       style="stroke-width:0.352778"
       id="path6696" /><path
       d="M 15.642632,5.5208837 H 16.8622 l -0.04548,0.2342672 h -0.942581 l -0.118511,0.6090945 h 0.899861 l -0.0441,0.2342672 h -0.90124 L 15.56684,7.3440333 h 0.967385 l -0.04547,0.2342672 h -1.247128 z"
       style="stroke-width:0.352778"
       id="path6698" /><path
       d="m 17.923292,6.6067808 q 0.09922,0.019293 0.158475,0.092329 0.06063,0.073036 0.135048,0.3169496 l 0.166743,0.5622412 H 18.106571 L 17.960499,7.0587786 Q 17.899865,6.8438041 17.824073,6.77628 17.749659,6.7087559 17.598074,6.7087559 H 17.33349 l -0.169499,0.8695446 h -0.279743 l 0.398254,-2.0574168 h 0.573266 q 0.285254,0 0.440973,0.1240238 0.157097,0.1226457 0.157097,0.3472666 0,0.2521817 -0.143316,0.4175467 -0.141939,0.1653651 -0.38723,0.19706 z M 17.519525,5.7496387 17.378965,6.480001 h 0.301791 q 0.224621,0 0.358291,-0.1171336 0.135048,-0.1185116 0.135048,-0.3141936 0,-0.1543407 -0.08682,-0.2259989 -0.08682,-0.073036 -0.274231,-0.073036 z"
       style="stroke-width:0.352778"
       id="path6700" /><path
       d="m 18.95958,5.5208837 h 0.352779 l 0.363803,1.6936137 0.329352,-1.6936137 h 0.268718 l -0.40101,2.0574168 H 19.520443 L 19.15664,5.8846868 18.82591,7.5783005 h -0.26734 z"
       style="stroke-width:0.352778"
       id="path6702" /><path
       d="m 22.473587,5.5208837 h 0.278364 l -0.355534,1.8231496 h 0.993568 l -0.04548,0.2342672 h -1.271932 z"
       style="stroke-width:0.352778"
       id="path6704" /><path
       d="m 24.138262,5.5208837 h 1.219567 l -0.04547,0.2342672 h -0.942581 l -0.118511,0.6090945 h 0.899861 l -0.0441,0.2342672 h -0.90124 L 24.06247,7.3440333 h 0.967385 l -0.04547,0.2342672 h -1.247128 z"
       style="stroke-width:0.352778"
       id="path6706" /><path
       d="m 25.756083,5.5208837 h 0.352779 l 0.363803,1.6936137 0.329352,-1.6936137 h 0.268718 l -0.40101,2.0574168 h -0.352779 l -0.363803,-1.6936137 -0.33073,1.6936137 h -0.26734 z"
       style="stroke-width:0.352778"
       id="path6708" /><path
       d="m 27.652268,7.0215715 h 0.485071 l -0.108865,0.556729 h -0.485071 z"
       style="stroke-width:0.352778"
       id="path6710" /></g><g
     aria-label="REV"
     id="text7128"
     style="font-style:italic;font-size:2.46944px;font-family:Menlo;-inkscape-font-specification:'Menlo Italic';text-align:center;text-anchor:middle;opacity:1;fill:#ffffff;stroke-width:0.352777;stroke-linecap:round;stroke-linejoin:round;paint-order:fill markers stroke"
     transform="translate(1.0583333)"><path
       d="m 29.764568,77.774787 q 0.08682,0.01688 0.138664,0.08079 0.05306,0.06391 0.118167,0.27733 l 0.1459,0.491959 h -0.242362 l -0.127813,-0.45458 q -0.05306,-0.188102 -0.119373,-0.247185 -0.06511,-0.05908 -0.197748,-0.05908 h -0.23151 l -0.148311,0.760848 h -0.244773 l 0.34847,-1.800232 h 0.501605 q 0.249597,0 0.38585,0.108521 0.137459,0.107314 0.137459,0.303856 0,0.220658 -0.125401,0.365352 -0.124195,0.144694 -0.338824,0.172427 z m -0.353294,-0.749996 -0.12299,0.639064 h 0.264066 q 0.196542,0 0.313503,-0.102491 0.118167,-0.103698 0.118167,-0.274919 0,-0.135047 -0.07596,-0.197748 -0.07597,-0.06391 -0.239951,-0.06391 z"
       style="stroke-width:0.352778"
       id="path7159" /><path
       d="m 30.742456,76.824631 h 1.067117 l -0.03979,0.204983 h -0.824755 l -0.103697,0.532955 h 0.787375 l -0.03859,0.204983 h -0.78858 l -0.125402,0.652328 h 0.846459 l -0.03979,0.204983 h -1.091232 z"
       style="stroke-width:0.352778"
       id="path7161" /><path
       d="m 32.429344,78.395764 0.721057,-1.571133 h 0.259243 l -0.866956,1.800232 h -0.311092 l -0.17725,-1.800232 h 0.238745 z"
       style="stroke-width:0.352778"
       id="path7163" /></g><g
     aria-label="FWD"
     id="text7132"
     style="font-style:italic;font-size:2.46944px;font-family:Menlo;-inkscape-font-specification:'Menlo Italic';text-align:center;text-anchor:middle;opacity:1;fill:#ffffff;stroke-width:0.352777;stroke-linecap:round;stroke-linejoin:round;paint-order:fill markers stroke"
     transform="translate(1.0583333,1.5875)"><path
       d="m 29.302753,88.760453 h 1.059882 l -0.03979,0.204983 h -0.815108 l -0.103697,0.530543 h 0.737938 l -0.03859,0.204983 h -0.739144 l -0.167603,0.859722 h -0.244774 z"
       style="stroke-width:0.352778"
       id="path7152" /><path
       d="m 30.502506,88.760453 h 0.230304 l -0.10852,1.458995 0.396702,-0.964625 h 0.25442 l 0.01809,0.967037 0.45458,-1.461407 h 0.238744 l -0.614948,1.800231 h -0.233922 l -0.03738,-1.049029 -0.447345,1.049029 h -0.226686 z"
       style="stroke-width:0.352778"
       id="path7154" /><path
       d="m 32.205069,90.360525 q 0.223069,0 0.358117,-0.07476 0.135047,-0.07596 0.217041,-0.245979 0.06511,-0.138665 0.106108,-0.330384 0.0422,-0.192925 0.0422,-0.353294 0,-0.212218 -0.09887,-0.303857 -0.09887,-0.09164 -0.33159,-0.09164 h -0.137459 l -0.272507,1.399913 z m 0.315915,-1.600072 q 0.329178,0 0.491958,0.149517 0.163987,0.149517 0.163987,0.453373 0,0.195337 -0.05064,0.402731 -0.05064,0.207395 -0.136254,0.367764 -0.125401,0.230304 -0.313503,0.329178 -0.186896,0.09767 -0.506428,0.09767 H 31.80475 l 0.350882,-1.800231 z"
       style="stroke-width:0.352778"
       id="path7156" /></g><g
     aria-label="RT"
     id="text7136"
     style="font-style:italic;font-size:2.46944px;font-family:Menlo;-inkscape-font-specification:'Menlo Italic';text-align:center;text-anchor:middle;opacity:1;fill:#ffffff;stroke-width:0.352777;stroke-linecap:round;stroke-linejoin:round;paint-order:fill markers stroke"
     transform="translate(0.52916667)"><path
       d="m 30.507932,106.95125 q 0.08682,0.0169 0.138665,0.0808 0.05305,0.0639 0.118166,0.27733 l 0.1459,0.49196 h -0.242362 l -0.127813,-0.45458 q -0.05306,-0.1881 -0.119373,-0.24718 -0.06511,-0.0591 -0.197748,-0.0591 h -0.23151 l -0.148311,0.76085 h -0.244773 l 0.34847,-1.80023 h 0.501605 q 0.249597,0 0.38585,0.10852 0.13746,0.10732 0.13746,0.30386 0,0.22066 -0.125402,0.36535 -0.124195,0.14469 -0.338824,0.17243 z m -0.353294,-0.75 -0.12299,0.63907 h 0.264066 q 0.196543,0 0.313503,-0.1025 0.118167,-0.10369 0.118167,-0.27491 0,-0.13505 -0.07596,-0.19775 -0.07597,-0.0639 -0.239951,-0.0639 z"
       style="stroke-width:0.352778"
       id="path7147" /><path
       d="m 31.303747,106.00109 h 1.374591 l -0.03979,0.20498 h -0.565511 l -0.30868,1.59525 h -0.24598 l 0.311092,-1.59525 h -0.565511 z"
       style="stroke-width:0.352778"
       id="path7149" /></g><g
     aria-label="LT"
     id="text7140"
     style="font-style:italic;font-size:2.46944px;font-family:Menlo;-inkscape-font-specification:'Menlo Italic';text-align:center;text-anchor:middle;opacity:1;fill:#ffffff;stroke-width:0.352777;stroke-linecap:round;stroke-linejoin:round;paint-order:fill markers stroke"
     transform="translate(0.52916667,0.52916667)"><path
       d="m 30.029237,117.93691 h 0.243567 l -0.311091,1.59524 h 0.869368 l -0.03979,0.20499 h -1.112936 z"
       style="stroke-width:0.352778"
       id="path7142" /><path
       d="m 31.303747,117.93691 h 1.374591 l -0.03979,0.20498 h -0.565511 l -0.30868,1.59525 h -0.24598 l 0.311092,-1.59525 h -0.565511 z"
       style="stroke-width:0.352778"
       id="path7144" /></g><g
     aria-label="PLAY MODE"
     id="text638"
     style="font-style:italic;font-size:3.175px;font-family:Menlo;-inkscape-font-specification:'Menlo Italic';text-align:center;text-anchor:middle;fill:#ffffff;stroke-width:0.352777;stroke-linecap:round;stroke-linejoin:round;paint-order:fill markers stroke"
     transform="translate(0.52916663,-2.6458334)"><path
       d="m 7.1590936,123.52045 -0.1689819,0.86972 h 0.3627685 q 0.2557983,0 0.4077271,-0.14728 0.153479,-0.14883 0.153479,-0.39533 0,-0.16743 -0.096118,-0.24649 -0.096118,-0.0806 -0.2976563,-0.0806 z M 6.8955438,123.2631 h 0.6821289 q 0.3193603,0 0.486792,0.14263 0.1674316,0.14263 0.1674316,0.41238 0,0.38602 -0.2480469,0.60771 -0.2480468,0.22169 -0.6821289,0.22169 H 6.9405023 L 6.759118,125.57769 H 6.4444085 Z"
       style="stroke-width:0.352778"
       id="path805" /><path
       d="m 8.8489129,123.2631 h 0.3131592 l -0.3999756,2.05104 h 1.1177612 l -0.05116,0.26355 H 8.3977776 Z"
       style="stroke-width:0.352778"
       id="path807" /><path
       d="m 11.327831,123.52355 -0.564306,1.19993 h 0.666626 z m -0.148828,-0.26045 h 0.381372 l 0.257349,2.31459 h -0.311609 l -0.05426,-0.60306 h -0.806153 l -0.285254,0.60306 h -0.336413 z"
       style="stroke-width:0.352778"
       id="path809" /><path
       d="m 12.402184,123.2631 h 0.313159 l 0.365869,1.00924 0.770496,-1.00924 h 0.337964 l -0.984436,1.27589 -0.199988,1.0387 h -0.320911 l 0.203089,-1.0387 z"
       style="stroke-width:0.352778"
       id="path811" /><path
       d="m 16.277917,123.2631 h 0.417029 l 0.170532,1.17202 0.641821,-1.17202 h 0.418579 l -0.451135,2.31459 h -0.288354 l 0.399975,-2.05724 -0.672827,1.23248 h -0.218591 l -0.178284,-1.23248 -0.396875,2.05724 h -0.288355 z"
       style="stroke-width:0.352778"
       id="path813" /><path
       d="m 18.612657,125.3684 q 0.131775,0 0.243396,-0.0791 0.111621,-0.0791 0.184485,-0.22635 0.114722,-0.22479 0.186035,-0.54415 0.07131,-0.31936 0.07131,-0.61392 0,-0.22014 -0.08217,-0.32401 -0.08061,-0.10542 -0.251147,-0.10542 -0.131775,0 -0.241846,0.0791 -0.110071,0.0791 -0.182934,0.22634 -0.117823,0.22789 -0.189136,0.54415 -0.07131,0.31626 -0.07131,0.61082 0,0.22169 0.08062,0.32711 0.08216,0.10542 0.252697,0.10542 z m 1.00614,-1.37201 q 0,0.17053 -0.03566,0.37052 -0.03411,0.19999 -0.100769,0.41083 -0.04496,0.14263 -0.09767,0.2558 -0.05116,0.11317 -0.111621,0.20464 -0.136426,0.19688 -0.305408,0.29145 -0.168982,0.093 -0.393774,0.093 -0.311609,0 -0.461987,-0.19069 -0.150379,-0.19068 -0.150379,-0.58756 0,-0.17208 0.03256,-0.36897 0.03411,-0.19844 0.100769,-0.40928 0.04496,-0.14262 0.09612,-0.25579 0.05271,-0.11318 0.113171,-0.20464 0.136426,-0.19689 0.305408,-0.28991 0.168982,-0.0946 0.393774,-0.0946 0.313159,0 0.463538,0.19069 0.151928,0.18914 0.151928,0.58446 z"
       style="stroke-width:0.352778"
       id="path815" /><path
       d="m 20.248217,125.32034 q 0.286804,0 0.460437,-0.0961 0.173632,-0.0977 0.279052,-0.31626 0.08372,-0.17828 0.136426,-0.42478 0.05426,-0.24804 0.05426,-0.45423 0,-0.27285 -0.127124,-0.39068 -0.127124,-0.11782 -0.42633,-0.11782 h -0.176734 l -0.350366,1.79989 z m 0.406176,-2.05724 q 0.42323,0 0.63252,0.19224 0.21084,0.19224 0.21084,0.58291 0,0.25115 -0.06511,0.5178 -0.06511,0.26665 -0.175183,0.47284 -0.16123,0.2961 -0.403076,0.42323 -0.240295,0.12557 -0.651123,0.12557 h -0.469739 l 0.451136,-2.31459 z"
       style="stroke-width:0.352778"
       id="path817" /><path
       d="m 22.190734,123.2631 h 1.372009 l -0.05116,0.26355 h -1.0604 l -0.133325,0.68523 h 1.012341 l -0.04961,0.26355 h -1.013892 l -0.16123,0.83871 h 1.088305 l -0.05116,0.26355 h -1.403015 z"
       style="stroke-width:0.352778"
       id="path819" /></g><g
     aria-label="O I 1"
     id="text22426"
     style="font-style:italic;font-size:2.82223px;font-family:Menlo;-inkscape-font-specification:'Menlo Italic';text-align:center;text-anchor:middle;fill:#ffffff;stroke-width:0.352777;stroke-linecap:square;paint-order:fill markers stroke"
     transform="translate(7.9422048,7.9651751)"><path
       d="m 3.5874147,106.09988 q 0.1171336,0 0.2163526,-0.0703 0.099219,-0.0703 0.163987,-0.2012 0.1019751,-0.19981 0.165365,-0.48369 0.06339,-0.28388 0.06339,-0.54571 0,-0.19568 -0.073036,-0.28801 -0.071658,-0.0937 -0.2232428,-0.0937 -0.1171336,0 -0.2149745,0.0703 -0.097841,0.0703 -0.162609,0.20119 -0.1047312,0.20257 -0.1681211,0.48369 -0.06339,0.28112 -0.06339,0.54295 0,0.19706 0.071658,0.29077 0.073036,0.0937 0.2246209,0.0937 z m 0.8943493,-1.21957 q 0,0.15158 -0.031695,0.32935 -0.030317,0.17777 -0.089573,0.36518 -0.039963,0.12678 -0.086817,0.22738 -0.045475,0.1006 -0.099219,0.1819 -0.1212677,0.17501 -0.2714743,0.25907 -0.1502066,0.0827 -0.3500227,0.0827 -0.2769864,0 -0.4106565,-0.16949 -0.1336701,-0.1695 -0.1336701,-0.52228 0,-0.15296 0.028939,-0.32798 0.030317,-0.17639 0.089573,-0.3638 0.039963,-0.12678 0.085439,-0.22738 0.046853,-0.10059 0.1005971,-0.1819 0.1212677,-0.17501 0.2714743,-0.25769 0.1502066,-0.0841 0.3500227,-0.0841 0.2783645,0 0.4120345,0.1695 0.1350482,0.16812 0.1350482,0.51952 z"
       style="stroke-width:0.352778"
       id="path22428" /><path
       d="m 6.7706919,104.22849 h 1.1437749 l -0.045475,0.23427 H 7.4362862 l -0.3073034,1.58888 H 7.561688 l -0.045475,0.23427 H 6.3724377 l 0.045475,-0.23427 h 0.4313272 l 0.3086814,-1.58888 H 6.7252165 Z"
       style="stroke-width:0.352778"
       id="path22430" /><path
       d="m 9.9071157,106.05164 h 0.4313273 l 0.304547,-1.57234 -0.485071,0.10473 0.04823,-0.25356 0.485071,-0.10198 h 0.279742 l -0.355535,1.82315 h 0.425815 l -0.04548,0.23427 H 9.8616403 Z"
       style="stroke-width:0.352778"
       id="path22432" /></g></svg>
