<?xml version="1.0" encoding="UTF-8" standalone="no"?>
<!-- Created with Inkscape (http://www.inkscape.org/) -->

<svg
   width="101.6mm"
   height="128.5mm"
   viewBox="0 0 101.60001 128.50002"
   version="1.1"
   id="svg8"
   inkscape:version="1.3.2 (091e20e, 2023-11-25)"
   sodipodi:docname="Strings-dark.svg"
   xml:space="preserve"
   xmlns:inkscape="http://www.inkscape.org/namespaces/inkscape"
   xmlns:sodipodi="http://sodipodi.sourceforge.net/DTD/sodipodi-0.dtd"
   xmlns="http://www.w3.org/2000/svg"
   xmlns:svg="http://www.w3.org/2000/svg"
   xmlns:rdf="http://www.w3.org/1999/02/22-rdf-syntax-ns#"
   xmlns:cc="http://creativecommons.org/ns#"
   xmlns:dc="http://purl.org/dc/elements/1.1/"
   xmlns:serif="http://www.serif.com/"><defs
     id="defs2">
            
            
        
            
            
        
            
            
        </defs><sodipodi:namedview
     id="base"
     pagecolor="#ffffff"
     bordercolor="#666666"
     borderopacity="1.0"
     inkscape:pageopacity="0.0"
     inkscape:pageshadow="2"
     inkscape:zoom="1.5208438"
     inkscape:cx="170.62896"
     inkscape:cy="241.31341"
     inkscape:document-units="mm"
     inkscape:current-layer="svg8"
     showgrid="false"
     units="mm"
     inkscape:snap-bbox="true"
     inkscape:snap-page="true"
     inkscape:bbox-nodes="false"
     inkscape:snap-bbox-edge-midpoints="false"
     inkscape:window-width="1656"
     inkscape:window-height="1017"
     inkscape:window-x="72"
     inkscape:window-y="38"
     inkscape:window-maximized="0"
     inkscape:snap-bbox-midpoints="true"
     inkscape:snap-nodes="false"
     inkscape:showpageshadow="2"
     inkscape:pagecheckerboard="0"
     inkscape:deskcolor="#d1d1d1"
     showguides="false" /><metadata
     id="metadata5"><rdf:RDF><cc:Work
         rdf:about=""><dc:format>image/svg+xml</dc:format><dc:type
           rdf:resource="http://purl.org/dc/dcmitype/StillImage" /></cc:Work></rdf:RDF></metadata><rect
     id="rect1"
     x="-0.16655771"
     y="-0.38949111"
     width="102.12192"
     height="129.14665"
     style="clip-rule:evenodd;fill:#202020;fill-rule:evenodd;stroke-width:0.497961;stroke-linejoin:round;stroke-miterlimit:1.5" /><path
     id="path128"
     d="m 47.614778,125.9342 c 0.05984,0.1268 0.07943,0.25396 0.05842,0.38219 h -0.419235 c -0.0064,-0.0983 -0.02565,-0.1724 -0.05842,-0.22227 -0.05735,-0.089 -0.160997,-0.13357 -0.310597,-0.13357 -0.152449,0 -0.28602,0.0627 -0.4,0.18843 -0.114337,0.12538 -0.195192,0.30276 -0.242921,0.5325 -0.04809,0.22974 -0.03776,0.40143 0.0317,0.51612 0.0691,0.11433 0.175246,0.17133 0.318434,0.17133 0.147106,0 0.269635,-0.0492 0.367587,-0.14747 0.05378,-0.0524 0.105432,-0.13179 0.155298,-0.23722 h 0.415317 c -0.08264,0.22333 -0.213357,0.40463 -0.391452,0.54461 -0.178451,0.13927 -0.384328,0.20944 -0.617632,0.20944 -0.288513,0 -0.495815,-0.0944 -0.621906,-0.28317 -0.125379,-0.18985 -0.153162,-0.44986 -0.08442,-0.78076 0.07409,-0.35726 0.225468,-0.63295 0.453429,-0.82636 0.198753,-0.16848 0.424221,-0.2529 0.676403,-0.2529 0.337667,0 0.560642,0.11327 0.669992,0.3391 z"
     style="clip-rule:evenodd;fill:#ffffff;fill-rule:nonzero;stroke-width:0.356189;stroke-linejoin:round;stroke-miterlimit:1.5" /><path
     id="path129"
     d="m 48.543007,127.18869 0.764026,-1.55441 h 0.435619 l -1.110954,2.04667 h -0.396083 l -0.252181,-2.04667 h 0.448442 z"
     style="clip-rule:evenodd;fill:#ffffff;fill-rule:nonzero;stroke-width:0.356189;stroke-linejoin:round;stroke-miterlimit:1.5" /><path
     id="path130"
     d="m 51.325913,126.18139 -0.05877,0.27925 H 51.01318 l -0.253607,1.22031 h -0.386466 l 0.253606,-1.22031 h -0.216919 l 0.05842,-0.27925 h 0.212645 l 0.01995,-0.0972 c 0.03419,-0.16207 0.08406,-0.27355 0.149955,-0.33482 0.07551,-0.0905 0.220482,-0.13606 0.43562,-0.13606 0.02458,0 0.04666,7.1e-4 0.06625,0.002 0.01959,0.001 0.04666,0.004 0.08121,0.006 l -0.06803,0.32271 c -0.02102,-0.003 -0.05699,-0.005 -0.107569,-0.006 -0.05093,-10e-4 -0.08905,0.01 -0.113981,0.0345 -0.02493,0.0246 -0.03989,0.0516 -0.04559,0.0812 -0.0064,0.0299 -0.01532,0.0723 -0.02743,0.12787 z"
     style="clip-rule:evenodd;fill:#ffffff;fill-rule:nonzero;stroke-width:0.356189;stroke-linejoin:round;stroke-miterlimit:1.5" /><path
     id="path131"
     d="m 52.23277,127.46759 c -0.0043,0.005 -0.01638,0.0185 -0.03562,0.0417 -0.01888,0.0232 -0.04025,0.0431 -0.06376,0.0609 -0.07266,0.0556 -0.139626,0.0933 -0.200891,0.11363 -0.06091,0.0203 -0.129653,0.0306 -0.206234,0.0306 -0.219412,0 -0.350846,-0.0801 -0.393232,-0.2415 -0.02386,-0.0887 -0.01745,-0.21977 0.01888,-0.39287 l 0.189492,-0.91256 h 0.397151 l -0.189136,0.91256 c -0.01817,0.0862 -0.02173,0.15066 -0.01104,0.19447 0.01923,0.0769 0.0805,0.11541 0.183794,0.11541 0.132502,0 0.234728,-0.0549 0.306678,-0.1642 0.03811,-0.0591 0.06732,-0.13749 0.08727,-0.23438 l 0.171327,-0.82386 h 0.393233 l -0.314515,1.51345 h -0.376849 z"
     style="clip-rule:evenodd;fill:#ffffff;fill-rule:nonzero;stroke-width:0.356189;stroke-linejoin:round;stroke-miterlimit:1.5" /><path
     id="path132"
     d="m 54.078899,126.76091 c 0.0171,-0.0798 0.01959,-0.14105 0.0068,-0.18344 -0.02173,-0.078 -0.08584,-0.11683 -0.193055,-0.11683 -0.13179,0 -0.234016,0.057 -0.306323,0.17062 -0.03847,0.0605 -0.06696,0.13749 -0.08584,0.23081 l -0.170259,0.81888 h -0.386465 l 0.314159,-1.51096 h 0.374711 l -0.04631,0.22084 c 0.0659,-0.0773 0.125023,-0.13357 0.177026,-0.16777 0.09225,-0.0613 0.200179,-0.0915 0.322352,-0.0915 0.153517,0 0.270347,0.0406 0.350846,0.12289 0.08014,0.0819 0.100801,0.21763 0.06162,0.40748 l -0.212289,1.01906 h -0.397507 z"
     style="clip-rule:evenodd;fill:#ffffff;fill-rule:nonzero;stroke-width:0.356189;stroke-linejoin:round;stroke-miterlimit:1.5" /><path
     id="path133"
     d="m 55.118971,127.20543 -0.09759,0.47552 h -0.381484 l 0.424934,-2.0399 h 0.381122 l -0.230454,1.10312 0.601959,-0.5699 h 0.480856 l -0.640072,0.57952 0.346928,0.92716 h -0.468389 l -0.220125,-0.64684 z"
     style="clip-rule:evenodd;fill:#ffffff;fill-rule:nonzero;stroke-width:0.356189;stroke-linejoin:round;stroke-miterlimit:1.5" /><path
     id="path134"
     d="m 38.333556,126.66688 h 6.62227"
     style="clip-rule:evenodd;fill:none;fill-rule:evenodd;stroke:#d08c59;stroke-width:0.227961px;stroke-linecap:round;stroke-linejoin:round;stroke-miterlimit:1.5" /><path
     id="path135"
     d="m 56.644173,126.66688 h 6.62227"
     style="clip-rule:evenodd;fill:none;fill-rule:evenodd;stroke:#d08c59;stroke-width:0.227961px;stroke-linecap:round;stroke-linejoin:round;stroke-miterlimit:1.5" /><path
     style="font-style:italic;font-size:5.64444px;font-family:Menlo;-inkscape-font-specification:'Menlo Italic';text-align:end;text-anchor:end;fill:#ffffff;stroke-width:0.352778"
     d="M 42.151437,2.3449266 42.04395,2.9099218 q -0.223242,-0.1626084 -0.46302,-0.2452906 -0.239779,-0.082682 -0.496094,-0.082682 -0.454752,0 -0.741384,0.2259981 -0.286631,0.2259981 -0.286631,0.5760195 0,0.1956813 0.135047,0.3169485 0.135048,0.1212673 0.490581,0.2315103 l 0.333485,0.1074869 q 0.449241,0.1378037 0.655946,0.3693139 0.209462,0.2287542 0.209462,0.5842878 0,0.6476775 -0.457509,1.0280157 -0.457508,0.3775822 -1.248501,0.3775822 -0.286632,0 -0.564995,-0.06339 -0.275608,-0.060634 -0.551215,-0.184657 l 0.112999,-0.5760195 q 0.270095,0.1901691 0.545702,0.2811195 0.278364,0.09095 0.587044,0.09095 0.454753,0 0.738628,-0.2425345 0.283876,-0.2425346 0.283876,-0.6146046 0,-0.2259981 -0.121267,-0.3500214 -0.121268,-0.1240228 -0.487826,-0.2370218 l -0.278363,-0.09095 Q 39.932797,4.25213 39.728848,4.0509366 39.527654,3.8469871 39.527654,3.5135021 q 0,-0.6090924 0.454753,-0.9949428 0.454752,-0.3886065 1.187868,-0.3886065 0.220486,0 0.468532,0.055122 0.250803,0.055121 0.51263,0.1598518 z m 0.768945,-0.1405598 h 3.141924 l -0.09095,0.4685326 H 44.678757 L 43.973202,6.3191857 H 43.410963 L 44.12203,2.6728994 h -1.292599 z m 4.97747,2.1717865 q 0.198437,0.038585 0.316949,0.184657 0.121267,0.146072 0.270095,0.6338971 l 0.333485,1.1244783 H 48.26441 l -0.292144,-1.03904 Q 47.850999,4.8501981 47.699415,4.7151505 47.550587,4.5801028 47.247418,4.5801028 h -0.529166 l -0.338997,1.7390829 h -0.559483 l 0.796505,-4.1148189 h 1.146527 q 0.570508,0 0.881944,0.2480467 0.314193,0.2452906 0.314193,0.6945307 0,0.5043616 -0.286632,0.8350905 -0.283876,0.3307289 -0.774457,0.3941186 z m -0.80753,-1.7142782 -0.281119,1.4607194 h 0.60358 q 0.44924,0 0.716579,-0.2342663 0.270095,-0.2370224 0.270095,-0.6283849 0,-0.3086804 -0.173632,-0.4519962 -0.173633,-0.146072 -0.548459,-0.146072 z m 3.048219,-0.4575083 h 2.287542 l -0.09095,0.4685326 h -0.865407 l -0.614605,3.1777537 h 0.865408 l -0.09095,0.4685326 h -2.287542 l 0.09095,-0.4685326 h 0.862651 l 0.61736,-3.1777537 H 50.04759 Z m 3.230118,0 h 0.705555 l 0.727604,3.3872153 0.658702,-3.3872153 h 0.537434 L 55.195937,6.3191857 H 54.490382 L 53.762778,2.9319704 53.10132,6.3191857 h -0.534678 z m 5.283394,3.8502358 q -0.239778,0.1708766 -0.523654,0.259071 -0.283875,0.085438 -0.606336,0.085438 -0.639409,0 -0.983919,-0.369314 -0.341753,-0.37207 -0.341753,-1.0583325 0,-0.2480467 0.0441,-0.5264102 0.04685,-0.2811196 0.135048,-0.5870438 0.09646,-0.3224607 0.225998,-0.5815317 0.129536,-0.2618271 0.283876,-0.446484 0.2949,-0.3582897 0.650433,-0.5291663 0.35829,-0.1708766 0.815798,-0.1708766 0.220486,0 0.438216,0.057878 0.220486,0.057878 0.432704,0.1681206 l -0.113002,0.5705072 q -0.179145,-0.1736327 -0.377582,-0.259071 -0.195682,-0.085438 -0.418924,-0.085438 -0.270095,0 -0.507117,0.1157551 -0.237023,0.112999 -0.424436,0.3362411 -0.121267,0.1433158 -0.228754,0.3582896 -0.107487,0.2149738 -0.190169,0.482313 -0.09371,0.3141925 -0.143316,0.5897999 -0.04685,0.2756075 -0.04685,0.4988495 0,0.4712887 0.21773,0.7276036 0.217729,0.2563149 0.61736,0.2563149 0.187413,0 0.336241,-0.049609 0.148828,-0.052365 0.250803,-0.1488281 L 58.40401,4.6655417 h -0.598068 l 0.08268,-0.4575083 h 1.12999 z m 3.888823,-3.709676 -0.107487,0.5649952 Q 62.210147,2.7473134 61.970368,2.6646312 61.73059,2.5819492 61.474275,2.5819492 q -0.454752,0 -0.741384,0.2259981 -0.286632,0.2259981 -0.286632,0.5760195 0,0.1956813 0.135048,0.3169485 0.135047,0.1212673 0.490581,0.2315103 l 0.333485,0.1074869 q 0.44924,0.1378037 0.655946,0.3693139 0.209461,0.2287542 0.209461,0.5842878 0,0.6476775 -0.457508,1.0280157 -0.457508,0.3775822 -1.248502,0.3775822 -0.286631,0 -0.564995,-0.06339 -0.275607,-0.060634 -0.551215,-0.184657 l 0.112999,-0.5760195 q 0.270096,0.1901691 0.545703,0.2811195 0.278364,0.09095 0.587044,0.09095 0.454752,0 0.738628,-0.2425345 0.283875,-0.2425346 0.283875,-0.6146046 0,-0.2259981 -0.121267,-0.3500214 -0.121267,-0.1240228 -0.487825,-0.2370218 l -0.278363,-0.09095 Q 60.322236,4.25213 60.118286,4.0509366 59.917093,3.8469871 59.917093,3.5135021 q 0,-0.6090924 0.454752,-0.9949428 0.454752,-0.3886065 1.187868,-0.3886065 0.220486,0 0.468533,0.055122 0.250803,0.055121 0.51263,0.1598518 z"
     id="text1"
     aria-label="STRINGS" /><rect
     style="fill:#212121;fill-opacity:1;stroke:#d08c58;stroke-width:0.353131;stroke-dasharray:none;stroke-opacity:1"
     id="rect2"
     width="46.187641"
     height="15.926773"
     x="27.706179"
     y="10.352402"
     rx="2"
     ry="2" /><rect
     style="fill:none;fill-opacity:1;stroke:#808080;stroke-width:0.176389;stroke-linecap:butt;stroke-linejoin:bevel;stroke-dasharray:none;stroke-opacity:1;paint-order:normal"
     id="rect3"
     width="10.345999"
     height="2.0096545"
     x="56.568054"
     y="13.49694" /><rect
     style="fill:none;fill-opacity:1;stroke:#808080;stroke-width:0.176389;stroke-linecap:butt;stroke-linejoin:bevel;stroke-dasharray:none;stroke-opacity:1;paint-order:normal"
     id="rect4"
     width="10.345999"
     height="2.0096545"
     x="56.568054"
     y="15.506595" /><rect
     style="fill:none;fill-opacity:1;stroke:#808080;stroke-width:0.176389;stroke-linecap:butt;stroke-linejoin:bevel;stroke-dasharray:none;stroke-opacity:1;paint-order:normal"
     id="rect5"
     width="10.345999"
     height="2.0096545"
     x="56.568054"
     y="17.491438" /><rect
     style="fill:none;fill-opacity:1;stroke:#808080;stroke-width:0.176389;stroke-linecap:butt;stroke-linejoin:bevel;stroke-dasharray:none;stroke-opacity:1;paint-order:normal"
     id="rect6"
     width="10.345999"
     height="2.0096545"
     x="56.568054"
     y="19.501093" /><rect
     style="fill:none;fill-opacity:1;stroke:#808080;stroke-width:0.176389;stroke-linecap:butt;stroke-linejoin:bevel;stroke-dasharray:none;stroke-opacity:1;paint-order:normal"
     id="rect7"
     width="10.345999"
     height="2.0096545"
     x="56.568054"
     y="21.535557" /><rect
     style="fill:none;fill-opacity:1;stroke:#808080;stroke-width:0.176389;stroke-linecap:butt;stroke-linejoin:bevel;stroke-dasharray:none;stroke-opacity:1;paint-order:normal"
     id="rect8"
     width="10.345999"
     height="2.0096545"
     x="13.348076"
     y="-66.76519"
     transform="rotate(90)" /><rect
     style="fill:none;fill-opacity:1;stroke:#808080;stroke-width:0.176389;stroke-linecap:butt;stroke-linejoin:bevel;stroke-dasharray:none;stroke-opacity:1;paint-order:normal"
     id="rect9"
     width="10.345999"
     height="2.0096545"
     x="13.348076"
     y="-64.755531"
     transform="rotate(90)" /><rect
     style="fill:none;fill-opacity:1;stroke:#808080;stroke-width:0.176389;stroke-linecap:butt;stroke-linejoin:bevel;stroke-dasharray:none;stroke-opacity:1;paint-order:normal"
     id="rect10"
     width="10.345999"
     height="2.0096545"
     x="13.348076"
     y="-62.770691"
     transform="rotate(90)" /><rect
     style="fill:none;fill-opacity:1;stroke:#808080;stroke-width:0.176389;stroke-linecap:butt;stroke-linejoin:bevel;stroke-dasharray:none;stroke-opacity:1;paint-order:normal"
     id="rect11"
     width="10.345999"
     height="2.0096545"
     x="13.348076"
     y="-60.761036"
     transform="rotate(90)" /><rect
     style="fill:none;fill-opacity:1;stroke:#808080;stroke-width:0.176389;stroke-linecap:butt;stroke-linejoin:bevel;stroke-dasharray:none;stroke-opacity:1;paint-order:normal"
     id="rect12"
     width="10.345999"
     height="2.0096545"
     x="13.348076"
     y="-58.726574"
     transform="rotate(90)" /><rect
     style="fill:none;fill-opacity:1;stroke:#808080;stroke-width:0.352777;stroke-linecap:butt;stroke-linejoin:round;stroke-dasharray:none;stroke-opacity:1;paint-order:normal"
     id="rect13"
     width="10.17623"
     height="10.870926"
     x="56.652939"
     y="12.837507" /><rect
     style="fill:#3b3b3b;fill-opacity:1;stroke:#d08c59;stroke-width:0.352779;stroke-dasharray:none;stroke-opacity:1"
     id="rect3-5"
     width="88.721817"
     height="23.53327"
     x="6.3957615"
     y="99.768318"
     rx="3.9999998"
     ry="4" /><path
     style="font-style:italic;font-size:3.175px;font-family:Menlo;-inkscape-font-specification:'Menlo Italic';text-align:end;text-anchor:end;fill:#ffffff;stroke-width:0.352778;stroke-linejoin:round"
     d="m 6.5481654,30.262108 q -0.1302247,0.06356 -0.2635498,0.09457 -0.1317749,0.03256 -0.2728516,0.03256 -0.3565674,0 -0.5534546,-0.206189 -0.1953369,-0.206189 -0.1953369,-0.578259 0,-0.341065 0.1085205,-0.675928 0.1085205,-0.334863 0.2852539,-0.547253 0.1658814,-0.201538 0.3658691,-0.297657 0.1999878,-0.09612 0.4557862,-0.09612 0.1240234,0 0.2464965,0.03256 0.1224732,0.03256 0.2387452,0.09457 l -0.063562,0.320911 q -0.099219,-0.09768 -0.2092896,-0.145738 -0.1100708,-0.04806 -0.2340942,-0.04806 -0.1472779,0 -0.2728516,0.06356 -0.1255737,0.06201 -0.2356445,0.190686 -0.1612305,0.190686 -0.2604492,0.488343 -0.097669,0.297656 -0.097669,0.596862 0,0.268201 0.1209229,0.410828 0.1209228,0.142627 0.3488159,0.142627 0.1317749,0 0.2713012,-0.04961 0.1410767,-0.04961 0.2775025,-0.144178 z m 0.8867675,-2.232422 h 0.3131592 l -0.1829346,0.948779 h 0.857312 L 8.6054041,28.029686 H 8.9201135 L 8.4689783,30.344273 H 8.1558191 L 8.3713098,29.242015 H 7.5108973 L 7.2985071,30.344273 H 6.9837977 Z m 2.2510253,2.105298 q 0.1317749,0 0.243396,-0.07906 0.1116208,-0.07906 0.1844848,-0.226343 0.114722,-0.224792 0.186035,-0.544153 0.07131,-0.31936 0.07131,-0.613916 0,-0.220141 -0.08217,-0.324011 -0.08061,-0.10542 -0.251147,-0.10542 -0.1317752,0 -0.241846,0.07906 -0.1100708,0.07906 -0.1829345,0.226343 -0.1178223,0.227893 -0.1891358,0.544153 -0.071313,0.31626 -0.071313,0.610815 0,0.221692 0.080615,0.327112 0.082166,0.10542 0.2526975,0.10542 z m 1.0061408,-1.372009 q 0,0.170532 -0.03566,0.37052 -0.03411,0.199987 -0.100769,0.410827 -0.04496,0.142627 -0.09767,0.255799 -0.05116,0.113171 -0.111621,0.204638 -0.136426,0.196888 -0.305408,0.291455 -0.168982,0.09302 -0.3937745,0.09302 -0.3116089,0 -0.4619873,-0.190686 -0.1503784,-0.190686 -0.1503784,-0.587561 0,-0.172083 0.032556,-0.36897 0.034106,-0.198437 0.100769,-0.409277 0.044958,-0.142627 0.096118,-0.255798 0.05271,-0.113172 0.1131713,-0.204639 0.1364258,-0.196887 0.3054077,-0.289905 0.168982,-0.09457 0.3937742,-0.09457 0.313159,0 0.463538,0.190686 0.151929,0.189136 0.151929,0.584461 z m 1.314648,0.488342 q 0.111622,0.0217 0.178284,0.10387 0.06821,0.08217 0.151929,0.356567 l 0.187585,0.632519 h -0.311609 l -0.164331,-0.58446 q -0.06821,-0.241846 -0.153479,-0.31781 -0.08371,-0.07596 -0.254248,-0.07596 h -0.297656 l -0.190686,0.97823 h -0.31471 l 0.448035,-2.314587 h 0.644922 q 0.320911,0 0.496094,0.139526 0.176733,0.137977 0.176733,0.390674 0,0.283704 -0.16123,0.469739 -0.15968,0.186035 -0.435633,0.221692 z m -0.454236,-0.964282 -0.15813,0.821655 h 0.339515 q 0.252698,0 0.403076,-0.131775 0.151929,-0.133325 0.151929,-0.353467 0,-0.173632 -0.09767,-0.254248 -0.09767,-0.08216 -0.308508,-0.08216 z m 1.680518,1.79989 q 0.286805,0 0.460437,-0.09612 0.173633,-0.09767 0.279053,-0.31626 0.08372,-0.178284 0.136426,-0.42478 0.05426,-0.248047 0.05426,-0.454236 0,-0.272852 -0.127124,-0.390674 -0.127124,-0.117822 -0.42633,-0.117822 h -0.176734 l -0.350366,1.79989 z m 0.406177,-2.057239 q 0.42323,0 0.63252,0.192236 0.210839,0.192237 0.210839,0.582911 0,0.251147 -0.06511,0.517797 -0.06511,0.266651 -0.175183,0.47284 -0.16123,0.296106 -0.403076,0.42323 -0.240296,0.125573 -0.651123,0.125573 h -0.469739 l 0.451135,-2.314587 z"
     id="text41"
     aria-label="CHORD" /><path
     style="font-style:italic;font-size:3.175px;font-family:Menlo;-inkscape-font-specification:'Menlo Italic';text-align:end;text-anchor:end;fill:#ffffff;stroke-width:0.352778;stroke-linejoin:round"
     d="m 7.9785698,59.573112 q 0.1116211,0.0217 0.1782837,0.10387 0.068213,0.08216 0.1519287,0.356567 l 0.1875854,0.63252 H 8.1847587 l -0.164331,-0.584461 q -0.068213,-0.241845 -0.153479,-0.31781 -0.083716,-0.07596 -0.2542481,-0.07596 H 7.3150444 l -0.190686,0.978235 H 6.8096489 l 0.4480347,-2.314588 h 0.6449218 q 0.3209107,0 0.4960938,0.139527 0.1767334,0.137976 0.1767334,0.390673 0,0.283704 -0.1612305,0.469739 -0.1596802,0.186035 -0.4356323,0.221692 z M 7.5243339,58.60883 7.3662041,59.430485 h 0.3395141 q 0.2526978,0 0.4030762,-0.131775 0.1519287,-0.133325 0.1519287,-0.353466 0,-0.173633 -0.097669,-0.254249 -0.097668,-0.08216 -0.3085083,-0.08216 z m 1.9564697,1.847949 q 0.1317749,0 0.243396,-0.07906 0.1116211,-0.07906 0.1844849,-0.226343 0.1147215,-0.224792 0.1860355,-0.544152 0.07131,-0.319361 0.07131,-0.613916 0,-0.220142 -0.08217,-0.324012 -0.08061,-0.10542 -0.2511479,-0.10542 -0.1317749,0 -0.2418457,0.07906 -0.1100708,0.07906 -0.1829346,0.226343 -0.1178222,0.227893 -0.1891357,0.544153 -0.071314,0.31626 -0.071314,0.610815 0,0.221692 0.080615,0.327112 0.082165,0.10542 0.2526985,0.10542 z M 10.486944,59.08477 q 0,0.170532 -0.03566,0.37052 -0.03411,0.199988 -0.100769,0.410828 -0.04496,0.142626 -0.09767,0.255798 -0.05116,0.113171 -0.111621,0.204639 -0.136426,0.196887 -0.3054081,0.291455 -0.1689819,0.09302 -0.3937744,0.09302 -0.3116089,0 -0.4619873,-0.190686 -0.1503784,-0.190686 -0.1503784,-0.587561 0,-0.172082 0.032556,-0.36897 0.034107,-0.198437 0.1007691,-0.409277 0.044958,-0.142627 0.096118,-0.255798 0.05271,-0.113172 0.1131714,-0.204639 0.1364258,-0.196887 0.3054077,-0.289905 0.168982,-0.09457 0.3937744,-0.09457 0.3131596,0 0.4635376,0.190686 0.151929,0.189136 0.151929,0.584461 z m 0.351916,-0.733289 h 0.296107 l -0.139527,1.875855 0.510047,-1.240235 h 0.327112 l 0.02325,1.243335 0.584461,-1.878955 h 0.306958 l -0.79065,2.314588 h -0.300757 l -0.04806,-1.348755 -0.575159,1.348755 h -0.291455 z"
     id="text42"
     aria-label="ROW" /><path
     style="font-style:italic;font-size:3.175px;font-family:Menlo;-inkscape-font-specification:'Menlo Italic';text-align:end;text-anchor:end;fill:#ffffff;stroke-width:0.352778;stroke-linejoin:round"
     d="m 88.624233,30.262108 q -0.130225,0.06356 -0.26355,0.09457 -0.131775,0.03256 -0.272852,0.03256 -0.356567,0 -0.553454,-0.206189 -0.195337,-0.206189 -0.195337,-0.578259 0,-0.341065 0.10852,-0.675928 0.108521,-0.334863 0.285254,-0.547253 0.165881,-0.201538 0.365869,-0.297657 0.199988,-0.09612 0.455786,-0.09612 0.124024,0 0.246497,0.03256 0.122473,0.03256 0.238745,0.09457 l -0.06356,0.320911 q -0.09922,-0.09767 -0.209289,-0.145728 -0.110071,-0.04806 -0.234095,-0.04806 -0.147278,0 -0.272851,0.06356 -0.125574,0.06201 -0.235645,0.190686 -0.16123,0.190686 -0.260449,0.488343 -0.09767,0.297656 -0.09767,0.596862 0,0.268201 0.120922,0.410828 0.120923,0.142627 0.348816,0.142627 0.131775,0 0.271302,-0.04961 0.141076,-0.04961 0.277502,-0.144178 z m 1.5875,-1.971973 -0.564307,1.199927 h 0.666626 z m -0.148829,-0.260449 h 0.381372 l 0.257349,2.314587 h -0.311609 l -0.05426,-0.603063 h -0.806152 l -0.285254,0.603063 h -0.336414 z m 1.714624,0.257349 -0.168982,0.869714 h 0.362769 q 0.255798,0 0.407727,-0.147278 0.153479,-0.148828 0.153479,-0.395324 0,-0.167432 -0.09612,-0.246497 -0.09612,-0.08061 -0.297656,-0.08061 z m -0.263549,-0.257349 h 0.682128 q 0.319361,0 0.486792,0.142627 0.167432,0.142627 0.167432,0.412378 0,0.386023 -0.248047,0.607715 -0.248047,0.221692 -0.682129,0.221692 h -0.361218 l -0.181384,0.930175 h -0.31471 z m 2.159557,2.105298 q 0.131775,0 0.243396,-0.07906 0.111621,-0.07906 0.184485,-0.226343 0.114722,-0.224792 0.186035,-0.544153 0.07131,-0.31936 0.07131,-0.613916 0,-0.220141 -0.08217,-0.324011 -0.08062,-0.10542 -0.251147,-0.10542 -0.131775,0 -0.241846,0.07906 -0.110071,0.07906 -0.182934,0.226343 -0.117823,0.227893 -0.189136,0.544153 -0.07131,0.31626 -0.07131,0.610815 0,0.221692 0.08062,0.327112 0.08217,0.10542 0.252697,0.10542 z m 1.006141,-1.372009 q 0,0.170532 -0.03566,0.37052 -0.03411,0.199987 -0.100769,0.410827 -0.04496,0.142627 -0.09767,0.255799 -0.05116,0.113171 -0.111621,0.204638 -0.136426,0.196888 -0.305408,0.291455 -0.168981,0.09302 -0.393774,0.09302 -0.311609,0 -0.461987,-0.190686 -0.150379,-0.190686 -0.150379,-0.587561 0,-0.172083 0.03256,-0.36897 0.03411,-0.198437 0.100769,-0.409277 0.04496,-0.142627 0.09612,-0.255798 0.05271,-0.113172 0.113171,-0.204639 0.136426,-0.196887 0.305408,-0.289905 0.168982,-0.09457 0.393774,-0.09457 0.313159,0 0.463538,0.190686 0.151929,0.189136 0.151929,0.584461 z"
     id="text46"
     aria-label="CAPO" /><path
     style="font-style:italic;font-size:3.175px;font-family:Menlo;-inkscape-font-specification:'Menlo Italic';text-align:end;text-anchor:end;fill:#ffffff;stroke-width:0.352778;stroke-linejoin:round"
     d="m 32.804111,96.520093 -0.168982,0.869714 h 0.362769 q 0.255798,0 0.407727,-0.147278 0.153479,-0.148828 0.153479,-0.395324 0,-0.167432 -0.09612,-0.246497 -0.09612,-0.08061 -0.297656,-0.08061 z m -0.26355,-0.257349 h 0.682129 q 0.31936,0 0.486792,0.142627 0.167432,0.142627 0.167432,0.412378 0,0.386023 -0.248047,0.607715 -0.248047,0.221692 -0.682129,0.221692 H 32.58552 l -0.181385,0.930176 h -0.314709 z m 1.917713,0 h 1.286743 l -0.05116,0.26355 h -0.486792 l -0.345715,1.787488 h 0.486792 l -0.05116,0.26355 h -1.286743 l 0.05116,-0.26355 h 0.485241 l 0.347266,-1.787488 h -0.486792 z m 1.674316,0 h 1.767334 l -0.05116,0.26355 h -0.727087 l -0.396875,2.051038 h -0.31626 l 0.399976,-2.051038 H 36.08143 Z m 3.075781,2.232422 q -0.130225,0.06356 -0.26355,0.09457 -0.131775,0.03256 -0.272852,0.03256 -0.356567,0 -0.553454,-0.206189 -0.195337,-0.206189 -0.195337,-0.578259 0,-0.341065 0.108521,-0.675928 0.10852,-0.334863 0.285253,-0.547253 0.165882,-0.201538 0.36587,-0.297657 0.199987,-0.09612 0.455786,-0.09612 0.124023,0 0.246496,0.03256 0.122473,0.03256 0.238745,0.09457 l -0.06356,0.320911 q -0.09922,-0.09767 -0.209289,-0.145728 -0.110071,-0.04806 -0.234094,-0.04806 -0.147278,0 -0.272852,0.06356 -0.125574,0.06201 -0.235645,0.190686 -0.16123,0.190686 -0.260449,0.488343 -0.09767,0.297656 -0.09767,0.596862 0,0.268201 0.120923,0.410828 0.120923,0.142627 0.348816,0.142627 0.131774,0 0.271301,-0.04961 0.141077,-0.04961 0.277502,-0.144178 z m 0.886768,-2.232422 h 0.313159 l -0.182935,0.948779 h 0.857312 l 0.182935,-0.948779 h 0.314709 l -0.451135,2.314588 h -0.313159 l 0.215491,-1.102259 h -0.860413 l -0.21239,1.102259 h -0.31471 z m 3.950146,1.209229 -0.165882,0.84801 h 0.384473 q 0.285254,0 0.435632,-0.134876 0.151929,-0.134875 0.151929,-0.389123 0,-0.165881 -0.10542,-0.244946 -0.10542,-0.07906 -0.327112,-0.07906 z m 0.182934,-0.95188 -0.136426,0.697632 h 0.378272 q 0.234094,0 0.367419,-0.111621 0.134876,-0.113172 0.134876,-0.310059 0,-0.145728 -0.08682,-0.21084 -0.08527,-0.06511 -0.279052,-0.06511 z m -0.26355,-0.257349 h 0.68678 q 0.31471,0 0.47594,0.124024 0.16123,0.122473 0.16123,0.361218 0,0.238745 -0.142626,0.399975 -0.142627,0.159681 -0.384473,0.190686 0.193787,0.03566 0.296106,0.15813 0.103869,0.122474 0.103869,0.31471 0,0.362768 -0.248046,0.564306 -0.246497,0.201539 -0.697632,0.201539 h -0.700733 z m 1.959571,0 h 1.372009 l -0.05116,0.26355 h -1.0604 l -0.133325,0.685229 h 1.012341 l -0.04961,0.26355 h -1.013892 l -0.16123,0.838709 h 1.088305 l -0.05116,0.26355 h -1.403015 z m 1.820044,0 h 0.396875 l 0.409277,1.90531 0.37052,-1.90531 h 0.302307 l -0.451135,2.314588 h -0.396875 l -0.409277,-1.90531 -0.37207,1.90531 h -0.300757 z m 1.971972,2.057239 q 0.286804,0 0.460437,-0.09612 0.173633,-0.09767 0.279053,-0.31626 0.08372,-0.178284 0.136425,-0.42478 0.05426,-0.248047 0.05426,-0.454236 0,-0.272852 -0.127124,-0.390674 -0.127124,-0.117822 -0.426331,-0.117822 h -0.176733 l -0.350367,1.79989 z m 0.406177,-2.057239 q 0.42323,0 0.632519,0.192237 0.21084,0.192236 0.21084,0.58291 0,0.251147 -0.06511,0.517797 -0.06511,0.266651 -0.175183,0.47284 -0.161231,0.296106 -0.403077,0.42323 -0.240295,0.125574 -0.651123,0.125574 h -0.469738 l 0.451135,-2.314588 z"
     id="text47"
     aria-label="PITCH BEND" /><path
     style="font-style:italic;font-size:3.175px;font-family:Menlo;-inkscape-font-specification:'Menlo Italic';text-align:end;text-anchor:end;fill:#ffffff;stroke-width:0.352778;stroke-linejoin:round"
     d="m 83.221843,96.262744 h 0.296106 l -0.139526,1.875855 0.510046,-1.240235 h 0.327112 l 0.02325,1.243335 0.584461,-1.878955 h 0.306958 l -0.79065,2.314588 h -0.300756 l -0.04806,-1.348755 -0.575158,1.348755 h -0.291455 z m 2.125452,0 h 0.313159 l -0.182935,0.948779 h 0.857312 l 0.182935,-0.948779 h 0.314709 l -0.451135,2.314588 h -0.313159 l 0.215491,-1.102259 h -0.860413 l -0.21239,1.102259 h -0.31471 z m 2.612243,0.260449 -0.564306,1.199927 h 0.666626 z M 87.81071,96.262744 h 0.381372 l 0.257349,2.314588 h -0.311609 l -0.05426,-0.603064 h -0.806153 l -0.285253,0.603064 h -0.336414 z m 1.275891,0 h 0.417029 l 0.170532,1.172022 0.641821,-1.172022 h 0.418579 l -0.451135,2.314588 h -0.288354 l 0.399975,-2.057239 -0.672827,1.232483 H 89.50363 l -0.178284,-1.232483 -0.396875,2.057239 h -0.288354 z m 1.911511,0 h 0.417029 l 0.170532,1.172022 0.641822,-1.172022 h 0.418579 l -0.451135,2.314588 h -0.288355 l 0.399976,-2.057239 -0.672827,1.232483 h -0.218592 l -0.178283,-1.232483 -0.396875,2.057239 h -0.288355 z m 1.858802,0 h 0.313159 l 0.365869,1.009241 0.770496,-1.009241 h 0.337964 l -0.984436,1.275891 -0.199988,1.038697 h -0.320911 l 0.203089,-1.038697 z"
     id="text50"
     aria-label="WHAMMY" /><path
     style="font-style:italic;font-size:2.82222px;font-family:Menlo;-inkscape-font-specification:'Menlo Italic';text-align:end;text-anchor:end;fill:#ffffff;stroke-width:0.352778;stroke-linejoin:round"
     d="m 25.152961,43.054796 -0.14745,0.753787 h 0.341753 q 0.253559,0 0.387229,-0.119889 0.135047,-0.11989 0.135047,-0.345888 0,-0.14745 -0.09371,-0.21773 -0.09371,-0.07028 -0.290766,-0.07028 z m 0.162608,-0.846114 -0.121267,0.620116 h 0.336241 q 0.208084,0 0.326595,-0.09922 0.119889,-0.100597 0.119889,-0.275608 0,-0.129535 -0.07717,-0.187413 -0.07579,-0.05788 -0.248047,-0.05788 z m -0.234266,-0.228754 h 0.610471 q 0.279741,0 0.423057,0.110242 0.143316,0.108865 0.143316,0.321083 0,0.212218 -0.12678,0.355534 -0.126779,0.141938 -0.341753,0.169498 0.172255,0.03169 0.263205,0.14056 0.09233,0.108865 0.09233,0.279742 0,0.32246 -0.220486,0.501605 -0.219108,0.179145 -0.620117,0.179145 h -0.622873 z"
     id="text13"
     aria-label="B" /><path
     style="font-style:italic;font-size:2.82222px;font-family:Menlo;-inkscape-font-specification:'Menlo Italic';text-align:end;text-anchor:end;fill:#ffffff;stroke-width:0.352778;stroke-linejoin:round"
     d="m 33.366675,41.979928 h 1.219563 l -0.04547,0.234266 H 33.59819 l -0.118511,0.609092 h 0.899858 l -0.0441,0.234267 h -0.901236 l -0.143316,0.745518 h 0.967382 l -0.04547,0.234266 h -1.247124 z"
     id="text14"
     aria-label="E" /><path
     style="font-style:italic;font-size:2.82222px;font-family:Menlo;-inkscape-font-specification:'Menlo Italic';text-align:end;text-anchor:end;fill:#ffffff;stroke-width:0.352778;stroke-linejoin:round"
     d="m 42.449597,42.211438 -0.501606,1.0666 h 0.592556 z m -0.132292,-0.23151 h 0.338998 l 0.228754,2.057409 h -0.276986 l -0.04823,-0.536056 h -0.716579 l -0.253559,0.536056 h -0.299034 z"
     id="text15"
     aria-label="A" /><path
     style="font-style:italic;font-size:2.82222px;font-family:Menlo;-inkscape-font-specification:'Menlo Italic';text-align:end;text-anchor:end;fill:#ffffff;stroke-width:0.352778;stroke-linejoin:round"
     d="m 50.325175,43.808583 q 0.254937,0 0.409278,-0.08544 0.15434,-0.08682 0.248046,-0.281119 0.07441,-0.158474 0.121267,-0.377582 0.04823,-0.220486 0.04823,-0.403765 0,-0.242535 -0.112999,-0.347266 -0.112999,-0.10473 -0.37896,-0.10473 H 50.50294 l -0.311436,1.599901 z m 0.361046,-1.828655 q 0.376204,0 0.562239,0.170876 0.187413,0.170877 0.187413,0.518142 0,0.223242 -0.05788,0.460264 -0.05788,0.237023 -0.155718,0.420302 -0.143316,0.263205 -0.35829,0.376204 -0.213596,0.111621 -0.578776,0.111621 h -0.417542 l 0.401009,-2.057409 z"
     id="text16"
     aria-label="D" /><path
     style="font-style:italic;font-size:2.82222px;font-family:Menlo;-inkscape-font-specification:'Menlo Italic';text-align:end;text-anchor:end;fill:#ffffff;stroke-width:0.352778;stroke-linejoin:round"
     d="m 59.557496,43.905045 q -0.119889,0.08544 -0.261827,0.129536 -0.141938,0.04272 -0.303168,0.04272 -0.319705,0 -0.491959,-0.184657 -0.170877,-0.186035 -0.170877,-0.529166 0,-0.124024 0.02205,-0.263205 0.02343,-0.14056 0.06752,-0.293522 0.04823,-0.161231 0.112999,-0.290766 0.06477,-0.130914 0.141937,-0.223242 0.14745,-0.179145 0.325217,-0.264583 0.179145,-0.08544 0.407899,-0.08544 0.110243,0 0.219108,0.02894 0.110243,0.02894 0.216352,0.08406 l -0.0565,0.285253 q -0.08957,-0.08682 -0.188791,-0.129535 -0.09784,-0.04272 -0.209461,-0.04272 -0.135048,0 -0.253559,0.05788 -0.118511,0.0565 -0.212218,0.168121 -0.06063,0.07166 -0.114377,0.179145 -0.05374,0.107486 -0.09508,0.241156 -0.04685,0.157096 -0.07166,0.2949 -0.02343,0.137804 -0.02343,0.249425 0,0.235644 0.108865,0.363801 0.108865,0.128158 0.30868,0.128158 0.09371,0 0.168121,-0.02481 0.07441,-0.02618 0.125401,-0.07441 l 0.104731,-0.541568 h -0.299034 l 0.04134,-0.228754 h 0.564995 z"
     id="text17"
     aria-label="G" /><path
     style="font-style:italic;font-size:2.82222px;font-family:Menlo;-inkscape-font-specification:'Menlo Italic';text-align:end;text-anchor:end;fill:#ffffff;stroke-width:0.352778;stroke-linejoin:round"
     d="m 68.03806,43.964301 q -0.115755,0.0565 -0.234266,0.08406 -0.117134,0.02894 -0.242535,0.02894 -0.316948,0 -0.491959,-0.183279 -0.173633,-0.18328 -0.173633,-0.514009 0,-0.303168 0.09646,-0.600824 0.09646,-0.297656 0.253559,-0.486447 0.14745,-0.179145 0.325216,-0.264583 0.177767,-0.08544 0.405143,-0.08544 0.110243,0 0.219108,0.02894 0.108865,0.02894 0.212218,0.08406 l -0.0565,0.285253 q -0.08819,-0.08682 -0.186035,-0.129535 -0.09784,-0.04272 -0.208083,-0.04272 -0.130914,0 -0.242535,0.0565 -0.111621,0.05512 -0.209461,0.169499 -0.143316,0.169498 -0.231511,0.434081 -0.08682,0.264584 -0.08682,0.530545 0,0.2384 0.107487,0.36518 0.107487,0.126779 0.310058,0.126779 0.117133,0 0.241157,-0.0441 0.125401,-0.0441 0.246668,-0.128158 z"
     id="text18"
     aria-label="C" /><path
     style="font-style:italic;font-size:2.82222px;font-family:Menlo;-inkscape-font-specification:'Menlo Italic';text-align:end;text-anchor:end;fill:#ffffff;stroke-width:0.352778;stroke-linejoin:round"
     d="m 75.607579,41.979928 h 1.211295 l -0.04548,0.234266 H 75.84184 l -0.118511,0.606336 h 0.843359 l -0.0441,0.234266 h -0.844737 l -0.191547,0.982541 h -0.279742 z"
     id="text19"
     aria-label="F" /><path
     style="font-style:italic;font-size:2.82222px;font-family:Menlo;-inkscape-font-specification:'Menlo Italic';text-align:end;text-anchor:end;fill:#ffffff;stroke-width:0.352778;stroke-linejoin:round"
     d="m 33.106675,65.985398 h 1.219563 l -0.04547,0.234266 H 33.33819 l -0.118511,0.609093 h 0.899858 l -0.0441,0.234266 h -0.901236 l -0.143316,0.745518 h 0.967382 l -0.04547,0.234266 h -1.247124 z"
     id="text20"
     aria-label="E" /><path
     style="font-style:italic;font-size:2.82222px;font-family:Menlo;-inkscape-font-specification:'Menlo Italic';text-align:end;text-anchor:end;fill:#ffffff;stroke-width:0.352778;stroke-linejoin:round"
     d="m 42.187596,66.216908 -0.501606,1.066601 h 0.592556 z m -0.132292,-0.23151 h 0.338998 l 0.228754,2.057409 H 42.34607 l -0.04823,-0.536056 h -0.716579 l -0.253559,0.536056 h -0.299035 z"
     id="text21"
     aria-label="A" /><path
     style="font-style:italic;font-size:2.82222px;font-family:Menlo;-inkscape-font-specification:'Menlo Italic';text-align:end;text-anchor:end;fill:#ffffff;stroke-width:0.352778;stroke-linejoin:round"
     d="m 49.965175,67.814053 q 0.254937,0 0.409277,-0.08544 0.15434,-0.08682 0.248047,-0.28112 0.07441,-0.158474 0.121267,-0.377582 0.04823,-0.220486 0.04823,-0.403765 0,-0.242534 -0.112999,-0.347265 -0.112999,-0.104731 -0.37896,-0.104731 h -0.157096 l -0.311437,1.599901 z m 0.361046,-1.828655 q 0.376204,0 0.562239,0.170876 0.187413,0.170877 0.187413,0.518142 0,0.223242 -0.05788,0.460265 -0.05788,0.237022 -0.155718,0.420301 -0.143316,0.263205 -0.35829,0.376204 -0.213595,0.111621 -0.578775,0.111621 h -0.417543 l 0.401008,-2.057409 z"
     id="text22"
     aria-label="D" /><path
     style="font-style:italic;font-size:2.82222px;font-family:Menlo;-inkscape-font-specification:'Menlo Italic';text-align:end;text-anchor:end;fill:#ffffff;stroke-width:0.352778;stroke-linejoin:round"
     d="m 59.296498,67.910516 q -0.119889,0.08544 -0.261827,0.129535 -0.141937,0.04272 -0.303168,0.04272 -0.319704,0 -0.491959,-0.184657 -0.170877,-0.186036 -0.170877,-0.529167 0,-0.124023 0.02205,-0.263205 0.02343,-0.14056 0.06752,-0.293522 0.04823,-0.16123 0.112999,-0.290766 0.06477,-0.130913 0.141938,-0.223242 0.14745,-0.179145 0.325216,-0.264583 0.179145,-0.08544 0.407899,-0.08544 0.110243,0 0.219108,0.02894 0.110243,0.02894 0.216352,0.08406 l -0.0565,0.285254 q -0.08957,-0.08682 -0.188791,-0.129536 -0.09784,-0.04272 -0.209462,-0.04272 -0.135048,0 -0.253559,0.05788 -0.118511,0.0565 -0.212218,0.168121 -0.06063,0.07166 -0.114377,0.179145 -0.05374,0.107487 -0.09508,0.241156 -0.04685,0.157097 -0.07166,0.2949 -0.02343,0.137804 -0.02343,0.249425 0,0.235644 0.108865,0.363802 0.108865,0.128157 0.30868,0.128157 0.09371,0 0.168121,-0.0248 0.07441,-0.02618 0.125401,-0.07441 l 0.104731,-0.541569 h -0.299034 l 0.04134,-0.228754 h 0.564995 z"
     id="text23"
     aria-label="G" /><path
     style="font-style:italic;font-size:2.82222px;font-family:Menlo;-inkscape-font-specification:'Menlo Italic';text-align:end;text-anchor:end;fill:#ffffff;stroke-width:0.352778;stroke-linejoin:round"
     d="m 67.777058,67.969771 q -0.115755,0.0565 -0.234266,0.08406 -0.117133,0.02894 -0.242534,0.02894 -0.316949,0 -0.49196,-0.183279 -0.173632,-0.183279 -0.173632,-0.514007 0,-0.303169 0.09646,-0.600825 0.09646,-0.297656 0.253559,-0.486447 0.14745,-0.179145 0.325217,-0.264583 0.177767,-0.08544 0.405143,-0.08544 0.110243,0 0.219108,0.02894 0.108865,0.02894 0.212217,0.08406 l -0.0565,0.285254 q -0.08819,-0.08682 -0.186035,-0.129536 -0.09784,-0.04272 -0.208084,-0.04272 -0.130913,0 -0.242534,0.0565 -0.111621,0.05512 -0.209462,0.169499 -0.143316,0.169499 -0.23151,0.434082 -0.08682,0.264583 -0.08682,0.530544 0,0.2384 0.107487,0.36518 0.107487,0.126779 0.310059,0.126779 0.117133,0 0.241156,-0.0441 0.125402,-0.0441 0.246669,-0.128157 z"
     id="text24"
     aria-label="C" /><path
     style="font-style:italic;font-size:2.82222px;font-family:Menlo;-inkscape-font-specification:'Menlo Italic';text-align:end;text-anchor:end;fill:#ffffff;stroke-width:0.352778;stroke-linejoin:round"
     d="m 73.841952,67.060267 -0.14745,0.753786 h 0.341753 q 0.253559,0 0.387229,-0.119889 0.135047,-0.119889 0.135047,-0.345887 0,-0.14745 -0.09371,-0.21773 -0.09371,-0.07028 -0.290766,-0.07028 z m 0.162608,-0.846115 -0.121267,0.620117 h 0.336241 q 0.208084,0 0.326595,-0.09922 0.119889,-0.100597 0.119889,-0.275607 0,-0.129536 -0.07717,-0.187413 -0.07579,-0.05788 -0.248046,-0.05788 z m -0.234266,-0.228754 h 0.610471 q 0.279741,0 0.423057,0.110243 0.143316,0.108865 0.143316,0.321082 0,0.212218 -0.12678,0.355534 -0.126779,0.141938 -0.341753,0.169499 0.172255,0.03169 0.263205,0.140559 0.09233,0.108865 0.09233,0.279742 0,0.322461 -0.220486,0.501605 -0.219108,0.179145 -0.620117,0.179145 h -0.622873 z m 2.010556,1.882399 q 0.115755,0 0.209462,-0.06201 0.09371,-0.06201 0.157096,-0.180523 0.06752,-0.129536 0.106109,-0.289388 0.03996,-0.159852 0.03996,-0.30868 0,-0.176389 -0.07028,-0.264583 -0.0689,-0.08819 -0.208083,-0.08819 -0.114377,0 -0.209462,0.06339 -0.09371,0.06339 -0.163986,0.184657 -0.06615,0.118511 -0.106109,0.279742 -0.03996,0.159852 -0.03996,0.312814 0,0.169499 0.07304,0.261827 0.07441,0.09095 0.212217,0.09095 z m -0.144694,-1.171332 q 0.08544,-0.115755 0.198438,-0.175011 0.112999,-0.05926 0.253559,-0.05926 0.225998,0 0.351399,0.143315 0.125401,0.141938 0.125401,0.398253 0,0.199816 -0.0565,0.398253 -0.0565,0.198437 -0.155718,0.347265 -0.104731,0.158475 -0.256315,0.246669 -0.150206,0.08682 -0.321083,0.08682 -0.135047,0 -0.227376,-0.05926 -0.09095,-0.05926 -0.137804,-0.175011 l -0.03583,0.194303 h -0.254936 l 0.417545,-2.144226 h 0.254937 z m 1.48139,-0.711067 h 1.289843 l -0.02205,0.129535 -1.10932,1.927874 H 76.976987 L 78.0491,66.219664 h -0.975651 z"
     id="text25"
     aria-label="Bb7" /><path
     style="font-style:italic;font-size:2.82222px;font-family:Menlo;-inkscape-font-specification:'Menlo Italic';text-align:end;text-anchor:end;fill:#ffffff;stroke-width:0.352778;stroke-linejoin:round"
     d="m 37.777596,78.710984 -0.501605,1.066601 h 0.592556 z m -0.132291,-0.23151 h 0.338997 l 0.228754,2.057409 H 37.93607 l -0.04823,-0.536056 h -0.716579 l -0.253559,0.536056 h -0.299035 z"
     id="text27"
     aria-label="A" /><path
     style="font-style:italic;font-size:2.82222px;font-family:Menlo;-inkscape-font-specification:'Menlo Italic';text-align:end;text-anchor:end;fill:#ffffff;stroke-width:0.352778;stroke-linejoin:round"
     d="m 45.754176,80.308129 q 0.254937,0 0.409277,-0.08544 0.154341,-0.08682 0.248047,-0.28112 0.07441,-0.158474 0.121267,-0.377582 0.04823,-0.220486 0.04823,-0.403765 0,-0.242535 -0.112999,-0.347265 -0.112999,-0.104731 -0.378961,-0.104731 h -0.157096 l -0.311436,1.599901 z m 0.361046,-1.828655 q 0.376204,0 0.562239,0.170876 0.187413,0.170877 0.187413,0.518142 0,0.223242 -0.05788,0.460265 -0.05788,0.237022 -0.155718,0.420301 -0.143316,0.263205 -0.35829,0.376204 -0.213596,0.111621 -0.578776,0.111621 h -0.417545 l 0.401009,-2.057409 z"
     id="text28"
     aria-label="D" /><path
     style="font-style:italic;font-size:2.82222px;font-family:Menlo;-inkscape-font-specification:'Menlo Italic';text-align:end;text-anchor:end;fill:#ffffff;stroke-width:0.352778;stroke-linejoin:round"
     d="m 54.986497,80.404591 q -0.119889,0.08544 -0.261827,0.129536 -0.141938,0.04272 -0.303168,0.04272 -0.319705,0 -0.491959,-0.184657 -0.170877,-0.186035 -0.170877,-0.529166 0,-0.124023 0.02205,-0.263205 0.02343,-0.14056 0.06752,-0.293522 0.04823,-0.161231 0.112999,-0.290766 0.06477,-0.130914 0.141938,-0.223242 0.14745,-0.179145 0.325217,-0.264583 0.179145,-0.08544 0.407899,-0.08544 0.110243,0 0.219108,0.02894 0.110243,0.02894 0.216352,0.08406 l -0.0565,0.285253 q -0.08957,-0.08682 -0.188791,-0.129535 -0.09784,-0.04272 -0.209461,-0.04272 -0.135048,0 -0.253559,0.05788 -0.118512,0.0565 -0.212218,0.168121 -0.06063,0.07166 -0.114377,0.179145 -0.05374,0.107486 -0.09508,0.241156 -0.04685,0.157096 -0.07166,0.2949 -0.02343,0.137804 -0.02343,0.249425 0,0.235644 0.108865,0.363802 0.108865,0.128157 0.30868,0.128157 0.09371,0 0.168121,-0.0248 0.07441,-0.02618 0.125401,-0.07441 l 0.104731,-0.541568 h -0.299034 l 0.04134,-0.228754 h 0.564995 z"
     id="text29"
     aria-label="G" /><path
     style="font-style:italic;font-size:2.82222px;font-family:Menlo;-inkscape-font-specification:'Menlo Italic';text-align:end;text-anchor:end;fill:#ffffff;stroke-width:0.352778;stroke-linejoin:round"
     d="m 63.395058,80.463847 q -0.115755,0.0565 -0.234266,0.08406 -0.117133,0.02894 -0.242534,0.02894 -0.316949,0 -0.49196,-0.183279 -0.173632,-0.183279 -0.173632,-0.514008 0,-0.303168 0.09646,-0.600824 0.09646,-0.297656 0.253559,-0.486447 0.14745,-0.179145 0.325217,-0.264583 0.177767,-0.08544 0.405143,-0.08544 0.110243,0 0.219108,0.02894 0.108865,0.02894 0.212217,0.08406 l -0.0565,0.285253 q -0.0882,-0.08682 -0.186035,-0.129535 -0.09784,-0.04272 -0.208084,-0.04272 -0.130913,0 -0.242534,0.0565 -0.111621,0.05512 -0.209462,0.169499 -0.143316,0.169498 -0.23151,0.434081 -0.08682,0.264584 -0.08682,0.530545 0,0.2384 0.107487,0.36518 0.107487,0.126779 0.310059,0.126779 0.117133,0 0.241156,-0.0441 0.125402,-0.0441 0.246669,-0.128158 z"
     id="text30"
     aria-label="C" /><path
     style="font-style:italic;font-size:2.82222px;font-family:Menlo;-inkscape-font-specification:'Menlo Italic';text-align:end;text-anchor:end;fill:#ffffff;stroke-width:0.352778;stroke-linejoin:round"
     d="m 70.936673,78.479474 h 1.211295 l -0.04548,0.234266 h -0.931553 l -0.118511,0.606336 h 0.843359 l -0.0441,0.234267 h -0.844737 l -0.191547,0.98254 h -0.279742 z"
     id="text31"
     aria-label="F" /><path
     style="font-style:italic;font-size:2.82222px;font-family:Menlo;-inkscape-font-specification:'Menlo Italic';text-align:end;text-anchor:end;fill:#ffffff;stroke-width:0.352778;stroke-linejoin:round"
     d="m 78.614955,79.554343 -0.14745,0.753786 h 0.341753 q 0.253559,0 0.387229,-0.119889 0.135047,-0.11989 0.135047,-0.345888 0,-0.14745 -0.09371,-0.21773 -0.09371,-0.07028 -0.290766,-0.07028 z m 0.162608,-0.846115 -0.121267,0.620116 h 0.336241 q 0.208084,0 0.326595,-0.09922 0.119889,-0.100597 0.119889,-0.275608 0,-0.129535 -0.07717,-0.187413 -0.07579,-0.05788 -0.248047,-0.05788 z m -0.234266,-0.228754 h 0.61047 q 0.279742,0 0.423058,0.110243 0.143316,0.108864 0.143316,0.321082 0,0.212218 -0.12678,0.355534 -0.126779,0.141938 -0.341753,0.169498 0.172255,0.03169 0.263205,0.14056 0.09233,0.108865 0.09233,0.279742 0,0.32246 -0.220486,0.501605 -0.219108,0.179145 -0.620117,0.179145 h -0.622873 z m 2.010556,1.882398 q 0.115755,0 0.209462,-0.06201 0.09371,-0.06201 0.157096,-0.180523 0.06752,-0.129536 0.106109,-0.289388 0.03996,-0.159852 0.03996,-0.30868 0,-0.176389 -0.07028,-0.264583 -0.0689,-0.08819 -0.208083,-0.08819 -0.114378,0 -0.209462,0.06339 -0.09371,0.06339 -0.163987,0.184657 -0.06614,0.118511 -0.106108,0.279741 -0.03996,0.159853 -0.03996,0.312815 0,0.169498 0.07304,0.261827 0.07441,0.09095 0.212218,0.09095 z m -0.144694,-1.171331 q 0.08544,-0.115755 0.198438,-0.175011 0.112999,-0.05926 0.253559,-0.05926 0.225998,0 0.351399,0.143316 0.125401,0.141938 0.125401,0.398253 0,0.199815 -0.0565,0.398253 -0.0565,0.198437 -0.155718,0.347265 -0.104731,0.158474 -0.256315,0.246669 -0.150206,0.08682 -0.321083,0.08682 -0.135048,0 -0.227376,-0.05926 -0.09095,-0.05926 -0.137804,-0.17501 l -0.03583,0.194303 h -0.254937 l 0.417546,-2.144226 h 0.254937 z"
     id="text32"
     aria-label="Bb" /><path
     style="font-style:italic;font-size:2.82222px;font-family:Menlo;-inkscape-font-specification:'Menlo Italic';text-align:end;text-anchor:end;fill:#ffffff;stroke-width:0.352778;stroke-linejoin:round"
     d="m 87.128672,78.479474 h 1.219563 l -0.04547,0.234266 h -0.942578 l -0.118511,0.609092 h 0.899858 l -0.0441,0.234267 h -0.901236 l -0.143316,0.745518 h 0.967382 l -0.04547,0.234266 H 86.72767 Z m 1.967837,1.882398 q 0.115755,0 0.209462,-0.06201 0.09371,-0.06201 0.157096,-0.180523 0.06752,-0.129536 0.106109,-0.289388 0.03996,-0.159852 0.03996,-0.30868 0,-0.176389 -0.07028,-0.264583 -0.0689,-0.08819 -0.208084,-0.08819 -0.114377,0 -0.209461,0.06339 -0.09371,0.06339 -0.163987,0.184657 -0.06615,0.118511 -0.106108,0.279741 -0.03996,0.159853 -0.03996,0.312815 0,0.169498 0.07304,0.261827 0.07441,0.09095 0.212218,0.09095 z m -0.144694,-1.171331 q 0.08544,-0.115755 0.198438,-0.175011 0.112999,-0.05926 0.253558,-0.05926 0.225999,0 0.3514,0.143316 0.125401,0.141938 0.125401,0.398253 0,0.199815 -0.0565,0.398253 -0.0565,0.198437 -0.155718,0.347265 -0.104731,0.158474 -0.256315,0.246669 -0.150206,0.08682 -0.321083,0.08682 -0.135048,0 -0.227376,-0.05926 -0.09095,-0.05926 -0.137804,-0.17501 l -0.03583,0.194303 h -0.254937 l 0.417546,-2.144226 h 0.254936 z"
     id="text33"
     aria-label="Eb" /><path
     style="font-style:italic;font-size:2.82222px;font-family:Menlo;-inkscape-font-specification:'Menlo Italic';text-align:end;text-anchor:end;fill:#ffffff;stroke-width:0.352778;stroke-linejoin:round"
     d="m 29.676596,54.424748 -0.501605,1.066601 h 0.592556 z m -0.132291,-0.23151 h 0.338997 l 0.228754,2.057409 h -0.276985 l -0.04823,-0.536056 h -0.716579 l -0.253559,0.536056 h -0.299036 z"
     id="text34"
     aria-label="A" /><path
     style="font-style:italic;font-size:2.82222px;font-family:Menlo;-inkscape-font-specification:'Menlo Italic';text-align:end;text-anchor:end;fill:#ffffff;stroke-width:0.352778;stroke-linejoin:round"
     d="m 37.552177,56.021893 q 0.254937,0 0.409277,-0.08544 0.15434,-0.08682 0.248046,-0.28112 0.07441,-0.158474 0.121268,-0.377582 0.04823,-0.220486 0.04823,-0.403765 0,-0.242534 -0.112999,-0.347265 Q 38.153,54.42199 37.887039,54.42199 h -0.157097 l -0.311436,1.599901 z m 0.361045,-1.828655 q 0.376205,0 0.56224,0.170876 0.187413,0.170877 0.187413,0.518142 0,0.223242 -0.05788,0.460265 -0.05788,0.237022 -0.155718,0.420301 -0.143316,0.263205 -0.35829,0.376204 -0.213596,0.111621 -0.578775,0.111621 h -0.417546 l 0.401009,-2.057409 z"
     id="text35"
     aria-label="D" /><path
     style="font-style:italic;font-size:2.82222px;font-family:Menlo;-inkscape-font-specification:'Menlo Italic';text-align:end;text-anchor:end;fill:#ffffff;stroke-width:0.352778;stroke-linejoin:round"
     d="m 46.785497,56.118356 q -0.119889,0.08544 -0.261827,0.129535 -0.141938,0.04272 -0.303168,0.04272 -0.319705,0 -0.49196,-0.184657 -0.170876,-0.186035 -0.170876,-0.529166 0,-0.124023 0.02205,-0.263205 0.02343,-0.14056 0.06752,-0.293522 0.04823,-0.16123 0.112999,-0.290766 0.06477,-0.130913 0.141938,-0.223242 0.14745,-0.179145 0.325217,-0.264583 0.179145,-0.08544 0.407899,-0.08544 0.110243,0 0.219108,0.02894 0.110243,0.02894 0.216352,0.08406 l -0.0565,0.285253 q -0.08957,-0.08682 -0.188791,-0.129535 -0.09784,-0.04272 -0.209462,-0.04272 -0.135047,0 -0.253559,0.05788 -0.118511,0.0565 -0.212217,0.168121 -0.06063,0.07166 -0.114377,0.179145 -0.05374,0.107487 -0.09508,0.241156 -0.04685,0.157096 -0.07166,0.2949 -0.02343,0.137804 -0.02343,0.249425 0,0.235644 0.108864,0.363802 0.108865,0.128157 0.308681,0.128157 0.09371,0 0.16812,-0.0248 0.07441,-0.02618 0.125402,-0.07441 l 0.104731,-0.541569 h -0.299035 l 0.04134,-0.228754 h 0.564995 z"
     id="text36"
     aria-label="G" /><path
     style="font-style:italic;font-size:2.82222px;font-family:Menlo;-inkscape-font-specification:'Menlo Italic';text-align:end;text-anchor:end;fill:#ffffff;stroke-width:0.352778;stroke-linejoin:round"
     d="m 55.09306,56.177611 q -0.115755,0.0565 -0.234266,0.08406 -0.117133,0.02894 -0.242535,0.02894 -0.316948,0 -0.491959,-0.183279 -0.173633,-0.18328 -0.173633,-0.514009 0,-0.303168 0.09646,-0.600824 0.09646,-0.297656 0.253559,-0.486447 0.14745,-0.179145 0.325217,-0.264583 0.177766,-0.08544 0.405143,-0.08544 0.110243,0 0.219107,0.02894 0.108865,0.02894 0.212218,0.08406 l -0.0565,0.285253 q -0.08819,-0.08682 -0.186035,-0.129535 -0.09784,-0.04272 -0.208084,-0.04272 -0.130913,0 -0.242534,0.0565 -0.111621,0.05512 -0.209462,0.169499 -0.143316,0.169498 -0.23151,0.434082 -0.08682,0.264583 -0.08682,0.530544 0,0.2384 0.107487,0.36518 0.107487,0.126779 0.310059,0.126779 0.117133,0 0.241156,-0.0441 0.125401,-0.0441 0.246669,-0.128157 z"
     id="text37"
     aria-label="C" /><path
     style="font-style:italic;font-size:2.82222px;font-family:Menlo;-inkscape-font-specification:'Menlo Italic';text-align:end;text-anchor:end;fill:#ffffff;stroke-width:0.352778;stroke-linejoin:round"
     d="m 62.834676,54.193238 h 1.211294 l -0.04548,0.234266 h -0.931553 l -0.118511,0.606336 h 0.843358 l -0.0441,0.234267 h -0.844736 l -0.191548,0.98254 h -0.279733 z"
     id="text38"
     aria-label="F" /><path
     style="font-style:italic;font-size:2.82222px;font-family:Menlo;-inkscape-font-specification:'Menlo Italic';text-align:end;text-anchor:end;fill:#ffffff;stroke-width:0.352778;stroke-linejoin:round"
     d="m 70.613955,55.268107 -0.147449,0.753786 h 0.341753 q 0.253559,0 0.387228,-0.119889 0.135048,-0.119889 0.135048,-0.345888 0,-0.147449 -0.09371,-0.217729 -0.09371,-0.07028 -0.290766,-0.07028 z m 0.162609,-0.846115 -0.121267,0.620117 h 0.336241 q 0.208083,0 0.326594,-0.09922 0.11989,-0.100597 0.11989,-0.275607 0,-0.129536 -0.07717,-0.187414 -0.07579,-0.05788 -0.248047,-0.05788 z m -0.234266,-0.228754 h 0.61047 q 0.279742,0 0.423057,0.110243 0.143316,0.108865 0.143316,0.321082 0,0.212218 -0.126779,0.355534 -0.12678,0.141938 -0.341753,0.169499 0.172254,0.03169 0.263205,0.140559 0.09233,0.108865 0.09233,0.279742 0,0.322461 -0.220486,0.501605 -0.219108,0.179145 -0.620116,0.179145 h -0.622875 z m 2.010556,1.882398 q 0.115755,0 0.209461,-0.06201 0.09371,-0.06201 0.157097,-0.180523 0.06752,-0.129536 0.106109,-0.289388 0.03996,-0.159852 0.03996,-0.30868 0,-0.176389 -0.07028,-0.264583 -0.0689,-0.08819 -0.208084,-0.08819 -0.114377,0 -0.209462,0.06339 -0.09371,0.06339 -0.163986,0.184657 -0.06615,0.118511 -0.106109,0.279742 -0.03996,0.159852 -0.03996,0.312814 0,0.169499 0.07304,0.261827 0.07441,0.09095 0.212218,0.09095 z M 72.40816,54.904305 q 0.08544,-0.115755 0.198437,-0.175011 0.112999,-0.05926 0.253559,-0.05926 0.225998,0 0.3514,0.143315 0.125401,0.141938 0.125401,0.398253 0,0.199816 -0.0565,0.398253 -0.0565,0.198437 -0.155718,0.347265 -0.104731,0.158475 -0.256315,0.246669 -0.150206,0.08682 -0.321082,0.08682 -0.135048,0 -0.227377,-0.05926 -0.09095,-0.05926 -0.137803,-0.175011 l -0.03583,0.194303 h -0.254937 l 0.417545,-2.144226 h 0.254937 z"
     id="text39"
     aria-label="Bb" /><path
     style="font-style:italic;font-size:2.82222px;font-family:Menlo;-inkscape-font-specification:'Menlo Italic';text-align:end;text-anchor:end;fill:#ffffff;stroke-width:0.352778;stroke-linejoin:round"
     d="m 79.026934,54.193238 h 1.219563 l -0.04547,0.234266 h -0.942578 l -0.118511,0.609092 h 0.899858 l -0.0441,0.234267 H 79.09446 l -0.143316,0.745518 h 0.967382 l -0.04547,0.234266 h -1.247124 z m 1.967837,1.882398 q 0.115755,0 0.209462,-0.06201 0.09371,-0.06201 0.157096,-0.180523 0.06752,-0.129536 0.106109,-0.289388 0.03996,-0.159852 0.03996,-0.30868 0,-0.176389 -0.07028,-0.264583 -0.0689,-0.08819 -0.208083,-0.08819 -0.114378,0 -0.209462,0.06339 -0.09371,0.06339 -0.163987,0.184657 -0.06615,0.118511 -0.106108,0.279742 -0.03996,0.159852 -0.03996,0.312814 0,0.169499 0.07304,0.261827 0.07441,0.09095 0.212218,0.09095 z m -0.144694,-1.171331 q 0.08544,-0.115755 0.198438,-0.175011 0.112999,-0.05926 0.253558,-0.05926 0.225999,0 0.3514,0.143315 0.125401,0.141938 0.125401,0.398253 0,0.199816 -0.0565,0.398253 -0.0565,0.198437 -0.155718,0.347265 -0.104731,0.158475 -0.256315,0.246669 -0.150206,0.08682 -0.321083,0.08682 -0.135048,0 -0.227376,-0.05926 -0.09095,-0.05926 -0.137804,-0.175011 l -0.03583,0.194303 h -0.254937 l 0.417546,-2.144226 h 0.254936 z"
     id="text40"
     aria-label="Eb" /><path
     style="font-style:italic;font-size:2.82222px;font-family:Menlo;-inkscape-font-specification:'Menlo Italic';text-align:end;text-anchor:end;fill:#ffffff;stroke-width:0.352778;stroke-linejoin:round"
     d="m 83.20155,66.231453 -0.501606,1.066601 H 83.2925 Z m -0.132292,-0.23151 h 0.338997 l 0.228755,2.05741 h -0.276986 l -0.04823,-0.536057 h -0.71658 l -0.253558,0.536057 h -0.299034 z m 1.561316,1.882399 q 0.115755,0 0.209462,-0.06201 0.09371,-0.06201 0.157096,-0.180523 0.06752,-0.129535 0.106109,-0.289387 0.03996,-0.159853 0.03996,-0.308681 0,-0.176388 -0.07028,-0.264583 -0.0689,-0.08819 -0.208083,-0.08819 -0.114377,0 -0.209462,0.06339 -0.09371,0.06339 -0.163986,0.184656 -0.06615,0.118512 -0.106109,0.279742 -0.03996,0.159852 -0.03996,0.312814 0,0.169499 0.07304,0.261828 0.07441,0.09095 0.212217,0.09095 z M 84.48588,66.71101 q 0.08544,-0.115755 0.198438,-0.17501 0.112999,-0.05926 0.253559,-0.05926 0.225998,0 0.351399,0.143316 0.125401,0.141938 0.125401,0.398253 0,0.199815 -0.0565,0.398252 -0.0565,0.198438 -0.155718,0.347266 -0.104731,0.158474 -0.256315,0.246668 -0.150206,0.08682 -0.321083,0.08682 -0.135047,0 -0.227376,-0.05926 -0.09095,-0.05926 -0.137804,-0.175011 l -0.03583,0.194304 h -0.254936 l 0.417545,-2.144226 h 0.254937 z m 1.416623,-0.711067 h 0.370692 l 0.151584,1.041796 0.570507,-1.041796 h 0.37207 l -0.401009,2.05741 h -0.256315 l 0.355534,-1.828656 -0.598068,1.09554 h -0.194303 l -0.158475,-1.09554 -0.352777,1.828656 h -0.256315 z"
     id="text51"
     aria-label="AbM"
     inkscape:label="text51" /><path
     style="font-style:italic;font-size:3.175px;font-family:Menlo;-inkscape-font-specification:'Menlo Italic';text-align:end;text-anchor:end;fill:#ffffff;stroke-width:0.352778;stroke-linejoin:round"
     d="m 76.359729,108.9361 v -0.41703 l 1.172022,-0.17053 -1.172022,-0.64182 v -0.41858 l 2.314587,0.45113 v 0.28836 l -2.057238,-0.39998 1.232483,0.67283 v 0.21859 l -1.232483,0.17829 2.057238,0.39687 v 0.28836 z m 1.42627,-1.73478 -1.42627,-0.27595 v -0.31471 l 1.42627,0.2775 q 0.02015,0.003 0.06356,0.0124 0.238745,0.0465 0.330212,0.0465 0.142627,0 0.21394,-0.0837 0.07131,-0.0853 0.07131,-0.2558 0,-0.13798 -0.04341,-0.23409 -0.04496,-0.0961 -0.141077,-0.16588 -0.04806,-0.0341 -0.164331,-0.0682 -0.117822,-0.0357 -0.330212,-0.0775 l -1.42627,-0.27595 v -0.31471 l 1.42627,0.27595 q 0.339514,0.0651 0.499194,0.13952 0.15813,0.0729 0.255798,0.19379 0.08682,0.11007 0.133325,0.25115 0.04496,0.14108 0.04496,0.30541 0,0.29765 -0.139526,0.45888 -0.139527,0.15968 -0.396875,0.15968 -0.05736,0 -0.15503,-0.0124 -0.09767,-0.0139 -0.241845,-0.0419 z m -1.42627,-2.03243 v -1.76734 l 0.26355,0.0512 v 0.72709 l 2.051037,0.39688 v 0.31626 L 76.623279,104.493 v 0.72709 z m 0,-2.14561 v -1.37201 l 0.26355,0.0512 v 1.0604 l 0.685229,0.13333 v -1.01234 l 0.26355,0.0496 v 1.01389 l 0.838709,0.16123 v -1.08831 l 0.263549,0.0512 v 1.40302 z"
     id="text56"
     aria-label="MUTE" /><path
     style="fill:none;fill-opacity:1;stroke:#d08c59;stroke-width:0.353;stroke-linecap:butt;stroke-linejoin:round;stroke-dasharray:none;stroke-opacity:1;paint-order:normal"
     d="m 81.3705,99.812 v 23.31216"
     id="path56" /><path
     style="font-style:italic;font-size:2.46944px;font-family:Menlo;-inkscape-font-specification:'Menlo Italic';text-align:end;text-anchor:end;fill:#ffffff;stroke-width:0.353;stroke-linejoin:round"
     d="m 8.5998422,85.170148 q -0.1012856,0.04944 -0.2049828,0.07355 -0.1024914,0.02532 -0.2122175,0.02532 -0.2773297,0 -0.4304639,-0.160369 -0.1519284,-0.160369 -0.1519284,-0.449756 0,-0.265272 0.084405,-0.525721 0.084405,-0.260448 0.2218637,-0.42564 0.1290186,-0.156752 0.2845644,-0.23151 0.1555458,-0.07476 0.3544997,-0.07476 0.096463,0 0.1917192,0.02532 0.095257,0.02532 0.1856903,0.07355 l -0.049437,0.249597 q -0.07717,-0.07596 -0.1627805,-0.113344 -0.085611,-0.03738 -0.182073,-0.03738 -0.1145492,0 -0.2122175,0.04944 -0.097668,0.04823 -0.1832787,0.148311 -0.1254013,0.148311 -0.2025713,0.379821 -0.075964,0.23151 -0.075964,0.464226 0,0.2086 0.094051,0.319532 0.094051,0.110932 0.2713008,0.110932 0.1024914,0 0.2110117,-0.03858 0.1097261,-0.03859 0.2158349,-0.112138 z m 0.6897069,-1.736325 h 0.2435678 l -0.1422821,0.737938 h 0.6667972 l 0.142282,-0.737938 h 0.244774 l -0.350883,1.800232 H 9.8502374 L 10.017841,84.376744 H 9.3486324 l -0.165192,0.857311 H 8.9386668 Z m 1.7507949,1.637451 q 0.102491,0 0.189308,-0.0615 0.08682,-0.06149 0.143488,-0.176044 0.08923,-0.174838 0.144693,-0.423229 0.05547,-0.248391 0.05547,-0.477489 0,-0.171221 -0.06391,-0.252009 -0.0627,-0.08199 -0.195336,-0.08199 -0.102491,0 -0.188102,0.0615 -0.08561,0.06149 -0.142282,0.176044 -0.09164,0.17725 -0.147106,0.423229 -0.05547,0.24598 -0.05547,0.475078 0,0.172427 0.0627,0.25442 0.06391,0.08199 0.196542,0.08199 z m 0.782552,-1.067116 q 0,0.132636 -0.02773,0.288181 -0.02653,0.155546 -0.07837,0.319532 -0.03497,0.110932 -0.07597,0.198954 -0.03979,0.08802 -0.08682,0.159163 -0.106109,0.153135 -0.237539,0.226687 -0.13143,0.07235 -0.306269,0.07235 -0.242362,0 -0.359323,-0.148311 -0.116959,-0.148314 -0.116959,-0.456994 0,-0.133842 0.02532,-0.286976 0.02653,-0.15434 0.07838,-0.318326 0.03497,-0.110932 0.07476,-0.198954 0.041,-0.08802 0.08802,-0.159163 0.106108,-0.153134 0.237539,-0.225481 0.13143,-0.07355 0.306268,-0.07355 0.243568,0 0.360529,0.148311 0.118166,0.147105 0.118166,0.45458 z m 1.022503,0.379821 q 0.08682,0.01688 0.138665,0.08079 0.05305,0.06391 0.118167,0.27733 l 0.145899,0.491959 h -0.242362 l -0.127813,-0.45458 q -0.05305,-0.188102 -0.119372,-0.247185 -0.06511,-0.05908 -0.197748,-0.05908 h -0.23151 l -0.148311,0.760848 H 11.93624 l 0.348471,-1.800232 h 0.501605 q 0.249597,0 0.38585,0.10852 0.137459,0.107315 0.137459,0.303857 0,0.220658 -0.125401,0.365352 -0.124196,0.144694 -0.338825,0.172427 z m -0.353294,-0.749996 -0.122989,0.639064 h 0.264066 q 0.196542,0 0.313503,-0.102491 0.118166,-0.103698 0.118166,-0.274919 0,-0.135047 -0.07596,-0.197748 -0.07596,-0.06391 -0.23995,-0.06391 z m 1.307067,1.399912 q 0.22307,0 0.358117,-0.07476 0.135048,-0.07596 0.217041,-0.245979 0.06511,-0.138665 0.106108,-0.330384 0.0422,-0.192925 0.0422,-0.353294 0,-0.212217 -0.09887,-0.303857 -0.09887,-0.09164 -0.33159,-0.09164 h -0.137459 l -0.272507,1.399912 z m 0.315915,-1.600072 q 0.329178,0 0.491958,0.149517 0.163987,0.149517 0.163987,0.453374 0,0.195336 -0.05064,0.402731 -0.05064,0.207394 -0.136253,0.367763 -0.125402,0.230304 -0.313504,0.329178 -0.186896,0.09767 -0.506428,0.09767 h -0.365351 l 0.350882,-1.800232 z m 2.706979,0.94051 -0.129019,0.659562 h 0.299034 q 0.221864,0 0.338825,-0.104903 0.118166,-0.104903 0.118166,-0.302651 0,-0.129019 -0.08199,-0.190514 -0.08199,-0.06149 -0.25442,-0.06149 z m 0.142282,-0.74035 -0.106109,0.542601 h 0.294211 q 0.182073,0 0.28577,-0.08682 0.104903,-0.08802 0.104903,-0.241156 0,-0.113344 -0.06752,-0.163986 -0.06632,-0.05064 -0.21704,-0.05064 z m -0.204983,-0.20016 h 0.534161 q 0.244774,0 0.370175,0.09646 0.125401,0.09526 0.125401,0.280947 0,0.18569 -0.110931,0.311091 -0.110932,0.124196 -0.299034,0.148311 0.150722,0.02773 0.230304,0.12299 0.08079,0.09526 0.08079,0.244774 0,0.282152 -0.192925,0.438904 -0.191719,0.156752 -0.542601,0.156752 h -0.545013 z m 1.995568,0.202571 -0.438905,0.933275 h 0.518486 z M 18.639178,83.433823 H 18.9358 l 0.20016,1.800232 h -0.242363 l -0.0422,-0.469049 h -0.627006 l -0.221864,0.469049 h -0.261656 z m 1.059882,0 h 0.30868 l 0.318326,1.481905 0.288182,-1.481905 h 0.235127 l -0.350882,1.800232 h -0.30868 l -0.318327,-1.481906 -0.289387,1.481906 h -0.233922 z m 1.484317,0 h 0.243568 l -0.153135,0.780141 0.89469,-0.780141 h 0.306269 l -0.847665,0.746379 0.516075,1.053853 h -0.264066 l -0.434082,-0.893484 -0.232715,0.202571 -0.135048,0.690913 h -0.244773 z"
     id="text57"
     aria-label="CHORD BANK" /><g
     id="g6"
     transform="translate(0,0.52916667)"><path
       id="path401"
       serif:id="path40"
       d="m 14.957539,15.684335 -0.811061,-0.202413 0.201709,-0.812469"
       style="clip-rule:evenodd;fill:none;fill-rule:evenodd;stroke:#d08c59;stroke-width:0.246416px;stroke-linecap:butt;stroke-linejoin:miter;stroke-miterlimit:10" /><path
       id="path411"
       serif:id="path41"
       d="M 5.6331487,15.165805 C 3.7515847,13.799251 2.5297122,11.596994 2.5297122,9.1145265 c 0,-4.142257 3.4033603,-7.5051347 7.5956048,-7.5051347 4.192244,0 7.595956,3.3628777 7.595956,7.5051347 0,2.1350205 -0.904347,4.0630515 -2.354683,5.4303095 -0.372792,0.351319 -0.781491,0.666028 -1.220112,0.937086"
       style="clip-rule:evenodd;fill:none;fill-rule:evenodd;stroke:#d08c59;stroke-width:0.246416px;stroke-linecap:butt;stroke-linejoin:round;stroke-miterlimit:1.5" /><path
       d="m 5.5254299,15.056315 -1.055718,1.490818"
       style="clip-rule:evenodd;fill:none;fill-rule:evenodd;stroke:#d08c59;stroke-width:0.264017px;stroke-linecap:square;stroke-linejoin:round;stroke-miterlimit:1.5"
       id="path67" /></g><g
     id="g7"><path
       id="path57"
       serif:id="path40"
       d="M 96.216511,16.213502 95.40545,16.011089 95.607159,15.19862"
       style="clip-rule:evenodd;fill:none;fill-rule:evenodd;stroke:#d08c59;stroke-width:0.246416px;stroke-linecap:butt;stroke-linejoin:miter;stroke-miterlimit:10" /><path
       id="path58"
       serif:id="path41"
       d="m 86.892121,15.694972 c -1.881564,-1.366554 -3.103437,-3.568811 -3.103437,-6.0512785 0,-4.142257 3.403361,-7.5051347 7.595605,-7.5051347 4.192244,0 7.595957,3.3628777 7.595957,7.5051347 0,2.1350205 -0.904348,4.0630515 -2.354684,5.4303095 -0.372792,0.351319 -0.781491,0.666028 -1.220112,0.937086"
       style="clip-rule:evenodd;fill:none;fill-rule:evenodd;stroke:#d08c59;stroke-width:0.246416px;stroke-linecap:butt;stroke-linejoin:round;stroke-miterlimit:1.5" /><path
       d="M 86.784402,15.585482 85.728684,17.0763"
       style="clip-rule:evenodd;fill:none;fill-rule:evenodd;stroke:#d08c59;stroke-width:0.264017px;stroke-linecap:square;stroke-linejoin:round;stroke-miterlimit:1.5"
       id="path59" /></g><path
     id="path60"
     serif:id="path40"
     d="m 14.957539,46.80651 -0.811061,-0.202413 0.201709,-0.812469"
     style="clip-rule:evenodd;fill:none;fill-rule:evenodd;stroke:#d08c59;stroke-width:0.246416px;stroke-linecap:butt;stroke-linejoin:miter;stroke-miterlimit:10" /><path
     id="path61"
     serif:id="path41"
     d="m 5.6331487,46.28798 c -1.881564,-1.366554 -3.1034365,-3.568811 -3.1034365,-6.051279 0,-4.142257 3.4033603,-7.505134 7.5956048,-7.505134 4.192244,0 7.595956,3.362877 7.595956,7.505134 0,2.135021 -0.904347,4.063052 -2.354683,5.43031 -0.372792,0.351319 -0.781491,0.666028 -1.220112,0.937086"
     style="clip-rule:evenodd;fill:none;fill-rule:evenodd;stroke:#d08c59;stroke-width:0.246416px;stroke-linecap:butt;stroke-linejoin:round;stroke-miterlimit:1.5" /><path
     d="m 6.0545966,46.707657 -1.055718,1.490818"
     style="clip-rule:evenodd;fill:none;fill-rule:evenodd;stroke:#d08c59;stroke-width:0.264017px;stroke-linecap:square;stroke-linejoin:round;stroke-miterlimit:1.5"
     id="path62" /><path
     style="font-style:italic;font-size:2.46944px;font-family:Menlo;-inkscape-font-specification:'Menlo Italic';text-align:end;text-anchor:end;fill:#ffffff;stroke-width:0.353;stroke-linejoin:round"
     d="m 9.4346243,79.798028 h 1.0007987 l -0.03979,0.204982 h -0.378615 l -0.2688895,1.390266 h 0.3786155 l -0.03979,0.204983 H 9.0861536 l 0.039791,-0.204983 H 9.5033539 L 9.7734489,80.00301 H 9.3948336 Z"
     id="text2"
     aria-label="I" /><path
     style="font-style:italic;font-size:2.46944px;font-family:Menlo;-inkscape-font-specification:'Menlo Italic';text-align:end;text-anchor:end;fill:#ffffff;stroke-width:0.353;stroke-linejoin:round"
     d="M 19.138402,79.798028 H 20.1392 l -0.03979,0.204982 h -0.378616 l -0.268889,1.390266 h 0.378615 l -0.03979,0.204983 h -1.000799 l 0.03979,-0.204983 h 0.37741 l 0.270095,-1.390266 h -0.378616 z m 1.486728,0 h 1.000799 l -0.03979,0.204982 h -0.378615 l -0.26889,1.390266 h 0.378616 l -0.03979,0.204983 H 20.27666 l 0.03979,-0.204983 h 0.37741 L 20.963955,80.00301 H 20.58534 Z"
     id="text3"
     aria-label="II" /><path
     style="font-style:italic;font-size:2.46944px;font-family:Menlo;-inkscape-font-specification:'Menlo Italic';text-align:end;text-anchor:end;fill:#ffffff;stroke-width:0.353;stroke-linejoin:round"
     d="m 86.212797,109.2027 h 1.374591 l -0.03979,0.20498 h -0.565512 l -0.30868,1.59525 h -0.245979 l 0.311092,-1.59525 h -0.565512 z m 2.177641,0.95015 q 0.08682,0.0169 0.138665,0.0808 0.05305,0.0639 0.118166,0.27733 l 0.1459,0.49196 h -0.242362 l -0.127813,-0.45458 q -0.05305,-0.1881 -0.119372,-0.24718 -0.06511,-0.0591 -0.197748,-0.0591 h -0.23151 l -0.148311,0.76085 h -0.244774 l 0.348471,-1.80023 h 0.501605 q 0.249596,0 0.38585,0.10852 0.137459,0.10731 0.137459,0.30386 0,0.22065 -0.125401,0.36535 -0.124196,0.14469 -0.338825,0.17242 z m -0.353294,-0.74999 -0.12299,0.63906 h 0.264066 q 0.196543,0 0.313504,-0.10249 0.118166,-0.1037 0.118166,-0.27492 0,-0.13504 -0.07596,-0.19775 -0.07596,-0.0639 -0.239951,-0.0639 z m 1.333594,-0.20016 h 1.000799 l -0.03979,0.20498 h -0.378615 l -0.26889,1.39027 h 0.378616 l -0.03979,0.20498 h -1.000799 l 0.03979,-0.20498 h 0.37741 l 0.270095,-1.39027 h -0.378616 z m 2.23793,1.68447 q -0.104903,0.0748 -0.229098,0.11335 -0.124196,0.0374 -0.265272,0.0374 -0.279741,0 -0.430464,-0.16158 -0.149517,-0.16278 -0.149517,-0.46302 0,-0.10852 0.01929,-0.2303 0.0205,-0.12299 0.05908,-0.25683 0.0422,-0.14108 0.09887,-0.25442 0.05667,-0.11455 0.124196,-0.19534 0.129018,-0.15675 0.284564,-0.23151 0.156751,-0.0748 0.356911,-0.0748 0.09646,0 0.191719,0.0253 0.09646,0.0253 0.189308,0.0736 l -0.04944,0.24959 q -0.07838,-0.076 -0.165192,-0.11334 -0.08561,-0.0374 -0.183279,-0.0374 -0.118166,0 -0.221864,0.0506 -0.103697,0.0494 -0.18569,0.14711 -0.05305,0.0627 -0.10008,0.15675 -0.04703,0.094 -0.0832,0.21101 -0.041,0.13746 -0.0627,0.25804 -0.0205,0.12058 -0.0205,0.21825 0,0.20618 0.09526,0.31832 0.09526,0.11214 0.270095,0.11214 0.08199,0 0.147106,-0.0217 0.06511,-0.0229 0.109726,-0.0651 l 0.09164,-0.47387 h -0.261655 l 0.03617,-0.20016 h 0.49437 z"
     id="text4"
     aria-label="TRIG" /><path
     style="font-style:italic;font-size:2.46944px;font-family:Menlo;-inkscape-font-specification:'Menlo Italic';text-align:end;text-anchor:end;fill:#ffffff;stroke-width:0.353;stroke-linejoin:round"
     d="m 86.90371,121.11504 q 0.08682,0.0169 0.138665,0.0808 0.05305,0.0639 0.118166,0.27733 l 0.1459,0.49196 h -0.242362 l -0.127813,-0.45458 q -0.05306,-0.1881 -0.119373,-0.24719 -0.06511,-0.0591 -0.197748,-0.0591 h -0.23151 l -0.148311,0.76085 h -0.244773 l 0.34847,-1.80023 h 0.501605 q 0.249597,0 0.38585,0.10852 0.137459,0.10731 0.137459,0.30385 0,0.22066 -0.125401,0.36536 -0.124195,0.14469 -0.338824,0.17242 z m -0.353294,-0.74999 -0.12299,0.63906 h 0.264066 q 0.196543,0 0.313503,-0.10249 0.118167,-0.1037 0.118167,-0.27492 0,-0.13505 -0.07596,-0.19775 -0.07596,-0.0639 -0.239951,-0.0639 z m 1.521696,1.43729 q 0.102491,0 0.189307,-0.0615 0.08682,-0.0615 0.143488,-0.17604 0.08923,-0.17484 0.144694,-0.42323 0.05547,-0.24839 0.05547,-0.47749 0,-0.17122 -0.06391,-0.25201 -0.0627,-0.082 -0.195337,-0.082 -0.102491,0 -0.188102,0.0615 -0.08561,0.0615 -0.142282,0.17605 -0.09164,0.17725 -0.147105,0.42323 -0.05547,0.24598 -0.05547,0.47507 0,0.17243 0.0627,0.25442 0.06391,0.082 0.196543,0.082 z m 0.782552,-1.06712 q 0,0.13264 -0.02773,0.28818 -0.02653,0.15555 -0.07838,0.31954 -0.03497,0.11093 -0.07596,0.19895 -0.03979,0.088 -0.08682,0.15916 -0.106109,0.15314 -0.237539,0.22669 -0.131431,0.0724 -0.306269,0.0724 -0.242362,0 -0.359323,-0.14832 -0.11696,-0.14831 -0.11696,-0.45699 0,-0.13384 0.02532,-0.28697 0.02653,-0.15434 0.07838,-0.31833 0.03497,-0.11093 0.07476,-0.19895 0.041,-0.088 0.08802,-0.15917 0.106109,-0.15313 0.237539,-0.22548 0.13143,-0.0735 0.306269,-0.0735 0.243567,0 0.360528,0.14831 0.118167,0.14711 0.118167,0.45458 z m 0.704176,1.06712 q 0.102491,0 0.189308,-0.0615 0.08682,-0.0615 0.143488,-0.17604 0.08923,-0.17484 0.144693,-0.42323 0.05547,-0.24839 0.05547,-0.47749 0,-0.17122 -0.06391,-0.25201 -0.0627,-0.082 -0.195337,-0.082 -0.102491,0 -0.188101,0.0615 -0.08561,0.0615 -0.142283,0.17605 -0.09164,0.17725 -0.147105,0.42323 -0.05547,0.24598 -0.05547,0.47507 0,0.17243 0.0627,0.25442 0.06391,0.082 0.196542,0.082 z m 0.782552,-1.06712 q 0,0.13264 -0.02773,0.28818 -0.02653,0.15555 -0.07838,0.31954 -0.03497,0.11093 -0.07596,0.19895 -0.03979,0.088 -0.08682,0.15916 -0.106109,0.15314 -0.237539,0.22669 -0.13143,0.0724 -0.306268,0.0724 -0.242363,0 -0.359323,-0.14832 -0.116961,-0.14831 -0.116961,-0.45699 0,-0.13384 0.02532,-0.28697 0.02653,-0.15434 0.07838,-0.31833 0.03497,-0.11093 0.07476,-0.19895 0.041,-0.088 0.08802,-0.15917 0.106108,-0.15313 0.237538,-0.22548 0.131431,-0.0735 0.306269,-0.0735 0.243568,0 0.360529,0.14831 0.118166,0.14711 0.118166,0.45458 z m 0.33159,-0.57033 h 1.374591 l -0.03979,0.20498 h -0.565511 l -0.30868,1.59525 h -0.24598 l 0.311092,-1.59525 h -0.565512 z"
     id="text5"
     aria-label="ROOT" /><path
     style="font-style:italic;font-size:2.46944px;font-family:Menlo;-inkscape-font-specification:'Menlo Italic';text-align:end;text-anchor:end;fill:#ffffff;stroke-width:0.353;stroke-linejoin:round"
     d="m 35.299,121.73602 0.721057,-1.57113 H 36.2793 l -0.866957,1.80023 h -0.311091 l -0.17725,-1.80023 h 0.238744 z m 0.891072,0.4582 1.027326,-2.02933 h 0.230304 l -1.029737,2.02933 z m 2.072738,-0.39188 q 0.102491,0 0.189308,-0.0615 0.08682,-0.0615 0.143488,-0.17604 0.08923,-0.17484 0.144693,-0.42323 0.05547,-0.24839 0.05547,-0.47749 0,-0.17122 -0.06391,-0.25201 -0.0627,-0.082 -0.195337,-0.082 -0.102491,0 -0.188101,0.0615 -0.08561,0.0615 -0.142283,0.17605 -0.09164,0.17725 -0.147105,0.42323 -0.05547,0.24598 -0.05547,0.47507 0,0.17243 0.0627,0.25442 0.06391,0.082 0.196542,0.082 z m 0.782552,-1.06712 q 0,0.13264 -0.02773,0.28818 -0.02653,0.15555 -0.07838,0.31954 -0.03497,0.11093 -0.07596,0.19895 -0.03979,0.088 -0.08682,0.15916 -0.106109,0.15314 -0.237539,0.22669 -0.13143,0.0724 -0.306268,0.0724 -0.242362,0 -0.359323,-0.14832 -0.116961,-0.14831 -0.116961,-0.45699 0,-0.13384 0.02532,-0.28697 0.02653,-0.15434 0.07838,-0.31833 0.03497,-0.11093 0.07476,-0.19895 0.041,-0.088 0.08802,-0.15917 0.106108,-0.15313 0.237539,-0.22548 0.13143,-0.0735 0.306268,-0.0735 0.243568,0 0.360529,0.14831 0.118166,0.14711 0.118166,0.45458 z m 1.237132,1.16599 q -0.101286,0.0494 -0.204983,0.0735 -0.102491,0.0253 -0.212217,0.0253 -0.27733,0 -0.430464,-0.16037 -0.151929,-0.16037 -0.151929,-0.44976 0,-0.26527 0.0844,-0.52572 0.08441,-0.26045 0.221864,-0.42564 0.129018,-0.15675 0.284564,-0.23151 0.155546,-0.0748 0.3545,-0.0748 0.09646,0 0.191719,0.0253 0.09526,0.0253 0.18569,0.0735 l -0.04944,0.2496 q -0.07717,-0.076 -0.16278,-0.11334 -0.08561,-0.0374 -0.182073,-0.0374 -0.114549,0 -0.212218,0.0494 -0.09767,0.0482 -0.183279,0.14831 -0.125401,0.14831 -0.202571,0.37982 -0.07596,0.23151 -0.07596,0.46422 0,0.2086 0.09405,0.31954 0.09405,0.11093 0.271301,0.11093 0.102491,0 0.211011,-0.0386 0.109727,-0.0386 0.215835,-0.11213 z m 0.581186,-1.73632 h 1.374591 l -0.03979,0.20498 H 41.63297 l -0.30868,1.59525 h -0.24598 l 0.311092,-1.59525 H 40.82389 Z m 3.346044,1.63745 q 0.102491,0 0.189307,-0.0615 0.08682,-0.0615 0.143488,-0.17604 0.08923,-0.17484 0.144694,-0.42323 0.05547,-0.24839 0.05547,-0.47749 0,-0.17122 -0.06391,-0.25201 -0.0627,-0.082 -0.195336,-0.082 -0.102492,0 -0.188102,0.0615 -0.08561,0.0615 -0.142282,0.17605 -0.09164,0.17725 -0.147105,0.42323 -0.05547,0.24598 -0.05547,0.47507 0,0.17243 0.0627,0.25442 0.06391,0.082 0.196543,0.082 z m 0.782552,-1.06712 q 0,0.13264 -0.02773,0.28818 -0.02653,0.15555 -0.07838,0.31954 -0.03497,0.11093 -0.07596,0.19895 -0.03979,0.088 -0.08682,0.15916 -0.106108,0.15314 -0.237539,0.22669 -0.13143,0.0724 -0.306268,0.0724 -0.242362,0 -0.359323,-0.14832 -0.116961,-0.14831 -0.116961,-0.45699 0,-0.13384 0.02532,-0.28697 0.02653,-0.15434 0.07838,-0.31833 0.03497,-0.11093 0.07476,-0.19895 0.041,-0.088 0.08802,-0.15917 0.106109,-0.15313 0.237539,-0.22548 0.13143,-0.0735 0.306268,-0.0735 0.243568,0 0.360529,0.14831 0.118167,0.14711 0.118167,0.45458 z m 0.237538,0.53899 0.214629,-1.10932 h 0.244774 l -0.215835,1.10932 q -0.0024,0.0157 -0.0096,0.0494 -0.03617,0.18569 -0.03617,0.25683 0,0.11094 0.06511,0.1664 0.06632,0.0555 0.198954,0.0555 0.107315,0 0.182073,-0.0338 0.07476,-0.035 0.129019,-0.10973 0.02653,-0.0374 0.05305,-0.12781 0.02773,-0.0916 0.06029,-0.25683 l 0.214629,-1.10932 h 0.244774 l -0.214629,1.10932 q -0.05064,0.26406 -0.108521,0.38826 -0.05667,0.12299 -0.150722,0.19895 -0.08561,0.0675 -0.195337,0.1037 -0.109726,0.035 -0.237539,0.035 -0.23151,0 -0.356911,-0.10852 -0.124195,-0.10852 -0.124195,-0.30868 0,-0.0446 0.0096,-0.12058 0.01085,-0.076 0.03256,-0.1881 z m 1.58078,-1.10932 h 1.37459 l -0.03979,0.20498 h -0.565511 l -0.30868,1.59525 h -0.245979 l 0.311091,-1.59525 h -0.565511 z"
     id="text6"
     aria-label="V/OCT OUT" /><path
     style="fill:none;stroke:#d08658;stroke-width:0.352999;stroke-linejoin:round;stroke-opacity:1;fill-opacity:1"
     d="M 10.1395,74.322915 V 66.043907"
     id="path1" /><path
     style="fill:none;stroke:#d08658;stroke-width:0.352999;stroke-linejoin:round;stroke-opacity:1;fill-opacity:1"
     d="m 20.321203,66.043907 v 8.279008"
     id="path2" /></svg>
