<?xml version="1.0" encoding="UTF-8" standalone="no"?>
<!-- Created with Inkscape (http://www.inkscape.org/) -->

<svg
   width="132.144mm"
   height="128.5mm"
   viewBox="0 0 132.14401 128.50002"
   version="1.1"
   id="svg8"
   inkscape:version="1.3.2 (091e20e, 2023-11-25)"
   sodipodi:docname="Syncro-dark.svg"
   xml:space="preserve"
   xmlns:inkscape="http://www.inkscape.org/namespaces/inkscape"
   xmlns:sodipodi="http://sodipodi.sourceforge.net/DTD/sodipodi-0.dtd"
   xmlns="http://www.w3.org/2000/svg"
   xmlns:svg="http://www.w3.org/2000/svg"
   xmlns:rdf="http://www.w3.org/1999/02/22-rdf-syntax-ns#"
   xmlns:cc="http://creativecommons.org/ns#"
   xmlns:dc="http://purl.org/dc/elements/1.1/"><defs
     id="defs2">
            
            
        
            
            
        </defs><sodipodi:namedview
     id="base"
     pagecolor="#ffffff"
     bordercolor="#666666"
     borderopacity="1.0"
     inkscape:pageopacity="0.0"
     inkscape:pageshadow="2"
     inkscape:zoom="1.3249068"
     inkscape:cx="242.65858"
     inkscape:cy="514.3758"
     inkscape:document-units="mm"
     inkscape:current-layer="text5"
     showgrid="false"
     units="mm"
     inkscape:snap-bbox="true"
     inkscape:snap-page="true"
     inkscape:bbox-nodes="false"
     inkscape:snap-bbox-edge-midpoints="false"
     inkscape:window-width="1600"
     inkscape:window-height="900"
     inkscape:window-x="176"
     inkscape:window-y="488"
     inkscape:window-maximized="0"
     inkscape:snap-bbox-midpoints="true"
     inkscape:snap-nodes="false"
     inkscape:showpageshadow="2"
     inkscape:pagecheckerboard="0"
     inkscape:deskcolor="#d1d1d1"
     showguides="false" /><metadata
     id="metadata5"><rdf:RDF><cc:Work
         rdf:about=""><dc:format>image/svg+xml</dc:format><dc:type
           rdf:resource="http://purl.org/dc/dcmitype/StillImage" /></cc:Work></rdf:RDF></metadata><g
     inkscape:label="Layer 1"
     inkscape:groupmode="layer"
     id="layer1"
     transform="translate(0,-168.49998)"
     style="display:inline"><rect
       x="-0.045016441"
       y="168.29933"
       width="132.50511"
       height="129.37991"
       style="clip-rule:evenodd;display:inline;fill:#202020;fill-opacity:1;fill-rule:evenodd;stroke:#ebebeb;stroke-width:0.0846107px;stroke-linecap:round;stroke-linejoin:round;stroke-miterlimit:1.5"
       id="rect1-0" /><g
       id="text5"
       style="font-style:italic;font-size:3.175px;font-family:Menlo;-inkscape-font-specification:'Menlo Italic';text-align:center;text-anchor:middle;fill:#ffffff;stroke-width:0.352777"
       aria-label="EXT&#10;CLOCK"><path
         style="stroke-width:0.352778"
         d="m 7.5810811,273.11476 h 1.3720093 l -0.05116,0.26355 h -1.0604 l -0.1333252,0.68523 h 1.0123413 l -0.049609,0.26355 H 7.6570455 L 7.495815,275.1658 h 1.0883057 l -0.05116,0.26355 H 7.1299459 Z m 1.7533813,0 H 9.644521 l 0.3472657,0.82476 0.6821293,-0.82476 h 0.358118 l -0.923975,1.11466 0.502295,1.19993 H 10.298745 L 9.9049702,274.48057 9.120522,275.42935 H 8.7624043 l 1.0185425,-1.23558 z m 1.8355476,0 h 1.767334 l -0.05116,0.26355 h -0.727088 l -0.396875,2.05104 h -0.316259 l 0.399975,-2.05104 H 11.11885 Z"
         id="path5" /><path
         style="stroke-width:0.352778"
         d="m 6.5997457,287.94273 q -0.1302246,0.0636 -0.2635498,0.0946 -0.1317749,0.0326 -0.2728516,0.0326 -0.3565673,0 -0.5534545,-0.20619 -0.1953369,-0.20619 -0.1953369,-0.57826 0,-0.34107 0.1085205,-0.67593 0.1085205,-0.33486 0.2852539,-0.54725 0.1658813,-0.20154 0.3658691,-0.29766 0.1999878,-0.0961 0.4557861,-0.0961 0.1240235,0 0.2464966,0.0326 0.1224731,0.0326 0.2387451,0.0946 l -0.063562,0.32091 q -0.099219,-0.0977 -0.2092895,-0.14573 -0.1100708,-0.0481 -0.2340943,-0.0481 -0.1472778,0 -0.2728515,0.0636 -0.1255738,0.062 -0.2356446,0.19069 -0.1612304,0.19069 -0.2604492,0.48834 -0.097668,0.29766 -0.097668,0.59686 0,0.26821 0.1209228,0.41083 0.1209229,0.14263 0.3488159,0.14263 0.1317749,0 0.2713013,-0.0496 0.1410767,-0.0496 0.2775024,-0.14418 z m 1.0200927,-2.23242 h 0.3131592 l -0.3999756,2.05104 h 1.1177613 l -0.05116,0.26355 H 7.1687032 Z m 2.1177002,2.1053 q 0.1317749,0 0.243396,-0.0791 0.1116214,-0.0791 0.1844844,-0.22634 0.114722,-0.22479 0.186036,-0.54415 0.07131,-0.31936 0.07131,-0.61392 0,-0.22014 -0.08217,-0.32401 -0.08061,-0.10542 -0.251148,-0.10542 -0.1317747,0 -0.2418455,0.0791 -0.1100708,0.0791 -0.1829346,0.22634 -0.1178222,0.22789 -0.1891357,0.54415 -0.071313,0.31626 -0.071313,0.61082 0,0.22169 0.080615,0.32711 0.082166,0.10542 0.2526974,0.10542 z m 1.0061404,-1.37201 q 0,0.17053 -0.03566,0.37052 -0.03411,0.19999 -0.100769,0.41083 -0.04496,0.14262 -0.09767,0.2558 -0.05116,0.11317 -0.111621,0.20463 -0.136426,0.19689 -0.305408,0.29146 -0.1689821,0.093 -0.3937745,0.093 -0.3116089,0 -0.4619873,-0.19069 -0.1503784,-0.19069 -0.1503784,-0.58756 0,-0.17208 0.032556,-0.36897 0.034106,-0.19844 0.100769,-0.40928 0.044958,-0.14262 0.096118,-0.2558 0.05271,-0.11317 0.1131714,-0.20463 0.1364258,-0.19689 0.3054077,-0.28991 0.1689819,-0.0946 0.3937741,-0.0946 0.313159,0 0.463538,0.19069 0.151929,0.18914 0.151929,0.58446 z m 1.5906,1.49913 q -0.130224,0.0636 -0.263549,0.0946 -0.131775,0.0326 -0.272852,0.0326 -0.356567,0 -0.553455,-0.20619 -0.195337,-0.20619 -0.195337,-0.57826 0,-0.34107 0.108521,-0.67593 0.10852,-0.33486 0.285254,-0.54725 0.165881,-0.20154 0.365869,-0.29766 0.199988,-0.0961 0.455786,-0.0961 0.124024,0 0.246497,0.0326 0.122473,0.0326 0.238745,0.0946 l -0.06356,0.32091 q -0.09922,-0.0977 -0.20929,-0.14573 -0.110071,-0.0481 -0.234094,-0.0481 -0.147278,0 -0.272852,0.0636 -0.125573,0.062 -0.235644,0.19069 -0.161231,0.19069 -0.260449,0.48834 -0.09767,0.29766 -0.09767,0.59686 0,0.26821 0.120923,0.41083 0.120923,0.14263 0.348816,0.14263 0.131775,0 0.271301,-0.0496 0.141077,-0.0496 0.277503,-0.14418 z m 0.886768,-2.23242 h 0.313159 l -0.196887,1.00304 1.150317,-1.00304 h 0.393775 l -1.089856,0.95963 0.663525,1.35496 h -0.339514 l -0.558105,-1.14877 -0.299207,0.26045 -0.173633,0.88832 h -0.314709 z"
         id="path6" /></g><rect
       style="display:inline;fill:#212121;fill-opacity:1;stroke:#d08c59;stroke-width:0.352777;stroke-dasharray:none;stroke-opacity:1"
       id="rect112"
       width="19.830458"
       height="99.878319"
       x="71.619644"
       y="188.76582"
       rx="5"
       ry="5" /><rect
       style="display:inline;fill:#333333;fill-opacity:1;stroke:#d08c59;stroke-width:0.352776;stroke-dasharray:none;stroke-opacity:1"
       id="rect49"
       width="22.615555"
       height="118.47194"
       x="107.41065"
       y="174.18777"
       rx="5.0000005"
       ry="5.0000014" /><g
       id="g212"
       transform="translate(7.0341781,-0.19969957)"><path
         id="path128"
         d="m 55.887974,293.88119 c 0.05918,0.1254 0.07855,0.25115 0.05777,0.37795 h -0.414579 c -0.0063,-0.0972 -0.02536,-0.17048 -0.05777,-0.21979 -0.05671,-0.0881 -0.159209,-0.13209 -0.307147,-0.13209 -0.150756,0 -0.282844,0.062 -0.395558,0.18633 -0.113067,0.12399 -0.193024,0.2994 -0.240224,0.52659 -0.04755,0.22719 -0.03734,0.39697 0.03135,0.51039 0.06833,0.11306 0.173299,0.16942 0.314897,0.16942 0.145472,0 0.26664,-0.0486 0.363505,-0.14582 0.05319,-0.0518 0.104261,-0.13033 0.153573,-0.23459 h 0.410704 c -0.08172,0.22085 -0.210987,0.40014 -0.387104,0.53856 -0.176469,0.13773 -0.38006,0.20712 -0.610773,0.20712 -0.285309,0 -0.490308,-0.0933 -0.614999,-0.28003 -0.123986,-0.18774 -0.15146,-0.44487 -0.08348,-0.77209 0.07326,-0.35329 0.222963,-0.62592 0.448393,-0.81719 0.196546,-0.1666 0.41951,-0.25008 0.668891,-0.25008 0.333917,0 0.554415,0.11201 0.662551,0.33532 z"
         style="clip-rule:evenodd;fill:#ffffff;fill-rule:nonzero;stroke-width:0.352233;stroke-linecap:round;stroke-linejoin:round;stroke-miterlimit:1.5" /><path
         id="path129"
         d="m 56.805894,295.12176 0.75554,-1.53715 h 0.430782 l -1.098616,2.02394 h -0.391684 l -0.249381,-2.02394 h 0.443462 z"
         style="clip-rule:evenodd;fill:#ffffff;fill-rule:nonzero;stroke-width:0.352233;stroke-linecap:round;stroke-linejoin:round;stroke-miterlimit:1.5" /><path
         id="path130"
         d="m 59.557893,294.12564 -0.05812,0.27616 h -0.251142 l -0.25079,1.20675 h -0.382172 l 0.25079,-1.20675 h -0.21451 l 0.05777,-0.27616 h 0.210283 l 0.01972,-0.0961 c 0.03382,-0.16027 0.08313,-0.27052 0.148291,-0.3311 0.07467,-0.0895 0.218032,-0.13456 0.430781,-0.13456 0.0243,0 0.04614,7.1e-4 0.06551,0.002 0.01937,0.001 0.04614,0.004 0.08031,0.006 l -0.06728,0.31913 c -0.02078,-0.003 -0.05636,-0.005 -0.106374,-0.006 -0.05037,-0.001 -0.08806,0.01 -0.112715,0.0342 -0.02466,0.0243 -0.03945,0.0511 -0.04509,0.0803 -0.0063,0.0296 -0.01515,0.0715 -0.02712,0.12645 z"
         style="clip-rule:evenodd;fill:#ffffff;fill-rule:nonzero;stroke-width:0.352233;stroke-linecap:round;stroke-linejoin:round;stroke-miterlimit:1.5" /><path
         id="path131"
         d="m 60.454679,295.39756 c -0.0042,0.005 -0.0162,0.0183 -0.03522,0.0412 -0.01867,0.0229 -0.0398,0.0426 -0.06305,0.0602 -0.07186,0.0549 -0.138076,0.0923 -0.19866,0.11237 -0.06023,0.0201 -0.128213,0.0303 -0.203943,0.0303 -0.216976,0 -0.34695,-0.0793 -0.388865,-0.23882 -0.0236,-0.0877 -0.01726,-0.21733 0.01867,-0.38851 l 0.187388,-0.90242 h 0.39274 l -0.187036,0.90242 c -0.01796,0.0852 -0.02149,0.14899 -0.01092,0.19232 0.01902,0.0761 0.0796,0.11412 0.181752,0.11412 0.131031,0 0.232122,-0.0542 0.303273,-0.16238 0.03769,-0.0585 0.06657,-0.13596 0.0863,-0.23177 l 0.169424,-0.81471 h 0.388865 l -0.311022,1.49664 h -0.372663 z"
         style="clip-rule:evenodd;fill:#ffffff;fill-rule:nonzero;stroke-width:0.352233;stroke-linecap:round;stroke-linejoin:round;stroke-miterlimit:1.5" /><path
         id="path132"
         d="m 62.280304,294.69873 c 0.01691,-0.0789 0.01937,-0.13949 0.0067,-0.1814 -0.02149,-0.0771 -0.08489,-0.11553 -0.190911,-0.11553 -0.130326,0 -0.231417,0.0564 -0.30292,0.16872 -0.03804,0.0599 -0.06622,0.13596 -0.08489,0.22824 l -0.168367,0.80979 h -0.382173 l 0.310669,-1.49418 h 0.37055 l -0.04579,0.21839 c 0.06516,-0.0764 0.123634,-0.13209 0.17506,-0.1659 0.09123,-0.0606 0.197955,-0.0905 0.318771,-0.0905 0.151812,0 0.267345,0.0402 0.34695,0.12152 0.07925,0.081 0.09968,0.21522 0.06094,0.40296 l -0.209931,1.00774 h -0.393103 z"
         style="clip-rule:evenodd;fill:#ffffff;fill-rule:nonzero;stroke-width:0.352233;stroke-linecap:round;stroke-linejoin:round;stroke-miterlimit:1.5" /><path
         id="path133"
         d="m 63.308826,295.13832 -0.09651,0.47023 h -0.377242 l 0.420214,-2.01724 h 0.37689 l -0.227895,1.09086 0.595274,-0.56357 h 0.475515 l -0.632963,0.57308 0.343075,0.91687 h -0.463187 l -0.21768,-0.63966 z"
         style="clip-rule:evenodd;fill:#ffffff;fill-rule:nonzero;stroke-width:0.352233;stroke-linecap:round;stroke-linejoin:round;stroke-miterlimit:1.5" /><path
         id="path134"
         d="m 46.70983,294.60574 h 6.548722"
         style="clip-rule:evenodd;fill:none;fill-rule:evenodd;stroke:#ebb444;stroke-width:0.225429px;stroke-linecap:round;stroke-linejoin:round;stroke-miterlimit:1.5" /><path
         id="path135"
         d="m 64.817089,294.60574 h 6.548722"
         style="clip-rule:evenodd;fill:none;fill-rule:evenodd;stroke:#ebb444;stroke-width:0.225429px;stroke-linecap:round;stroke-linejoin:round;stroke-miterlimit:1.5" /></g><path
       style="font-style:italic;font-size:5.5575px;font-family:Menlo;-inkscape-font-specification:'Menlo Italic';display:none;fill:#ffffff;stroke-width:0.463124"
       d="m 13.941867,173.03067 h 0.518302 l -0.244226,3.28348 0.892782,-2.1709 h 0.572574 l 0.0407,2.17633 1.023036,-3.28891 h 0.537298 l -1.383948,4.05144 h -0.526443 l -0.08412,-2.36085 -1.006754,2.36085 h -0.510162 z m 4.946934,0.45589 -0.987758,2.10034 h 1.166858 z m -0.260507,-0.45589 h 0.667551 l 0.450461,4.05144 h -0.545438 l -0.09498,-1.0556 h -1.411084 l -0.499306,1.0556 h -0.588856 z m 2.995839,3.53585 1.622747,-3.53585 h 0.583429 l -1.951095,4.05144 h -0.700115 l -0.398902,-4.05144 h 0.537297 z m 2.895436,-3.53585 h 2.401556 l -0.08955,0.46131 h -1.856119 l -0.233371,1.19943 h 1.771996 l -0.08684,0.46131 h -1.77471 l -0.282216,1.46807 h 1.904963 l -0.08955,0.46132 h -2.455829 z m 7.147684,0.45046 -0.295785,1.52234 h 0.634988 q 0.447747,0 0.713682,-0.25779 0.268649,-0.26051 0.268649,-0.69198 0,-0.29307 -0.168244,-0.43146 -0.168245,-0.14111 -0.521016,-0.14111 z m -0.461316,-0.45046 h 1.193994 q 0.559006,0 0.852078,0.24965 0.293071,0.24966 0.293071,0.72183 0,0.67569 -0.43418,1.06374 -0.434179,0.38804 -1.193994,0.38804 h -0.632274 l -0.317494,1.62818 h -0.550865 z m 4.496472,2.13833 q 0.195381,0.038 0.312066,0.18182 0.1194,0.14382 0.265935,0.62413 l 0.328349,1.10716 h -0.545438 l -0.287644,-1.02304 q -0.1194,-0.42332 -0.268649,-0.55629 -0.146536,-0.13297 -0.445034,-0.13297 h -0.521016 l -0.333775,1.7123 h -0.550866 l 0.784237,-4.05144 h 1.128867 q 0.56172,0 0.86836,0.24422 0.309353,0.24152 0.309353,0.68384 0,0.49659 -0.282217,0.82223 -0.279503,0.32563 -0.762528,0.38804 z m -0.795092,-1.68787 -0.276789,1.43822 h 0.594283 q 0.442321,0 0.705542,-0.23066 0.265935,-0.23337 0.265935,-0.6187 0,-0.30393 -0.170958,-0.44504 -0.170958,-0.14382 -0.540011,-0.14382 z m 3.424593,3.23464 q 0.230658,0 0.426039,-0.1384 0.195381,-0.13839 0.322921,-0.39619 0.200808,-0.39347 0.325635,-0.95248 0.124826,-0.559 0.124826,-1.07459 0,-0.38534 -0.143822,-0.56715 -0.141108,-0.18453 -0.439607,-0.18453 -0.230658,0 -0.423325,0.1384 -0.192667,0.13839 -0.320207,0.39619 -0.206236,0.3989 -0.331062,0.95248 -0.124827,0.55358 -0.124827,1.06917 0,0.38805 0.141108,0.57257 0.143822,0.18453 0.442321,0.18453 z m 1.761141,-2.40156 q 0,0.2985 -0.06241,0.64856 -0.0597,0.35006 -0.176386,0.71911 -0.0787,0.24965 -0.170958,0.44775 -0.08955,0.19809 -0.195381,0.35819 -0.238798,0.34463 -0.534583,0.51017 -0.295785,0.16281 -0.689261,0.16281 -0.545438,0 -0.808659,-0.33377 -0.263222,-0.33378 -0.263222,-1.02847 0,-0.30121 0.05699,-0.64584 0.0597,-0.34734 0.176386,-0.71639 0.0787,-0.24966 0.168245,-0.44775 0.09226,-0.1981 0.198094,-0.3582 0.238799,-0.34463 0.534584,-0.50745 0.295785,-0.16553 0.68926,-0.16553 0.548152,0 0.811373,0.33378 0.265935,0.33106 0.265935,1.02303 z m 1.611893,-0.83308 -0.295785,1.52234 h 0.634988 q 0.447748,0 0.713683,-0.25779 0.268648,-0.26051 0.268648,-0.69198 0,-0.29307 -0.168244,-0.43146 -0.168245,-0.14111 -0.521016,-0.14111 z m -0.461316,-0.45046 h 1.193994 q 0.559006,0 0.852078,0.24965 0.293071,0.24966 0.293071,0.72183 0,0.67569 -0.43418,1.06374 -0.434179,0.38804 -1.193994,0.38804 h -0.632274 l -0.317494,1.62818 h -0.550865 z m 4.412351,0.45589 -0.987758,2.10034 h 1.166858 z m -0.260507,-0.45589 h 0.667551 l 0.450461,4.05144 h -0.545438 l -0.09498,-1.0556 h -1.411084 l -0.499306,1.0556 H 43.37382 Z m 4.241393,3.79093 q -0.236085,0.16824 -0.515588,0.25508 -0.279504,0.0841 -0.596997,0.0841 -0.629561,0 -0.968764,-0.36362 -0.336489,-0.36634 -0.336489,-1.04203 0,-0.24423 0.04342,-0.51831 0.04613,-0.27679 0.132967,-0.578 0.09498,-0.31749 0.222517,-0.57257 0.127541,-0.2578 0.279504,-0.43961 0.290357,-0.35277 0.640415,-0.52101 0.352771,-0.16825 0.803232,-0.16825 0.21709,0 0.431466,0.057 0.21709,0.057 0.426039,0.16553 l -0.111259,0.56172 q -0.176385,-0.17096 -0.371766,-0.25508 -0.192667,-0.0841 -0.412471,-0.0841 -0.265935,0 -0.499306,0.11398 -0.233372,0.11126 -0.417898,0.33106 -0.1194,0.14111 -0.225231,0.35277 -0.105831,0.21166 -0.18724,0.47488 -0.09226,0.30936 -0.141108,0.58072 -0.04613,0.27136 -0.04613,0.49117 0,0.46402 0.214376,0.71639 0.214377,0.25237 0.607852,0.25237 0.184526,0 0.331062,-0.0488 0.146535,-0.0516 0.24694,-0.14653 l 0.206235,-1.06646 h -0.588856 l 0.08141,-0.45046 h 1.112586 z m 2.71091,-3.33504 -0.987759,2.10034 h 1.166858 z m -0.260508,-0.45589 h 0.667551 l 0.450462,4.05144 h -0.545439 l -0.09498,-1.0556 h -1.411084 l -0.499307,1.0556 h -0.588856 z m 2.135618,0 h 3.09353 l -0.08955,0.46131 h -1.272689 l -0.694688,3.59013 H 54.70591 l 0.700115,-3.59013 h -1.27269 z m 3.761082,0 h 2.252307 l -0.08955,0.46131 h -0.852078 l -0.605138,3.12881 h 0.852078 l -0.08955,0.46132 H 57.19973 l 0.08955,-0.46132 h 0.849364 l 0.607851,-3.12881 h -0.852078 z m 3.769223,3.6851 q 0.230658,0 0.426039,-0.1384 0.195381,-0.13839 0.322921,-0.39619 0.200808,-0.39347 0.325635,-0.95248 0.124826,-0.559 0.124826,-1.07459 0,-0.38534 -0.143822,-0.56715 -0.141108,-0.18453 -0.439607,-0.18453 -0.230658,0 -0.423325,0.1384 -0.192667,0.13839 -0.320207,0.39619 -0.206236,0.3989 -0.331062,0.95248 -0.124827,0.55358 -0.124827,1.06917 0,0.38805 0.141108,0.57257 0.143822,0.18453 0.442321,0.18453 z m 1.761141,-2.40156 q 0,0.2985 -0.06241,0.64856 -0.0597,0.35006 -0.176386,0.71911 -0.07869,0.24965 -0.170958,0.44775 -0.08955,0.19809 -0.195381,0.35819 -0.238799,0.34463 -0.534583,0.51017 -0.295785,0.16281 -0.689261,0.16281 -0.545438,0 -0.808659,-0.33377 -0.263222,-0.33378 -0.263222,-1.02847 0,-0.30121 0.05699,-0.64584 0.0597,-0.34734 0.176386,-0.71639 0.0787,-0.24966 0.168244,-0.44775 0.09226,-0.1981 0.198095,-0.3582 0.238799,-0.34463 0.534584,-0.50745 0.295785,-0.16553 0.68926,-0.16553 0.548152,0 0.811373,0.33378 0.265935,0.33106 0.265935,1.02303 z m 0.9959,-1.28354 h 0.694688 l 0.716396,3.33504 0.648556,-3.33504 h 0.529157 l -0.789665,4.05144 h -0.694687 l -0.716397,-3.33505 -0.651269,3.33505 h -0.526443 z"
       id="text1"
       aria-label="WAVE PROPAGATION" /><path
       d="m 27.523752,256.2821 2.18466,-2.29555 2.05405,2.29555 h -4.12641"
       style="clip-rule:evenodd;display:none;fill:#d08c59;fill-rule:evenodd;stroke-width:0.352023;stroke-linecap:square;stroke-linejoin:round;stroke-miterlimit:1.5"
       id="path38" /><path
       d="m 45.881382,256.2821 2.18465,-2.29555 2.05406,2.29555 h -4.12642"
       style="clip-rule:evenodd;display:none;fill:#d08c59;fill-rule:evenodd;stroke-width:0.352023;stroke-linecap:square;stroke-linejoin:round;stroke-miterlimit:1.5"
       id="path39" /><path
       d="m 33.417682,268.35051 3.73355,-2.29519 0.50516,2.29519 h -4.12642"
       style="clip-rule:evenodd;display:none;fill:#d08c59;fill-rule:evenodd;stroke-width:0.352023;stroke-linecap:square;stroke-linejoin:round;stroke-miterlimit:1.5"
       id="path42" /><path
       d="m 21.305996,268.36705 0.49495,-2.29554 3.74376,2.29554 h -4.12641"
       style="clip-rule:evenodd;display:none;fill:#d08c59;fill-rule:evenodd;stroke-width:0.352023;stroke-linecap:square;stroke-linejoin:round;stroke-miterlimit:1.5"
       id="path43" /><path
       d="m 56.551202,268.36705 c -0.22072,-1.67739 -0.95293,-2.43564 -2.18466,-2.29554 0.14468,1.19618 -0.26753,2.10264 -2.05405,2.29554 h 4.12641"
       style="clip-rule:evenodd;display:none;fill:#d08c59;fill-rule:evenodd;stroke-width:0.352023;stroke-linecap:square;stroke-linejoin:round;stroke-miterlimit:1.5"
       id="path44" /><path
       d="m 39.802642,268.36705 c 0.22072,-1.67739 0.95293,-2.43564 2.1843,-2.29554 -0.14433,1.19618 0.26789,2.10264 2.05441,2.29554 h -4.12642"
       style="clip-rule:evenodd;display:none;fill:#d08c59;fill-rule:evenodd;stroke-width:0.352023;stroke-linecap:square;stroke-linejoin:round;stroke-miterlimit:1.5"
       id="path45" /><path
       style="font-style:italic;font-size:5.64444px;font-family:Menlo;-inkscape-font-specification:'Menlo Italic';text-align:center;text-anchor:middle;fill:#ffffff;stroke-width:0.352778"
       d="m 59.117042,170.77774 -0.107487,0.56499 q -0.223242,-0.1626 -0.463021,-0.24529 -0.239778,-0.0827 -0.496093,-0.0827 -0.454752,0 -0.741384,0.226 -0.286632,0.226 -0.286632,0.57602 0,0.19568 0.135048,0.31695 0.135047,0.12127 0.490581,0.23151 l 0.333485,0.10749 q 0.44924,0.1378 0.655946,0.36931 0.209461,0.22875 0.209461,0.58429 0,0.64767 -0.457508,1.02801 -0.457508,0.37759 -1.248502,0.37759 -0.286631,0 -0.564995,-0.0634 -0.275607,-0.0606 -0.551215,-0.18466 l 0.112999,-0.57602 q 0.270096,0.19017 0.545703,0.28112 0.278363,0.0909 0.587044,0.0909 0.454752,0 0.738628,-0.24254 0.283875,-0.24253 0.283875,-0.6146 0,-0.226 -0.121267,-0.35002 -0.121267,-0.12403 -0.487825,-0.23702 l -0.278364,-0.091 q -0.507117,-0.15986 -0.711067,-0.36105 -0.201193,-0.20395 -0.201193,-0.53743 0,-0.6091 0.454752,-0.99495 0.454752,-0.3886 1.187868,-0.3886 0.220486,0 0.468533,0.0551 0.250803,0.0551 0.51263,0.15985 z m 0.774456,-0.14056 h 0.556727 l 0.650434,1.7942 1.369769,-1.7942 h 0.600824 l -1.750107,2.26825 -0.355534,1.84657 h -0.570507 l 0.361046,-1.84657 z m 3.646287,0 h 0.705555 l 0.727603,3.38722 0.658702,-3.38722 h 0.537435 l -0.802018,4.11482 h -0.705555 l -0.727604,-3.38722 -0.661457,3.38722 h -0.534679 z m 5.214493,3.96875 q -0.23151,0.113 -0.468533,0.16812 -0.234266,0.0579 -0.485069,0.0579 -0.633897,0 -0.983918,-0.36656 -0.347266,-0.36656 -0.347266,-1.02802 0,-0.60633 0.192925,-1.20165 0.192926,-0.59531 0.507118,-0.97289 0.2949,-0.35829 0.650434,-0.52917 0.355533,-0.17087 0.810285,-0.17087 0.220486,0 0.438216,0.0579 0.21773,0.0579 0.424436,0.16812 l -0.112999,0.57051 q -0.176389,-0.17363 -0.37207,-0.25907 -0.195682,-0.0854 -0.416168,-0.0854 -0.261827,0 -0.485069,0.113 -0.223242,0.11024 -0.418923,0.339 -0.286632,0.339 -0.46302,0.86816 -0.173633,0.52917 -0.173633,1.06109 0,0.4768 0.214974,0.73036 0.214973,0.25356 0.620116,0.25356 0.234267,0 0.482313,-0.0882 0.250803,-0.0882 0.493338,-0.25631 z m 2.907658,-1.79696 q 0.198437,0.0386 0.316948,0.18465 0.121268,0.14608 0.270096,0.6339 l 0.333485,1.12448 h -0.553971 l -0.292144,-1.03904 q -0.121268,-0.42995 -0.272852,-0.565 -0.148828,-0.13504 -0.451996,-0.13504 h -0.529166 l -0.338997,1.73908 h -0.559483 l 0.796505,-4.11482 h 1.146527 q 0.570507,0 0.881944,0.24805 0.314192,0.24529 0.314192,0.69453 0,0.50436 -0.286631,0.83509 -0.283876,0.33073 -0.774457,0.39412 z m -0.80753,-1.71428 -0.28112,1.46072 h 0.603581 q 0.44924,0 0.716579,-0.23427 0.270095,-0.23702 0.270095,-0.62838 0,-0.30868 -0.173632,-0.452 -0.173633,-0.14607 -0.548459,-0.14607 z m 3.478165,3.28524 q 0.234267,0 0.432704,-0.14056 0.198437,-0.14056 0.327973,-0.40239 0.203949,-0.39963 0.330729,-0.96738 0.126779,-0.56775 0.126779,-1.09141 0,-0.39136 -0.146072,-0.57601 -0.143316,-0.18742 -0.446484,-0.18742 -0.234266,0 -0.429947,0.14056 -0.195682,0.14056 -0.325217,0.40239 -0.209462,0.40514 -0.336241,0.96738 -0.12678,0.56224 -0.12678,1.08589 0,0.39412 0.143316,0.58154 0.146072,0.18741 0.44924,0.18741 z m 1.788692,-2.43913 q 0,0.30317 -0.06339,0.6587 -0.06063,0.35554 -0.179145,0.73036 -0.07993,0.25356 -0.173633,0.45476 -0.09095,0.20119 -0.198437,0.3638 -0.242535,0.35002 -0.542947,0.51814 -0.300412,0.16537 -0.700043,0.16537 -0.553971,0 -0.82131,-0.339 -0.267339,-0.339 -0.267339,-1.04455 0,-0.30593 0.05788,-0.65595 0.06063,-0.35278 0.179144,-0.7276 0.07993,-0.25356 0.170877,-0.45476 0.09371,-0.20119 0.201193,-0.3638 0.242535,-0.35002 0.542947,-0.51538 0.300412,-0.16812 0.700043,-0.16812 0.556727,0 0.824066,0.33899 0.270095,0.33624 0.270095,1.03904 z"
       id="text26"
       aria-label="SYNCRO" /><path
       style="font-style:italic;font-size:3.175px;font-family:Menlo;-inkscape-font-specification:'Menlo Italic';text-align:center;text-anchor:middle;fill:#ffffff;stroke-width:0.352778"
       d="m 54.780778,184.62301 h 0.310059 l 0.347266,0.82476 0.682129,-0.82476 h 0.358117 l -0.923974,1.11466 0.502295,1.19993 h -0.311609 l -0.393775,-0.94878 -0.784448,0.94878 H 54.20872 l 1.018543,-1.23559 z"
       id="text27"
       aria-label="X" /><path
       style="font-style:italic;font-size:3.175px;font-family:Menlo;-inkscape-font-specification:'Menlo Italic';text-align:center;text-anchor:middle;fill:#ffffff;stroke-width:0.352778"
       d="m 65.007822,186.77517 h 0.31316 l 0.365869,1.00924 0.770495,-1.00924 h 0.337964 l -0.984436,1.27589 -0.199988,1.0387 h -0.32091 l 0.203088,-1.0387 z"
       id="text28"
       aria-label="Y" /><path
       style="font-style:italic;font-size:3.175px;font-family:Menlo;-inkscape-font-specification:'Menlo Italic';text-align:center;text-anchor:middle;fill:#ffffff;stroke-width:0.352778"
       d="m 65.327152,183.60386 h 0.485242 l 0.342615,-1.76888 -0.545703,0.11782 0.05426,-0.28525 0.545703,-0.11472 h 0.314709 l -0.399975,2.05103 h 0.47904 l -0.05116,0.26355 h -1.275891 z"
       id="text29"
       aria-label="1" /><path
       style="font-style:italic;font-size:3.175px;font-family:Menlo;-inkscape-font-specification:'Menlo Italic';text-align:center;text-anchor:middle;fill:#ffffff;stroke-width:0.352778"
       d="m 63.967292,185.3142 h 1.911511 l -0.04341,0.21859 h -1.911511 z m 1.911511,0 h 1.911511 l -0.04341,0.21859 h -1.911511 z"
       id="text31"
       aria-label="––" /><path
       style="font-style:italic;font-size:3.175px;font-family:Menlo;-inkscape-font-specification:'Menlo Italic';text-align:center;text-anchor:middle;fill:#ffffff;stroke-width:0.352778"
       d="m 59.895715,185.75627 q 0,-0.19223 0.133325,-0.32401 0.133325,-0.13332 0.327112,-0.13332 0.192236,0 0.325561,0.13332 0.134876,0.13333 0.134876,0.32401 0,0.19224 -0.134876,0.32712 -0.134875,0.13332 -0.328662,0.13332 -0.192236,0 -0.325562,-0.13177 -0.131774,-0.13333 -0.131774,-0.32867 z"
       id="text32"
       aria-label="•" /><path
       style="font-style:italic;font-size:3.175px;font-family:Menlo;-inkscape-font-specification:'Menlo Italic';text-align:center;text-anchor:middle;fill:#ffffff;stroke-width:0.352778"
       d="m 77.92219,184.78632 q 0.111621,0.0217 0.178284,0.10387 0.06821,0.0822 0.151928,0.35657 l 0.187586,0.63252 h -0.311609 l -0.164331,-0.58446 q -0.06821,-0.24185 -0.153479,-0.31781 -0.08372,-0.076 -0.254248,-0.076 h -0.297656 l -0.190686,0.97824 h -0.31471 l 0.448035,-2.31459 h 0.644922 q 0.32091,0 0.496093,0.13953 0.176734,0.13797 0.176734,0.39067 0,0.28371 -0.161231,0.46974 -0.15968,0.18604 -0.435632,0.22169 z m -0.454236,-0.96428 -0.15813,0.82166 h 0.339515 q 0.252697,0 0.403076,-0.13178 0.151928,-0.13332 0.151928,-0.35347 0,-0.17363 -0.09767,-0.25424 -0.09767,-0.0822 -0.308508,-0.0822 z m 2.317688,0.003 -0.564306,1.19993 h 0.666626 z m -0.148828,-0.26045 h 0.381372 l 0.257349,2.31459 h -0.311609 l -0.05426,-0.60307 h -0.806153 l -0.285254,0.60307 h -0.336413 z m 1.220081,0 h 1.767334 l -0.05116,0.26355 h -0.727088 l -0.396875,2.05104 h -0.316259 l 0.399975,-2.05104 h -0.727087 z m 2.148705,0 h 1.286744 l -0.05116,0.26355 h -0.486792 l -0.345715,1.78749 h 0.486792 l -0.05116,0.26355 h -1.286743 l 0.05116,-0.26355 h 0.485242 l 0.347266,-1.78749 h -0.486792 z m 2.153357,2.1053 q 0.131775,0 0.243396,-0.0791 0.111622,-0.0791 0.184485,-0.22634 0.114722,-0.22479 0.186035,-0.54415 0.07131,-0.31936 0.07131,-0.61392 0,-0.22014 -0.08217,-0.32401 -0.08061,-0.10542 -0.251147,-0.10542 -0.131775,0 -0.241846,0.0791 -0.110071,0.0791 -0.182934,0.22634 -0.117823,0.22789 -0.189136,0.54415 -0.07131,0.31626 -0.07131,0.61082 0,0.22169 0.08062,0.32711 0.08217,0.10542 0.252697,0.10542 z m 1.006141,-1.37201 q 0,0.17053 -0.03566,0.37052 -0.03411,0.19999 -0.100769,0.41083 -0.04496,0.14262 -0.09767,0.2558 -0.05116,0.11317 -0.111621,0.20463 -0.136426,0.19689 -0.305407,0.29146 -0.168982,0.093 -0.393775,0.093 -0.311609,0 -0.461987,-0.19069 -0.150379,-0.19068 -0.150379,-0.58756 0,-0.17208 0.03256,-0.36897 0.03411,-0.19844 0.100769,-0.40928 0.04496,-0.14262 0.09612,-0.2558 0.05271,-0.11317 0.113171,-0.20463 0.136426,-0.19689 0.305408,-0.28991 0.168982,-0.0946 0.393774,-0.0946 0.313159,0 0.463538,0.19069 0.151929,0.18914 0.151929,0.58446 z"
       id="text48"
       aria-label="RATIO" /><path
       style="font-style:italic;font-size:3.175px;font-family:Menlo;-inkscape-font-specification:'Menlo Italic';text-align:center;text-anchor:middle;fill:#ffffff;stroke-width:0.352778"
       d="m 40.295506,286.93194 q 0.111621,0.0217 0.178284,0.10387 0.06821,0.0822 0.151928,0.35657 l 0.187586,0.63252 h -0.311609 l -0.164331,-0.58446 q -0.06821,-0.24185 -0.153479,-0.31781 -0.08372,-0.076 -0.254248,-0.076 h -0.297656 l -0.190686,0.97824 h -0.31471 l 0.448035,-2.31459 h 0.644922 q 0.32091,0 0.496093,0.13953 0.176734,0.13797 0.176734,0.39067 0,0.2837 -0.161231,0.46974 -0.15968,0.18604 -0.435632,0.22169 z m -0.454236,-0.96428 -0.15813,0.82165 h 0.339514 q 0.252698,0 0.403077,-0.13177 0.151928,-0.13333 0.151928,-0.35347 0,-0.17363 -0.09767,-0.25424 -0.09767,-0.0822 -0.308508,-0.0822 z m 1.711524,-0.25735 h 1.372009 l -0.05116,0.26355 h -1.0604 l -0.133325,0.68523 h 1.012341 l -0.04961,0.26355 h -1.013891 l -0.161231,0.83871 h 1.088306 l -0.05116,0.26355 h -1.403015 z m 3.156396,0.0791 -0.06046,0.31781 q -0.125574,-0.0915 -0.26045,-0.13798 -0.134875,-0.0465 -0.279052,-0.0465 -0.255799,0 -0.417029,0.12713 -0.161231,0.12712 -0.161231,0.32401 0,0.11007 0.07597,0.17828 0.07596,0.0682 0.275952,0.13022 l 0.187585,0.0605 q 0.252698,0.0775 0.36897,0.20774 0.117822,0.12867 0.117822,0.32866 0,0.36432 -0.257348,0.57826 -0.257349,0.21239 -0.702283,0.21239 -0.161231,0 -0.31781,-0.0357 -0.155029,-0.0341 -0.310059,-0.10387 l 0.06356,-0.32401 q 0.151929,0.10697 0.306958,0.15813 0.15658,0.0512 0.330213,0.0512 0.255798,0 0.415478,-0.13643 0.15968,-0.13642 0.15968,-0.34571 0,-0.12713 -0.06821,-0.19689 -0.06821,-0.0698 -0.274401,-0.13332 l -0.15658,-0.0512 q -0.285254,-0.0899 -0.399976,-0.20309 -0.113171,-0.11472 -0.113171,-0.30231 0,-0.34261 0.255798,-0.55966 0.255799,-0.21859 0.668177,-0.21859 0.124023,0 0.263549,0.031 0.141077,0.031 0.288355,0.0899 z m 0.666626,-0.0791 h 1.372009 l -0.05116,0.26355 h -1.0604 l -0.133325,0.68523 h 1.012341 l -0.04961,0.26355 h -1.013892 l -0.16123,0.83871 h 1.088305 l -0.05116,0.26355 h -1.403016 z m 1.677417,0 h 1.767334 l -0.05116,0.26355 H 48.04232 l -0.396875,2.05104 h -0.31626 l 0.399976,-2.05104 h -0.727088 z"
       id="text122"
       aria-label="RESET" /><path
       style="font-style:italic;font-size:3.175px;font-family:Menlo;-inkscape-font-specification:'Menlo Italic';text-align:center;text-anchor:middle;fill:#ffffff;stroke-width:0.352778"
       d="m 7.3346493,261.8037 -0.060461,0.31781 q -0.1255737,-0.0915 -0.2604492,-0.13798 -0.1348755,-0.0465 -0.2790527,-0.0465 -0.2557984,0 -0.4170289,0.12712 -0.1612304,0.12712 -0.1612304,0.32401 0,0.11007 0.075964,0.17829 0.075964,0.0682 0.2759522,0.13022 l 0.1875854,0.0605 q 0.2526978,0.0775 0.3689697,0.20774 0.1178223,0.12867 0.1178223,0.32866 0,0.36432 -0.2573486,0.57826 -0.2573486,0.21239 -0.7022827,0.21239 -0.1612305,0 -0.3178101,-0.0356 -0.1550293,-0.0341 -0.3100586,-0.10387 l 0.063562,-0.32402 q 0.1519288,0.10697 0.3069581,0.15813 0.1565795,0.0512 0.3302123,0.0512 0.2557984,0 0.4154786,-0.13642 0.1596801,-0.13643 0.1596801,-0.34572 0,-0.12712 -0.068213,-0.19688 -0.068213,-0.0698 -0.2744018,-0.13333 l -0.1565796,-0.0512 q -0.2852539,-0.0899 -0.3999756,-0.20309 -0.1131714,-0.11472 -0.1131714,-0.3023 0,-0.34262 0.2557984,-0.55966 0.2557983,-0.21859 0.6681762,-0.21859 0.1240235,0 0.2635498,0.031 0.1410767,0.031 0.2883545,0.0899 z m 0.3581177,-0.0791 h 0.2961059 l -0.1395263,1.87585 0.5100463,-1.24023 h 0.3271119 l 0.023254,1.24333 0.5844605,-1.87895 h 0.306958 l -0.7906494,2.31458 H 8.5097714 l -0.048059,-1.34875 -0.5751587,1.34875 H 7.5950985 Z m 2.22312,0 h 1.286743 l -0.05116,0.26355 h -0.486792 l -0.345716,1.78748 h 0.486792 l -0.05116,0.26355 H 9.4678524 l 0.05116,-0.26355 h 0.4852416 l 0.347265,-1.78748 H 9.8647274 Z m 1.816943,0 h 0.396875 l 0.409277,1.90531 0.37052,-1.90531 h 0.302308 l -0.451136,2.31458 h -0.396875 l -0.409277,-1.90531 -0.37207,1.90531 h -0.300757 z m 2.971912,2.16576 q -0.134876,0.0961 -0.294556,0.14572 -0.15968,0.0481 -0.341064,0.0481 -0.359668,0 -0.553455,-0.20774 -0.192236,-0.20929 -0.192236,-0.59531 0,-0.13953 0.02481,-0.29611 0.02636,-0.15813 0.07596,-0.33021 0.05426,-0.18138 0.127124,-0.32711 0.07286,-0.14728 0.15968,-0.25115 0.165881,-0.20154 0.365869,-0.29765 0.201538,-0.0961 0.458887,-0.0961 0.124023,0 0.246497,0.0325 0.124023,0.0326 0.243396,0.0946 l -0.06356,0.32091 q -0.10077,-0.0977 -0.212391,-0.14572 -0.11007,-0.0481 -0.235644,-0.0481 -0.151929,0 -0.285254,0.0651 -0.133325,0.0636 -0.238745,0.18913 -0.06821,0.0806 -0.128674,0.20154 -0.06046,0.12093 -0.106971,0.2713 -0.05271,0.17674 -0.08061,0.33177 -0.02636,0.15503 -0.02636,0.2806 0,0.2651 0.122473,0.40928 0.122473,0.14417 0.347266,0.14417 0.10542,0 0.189136,-0.0279 0.08371,-0.0295 0.141076,-0.0837 l 0.117823,-0.60926 h -0.336414 l 0.04651,-0.25735 h 0.63562 z"
       id="text123"
       aria-label="SWING" /><path
       style="font-style:italic;font-size:2.82222px;font-family:Menlo;-inkscape-font-specification:'Menlo Italic';text-align:center;text-anchor:middle;fill:#ffffff;stroke-width:0.352778"
       d="m 15.472199,173.99266 -0.14745,0.75379 h 0.341753 q 0.253559,0 0.387228,-0.11989 0.135048,-0.11989 0.135048,-0.34589 0,-0.14745 -0.09371,-0.21773 -0.09371,-0.0703 -0.290765,-0.0703 z m 0.162608,-0.84611 -0.121267,0.62012 h 0.336241 q 0.208083,0 0.326595,-0.0992 0.119889,-0.1006 0.119889,-0.27561 0,-0.12954 -0.07717,-0.18741 -0.07579,-0.0579 -0.248047,-0.0579 z m -0.234266,-0.22875 h 0.61047 q 0.279742,0 0.423058,0.11024 0.143315,0.10886 0.143315,0.32108 0,0.21222 -0.126779,0.35553 -0.126779,0.14194 -0.341753,0.1695 0.172254,0.0317 0.263205,0.14056 0.09233,0.10887 0.09233,0.27974 0,0.32246 -0.220486,0.50161 -0.219108,0.17914 -0.620116,0.17914 H 15.00091 Z m 1.973349,0.22875 -0.150206,0.77308 h 0.322461 q 0.227376,0 0.362423,-0.13092 0.136426,-0.13229 0.136426,-0.35139 0,-0.14883 -0.08544,-0.21911 -0.08544,-0.0717 -0.264583,-0.0717 z m -0.234266,-0.22875 h 0.606336 q 0.283876,0 0.432704,0.12677 0.148828,0.12678 0.148828,0.36656 0,0.34313 -0.220486,0.54019 -0.220486,0.19706 -0.606337,0.19706 h -0.321082 l -0.161231,0.82682 h -0.279741 z m 1.543401,0 h 0.370692 l 0.151584,1.04179 0.570508,-1.04179 h 0.37207 l -0.401009,2.0574 h -0.256315 l 0.355534,-1.82865 -0.598069,1.09554 h -0.194303 l -0.158474,-1.09554 -0.352778,1.82865 H 18.28615 Z"
       id="text135"
       aria-label="BPM" /><path
       style="font-style:italic;font-size:3.175px;font-family:Menlo;-inkscape-font-specification:'Menlo Italic';text-align:center;text-anchor:middle;fill:#ffffff;stroke-width:0.352778"
       d="m 22.456979,262.94633 q 0.111621,0.0217 0.178284,0.10387 0.06821,0.0822 0.151928,0.35656 l 0.187586,0.63252 h -0.311609 l -0.164331,-0.58446 q -0.06821,-0.24184 -0.153479,-0.31781 -0.08372,-0.076 -0.254248,-0.076 h -0.297656 l -0.190686,0.97823 h -0.31471 l 0.448035,-2.31458 h 0.644922 q 0.32091,0 0.496093,0.13952 0.176734,0.13798 0.176734,0.39068 0,0.2837 -0.161231,0.46973 -0.15968,0.18604 -0.435632,0.2217 z m -0.454236,-0.96429 -0.15813,0.82166 h 0.339514 q 0.252698,0 0.403077,-0.13178 0.151928,-0.13332 0.151928,-0.35346 0,-0.17363 -0.09767,-0.25425 -0.09767,-0.0822 -0.308508,-0.0822 z m 1.95647,1.84795 q 0.131775,0 0.243396,-0.0791 0.111621,-0.0791 0.184485,-0.22634 0.114721,-0.2248 0.186035,-0.54416 0.07131,-0.31936 0.07131,-0.61391 0,-0.22014 -0.08216,-0.32401 -0.08062,-0.10542 -0.251148,-0.10542 -0.131774,0 -0.241845,0.0791 -0.110071,0.0791 -0.182935,0.22634 -0.117822,0.2279 -0.189136,0.54416 -0.07131,0.31626 -0.07131,0.61081 0,0.22169 0.08061,0.32711 0.08217,0.10542 0.252698,0.10542 z m 1.00614,-1.37201 q 0,0.17054 -0.03566,0.37052 -0.03411,0.19999 -0.100769,0.41083 -0.04496,0.14263 -0.09767,0.2558 -0.05116,0.11317 -0.111621,0.20464 -0.136426,0.19689 -0.305408,0.29145 -0.168982,0.093 -0.393774,0.093 -0.311609,0 -0.461988,-0.19068 -0.150378,-0.19069 -0.150378,-0.58757 0,-0.17208 0.03256,-0.36896 0.03411,-0.19844 0.100769,-0.40928 0.04496,-0.14263 0.09612,-0.2558 0.05271,-0.11317 0.113172,-0.20464 0.136425,-0.19689 0.305407,-0.2899 0.168982,-0.0946 0.393775,-0.0946 0.313159,0 0.463537,0.19068 0.151929,0.18914 0.151929,0.58446 z m 0.426331,-0.73328 h 1.767334 l -0.05116,0.26355 H 26.38077 l -0.396875,2.05103 h -0.316259 l 0.399975,-2.05103 h -0.727087 z m 2.751769,0.26045 -0.564306,1.19992 h 0.666626 z m -0.148828,-0.26045 h 0.381372 l 0.257349,2.31458 h -0.311609 l -0.05426,-0.60306 h -0.806153 l -0.285254,0.60306 h -0.336413 z m 1.220081,0 h 1.767334 l -0.05116,0.26355 h -0.727087 l -0.396875,2.05103 h -0.31626 l 0.399976,-2.05103 h -0.727088 z m 2.145606,0 h 1.372009 l -0.05116,0.26355 h -1.0604 l -0.133325,0.68523 h 1.012341 l -0.04961,0.26355 h -1.013892 l -0.161231,0.8387 h 1.088306 l -0.05116,0.26355 h -1.403015 z"
       id="text145"
       aria-label="ROTATE" /><path
       style="font-style:italic;font-size:3.175px;font-family:Menlo;-inkscape-font-specification:'Menlo Italic';text-align:center;text-anchor:middle;fill:#ffffff;stroke-width:0.352778"
       d="m 39.424465,261.76963 h 0.296106 l -0.139526,1.87585 0.510046,-1.24023 h 0.327112 l 0.02325,1.24333 0.584461,-1.87895 h 0.306958 l -0.79065,2.31459 H 40.24147 l -0.04806,-1.34876 -0.575159,1.34876 h -0.291455 z m 2.22312,0 h 1.286743 l -0.05116,0.26355 h -0.486792 l -0.345716,1.78749 h 0.486792 l -0.05116,0.26355 h -1.286743 l 0.05116,-0.26355 h 0.485242 l 0.347266,-1.78749 h -0.486792 z m 1.877405,2.05724 q 0.286804,0 0.460437,-0.0961 0.173633,-0.0977 0.279053,-0.31626 0.08372,-0.17828 0.136426,-0.42478 0.05426,-0.24805 0.05426,-0.45424 0,-0.27285 -0.127124,-0.39067 -0.127124,-0.11782 -0.426331,-0.11782 h -0.176733 l -0.350366,1.79989 z m 0.406177,-2.05724 q 0.42323,0 0.632519,0.19223 0.21084,0.19224 0.21084,0.58291 0,0.25115 -0.06511,0.5178 -0.06511,0.26665 -0.175183,0.47284 -0.161231,0.29611 -0.403076,0.42323 -0.240296,0.12558 -0.651123,0.12558 h -0.469739 l 0.451135,-2.31459 z m 1.302246,0 h 1.767334 l -0.05116,0.26355 H 46.2225 l -0.396875,2.05104 h -0.31626 l 0.399975,-2.05104 h -0.727087 z m 2.051037,0 h 0.31316 l -0.182935,0.94878 h 0.857312 l 0.182935,-0.94878 h 0.314709 l -0.451135,2.31459 h -0.313159 l 0.21549,-1.10226 h -0.860412 l -0.21239,1.10226 h -0.31471 z"
       id="text213"
       aria-label="WIDTH" /><path
       id="path26"
       d="m 15.674879,224.71951 h 6.548722"
       style="clip-rule:evenodd;display:inline;fill:none;fill-rule:evenodd;stroke:#ebb444;stroke-width:0.225429px;stroke-linecap:round;stroke-linejoin:round;stroke-miterlimit:1.5" /><path
       id="path27"
       d="m 31.781879,224.71951 h 6.548722"
       style="clip-rule:evenodd;display:inline;fill:none;fill-rule:evenodd;stroke:#ebb444;stroke-width:0.225429px;stroke-linecap:round;stroke-linejoin:round;stroke-miterlimit:1.5" /><path
       id="path219"
       d="m 15.674879,202.413 h 6.548722"
       style="clip-rule:evenodd;display:inline;fill:none;fill-rule:evenodd;stroke:#ebb444;stroke-width:0.225429px;stroke-linecap:round;stroke-linejoin:round;stroke-miterlimit:1.5" /><path
       id="path220"
       d="m 31.781879,202.413 h 6.548722"
       style="clip-rule:evenodd;display:inline;fill:none;fill-rule:evenodd;stroke:#ebb444;stroke-width:0.225429px;stroke-linecap:round;stroke-linejoin:round;stroke-miterlimit:1.5" /><path
       style="font-style:italic;font-size:2.82222px;font-family:Menlo;-inkscape-font-specification:'Menlo Italic';text-align:center;text-anchor:middle;fill:#ffffff;stroke-width:0.352778"
       d="m 34.221561,172.98807 -0.05374,0.2825 q -0.111621,-0.0813 -0.231511,-0.12264 -0.119889,-0.0413 -0.248046,-0.0413 -0.227376,0 -0.370692,0.113 -0.143316,0.11299 -0.143316,0.288 0,0.0978 0.06752,0.15848 0.06752,0.0606 0.24529,0.11575 l 0.166743,0.0537 q 0.22462,0.0689 0.327973,0.18465 0.10473,0.11438 0.10473,0.29215 0,0.32384 -0.228754,0.51401 -0.228754,0.18879 -0.624251,0.18879 -0.143315,0 -0.282497,-0.0317 -0.137804,-0.0303 -0.275608,-0.0923 l 0.0565,-0.28801 q 0.135048,0.0951 0.272851,0.14056 0.139182,0.0455 0.293522,0.0455 0.227376,0 0.369314,-0.12127 0.141938,-0.12127 0.141938,-0.3073 0,-0.113 -0.06063,-0.17501 -0.06063,-0.062 -0.243912,-0.11851 L 33.3658,174.0216 q -0.253559,-0.0799 -0.355534,-0.18052 -0.100596,-0.10197 -0.100596,-0.26872 0,-0.30454 0.227376,-0.49747 0.227376,-0.1943 0.593934,-0.1943 0.110243,0 0.234266,0.0276 0.125402,0.0276 0.256315,0.0799 z m 0.318327,-0.0703 h 0.263205 l -0.124024,1.66742 0.453375,-1.10243 h 0.290765 l 0.02067,1.10519 0.51952,-1.67018 h 0.272851 l -0.702799,2.0574 h -0.267339 l -0.04272,-1.19889 -0.511252,1.19889 h -0.259071 z m 1.976105,0 h 1.143771 l -0.04548,0.23426 h -0.432704 l -0.307302,1.58888 h 0.432703 l -0.04548,0.23426 H 36.11774 l 0.04548,-0.23426 h 0.431326 l 0.30868,-1.58888 h -0.432703 z m 1.61506,0 h 0.352777 l 0.363802,1.6936 0.329351,-1.6936 H 39.4457 l -0.401009,2.0574 h -0.352777 l -0.363802,-1.6936 -0.330729,1.6936 h -0.267339 z m 2.641697,1.92511 q -0.11989,0.0854 -0.261827,0.12954 -0.141938,0.0427 -0.303169,0.0427 -0.319704,0 -0.491959,-0.18466 -0.170876,-0.18603 -0.170876,-0.52917 0,-0.12402 0.02205,-0.2632 0.02343,-0.14056 0.06752,-0.29352 0.04823,-0.16123 0.112999,-0.29077 0.06477,-0.13091 0.141938,-0.22324 0.14745,-0.17915 0.325217,-0.26458 0.179144,-0.0854 0.407899,-0.0854 0.110243,0 0.219108,0.0289 0.110243,0.0289 0.216351,0.0841 l -0.0565,0.28525 q -0.08957,-0.0868 -0.188791,-0.12953 -0.09784,-0.0427 -0.209462,-0.0427 -0.135048,0 -0.253559,0.0579 -0.118511,0.0565 -0.212217,0.16812 -0.06063,0.0717 -0.114378,0.17915 -0.05374,0.10749 -0.09508,0.24116 -0.04685,0.15709 -0.07166,0.2949 -0.02343,0.1378 -0.02343,0.24942 0,0.23564 0.108865,0.3638 0.108865,0.12816 0.308681,0.12816 0.09371,0 0.16812,-0.0248 0.07441,-0.0262 0.125402,-0.0744 l 0.10473,-0.54157 h -0.299034 l 0.04134,-0.22875 h 0.564996 z"
       id="text220"
       aria-label="SWING" /><path
       style="font-style:italic;font-size:3.175px;font-family:Menlo;-inkscape-font-specification:'Menlo Italic';text-align:center;text-anchor:middle;fill:#ffffff;stroke-width:0.352778"
       d="m 23.969346,223.79651 h 1.362708 l -0.05116,0.26355 h -1.047998 l -0.133325,0.68213 h 0.948779 l -0.04961,0.26355 h -0.95033 l -0.21549,1.10536 h -0.31471 z m 1.854151,0 h 1.286743 l -0.05116,0.26355 h -0.486792 l -0.345715,1.78749 h 0.486792 l -0.05116,0.26355 h -1.286743 l 0.05116,-0.26355 h 0.485241 l 0.347266,-1.78749 h -0.486792 z m 1.947168,0 h 0.313159 l -0.399976,2.05104 h 1.117761 l -0.05116,0.26355 h -1.430921 z m 1.91151,0 h 0.31316 l -0.399976,2.05104 h 1.117761 l -0.05116,0.26355 H 29.23104 Z"
       id="text147"
       aria-label="FILL" /><path
       style="font-style:italic;font-size:3.175px;font-family:Menlo;-inkscape-font-specification:'Menlo Italic';text-align:center;text-anchor:middle;fill:#ffffff;stroke-width:0.352778"
       d="m 23.883305,203.7224 q -0.130225,0.0636 -0.26355,0.0946 -0.131775,0.0326 -0.272851,0.0326 -0.356568,0 -0.553455,-0.20619 -0.195337,-0.20618 -0.195337,-0.57825 0,-0.34107 0.108521,-0.67593 0.10852,-0.33487 0.285254,-0.54726 0.165881,-0.20153 0.365869,-0.29765 0.199988,-0.0961 0.455786,-0.0961 0.124023,0 0.246496,0.0326 0.122474,0.0325 0.238746,0.0946 l -0.06356,0.32091 q -0.09922,-0.0977 -0.20929,-0.14572 -0.110071,-0.0481 -0.234094,-0.0481 -0.147278,0 -0.272852,0.0636 -0.125574,0.062 -0.235644,0.19069 -0.161231,0.19068 -0.26045,0.48834 -0.09767,0.29765 -0.09767,0.59686 0,0.2682 0.120923,0.41083 0.120923,0.14263 0.348816,0.14263 0.131775,0 0.271301,-0.0496 0.141077,-0.0496 0.277502,-0.14418 z m 1.020093,-2.23242 h 0.313159 l -0.399976,2.05104 h 1.117762 l -0.05116,0.26355 h -1.43092 z m 2.1177,2.1053 q 0.131775,0 0.243396,-0.0791 0.111621,-0.0791 0.184485,-0.22634 0.114721,-0.22479 0.186035,-0.54415 0.07131,-0.31936 0.07131,-0.61392 0,-0.22014 -0.08217,-0.32401 -0.08061,-0.10542 -0.251148,-0.10542 -0.131774,0 -0.241845,0.0791 -0.110071,0.0791 -0.182935,0.22635 -0.117822,0.22789 -0.189136,0.54415 -0.07131,0.31626 -0.07131,0.61081 0,0.2217 0.08061,0.32712 0.08217,0.10542 0.252698,0.10542 z m 1.00614,-1.37201 q 0,0.17053 -0.03566,0.37052 -0.03411,0.19998 -0.100769,0.41082 -0.04496,0.14263 -0.09767,0.2558 -0.05116,0.11317 -0.111621,0.20464 -0.136426,0.19689 -0.305408,0.29146 -0.168982,0.093 -0.393774,0.093 -0.311609,0 -0.461988,-0.19068 -0.150378,-0.19069 -0.150378,-0.58756 0,-0.17209 0.03256,-0.36897 0.03411,-0.19844 0.100769,-0.40928 0.04496,-0.14263 0.09612,-0.2558 0.05271,-0.11317 0.113172,-0.20464 0.136425,-0.19688 0.305407,-0.2899 0.168982,-0.0946 0.393775,-0.0946 0.313159,0 0.463537,0.19069 0.151929,0.18913 0.151929,0.58446 z m 1.5906,1.49913 q -0.130224,0.0636 -0.263549,0.0946 -0.131775,0.0326 -0.272852,0.0326 -0.356567,0 -0.553455,-0.20619 -0.195337,-0.20618 -0.195337,-0.57825 0,-0.34107 0.108521,-0.67593 0.10852,-0.33487 0.285254,-0.54726 0.165881,-0.20153 0.365869,-0.29765 0.199988,-0.0961 0.455786,-0.0961 0.124024,0 0.246497,0.0326 0.122473,0.0325 0.238745,0.0946 l -0.06356,0.32091 q -0.09922,-0.0977 -0.20929,-0.14572 -0.110071,-0.0481 -0.234094,-0.0481 -0.147278,0 -0.272852,0.0636 -0.125573,0.062 -0.235644,0.19069 -0.16123,0.19068 -0.260449,0.48834 -0.09767,0.29765 -0.09767,0.59686 0,0.2682 0.120923,0.41083 0.120923,0.14263 0.348816,0.14263 0.131775,0 0.271301,-0.0496 0.141077,-0.0496 0.277503,-0.14418 z m 0.886768,-2.23242 h 0.313159 l -0.196887,1.00304 1.150317,-1.00304 h 0.393775 l -1.089856,0.95963 0.663525,1.35496 h -0.339514 l -0.558105,-1.14877 -0.299207,0.26045 -0.173633,0.88832 h -0.314709 z"
       id="text215"
       aria-label="CLOCK" /><rect
       style="display:inline;fill:#212121;fill-opacity:1;stroke:#d08c59;stroke-width:0.352778;stroke-dasharray:none;stroke-opacity:1"
       id="rect112-0"
       width="41.70364"
       height="8.8634748"
       x="6.1576447"
       y="176.28462"
       rx="5"
       ry="5"
       inkscape:transform-center-x="-97.440576"
       inkscape:transform-center-y="-9.91983" /><path
       style="font-style:italic;font-size:3.175px;font-family:Menlo;-inkscape-font-specification:'Menlo Italic';text-align:center;text-anchor:middle;fill:#ffffff;stroke-width:0.352778"
       d="m 96.075878,183.56469 h 1.362707 l -0.05116,0.26355 h -1.047998 l -0.133326,0.68213 h 0.94878 l -0.04961,0.26355 h -0.950329 l -0.215491,1.10536 h -0.314709 z m 1.85415,0 h 1.286748 l -0.0512,0.26355 H 98.67878 l -0.345716,1.78749 h 0.486792 l -0.05116,0.26355 h -1.286744 l 0.05116,-0.26355 h 0.485242 l 0.347265,-1.78749 h -0.486792 z m 1.947165,0 h 0.313157 l -0.399977,2.05104 h 1.117757 l -0.0512,0.26355 h -1.430924 z m 1.911507,0 h 0.31316 l -0.39998,2.05104 h 1.11777 l -0.0512,0.26355 h -1.43092 z"
       id="text47"
       aria-label="FILL" /><path
       style="font-style:italic;font-weight:bold;font-size:3.175px;font-family:Menlo;-inkscape-font-specification:'Menlo Bold Italic';text-align:center;text-anchor:middle;fill:#ffffff;stroke-width:0.352778"
       d="m 112.76639,289.53422 q 0,-0.18604 -0.062,-0.27906 -0.062,-0.093 -0.18759,-0.093 -0.0915,0 -0.16898,0.0558 -0.0775,0.0543 -0.13333,0.16123 -0.0341,0.0605 -0.0682,0.16123 -0.0326,0.0992 -0.0682,0.24184 -0.045,0.17829 -0.0682,0.33331 -0.0232,0.15348 -0.0232,0.26976 0,0.18603 0.062,0.2775 0.062,0.0915 0.18759,0.0915 0.0915,0 0.16743,-0.0543 0.0775,-0.0558 0.13487,-0.16279 0.0357,-0.0682 0.0698,-0.16898 0.0357,-0.10232 0.0667,-0.23099 0.045,-0.17828 0.0682,-0.33176 0.0233,-0.15503 0.0233,-0.2713 z m -1.25109,0.86041 q 0,-0.31006 0.0775,-0.62787 0.0775,-0.31781 0.20929,-0.55656 0.11937,-0.21704 0.31315,-0.33331 0.19379,-0.11782 0.43564,-0.11782 0.33331,0 0.50849,0.19534 0.17674,0.19533 0.17674,0.5643 0,0.31316 -0.076,0.63407 -0.076,0.31936 -0.20619,0.55346 -0.12092,0.21859 -0.31626,0.33641 -0.19378,0.11782 -0.43563,0.11782 -0.33641,0 -0.5116,-0.19533 -0.17518,-0.19689 -0.17518,-0.57051 z m 1.92236,-0.13333 0.28526,-1.46037 h 0.45733 l -0.3085,1.57509 q 0,0.003 -0.002,0.009 -0.0109,0.0729 -0.0109,0.10542 0,0.12712 0.0713,0.19688 0.0713,0.0698 0.20154,0.0698 0.16743,0 0.26665,-0.0946 0.10077,-0.0946 0.13952,-0.28681 l 0.30851,-1.57509 h 0.45734 l -0.28681,1.46037 q -0.0543,0.27906 -0.11627,0.42323 -0.062,0.14263 -0.15968,0.2403 -0.11782,0.11472 -0.27905,0.17518 -0.16123,0.0605 -0.35502,0.0605 -0.33951,0 -0.52245,-0.15348 -0.18293,-0.15348 -0.18293,-0.43718 0,-0.0651 0.008,-0.14263 0.009,-0.0775 0.0279,-0.16588 z m 2.76418,0.85421 h -0.45579 l 0.37052,-1.91461 h -0.59376 l 0.076,-0.39997 h 1.64176 l -0.0791,0.39997 h -0.58756 z"
       id="text2"
       aria-label="OUT" /><path
       style="font-style:italic;font-weight:bold;font-size:3.175px;font-family:Menlo;-inkscape-font-specification:'Menlo Bold Italic';text-align:center;text-anchor:middle;fill:#ffffff;stroke-width:0.352778"
       d="m 121.94786,289.204 0.0791,-0.40307 h 1.37821 l -0.0791,0.40307 h -0.46044 l -0.29146,1.50844 h 0.46044 l -0.0806,0.40307 h -1.37667 l 0.0791,-0.40307 h 0.46044 l 0.29145,-1.50844 z m 1.91152,-0.40307 h 0.46973 l 0.33332,1.68206 0.32711,-1.68206 h 0.40308 l -0.44649,2.31458 h -0.45423 l -0.34882,-1.68206 -0.32711,1.68206 h -0.40773 z m 2.30218,1.93941 0.78445,-1.93941 h 0.46664 l -0.99994,2.31458 h -0.63872 l -0.10077,-2.31458 h 0.45113 z"
       id="text3"
       aria-label="INV" /><path
       style="font-style:italic;font-size:3.175px;font-family:Menlo;-inkscape-font-specification:'Menlo Italic';text-align:center;text-anchor:middle;fill:#ffffff;stroke-width:0.352778"
       d="m 21.344222,287.56609 q 0.131775,0 0.243396,-0.0791 0.111621,-0.0791 0.184485,-0.22634 0.114721,-0.22479 0.186035,-0.54415 0.07131,-0.31936 0.07131,-0.61392 0,-0.22014 -0.08217,-0.32401 -0.08061,-0.10542 -0.251148,-0.10542 -0.131774,0 -0.241845,0.0791 -0.110071,0.0791 -0.182935,0.22635 -0.117822,0.22789 -0.189136,0.54415 -0.07131,0.31626 -0.07131,0.61081 0,0.2217 0.08061,0.32712 0.08217,0.10542 0.252698,0.10542 z m 1.00614,-1.37201 q 0,0.17053 -0.03566,0.37052 -0.03411,0.19998 -0.100769,0.41082 -0.04496,0.14263 -0.09767,0.2558 -0.05116,0.11317 -0.111621,0.20464 -0.136426,0.19689 -0.305408,0.29146 -0.168982,0.093 -0.393774,0.093 -0.311609,0 -0.461988,-0.19068 -0.150378,-0.19069 -0.150378,-0.58756 0,-0.17209 0.03256,-0.36897 0.03411,-0.19844 0.100769,-0.40928 0.04496,-0.14263 0.09612,-0.2558 0.05271,-0.11317 0.113172,-0.20464 0.136425,-0.19688 0.305407,-0.2899 0.168982,-0.0946 0.393775,-0.0946 0.313159,0 0.463537,0.19069 0.151929,0.18913 0.151929,0.58446 z m 0.568958,-0.73329 h 0.396875 l 0.409277,1.90531 0.37052,-1.90531 h 0.302307 l -0.451135,2.31459 h -0.396875 l -0.409278,-1.90531 -0.37207,1.90531 h -0.300757 z m 1.494482,2.60914 1.32085,-2.60914 h 0.296105 l -1.32395,2.60914 z m 2.664953,-0.50384 q 0.131775,0 0.243396,-0.0791 0.111621,-0.0791 0.184485,-0.22634 0.114722,-0.22479 0.186035,-0.54415 0.07131,-0.31936 0.07131,-0.61392 0,-0.22014 -0.08217,-0.32401 -0.08062,-0.10542 -0.251147,-0.10542 -0.131775,0 -0.241846,0.0791 -0.110071,0.0791 -0.182935,0.22635 -0.117822,0.22789 -0.189135,0.54415 -0.07131,0.31626 -0.07131,0.61081 0,0.2217 0.08062,0.32712 0.08216,0.10542 0.252697,0.10542 z m 1.00614,-1.37201 q 0,0.17053 -0.03566,0.37052 -0.03411,0.19998 -0.100769,0.41082 -0.04496,0.14263 -0.09767,0.2558 -0.05116,0.11317 -0.111621,0.20464 -0.136426,0.19689 -0.305408,0.29146 -0.168982,0.093 -0.393774,0.093 -0.311609,0 -0.461987,-0.19068 -0.150379,-0.19069 -0.150379,-0.58756 0,-0.17209 0.03256,-0.36897 0.03411,-0.19844 0.100769,-0.40928 0.04496,-0.14263 0.09612,-0.2558 0.05271,-0.11317 0.113171,-0.20464 0.136426,-0.19688 0.305408,-0.2899 0.168982,-0.0946 0.393774,-0.0946 0.313159,0 0.463538,0.19069 0.151928,0.18913 0.151928,0.58446 z m 0.720887,-0.73329 h 1.362707 l -0.05116,0.26355 h -1.047998 l -0.133326,0.68213 h 0.94878 l -0.04961,0.26355 h -0.950329 l -0.215491,1.10536 h -0.314709 z m 1.911511,0 h 1.362708 l -0.05116,0.26355 h -1.047998 l -0.133325,0.68213 h 0.948779 l -0.04961,0.26355 h -0.95033 l -0.215491,1.10536 h -0.314709 z"
       id="text4"
       aria-label="ON/OFF" /></g></svg>
