<?xml version="1.0" encoding="UTF-8" standalone="no"?>
<!-- Created with Inkscape (http://www.inkscape.org/) -->

<svg
   width="76.199997mm"
   height="128.5mm"
   viewBox="0 0 76.200005 128.50002"
   version="1.1"
   id="svg8"
   inkscape:version="1.2 (dc2aeda, 2022-05-15)"
   sodipodi:docname="Tatami.svg"
   xml:space="preserve"
   xmlns:inkscape="http://www.inkscape.org/namespaces/inkscape"
   xmlns:sodipodi="http://sodipodi.sourceforge.net/DTD/sodipodi-0.dtd"
   xmlns="http://www.w3.org/2000/svg"
   xmlns:svg="http://www.w3.org/2000/svg"
   xmlns:rdf="http://www.w3.org/1999/02/22-rdf-syntax-ns#"
   xmlns:cc="http://creativecommons.org/ns#"
   xmlns:dc="http://purl.org/dc/elements/1.1/"><defs
     id="defs2" /><sodipodi:namedview
     id="base"
     pagecolor="#ffffff"
     bordercolor="#666666"
     borderopacity="1.0"
     inkscape:pageopacity="0.0"
     inkscape:pageshadow="2"
     inkscape:zoom="1.32"
     inkscape:cx="71.212121"
     inkscape:cy="253.0303"
     inkscape:document-units="mm"
     inkscape:current-layer="g1"
     showgrid="false"
     units="mm"
     inkscape:snap-bbox="true"
     inkscape:snap-page="true"
     inkscape:bbox-nodes="false"
     inkscape:snap-bbox-edge-midpoints="false"
     inkscape:window-width="1467"
     inkscape:window-height="900"
     inkscape:window-x="9"
     inkscape:window-y="38"
     inkscape:window-maximized="0"
     inkscape:snap-bbox-midpoints="true"
     inkscape:snap-nodes="false"
     inkscape:showpageshadow="2"
     inkscape:pagecheckerboard="0"
     inkscape:deskcolor="#d1d1d1" /><metadata
     id="metadata5"><rdf:RDF><cc:Work
         rdf:about=""><dc:format>image/svg+xml</dc:format><dc:type
           rdf:resource="http://purl.org/dc/dcmitype/StillImage" /></cc:Work></rdf:RDF></metadata><g
     id="g1"><rect
       id="rect1"
       x="-0.15726471"
       y="-0.31555176"
       width="76.514526"
       height="129.1311"
       style="clip-rule:evenodd;display:inline;opacity:1;fill:#e5e5e5;fill-rule:evenodd;stroke-width:0.429856;stroke-linejoin:round;stroke-miterlimit:1.5;fill-opacity:1" /><g
       id="g3297"
       style="opacity:1;fill:#000000"><path
         id="path128"
         d="m 34.914777,125.9342 c 0.05984,0.1268 0.07943,0.25396 0.05842,0.38219 h -0.419235 c -0.0064,-0.0983 -0.02565,-0.1724 -0.05842,-0.22227 -0.05735,-0.089 -0.160997,-0.13357 -0.310597,-0.13357 -0.152449,0 -0.28602,0.0627 -0.4,0.18843 -0.114337,0.12538 -0.195192,0.30276 -0.242921,0.5325 -0.04809,0.22974 -0.03776,0.40143 0.0317,0.51612 0.0691,0.11433 0.175246,0.17133 0.318434,0.17133 0.147106,0 0.269635,-0.0492 0.367587,-0.14747 0.05378,-0.0524 0.105432,-0.13179 0.155298,-0.23722 h 0.415317 c -0.08264,0.22333 -0.213357,0.40463 -0.391452,0.54461 -0.178451,0.13927 -0.384328,0.20944 -0.617632,0.20944 -0.288513,0 -0.495815,-0.0944 -0.621906,-0.28317 -0.125379,-0.18985 -0.153162,-0.44986 -0.08442,-0.78076 0.07409,-0.35726 0.225468,-0.63295 0.453429,-0.82636 0.198753,-0.16848 0.424221,-0.2529 0.676403,-0.2529 0.337667,0 0.560642,0.11327 0.669992,0.3391 z"
         style="clip-rule:evenodd;fill:#000000;fill-rule:nonzero;stroke-width:0.356189;stroke-linejoin:round;stroke-miterlimit:1.5" /><path
         id="path129"
         d="m 35.843006,127.18869 0.764026,-1.55441 h 0.435619 l -1.110954,2.04667 h -0.396083 l -0.252181,-2.04667 h 0.448442 z"
         style="clip-rule:evenodd;fill:#000000;fill-rule:nonzero;stroke-width:0.356189;stroke-linejoin:round;stroke-miterlimit:1.5" /><path
         id="path130"
         d="m 38.625912,126.18139 -0.05877,0.27925 h -0.253963 l -0.253607,1.22031 h -0.386466 l 0.253606,-1.22031 h -0.216919 l 0.05842,-0.27925 h 0.212645 l 0.01995,-0.0972 c 0.03419,-0.16207 0.08406,-0.27355 0.149955,-0.33482 0.07551,-0.0905 0.220482,-0.13606 0.43562,-0.13606 0.02458,0 0.04666,7.1e-4 0.06625,0.002 0.01959,0.001 0.04666,0.004 0.08121,0.006 l -0.06803,0.32271 c -0.02102,-0.003 -0.05699,-0.005 -0.107569,-0.006 -0.05093,-10e-4 -0.08905,0.01 -0.113981,0.0345 -0.02493,0.0246 -0.03989,0.0516 -0.04559,0.0812 -0.0064,0.0299 -0.01532,0.0723 -0.02743,0.12787 z"
         style="clip-rule:evenodd;fill:#000000;fill-rule:nonzero;stroke-width:0.356189;stroke-linejoin:round;stroke-miterlimit:1.5" /><path
         id="path131"
         d="m 39.532769,127.46759 c -0.0043,0.005 -0.01638,0.0185 -0.03562,0.0417 -0.01888,0.0232 -0.04025,0.0431 -0.06376,0.0609 -0.07266,0.0556 -0.139626,0.0933 -0.200891,0.11363 -0.06091,0.0203 -0.129653,0.0306 -0.206234,0.0306 -0.219412,0 -0.350846,-0.0801 -0.393232,-0.2415 -0.02386,-0.0887 -0.01745,-0.21977 0.01888,-0.39287 l 0.189492,-0.91256 h 0.397151 l -0.189136,0.91256 c -0.01817,0.0862 -0.02173,0.15066 -0.01104,0.19447 0.01923,0.0769 0.0805,0.11541 0.183794,0.11541 0.132502,0 0.234728,-0.0549 0.306678,-0.1642 0.03811,-0.0591 0.06732,-0.13749 0.08727,-0.23438 l 0.171327,-0.82386 h 0.393233 l -0.314515,1.51345 h -0.376849 z"
         style="clip-rule:evenodd;fill:#000000;fill-rule:nonzero;stroke-width:0.356189;stroke-linejoin:round;stroke-miterlimit:1.5" /><path
         id="path132"
         d="m 41.378898,126.76091 c 0.0171,-0.0798 0.01959,-0.14105 0.0068,-0.18344 -0.02173,-0.078 -0.08584,-0.11683 -0.193055,-0.11683 -0.13179,0 -0.234016,0.057 -0.306323,0.17062 -0.03847,0.0605 -0.06696,0.13749 -0.08584,0.23081 l -0.170259,0.81888 h -0.386465 l 0.314159,-1.51096 h 0.374711 l -0.04631,0.22084 c 0.0659,-0.0773 0.125023,-0.13357 0.177026,-0.16777 0.09225,-0.0613 0.200179,-0.0915 0.322352,-0.0915 0.153517,0 0.270347,0.0406 0.350846,0.12289 0.08014,0.0819 0.100801,0.21763 0.06162,0.40748 l -0.212289,1.01906 h -0.397507 z"
         style="clip-rule:evenodd;fill:#000000;fill-rule:nonzero;stroke-width:0.356189;stroke-linejoin:round;stroke-miterlimit:1.5" /><path
         id="path133"
         d="m 42.41897,127.20543 -0.09759,0.47552 h -0.381484 l 0.424934,-2.0399 h 0.381122 l -0.230454,1.10312 0.601959,-0.5699 h 0.480856 l -0.640072,0.57952 0.346928,0.92716 H 42.83678 l -0.220125,-0.64684 z"
         style="clip-rule:evenodd;fill:#000000;fill-rule:nonzero;stroke-width:0.356189;stroke-linejoin:round;stroke-miterlimit:1.5" /><path
         id="path134"
         d="m 25.633555,126.66688 h 6.62227"
         style="clip-rule:evenodd;fill:none;fill-rule:evenodd;stroke:#000000;stroke-width:0.227961px;stroke-linecap:round;stroke-linejoin:round;stroke-miterlimit:1.5" /><path
         id="path135"
         d="m 43.944172,126.66688 h 6.62227"
         style="clip-rule:evenodd;fill:none;fill-rule:evenodd;stroke:#000000;stroke-width:0.227961px;stroke-linecap:round;stroke-linejoin:round;stroke-miterlimit:1.5" /></g><path
       id="path1408"
       d="M 3.4641903,114.42491 H 71.739976"
       style="clip-rule:evenodd;display:inline;opacity:1;fill:#000000;fill-opacity:0;fill-rule:evenodd;stroke:#000000;stroke-width:0.35277778;stroke-linecap:round;stroke-linejoin:round;stroke-miterlimit:1.5;stroke-dasharray:none;stroke-opacity:1" /><rect
       style="display:inline;opacity:1;fill:#212121;fill-opacity:1;stroke:#000000;stroke-width:0.35277778;stroke-dasharray:none;stroke-opacity:1"
       id="rect2"
       width="63.95142"
       height="35.646832"
       x="6.1242886"
       y="11.343763"
       ry="5"
       rx="5" /><g
       aria-label="TATAMI"
       id="text580"
       style="font-style:italic;font-size:5.64444px;font-family:Menlo;-inkscape-font-specification:'Menlo Italic';text-align:center;text-anchor:middle;opacity:1;stroke-width:0.11;stroke-linecap:round;paint-order:fill markers stroke;fill:#000000"><path
         d="m 28.295265,2.1237956 h 3.141924 l -0.09095,0.4685327 H 30.05364 l -0.705555,3.6462863 h -0.562239 l 0.711067,-3.6462863 h -1.292599 z"
         style="fill:#000000"
         id="path2344" /><path
         d="m 33.187297,2.5868161 -1.003211,2.1332015 h 1.185111 z M 32.922713,2.1237956 h 0.677995 l 0.457508,4.114819 h -0.553971 l -0.09646,-1.0721129 h -1.433159 l -0.507118,1.0721129 h -0.598068 z"
         style="fill:#000000"
         id="path2346" /><path
         d="m 35.091744,2.1237956 h 3.141925 l -0.09095,0.4685327 h -1.292599 l -0.705555,3.6462863 h -0.562239 l 0.711067,-3.6462863 h -1.292599 z"
         style="fill:#000000"
         id="path2348" /><path
         d="m 39.983776,2.5868161 -1.003211,2.1332015 h 1.185112 z M 39.719193,2.1237956 h 0.677994 l 0.457509,4.114819 h -0.553971 l -0.09646,-1.0721129 h -1.433158 l -0.507118,1.0721129 h -0.598068 z"
         style="fill:#000000"
         id="path2350" /><path
         d="m 41.987442,2.1237956 h 0.741384 l 0.303168,2.0835922 1.141015,-2.0835922 h 0.74414 l -0.802018,4.114819 h -0.51263 L 44.313569,2.581304 43.117432,4.772383 H 42.728826 L 42.411877,2.581304 41.706322,6.2386146 h -0.51263 z"
         style="fill:#000000"
         id="path2352" /><path
         d="m 45.708142,2.1237956 h 2.287541 l -0.09095,0.4685327 h -0.865407 l -0.614605,3.1777536 h 0.865407 l -0.09095,0.4685327 h -2.287542 l 0.09095,-0.4685327 h 0.862651 l 0.617361,-3.1777536 h -0.865408 z"
         style="fill:#000000"
         id="path2354" /></g><rect
       style="display:inline;fill:#666666;fill-opacity:1;stroke:#000000;stroke-width:0.407859;stroke-linejoin:round;stroke-dasharray:none;stroke-opacity:1"
       id="rect48"
       width="10.566792"
       height="28.267111"
       x="63.767929"
       y="52.184929"
       rx="5"
       ry="5" /><path
       style="opacity:1;fill:none;stroke:#000000;stroke-width:0.35277778;stroke-linecap:round;stroke-dasharray:none;stroke-opacity:1;paint-order:fill markers stroke"
       d="M 6.8232389,74.296784 V 56.997698 H 69.376758 v 17.299086"
       id="path636" /><g
       id="g16354"
       transform="translate(-0.18240953)"
       style="stroke:#000000"><path
         id="path28"
         d="m 20.050364,69.130821 h 36.3434"
         style="clip-rule:evenodd;display:inline;opacity:1;fill:#000000;fill-opacity:0;fill-rule:evenodd;stroke:#000000;stroke-width:0.352778;stroke-linecap:round;stroke-linejoin:round;stroke-miterlimit:1.5;stroke-dasharray:none;stroke-opacity:1" /><path
         id="path824"
         d="m 20.050364,84.228851 h 36.3434"
         style="clip-rule:evenodd;display:inline;opacity:1;fill:#000000;fill-opacity:0;fill-rule:evenodd;stroke:#000000;stroke-width:0.352778;stroke-linecap:round;stroke-linejoin:round;stroke-miterlimit:1.5;stroke-dasharray:none;stroke-opacity:1" /><path
         id="path1404"
         d="M 20.298871,99.32688 H 56.885657"
         style="clip-rule:evenodd;display:inline;opacity:1;fill:#000000;fill-opacity:0;fill-rule:evenodd;stroke:#000000;stroke-width:0.352778;stroke-linecap:round;stroke-linejoin:round;stroke-miterlimit:1.5;stroke-dasharray:none;stroke-opacity:1" /><path
         style="opacity:1;fill:none;stroke:#000000;stroke-width:0.352777;stroke-linecap:round;stroke-dasharray:none;stroke-opacity:1;paint-order:fill markers stroke"
         d="M 19.566564,69.191906 V 113.9965"
         id="path2336" /><path
         style="opacity:1;fill:none;stroke:#000000;stroke-width:0.352777;stroke-linecap:round;stroke-dasharray:none;stroke-opacity:1;paint-order:fill markers stroke"
         d="M 56.998252,69.191906 V 113.9965"
         id="path2338" /></g><path
       style="opacity:1;fill:none;stroke:#666666;stroke-width:0.35277778;stroke-linecap:round;stroke-dasharray:none;stroke-opacity:1;paint-order:fill markers stroke"
       d="M 38.099998,46.844926 V 11.730387"
       id="path2340" /><path
       style="opacity:1;fill:none;stroke:#666666;stroke-width:0.35277778;stroke-linecap:round;stroke-dasharray:none;stroke-opacity:1;paint-order:fill markers stroke"
       d="M 6.3638018,29.167179 H 69.836195"
       id="path2342" /><g
       aria-label="IN"
       id="text2411"
       style="font-style:italic;font-size:3.52778px;font-family:Menlo;-inkscape-font-specification:'Menlo Italic';text-align:center;text-anchor:middle;opacity:1;fill:#000000;stroke-width:0.352777;stroke-linecap:round;paint-order:fill markers stroke"
       transform="translate(0,-2.6458334)"><path
         d="m 5.3715337,78.246655 h 1.4297156 l -0.056844,0.292833 H 6.2035248 L 5.8193964,80.525587 H 6.3602768 L 6.3034327,80.81842 H 4.8737171 l 0.056844,-0.292833 H 5.469719 L 5.85557,78.539488 H 5.3146896 Z"
         style="stroke-width:0.352778;fill:#000000"
         id="path2632" /><path
         d="m 7.390361,78.246655 h 0.4409726 l 0.4547529,2.117013 0.4116891,-2.117013 H 9.0336727 L 8.5324109,80.81842 H 8.0914384 L 7.6366855,78.701408 7.2232738,80.81842 H 6.8890993 Z"
         style="stroke-width:0.352778;fill:#000000"
         id="path2634" /></g><g
       aria-label="OUT"
       id="text2465"
       style="font-style:italic;font-size:3.52778px;font-family:Menlo;-inkscape-font-specification:'Menlo Italic';text-align:center;text-anchor:middle;opacity:1;fill:#ffffff;stroke-width:0.352777;stroke-linecap:round;paint-order:fill markers stroke"
       transform="translate(0,-2.6458334)"><path
         d="m 66.680872,80.585876 q 0.146417,0 0.27044,-0.08785 0.124024,-0.08785 0.204983,-0.251492 0.127469,-0.249769 0.206706,-0.604614 0.07924,-0.354846 0.07924,-0.68213 0,-0.244602 -0.0913,-0.360013 -0.08957,-0.117133 -0.279052,-0.117133 -0.146417,0 -0.268718,0.08785 -0.122301,0.08785 -0.203261,0.251492 -0.130914,0.253215 -0.210151,0.604615 -0.07924,0.3514 -0.07924,0.678684 0,0.246325 0.08957,0.363458 0.0913,0.117133 0.280776,0.117133 z m 1.117934,-1.524455 q 0,0.18948 -0.03962,0.411689 -0.0379,0.222209 -0.111966,0.456475 -0.04995,0.158475 -0.108521,0.284221 -0.05684,0.125746 -0.124023,0.227376 -0.151585,0.218764 -0.339342,0.323839 -0.187758,0.103353 -0.437528,0.103353 -0.346232,0 -0.513319,-0.211873 -0.167088,-0.211874 -0.167088,-0.652846 0,-0.191203 0.03617,-0.409967 0.0379,-0.220486 0.111966,-0.454753 0.04995,-0.158474 0.106798,-0.28422 0.05857,-0.125746 0.125746,-0.227377 0.151584,-0.218763 0.339342,-0.322116 0.187758,-0.105076 0.437527,-0.105076 0.347955,0 0.515042,0.211874 0.16881,0.210151 0.16881,0.649401 z"
         style="stroke-width:0.352778"
         id="path2637" /><path
         d="m 68.138148,79.8314 0.306614,-1.584745 h 0.349677 L 68.486103,79.8314 q -0.0034,0.02239 -0.01378,0.07062 -0.05168,0.265273 -0.05168,0.366903 0,0.158475 0.09302,0.237712 0.09474,0.07924 0.284221,0.07924 0.153306,0 0.260104,-0.04823 0.106798,-0.04995 0.184313,-0.156752 0.0379,-0.0534 0.07579,-0.18259 0.03962,-0.130914 0.08613,-0.366903 l 0.306613,-1.584745 h 0.349678 L 69.753899,79.8314 q -0.07235,0.377238 -0.155029,0.554661 -0.08096,0.1757 -0.215319,0.28422 -0.122301,0.09646 -0.279053,0.148139 -0.156752,0.04995 -0.339342,0.04995 -0.330729,0 -0.509874,-0.155029 -0.177423,-0.155029 -0.177423,-0.440973 0,-0.06373 0.01378,-0.172254 0.0155,-0.108521 0.04651,-0.268718 z"
         style="stroke-width:0.352778"
         id="path2639" /><path
         d="m 70.39641,78.246655 h 1.963706 l -0.05684,0.292833 H 71.4954 l -0.440972,2.278932 h -0.3514 l 0.444417,-2.278932 H 70.33957 Z"
         style="stroke-width:0.352778"
         id="path2641" /></g><g
       aria-label="SHAPE"
       id="text2571"
       style="font-style:italic;font-size:3.52777px;font-family:Menlo;-inkscape-font-specification:'Menlo Italic';text-align:center;text-anchor:middle;opacity:1;fill:#000000;stroke-width:0.352777;stroke-linecap:round;paint-order:fill markers stroke"
       transform="translate(4.2333333)"><path
         d="m 34.747929,72.794694 -0.06718,0.353122 q -0.139526,-0.10163 -0.289387,-0.153307 -0.149862,-0.05168 -0.310058,-0.05168 -0.28422,0 -0.463365,0.141249 -0.179144,0.141248 -0.179144,0.360011 0,0.122301 0.0844,0.198093 0.0844,0.07579 0.306613,0.144694 l 0.208428,0.06718 q 0.280775,0.08613 0.409965,0.230821 0.130914,0.142971 0.130914,0.365179 0,0.404798 -0.285942,0.642509 -0.285943,0.235988 -0.780313,0.235988 -0.179144,0 -0.353121,-0.03962 -0.172255,-0.0379 -0.344509,-0.115411 l 0.07062,-0.360011 q 0.168809,0.118855 0.341064,0.175699 0.173977,0.05684 0.366902,0.05684 0.284219,0 0.461641,-0.151584 0.177423,-0.151584 0.177423,-0.384127 0,-0.141249 -0.07579,-0.218763 -0.07579,-0.07751 -0.304891,-0.148139 l -0.173977,-0.05684 q -0.316948,-0.09991 -0.444416,-0.225653 -0.125746,-0.127468 -0.125746,-0.335896 0,-0.380682 0.28422,-0.621839 0.28422,-0.242878 0.742416,-0.242878 0.137804,0 0.292833,0.03445 0.156751,0.03445 0.320393,0.09991 z"
         style="stroke-width:0.352778;fill:#000000"
         id="path17808" /><path
         d="m 35.383548,72.706844 h 0.347954 l -0.203261,1.054197 h 0.952567 l 0.20326,-1.054197 h 0.349677 l -0.50126,2.571759 h -0.347954 l 0.239433,-1.224729 h -0.956012 l -0.235988,1.224729 h -0.349677 z"
         style="stroke-width:0.352778;fill:#000000"
         id="path17810" /><path
         d="m 38.286034,72.996232 -0.627006,1.333249 h 0.740694 z M 38.12067,72.706844 h 0.423746 l 0.285942,2.571759 h -0.346231 l -0.06029,-0.67007 h -0.895723 l -0.316948,0.67007 h -0.373792 z"
         style="stroke-width:0.352778;fill:#000000"
         id="path17812" /><path
         d="m 40.025804,72.992787 -0.187758,0.966347 h 0.403076 q 0.284219,0 0.453029,-0.163642 0.170531,-0.165364 0.170531,-0.439248 0,-0.186035 -0.106797,-0.273885 -0.106798,-0.08957 -0.330729,-0.08957 z m -0.292833,-0.285943 h 0.757919 q 0.354844,0 0.540879,0.158475 0.186035,0.158474 0.186035,0.458196 0,0.428914 -0.275607,0.675237 -0.275607,0.246324 -0.757919,0.246324 h -0.401353 l -0.201538,1.033527 h -0.349676 z"
         style="stroke-width:0.352778;fill:#000000"
         id="path17814" /><path
         d="m 41.860313,72.706844 h 1.524451 l -0.05684,0.292833 H 42.1497 l -0.148139,0.761364 h 1.124822 l -0.05512,0.292833 h -1.126544 l -0.179144,0.931896 h 1.209226 l -0.05684,0.292833 h -1.558903 z"
         style="stroke-width:0.352778;fill:#000000"
         id="path17816" /></g><g
       aria-label="COMPRESS"
       transform="translate(4.2761287,1.4178625)"
       id="text2575"
       style="font-style:italic;font-size:3.52777px;font-family:Menlo;-inkscape-font-specification:'Menlo Italic';text-align:center;text-anchor:middle;white-space:pre;inline-size:25.8261;display:inline;opacity:1;fill:#000000;stroke-width:0.352777;stroke-linecap:round;paint-order:fill markers stroke"><path
         d="m 31.162721,88.722876 q -0.144693,0.07062 -0.292832,0.105075 -0.146416,0.03617 -0.303168,0.03617 -0.396185,0 -0.614948,-0.229099 -0.217041,-0.229098 -0.217041,-0.642509 0,-0.378959 0.120578,-0.751029 0.120578,-0.372069 0.316948,-0.608058 0.184313,-0.223931 0.406521,-0.330728 0.222208,-0.106798 0.506428,-0.106798 0.137803,0 0.273884,0.03617 0.136081,0.03617 0.265272,0.105076 l -0.07062,0.356566 q -0.110243,-0.10852 -0.232544,-0.161919 -0.1223,-0.0534 -0.260104,-0.0534 -0.163642,0 -0.303168,0.07062 -0.139526,0.0689 -0.261826,0.211872 -0.179145,0.211873 -0.289388,0.542602 -0.10852,0.330728 -0.10852,0.663179 0,0.298 0.134358,0.456474 0.134359,0.158474 0.387573,0.158474 0.146416,0 0.301445,-0.05512 0.156752,-0.05512 0.308335,-0.160197 z"
         style="stroke-width:0.352778;fill:#000000"
         id="path17819" /><path
         d="m 32.525253,88.581627 q 0.146417,0 0.27044,-0.08785 0.124023,-0.08785 0.204983,-0.251492 0.127468,-0.249769 0.206705,-0.604613 0.07924,-0.354844 0.07924,-0.682127 0,-0.244601 -0.09129,-0.360012 -0.08957,-0.117133 -0.279052,-0.117133 -0.146416,0 -0.268717,0.08785 -0.122301,0.08785 -0.20326,0.251491 -0.130914,0.253214 -0.210151,0.604613 -0.07924,0.351399 -0.07924,0.678683 0,0.246323 0.08957,0.363456 0.0913,0.117133 0.280774,0.117133 z m 1.117931,-1.524451 q 0,0.18948 -0.03962,0.411688 -0.0379,0.222208 -0.111965,0.456474 -0.04995,0.158474 -0.108521,0.28422 -0.05684,0.125746 -0.124023,0.227376 -0.151584,0.218763 -0.339341,0.323838 -0.187757,0.103353 -0.437526,0.103353 -0.346232,0 -0.513318,-0.211873 -0.167087,-0.211873 -0.167087,-0.652844 0,-0.191203 0.03617,-0.409966 0.0379,-0.220486 0.111966,-0.454752 0.04995,-0.158474 0.106797,-0.284219 0.05857,-0.125746 0.125746,-0.227376 0.151584,-0.218763 0.339341,-0.322116 0.187758,-0.105075 0.437526,-0.105075 0.347954,0 0.515041,0.211873 0.168809,0.21015 0.168809,0.649399 z"
         style="stroke-width:0.352778;fill:#000000"
         id="path17821" /><path
         d="m 34.178895,86.242413 h 0.463365 l 0.18948,1.302243 0.713133,-1.302243 h 0.465087 l -0.501261,2.571758 h -0.320393 l 0.444417,-2.285816 -0.747584,1.369422 H 34.64226 l -0.198093,-1.369422 -0.440971,2.285816 h -0.320393 z"
         style="stroke-width:0.352778;fill:#000000"
         id="path17823" /><path
         d="m 36.790272,86.528355 -0.187757,0.966347 h 0.403075 q 0.28422,0 0.453029,-0.163642 0.170532,-0.165364 0.170532,-0.439248 0,-0.186035 -0.106798,-0.273885 -0.106798,-0.08957 -0.330728,-0.08957 z M 36.49744,86.242413 h 0.757919 q 0.354844,0 0.540879,0.158474 0.186034,0.158474 0.186034,0.458196 0,0.428914 -0.275607,0.675238 -0.275607,0.246323 -0.757919,0.246323 h -0.401353 l -0.201537,1.033527 h -0.349677 z"
         style="stroke-width:0.352778;fill:#000000"
         id="path17825" /><path
         d="m 39.351695,87.599777 q 0.124023,0.02412 0.198092,0.115411 0.07579,0.0913 0.16881,0.396185 l 0.208427,0.702798 h -0.346231 l -0.18259,-0.649399 q -0.07579,-0.268717 -0.170531,-0.353122 -0.09302,-0.0844 -0.282498,-0.0844 h -0.330728 l -0.211873,1.086925 h -0.349676 l 0.497815,-2.571758 h 0.716578 q 0.356567,0 0.551214,0.155029 0.19637,0.153306 0.19637,0.434081 0,0.315225 -0.179144,0.521931 -0.177422,0.206705 -0.484035,0.246323 z m -0.504706,-1.071422 -0.175699,0.912948 h 0.377237 q 0.280775,0 0.447861,-0.146416 0.16881,-0.148139 0.16881,-0.39274 0,-0.192925 -0.10852,-0.282497 -0.108521,-0.09129 -0.342787,-0.09129 z"
         style="stroke-width:0.352778;fill:#000000"
         id="path17827" /><path
         d="m 40.748678,86.242413 h 1.524451 l -0.05684,0.292832 h -1.17822 L 40.88993,87.29661 h 1.124822 l -0.05512,0.292832 h -1.126544 l -0.179144,0.931896 h 1.209226 l -0.05684,0.292833 h -1.558902 z"
         style="stroke-width:0.352778;fill:#000000"
         id="path17829" /><path
         d="m 44.255777,86.330262 -0.06718,0.353122 q -0.139526,-0.10163 -0.289387,-0.153306 -0.149862,-0.05168 -0.310058,-0.05168 -0.28422,0 -0.463365,0.141249 -0.179144,0.141248 -0.179144,0.360012 0,0.1223 0.0844,0.198092 0.08441,0.07579 0.306613,0.144694 l 0.208428,0.06718 q 0.280775,0.08613 0.409966,0.230821 0.130913,0.142971 0.130913,0.365179 0,0.404798 -0.285942,0.642509 -0.285943,0.235989 -0.780313,0.235989 -0.179144,0 -0.353121,-0.03962 -0.172255,-0.0379 -0.344509,-0.11541 l 0.07062,-0.360012 q 0.16881,0.118856 0.341064,0.175699 0.173977,0.05684 0.366902,0.05684 0.28422,0 0.461642,-0.151583 0.177422,-0.151584 0.177422,-0.384128 0,-0.141248 -0.07579,-0.218763 -0.07579,-0.07751 -0.304891,-0.148139 l -0.173977,-0.05684 q -0.316948,-0.09991 -0.444416,-0.225653 -0.125746,-0.127468 -0.125746,-0.335896 0,-0.380682 0.28422,-0.621838 0.28422,-0.242879 0.742417,-0.242879 0.137803,0 0.292832,0.03445 0.156752,0.03445 0.320393,0.09991 z"
         style="stroke-width:0.352778;fill:#000000"
         id="path17831" /><path
         d="m 46.379674,86.330262 -0.06718,0.353122 q -0.139526,-0.10163 -0.289388,-0.153306 -0.149861,-0.05168 -0.310058,-0.05168 -0.284219,0 -0.463364,0.141249 -0.179145,0.141248 -0.179145,0.360012 0,0.1223 0.0844,0.198092 0.08441,0.07579 0.306613,0.144694 l 0.208428,0.06718 q 0.280774,0.08613 0.409965,0.230821 0.130914,0.142971 0.130914,0.365179 0,0.404798 -0.285943,0.642509 -0.285942,0.235989 -0.780312,0.235989 -0.179145,0 -0.353122,-0.03962 -0.172254,-0.0379 -0.344508,-0.11541 l 0.07062,-0.360012 q 0.168809,0.118856 0.341064,0.175699 0.173976,0.05684 0.366901,0.05684 0.28422,0 0.461642,-0.151583 0.177422,-0.151584 0.177422,-0.384128 0,-0.141248 -0.07579,-0.218763 -0.07579,-0.07751 -0.30489,-0.148139 l -0.173977,-0.05684 q -0.316948,-0.09991 -0.444416,-0.225653 -0.125746,-0.127468 -0.125746,-0.335896 0,-0.380682 0.28422,-0.621838 0.284219,-0.242879 0.742416,-0.242879 0.137804,0 0.292833,0.03445 0.156751,0.03445 0.320393,0.09991 z"
         style="stroke-width:0.352778;fill:#000000"
         id="path17833" /></g><g
       aria-label="SYMMETRY"
       id="text2579"
       style="font-style:italic;font-size:3.52777px;font-family:Menlo;-inkscape-font-specification:'Menlo Italic';text-align:center;text-anchor:middle;opacity:1;fill:#000000;stroke-width:0.352777;stroke-linecap:round;paint-order:fill markers stroke"
       transform="translate(4.2333333)"><path
         d="m 31.459591,102.70156 -0.06718,0.35312 q -0.139526,-0.10163 -0.289388,-0.1533 -0.149861,-0.0517 -0.310058,-0.0517 -0.284219,0 -0.463364,0.14125 -0.179145,0.14125 -0.179145,0.36001 0,0.1223 0.08441,0.19809 0.08441,0.0758 0.306613,0.1447 l 0.208428,0.0672 q 0.280774,0.0861 0.409965,0.23082 0.130913,0.14297 0.130913,0.36518 0,0.40479 -0.285942,0.64251 -0.285942,0.23598 -0.780312,0.23598 -0.179145,0 -0.353122,-0.0396 -0.172254,-0.0379 -0.344509,-0.11541 l 0.07062,-0.36002 q 0.168809,0.11886 0.341063,0.1757 0.173977,0.0568 0.366902,0.0568 0.28422,0 0.461642,-0.15159 0.177422,-0.15158 0.177422,-0.38412 0,-0.14125 -0.07579,-0.21877 -0.07579,-0.0775 -0.30489,-0.14814 l -0.173977,-0.0568 q -0.316948,-0.0999 -0.444416,-0.22565 -0.125746,-0.12747 -0.125746,-0.3359 0,-0.38068 0.28422,-0.62184 0.284219,-0.24288 0.742416,-0.24288 0.137804,0 0.292833,0.0345 0.156751,0.0345 0.320393,0.0999 z"
         style="stroke-width:0.352778;fill:#000000"
         id="path17836" /><path
         d="m 31.943626,102.61371 h 0.347953 l 0.406521,1.12138 0.856104,-1.12138 h 0.375515 l -1.093816,1.41766 -0.222208,1.1541 h -0.356566 l 0.225653,-1.1541 z"
         style="stroke-width:0.352778;fill:#000000"
         id="path17838" /><path
         d="m 34.126089,102.61371 h 0.463364 l 0.18948,1.30225 0.713133,-1.30225 h 0.465087 l -0.50126,2.57176 h -0.320394 l 0.444417,-2.28582 -0.747584,1.36943 h -0.242879 l -0.198093,-1.36943 -0.440971,2.28582 h -0.320393 z"
         style="stroke-width:0.352778;fill:#000000"
         id="path17840" /><path
         d="m 36.249985,102.61371 h 0.463365 l 0.189479,1.30225 0.713134,-1.30225 h 0.465086 l -0.50126,2.57176 h -0.320393 l 0.444416,-2.28582 -0.747584,1.36943 H 36.71335 l -0.198093,-1.36943 -0.440971,2.28582 h -0.320393 z"
         style="stroke-width:0.352778;fill:#000000"
         id="path17842" /><path
         d="m 38.571974,102.61371 h 1.524452 l -0.05684,0.29283 h -1.17822 l -0.148139,0.76137 h 1.124821 l -0.05512,0.29283 h -1.126544 l -0.179145,0.9319 h 1.209226 l -0.05684,0.29283 h -1.558902 z"
         style="stroke-width:0.352778;fill:#000000"
         id="path17844" /><path
         d="m 40.435767,102.61371 h 1.9637 l -0.05684,0.29283 H 41.53475 l -0.440971,2.27893 H 40.74238 l 0.444416,-2.27893 h -0.807873 z"
         style="stroke-width:0.352778;fill:#000000"
         id="path17846" /><path
         d="m 43.546681,103.97108 q 0.124023,0.0241 0.198093,0.11541 0.07579,0.0913 0.168809,0.39618 l 0.208428,0.7028 h -0.346232 l -0.182589,-0.6494 q -0.07579,-0.26872 -0.170532,-0.35312 -0.09302,-0.0844 -0.282497,-0.0844 h -0.330729 l -0.211873,1.08692 h -0.349676 l 0.497815,-2.57176 h 0.716578 q 0.356567,0 0.551215,0.15503 0.19637,0.15331 0.19637,0.43408 0,0.31523 -0.179145,0.52193 -0.177422,0.20671 -0.484035,0.24633 z m -0.504705,-1.07143 -0.1757,0.91295 h 0.377237 q 0.280775,0 0.447862,-0.14641 0.168809,-0.14814 0.168809,-0.39274 0,-0.19293 -0.10852,-0.2825 -0.10852,-0.0913 -0.342786,-0.0913 z"
         style="stroke-width:0.352778;fill:#000000"
         id="path17848" /><path
         d="m 44.687005,102.61371 h 0.347954 l 0.40652,1.12138 0.856105,-1.12138 h 0.375514 l -1.093815,1.41766 -0.222208,1.1541 h -0.356567 l 0.225653,-1.1541 z"
         style="stroke-width:0.352778;fill:#000000"
         id="path17850" /></g><g
       aria-label="DENSITY"
       id="text2583"
       style="font-style:italic;font-size:3.52777px;font-family:Menlo;-inkscape-font-specification:'Menlo Italic';text-align:center;text-anchor:middle;opacity:1;fill:#000000;stroke-width:0.352777;stroke-linecap:round;paint-order:fill markers stroke"
       transform="translate(4.2333333)"><path
         d="m 31.132309,119.85296 q 0.31867,0 0.511595,-0.1068 0.192925,-0.10852 0.310058,-0.3514 0.09302,-0.19809 0.151584,-0.47198 0.06029,-0.2756 0.06029,-0.5047 0,-0.30317 -0.141248,-0.43408 -0.141249,-0.13092 -0.4737,-0.13092 h -0.19637 l -0.389295,1.99988 z m 0.451306,-2.28582 q 0.470255,0 0.702798,0.2136 0.234266,0.21359 0.234266,0.64767 0,0.27906 -0.07235,0.57533 -0.07235,0.29628 -0.194647,0.52538 -0.179145,0.32901 -0.447862,0.47025 -0.266994,0.13953 -0.723468,0.13953 h -0.521931 l 0.50126,-2.57176 z"
         style="stroke-width:0.352778;fill:#000000"
         id="path17853" /><path
         d="m 33.290656,117.56714 h 1.524452 l -0.05684,0.29284 h -1.17822 l -0.148139,0.76136 h 1.124821 l -0.05512,0.29283 h -1.126544 l -0.179145,0.9319 h 1.209226 l -0.05684,0.29283 h -1.558902 z"
         style="stroke-width:0.352778;fill:#000000"
         id="path17855" /><path
         d="m 35.312923,117.56714 h 0.440971 l 0.454752,2.11701 0.411688,-2.11701 h 0.335896 l -0.501261,2.57176 h -0.440971 l -0.454751,-2.11701 -0.413411,2.11701 h -0.334174 z"
         style="stroke-width:0.352778;fill:#000000"
         id="path17857" /><path
         d="m 38.921652,117.65499 -0.06718,0.35312 q -0.139526,-0.10163 -0.289387,-0.1533 -0.149862,-0.0517 -0.310058,-0.0517 -0.28422,0 -0.463365,0.14125 -0.179144,0.14125 -0.179144,0.36001 0,0.1223 0.0844,0.19809 0.08441,0.0758 0.306613,0.1447 l 0.208428,0.0672 q 0.280775,0.0861 0.409966,0.23082 0.130913,0.14297 0.130913,0.36518 0,0.40479 -0.285942,0.64251 -0.285943,0.23598 -0.780313,0.23598 -0.179144,0 -0.353121,-0.0396 -0.172255,-0.0379 -0.344509,-0.11541 l 0.07062,-0.36002 q 0.16881,0.11886 0.341064,0.1757 0.173977,0.0569 0.366902,0.0569 0.28422,0 0.461642,-0.15159 0.177422,-0.15158 0.177422,-0.38412 0,-0.14125 -0.07579,-0.21877 -0.07579,-0.0775 -0.304891,-0.14814 l -0.173977,-0.0568 q -0.316948,-0.0999 -0.444416,-0.22565 -0.125746,-0.12747 -0.125746,-0.3359 0,-0.38068 0.28422,-0.62184 0.28422,-0.24288 0.742417,-0.24288 0.137803,0 0.292832,0.0345 0.156752,0.0345 0.320393,0.0999 z"
         style="stroke-width:0.352778;fill:#000000"
         id="path17859" /><path
         d="m 39.665791,117.56714 h 1.429712 l -0.05684,0.29284 H 40.49778 l -0.384127,1.98609 h 0.540878 l -0.05684,0.29283 H 39.16798 l 0.05684,-0.29283 h 0.539156 l 0.38585,-1.98609 h -0.540879 z"
         style="stroke-width:0.352778;fill:#000000"
         id="path17861" /><path
         d="m 41.526139,117.56714 h 1.9637 l -0.05684,0.29284 h -0.807873 l -0.440972,2.27892 h -0.351399 l 0.444417,-2.27892 h -0.807873 z"
         style="stroke-width:0.352778;fill:#000000"
         id="path17863" /><path
         d="m 43.65348,117.56714 h 0.347954 l 0.40652,1.12138 0.856105,-1.12138 h 0.375514 l -1.093815,1.41766 -0.222208,1.1541 h -0.356567 l 0.225653,-1.1541 z"
         style="stroke-width:0.352778;fill:#000000"
         id="path17865" /></g><g
       aria-label="L"
       id="text22807"
       style="font-style:italic;font-size:2.82222px;font-family:Menlo;-inkscape-font-specification:'Menlo Italic';text-align:center;text-anchor:middle;fill:#000000;stroke-width:0.352777;stroke-linecap:round;paint-order:fill markers stroke"
       transform="translate(0,-0.52916667)"><path
         d="M 8.4783805,121.04598 H 8.756744 l -0.3555336,1.82315 h 0.9935648 l -0.045475,0.23426 H 8.0773717 Z"
         style="stroke-width:0.352778;fill:#000000"
         id="path23664" /></g><g
       aria-label="R"
       id="text22811"
       style="font-style:italic;font-size:2.82222px;font-family:Menlo;-inkscape-font-specification:'Menlo Italic';text-align:center;text-anchor:middle;fill:#000000;stroke-width:0.352777;stroke-linecap:round;paint-order:fill markers stroke"
       transform="translate(0,-0.52916667)"><path
         d="m 15.840487,122.13188 q 0.09922,0.0193 0.158474,0.0923 0.06063,0.073 0.135047,0.31694 l 0.166743,0.56224 h -0.276986 l -0.146071,-0.51952 q -0.06063,-0.21497 -0.136426,-0.28249 -0.07441,-0.0675 -0.225998,-0.0675 h -0.264583 l -0.169499,0.86954 h -0.279741 l 0.398252,-2.05741 h 0.573264 q 0.285253,0 0.440972,0.12403 0.157096,0.12264 0.157096,0.34726 0,0.25218 -0.143316,0.41755 -0.141938,0.16536 -0.387228,0.19706 z m -0.403765,-0.85714 -0.14056,0.73036 h 0.30179 q 0.22462,0 0.35829,-0.11714 0.135047,-0.11851 0.135047,-0.31419 0,-0.15434 -0.08682,-0.226 -0.08682,-0.073 -0.274229,-0.073 z"
         style="stroke-width:0.352778;fill:#000000"
         id="path23667" /></g><g
       aria-label="L"
       id="text22815"
       style="font-style:italic;font-size:2.82222px;font-family:Menlo;-inkscape-font-specification:'Menlo Italic';text-align:center;text-anchor:middle;fill:#000000;stroke-width:0.352777;stroke-linecap:round;paint-order:fill markers stroke"
       transform="translate(0,-0.52916667)"><path
         d="m 59.190186,121.04598 h 0.278363 l -0.355533,1.82315 h 0.993565 l -0.04548,0.23426 h -1.271928 z"
         style="stroke-width:0.352778;fill:#000000"
         id="path23661" /></g><g
       aria-label="R"
       id="text22819"
       style="font-style:italic;font-size:2.82222px;font-family:Menlo;-inkscape-font-specification:'Menlo Italic';text-align:center;text-anchor:middle;fill:#000000;stroke-width:0.352777;stroke-linecap:round;paint-order:fill markers stroke"
       transform="translate(0,-0.52916667)"><path
         d="m 66.552292,122.13188 q 0.09922,0.0193 0.158474,0.0923 0.06063,0.073 0.135048,0.31694 l 0.166742,0.56224 h -0.276985 l -0.146072,-0.51952 q -0.06063,-0.21497 -0.136426,-0.28249 -0.07441,-0.0675 -0.225998,-0.0675 h -0.264583 l -0.169499,0.86954 h -0.279741 l 0.398253,-2.05741 h 0.573263 q 0.285254,0 0.440972,0.12403 0.157096,0.12264 0.157096,0.34726 0,0.25218 -0.143316,0.41755 -0.141938,0.16536 -0.387228,0.19706 z m -0.403765,-0.85714 -0.14056,0.73036 h 0.30179 q 0.22462,0 0.35829,-0.11714 0.135048,-0.11851 0.135048,-0.31419 0,-0.15434 -0.08682,-0.226 -0.08682,-0.073 -0.274229,-0.073 z"
         style="stroke-width:0.352778;fill:#000000"
         id="path23670" /></g></g><g
     id="g17888"
     inkscape:label="components"
     style="display:none"><circle
       cx="27.917547"
       cy="69.152466"
       r="2.4996161"
       style="clip-rule:evenodd;display:inline;fill:#ff0000;fill-opacity:1;fill-rule:evenodd;stroke-width:0.0427285;stroke-linecap:round;stroke-linejoin:round;stroke-miterlimit:1.5"
       id="circle153"
       inkscape:label="SHAPE_ATT" /><circle
       cx="27.917547"
       cy="83.985168"
       r="2.4996161"
       style="clip-rule:evenodd;display:inline;fill:#ff0000;fill-opacity:1;fill-rule:evenodd;stroke-width:0.0427285;stroke-linecap:round;stroke-linejoin:round;stroke-miterlimit:1.5"
       id="circle12601"
       inkscape:label="COMPRESS_ATT" /><circle
       cx="27.917547"
       cy="99.018311"
       r="2.4996161"
       style="clip-rule:evenodd;display:inline;fill:#ff0000;fill-opacity:1;fill-rule:evenodd;stroke-width:0.0427285;stroke-linecap:round;stroke-linejoin:round;stroke-miterlimit:1.5"
       id="circle12603"
       inkscape:label="SYMMETRY_ATT" /><circle
       cx="27.917547"
       cy="114.2519"
       r="2.4996161"
       style="clip-rule:evenodd;display:inline;fill:#ff0000;fill-opacity:1;fill-rule:evenodd;stroke-width:0.0427285;stroke-linecap:round;stroke-linejoin:round;stroke-miterlimit:1.5"
       id="circle12605"
       inkscape:label="DENSITY_ATT" /><rect
       x="7.9811254"
       y="12.960738"
       width="29.938946"
       height="32.607563"
       style="clip-rule:evenodd;display:inline;fill:#ffff00;fill-rule:evenodd;stroke-width:0.109407;stroke-linecap:round;stroke-linejoin:round;stroke-miterlimit:1.5"
       id="DELAY_FX_WIDGET"
       inkscape:label="FUNCTION_DISPLAY" /><rect
       x="38.247856"
       y="12.960738"
       width="29.938946"
       height="32.607563"
       style="clip-rule:evenodd;display:inline;fill:#ffff00;fill-rule:evenodd;stroke-width:0.109407;stroke-linecap:round;stroke-linejoin:round;stroke-miterlimit:1.5"
       id="rect13355"
       inkscape:label="SCOPE_DISPLAY" /><circle
       cx="6.6145821"
       cy="70.755997"
       r="4.0671587"
       style="clip-rule:evenodd;display:inline;fill:#00ff00;fill-opacity:1;fill-rule:evenodd;stroke-width:0.0695241;stroke-linecap:round;stroke-linejoin:round;stroke-miterlimit:1.5"
       id="CLOCK_INPUT"
       inkscape:label="AUDIO_IN_R" /><circle
       cx="6.6145821"
       cy="57.326389"
       r="4.0671587"
       style="clip-rule:evenodd;display:inline;fill:#00ff00;fill-opacity:1;fill-rule:evenodd;stroke-width:0.0695241;stroke-linecap:round;stroke-linejoin:round;stroke-miterlimit:1.5"
       id="circle14105"
       inkscape:label="AUDIO_IN_L" /><circle
       cx="69.152466"
       cy="70.755997"
       r="4.0671587"
       style="clip-rule:evenodd;display:inline;fill:#0000ff;fill-opacity:1;fill-rule:evenodd;stroke-width:0.0695241;stroke-linecap:round;stroke-linejoin:round;stroke-miterlimit:1.5"
       id="NOTES_OUTPUT"
       inkscape:label="AUDIO_OUT_R" /><circle
       cx="69.152466"
       cy="57.326389"
       r="4.0671587"
       style="clip-rule:evenodd;display:inline;fill:#0000ff;fill-opacity:1;fill-rule:evenodd;stroke-width:0.0695241;stroke-linecap:round;stroke-linejoin:round;stroke-miterlimit:1.5"
       id="circle14855"
       inkscape:label="AUDIO_OUT_L" /><circle
       cx="56.925503"
       cy="69.352905"
       r="4.8297496"
       style="clip-rule:evenodd;display:inline;fill:#ff0000;fill-opacity:1;fill-rule:evenodd;stroke-width:0.0825598;stroke-linecap:round;stroke-linejoin:round;stroke-miterlimit:1.5"
       id="circle277"
       inkscape:label="SHAPE_PARAM" /><circle
       cx="56.925503"
       cy="84.386047"
       r="4.8297496"
       style="clip-rule:evenodd;display:inline;fill:#ff0000;fill-opacity:1;fill-rule:evenodd;stroke-width:0.0825598;stroke-linecap:round;stroke-linejoin:round;stroke-miterlimit:1.5"
       id="circle16331"
       inkscape:label="COMPRESS_PARAM" /><circle
       cx="56.925503"
       cy="99.619637"
       r="4.8297496"
       style="clip-rule:evenodd;display:inline;fill:#ff0000;fill-opacity:1;fill-rule:evenodd;stroke-width:0.0825598;stroke-linecap:round;stroke-linejoin:round;stroke-miterlimit:1.5"
       id="circle16333"
       inkscape:label="SYMMETRY_PARAM" /><circle
       cx="56.925503"
       cy="113.85101"
       r="4.8297496"
       style="clip-rule:evenodd;display:inline;fill:#ff0000;fill-opacity:1;fill-rule:evenodd;stroke-width:0.0825598;stroke-linecap:round;stroke-linejoin:round;stroke-miterlimit:1.5"
       id="circle16335"
       inkscape:label="DENSITY_PARAM1" /><circle
       cx="68.751579"
       cy="113.85101"
       r="4.8297496"
       style="clip-rule:evenodd;display:inline;fill:#ff0000;fill-opacity:1;fill-rule:evenodd;stroke-width:0.0825598;stroke-linecap:round;stroke-linejoin:round;stroke-miterlimit:1.5"
       id="circle16337"
       inkscape:label="DENSITY_PARAM2" /><circle
       cx="6.6145821"
       cy="114.25189"
       r="4.0671587"
       style="clip-rule:evenodd;display:inline;fill:#00ff00;fill-opacity:1;fill-rule:evenodd;stroke-width:0.0695241;stroke-linecap:round;stroke-linejoin:round;stroke-miterlimit:1.5"
       id="circle16339"
       inkscape:label="DENSITY_IN1" /><circle
       cx="19.242422"
       cy="114.25189"
       r="4.0671587"
       style="clip-rule:evenodd;display:inline;fill:#00ff00;fill-opacity:1;fill-rule:evenodd;stroke-width:0.0695241;stroke-linecap:round;stroke-linejoin:round;stroke-miterlimit:1.5"
       id="circle16341"
       inkscape:label="DENSITY_IN2" /><circle
       cx="19.242422"
       cy="99.018303"
       r="4.0671587"
       style="clip-rule:evenodd;display:inline;fill:#00ff00;fill-opacity:1;fill-rule:evenodd;stroke-width:0.0695241;stroke-linecap:round;stroke-linejoin:round;stroke-miterlimit:1.5"
       id="circle16343"
       inkscape:label="SYMMETRY_IN" /><circle
       cx="19.242422"
       cy="83.985161"
       r="4.0671587"
       style="clip-rule:evenodd;display:inline;fill:#00ff00;fill-opacity:1;fill-rule:evenodd;stroke-width:0.0695241;stroke-linecap:round;stroke-linejoin:round;stroke-miterlimit:1.5"
       id="circle16345"
       inkscape:label="COMPRESS_IN" /><circle
       cx="19.242422"
       cy="68.751572"
       r="4.0671587"
       style="clip-rule:evenodd;display:inline;fill:#00ff00;fill-opacity:1;fill-rule:evenodd;stroke-width:0.0695241;stroke-linecap:round;stroke-linejoin:round;stroke-miterlimit:1.5"
       id="circle16347"
       inkscape:label="SHAPE_IN" /></g></svg>
