<?xml version="1.0" encoding="UTF-8" standalone="no"?>
<!-- Created with Inkscape (http://www.inkscape.org/) -->

<svg
   width="76.199997mm"
   height="128.5mm"
   viewBox="0 0 76.200005 128.50002"
   version="1.1"
   id="svg8"
   inkscape:version="1.2 (dc2aeda, 2022-05-15)"
   sodipodi:docname="TriDelay-dark.svg"
   xml:space="preserve"
   xmlns:inkscape="http://www.inkscape.org/namespaces/inkscape"
   xmlns:sodipodi="http://sodipodi.sourceforge.net/DTD/sodipodi-0.dtd"
   xmlns="http://www.w3.org/2000/svg"
   xmlns:svg="http://www.w3.org/2000/svg"
   xmlns:rdf="http://www.w3.org/1999/02/22-rdf-syntax-ns#"
   xmlns:cc="http://creativecommons.org/ns#"
   xmlns:dc="http://purl.org/dc/elements/1.1/"><defs
     id="defs2" /><sodipodi:namedview
     id="base"
     pagecolor="#ffffff"
     bordercolor="#666666"
     borderopacity="1.0"
     inkscape:pageopacity="0.0"
     inkscape:pageshadow="2"
     inkscape:zoom="1.2325395"
     inkscape:cx="139.54928"
     inkscape:cy="234.47524"
     inkscape:document-units="mm"
     inkscape:current-layer="g1"
     showgrid="false"
     units="mm"
     inkscape:snap-bbox="true"
     inkscape:snap-page="true"
     inkscape:bbox-nodes="false"
     inkscape:snap-bbox-edge-midpoints="false"
     inkscape:window-width="1467"
     inkscape:window-height="900"
     inkscape:window-x="0"
     inkscape:window-y="38"
     inkscape:window-maximized="0"
     inkscape:snap-bbox-midpoints="true"
     inkscape:snap-nodes="false"
     inkscape:showpageshadow="2"
     inkscape:pagecheckerboard="0"
     inkscape:deskcolor="#d1d1d1" /><metadata
     id="metadata5"><rdf:RDF><cc:Work
         rdf:about=""><dc:format>image/svg+xml</dc:format><dc:type
           rdf:resource="http://purl.org/dc/dcmitype/StillImage" /></cc:Work></rdf:RDF></metadata><g
     id="g1"><rect
       id="rect1"
       x="-0.1665577"
       y="-0.38949111"
       width="77.001762"
       height="129.94316"
       style="clip-rule:evenodd;display:inline;fill:#202020;fill-rule:evenodd;stroke-width:0.432576;stroke-linejoin:round;stroke-miterlimit:1.5" /><rect
       style="display:inline;fill:#3b3b3b;fill-opacity:1;stroke:#d08658;stroke-width:0.352778;stroke-linejoin:round;stroke-dasharray:none;stroke-opacity:1"
       id="rect48"
       width="14.474549"
       height="23.308886"
       x="109.33342"
       y="-72.898384"
       rx="5.0000005"
       ry="5.0000005"
       transform="rotate(90)" /><g
       id="g3297"><path
         id="path128"
         d="m 34.914777,125.9342 c 0.05984,0.1268 0.07943,0.25396 0.05842,0.38219 h -0.419235 c -0.0064,-0.0983 -0.02565,-0.1724 -0.05842,-0.22227 -0.05735,-0.089 -0.160997,-0.13357 -0.310597,-0.13357 -0.152449,0 -0.28602,0.0627 -0.4,0.18843 -0.114337,0.12538 -0.195192,0.30276 -0.242921,0.5325 -0.04809,0.22974 -0.03776,0.40143 0.0317,0.51612 0.0691,0.11433 0.175246,0.17133 0.318434,0.17133 0.147106,0 0.269635,-0.0492 0.367587,-0.14747 0.05378,-0.0524 0.105432,-0.13179 0.155298,-0.23722 h 0.415317 c -0.08264,0.22333 -0.213357,0.40463 -0.391452,0.54461 -0.178451,0.13927 -0.384328,0.20944 -0.617632,0.20944 -0.288513,0 -0.495815,-0.0944 -0.621906,-0.28317 -0.125379,-0.18985 -0.153162,-0.44986 -0.08442,-0.78076 0.07409,-0.35726 0.225468,-0.63295 0.453429,-0.82636 0.198753,-0.16848 0.424221,-0.2529 0.676403,-0.2529 0.337667,0 0.560642,0.11327 0.669992,0.3391 z"
         style="clip-rule:evenodd;fill:#ffffff;fill-rule:nonzero;stroke-width:0.356189;stroke-linejoin:round;stroke-miterlimit:1.5" /><path
         id="path129"
         d="m 35.843006,127.18869 0.764026,-1.55441 h 0.435619 l -1.110954,2.04667 h -0.396083 l -0.252181,-2.04667 h 0.448442 z"
         style="clip-rule:evenodd;fill:#ffffff;fill-rule:nonzero;stroke-width:0.356189;stroke-linejoin:round;stroke-miterlimit:1.5" /><path
         id="path130"
         d="m 38.625912,126.18139 -0.05877,0.27925 h -0.253963 l -0.253607,1.22031 h -0.386466 l 0.253606,-1.22031 h -0.216919 l 0.05842,-0.27925 h 0.212645 l 0.01995,-0.0972 c 0.03419,-0.16207 0.08406,-0.27355 0.149955,-0.33482 0.07551,-0.0905 0.220482,-0.13606 0.43562,-0.13606 0.02458,0 0.04666,7.1e-4 0.06625,0.002 0.01959,0.001 0.04666,0.004 0.08121,0.006 l -0.06803,0.32271 c -0.02102,-0.003 -0.05699,-0.005 -0.107569,-0.006 -0.05093,-10e-4 -0.08905,0.01 -0.113981,0.0345 -0.02493,0.0246 -0.03989,0.0516 -0.04559,0.0812 -0.0064,0.0299 -0.01532,0.0723 -0.02743,0.12787 z"
         style="clip-rule:evenodd;fill:#ffffff;fill-rule:nonzero;stroke-width:0.356189;stroke-linejoin:round;stroke-miterlimit:1.5" /><path
         id="path131"
         d="m 39.532769,127.46759 c -0.0043,0.005 -0.01638,0.0185 -0.03562,0.0417 -0.01888,0.0232 -0.04025,0.0431 -0.06376,0.0609 -0.07266,0.0556 -0.139626,0.0933 -0.200891,0.11363 -0.06091,0.0203 -0.129653,0.0306 -0.206234,0.0306 -0.219412,0 -0.350846,-0.0801 -0.393232,-0.2415 -0.02386,-0.0887 -0.01745,-0.21977 0.01888,-0.39287 l 0.189492,-0.91256 h 0.397151 l -0.189136,0.91256 c -0.01817,0.0862 -0.02173,0.15066 -0.01104,0.19447 0.01923,0.0769 0.0805,0.11541 0.183794,0.11541 0.132502,0 0.234728,-0.0549 0.306678,-0.1642 0.03811,-0.0591 0.06732,-0.13749 0.08727,-0.23438 l 0.171327,-0.82386 h 0.393233 l -0.314515,1.51345 h -0.376849 z"
         style="clip-rule:evenodd;fill:#ffffff;fill-rule:nonzero;stroke-width:0.356189;stroke-linejoin:round;stroke-miterlimit:1.5" /><path
         id="path132"
         d="m 41.378898,126.76091 c 0.0171,-0.0798 0.01959,-0.14105 0.0068,-0.18344 -0.02173,-0.078 -0.08584,-0.11683 -0.193055,-0.11683 -0.13179,0 -0.234016,0.057 -0.306323,0.17062 -0.03847,0.0605 -0.06696,0.13749 -0.08584,0.23081 l -0.170259,0.81888 h -0.386465 l 0.314159,-1.51096 h 0.374711 l -0.04631,0.22084 c 0.0659,-0.0773 0.125023,-0.13357 0.177026,-0.16777 0.09225,-0.0613 0.200179,-0.0915 0.322352,-0.0915 0.153517,0 0.270347,0.0406 0.350846,0.12289 0.08014,0.0819 0.100801,0.21763 0.06162,0.40748 l -0.212289,1.01906 h -0.397507 z"
         style="clip-rule:evenodd;fill:#ffffff;fill-rule:nonzero;stroke-width:0.356189;stroke-linejoin:round;stroke-miterlimit:1.5" /><path
         id="path133"
         d="m 42.41897,127.20543 -0.09759,0.47552 h -0.381484 l 0.424934,-2.0399 h 0.381122 l -0.230454,1.10312 0.601959,-0.5699 h 0.480856 l -0.640072,0.57952 0.346928,0.92716 H 42.83678 l -0.220125,-0.64684 z"
         style="clip-rule:evenodd;fill:#ffffff;fill-rule:nonzero;stroke-width:0.356189;stroke-linejoin:round;stroke-miterlimit:1.5" /><path
         id="path134"
         d="m 25.633555,126.66688 h 6.62227"
         style="clip-rule:evenodd;fill:none;fill-rule:evenodd;stroke:#d08c59;stroke-width:0.227961px;stroke-linecap:round;stroke-linejoin:round;stroke-miterlimit:1.5" /><path
         id="path135"
         d="m 43.944172,126.66688 h 6.62227"
         style="clip-rule:evenodd;fill:none;fill-rule:evenodd;stroke:#d08c59;stroke-width:0.227961px;stroke-linecap:round;stroke-linejoin:round;stroke-miterlimit:1.5" /></g><g
       aria-label="TRI DELAY"
       id="text491"
       style="font-style:italic;font-size:5.64444px;font-family:Menlo;-inkscape-font-specification:'Menlo Italic';text-align:center;text-anchor:middle;fill:#ffffff;stroke-width:0.352777"><path
         d="m 22.960883,2.7563301 h 3.141925 l -0.09095,0.4685327 h -1.292599 l -0.705555,3.6462863 h -0.562239 l 0.711067,-3.6462863 h -1.292599 z"
         style="stroke-width:0.352778"
         id="path559" /><path
         d="m 27.938353,4.9281167 q 0.198437,0.038585 0.316949,0.184657 0.121267,0.1460719 0.270095,0.633897 l 0.333485,1.1244784 h -0.553971 l -0.292144,-1.03904 Q 27.8915,5.4021615 27.739916,5.2671138 27.591088,5.1320662 27.28792,5.1320662 h -0.529167 l -0.338997,1.7390829 h -0.559483 l 0.796506,-4.114819 h 1.146526 q 0.570508,0 0.881944,0.2480467 0.314193,0.2452906 0.314193,0.6945307 0,0.5043616 -0.286632,0.8350906 -0.283876,0.3307289 -0.774457,0.3941186 z m -0.80753,-1.7142782 -0.281119,1.4607193 h 0.60358 q 0.44924,0 0.716579,-0.2342663 0.270096,-0.2370224 0.270096,-0.6283849 0,-0.3086803 -0.173633,-0.4519962 -0.173633,-0.1460719 -0.548459,-0.1460719 z"
         style="stroke-width:0.352778"
         id="path561" /><path
         d="m 30.179041,2.7563301 h 2.287542 l -0.09095,0.4685327 h -0.865408 l -0.614604,3.1777536 h 0.865407 l -0.09095,0.4685327 h -2.287542 l 0.09095,-0.4685327 h 0.862652 l 0.61736,-3.1777536 h -0.865407 z"
         style="stroke-width:0.352778"
         id="path563" /><path
         d="m 36.914887,6.4136407 q 0.509874,0 0.818554,-0.1708766 0.30868,-0.1736327 0.496094,-0.5622391 0.148828,-0.3169486 0.242534,-0.7551644 0.09646,-0.4409719 0.09646,-0.8075298 0,-0.485069 -0.225998,-0.6945307 Q 38.116532,3.2138385 37.58461,3.2138385 h -0.314192 l -0.622873,3.1998022 z m 0.722092,-3.6573106 q 0.752408,0 1.124478,0.3417532 0.374826,0.3417533 0.374826,1.036284 0,0.446484 -0.115755,0.9205288 Q 38.904773,5.5289409 38.709091,5.8954988 38.42246,6.421909 37.992512,6.647907 37.565321,6.8711491 36.834961,6.8711491 H 35.99987 l 0.802018,-4.114819 z"
         style="stroke-width:0.352778"
         id="path565" /><path
         d="m 40.368248,2.7563301 h 2.439125 l -0.09095,0.4685327 h -1.885155 l -0.237022,1.2181848 h 1.799716 l -0.08819,0.4685326 h -1.802473 l -0.286631,1.4910362 h 1.934764 l -0.09095,0.4685327 H 39.56623 Z"
         style="stroke-width:0.352778"
         id="path567" /><path
         d="m 43.835391,2.7563301 h 0.556727 L 43.68105,6.4026164 h 1.98713 l -0.09095,0.4685327 h -2.543857 z"
         style="stroke-width:0.352778"
         id="path569" /><path
         d="m 48.242353,3.2193506 -1.003211,2.1332015 h 1.185112 z M 47.97777,2.7563301 h 0.677994 l 0.457508,4.114819 H 48.559301 L 48.462839,5.7990362 H 47.02968 l -0.507117,1.0721129 h -0.598069 z"
         style="stroke-width:0.352778"
         id="path571" /><path
         d="m 50.152312,2.7563301 h 0.556727 l 0.650433,1.7942044 1.369769,-1.7942044 h 0.600825 l -1.750108,2.2682492 -0.355533,1.8465698 h -0.570508 l 0.361046,-1.8465698 z"
         style="stroke-width:0.352778"
         id="path573" /></g><path
       id="path28"
       d="m 7.786968,45.730453 h 6.548721"
       style="clip-rule:evenodd;display:inline;fill:#000000;fill-opacity:0;fill-rule:evenodd;stroke:#d08658;stroke-width:0.35277778;stroke-linecap:round;stroke-linejoin:round;stroke-miterlimit:1.5;stroke-opacity:1;stroke-dasharray:none" /><path
       id="path29"
       d="m 28.128303,45.730453 h 6.548722"
       style="clip-rule:evenodd;display:inline;fill:#000000;fill-opacity:0;fill-rule:evenodd;stroke:#d08658;stroke-width:0.35277778;stroke-linecap:round;stroke-linejoin:round;stroke-miterlimit:1.5;stroke-opacity:1;stroke-dasharray:none" /><g
       aria-label="DELAY"
       id="text822"
       style="font-style:italic;font-size:3.52778px;font-family:Menlo;-inkscape-font-specification:'Menlo Italic';text-align:center;text-anchor:middle;opacity:1;fill:#ffffff;stroke-width:0.352777"><path
         d="m 16.448476,46.730391 q 0.318671,0 0.511597,-0.106798 0.192925,-0.10852 0.310058,-0.3514 0.09302,-0.198093 0.151585,-0.471978 0.06029,-0.275608 0.06029,-0.504707 0,-0.303168 -0.141249,-0.434082 -0.141249,-0.130914 -0.473701,-0.130914 h -0.196371 l -0.389296,1.999879 z m 0.451307,-2.285822 q 0.470256,0 0.7028,0.213596 0.234267,0.213596 0.234267,0.647679 0,0.279052 -0.07235,0.575331 -0.07235,0.296278 -0.194648,0.525377 -0.179145,0.329007 -0.447863,0.470256 -0.266995,0.139527 -0.72347,0.139527 h -0.521933 l 0.501262,-2.571766 z"
         style="stroke-width:0.352778"
         id="path3025" /><path
         d="m 18.606829,44.444569 h 1.524456 l -0.05684,0.292833 h -1.178223 l -0.14814,0.761367 h 1.124825 l -0.05512,0.292833 h -1.126547 l -0.179145,0.931899 h 1.20923 l -0.05685,0.292834 h -1.558906 z"
         style="stroke-width:0.352778"
         id="path3027" /><path
         d="m 20.773796,44.444569 h 0.347955 l -0.444418,2.278932 h 1.241958 l -0.05684,0.292834 h -1.589913 z"
         style="stroke-width:0.352778"
         id="path3029" /><path
         d="m 23.528152,44.733957 -0.627008,1.333253 h 0.740696 z m -0.165365,-0.289388 h 0.423747 l 0.285943,2.571766 h -0.346232 l -0.06029,-0.670072 H 22.77023 l -0.316949,0.670072 h -0.373793 z"
         style="stroke-width:0.352778"
         id="path3031" /><path
         d="m 24.721878,44.444569 h 0.347955 l 0.406521,1.121379 0.856107,-1.121379 h 0.375516 l -1.093819,1.417658 -0.222208,1.154108 h -0.356568 l 0.225654,-1.154108 z"
         style="stroke-width:0.352778"
         id="path3033" /></g><path
       id="path824"
       d="m 7.786968,61.648475 h 6.548721"
       style="clip-rule:evenodd;display:inline;fill:#000000;fill-opacity:0;fill-rule:evenodd;stroke:#d08658;stroke-width:0.35277778;stroke-linecap:round;stroke-linejoin:round;stroke-miterlimit:1.5;stroke-opacity:1;stroke-dasharray:none" /><path
       id="path826"
       d="m 28.128303,61.648475 h 6.548722"
       style="clip-rule:evenodd;display:inline;fill:#000000;fill-opacity:0;fill-rule:evenodd;stroke:#d08658;stroke-width:0.35277778;stroke-linecap:round;stroke-linejoin:round;stroke-miterlimit:1.5;stroke-opacity:1;stroke-dasharray:none" /><g
       aria-label="PAN"
       id="text830"
       style="font-style:italic;font-size:3.52778px;font-family:Menlo;-inkscape-font-specification:'Menlo Italic';text-align:center;text-anchor:middle;opacity:1;fill:#ffffff;stroke-width:0.352777"><path
         d="m 18.896218,60.648534 -0.187758,0.96635 h 0.403076 q 0.284221,0 0.453031,-0.163642 0.170532,-0.165365 0.170532,-0.43925 0,-0.186035 -0.106798,-0.273885 -0.106798,-0.08957 -0.33073,-0.08957 z m -0.292834,-0.285943 h 0.757922 q 0.354845,0 0.54088,0.158475 0.186035,0.158474 0.186035,0.458198 0,0.428914 -0.275607,0.675239 -0.275608,0.246324 -0.757922,0.246324 h -0.401354 l -0.201538,1.03353 h -0.349677 z"
         style="stroke-width:0.352778"
         id="path3018" /><path
         d="m 21.404249,60.651979 -0.627008,1.333253 h 0.740696 z m -0.165365,-0.289388 h 0.423747 l 0.285943,2.571766 h -0.346232 l -0.06029,-0.670072 h -0.895726 l -0.316949,0.670072 h -0.373793 z"
         style="stroke-width:0.352778"
         id="path3020" /><path
         d="m 22.753005,60.362591 h 0.440972 l 0.454753,2.117013 0.411689,-2.117013 h 0.335897 l -0.501262,2.571766 h -0.440972 l -0.454753,-2.117013 -0.413412,2.117013 h -0.334174 z"
         style="stroke-width:0.352778"
         id="path3022" /></g><path
       id="path834"
       d="m 30.745564,78.42693 h 4.888549"
       style="clip-rule:evenodd;display:inline;fill:#000000;fill-opacity:0;fill-rule:evenodd;stroke:#d08658;stroke-width:0.35277778;stroke-linecap:round;stroke-linejoin:round;stroke-miterlimit:1.5;stroke-opacity:1;stroke-dasharray:none" /><g
       aria-label="FEEDBACK"
       id="text838"
       style="font-style:italic;font-size:3.52778px;font-family:Menlo;-inkscape-font-specification:'Menlo Italic';text-align:center;text-anchor:middle;opacity:1;fill:#ffffff;stroke-width:0.352777"><path
         d="m 13.893419,77.141049 h 1.514121 l -0.05684,0.292833 h -1.164443 l -0.148139,0.757922 h 1.0542 l -0.05512,0.292833 h -1.055923 l -0.239434,1.228177 h -0.349678 z"
         style="stroke-width:0.352778"
         id="path3001" /><path
         d="m 15.950142,77.141049 h 1.524456 l -0.05684,0.292833 h -1.178223 l -0.14814,0.761367 h 1.124825 l -0.05512,0.292833 h -1.126547 l -0.179145,0.931899 h 1.20923 l -0.05684,0.292833 h -1.558906 z"
         style="stroke-width:0.352778"
         id="path3003" /><path
         d="m 18.074045,77.141049 h 1.524456 l -0.05684,0.292833 h -1.178224 l -0.148139,0.761367 h 1.124825 l -0.05512,0.292833 H 18.15845 l -0.179145,0.931899 h 1.209229 l -0.05684,0.292833 h -1.558906 z"
         style="stroke-width:0.352778"
         id="path3005" /><path
         d="m 20.163497,79.426871 q 0.318672,0 0.511597,-0.106798 0.192926,-0.10852 0.310059,-0.3514 0.09302,-0.198093 0.151584,-0.471978 0.06029,-0.275608 0.06029,-0.504707 0,-0.303169 -0.141249,-0.434082 -0.141249,-0.130914 -0.473701,-0.130914 h -0.19637 l -0.389296,1.999879 z m 0.451308,-2.285822 q 0.470256,0 0.7028,0.213596 0.234266,0.213596 0.234266,0.647678 0,0.279053 -0.07235,0.575332 -0.07235,0.296278 -0.194648,0.525377 -0.179145,0.329007 -0.447862,0.470256 -0.266995,0.139526 -0.723471,0.139526 h -0.521932 l 0.501262,-2.571765 z"
         style="stroke-width:0.352778"
         id="path3007" /><path
         d="m 22.358024,78.484637 -0.184312,0.942234 h 0.427192 q 0.316949,0 0.484036,-0.149862 0.16881,-0.149861 0.16881,-0.432359 0,-0.184313 -0.117134,-0.272163 -0.117133,-0.08785 -0.363457,-0.08785 z m 0.203261,-1.057645 -0.151584,0.775147 h 0.420302 q 0.260105,0 0.408244,-0.124024 0.149862,-0.125746 0.149862,-0.344509 0,-0.16192 -0.09646,-0.234267 -0.09474,-0.07235 -0.310059,-0.07235 z m -0.292833,-0.285943 h 0.763089 q 0.349677,0 0.528822,0.137804 0.179146,0.136081 0.179146,0.401354 0,0.265272 -0.158475,0.444417 -0.158474,0.177423 -0.427192,0.211874 0.215319,0.03962 0.329007,0.1757 0.115411,0.136081 0.115411,0.349677 0,0.403077 -0.275608,0.627008 -0.273886,0.223931 -0.775147,0.223931 h -0.778592 z"
         style="stroke-width:0.352778"
         id="path3009" /><path
         d="m 25.119271,77.430437 -0.627008,1.333253 h 0.740696 z m -0.165365,-0.289388 h 0.423747 l 0.285943,2.571765 h -0.346232 l -0.06029,-0.670071 H 24.361349 L 24.0444,79.712814 h -0.373793 z"
         style="stroke-width:0.352778"
         id="path3011" /><path
         d="m 27.603186,79.621519 q -0.144694,0.07062 -0.292834,0.105076 -0.146416,0.03617 -0.303168,0.03617 -0.396186,0 -0.61495,-0.229099 -0.217041,-0.229099 -0.217041,-0.64251 0,-0.378961 0.120578,-0.751032 0.120579,-0.37207 0.316949,-0.60806 0.184313,-0.223931 0.406522,-0.330729 0.222209,-0.106798 0.506429,-0.106798 0.137804,0 0.273885,0.03617 0.136082,0.03617 0.265273,0.105075 l -0.07062,0.356568 q -0.110243,-0.108521 -0.232544,-0.16192 -0.122301,-0.0534 -0.260105,-0.0534 -0.163642,0 -0.303168,0.07063 -0.139527,0.0689 -0.261828,0.211873 -0.179145,0.211874 -0.289388,0.542603 -0.10852,0.330729 -0.10852,0.663181 0,0.298001 0.134358,0.456476 0.134359,0.158474 0.387574,0.158474 0.146417,0 0.301446,-0.05512 0.156752,-0.05512 0.308336,-0.160197 z"
         style="stroke-width:0.352778"
         id="path3013" /><path
         d="m 28.588483,77.141049 h 0.347955 l -0.218764,1.114489 1.278132,-1.114489 h 0.437527 l -1.210952,1.066258 0.737251,1.505507 h -0.377238 l -0.620118,-1.276408 -0.332452,0.289388 -0.192925,0.98702 h -0.349677 z"
         style="stroke-width:0.352778"
         id="path3015" /></g><g
       aria-label="WET/DRY"
       id="text846"
       style="font-style:italic;font-size:3.52778px;font-family:Menlo;-inkscape-font-specification:'Menlo Italic';text-align:center;text-anchor:middle;opacity:1;fill:#ffffff;stroke-width:0.352777"><path
         d="m 14.016237,93.059071 h 0.329006 l -0.155029,2.084284 0.566719,-1.378039 h 0.363457 l 0.02584,1.381484 0.649401,-2.087729 h 0.341064 l -0.8785,2.571765 H 14.92402 l -0.0534,-1.498617 -0.639066,1.498617 h -0.323839 z"
         style="stroke-width:0.352778"
         id="path2986" /><path
         d="m 16.482927,93.059071 h 1.524455 l -0.05684,0.292833 h -1.178223 l -0.148139,0.761367 H 17.749 l -0.05512,0.292833 h -1.126547 l -0.179146,0.931899 h 1.20923 l -0.05684,0.292833 h -1.558907 z"
         style="stroke-width:0.352778"
         id="path2988" /><path
         d="m 18.346725,93.059071 h 1.963705 l -0.05684,0.292833 h -0.807875 l -0.440973,2.278932 h -0.3514 l 0.444418,-2.278932 H 18.28988 Z"
         style="stroke-width:0.352778"
         id="path2990" /><path
         d="m 20.165736,95.958121 1.467612,-2.89905 h 0.329007 l -1.471057,2.89905 z"
         style="stroke-width:0.352778"
         id="path2992" /><path
         d="m 22.820184,95.344893 q 0.318672,0 0.511597,-0.106798 0.192926,-0.10852 0.310059,-0.3514 0.09302,-0.198093 0.151584,-0.471978 0.06029,-0.275608 0.06029,-0.504707 0,-0.303168 -0.141249,-0.434082 -0.141249,-0.130914 -0.473701,-0.130914 h -0.19637 l -0.389296,1.999879 z m 0.451308,-2.285822 q 0.470256,0 0.7028,0.213596 0.234266,0.213596 0.234266,0.647678 0,0.279053 -0.07235,0.575332 -0.07235,0.296278 -0.194648,0.525377 -0.179145,0.329007 -0.447862,0.470256 -0.266995,0.139526 -0.723471,0.139526 h -0.521932 l 0.501262,-2.571765 z"
         style="stroke-width:0.352778"
         id="path2994" /><path
         d="m 25.705454,94.41644 q 0.124023,0.02412 0.198093,0.11541 0.07579,0.09129 0.16881,0.396187 l 0.208428,0.702799 h -0.346232 l -0.18259,-0.6494 q -0.07579,-0.268718 -0.170533,-0.353123 -0.09302,-0.08441 -0.282498,-0.08441 h -0.330729 l -0.211873,1.086928 h -0.349678 l 0.497817,-2.571765 h 0.71658 q 0.356568,0 0.551216,0.155029 0.19637,0.153307 0.19637,0.434083 0,0.315226 -0.179145,0.521932 -0.177422,0.206706 -0.484036,0.246325 z m -0.504707,-1.071426 -0.1757,0.912951 h 0.377238 q 0.280776,0 0.447863,-0.146417 0.16881,-0.148139 0.16881,-0.392741 0,-0.192925 -0.108521,-0.282498 -0.10852,-0.09129 -0.342787,-0.09129 z"
         style="stroke-width:0.352778"
         id="path2996" /><path
         d="m 26.845781,93.059071 h 0.347955 l 0.406521,1.121379 0.856107,-1.121379 h 0.375516 l -1.093819,1.417658 -0.222209,1.154107 h -0.356567 l 0.225654,-1.154107 z"
         style="stroke-width:0.352778"
         id="path2998" /></g><path
       id="path1404"
       d="M 7.3470573,78.42693 H 12.235606"
       style="clip-rule:evenodd;display:inline;fill:#000000;fill-opacity:0;fill-rule:evenodd;stroke:#d08658;stroke-width:0.352778;stroke-linecap:round;stroke-linejoin:round;stroke-miterlimit:1.5;stroke-dasharray:none;stroke-opacity:1" /><path
       id="path1406"
       d="m 30.745564,94.508596 h 4.888549"
       style="clip-rule:evenodd;display:inline;fill:#000000;fill-opacity:0;fill-rule:evenodd;stroke:#d08658;stroke-width:0.352778;stroke-linecap:round;stroke-linejoin:round;stroke-miterlimit:1.5;stroke-dasharray:none;stroke-opacity:1" /><path
       id="path1408"
       d="M 7.3470573,94.508596 H 12.235606"
       style="clip-rule:evenodd;display:inline;fill:#000000;fill-opacity:0;fill-rule:evenodd;stroke:#d08658;stroke-width:0.352778;stroke-linecap:round;stroke-linejoin:round;stroke-miterlimit:1.5;stroke-dasharray:none;stroke-opacity:1" /><path
       id="path1410"
       d="M 31.905465,52.742584 H 66.319622"
       style="clip-rule:evenodd;display:inline;fill:#000000;fill-opacity:0;fill-rule:evenodd;stroke:#d08658;stroke-width:0.286245;stroke-linecap:round;stroke-linejoin:round;stroke-miterlimit:1.5;stroke-dasharray:none;stroke-opacity:1" /><path
       id="path1412"
       d="M 31.905465,68.875741 H 66.319622"
       style="clip-rule:evenodd;display:inline;fill:#000000;fill-opacity:0;fill-rule:evenodd;stroke:#d08658;stroke-width:0.286245;stroke-linecap:round;stroke-linejoin:round;stroke-miterlimit:1.5;stroke-dasharray:none;stroke-opacity:1" /><path
       id="path1414"
       d="M 31.905465,85.008898 H 66.319622"
       style="clip-rule:evenodd;display:inline;fill:#000000;fill-opacity:0;fill-rule:evenodd;stroke:#d08658;stroke-width:0.286245;stroke-linecap:round;stroke-linejoin:round;stroke-miterlimit:1.5;stroke-dasharray:none;stroke-opacity:1" /><g
       aria-label="I"
       id="text1418"
       style="font-style:italic;font-size:3.52778px;font-family:Menlo;-inkscape-font-specification:'Menlo Italic';text-align:center;text-anchor:middle;opacity:1;fill:#ffffff;stroke-width:0.352777"><path
         d="m 46.923333,44.444569 h 1.429715 l -0.05684,0.292833 h -0.54088 l -0.384129,1.986099 h 0.540881 l -0.05684,0.292834 h -1.429716 l 0.05684,-0.292834 h 0.539158 l 0.385851,-1.986099 h -0.54088 z"
         style="stroke-width:0.352778"
         id="path3036" /></g><g
       aria-label="II"
       id="text1422"
       style="font-style:italic;font-size:3.52778px;font-family:Menlo;-inkscape-font-specification:'Menlo Italic';text-align:center;text-anchor:middle;opacity:1;fill:#ffffff;stroke-width:0.352777"><path
         d="m 55.735981,44.444569 h 1.429715 l -0.05684,0.292833 h -0.54088 l -0.384128,1.986099 h 0.54088 l -0.05684,0.292834 h -1.429716 l 0.05684,-0.292834 h 0.539158 l 0.385851,-1.986099 h -0.54088 z"
         style="stroke-width:0.352778"
         id="path3039" /><path
         d="m 57.859884,44.444569 h 1.429715 l -0.05684,0.292833 h -0.54088 l -0.384129,1.986099 h 0.540881 l -0.05684,0.292834 h -1.429716 l 0.05684,-0.292834 h 0.539158 l 0.385851,-1.986099 h -0.54088 z"
         style="stroke-width:0.352778"
         id="path3041" /></g><g
       aria-label="III"
       id="text1426"
       style="font-style:italic;font-size:3.52778px;font-family:Menlo;-inkscape-font-specification:'Menlo Italic';text-align:center;text-anchor:middle;opacity:1;fill:#ffffff;stroke-width:0.352777"><path
         d="m 64.763297,44.444569 h 1.429716 l -0.05684,0.292833 h -0.540881 l -0.384128,1.986099 h 0.54088 l -0.05684,0.292834 h -1.429715 l 0.05684,-0.292834 h 0.539157 l 0.385851,-1.986099 h -0.54088 z"
         style="stroke-width:0.352778"
         id="path3044" /><path
         d="m 66.8872,44.444569 h 1.429716 l -0.05685,0.292833 h -0.54088 l -0.384128,1.986099 h 0.54088 l -0.05684,0.292834 h -1.429716 l 0.05685,-0.292834 h 0.539157 l 0.385851,-1.986099 h -0.54088 z"
         style="stroke-width:0.352778"
         id="path3046" /><path
         d="m 69.011103,44.444569 h 1.429715 l -0.05684,0.292833 h -0.54088 l -0.384128,1.986099 h 0.54088 l -0.05684,0.292834 h -1.429716 l 0.05684,-0.292834 h 0.539158 l 0.385851,-1.986099 h -0.54088 z"
         style="stroke-width:0.352778"
         id="path3048" /></g><g
       aria-label="TAPS"
       id="text1430"
       style="font-style:italic;font-size:3.52778px;font-family:Menlo;-inkscape-font-specification:'Menlo Italic';text-align:center;text-anchor:middle;opacity:1;fill:#ffffff;stroke-width:0.352777"><path
         d="m 53.777857,39.9366 h 1.963706 l -0.05684,0.292833 h -0.807876 l -0.440972,2.278933 h -0.3514 l 0.444417,-2.278933 h -0.807875 z"
         style="stroke-width:0.352778"
         id="path3051" /><path
         d="m 56.835381,40.225988 -0.627007,1.333253 H 56.94907 Z M 56.670017,39.9366 h 0.423747 l 0.285943,2.571766 h -0.346233 l -0.06029,-0.670072 H 56.07746 l -0.316949,0.670072 h -0.373793 z"
         style="stroke-width:0.352778"
         id="path3053" /><path
         d="m 58.575156,40.222543 -0.187758,0.96635 h 0.403076 q 0.284221,0 0.453031,-0.163642 0.170532,-0.165365 0.170532,-0.43925 0,-0.186035 -0.106798,-0.273885 -0.106798,-0.08957 -0.330729,-0.08957 z M 58.282322,39.9366 h 0.757922 q 0.354845,0 0.54088,0.158475 0.186036,0.158474 0.186036,0.458198 0,0.428914 -0.275608,0.675239 -0.275608,0.246324 -0.757922,0.246324 h -0.401354 l -0.201538,1.03353 h -0.349677 z"
         style="stroke-width:0.352778"
         id="path3055" /><path
         d="m 61.792877,40.02445 -0.06718,0.353123 q -0.139527,-0.101631 -0.289389,-0.153307 -0.149861,-0.05168 -0.310058,-0.05168 -0.284221,0 -0.463366,0.141249 -0.179145,0.141249 -0.179145,0.360013 0,0.122301 0.08441,0.198093 0.0844,0.07579 0.306614,0.144694 l 0.208428,0.06718 q 0.280775,0.08613 0.409967,0.230821 0.130913,0.142972 0.130913,0.365181 0,0.404799 -0.285943,0.64251 -0.285943,0.23599 -0.780314,0.23599 -0.179146,0 -0.353123,-0.03962 -0.172255,-0.0379 -0.34451,-0.115411 l 0.07062,-0.360013 q 0.16881,0.118856 0.341064,0.1757 0.173978,0.05684 0.366903,0.05684 0.284221,0 0.461643,-0.151585 0.177423,-0.151584 0.177423,-0.384128 0,-0.141249 -0.07579,-0.218764 -0.07579,-0.07751 -0.304891,-0.148139 l -0.173978,-0.05684 q -0.316949,-0.09991 -0.444417,-0.225654 -0.125746,-0.127469 -0.125746,-0.335897 0,-0.380683 0.28422,-0.62184 0.284221,-0.24288 0.742419,-0.24288 0.137804,0 0.292833,0.03445 0.156752,0.03445 0.320394,0.09991 z"
         style="stroke-width:0.352778"
         id="path3057" /></g><path
       id="path1432"
       d="M 47.395221,51.420731 V 85.834888"
       style="clip-rule:evenodd;display:inline;fill:#000000;fill-opacity:0;fill-rule:evenodd;stroke:#d08658;stroke-width:0.286245;stroke-linecap:round;stroke-linejoin:round;stroke-miterlimit:1.5;stroke-dasharray:none;stroke-opacity:1" /><path
       id="path1434"
       d="M 57.484485,51.420731 V 85.834888"
       style="clip-rule:evenodd;display:inline;fill:#000000;fill-opacity:0;fill-rule:evenodd;stroke:#d08658;stroke-width:0.286245;stroke-linecap:round;stroke-linejoin:round;stroke-miterlimit:1.5;stroke-dasharray:none;stroke-opacity:1" /><path
       id="path1436"
       d="M 67.573749,51.420731 V 85.834888"
       style="clip-rule:evenodd;display:inline;fill:#000000;fill-opacity:0;fill-rule:evenodd;stroke:#d08658;stroke-width:0.286245;stroke-linecap:round;stroke-linejoin:round;stroke-miterlimit:1.5;stroke-dasharray:none;stroke-opacity:1" /><g
       aria-label="OUT"
       id="text1440"
       style="font-style:italic;font-size:3.52778px;font-family:Menlo;-inkscape-font-specification:'Menlo Italic';text-align:center;text-anchor:middle;opacity:1;fill:#ffffff;stroke-width:0.352777"
       transform="translate(0,-1.0583333)"><path
         d="m 58.592054,113.74435 q 0.146417,0 0.270441,-0.0879 0.124023,-0.0878 0.204983,-0.2515 0.127468,-0.24977 0.206706,-0.60461 0.07924,-0.35485 0.07924,-0.68213 0,-0.2446 -0.09129,-0.36001 -0.08957,-0.11714 -0.279053,-0.11714 -0.146417,0 -0.268718,0.0879 -0.122301,0.0879 -0.20326,0.2515 -0.130914,0.25321 -0.210151,0.60461 -0.07924,0.3514 -0.07924,0.67869 0,0.24632 0.08957,0.36345 0.0913,0.11714 0.280775,0.11714 z m 1.117935,-1.52446 q 0,0.18948 -0.03962,0.41169 -0.0379,0.22221 -0.111966,0.45648 -0.04995,0.15847 -0.10852,0.28422 -0.05684,0.12574 -0.124024,0.22737 -0.151584,0.21877 -0.339342,0.32384 -0.187758,0.10335 -0.437527,0.10335 -0.346233,0 -0.51332,-0.21187 -0.167087,-0.21187 -0.167087,-0.65285 0,-0.1912 0.03617,-0.40996 0.0379,-0.22049 0.111966,-0.45475 0.04995,-0.15848 0.106798,-0.28423 0.05857,-0.12574 0.125746,-0.22737 0.151584,-0.21877 0.339342,-0.32212 0.187758,-0.10507 0.437528,-0.10507 0.347955,0 0.515042,0.21187 0.16881,0.21015 0.16881,0.6494 z"
         style="stroke-width:0.352778"
         id="path2962" /><path
         d="m 60.049331,112.98987 0.306613,-1.58474 h 0.349678 l -0.308336,1.58474 q -0.0034,0.0224 -0.01378,0.0706 -0.05168,0.26528 -0.05168,0.36691 0,0.15847 0.09302,0.23771 0.09474,0.0792 0.284221,0.0792 0.153307,0 0.260105,-0.0482 0.106798,-0.05 0.184313,-0.15676 0.0379,-0.0534 0.07579,-0.18259 0.03962,-0.13091 0.08613,-0.3669 l 0.306614,-1.58474 h 0.349677 l -0.306613,1.58474 q -0.07235,0.37724 -0.15503,0.55466 -0.08096,0.1757 -0.215318,0.28422 -0.122301,0.0965 -0.279053,0.14814 -0.156752,0.05 -0.339342,0.05 -0.33073,0 -0.509875,-0.15502 -0.177422,-0.15503 -0.177422,-0.44098 0,-0.0637 0.01378,-0.17225 0.0155,-0.10852 0.04651,-0.26872 z"
         style="stroke-width:0.352778"
         id="path2964" /><path
         d="m 62.307592,111.40513 h 1.963706 l -0.05684,0.29283 h -0.807875 l -0.440973,2.27893 h -0.3514 l 0.444418,-2.27893 h -0.807876 z"
         style="stroke-width:0.352778"
         id="path2966" /></g><g
       aria-label="IN"
       id="text1444"
       style="font-style:italic;font-size:3.52778px;font-family:Menlo;-inkscape-font-specification:'Menlo Italic';text-align:center;text-anchor:middle;opacity:1;fill:#ffffff;stroke-width:0.352777"><path
         d="m 15.164257,110.56145 h 1.429715 l -0.05684,0.29283 h -0.54088 l -0.384128,1.9861 H 16.153 l -0.05684,0.29284 H 14.66644 l 0.05684,-0.29284 h 0.539158 l 0.385851,-1.9861 h -0.54088 z"
         style="stroke-width:0.352778"
         id="path2981" /><path
         d="m 17.183084,110.56145 h 0.440973 l 0.454753,2.11701 0.411689,-2.11701 h 0.335897 l -0.501262,2.57177 h -0.440972 l -0.454753,-2.11702 -0.413412,2.11702 h -0.334174 z"
         style="stroke-width:0.352778"
         id="path2983" /></g><g
       aria-label="L"
       id="text1448"
       style="font-style:italic;font-size:2.82222px;font-family:Menlo;-inkscape-font-specification:'Menlo Italic';text-align:center;text-anchor:middle;opacity:1;fill:#ffffff;stroke-width:0.352777"><path
         d="m 9.481807,120.75073 h 0.2783635 l -0.3555336,1.82315 h 0.9935651 l -0.04548,0.23426 H 9.0807982 Z"
         style="stroke-width:0.352778"
         id="path2978" /></g><g
       aria-label="R"
       id="text1452"
       style="font-style:italic;font-size:2.82222px;font-family:Menlo;-inkscape-font-specification:'Menlo Italic';text-align:center;text-anchor:middle;opacity:1;fill:#ffffff;stroke-width:0.352777"><path
         d="m 23.76746,121.83663 q 0.09922,0.0193 0.158474,0.0923 0.06063,0.073 0.135048,0.31694 l 0.166742,0.56224 h -0.276985 l -0.146072,-0.51952 q -0.06063,-0.21497 -0.136426,-0.28249 -0.07441,-0.0675 -0.225998,-0.0675 H 23.17766 l -0.169499,0.86954 H 22.72842 l 0.398253,-2.05741 h 0.573263 q 0.285254,0 0.440972,0.12403 0.157096,0.12264 0.157096,0.34726 0,0.25218 -0.143316,0.41755 -0.141938,0.16536 -0.387228,0.19706 z m -0.403765,-0.85714 -0.14056,0.73036 h 0.30179 q 0.22462,0 0.35829,-0.11714 0.135048,-0.11851 0.135048,-0.31419 0,-0.15434 -0.08682,-0.226 -0.08682,-0.073 -0.274229,-0.073 z"
         style="stroke-width:0.352778"
         id="path2975" /></g><g
       aria-label="L"
       id="text1456"
       style="font-style:italic;font-size:2.82222px;font-family:Menlo;-inkscape-font-specification:'Menlo Italic';text-align:center;text-anchor:middle;opacity:1;fill:#ffffff;stroke-width:0.352777"><path
         d="m 53.702839,120.75073 h 0.278364 l -0.355534,1.82315 h 0.993565 l -0.04547,0.23426 H 53.30183 Z"
         style="stroke-width:0.352778"
         id="path2969" /></g><g
       aria-label="R"
       id="text1460"
       style="font-style:italic;font-size:2.82222px;font-family:Menlo;-inkscape-font-specification:'Menlo Italic';text-align:center;text-anchor:middle;opacity:1;fill:#ffffff;stroke-width:0.352777"><path
         d="m 67.988487,121.83663 q 0.09922,0.0193 0.158475,0.0923 0.06063,0.073 0.135047,0.31694 l 0.166743,0.56224 h -0.276986 l -0.146072,-0.51952 q -0.06063,-0.21497 -0.136425,-0.28249 -0.07441,-0.0675 -0.225999,-0.0675 h -0.264583 l -0.169498,0.86954 h -0.279742 l 0.398253,-2.05741 h 0.573263 q 0.285254,0 0.440972,0.12403 0.157097,0.12264 0.157097,0.34726 0,0.25218 -0.143316,0.41755 -0.141938,0.16536 -0.387229,0.19706 z m -0.403765,-0.85714 -0.140559,0.73036 h 0.30179 q 0.22462,0 0.358289,-0.11714 0.135048,-0.11851 0.135048,-0.31419 0,-0.15434 -0.08682,-0.226 -0.08682,-0.073 -0.27423,-0.073 z"
         style="stroke-width:0.352778"
         id="path2972" /></g><rect
       style="display:inline;fill:#212121;fill-opacity:1;stroke:#d08658;stroke-width:0.352778;stroke-dasharray:none;stroke-opacity:1"
       id="rect2"
       width="67.980164"
       height="24.646191"
       x="4.1099167"
       y="11.182747"
       ry="5"
       rx="5" /><g
       aria-label="CLEAR"
       id="text3157"
       style="font-style:italic;font-size:2.82223px;font-family:Menlo;-inkscape-font-specification:'Menlo Italic';text-align:center;text-anchor:middle;opacity:1;fill:#ffffff;stroke-width:0.352777"
       transform="translate(0,0.52916667)"><path
         d="m 48.527728,95.023643 q -0.115756,0.0565 -0.234268,0.08406 -0.117133,0.02894 -0.242535,0.02894 -0.31695,0 -0.491961,-0.18328 -0.173633,-0.183279 -0.173633,-0.514009 0,-0.30317 0.09646,-0.600827 0.09646,-0.297657 0.253559,-0.486449 0.147451,-0.179145 0.325218,-0.264584 0.177768,-0.08544 0.405145,-0.08544 0.110243,0 0.219108,0.02894 0.108866,0.02894 0.212219,0.08406 l -0.0565,0.285255 q -0.08819,-0.08682 -0.186036,-0.129536 -0.09784,-0.04272 -0.208084,-0.04272 -0.130914,0 -0.242535,0.0565 -0.111622,0.05512 -0.209463,0.1695 -0.143316,0.169499 -0.231511,0.434083 -0.08682,0.264584 -0.08682,0.530546 0,0.238401 0.107487,0.365181 0.107487,0.12678 0.310059,0.12678 0.117134,0 0.241158,-0.0441 0.125401,-0.0441 0.246669,-0.128158 z"
         style="stroke-width:0.352778"
         id="path3172" /><path
         d="m 49.434479,93.039263 h 0.278365 l -0.355535,1.82315 h 0.993568 l -0.04547,0.234267 h -1.271933 z"
         style="stroke-width:0.352778"
         id="path3174" /><path
         d="m 51.099154,93.039263 h 1.219567 l -0.04547,0.234267 H 51.33067 l -0.118512,0.609095 h 0.899862 l -0.0441,0.234267 h -0.90124 l -0.143316,0.745521 h 0.967385 l -0.04547,0.234267 h -1.247128 z"
         style="stroke-width:0.352778"
         id="path3176" /><path
         d="m 53.337094,93.270774 -0.501607,1.066605 h 0.592558 z m -0.132292,-0.231511 h 0.338999 l 0.228755,2.057417 h -0.276987 l -0.04823,-0.536059 h -0.716582 l -0.25356,0.536059 h -0.299035 z"
         style="stroke-width:0.352778"
         id="path3178" /><path
         d="m 55.07894,94.12516 q 0.09922,0.01929 0.158474,0.09233 0.06063,0.07304 0.135049,0.31695 l 0.166743,0.562241 h -0.276987 l -0.146072,-0.519522 q -0.06063,-0.214975 -0.136426,-0.282499 -0.07441,-0.06752 -0.225999,-0.06752 h -0.264584 l -0.1695,0.869545 h -0.279742 l 0.398254,-2.057417 h 0.573266 q 0.285254,0 0.440973,0.124024 0.157097,0.122645 0.157097,0.347266 0,0.252182 -0.143317,0.417547 -0.141938,0.165365 -0.387229,0.19706 z m -0.403767,-0.857142 -0.14056,0.730362 h 0.301791 q 0.224621,0 0.358291,-0.117133 0.135048,-0.118512 0.135048,-0.314194 0,-0.154341 -0.08682,-0.225999 -0.08682,-0.07304 -0.274231,-0.07304 z"
         style="stroke-width:0.352778"
         id="path3180" /></g><g
       aria-label="HOLD"
       id="text3161"
       style="font-style:italic;font-size:2.82223px;font-family:Menlo;-inkscape-font-specification:'Menlo Italic';text-align:center;text-anchor:middle;opacity:1;fill:#ffffff;stroke-width:0.352777"
       transform="translate(0,0.52916667)"><path
         d="m 63.507962,93.039263 h 0.278364 l -0.162609,0.843362 h 0.762058 l 0.162609,-0.843362 h 0.279742 l -0.40101,2.057417 h -0.278365 l 0.191548,-0.979788 h -0.764813 l -0.188792,0.979788 h -0.279742 z"
         style="stroke-width:0.352778"
         id="path3163" /><path
         d="m 65.508879,94.910644 q 0.117134,0 0.216353,-0.07028 0.09922,-0.07028 0.163987,-0.201194 0.101975,-0.199816 0.165365,-0.483693 0.06339,-0.283877 0.06339,-0.545705 0,-0.195682 -0.07304,-0.28801 -0.07166,-0.09371 -0.223242,-0.09371 -0.117134,0 -0.214975,0.07028 -0.09784,0.07028 -0.162609,0.201194 -0.104731,0.202572 -0.168121,0.483693 -0.06339,0.28112 -0.06339,0.542948 0,0.19706 0.07166,0.290767 0.07304,0.09371 0.224621,0.09371 z m 0.894349,-1.219567 q 0,0.151584 -0.03169,0.329352 -0.03032,0.177767 -0.08957,0.365181 -0.03996,0.12678 -0.08682,0.227377 -0.04547,0.100597 -0.09922,0.181901 -0.121268,0.175012 -0.271474,0.259072 -0.150207,0.08268 -0.350023,0.08268 -0.276986,0 -0.410657,-0.169499 -0.13367,-0.169499 -0.13367,-0.522278 0,-0.152963 0.02894,-0.327974 0.03032,-0.17639 0.08957,-0.363803 0.03996,-0.12678 0.08544,-0.227377 0.04685,-0.100597 0.100597,-0.181902 0.121267,-0.175011 0.271474,-0.257694 0.150207,-0.08406 0.350023,-0.08406 0.278364,0 0.412034,0.169499 0.135048,0.168121 0.135048,0.519522 z"
         style="stroke-width:0.352778"
         id="path3165" /><path
         d="m 67.024725,93.039263 h 0.278365 l -0.355535,1.82315 h 0.993568 l -0.04548,0.234267 H 66.62371 Z"
         style="stroke-width:0.352778"
         id="path3167" /><path
         d="m 68.661839,94.867925 q 0.254938,0 0.409279,-0.08544 0.154341,-0.08682 0.248048,-0.28112 0.07441,-0.158475 0.121267,-0.377584 0.04823,-0.220487 0.04823,-0.403766 0,-0.242536 -0.113,-0.347267 -0.112999,-0.104731 -0.378961,-0.104731 h -0.157097 l -0.311438,1.599907 z m 0.361047,-1.828662 q 0.376206,0 0.562242,0.170877 0.187413,0.170877 0.187413,0.518144 0,0.223243 -0.05788,0.460266 -0.05788,0.237023 -0.155719,0.420303 -0.143317,0.263206 -0.358291,0.376205 -0.213597,0.111622 -0.578778,0.111622 h -0.417547 l 0.401011,-2.057417 z"
         style="stroke-width:0.352778"
         id="path3169" /></g></g></svg>
