<?xml version="1.0" encoding="UTF-8" standalone="no"?>
<!-- Created with Inkscape (http://www.inkscape.org/) -->

<svg
   width="101.6mm"
   height="128.5mm"
   viewBox="0 0 101.60001 128.50002"
   version="1.1"
   id="svg8"
   inkscape:version="1.2 (dc2aeda, 2022-05-15)"
   sodipodi:docname="Triton-dark.svg"
   xml:space="preserve"
   xmlns:inkscape="http://www.inkscape.org/namespaces/inkscape"
   xmlns:sodipodi="http://sodipodi.sourceforge.net/DTD/sodipodi-0.dtd"
   xmlns="http://www.w3.org/2000/svg"
   xmlns:svg="http://www.w3.org/2000/svg"
   xmlns:rdf="http://www.w3.org/1999/02/22-rdf-syntax-ns#"
   xmlns:cc="http://creativecommons.org/ns#"
   xmlns:dc="http://purl.org/dc/elements/1.1/"><defs
     id="defs2">
            
            
        
            
            
        
            
            
        </defs><sodipodi:namedview
     id="base"
     pagecolor="#ffffff"
     bordercolor="#666666"
     borderopacity="1.0"
     inkscape:pageopacity="0.0"
     inkscape:pageshadow="2"
     inkscape:zoom="1.4250686"
     inkscape:cx="159.29058"
     inkscape:cy="237.88329"
     inkscape:document-units="mm"
     inkscape:current-layer="svg8"
     showgrid="false"
     units="mm"
     inkscape:snap-bbox="true"
     inkscape:snap-page="true"
     inkscape:bbox-nodes="false"
     inkscape:snap-bbox-edge-midpoints="false"
     inkscape:window-width="1512"
     inkscape:window-height="916"
     inkscape:window-x="0"
     inkscape:window-y="38"
     inkscape:window-maximized="0"
     inkscape:snap-bbox-midpoints="true"
     inkscape:snap-nodes="false"
     inkscape:showpageshadow="2"
     inkscape:pagecheckerboard="0"
     inkscape:deskcolor="#d1d1d1"
     showguides="false" /><metadata
     id="metadata5"><rdf:RDF><cc:Work
         rdf:about=""><dc:format>image/svg+xml</dc:format><dc:type
           rdf:resource="http://purl.org/dc/dcmitype/StillImage" /></cc:Work></rdf:RDF></metadata><rect
     id="rect1"
     x="-0.16655771"
     y="-0.38949111"
     width="102.12192"
     height="129.14665"
     style="clip-rule:evenodd;fill:#202020;fill-rule:evenodd;stroke-width:0.497961;stroke-linejoin:round;stroke-miterlimit:1.5"
     sodipodi:insensitive="true" /><path
     id="path128"
     d="m 47.614778,125.9342 c 0.05984,0.1268 0.07943,0.25396 0.05842,0.38219 h -0.419235 c -0.0064,-0.0983 -0.02565,-0.1724 -0.05842,-0.22227 -0.05735,-0.089 -0.160997,-0.13357 -0.310597,-0.13357 -0.152449,0 -0.28602,0.0627 -0.4,0.18843 -0.114337,0.12538 -0.195192,0.30276 -0.242921,0.5325 -0.04809,0.22974 -0.03776,0.40143 0.0317,0.51612 0.0691,0.11433 0.175246,0.17133 0.318434,0.17133 0.147106,0 0.269635,-0.0492 0.367587,-0.14747 0.05378,-0.0524 0.105432,-0.13179 0.155298,-0.23722 h 0.415317 c -0.08264,0.22333 -0.213357,0.40463 -0.391452,0.54461 -0.178451,0.13927 -0.384328,0.20944 -0.617632,0.20944 -0.288513,0 -0.495815,-0.0944 -0.621906,-0.28317 -0.125379,-0.18985 -0.153162,-0.44986 -0.08442,-0.78076 0.07409,-0.35726 0.225468,-0.63295 0.453429,-0.82636 0.198753,-0.16848 0.424221,-0.2529 0.676403,-0.2529 0.337667,0 0.560642,0.11327 0.669992,0.3391 z"
     style="clip-rule:evenodd;fill:#ffffff;fill-rule:nonzero;stroke-width:0.356189;stroke-linejoin:round;stroke-miterlimit:1.5" /><path
     id="path129"
     d="m 48.543007,127.18869 0.764026,-1.55441 h 0.435619 l -1.110954,2.04667 h -0.396083 l -0.252181,-2.04667 h 0.448442 z"
     style="clip-rule:evenodd;fill:#ffffff;fill-rule:nonzero;stroke-width:0.356189;stroke-linejoin:round;stroke-miterlimit:1.5" /><path
     id="path130"
     d="m 51.325913,126.18139 -0.05877,0.27925 H 51.01318 l -0.253607,1.22031 h -0.386466 l 0.253606,-1.22031 h -0.216919 l 0.05842,-0.27925 h 0.212645 l 0.01995,-0.0972 c 0.03419,-0.16207 0.08406,-0.27355 0.149955,-0.33482 0.07551,-0.0905 0.220482,-0.13606 0.43562,-0.13606 0.02458,0 0.04666,7.1e-4 0.06625,0.002 0.01959,0.001 0.04666,0.004 0.08121,0.006 l -0.06803,0.32271 c -0.02102,-0.003 -0.05699,-0.005 -0.107569,-0.006 -0.05093,-10e-4 -0.08905,0.01 -0.113981,0.0345 -0.02493,0.0246 -0.03989,0.0516 -0.04559,0.0812 -0.0064,0.0299 -0.01532,0.0723 -0.02743,0.12787 z"
     style="clip-rule:evenodd;fill:#ffffff;fill-rule:nonzero;stroke-width:0.356189;stroke-linejoin:round;stroke-miterlimit:1.5" /><path
     id="path131"
     d="m 52.23277,127.46759 c -0.0043,0.005 -0.01638,0.0185 -0.03562,0.0417 -0.01888,0.0232 -0.04025,0.0431 -0.06376,0.0609 -0.07266,0.0556 -0.139626,0.0933 -0.200891,0.11363 -0.06091,0.0203 -0.129653,0.0306 -0.206234,0.0306 -0.219412,0 -0.350846,-0.0801 -0.393232,-0.2415 -0.02386,-0.0887 -0.01745,-0.21977 0.01888,-0.39287 l 0.189492,-0.91256 h 0.397151 l -0.189136,0.91256 c -0.01817,0.0862 -0.02173,0.15066 -0.01104,0.19447 0.01923,0.0769 0.0805,0.11541 0.183794,0.11541 0.132502,0 0.234728,-0.0549 0.306678,-0.1642 0.03811,-0.0591 0.06732,-0.13749 0.08727,-0.23438 l 0.171327,-0.82386 h 0.393233 l -0.314515,1.51345 h -0.376849 z"
     style="clip-rule:evenodd;fill:#ffffff;fill-rule:nonzero;stroke-width:0.356189;stroke-linejoin:round;stroke-miterlimit:1.5" /><path
     id="path132"
     d="m 54.078899,126.76091 c 0.0171,-0.0798 0.01959,-0.14105 0.0068,-0.18344 -0.02173,-0.078 -0.08584,-0.11683 -0.193055,-0.11683 -0.13179,0 -0.234016,0.057 -0.306323,0.17062 -0.03847,0.0605 -0.06696,0.13749 -0.08584,0.23081 l -0.170259,0.81888 h -0.386465 l 0.314159,-1.51096 h 0.374711 l -0.04631,0.22084 c 0.0659,-0.0773 0.125023,-0.13357 0.177026,-0.16777 0.09225,-0.0613 0.200179,-0.0915 0.322352,-0.0915 0.153517,0 0.270347,0.0406 0.350846,0.12289 0.08014,0.0819 0.100801,0.21763 0.06162,0.40748 l -0.212289,1.01906 h -0.397507 z"
     style="clip-rule:evenodd;fill:#ffffff;fill-rule:nonzero;stroke-width:0.356189;stroke-linejoin:round;stroke-miterlimit:1.5" /><path
     id="path133"
     d="m 55.118971,127.20543 -0.09759,0.47552 h -0.381484 l 0.424934,-2.0399 h 0.381122 l -0.230454,1.10312 0.601959,-0.5699 h 0.480856 l -0.640072,0.57952 0.346928,0.92716 h -0.468389 l -0.220125,-0.64684 z"
     style="clip-rule:evenodd;fill:#ffffff;fill-rule:nonzero;stroke-width:0.356189;stroke-linejoin:round;stroke-miterlimit:1.5" /><path
     id="path134"
     d="m 38.333556,126.66688 h 6.62227"
     style="clip-rule:evenodd;fill:none;fill-rule:evenodd;stroke:#d08c59;stroke-width:0.227961px;stroke-linecap:round;stroke-linejoin:round;stroke-miterlimit:1.5" /><path
     id="path135"
     d="m 56.644173,126.66688 h 6.62227"
     style="clip-rule:evenodd;fill:none;fill-rule:evenodd;stroke:#d08c59;stroke-width:0.227961px;stroke-linecap:round;stroke-linejoin:round;stroke-miterlimit:1.5" /><g
     aria-label="TRITON"
     id="text491"
     style="font-style:italic;font-size:5.64444px;font-family:Menlo;-inkscape-font-specification:'Menlo Italic';text-align:center;text-anchor:middle;fill:#e5e5e5;stroke:#000000;stroke-width:0.352999;paint-order:fill markers stroke"><path
       d="m 40.908451,2.7360154 h 3.141924 l -0.09095,0.4685327 H 42.666826 L 41.961271,6.8508344 H 41.399032 L 42.110099,3.2045481 H 40.8175 Z"
       style="fill:#ffffff;stroke:none"
       id="path547" /><path
       d="m 45.885921,4.907802 q 0.198437,0.038585 0.316948,0.184657 0.121268,0.1460719 0.270096,0.6338971 l 0.333485,1.1244783 h -0.553971 l -0.292144,-1.03904 Q 45.839068,5.3818468 45.687483,5.2467991 45.538655,5.1117515 45.235487,5.1117515 h -0.529166 l -0.338997,1.7390829 h -0.559483 l 0.796505,-4.114819 h 1.146527 q 0.570508,0 0.881944,0.2480467 0.314192,0.2452906 0.314192,0.6945307 0,0.5043616 -0.286631,0.8350906 -0.283876,0.3307289 -0.774457,0.3941186 z m -0.80753,-1.7142782 -0.28112,1.4607193 h 0.603581 q 0.44924,0 0.716579,-0.2342663 0.270095,-0.2370224 0.270095,-0.6283849 0,-0.3086803 -0.173632,-0.4519962 -0.173633,-0.1460719 -0.548459,-0.1460719 z"
       style="fill:#ffffff;stroke:none"
       id="path549" /><path
       d="m 48.126609,2.7360154 h 2.287542 L 50.3232,3.2045481 h -0.865407 l -0.614604,3.1777536 h 0.865407 l -0.09095,0.4685327 h -2.287541 l 0.09095,-0.4685327 h 0.862651 l 0.617361,-3.1777536 h -0.865407 z"
       style="fill:#ffffff;stroke:none"
       id="path551" /><path
       d="m 51.10317,2.7360154 h 3.141925 l -0.09095,0.4685327 H 52.861545 L 52.15599,6.8508344 h -0.562239 l 0.711067,-3.6462863 h -1.292599 z"
       style="fill:#ffffff;stroke:none"
       id="path553" /><path
       d="m 55.353036,6.4787643 q 0.234266,0 0.432704,-0.1405598 0.198437,-0.1405597 0.327973,-0.4023868 0.203949,-0.3996308 0.330728,-0.9673821 0.12678,-0.5677513 0.12678,-1.0914054 0,-0.3913626 -0.146072,-0.5760195 -0.143316,-0.1874131 -0.446484,-0.1874131 -0.234266,0 -0.429948,0.1405598 -0.195681,0.1405598 -0.325216,0.4023869 -0.209462,0.4051429 -0.336242,0.967382 -0.126779,0.5622392 -0.126779,1.0858933 0,0.3941186 0.143316,0.5815317 0.146072,0.187413 0.44924,0.187413 z m 1.788692,-2.4391257 q 0,0.3031682 -0.06339,0.6587017 -0.06063,0.3555336 -0.179145,0.7303597 -0.07993,0.2535589 -0.173633,0.4547523 -0.09095,0.2011934 -0.198437,0.3638018 -0.242535,0.3500214 -0.542947,0.518142 -0.300412,0.1653644 -0.700043,0.1653644 -0.553971,0 -0.82131,-0.3389971 -0.267339,-0.3389972 -0.267339,-1.0445522 0,-0.3059242 0.05788,-0.6559457 0.06063,-0.3527775 0.179145,-0.7276036 0.07993,-0.2535588 0.170877,-0.4547522 0.09371,-0.2011935 0.201193,-0.3638018 0.242535,-0.3500215 0.542947,-0.5153859 0.300412,-0.1681206 0.700043,-0.1681206 0.556727,0 0.824066,0.3389972 0.270095,0.336241 0.270095,1.03904 z"
       style="fill:#ffffff;stroke:none"
       id="path555" /><path
       d="m 58.153207,2.7360154 h 0.705555 l 0.727604,3.3872154 0.658701,-3.3872154 h 0.537435 l -0.802018,4.114819 H 59.274929 L 58.547326,3.4636191 57.885868,6.8508344 h -0.534679 z"
       style="fill:#ffffff;stroke:none"
       id="path557" /></g><rect
     style="fill:#171717;fill-opacity:1;stroke:#d08c58;stroke-width:0.352778;stroke-linecap:square;stroke-dasharray:none;stroke-opacity:1;paint-order:fill markers stroke"
     id="rect2202"
     width="90.614639"
     height="15.137568"
     x="5.4926777"
     y="9.6294165"
     rx="2.9999998"
     ry="3" /><rect
     style="fill:#3b3b3b;fill-opacity:1;stroke:#d08c58;stroke-width:0.352778;stroke-linecap:square;stroke-dasharray:none;stroke-opacity:1;paint-order:fill markers stroke"
     id="rect2655"
     width="51.625286"
     height="48.371353"
     x="45.688839"
     y="74.583855"
     rx="2.9999998"
     ry="3" /><path
     style="opacity:1;fill:none;stroke:#d08c58;stroke-width:0.352999;stroke-opacity:1;paint-order:fill markers stroke"
     d="M 16.323775,79.835338 H 45.858903"
     id="path2854" /><path
     style="opacity:1;fill:none;stroke:#d08c58;stroke-width:0.352999;stroke-opacity:1;paint-order:fill markers stroke"
     d="M 15.59574,90.975152 H 45.687859"
     id="path2919" /><path
     style="opacity:1;fill:none;stroke:#d08c58;stroke-width:0.352999;stroke-opacity:1;paint-order:fill markers stroke"
     d="M 15.59574,102.11497 H 45.687859"
     id="path2921" /><path
     style="opacity:1;fill:none;stroke:#d08c58;stroke-width:0.352999;stroke-opacity:1;paint-order:fill markers stroke"
     d="M 15.59574,113.06912 H 45.687859"
     id="path2923" /><g
     aria-label="IN L"
     id="text2257"
     style="font-style:italic;font-size:2.46944px;font-family:Menlo;-inkscape-font-specification:'Menlo Italic';text-align:center;text-anchor:middle;opacity:1;fill:#ffffff;stroke-width:0.352999;paint-order:fill markers stroke"><path
       d="m 7.6552364,37.560445 h 1.0008003 l -0.039791,0.204983 h -0.378616 l -0.2688897,1.390268 h 0.378616 L 8.3075652,39.36068 H 7.306765 l 0.039791,-0.204984 H 7.723966 l 0.2700955,-1.390268 h -0.378616 z"
       id="path3214" /><path
       d="M 9.0684146,37.560445 H 9.3770952 L 9.695422,39.042353 9.9836043,37.560445 H 10.218732 L 9.8678491,39.36068 H 9.5591685 L 9.2408417,37.878772 8.9514537,39.36068 h -0.233922 z"
       id="path3216" /><path
       d="m 12.143163,37.560445 h 0.243568 l -0.311092,1.595251 h 0.86937 l -0.03979,0.204984 H 11.79228 Z"
       id="path3218" /></g><g
     aria-label="IN R"
     id="text2311"
     style="font-style:italic;font-size:2.46944px;font-family:Menlo;-inkscape-font-specification:'Menlo Italic';text-align:center;text-anchor:middle;opacity:1;fill:#ffffff;stroke-width:0.352999;paint-order:fill markers stroke"><path
       d="m 7.6552364,53.156186 h 1.0008003 l -0.039791,0.204983 h -0.378616 l -0.2688897,1.390269 h 0.378616 l -0.039791,0.204983 H 7.306765 l 0.039791,-0.204983 H 7.723966 l 0.2700955,-1.390269 h -0.378616 z"
       id="path3207" /><path
       d="M 9.0684146,53.156186 H 9.3770952 L 9.695422,54.638094 9.9836043,53.156186 H 10.218732 L 9.8678491,54.956421 H 9.5591685 l -0.3183268,-1.481908 -0.289388,1.481908 h -0.233922 z"
       id="path3209" /><path
       d="m 12.621859,54.106344 q 0.08682,0.01688 0.138665,0.08079 0.05305,0.06391 0.118166,0.27733 l 0.1459,0.49196 h -0.242362 l -0.127813,-0.45458 q -0.05306,-0.188103 -0.119373,-0.247186 -0.06511,-0.05908 -0.197748,-0.05908 h -0.231511 l -0.148311,0.760849 h -0.244774 l 0.348471,-1.800235 h 0.501606 q 0.249597,0 0.385851,0.108521 0.137459,0.107314 0.137459,0.303857 0,0.220659 -0.125401,0.365353 -0.124196,0.144694 -0.338825,0.172427 z m -0.353295,-0.749998 -0.12299,0.639065 h 0.264067 q 0.196542,0 0.313503,-0.102491 0.118167,-0.103697 0.118167,-0.274919 0,-0.135047 -0.07596,-0.197748 -0.07597,-0.06391 -0.239951,-0.06391 z"
       id="path3211" /></g><g
     aria-label="V/OCT"
     id="text2315"
     style="font-style:italic;font-size:2.46944px;font-family:Menlo;-inkscape-font-specification:'Menlo Italic';text-align:center;text-anchor:middle;opacity:1;fill:#ffffff;stroke-width:0.352999;paint-order:fill markers stroke"><path
       d="m 6.7099983,72.365361 0.7210572,-1.571133 h 0.259243 L 6.8233418,72.59446 H 6.5122502 L 6.3350004,70.794228 H 6.573745 Z"
       id="path3196" /><path
       d="m 7.6010707,72.823558 1.0273256,-2.02933 h 0.2303042 l -1.0297371,2.02933 z"
       id="path3198" /><path
       d="m 9.6738087,72.431679 q 0.1024914,0 0.1893077,-0.0615 0.086816,-0.06149 0.1434876,-0.176044 0.08923,-0.174838 0.144694,-0.423229 0.05547,-0.248391 0.05547,-0.477489 0,-0.171221 -0.06391,-0.252009 -0.0627,-0.08199 -0.195337,-0.08199 -0.1024914,0 -0.1881018,0.0615 -0.08561,0.06149 -0.1422822,0.176044 -0.091639,0.17725 -0.1471053,0.423229 -0.055466,0.24598 -0.055466,0.475078 0,0.172427 0.062701,0.25442 0.063906,0.08199 0.1965423,0.08199 z m 0.7825523,-1.067116 q 0,0.132636 -0.02773,0.288181 -0.02653,0.155546 -0.07838,0.319532 -0.03497,0.110932 -0.07596,0.198954 -0.03979,0.08802 -0.08682,0.159163 -0.106109,0.153135 -0.2375394,0.226687 -0.1314301,0.07235 -0.3062684,0.07235 -0.2423621,0 -0.3593228,-0.148311 -0.1169608,-0.148311 -0.1169608,-0.456991 0,-0.133842 0.025321,-0.286976 0.026527,-0.15434 0.078376,-0.318326 0.034968,-0.110932 0.074758,-0.198954 0.040997,-0.08802 0.088022,-0.159163 0.1061088,-0.153134 0.2375389,-0.225481 0.1314302,-0.07355 0.3062685,-0.07355 0.2435674,0 0.3605284,0.148311 0.118167,0.147105 0.118167,0.45458 z"
       id="path3200" /><path
       d="m 11.693492,72.530553 q -0.101285,0.04944 -0.204982,0.07355 -0.102492,0.02532 -0.212218,0.02532 -0.27733,0 -0.430464,-0.160369 -0.151928,-0.160369 -0.151928,-0.449756 0,-0.265272 0.0844,-0.525721 0.08441,-0.260448 0.221864,-0.425641 0.129019,-0.156751 0.284565,-0.23151 0.155545,-0.07476 0.354499,-0.07476 0.09646,0 0.19172,0.02532 0.09526,0.02532 0.18569,0.07355 l -0.04944,0.249597 q -0.07717,-0.07596 -0.162781,-0.113344 -0.08561,-0.03738 -0.182073,-0.03738 -0.114549,0 -0.212217,0.04944 -0.09767,0.04823 -0.183279,0.148311 -0.125401,0.148311 -0.202571,0.379821 -0.07596,0.23151 -0.07596,0.464226 0,0.2086 0.09405,0.319532 0.09405,0.110932 0.2713,0.110932 0.102492,0 0.211012,-0.03858 0.109726,-0.03859 0.215835,-0.112138 z"
       id="path3202" /><path
       d="m 12.274679,70.794228 h 1.374591 l -0.03979,0.204983 h -0.565512 l -0.30868,1.595249 H 12.489308 L 12.8004,70.999211 h -0.565512 z"
       id="path3204" /></g><g
     aria-label="CENTER"
     id="text2319"
     style="font-style:italic;font-size:2.46944px;font-family:Menlo;-inkscape-font-specification:'Menlo Italic';text-align:center;text-anchor:middle;opacity:1;fill:#ffffff;stroke-width:0.352999;paint-order:fill markers stroke"><path
       d="m 18.170045,72.530553 q -0.101286,0.04944 -0.204983,0.07355 -0.102492,0.02532 -0.212218,0.02532 -0.277329,0 -0.430464,-0.160369 -0.151928,-0.160369 -0.151928,-0.449756 0,-0.265272 0.08441,-0.525721 0.0844,-0.260448 0.221863,-0.425641 0.129019,-0.156751 0.284565,-0.23151 0.155546,-0.07476 0.354499,-0.07476 0.09646,0 0.19172,0.02532 0.09526,0.02532 0.18569,0.07355 l -0.04944,0.249597 q -0.07717,-0.07596 -0.16278,-0.113344 -0.08561,-0.03738 -0.182073,-0.03738 -0.11455,0 -0.212218,0.04944 -0.09767,0.04823 -0.183279,0.148311 -0.125401,0.148311 -0.202571,0.379821 -0.07596,0.23151 -0.07596,0.464226 0,0.2086 0.09405,0.319532 0.09405,0.110932 0.271301,0.110932 0.102491,0 0.211011,-0.03858 0.109726,-0.03859 0.215835,-0.112138 z"
       id="path3183" /><path
       d="m 18.933304,70.794228 h 1.067117 l -0.03979,0.204983 h -0.824755 l -0.103697,0.532955 h 0.787375 l -0.03858,0.204983 h -0.788581 l -0.125401,0.652328 h 0.846459 l -0.03979,0.204983 h -1.091232 z"
       id="path3185" /><path
       d="m 20.348891,70.794228 h 0.30868 l 0.318327,1.481905 0.288181,-1.481905 h 0.235128 l -0.350883,1.800232 h -0.30868 l -0.318326,-1.481906 -0.289387,1.481906 h -0.233922 z"
       id="path3187" /><path
       d="m 21.724688,70.794228 h 1.374591 l -0.03979,0.204983 h -0.565512 l -0.30868,1.595249 h -0.245979 l 0.311092,-1.595249 h -0.565512 z"
       id="path3189" /><path
       d="m 23.393489,70.794228 h 1.067117 l -0.03979,0.204983 H 23.59606 l -0.103697,0.532955 h 0.787375 l -0.03858,0.204983 h -0.788581 l -0.125401,0.652328 h 0.846459 l -0.03979,0.204983 h -1.091232 z"
       id="path3191" /><path
       d="m 25.389057,71.744384 q 0.08682,0.01688 0.138665,0.08079 0.05305,0.06391 0.118166,0.27733 l 0.1459,0.491959 h -0.242362 l -0.127813,-0.45458 q -0.05305,-0.188102 -0.119372,-0.247185 -0.06511,-0.05908 -0.197748,-0.05908 h -0.23151 l -0.148311,0.760848 h -0.244774 l 0.348471,-1.800232 h 0.501605 q 0.249596,0 0.38585,0.10852 0.137459,0.107315 0.137459,0.303857 0,0.220658 -0.125401,0.365352 -0.124196,0.144694 -0.338825,0.172427 z m -0.353294,-0.749996 -0.12299,0.639064 h 0.264067 q 0.196542,0 0.313503,-0.102492 0.118166,-0.103697 0.118166,-0.274918 0,-0.135047 -0.07596,-0.197748 -0.07596,-0.06391 -0.23995,-0.06391 z"
       id="path3193" /></g><g
     aria-label="SPREAD"
     id="text2323"
     style="font-style:italic;font-size:2.46944px;font-family:Menlo;-inkscape-font-specification:'Menlo Italic';text-align:center;text-anchor:middle;opacity:1;fill:#ffffff;stroke-width:0.352999;paint-order:fill markers stroke"><path
       d="m 30.001471,70.855723 -0.04702,0.247185 q -0.09767,-0.07114 -0.202572,-0.107314 -0.104903,-0.03617 -0.21704,-0.03617 -0.198954,0 -0.324355,0.09887 -0.125402,0.09887 -0.125402,0.252009 0,0.08561 0.05908,0.138664 0.05908,0.05306 0.214629,0.101286 l 0.145899,0.04703 q 0.196542,0.06029 0.286976,0.161575 0.09164,0.10008 0.09164,0.255626 0,0.283358 -0.200159,0.449756 -0.20016,0.165192 -0.546219,0.165192 -0.125401,0 -0.247185,-0.02773 -0.120578,-0.02653 -0.241157,-0.08079 l 0.04944,-0.252008 q 0.118167,0.0832 0.238745,0.122989 0.121784,0.03979 0.256832,0.03979 0.198953,0 0.323149,-0.106109 0.124195,-0.106108 0.124195,-0.268889 0,-0.09887 -0.05305,-0.153134 -0.05305,-0.05426 -0.213423,-0.103697 l -0.121784,-0.03979 q -0.221864,-0.06994 -0.311092,-0.157957 -0.08802,-0.08923 -0.08802,-0.235128 0,-0.266477 0.198954,-0.435287 0.198954,-0.170015 0.519692,-0.170015 0.09646,0 0.204983,0.02412 0.109726,0.02412 0.224275,0.06994 z"
       id="path3170" /><path
       d="m 30.722528,70.994388 -0.13143,0.676443 h 0.282153 q 0.198954,0 0.31712,-0.114549 0.119373,-0.115755 0.119373,-0.307474 0,-0.130225 -0.07476,-0.19172 -0.07476,-0.0627 -0.23151,-0.0627 z m -0.204983,-0.20016 h 0.530544 q 0.248391,0 0.378615,0.110932 0.130225,0.110932 0.130225,0.320738 0,0.300239 -0.192925,0.472666 -0.192925,0.172427 -0.530544,0.172427 h -0.280947 l -0.141076,0.723469 h -0.244774 z"
       id="path3172" /><path
       d="m 32.515525,71.744384 q 0.08682,0.01688 0.138665,0.08079 0.05305,0.06391 0.118166,0.27733 l 0.1459,0.491959 h -0.242362 l -0.127813,-0.45458 q -0.05305,-0.188102 -0.119372,-0.247185 -0.06511,-0.05908 -0.197748,-0.05908 h -0.23151 l -0.148312,0.760848 h -0.244773 l 0.348471,-1.800232 h 0.501605 q 0.249596,0 0.38585,0.10852 0.137459,0.107315 0.137459,0.303857 0,0.220658 -0.125402,0.365352 -0.124195,0.144694 -0.338824,0.172427 z m -0.353294,-0.749996 -0.12299,0.639064 h 0.264066 q 0.196543,0 0.313504,-0.102492 0.118166,-0.103697 0.118166,-0.274918 0,-0.135047 -0.07596,-0.197748 -0.07596,-0.06391 -0.239951,-0.06391 z"
       id="path3174" /><path
       d="m 33.493414,70.794228 h 1.067116 l -0.03979,0.204983 h -0.824754 l -0.103697,0.532955 h 0.787375 l -0.03858,0.204983 h -0.788581 l -0.125401,0.652328 h 0.846458 l -0.03979,0.204983 h -1.091232 z"
       id="path3176" /><path
       d="m 35.451602,70.996799 -0.438904,0.933275 h 0.518486 z m -0.115755,-0.202571 h 0.296623 l 0.200159,1.800232 h -0.242362 l -0.0422,-0.469049 H 34.921059 L 34.699195,72.59446 H 34.43754 Z"
       id="path3178" /><path
       d="m 36.442754,72.3943 q 0.22307,0 0.358117,-0.07476 0.135048,-0.07596 0.217041,-0.245979 0.06511,-0.138665 0.106109,-0.330384 0.0422,-0.192925 0.0422,-0.353294 0,-0.212217 -0.09887,-0.303857 -0.09887,-0.09164 -0.33159,-0.09164 H 36.5983 L 36.325794,72.3943 Z m 0.315915,-1.600072 q 0.329178,0 0.491959,0.149517 0.163986,0.149517 0.163986,0.453374 0,0.195336 -0.05064,0.402731 -0.05064,0.207394 -0.136253,0.367763 -0.125401,0.230304 -0.313503,0.329178 -0.186896,0.09767 -0.506428,0.09767 h -0.365352 l 0.350882,-1.800232 z"
       id="path3180" /></g><g
     aria-label="GAP"
     id="text2327"
     style="font-style:italic;font-size:2.46944px;font-family:Menlo;-inkscape-font-specification:'Menlo Italic';text-align:center;text-anchor:middle;opacity:1;fill:#ffffff;stroke-width:0.352999;paint-order:fill markers stroke"><path
       d="m 43.460103,72.478705 q -0.104903,0.07476 -0.229098,0.113343 -0.124196,0.03738 -0.265272,0.03738 -0.279742,0 -0.430464,-0.161574 -0.149517,-0.162781 -0.149517,-0.46302 0,-0.108521 0.01929,-0.230305 0.0205,-0.122989 0.05908,-0.256831 0.0422,-0.141077 0.09887,-0.25442 0.05667,-0.114549 0.124195,-0.195337 0.129019,-0.156751 0.284565,-0.23151 0.156751,-0.07476 0.356911,-0.07476 0.09646,0 0.191719,0.02532 0.09646,0.02532 0.189308,0.07355 l -0.04944,0.249597 q -0.07838,-0.07596 -0.165192,-0.113344 -0.08561,-0.03738 -0.183279,-0.03738 -0.118167,0 -0.221864,0.05064 -0.103697,0.04944 -0.18569,0.147105 -0.05306,0.0627 -0.10008,0.156752 -0.04702,0.09405 -0.0832,0.211012 -0.041,0.137459 -0.0627,0.258037 -0.0205,0.120578 -0.0205,0.218246 0,0.206189 0.09526,0.318326 0.09526,0.112138 0.270095,0.112138 0.08199,0 0.147105,-0.0217 0.06511,-0.02291 0.109726,-0.06511 l 0.09164,-0.473872 h -0.261655 l 0.03617,-0.20016 h 0.49437 z"
       id="path3163" /><path
       d="m 44.664678,70.996799 -0.438904,0.933275 h 0.518486 z m -0.115755,-0.202571 h 0.296623 l 0.200159,1.800232 h -0.242362 l -0.0422,-0.469049 h -0.627006 l -0.221864,0.469049 h -0.261655 z"
       id="path3165" /><path
       d="m 45.882518,70.994388 -0.131431,0.676443 h 0.282153 q 0.198954,0 0.317121,-0.114549 0.119372,-0.115755 0.119372,-0.307474 0,-0.130225 -0.07476,-0.19172 -0.07476,-0.0627 -0.23151,-0.0627 z m -0.204983,-0.20016 h 0.530544 q 0.24839,0 0.378615,0.110932 0.130224,0.110932 0.130224,0.320738 0,0.300239 -0.192925,0.472666 -0.192925,0.172427 -0.530544,0.172427 h -0.280947 l -0.141076,0.723469 h -0.244774 z"
       id="path3167" /></g><g
     aria-label="SHARP"
     id="text2331"
     style="font-style:italic;font-size:2.46944px;font-family:Menlo;-inkscape-font-specification:'Menlo Italic';text-align:center;text-anchor:middle;opacity:1;fill:#ffffff;stroke-width:0.352999;paint-order:fill markers stroke"><path
       d="m 53.739689,70.855723 -0.04702,0.247185 q -0.09767,-0.07114 -0.202572,-0.107314 -0.104903,-0.03617 -0.21704,-0.03617 -0.198954,0 -0.324355,0.09887 -0.125402,0.09887 -0.125402,0.252009 0,0.08561 0.05908,0.138664 0.05908,0.05306 0.214629,0.101286 l 0.145899,0.04703 q 0.196543,0.06029 0.286976,0.161575 0.09164,0.10008 0.09164,0.255626 0,0.283358 -0.20016,0.449756 -0.20016,0.165192 -0.546219,0.165192 -0.125401,0 -0.247185,-0.02773 -0.120578,-0.02653 -0.241156,-0.08079 l 0.04944,-0.252008 q 0.118166,0.0832 0.238744,0.122989 0.121784,0.03979 0.256832,0.03979 0.198954,0 0.323149,-0.106109 0.124196,-0.106108 0.124196,-0.268889 0,-0.09887 -0.05306,-0.153134 -0.05305,-0.05426 -0.213423,-0.103697 l -0.121784,-0.03979 q -0.221864,-0.06994 -0.311092,-0.157957 -0.08802,-0.08923 -0.08802,-0.235128 0,-0.266477 0.198954,-0.435287 0.198954,-0.170015 0.519692,-0.170015 0.09646,0 0.204983,0.02412 0.109726,0.02412 0.224275,0.06994 z"
       id="path3152" /><path
       d="m 54.184622,70.794228 h 0.243568 l -0.142282,0.737938 h 0.666797 l 0.142282,-0.737938 h 0.244774 l -0.350882,1.800232 h -0.243568 l 0.167603,-0.857311 H 54.243706 L 54.078514,72.59446 H 53.83374 Z"
       id="path3154" /><path
       d="m 56.216364,70.996799 -0.438905,0.933275 h 0.518486 z m -0.115755,-0.202571 h 0.296622 l 0.20016,1.800232 h -0.242362 l -0.0422,-0.469049 H 55.68582 l -0.221864,0.469049 h -0.261654 z"
       id="path3156" /><path
       d="m 57.740472,71.744384 q 0.08682,0.01688 0.138664,0.08079 0.05306,0.06391 0.118167,0.27733 l 0.145899,0.491959 H 57.90084 l -0.127812,-0.45458 q -0.05305,-0.188102 -0.119373,-0.247185 -0.06511,-0.05908 -0.197748,-0.05908 h -0.23151 l -0.148311,0.760848 h -0.244774 l 0.348471,-1.800232 h 0.501605 q 0.249597,0 0.38585,0.10852 0.137459,0.107315 0.137459,0.303857 0,0.220658 -0.125401,0.365352 -0.124195,0.144694 -0.338824,0.172427 z m -0.353294,-0.749996 -0.12299,0.639064 h 0.264066 q 0.196542,0 0.313503,-0.102492 0.118167,-0.103697 0.118167,-0.274918 0,-0.135047 -0.07597,-0.197748 -0.07596,-0.06391 -0.23995,-0.06391 z"
       id="path3158" /><path
       d="m 58.920931,70.994388 -0.13143,0.676443 h 0.282153 q 0.198954,0 0.31712,-0.114549 0.119373,-0.115755 0.119373,-0.307474 0,-0.130225 -0.07476,-0.19172 -0.07476,-0.0627 -0.23151,-0.0627 z m -0.204983,-0.20016 h 0.530544 q 0.248391,0 0.378616,0.110932 0.130224,0.110932 0.130224,0.320738 0,0.300239 -0.192925,0.472666 -0.192925,0.172427 -0.530544,0.172427 H 58.750916 L 58.60984,72.59446 h -0.244774 z"
       id="path3160" /></g><g
     aria-label="RES."
     id="text2335"
     style="font-style:italic;font-size:2.46944px;font-family:Menlo;-inkscape-font-specification:'Menlo Italic';text-align:center;text-anchor:middle;opacity:1;fill:#ffffff;stroke-width:0.352999;paint-order:fill markers stroke"><path
       d="m 65.806846,71.558722 q 0.08682,0.01688 0.138665,0.08079 0.05305,0.06391 0.118166,0.277329 l 0.1459,0.491959 h -0.242362 l -0.127813,-0.454579 q -0.05305,-0.188102 -0.119372,-0.247185 -0.06511,-0.05908 -0.197748,-0.05908 h -0.23151 l -0.148311,0.760848 h -0.244774 l 0.348471,-1.800231 h 0.501605 q 0.249597,0 0.38585,0.10852 0.137459,0.107315 0.137459,0.303857 0,0.220658 -0.125401,0.365352 -0.124196,0.144693 -0.338825,0.172426 z m -0.353294,-0.749995 -0.12299,0.639064 h 0.264067 q 0.196542,0 0.313503,-0.102492 0.118166,-0.103697 0.118166,-0.274918 0,-0.135047 -0.07596,-0.197748 -0.07596,-0.06391 -0.23995,-0.06391 z"
       id="path3143" /><path
       d="m 66.784735,70.608567 h 1.067116 l -0.03979,0.204983 h -0.824754 l -0.103697,0.532955 h 0.787375 l -0.03858,0.204983 h -0.788581 l -0.125401,0.652327 h 0.846458 l -0.03979,0.204983 h -1.091232 z"
       id="path3145" /><path
       d="m 69.239705,70.670062 -0.04703,0.247185 q -0.09767,-0.07114 -0.202571,-0.107315 -0.104903,-0.03617 -0.217041,-0.03617 -0.198954,0 -0.324355,0.09887 -0.125401,0.09887 -0.125401,0.252008 0,0.08561 0.05908,0.138665 0.05908,0.05305 0.214629,0.101286 l 0.145899,0.04703 q 0.196543,0.06029 0.286976,0.161575 0.09164,0.10008 0.09164,0.255625 0,0.283359 -0.20016,0.449757 -0.20016,0.165192 -0.546219,0.165192 -0.125401,0 -0.247185,-0.02773 -0.120578,-0.02653 -0.241156,-0.08079 l 0.04944,-0.252009 q 0.118166,0.0832 0.238745,0.12299 0.121783,0.03979 0.256831,0.03979 0.198954,0 0.323149,-0.106109 0.124196,-0.106109 0.124196,-0.268889 0,-0.09887 -0.05306,-0.153134 -0.05305,-0.05426 -0.213423,-0.103698 l -0.121784,-0.03979 q -0.221864,-0.06994 -0.311091,-0.157958 -0.08802,-0.08923 -0.08802,-0.235127 0,-0.266478 0.198954,-0.435287 0.198953,-0.170015 0.519691,-0.170015 0.09646,0 0.204983,0.02412 0.109726,0.02412 0.224275,0.06994 z"
       id="path3147" /><path
       d="m 69.859477,71.921663 h 0.424435 l -0.09526,0.487135 H 69.76422 Z"
       id="path3149" /></g><g
     aria-label="DRIVE"
     id="text2339"
     style="font-style:italic;font-size:2.46944px;font-family:Menlo;-inkscape-font-specification:'Menlo Italic';text-align:center;text-anchor:middle;opacity:1;fill:#ffffff;stroke-width:0.352999;paint-order:fill markers stroke"><path
       d="m 75.79162,72.208639 q 0.223069,0 0.358117,-0.07476 0.135047,-0.07596 0.21704,-0.245979 0.06511,-0.138665 0.106109,-0.330384 0.0422,-0.192925 0.0422,-0.353294 0,-0.212218 -0.09888,-0.303857 -0.09887,-0.09164 -0.331589,-0.09164 h -0.137459 l -0.272507,1.399912 z m 0.315914,-1.600072 q 0.329179,0 0.491959,0.149517 0.163986,0.149517 0.163986,0.453373 0,0.195337 -0.05064,0.402731 -0.05064,0.207395 -0.136254,0.367764 -0.125401,0.230304 -0.313503,0.329178 -0.186896,0.09767 -0.506428,0.09767 H 75.3913 l 0.350883,-1.800231 z"
       id="path3132" /><path
       d="m 77.811303,71.558722 q 0.08682,0.01688 0.138665,0.08079 0.05306,0.06391 0.118167,0.277329 l 0.145899,0.491959 h -0.242362 l -0.127813,-0.454579 q -0.05305,-0.188102 -0.119372,-0.247185 -0.06511,-0.05908 -0.197748,-0.05908 h -0.23151 l -0.148311,0.760848 h -0.244774 l 0.348471,-1.800231 h 0.501605 q 0.249597,0 0.38585,0.10852 0.137459,0.107315 0.137459,0.303857 0,0.220658 -0.125401,0.365352 -0.124196,0.144693 -0.338825,0.172426 z m -0.353294,-0.749995 -0.122989,0.639064 h 0.264066 q 0.196542,0 0.313503,-0.102492 0.118167,-0.103697 0.118167,-0.274918 0,-0.135047 -0.07596,-0.197748 -0.07596,-0.06391 -0.23995,-0.06391 z"
       id="path3134" /><path
       d="m 78.791604,70.608567 h 1.000798 l -0.03979,0.204983 h -0.378615 l -0.268889,1.390265 h 0.378615 l -0.03979,0.204983 h -1.000798 l 0.03979,-0.204983 h 0.377409 l 0.270095,-1.390265 h -0.378615 z"
       id="path3136" /><path
       d="m 80.47608,72.1797 0.721057,-1.571133 h 0.259243 l -0.866956,1.800231 h -0.311092 l -0.17725,-1.800231 h 0.238745 z"
       id="path3138" /><path
       d="m 81.762649,70.608567 h 1.067116 l -0.03979,0.204983 H 81.96522 l -0.103697,0.532955 h 0.787375 l -0.03858,0.204983 h -0.788581 l -0.125401,0.652327 h 0.846458 l -0.03979,0.204983 h -1.091232 z"
       id="path3140" /></g><g
     aria-label="WIDTH"
     id="text2343"
     style="font-style:italic;font-size:2.46944px;font-family:Menlo;-inkscape-font-specification:'Menlo Italic';text-align:center;text-anchor:middle;opacity:1;fill:#ffffff;stroke-width:0.352999;paint-order:fill markers stroke"><path
       d="m 87.034022,70.608567 h 0.230304 l -0.10852,1.458995 0.396702,-0.964625 h 0.254419 l 0.01809,0.967037 0.45458,-1.461407 h 0.238744 l -0.614948,1.800231 h -0.233922 l -0.03738,-1.049029 -0.447345,1.049029 h -0.226687 z"
       id="path3121" /><path
       d="m 88.763112,70.608567 h 1.000798 l -0.03979,0.204983 h -0.378616 l -0.268889,1.390265 h 0.378615 l -0.03979,0.204983 h -1.000799 l 0.03979,-0.204983 h 0.37741 l 0.270094,-1.390265 h -0.378615 z"
       id="path3123" /><path
       d="m 90.223313,72.208639 q 0.22307,0 0.358117,-0.07476 0.135048,-0.07596 0.217041,-0.245979 0.06511,-0.138665 0.106108,-0.330384 0.0422,-0.192925 0.0422,-0.353294 0,-0.212218 -0.09887,-0.303857 -0.09887,-0.09164 -0.33159,-0.09164 h -0.137459 l -0.272507,1.399912 z m 0.315915,-1.600072 q 0.329178,0 0.491959,0.149517 0.163986,0.149517 0.163986,0.453373 0,0.195337 -0.05064,0.402731 -0.05064,0.207395 -0.136253,0.367764 -0.125402,0.230304 -0.313503,0.329178 -0.186897,0.09767 -0.506429,0.09767 h -0.365351 l 0.350882,-1.800231 z"
       id="path3125" /><path
       d="m 91.552084,70.608567 h 1.374591 l -0.03979,0.204983 h -0.565511 l -0.30868,1.595248 h -0.24598 l 0.311092,-1.595248 h -0.565512 z"
       id="path3127" /><path
       d="M 93.147333,70.608567 H 93.3909 l -0.142282,0.737938 h 0.666797 l 0.142283,-0.737938 h 0.244773 l -0.350882,1.800231 h -0.243568 l 0.167604,-0.85731 h -0.669209 l -0.165192,0.85731 H 92.79645 Z"
       id="path3129" /></g><path
     id="rect2397"
     style="fill:none;stroke:#d08c58;stroke-width:0.352778;stroke-linecap:square;paint-order:fill markers stroke;stroke-opacity:1"
     d="m 22.119118,30.182426 h 64.604261 c 2.216,0 4,1.784 4,4 v 25.425177"
     sodipodi:nodetypes="cssc" /><g
     aria-label="LOW"
     id="text2659"
     style="font-style:italic;font-size:2.46944px;font-family:Menlo;-inkscape-font-specification:'Menlo Italic';text-align:center;text-anchor:middle;opacity:1;fill:#ffffff;stroke-width:0.352999;paint-order:fill markers stroke"><path
       d="m 91.018811,79.149094 h 0.243568 l -0.311092,1.595249 h 0.869369 l -0.03979,0.204983 h -1.112936 z"
       id="path3114" /><path
       d="m 92.665908,80.786545 q 0.102492,0 0.189308,-0.0615 0.08682,-0.06149 0.143488,-0.176044 0.08923,-0.174838 0.144694,-0.423229 0.05547,-0.248391 0.05547,-0.477489 0,-0.171221 -0.06391,-0.252009 -0.0627,-0.08199 -0.195336,-0.08199 -0.102492,0 -0.188102,0.0615 -0.08561,0.06149 -0.142282,0.176044 -0.09164,0.17725 -0.147106,0.423229 -0.05547,0.24598 -0.05547,0.475078 0,0.172427 0.0627,0.25442 0.06391,0.08199 0.196542,0.08199 z m 0.782552,-1.067116 q 0,0.132636 -0.02773,0.288181 -0.02653,0.155546 -0.07837,0.319532 -0.03497,0.110932 -0.07597,0.198954 -0.03979,0.08802 -0.08682,0.159163 -0.106109,0.153135 -0.237539,0.226687 -0.13143,0.07235 -0.306268,0.07235 -0.242362,0 -0.359323,-0.148311 -0.116961,-0.148311 -0.116961,-0.456991 0,-0.133842 0.02532,-0.286976 0.02653,-0.15434 0.07837,-0.318326 0.03497,-0.110932 0.07476,-0.198954 0.041,-0.08802 0.08802,-0.159163 0.106109,-0.153134 0.237539,-0.225481 0.13143,-0.07355 0.306268,-0.07355 0.243568,0 0.360529,0.148311 0.118166,0.147105 0.118166,0.45458 z"
       id="path3116" /><path
       d="m 93.722173,79.149094 h 0.230304 l -0.10852,1.458995 0.396702,-0.964625 h 0.25442 l 0.01809,0.967037 0.45458,-1.461407 h 0.238745 l -0.614949,1.800232 H 94.35762 l -0.03738,-1.04903 -0.447345,1.04903 h -0.226686 z"
       id="path3118" /></g><g
     aria-label="MID"
     id="text2765"
     style="font-style:italic;font-size:2.46944px;font-family:Menlo;-inkscape-font-specification:'Menlo Italic';text-align:center;text-anchor:middle;opacity:1;fill:#ffffff;stroke-width:0.352999;paint-order:fill markers stroke"><path
       d="m 90.850002,90.474572 h 0.324355 l 0.132636,0.91157 0.499193,-0.91157 h 0.325561 l -0.350882,1.800231 H 91.55659 l 0.311091,-1.600072 -0.523309,0.958597 h -0.170015 l -0.138665,-0.958597 -0.30868,1.600072 h -0.224275 z"
       id="path3107" /><path
       d="m 92.477807,90.474572 h 1.000798 l -0.03979,0.204983 H 93.060199 L 92.79131,92.06982 h 0.378615 l -0.03979,0.204983 h -1.000798 l 0.03979,-0.204983 h 0.377409 l 0.270095,-1.390265 h -0.378615 z"
       id="path3109" /><path
       d="m 93.938008,92.074643 q 0.223069,0 0.358117,-0.07476 0.135047,-0.07596 0.21704,-0.245979 0.06511,-0.138665 0.106109,-0.330384 0.0422,-0.192925 0.0422,-0.353294 0,-0.212218 -0.09887,-0.303857 -0.09887,-0.09164 -0.331589,-0.09164 h -0.13746 l -0.272506,1.399912 z m 0.315914,-1.600071 q 0.329179,0 0.491959,0.149517 0.163986,0.149517 0.163986,0.453373 0,0.195337 -0.05064,0.402731 -0.05064,0.207395 -0.136254,0.367764 -0.125401,0.230304 -0.313503,0.329178 -0.186896,0.09767 -0.506428,0.09767 h -0.365352 l 0.350883,-1.800231 z"
       id="path3111" /></g><g
     aria-label="HIGH"
     id="text2769"
     style="font-style:italic;font-size:2.46944px;font-family:Menlo;-inkscape-font-specification:'Menlo Italic';text-align:center;text-anchor:middle;opacity:1;fill:#ffffff;stroke-width:0.352999;paint-order:fill markers stroke"><path
       d="m 90.17175,101.42873 h 0.243568 l -0.142282,0.73793 h 0.666797 l 0.142282,-0.73793 h 0.244773 l -0.350882,1.80023 h -0.243568 l 0.167604,-0.85731 h -0.669209 l -0.165192,0.85731 h -0.244773 z"
       id="path3098" /><path
       d="m 91.734442,101.42873 h 1.000799 l -0.03979,0.20498 h -0.378615 l -0.268889,1.39027 h 0.378615 l -0.03979,0.20498 h -1.000798 l 0.03979,-0.20498 h 0.37741 l 0.270095,-1.39027 h -0.378615 z"
       id="path3100" /><path
       d="m 93.972372,103.1132 q -0.104903,0.0748 -0.229098,0.11335 -0.124195,0.0374 -0.265272,0.0374 -0.279741,0 -0.430464,-0.16158 -0.149517,-0.16278 -0.149517,-0.46302 0,-0.10852 0.01929,-0.2303 0.0205,-0.12299 0.05908,-0.25683 0.0422,-0.14108 0.09887,-0.25442 0.05667,-0.11455 0.124196,-0.19534 0.129018,-0.15675 0.284564,-0.23151 0.156752,-0.0748 0.356911,-0.0748 0.09646,0 0.19172,0.0253 0.09646,0.0253 0.189307,0.0735 l -0.04944,0.2496 q -0.07838,-0.076 -0.165192,-0.11334 -0.08561,-0.0374 -0.183279,-0.0374 -0.118166,0 -0.221863,0.0506 -0.103698,0.0494 -0.185691,0.14711 -0.05305,0.0627 -0.10008,0.15675 -0.04703,0.094 -0.0832,0.21101 -0.041,0.13746 -0.0627,0.25804 -0.0205,0.12058 -0.0205,0.21824 0,0.20619 0.09526,0.31833 0.09526,0.11214 0.270095,0.11214 0.08199,0 0.147106,-0.0217 0.06511,-0.0229 0.109726,-0.0651 l 0.09164,-0.47387 h -0.261654 l 0.03617,-0.20016 h 0.49437 z"
       id="path3102" /><path
       d="m 94.631935,101.42873 h 0.243568 l -0.142282,0.73793 h 0.666797 l 0.142282,-0.73793 h 0.244773 l -0.350882,1.80023 h -0.243568 l 0.167604,-0.85731 h -0.669209 l -0.165192,0.85731 h -0.244773 z"
       id="path3104" /></g><g
     aria-label="MIX"
     id="text2773"
     style="font-style:italic;font-size:2.46944px;font-family:Menlo;-inkscape-font-specification:'Menlo Italic';text-align:center;text-anchor:middle;opacity:1;fill:#ffffff;stroke-width:0.352999;paint-order:fill markers stroke"><path
       d="m 90.850002,112.75421 h 0.324355 l 0.132636,0.91157 0.499193,-0.91157 h 0.325561 l -0.350882,1.80023 H 91.55659 l 0.311091,-1.60007 -0.523309,0.9586 h -0.170015 l -0.138665,-0.9586 -0.30868,1.60007 h -0.224275 z"
       id="path3091" /><path
       d="m 92.477807,112.75421 h 1.000798 l -0.03979,0.20498 h -0.378615 l -0.268889,1.39027 h 0.378615 l -0.03979,0.20498 h -1.000798 l 0.03979,-0.20498 h 0.377409 l 0.270095,-1.39027 h -0.378615 z"
       id="path3093" /><path
       d="m 93.839134,112.75421 h 0.241156 l 0.270095,0.64148 0.530544,-0.64148 h 0.278535 l -0.718646,0.86696 0.390674,0.93327 H 94.58913 l -0.306269,-0.73793 -0.610125,0.73793 H 93.3942 l 0.792199,-0.961 z"
       id="path3095" /></g><g
     aria-label="L"
     id="text2777"
     style="font-style:italic;font-size:2.46944px;font-family:Menlo;-inkscape-font-specification:'Menlo Italic';text-align:center;text-anchor:middle;opacity:1;fill:#ffffff;stroke-width:0.352999;paint-order:fill markers stroke"><path
       d="m 74.496171,119.25244 h 0.243567 l -0.311091,1.59525 h 0.869368 l -0.03979,0.20498 h -1.112936 z"
       id="path3088" /></g><g
     aria-label="R"
     id="text2781"
     style="font-style:italic;font-size:2.46944px;font-family:Menlo;-inkscape-font-specification:'Menlo Italic';text-align:center;text-anchor:middle;opacity:1;fill:#ffffff;stroke-width:0.352999;paint-order:fill markers stroke"><path
       d="m 85.000699,120.2026 q 0.08682,0.0169 0.138665,0.0808 0.05305,0.0639 0.118166,0.27733 l 0.1459,0.49196 h -0.242362 l -0.127813,-0.45458 q -0.05305,-0.1881 -0.119372,-0.24718 -0.06511,-0.0591 -0.197749,-0.0591 h -0.23151 l -0.148311,0.76084 H 84.09154 l 0.348471,-1.80023 h 0.501605 q 0.249596,0 0.38585,0.10852 0.137459,0.10732 0.137459,0.30386 0,0.22066 -0.125402,0.36535 -0.124195,0.14469 -0.338824,0.17243 z m -0.353294,-0.75 -0.12299,0.63907 h 0.264066 q 0.196543,0 0.313503,-0.1025 0.118167,-0.10369 0.118167,-0.27491 0,-0.13505 -0.07596,-0.19775 -0.07596,-0.0639 -0.239951,-0.0639 z"
       id="path3085" /></g><g
     aria-label="ENVELOPE"
     id="text2785"
     style="font-style:italic;font-size:2.46944px;font-family:Menlo;-inkscape-font-specification:'Menlo Italic';text-align:center;text-anchor:middle;opacity:1;fill:#ffffff;stroke-width:0.352999;paint-order:fill markers stroke"><path
       d="m 49.582137,119.25244 h 1.067117 l -0.03979,0.20498 h -0.824754 l -0.103698,0.53296 h 0.787376 l -0.03858,0.20498 h -0.788581 l -0.125402,0.65233 h 0.846459 l -0.03979,0.20498 h -1.091232 z"
       id="path3068" /><path
       d="m 50.997725,119.25244 h 0.30868 l 0.318326,1.48191 0.288181,-1.48191 h 0.235128 l -0.350883,1.80023 h -0.30868 l -0.318326,-1.4819 -0.289387,1.4819 h -0.233922 z"
       id="path3070" /><path
       d="m 52.755754,120.82357 0.721057,-1.57113 h 0.259243 l -0.866957,1.80023 h -0.311092 l -0.177249,-1.80023 H 52.6195 Z"
       id="path3072" /><path
       d="m 54.042322,119.25244 h 1.067117 l -0.03979,0.20498 h -0.824754 l -0.103698,0.53296 h 0.787376 l -0.03859,0.20498 h -0.788581 l -0.125402,0.65233 h 0.846459 l -0.03979,0.20498 H 53.69144 Z"
       id="path3074" /><path
       d="m 55.559195,119.25244 h 0.243568 l -0.311092,1.59525 h 0.869369 l -0.03979,0.20498 h -1.112936 z"
       id="path3076" /><path
       d="m 57.206292,120.88989 q 0.102492,0 0.189308,-0.0615 0.08682,-0.0615 0.143488,-0.17605 0.08923,-0.17483 0.144694,-0.42323 0.05546,-0.24839 0.05546,-0.47748 0,-0.17123 -0.06391,-0.25201 -0.0627,-0.082 -0.195336,-0.082 -0.102492,0 -0.188102,0.0615 -0.08561,0.0615 -0.142283,0.17604 -0.09164,0.17725 -0.147105,0.42323 -0.05547,0.24598 -0.05547,0.47508 0,0.17243 0.0627,0.25442 0.06391,0.082 0.196542,0.082 z m 0.782552,-1.06711 q 0,0.13263 -0.02773,0.28818 -0.02653,0.15554 -0.07838,0.31953 -0.03497,0.11093 -0.07596,0.19895 -0.03979,0.088 -0.08682,0.15917 -0.106109,0.15313 -0.237539,0.22668 -0.13143,0.0724 -0.306268,0.0724 -0.242362,0 -0.359323,-0.14831 -0.116961,-0.14831 -0.116961,-0.45699 0,-0.13384 0.02532,-0.28698 0.02653,-0.15434 0.07838,-0.31832 0.03497,-0.11094 0.07476,-0.19896 0.041,-0.088 0.08802,-0.15916 0.106108,-0.15313 0.237539,-0.22548 0.13143,-0.0735 0.306268,-0.0735 0.243568,0 0.360529,0.14831 0.118166,0.1471 0.118166,0.45458 z"
       id="path3078" /><path
       d="m 58.705079,119.4526 -0.131431,0.67644 h 0.282153 q 0.198954,0 0.317121,-0.11454 0.119372,-0.11576 0.119372,-0.30748 0,-0.13022 -0.07476,-0.19172 -0.07476,-0.0627 -0.23151,-0.0627 z m -0.204983,-0.20016 h 0.530544 q 0.248391,0 0.378615,0.11093 0.130224,0.11094 0.130224,0.32074 0,0.30024 -0.192925,0.47267 -0.192925,0.17242 -0.530543,0.17242 h -0.280948 l -0.141076,0.72347 h -0.244774 z"
       id="path3080" /><path
       d="m 59.989235,119.25244 h 1.067117 l -0.03979,0.20498 h -0.824755 l -0.103697,0.53296 h 0.787375 l -0.03858,0.20498 h -0.788581 l -0.125401,0.65233 h 0.846459 l -0.03979,0.20498 h -1.091232 z"
       id="path3082" /></g><g
     aria-label="LEVEL"
     id="text2789"
     style="font-style:italic;font-size:2.46944px;font-family:Menlo;-inkscape-font-specification:'Menlo Italic';text-align:center;text-anchor:middle;opacity:1;fill:#ffffff;stroke-width:0.352999;paint-order:fill markers stroke"><path
       d="m 23.807174,119.25244 h 0.243568 l -0.311092,1.59525 h 0.869369 l -0.03979,0.20498 h -1.112936 z"
       id="path3057" /><path
       d="m 25.263758,119.25244 h 1.067116 l -0.03979,0.20498 h -0.824755 l -0.103697,0.53296 h 0.787375 l -0.03858,0.20498 h -0.788581 l -0.125401,0.65233 h 0.846458 l -0.03979,0.20498 h -1.091232 z"
       id="path3059" /><path
       d="m 26.950646,120.82357 0.721057,-1.57113 h 0.259243 l -0.866957,1.80023 h -0.311091 l -0.17725,-1.80023 h 0.238745 z"
       id="path3061" /><path
       d="m 28.237215,119.25244 h 1.067116 l -0.03979,0.20498 h -0.824754 l -0.103697,0.53296 h 0.787375 l -0.03858,0.20498 h -0.788581 l -0.125401,0.65233 h 0.846458 l -0.03979,0.20498 h -1.091232 z"
       id="path3063" /><path
       d="m 29.754087,119.25244 h 0.243568 l -0.311091,1.59525 h 0.869368 l -0.03979,0.20498 h -1.112936 z"
       id="path3065" /></g><path
     style="opacity:1;fill:none;stroke:#d08c58;stroke-width:0.352999;stroke-opacity:1;paint-order:fill markers stroke"
     d="M 21.722638,43.259613 V 66.281897"
     id="path2925" /><path
     style="opacity:1;fill:none;stroke:#d08c58;stroke-width:0.352999;stroke-opacity:1;paint-order:fill markers stroke"
     d="M 33.23378,43.259613 V 66.281897"
     id="path2979" /><path
     style="opacity:1;fill:none;stroke:#d08c58;stroke-width:0.352999;stroke-opacity:1;paint-order:fill markers stroke"
     d="M 44.744922,43.259613 V 66.281897"
     id="path2981" /><path
     style="opacity:1;fill:none;stroke:#d08c58;stroke-width:0.352999;stroke-opacity:1;paint-order:fill markers stroke"
     d="M 56.256064,43.259613 V 66.281897"
     id="path2983" /><path
     style="opacity:1;fill:none;stroke:#d08c58;stroke-width:0.352999;stroke-opacity:1;paint-order:fill markers stroke"
     d="M 67.767206,43.259613 V 66.281897"
     id="path2985" /><path
     style="opacity:1;fill:none;stroke:#d08c58;stroke-width:0.352999;stroke-opacity:1;paint-order:fill markers stroke"
     d="M 79.278348,43.259613 V 66.281897"
     id="path2987" /><path
     style="opacity:1;fill:none;stroke:#d08c58;stroke-width:0.352999;stroke-opacity:1;paint-order:fill markers stroke"
     d="M 49.282715,79.835338 H 60.340662"
     id="path2991" /><path
     style="opacity:1;fill:none;stroke:#d08c58;stroke-width:0.352999;stroke-opacity:1;paint-order:fill markers stroke"
     d="M 49.015184,90.975152 H 60.073131"
     id="path2993" /><path
     style="opacity:1;fill:none;stroke:#d08c58;stroke-width:0.352999;stroke-opacity:1;paint-order:fill markers stroke"
     d="M 49.015184,102.11497 H 60.073131"
     id="path2995" /><path
     style="opacity:1;fill:none;stroke:#d08c58;stroke-width:0.352999;stroke-opacity:1;paint-order:fill markers stroke"
     d="M 49.015184,113.06912 H 60.073131"
     id="path2997" /><path
     style="opacity:1;fill:none;stroke:#d08c58;stroke-width:0.352999;stroke-opacity:1;paint-order:fill markers stroke"
     d="M 74.904289,79.835338 H 85.962236"
     id="path2999" /><path
     style="opacity:1;fill:none;stroke:#d08c58;stroke-width:0.352999;stroke-opacity:1;paint-order:fill markers stroke"
     d="M 74.636758,90.975152 H 85.694705"
     id="path3001" /><path
     style="opacity:1;fill:none;stroke:#d08c58;stroke-width:0.352999;stroke-opacity:1;paint-order:fill markers stroke"
     d="M 74.636758,102.11497 H 85.694705"
     id="path3003" /><path
     style="opacity:1;fill:none;stroke:#d08c58;stroke-width:0.352999;stroke-opacity:1;paint-order:fill markers stroke"
     d="M 74.636758,113.06912 H 85.694705"
     id="path3005" /><rect
     style="fill:#3b3b3b;fill-opacity:1;stroke:#d08c58;stroke-width:0.352778;stroke-linecap:square;stroke-dasharray:none;stroke-opacity:1;paint-order:fill markers stroke"
     id="rect4343"
     width="7.4373536"
     height="29.06234"
     x="86.706062"
     y="31.651905"
     rx="4"
     ry="3.9999998" /></svg>
