<?xml version="1.0" encoding="UTF-8" standalone="no"?>
<!-- Created with Inkscape (http://www.inkscape.org/) -->

<svg
   width="76.199997mm"
   height="128.5mm"
   viewBox="0 0 76.200005 128.50002"
   version="1.1"
   id="svg8"
   inkscape:version="1.2 (dc2aeda, 2022-05-15)"
   sodipodi:docname="Tuner.svg"
   xml:space="preserve"
   xmlns:inkscape="http://www.inkscape.org/namespaces/inkscape"
   xmlns:sodipodi="http://sodipodi.sourceforge.net/DTD/sodipodi-0.dtd"
   xmlns="http://www.w3.org/2000/svg"
   xmlns:svg="http://www.w3.org/2000/svg"
   xmlns:rdf="http://www.w3.org/1999/02/22-rdf-syntax-ns#"
   xmlns:cc="http://creativecommons.org/ns#"
   xmlns:dc="http://purl.org/dc/elements/1.1/"><defs
     id="defs2" /><sodipodi:namedview
     id="base"
     pagecolor="#ffffff"
     bordercolor="#666666"
     borderopacity="1.0"
     inkscape:pageopacity="0.0"
     inkscape:pageshadow="2"
     inkscape:zoom="1.32"
     inkscape:cx="172.34848"
     inkscape:cy="256.81818"
     inkscape:document-units="mm"
     inkscape:current-layer="g1"
     showgrid="false"
     units="mm"
     inkscape:snap-bbox="true"
     inkscape:snap-page="true"
     inkscape:bbox-nodes="false"
     inkscape:snap-bbox-edge-midpoints="false"
     inkscape:window-width="1467"
     inkscape:window-height="900"
     inkscape:window-x="63"
     inkscape:window-y="38"
     inkscape:window-maximized="0"
     inkscape:snap-bbox-midpoints="true"
     inkscape:snap-nodes="false"
     inkscape:showpageshadow="2"
     inkscape:pagecheckerboard="0"
     inkscape:deskcolor="#d1d1d1" /><metadata
     id="metadata5"><rdf:RDF><cc:Work
         rdf:about=""><dc:format>image/svg+xml</dc:format><dc:type
           rdf:resource="http://purl.org/dc/dcmitype/StillImage" /></cc:Work></rdf:RDF></metadata><g
     id="g1"><rect
       id="rect1"
       x="-0.15726471"
       y="-0.31555176"
       width="76.514526"
       height="129.1311"
       style="clip-rule:evenodd;display:inline;opacity:1;fill:#e5e5e5;fill-rule:evenodd;stroke-width:0.429856;stroke-linejoin:round;stroke-miterlimit:1.5;fill-opacity:1" /><rect
       style="clip-rule:evenodd;display:inline;fill:#666666;fill-opacity:1;fill-rule:evenodd;stroke:#000000;stroke-width:0.352778;stroke-linejoin:round;stroke-miterlimit:1.5;stroke-dasharray:none;stroke-opacity:1"
       id="rect20577"
       width="12.46214"
       height="15.202715"
       x="57.640388"
       y="48.636681"
       rx="4"
       ry="4"
       inkscape:transform-center-x="-26.948528"
       inkscape:transform-center-y="-15.747271" /><g
       id="g3297"
       style="opacity:1;fill:#000000"><path
         id="path128"
         d="m 34.914777,125.9342 c 0.05984,0.1268 0.07943,0.25396 0.05842,0.38219 h -0.419235 c -0.0064,-0.0983 -0.02565,-0.1724 -0.05842,-0.22227 -0.05735,-0.089 -0.160997,-0.13357 -0.310597,-0.13357 -0.152449,0 -0.28602,0.0627 -0.4,0.18843 -0.114337,0.12538 -0.195192,0.30276 -0.242921,0.5325 -0.04809,0.22974 -0.03776,0.40143 0.0317,0.51612 0.0691,0.11433 0.175246,0.17133 0.318434,0.17133 0.147106,0 0.269635,-0.0492 0.367587,-0.14747 0.05378,-0.0524 0.105432,-0.13179 0.155298,-0.23722 h 0.415317 c -0.08264,0.22333 -0.213357,0.40463 -0.391452,0.54461 -0.178451,0.13927 -0.384328,0.20944 -0.617632,0.20944 -0.288513,0 -0.495815,-0.0944 -0.621906,-0.28317 -0.125379,-0.18985 -0.153162,-0.44986 -0.08442,-0.78076 0.07409,-0.35726 0.225468,-0.63295 0.453429,-0.82636 0.198753,-0.16848 0.424221,-0.2529 0.676403,-0.2529 0.337667,0 0.560642,0.11327 0.669992,0.3391 z"
         style="clip-rule:evenodd;fill:#000000;fill-rule:nonzero;stroke-width:0.356189;stroke-linejoin:round;stroke-miterlimit:1.5" /><path
         id="path129"
         d="m 35.843006,127.18869 0.764026,-1.55441 h 0.435619 l -1.110954,2.04667 h -0.396083 l -0.252181,-2.04667 h 0.448442 z"
         style="clip-rule:evenodd;fill:#000000;fill-rule:nonzero;stroke-width:0.356189;stroke-linejoin:round;stroke-miterlimit:1.5" /><path
         id="path130"
         d="m 38.625912,126.18139 -0.05877,0.27925 h -0.253963 l -0.253607,1.22031 h -0.386466 l 0.253606,-1.22031 h -0.216919 l 0.05842,-0.27925 h 0.212645 l 0.01995,-0.0972 c 0.03419,-0.16207 0.08406,-0.27355 0.149955,-0.33482 0.07551,-0.0905 0.220482,-0.13606 0.43562,-0.13606 0.02458,0 0.04666,7.1e-4 0.06625,0.002 0.01959,0.001 0.04666,0.004 0.08121,0.006 l -0.06803,0.32271 c -0.02102,-0.003 -0.05699,-0.005 -0.107569,-0.006 -0.05093,-10e-4 -0.08905,0.01 -0.113981,0.0345 -0.02493,0.0246 -0.03989,0.0516 -0.04559,0.0812 -0.0064,0.0299 -0.01532,0.0723 -0.02743,0.12787 z"
         style="clip-rule:evenodd;fill:#000000;fill-rule:nonzero;stroke-width:0.356189;stroke-linejoin:round;stroke-miterlimit:1.5" /><path
         id="path131"
         d="m 39.532769,127.46759 c -0.0043,0.005 -0.01638,0.0185 -0.03562,0.0417 -0.01888,0.0232 -0.04025,0.0431 -0.06376,0.0609 -0.07266,0.0556 -0.139626,0.0933 -0.200891,0.11363 -0.06091,0.0203 -0.129653,0.0306 -0.206234,0.0306 -0.219412,0 -0.350846,-0.0801 -0.393232,-0.2415 -0.02386,-0.0887 -0.01745,-0.21977 0.01888,-0.39287 l 0.189492,-0.91256 h 0.397151 l -0.189136,0.91256 c -0.01817,0.0862 -0.02173,0.15066 -0.01104,0.19447 0.01923,0.0769 0.0805,0.11541 0.183794,0.11541 0.132502,0 0.234728,-0.0549 0.306678,-0.1642 0.03811,-0.0591 0.06732,-0.13749 0.08727,-0.23438 l 0.171327,-0.82386 h 0.393233 l -0.314515,1.51345 h -0.376849 z"
         style="clip-rule:evenodd;fill:#000000;fill-rule:nonzero;stroke-width:0.356189;stroke-linejoin:round;stroke-miterlimit:1.5" /><path
         id="path132"
         d="m 41.378898,126.76091 c 0.0171,-0.0798 0.01959,-0.14105 0.0068,-0.18344 -0.02173,-0.078 -0.08584,-0.11683 -0.193055,-0.11683 -0.13179,0 -0.234016,0.057 -0.306323,0.17062 -0.03847,0.0605 -0.06696,0.13749 -0.08584,0.23081 l -0.170259,0.81888 h -0.386465 l 0.314159,-1.51096 h 0.374711 l -0.04631,0.22084 c 0.0659,-0.0773 0.125023,-0.13357 0.177026,-0.16777 0.09225,-0.0613 0.200179,-0.0915 0.322352,-0.0915 0.153517,0 0.270347,0.0406 0.350846,0.12289 0.08014,0.0819 0.100801,0.21763 0.06162,0.40748 l -0.212289,1.01906 h -0.397507 z"
         style="clip-rule:evenodd;fill:#000000;fill-rule:nonzero;stroke-width:0.356189;stroke-linejoin:round;stroke-miterlimit:1.5" /><path
         id="path133"
         d="m 42.41897,127.20543 -0.09759,0.47552 h -0.381484 l 0.424934,-2.0399 h 0.381122 l -0.230454,1.10312 0.601959,-0.5699 h 0.480856 l -0.640072,0.57952 0.346928,0.92716 H 42.83678 l -0.220125,-0.64684 z"
         style="clip-rule:evenodd;fill:#000000;fill-rule:nonzero;stroke-width:0.356189;stroke-linejoin:round;stroke-miterlimit:1.5" /><path
         id="path134"
         d="m 25.633555,126.66688 h 6.62227"
         style="clip-rule:evenodd;fill:none;fill-rule:evenodd;stroke:#000000;stroke-width:0.227961px;stroke-linecap:round;stroke-linejoin:round;stroke-miterlimit:1.5" /><path
         id="path135"
         d="m 43.944172,126.66688 h 6.62227"
         style="clip-rule:evenodd;fill:none;fill-rule:evenodd;stroke:#000000;stroke-width:0.227961px;stroke-linecap:round;stroke-linejoin:round;stroke-miterlimit:1.5" /></g><rect
       style="display:inline;opacity:1;fill:#212121;fill-opacity:1;stroke:#000000;stroke-width:0.352778;stroke-dasharray:none;stroke-opacity:1"
       id="rect2"
       width="63.95142"
       height="35.646832"
       x="6.1242886"
       y="11.343763"
       ry="10"
       rx="10" /><g
       aria-label="TUNER"
       id="text3006"
       style="font-style:italic;font-size:5.64444px;font-family:Menlo;-inkscape-font-specification:'Menlo Italic';text-align:center;text-anchor:middle;fill:#000000;stroke-width:0.705556;stroke-linecap:round;stroke-linejoin:round;paint-order:fill markers stroke"><path
         d="m 30.028835,1.6979967 h 3.141925 l -0.09095,0.4685327 H 31.78721 l -0.705555,3.6462863 h -0.562239 l 0.711067,-3.6462863 h -1.292598 z"
         id="path3201"
         style="fill:#000000" /><path
         d="m 33.212101,4.2335851 0.490581,-2.5355884 h 0.559483 l -0.493337,2.5355884 q -0.0055,0.035829 -0.02205,0.112999 -0.08268,0.4244355 -0.08268,0.5870439 0,0.2535588 0.148828,0.3803382 0.151584,0.1267794 0.454752,0.1267794 0.245291,0 0.416168,-0.07717 0.170876,-0.079926 0.294899,-0.2508028 0.06063,-0.085438 0.121268,-0.2921439 0.06339,-0.2094616 0.137803,-0.5870438 l 0.490582,-2.5355884 h 0.559483 l -0.490581,2.5355884 q -0.115756,0.6035803 -0.248047,0.8874559 -0.129536,0.2811196 -0.344509,0.4547523 -0.195682,0.1543401 -0.446484,0.2370224 -0.250803,0.079926 -0.542947,0.079926 -0.529166,0 -0.815798,-0.2480467 -0.283876,-0.2480467 -0.283876,-0.705555 0,-0.1019747 0.02205,-0.2756074 0.02481,-0.1736327 0.07441,-0.4299476 z"
         id="path3203"
         style="fill:#000000" /><path
         d="m 37.078873,1.6979967 h 0.705555 l 0.727604,3.3872154 0.658702,-3.3872154 h 0.537434 L 38.90615,5.8128157 H 38.200595 L 37.472992,2.4256003 36.811534,5.8128157 h -0.534679 z"
         id="path3205"
         style="fill:#000000" /><path
         d="m 40.639722,1.6979967 h 2.439125 l -0.09095,0.4685327 H 41.102742 L 40.86572,3.3847142 h 1.799716 l -0.08819,0.4685326 H 40.774769 L 40.488137,5.344283 h 1.934765 l -0.09095,0.4685327 h -2.494247 z"
         id="path3207"
         style="fill:#000000" /><path
         d="m 45.201024,3.8697833 q 0.198437,0.038585 0.316949,0.184657 0.121267,0.1460719 0.270095,0.6338971 l 0.333485,1.1244783 h -0.553971 l -0.292144,-1.03904 Q 45.154171,4.3438281 45.002587,4.2087804 44.853759,4.0737328 44.550591,4.0737328 h -0.529167 l -0.338997,1.7390829 h -0.559483 l 0.796506,-4.114819 h 1.146526 q 0.570508,0 0.881944,0.2480467 0.314193,0.2452906 0.314193,0.6945307 0,0.5043616 -0.286632,0.8350906 -0.283876,0.3307289 -0.774457,0.3941186 z m -0.80753,-1.7142782 -0.281119,1.4607193 h 0.60358 q 0.44924,0 0.716579,-0.2342663 0.270096,-0.2370224 0.270096,-0.6283849 0,-0.3086803 -0.173633,-0.4519962 -0.173633,-0.1460719 -0.548459,-0.1460719 z"
         id="path3209"
         style="fill:#000000" /></g><path
       style="fill:none;stroke:#666666;stroke-width:0.352778;stroke-linecap:round;stroke-dasharray:none;stroke-opacity:1;paint-order:fill markers stroke"
       d="M 38.099998,39.067713 V 19.266645"
       id="path2340" /><path
       style="fill:none;stroke:#666666;stroke-width:0.352778;stroke-linecap:round;stroke-dasharray:none;stroke-opacity:1;paint-order:fill markers stroke"
       d="M 6.3638018,29.167179 H 69.836195"
       id="path2342" /><rect
       style="display:inline;opacity:1;fill:#212121;fill-opacity:1;stroke:#000000;stroke-width:0.352778;stroke-dasharray:none;stroke-opacity:1"
       id="rect4173"
       width="63.95142"
       height="35.646832"
       x="6.1242886"
       y="67.267059"
       ry="10"
       rx="10" /><rect
       style="clip-rule:evenodd;display:inline;fill:#666666;fill-opacity:1;fill-rule:evenodd;stroke:#000000;stroke-width:0.352778;stroke-linejoin:round;stroke-miterlimit:1.5;stroke-dasharray:none;stroke-opacity:1"
       id="rect7929"
       width="12.46214"
       height="15.202715"
       x="57.640388"
       y="104.46415"
       rx="4"
       ry="4"
       inkscape:transform-center-x="-26.948528"
       inkscape:transform-center-y="-15.747271" /><path
       style="fill:none;stroke:#666666;stroke-width:0.352778;stroke-linecap:round;stroke-dasharray:none;stroke-opacity:1;paint-order:fill markers stroke"
       d="M 38.099998,94.991008 V 75.18994"
       id="path4175" /><path
       style="fill:none;stroke:#666666;stroke-width:0.352778;stroke-linecap:round;stroke-dasharray:none;stroke-opacity:1;paint-order:fill markers stroke"
       d="M 6.3638018,85.090474 H 69.836195"
       id="path4177" /><g
       aria-label="OFFSET"
       id="text4229"
       style="font-style:italic;font-size:2.82222px;font-family:Menlo;-inkscape-font-specification:'Menlo Italic';text-align:center;text-anchor:middle;opacity:1;fill:#000000;stroke-width:0.705556;stroke-linecap:round;stroke-linejoin:round;paint-order:fill markers stroke"><path
         d="m 20.60478,62.384506 q 0.117133,0 0.216352,-0.07028 0.09922,-0.07028 0.163986,-0.201193 0.101975,-0.199815 0.165364,-0.483691 0.06339,-0.283876 0.06339,-0.545703 0,-0.195681 -0.07304,-0.288009 -0.07166,-0.09371 -0.223242,-0.09371 -0.117133,0 -0.214974,0.07028 -0.09784,0.07028 -0.162608,0.201193 -0.104731,0.202572 -0.168121,0.483691 -0.06339,0.28112 -0.06339,0.542947 0,0.197059 0.07166,0.290766 0.07304,0.09371 0.22462,0.09371 z m 0.894346,-1.219563 q 0,0.151585 -0.03169,0.329351 -0.03032,0.177767 -0.08957,0.36518 -0.03996,0.12678 -0.08682,0.227376 -0.04547,0.100597 -0.09922,0.181901 -0.121268,0.175011 -0.271474,0.259071 -0.150206,0.08268 -0.350021,0.08268 -0.276986,0 -0.410655,-0.169498 -0.13367,-0.169499 -0.13367,-0.522276 0,-0.152962 0.02894,-0.327973 0.03032,-0.176389 0.08957,-0.363802 0.03996,-0.126779 0.08544,-0.227376 0.04685,-0.100597 0.100596,-0.181901 0.121268,-0.175011 0.271474,-0.257693 0.150206,-0.08406 0.350021,-0.08406 0.278364,0 0.412033,0.169498 0.135048,0.168121 0.135048,0.51952 z"
         id="path4825"
         style="fill:#000000" /><path
         d="m 22.139913,60.513132 h 1.211295 l -0.04547,0.234266 h -0.931554 l -0.118511,0.606337 h 0.843359 l -0.0441,0.234266 h -0.844737 l -0.191547,0.98254 h -0.279742 z"
         id="path4827"
         style="fill:#000000" /><path
         d="m 23.839033,60.513132 h 1.211295 l -0.04548,0.234266 h -0.931553 l -0.118511,0.606337 h 0.843359 l -0.0441,0.234266 h -0.844737 l -0.191547,0.98254 h -0.279742 z"
         id="path4829"
         style="fill:#000000" /><path
         d="m 26.590973,60.583412 -0.05374,0.282497 q -0.111621,-0.0813 -0.23151,-0.122645 -0.11989,-0.04134 -0.248047,-0.04134 -0.227376,0 -0.370692,0.112999 -0.143316,0.112999 -0.143316,0.28801 0,0.09784 0.06752,0.158474 0.06752,0.06063 0.245291,0.115755 l 0.166742,0.05374 q 0.22462,0.0689 0.327973,0.184657 0.104731,0.114377 0.104731,0.292144 0,0.323838 -0.228754,0.514007 -0.228755,0.188791 -0.624251,0.188791 -0.143316,0 -0.282498,-0.03169 -0.137804,-0.03032 -0.275607,-0.09233 l 0.0565,-0.28801 q 0.135048,0.09509 0.272852,0.14056 0.139181,0.04548 0.293521,0.04548 0.227377,0 0.369314,-0.121267 0.141938,-0.121267 0.141938,-0.307302 0,-0.112999 -0.06063,-0.175011 -0.06063,-0.06201 -0.243913,-0.118511 l -0.139182,-0.04548 q -0.253559,-0.07993 -0.355533,-0.180523 -0.100597,-0.101975 -0.100597,-0.268717 0,-0.304547 0.227376,-0.497472 0.227376,-0.194303 0.593934,-0.194303 0.110243,0 0.234266,0.02756 0.125402,0.02756 0.256315,0.07993 z"
         id="path4831"
         style="fill:#000000" /><path
         d="m 27.183529,60.513132 h 1.219563 l -0.04547,0.234266 h -0.942578 l -0.118511,0.609093 h 0.899858 l -0.0441,0.234266 h -0.901236 l -0.143316,0.745518 h 0.967382 l -0.04547,0.234266 H 26.78252 Z"
         id="path4833"
         style="fill:#000000" /><path
         d="m 28.674565,60.513132 h 1.570962 l -0.04547,0.234266 h -0.646299 l -0.352778,1.823143 h -0.281119 l 0.355533,-1.823143 H 28.62909 Z"
         id="path4835"
         style="fill:#000000" /></g><g
       aria-label="GAIN"
       id="text4800"
       style="font-style:italic;font-size:2.82222px;font-family:Menlo;-inkscape-font-specification:'Menlo Italic';text-align:center;text-anchor:middle;opacity:1;fill:#000000;stroke-width:0.705556;stroke-linecap:round;stroke-linejoin:round;paint-order:fill markers stroke"><path
         d="m 35.886639,62.43825 q -0.119889,0.08544 -0.261827,0.129535 -0.141938,0.04272 -0.303169,0.04272 -0.319705,0 -0.491959,-0.184657 -0.170877,-0.186035 -0.170877,-0.529166 0,-0.124024 0.02205,-0.263206 0.02343,-0.140559 0.06752,-0.293522 0.04823,-0.16123 0.112999,-0.290766 0.06477,-0.130913 0.141938,-0.223242 0.14745,-0.179145 0.325217,-0.264583 0.179145,-0.08544 0.4079,-0.08544 0.110243,0 0.219108,0.02894 0.110243,0.02894 0.216352,0.08406 l -0.0565,0.285254 q -0.08957,-0.08682 -0.188791,-0.129535 -0.09784,-0.04272 -0.209462,-0.04272 -0.135048,0 -0.253559,0.05788 -0.118511,0.0565 -0.212218,0.168121 -0.06063,0.07166 -0.114377,0.179145 -0.05374,0.107487 -0.09508,0.241156 -0.04685,0.157097 -0.07166,0.294901 -0.02343,0.137803 -0.02343,0.249425 0,0.235644 0.108865,0.363802 0.108865,0.128157 0.30868,0.128157 0.09371,0 0.168121,-0.0248 0.07441,-0.02618 0.125402,-0.07442 l 0.10473,-0.541569 h -0.299034 l 0.04134,-0.228754 h 0.564996 z"
         id="path4838"
         style="fill:#000000" /><path
         d="m 37.263299,60.744641 -0.501606,1.066601 H 37.35425 Z M 37.131007,60.51313 h 0.338998 l 0.228754,2.057411 h -0.276986 l -0.04823,-0.536056 h -0.71658 l -0.253559,0.536056 h -0.299034 z"
         id="path4840"
         style="fill:#000000" /><path
         d="m 38.426363,60.51313 h 1.143772 l -0.04548,0.234267 h -0.432704 l -0.307303,1.588878 h 0.432704 l -0.04548,0.234266 H 38.02811 l 0.04548,-0.234266 h 0.431326 l 0.30868,-1.588878 h -0.432704 z"
         id="path4842"
         style="fill:#000000" /><path
         d="m 40.041424,60.51313 h 0.352778 l 0.363802,1.693609 0.329351,-1.693609 h 0.268718 l -0.401009,2.057411 h -0.352778 l -0.363802,-1.693609 -0.330729,1.693609 h -0.26734 z"
         id="path4844"
         style="fill:#000000" /></g><g
       aria-label="WIDTH"
       id="text4804"
       style="font-style:italic;font-size:2.82222px;font-family:Menlo;-inkscape-font-specification:'Menlo Italic';text-align:center;text-anchor:middle;opacity:1;fill:#000000;stroke-width:0.705556;stroke-linecap:round;stroke-linejoin:round;paint-order:fill markers stroke"><path
         d="m 46.515889,60.514509 h 0.263205 l -0.124023,1.667425 0.453374,-1.10243 h 0.290766 l 0.02067,1.105186 0.51952,-1.670181 h 0.272851 l -0.702799,2.057409 h -0.267339 l -0.04272,-1.198892 -0.511252,1.198892 h -0.259071 z"
         id="path4814"
         style="fill:#000000" /><path
         d="m 48.491994,60.514509 h 1.143771 l -0.04547,0.234266 h -0.432704 l -0.307302,1.588877 h 0.432704 l -0.04548,0.234266 h -1.143771 l 0.04548,-0.234266 h 0.431326 l 0.30868,-1.588877 h -0.432704 z"
         id="path4816"
         style="fill:#000000" /><path
         d="m 50.160797,62.343164 q 0.254937,0 0.409277,-0.08544 0.154341,-0.08682 0.248047,-0.28112 0.07441,-0.158474 0.121267,-0.377582 0.04823,-0.220486 0.04823,-0.403765 0,-0.242534 -0.112999,-0.347265 -0.112999,-0.104731 -0.378961,-0.104731 h -0.157096 l -0.311436,1.599901 z m 0.361046,-1.828655 q 0.376204,0 0.562239,0.170877 0.187413,0.170876 0.187413,0.518142 0,0.223242 -0.05788,0.460264 -0.05788,0.237022 -0.155718,0.420301 -0.143316,0.263205 -0.35829,0.376204 -0.213596,0.111621 -0.578776,0.111621 h -0.417545 l 0.401009,-2.057409 z"
         id="path4818"
         style="fill:#000000" /><path
         d="m 51.679395,60.514509 h 1.570962 l -0.04548,0.234266 h -0.6463 l -0.352777,1.823143 h -0.28112 l 0.355534,-1.823143 h -0.6463 z"
         id="path4820"
         style="fill:#000000" /><path
         d="m 53.502538,60.514509 h 0.278363 l -0.162608,0.843359 h 0.762054 l 0.162609,-0.843359 h 0.279741 l -0.401009,2.057409 h -0.278363 l 0.191547,-0.979784 h -0.764811 l -0.188791,0.979784 h -0.279741 z"
         id="path4822"
         style="fill:#000000" /></g><g
       aria-label="IN"
       id="text4808"
       style="font-style:italic;font-size:2.82222px;font-family:Menlo;-inkscape-font-specification:'Menlo Italic';text-align:center;text-anchor:middle;opacity:1;fill:#000000;stroke-width:0.705556;stroke-linecap:round;stroke-linejoin:round;paint-order:fill markers stroke"><path
         d="m 11.215152,50.562342 h 1.143771 l -0.04548,0.234266 h -0.432704 l -0.307302,1.588877 h 0.432704 l -0.04547,0.234266 H 10.8169 l 0.04547,-0.234266 h 0.431326 l 0.30868,-1.588877 h -0.432704 z"
         id="path4858"
         style="fill:#000000" /><path
         d="m 12.830212,50.562342 h 0.352777 l 0.363802,1.693607 0.329351,-1.693607 h 0.268717 l -0.401008,2.057409 h -0.352778 l -0.363802,-1.693608 -0.330729,1.693608 h -0.267339 z"
         id="path4860"
         style="fill:#000000" /></g><g
       aria-label="V/OCT"
       id="text4812"
       style="font-style:italic;font-size:2.82222px;font-family:Menlo;-inkscape-font-specification:'Menlo Italic';text-align:center;text-anchor:middle;opacity:1;fill:#ffffff;stroke-width:0.705556;stroke-linecap:round;stroke-linejoin:round;paint-order:fill markers stroke"><path
         d="m 59.916651,52.245615 0.824067,-1.795584 h 0.296278 l -0.990809,2.057411 h -0.355534 l -0.202571,-2.057411 h 0.272851 z"
         id="path4847"
         style="fill:#ffffff" /><path
         d="m 60.935022,52.76927 1.174088,-2.319239 h 0.263205 l -1.176844,2.319239 z"
         id="path4849"
         style="fill:#ffffff" /><path
         d="m 63.303869,52.321407 q 0.117134,0 0.216352,-0.07028 0.09922,-0.07028 0.163987,-0.201193 0.101975,-0.199816 0.165364,-0.483692 0.06339,-0.283875 0.06339,-0.545703 0,-0.195681 -0.07304,-0.28801 -0.07166,-0.09371 -0.223242,-0.09371 -0.117133,0 -0.214974,0.07028 -0.09784,0.07028 -0.162608,0.201193 -0.104731,0.202572 -0.168121,0.483692 -0.06339,0.281119 -0.06339,0.542947 0,0.197059 0.07166,0.290766 0.07304,0.09371 0.22462,0.09371 z m 0.894347,-1.219563 q 0,0.151584 -0.03169,0.329351 -0.03032,0.177767 -0.08957,0.36518 -0.03996,0.126779 -0.08682,0.227376 -0.04548,0.100597 -0.09922,0.181901 -0.121268,0.175011 -0.271474,0.259071 -0.150206,0.08268 -0.350022,0.08268 -0.276985,0 -0.410655,-0.169499 -0.13367,-0.169499 -0.13367,-0.522277 0,-0.152962 0.02894,-0.327973 0.03032,-0.176389 0.08957,-0.363802 0.03996,-0.126779 0.08544,-0.227376 0.04685,-0.100597 0.100597,-0.181901 0.121267,-0.175011 0.271473,-0.257693 0.150206,-0.08406 0.350022,-0.08406 0.278364,0 0.412033,0.169499 0.135048,0.168121 0.135048,0.519521 z"
         id="path4851"
         style="fill:#ffffff" /><path
         d="m 65.612083,52.434406 q -0.115755,0.0565 -0.234266,0.08406 -0.117133,0.02894 -0.242535,0.02894 -0.316949,0 -0.491959,-0.183279 -0.173633,-0.18328 -0.173633,-0.514009 0,-0.303168 0.09646,-0.600824 0.09646,-0.297657 0.253559,-0.486448 0.147451,-0.179145 0.325217,-0.264583 0.177767,-0.08544 0.405144,-0.08544 0.110243,0 0.219108,0.02894 0.108865,0.02894 0.212218,0.08406 l -0.0565,0.285253 q -0.08819,-0.08682 -0.186035,-0.129535 -0.09784,-0.04272 -0.208084,-0.04272 -0.130913,0 -0.242535,0.0565 -0.111621,0.05512 -0.209461,0.169499 -0.143316,0.169499 -0.231511,0.434082 -0.08682,0.264583 -0.08682,0.530545 0,0.2384 0.107487,0.36518 0.107487,0.126779 0.310058,0.126779 0.117134,0 0.241157,-0.0441 0.125402,-0.0441 0.246669,-0.128157 z"
         id="path4853"
         style="fill:#ffffff" /><path
         d="m 66.276298,50.450031 h 1.570963 l -0.04547,0.234267 h -0.6463 l -0.352778,1.823144 h -0.281119 l 0.355533,-1.823144 h -0.6463 z"
         id="path4855"
         style="fill:#ffffff" /></g><g
       aria-label="OFFSET"
       id="g4875"
       style="font-style:italic;font-size:2.82222px;font-family:Menlo;-inkscape-font-specification:'Menlo Italic';text-align:center;text-anchor:middle;opacity:1;fill:#000000;stroke-width:0.705556;stroke-linecap:round;stroke-linejoin:round;paint-order:fill markers stroke"
       transform="translate(0,55.559665)"><path
         d="m 20.60478,62.384506 q 0.117133,0 0.216352,-0.07028 0.09922,-0.07028 0.163986,-0.201193 0.101975,-0.199815 0.165364,-0.483691 0.06339,-0.283876 0.06339,-0.545703 0,-0.195681 -0.07304,-0.288009 -0.07166,-0.09371 -0.223242,-0.09371 -0.117133,0 -0.214974,0.07028 -0.09784,0.07028 -0.162608,0.201193 -0.104731,0.202572 -0.168121,0.483691 -0.06339,0.28112 -0.06339,0.542947 0,0.197059 0.07166,0.290766 0.07304,0.09371 0.22462,0.09371 z m 0.894346,-1.219563 q 0,0.151585 -0.03169,0.329351 -0.03032,0.177767 -0.08957,0.36518 -0.03996,0.12678 -0.08682,0.227376 -0.04547,0.100597 -0.09922,0.181901 -0.121268,0.175011 -0.271474,0.259071 -0.150206,0.08268 -0.350021,0.08268 -0.276986,0 -0.410655,-0.169498 -0.13367,-0.169499 -0.13367,-0.522276 0,-0.152962 0.02894,-0.327973 0.03032,-0.176389 0.08957,-0.363802 0.03996,-0.126779 0.08544,-0.227376 0.04685,-0.100597 0.100596,-0.181901 0.121268,-0.175011 0.271474,-0.257693 0.150206,-0.08406 0.350021,-0.08406 0.278364,0 0.412033,0.169498 0.135048,0.168121 0.135048,0.51952 z"
         id="path4863"
         style="fill:#000000" /><path
         d="m 22.139913,60.513132 h 1.211295 l -0.04547,0.234266 h -0.931554 l -0.118511,0.606337 h 0.843359 l -0.0441,0.234266 h -0.844737 l -0.191547,0.98254 h -0.279742 z"
         id="path4865"
         style="fill:#000000" /><path
         d="m 23.839033,60.513132 h 1.211295 l -0.04548,0.234266 h -0.931553 l -0.118511,0.606337 h 0.843359 l -0.0441,0.234266 h -0.844737 l -0.191547,0.98254 h -0.279742 z"
         id="path4867"
         style="fill:#000000" /><path
         d="m 26.590973,60.583412 -0.05374,0.282497 q -0.111621,-0.0813 -0.23151,-0.122645 -0.11989,-0.04134 -0.248047,-0.04134 -0.227376,0 -0.370692,0.112999 -0.143316,0.112999 -0.143316,0.28801 0,0.09784 0.06752,0.158474 0.06752,0.06063 0.245291,0.115755 l 0.166742,0.05374 q 0.22462,0.0689 0.327973,0.184657 0.104731,0.114377 0.104731,0.292144 0,0.323838 -0.228754,0.514007 -0.228755,0.188791 -0.624251,0.188791 -0.143316,0 -0.282498,-0.03169 -0.137804,-0.03032 -0.275607,-0.09233 l 0.0565,-0.28801 q 0.135048,0.09509 0.272852,0.14056 0.139181,0.04548 0.293521,0.04548 0.227377,0 0.369314,-0.121267 0.141938,-0.121267 0.141938,-0.307302 0,-0.112999 -0.06063,-0.175011 -0.06063,-0.06201 -0.243913,-0.118511 l -0.139182,-0.04548 q -0.253559,-0.07993 -0.355533,-0.180523 -0.100597,-0.101975 -0.100597,-0.268717 0,-0.304547 0.227376,-0.497472 0.227376,-0.194303 0.593934,-0.194303 0.110243,0 0.234266,0.02756 0.125402,0.02756 0.256315,0.07993 z"
         id="path4869"
         style="fill:#000000" /><path
         d="m 27.183529,60.513132 h 1.219563 l -0.04547,0.234266 h -0.942578 l -0.118511,0.609093 h 0.899858 l -0.0441,0.234266 h -0.901236 l -0.143316,0.745518 h 0.967382 l -0.04547,0.234266 H 26.78252 Z"
         id="path4871"
         style="fill:#000000" /><path
         d="m 28.674565,60.513132 h 1.570962 l -0.04547,0.234266 h -0.646299 l -0.352778,1.823143 h -0.281119 l 0.355533,-1.823143 H 28.62909 Z"
         id="path4873"
         style="fill:#000000" /></g><g
       aria-label="GAIN"
       id="g4885"
       style="font-style:italic;font-size:2.82222px;font-family:Menlo;-inkscape-font-specification:'Menlo Italic';text-align:center;text-anchor:middle;opacity:1;fill:#000000;stroke-width:0.705556;stroke-linecap:round;stroke-linejoin:round;paint-order:fill markers stroke"
       transform="translate(0,55.559665)"><path
         d="m 35.886639,62.43825 q -0.119889,0.08544 -0.261827,0.129535 -0.141938,0.04272 -0.303169,0.04272 -0.319705,0 -0.491959,-0.184657 -0.170877,-0.186035 -0.170877,-0.529166 0,-0.124024 0.02205,-0.263206 0.02343,-0.140559 0.06752,-0.293522 0.04823,-0.16123 0.112999,-0.290766 0.06477,-0.130913 0.141938,-0.223242 0.14745,-0.179145 0.325217,-0.264583 0.179145,-0.08544 0.4079,-0.08544 0.110243,0 0.219108,0.02894 0.110243,0.02894 0.216352,0.08406 l -0.0565,0.285254 q -0.08957,-0.08682 -0.188791,-0.129535 -0.09784,-0.04272 -0.209462,-0.04272 -0.135048,0 -0.253559,0.05788 -0.118511,0.0565 -0.212218,0.168121 -0.06063,0.07166 -0.114377,0.179145 -0.05374,0.107487 -0.09508,0.241156 -0.04685,0.157097 -0.07166,0.294901 -0.02343,0.137803 -0.02343,0.249425 0,0.235644 0.108865,0.363802 0.108865,0.128157 0.30868,0.128157 0.09371,0 0.168121,-0.0248 0.07441,-0.02618 0.125402,-0.07442 l 0.10473,-0.541569 h -0.299034 l 0.04134,-0.228754 h 0.564996 z"
         id="path4877"
         style="fill:#000000" /><path
         d="m 37.263299,60.744641 -0.501606,1.066601 H 37.35425 Z M 37.131007,60.51313 h 0.338998 l 0.228754,2.057411 h -0.276986 l -0.04823,-0.536056 h -0.71658 l -0.253559,0.536056 H 36.10437 Z"
         id="path4879"
         style="fill:#000000" /><path
         d="m 38.426363,60.51313 h 1.143772 l -0.04548,0.234267 h -0.432704 l -0.307303,1.588878 h 0.432704 l -0.04548,0.234266 H 38.02811 l 0.04548,-0.234266 h 0.431326 l 0.30868,-1.588878 h -0.432704 z"
         id="path4881"
         style="fill:#000000" /><path
         d="m 40.041424,60.51313 h 0.352778 l 0.363802,1.693609 0.329351,-1.693609 h 0.268718 l -0.401009,2.057411 h -0.352778 l -0.363802,-1.693609 -0.330729,1.693609 h -0.26734 z"
         id="path4883"
         style="fill:#000000" /></g><g
       aria-label="WIDTH"
       id="g4897"
       style="font-style:italic;font-size:2.82222px;font-family:Menlo;-inkscape-font-specification:'Menlo Italic';text-align:center;text-anchor:middle;opacity:1;fill:#000000;stroke-width:0.705556;stroke-linecap:round;stroke-linejoin:round;paint-order:fill markers stroke"
       transform="translate(0,55.559665)"><path
         d="m 46.515889,60.514509 h 0.263205 l -0.124023,1.667425 0.453374,-1.10243 h 0.290766 l 0.02067,1.105186 0.51952,-1.670181 h 0.272851 l -0.702799,2.057409 h -0.267339 l -0.04272,-1.198892 -0.511252,1.198892 h -0.259071 z"
         id="path4887"
         style="fill:#000000" /><path
         d="m 48.491994,60.514509 h 1.143771 l -0.04547,0.234266 h -0.432704 l -0.307302,1.588877 h 0.432704 l -0.04548,0.234266 h -1.143771 l 0.04548,-0.234266 h 0.431326 l 0.30868,-1.588877 h -0.432704 z"
         id="path4889"
         style="fill:#000000" /><path
         d="m 50.160797,62.343164 q 0.254937,0 0.409277,-0.08544 0.154341,-0.08682 0.248047,-0.28112 0.07441,-0.158474 0.121267,-0.377582 0.04823,-0.220486 0.04823,-0.403765 0,-0.242534 -0.112999,-0.347265 -0.112999,-0.104731 -0.378961,-0.104731 h -0.157096 l -0.311436,1.599901 z m 0.361046,-1.828655 q 0.376204,0 0.562239,0.170877 0.187413,0.170876 0.187413,0.518142 0,0.223242 -0.05788,0.460264 -0.05788,0.237022 -0.155718,0.420301 -0.143316,0.263205 -0.35829,0.376204 -0.213596,0.111621 -0.578776,0.111621 h -0.417545 l 0.401009,-2.057409 z"
         id="path4891"
         style="fill:#000000" /><path
         d="m 51.679395,60.514509 h 1.570962 l -0.04548,0.234266 h -0.6463 L 52.2058,62.571918 h -0.28112 l 0.355534,-1.823143 h -0.6463 z"
         id="path4893"
         style="fill:#000000" /><path
         d="m 53.502538,60.514509 h 0.278363 l -0.162608,0.843359 h 0.762054 l 0.162609,-0.843359 h 0.279741 l -0.401009,2.057409 h -0.278363 l 0.191547,-0.979784 h -0.764811 l -0.188791,0.979784 h -0.279741 z"
         id="path4895"
         style="fill:#000000" /></g><g
       aria-label="IN"
       id="g4903"
       style="font-style:italic;font-size:2.82222px;font-family:Menlo;-inkscape-font-specification:'Menlo Italic';text-align:center;text-anchor:middle;opacity:1;fill:#000000;stroke-width:0.705556;stroke-linecap:round;stroke-linejoin:round;paint-order:fill markers stroke"
       transform="translate(0,55.559665)"><path
         d="m 11.215152,50.562342 h 1.143771 l -0.04548,0.234266 h -0.432704 l -0.307302,1.588877 h 0.432704 l -0.04547,0.234266 H 10.8169 l 0.04547,-0.234266 h 0.431326 l 0.30868,-1.588877 h -0.432704 z"
         id="path4899"
         style="fill:#000000" /><path
         d="m 12.830212,50.562342 h 0.352777 l 0.363802,1.693607 0.329351,-1.693607 h 0.268717 l -0.401008,2.057409 h -0.352778 l -0.363802,-1.693608 -0.330729,1.693608 h -0.267339 z"
         id="path4901"
         style="fill:#000000" /></g><g
       aria-label="V/OCT"
       id="g4915"
       style="font-style:italic;font-size:2.82222px;font-family:Menlo;-inkscape-font-specification:'Menlo Italic';text-align:center;text-anchor:middle;opacity:1;fill:#ffffff;stroke-width:0.705556;stroke-linecap:round;stroke-linejoin:round;paint-order:fill markers stroke"
       transform="translate(0,55.559665)"><path
         d="m 59.916651,52.245615 0.824067,-1.795584 h 0.296278 l -0.990809,2.057411 h -0.355534 l -0.202571,-2.057411 h 0.272851 z"
         id="path4905"
         style="fill:#ffffff" /><path
         d="m 60.935022,52.76927 1.174088,-2.319239 h 0.263205 l -1.176844,2.319239 z"
         id="path4907"
         style="fill:#ffffff" /><path
         d="m 63.303869,52.321407 q 0.117134,0 0.216352,-0.07028 0.09922,-0.07028 0.163987,-0.201193 0.101975,-0.199816 0.165364,-0.483692 0.06339,-0.283875 0.06339,-0.545703 0,-0.195681 -0.07304,-0.28801 -0.07166,-0.09371 -0.223242,-0.09371 -0.117133,0 -0.214974,0.07028 -0.09784,0.07028 -0.162608,0.201193 -0.104731,0.202572 -0.168121,0.483692 -0.06339,0.281119 -0.06339,0.542947 0,0.197059 0.07166,0.290766 0.07304,0.09371 0.22462,0.09371 z m 0.894347,-1.219563 q 0,0.151584 -0.03169,0.329351 -0.03032,0.177767 -0.08957,0.36518 -0.03996,0.126779 -0.08682,0.227376 -0.04548,0.100597 -0.09922,0.181901 -0.121268,0.175011 -0.271474,0.259071 -0.150206,0.08268 -0.350022,0.08268 -0.276985,0 -0.410655,-0.169499 -0.13367,-0.169499 -0.13367,-0.522277 0,-0.152962 0.02894,-0.327973 0.03032,-0.176389 0.08957,-0.363802 0.03996,-0.126779 0.08544,-0.227376 0.04685,-0.100597 0.100597,-0.181901 0.121267,-0.175011 0.271473,-0.257693 0.150206,-0.08406 0.350022,-0.08406 0.278364,0 0.412033,0.169499 0.135048,0.168121 0.135048,0.519521 z"
         id="path4909"
         style="fill:#ffffff" /><path
         d="m 65.612083,52.434406 q -0.115755,0.0565 -0.234266,0.08406 -0.117133,0.02894 -0.242535,0.02894 -0.316949,0 -0.491959,-0.183279 -0.173633,-0.18328 -0.173633,-0.514009 0,-0.303168 0.09646,-0.600824 0.09646,-0.297657 0.253559,-0.486448 0.147451,-0.179145 0.325217,-0.264583 0.177767,-0.08544 0.405144,-0.08544 0.110243,0 0.219108,0.02894 0.108865,0.02894 0.212218,0.08406 l -0.0565,0.285253 q -0.08819,-0.08682 -0.186035,-0.129535 -0.09784,-0.04272 -0.208084,-0.04272 -0.130913,0 -0.242535,0.0565 -0.111621,0.05512 -0.209461,0.169499 -0.143316,0.169499 -0.231511,0.434082 -0.08682,0.264583 -0.08682,0.530545 0,0.2384 0.107487,0.36518 0.107487,0.126779 0.310058,0.126779 0.117134,0 0.241157,-0.0441 0.125402,-0.0441 0.246669,-0.128157 z"
         id="path4911"
         style="fill:#ffffff" /><path
         d="m 66.276298,50.450031 h 1.570963 l -0.04547,0.234267 h -0.6463 l -0.352778,1.823144 h -0.281119 l 0.355533,-1.823144 h -0.6463 z"
         id="path4913"
         style="fill:#ffffff" /></g></g><g
     id="g17888"
     inkscape:label="components"
     style="display:none"><circle
       cx="27.917547"
       cy="69.152466"
       r="2.4996161"
       style="clip-rule:evenodd;display:inline;fill:#ff0000;fill-opacity:1;fill-rule:evenodd;stroke-width:0.0427285;stroke-linecap:round;stroke-linejoin:round;stroke-miterlimit:1.5"
       id="circle153"
       inkscape:label="SHAPE_ATT" /><circle
       cx="27.917547"
       cy="83.985168"
       r="2.4996161"
       style="clip-rule:evenodd;display:inline;fill:#ff0000;fill-opacity:1;fill-rule:evenodd;stroke-width:0.0427285;stroke-linecap:round;stroke-linejoin:round;stroke-miterlimit:1.5"
       id="circle12601"
       inkscape:label="COMPRESS_ATT" /><circle
       cx="27.917547"
       cy="99.018311"
       r="2.4996161"
       style="clip-rule:evenodd;display:inline;fill:#ff0000;fill-opacity:1;fill-rule:evenodd;stroke-width:0.0427285;stroke-linecap:round;stroke-linejoin:round;stroke-miterlimit:1.5"
       id="circle12603"
       inkscape:label="SYMMETRY_ATT" /><circle
       cx="27.917547"
       cy="114.2519"
       r="2.4996161"
       style="clip-rule:evenodd;display:inline;fill:#ff0000;fill-opacity:1;fill-rule:evenodd;stroke-width:0.0427285;stroke-linecap:round;stroke-linejoin:round;stroke-miterlimit:1.5"
       id="circle12605"
       inkscape:label="DENSITY_ATT" /><rect
       x="7.9811254"
       y="12.960738"
       width="29.938946"
       height="32.607563"
       style="clip-rule:evenodd;display:inline;fill:#ffff00;fill-rule:evenodd;stroke-width:0.109407;stroke-linecap:round;stroke-linejoin:round;stroke-miterlimit:1.5"
       id="DELAY_FX_WIDGET"
       inkscape:label="FUNCTION_DISPLAY" /><rect
       x="38.247856"
       y="12.960738"
       width="29.938946"
       height="32.607563"
       style="clip-rule:evenodd;display:inline;fill:#ffff00;fill-rule:evenodd;stroke-width:0.109407;stroke-linecap:round;stroke-linejoin:round;stroke-miterlimit:1.5"
       id="rect13355"
       inkscape:label="SCOPE_DISPLAY" /><circle
       cx="6.6145821"
       cy="70.755997"
       r="4.0671587"
       style="clip-rule:evenodd;display:inline;fill:#00ff00;fill-opacity:1;fill-rule:evenodd;stroke-width:0.0695241;stroke-linecap:round;stroke-linejoin:round;stroke-miterlimit:1.5"
       id="CLOCK_INPUT"
       inkscape:label="AUDIO_IN_R" /><circle
       cx="6.6145821"
       cy="57.326389"
       r="4.0671587"
       style="clip-rule:evenodd;display:inline;fill:#00ff00;fill-opacity:1;fill-rule:evenodd;stroke-width:0.0695241;stroke-linecap:round;stroke-linejoin:round;stroke-miterlimit:1.5"
       id="circle14105"
       inkscape:label="AUDIO_IN_L" /><circle
       cx="69.152466"
       cy="70.755997"
       r="4.0671587"
       style="clip-rule:evenodd;display:inline;fill:#0000ff;fill-opacity:1;fill-rule:evenodd;stroke-width:0.0695241;stroke-linecap:round;stroke-linejoin:round;stroke-miterlimit:1.5"
       id="NOTES_OUTPUT"
       inkscape:label="AUDIO_OUT_R" /><circle
       cx="69.152466"
       cy="57.326389"
       r="4.0671587"
       style="clip-rule:evenodd;display:inline;fill:#0000ff;fill-opacity:1;fill-rule:evenodd;stroke-width:0.0695241;stroke-linecap:round;stroke-linejoin:round;stroke-miterlimit:1.5"
       id="circle14855"
       inkscape:label="AUDIO_OUT_L" /><circle
       cx="56.925503"
       cy="69.352905"
       r="4.8297496"
       style="clip-rule:evenodd;display:inline;fill:#ff0000;fill-opacity:1;fill-rule:evenodd;stroke-width:0.0825598;stroke-linecap:round;stroke-linejoin:round;stroke-miterlimit:1.5"
       id="circle277"
       inkscape:label="SHAPE_PARAM" /><circle
       cx="56.925503"
       cy="84.386047"
       r="4.8297496"
       style="clip-rule:evenodd;display:inline;fill:#ff0000;fill-opacity:1;fill-rule:evenodd;stroke-width:0.0825598;stroke-linecap:round;stroke-linejoin:round;stroke-miterlimit:1.5"
       id="circle16331"
       inkscape:label="COMPRESS_PARAM" /><circle
       cx="56.925503"
       cy="99.619637"
       r="4.8297496"
       style="clip-rule:evenodd;display:inline;fill:#ff0000;fill-opacity:1;fill-rule:evenodd;stroke-width:0.0825598;stroke-linecap:round;stroke-linejoin:round;stroke-miterlimit:1.5"
       id="circle16333"
       inkscape:label="SYMMETRY_PARAM" /><circle
       cx="56.925503"
       cy="113.85101"
       r="4.8297496"
       style="clip-rule:evenodd;display:inline;fill:#ff0000;fill-opacity:1;fill-rule:evenodd;stroke-width:0.0825598;stroke-linecap:round;stroke-linejoin:round;stroke-miterlimit:1.5"
       id="circle16335"
       inkscape:label="DENSITY_PARAM1" /><circle
       cx="68.751579"
       cy="113.85101"
       r="4.8297496"
       style="clip-rule:evenodd;display:inline;fill:#ff0000;fill-opacity:1;fill-rule:evenodd;stroke-width:0.0825598;stroke-linecap:round;stroke-linejoin:round;stroke-miterlimit:1.5"
       id="circle16337"
       inkscape:label="DENSITY_PARAM2" /><circle
       cx="6.6145821"
       cy="114.25189"
       r="4.0671587"
       style="clip-rule:evenodd;display:inline;fill:#00ff00;fill-opacity:1;fill-rule:evenodd;stroke-width:0.0695241;stroke-linecap:round;stroke-linejoin:round;stroke-miterlimit:1.5"
       id="circle16339"
       inkscape:label="DENSITY_IN1" /><circle
       cx="19.242422"
       cy="114.25189"
       r="4.0671587"
       style="clip-rule:evenodd;display:inline;fill:#00ff00;fill-opacity:1;fill-rule:evenodd;stroke-width:0.0695241;stroke-linecap:round;stroke-linejoin:round;stroke-miterlimit:1.5"
       id="circle16341"
       inkscape:label="DENSITY_IN2" /><circle
       cx="19.242422"
       cy="99.018303"
       r="4.0671587"
       style="clip-rule:evenodd;display:inline;fill:#00ff00;fill-opacity:1;fill-rule:evenodd;stroke-width:0.0695241;stroke-linecap:round;stroke-linejoin:round;stroke-miterlimit:1.5"
       id="circle16343"
       inkscape:label="SYMMETRY_IN" /><circle
       cx="19.242422"
       cy="83.985161"
       r="4.0671587"
       style="clip-rule:evenodd;display:inline;fill:#00ff00;fill-opacity:1;fill-rule:evenodd;stroke-width:0.0695241;stroke-linecap:round;stroke-linejoin:round;stroke-miterlimit:1.5"
       id="circle16345"
       inkscape:label="COMPRESS_IN" /><circle
       cx="19.242422"
       cy="68.751572"
       r="4.0671587"
       style="clip-rule:evenodd;display:inline;fill:#00ff00;fill-opacity:1;fill-rule:evenodd;stroke-width:0.0695241;stroke-linecap:round;stroke-linejoin:round;stroke-miterlimit:1.5"
       id="circle16347"
       inkscape:label="SHAPE_IN" /></g></svg>
