<?xml version="1.0" encoding="UTF-8" standalone="no"?>
<!-- Created with Inkscape (http://www.inkscape.org/) -->

<svg
   width="60.959999mm"
   height="128.5mm"
   viewBox="0 0 60.960004 128.50002"
   version="1.1"
   id="svg8"
   inkscape:version="1.2 (dc2aeda, 2022-05-15)"
   sodipodi:docname="Wonk.svg"
   xml:space="preserve"
   xmlns:inkscape="http://www.inkscape.org/namespaces/inkscape"
   xmlns:sodipodi="http://sodipodi.sourceforge.net/DTD/sodipodi-0.dtd"
   xmlns="http://www.w3.org/2000/svg"
   xmlns:svg="http://www.w3.org/2000/svg"
   xmlns:rdf="http://www.w3.org/1999/02/22-rdf-syntax-ns#"
   xmlns:cc="http://creativecommons.org/ns#"
   xmlns:dc="http://purl.org/dc/elements/1.1/"><defs
     id="defs2"><linearGradient
       id="_Linear1"
       x1="0"
       y1="0"
       x2="1"
       y2="-0.0028738601"
       gradientUnits="userSpaceOnUse"
       gradientTransform="matrix(75.07254,292.27101,-293.02254,74.879903,36.973994,42.144002)"><stop
         offset="0"
         style="stop-color:#e6e6e6;stop-opacity:1"
         id="stop1" /><stop
         offset="1"
         style="stop-color:#e6e6e6;stop-opacity:0"
         id="stop2" /></linearGradient></defs><sodipodi:namedview
     id="base"
     pagecolor="#ffffff"
     bordercolor="#666666"
     borderopacity="1.0"
     inkscape:pageopacity="0.0"
     inkscape:pageshadow="2"
     inkscape:zoom="1.414741"
     inkscape:cx="177.41763"
     inkscape:cy="237.4993"
     inkscape:document-units="mm"
     inkscape:current-layer="svg8"
     showgrid="false"
     units="mm"
     inkscape:snap-bbox="true"
     inkscape:snap-page="true"
     inkscape:bbox-nodes="false"
     inkscape:snap-bbox-edge-midpoints="false"
     inkscape:window-width="1432"
     inkscape:window-height="916"
     inkscape:window-x="40"
     inkscape:window-y="38"
     inkscape:window-maximized="0"
     inkscape:snap-bbox-midpoints="true"
     inkscape:snap-nodes="false"
     inkscape:showpageshadow="2"
     inkscape:pagecheckerboard="0"
     inkscape:deskcolor="#d1d1d1"
     showguides="true" /><metadata
     id="metadata5"><rdf:RDF><cc:Work
         rdf:about=""><dc:format>image/svg+xml</dc:format><dc:type
           rdf:resource="http://purl.org/dc/dcmitype/StillImage" /></cc:Work></rdf:RDF></metadata><rect
     id="rect1"
     x="-0.10805784"
     y="-0.53587371"
     width="61.210564"
     height="129.94316"
     style="clip-rule:evenodd;display:inline;fill:#e5e5e5;fill-rule:evenodd;stroke-width:0.387701;stroke-linejoin:round;stroke-miterlimit:1.5;fill-opacity:1" /><rect
     style="clip-rule:evenodd;fill:#212121;fill-opacity:1;fill-rule:evenodd;stroke:#000000;stroke-width:0.324901;stroke-linejoin:round;stroke-miterlimit:1.5;stroke-dasharray:none;stroke-opacity:1"
     id="rect2"
     width="43.874073"
     height="58.867321"
     x="5.3484941"
     y="24.276199"
     ry="3"
     rx="3" /><path
     id="path128"
     d="m 27.325354,125.27969 c 0.05984,0.1268 0.07943,0.25396 0.05842,0.38219 H 26.96454 c -0.0064,-0.0983 -0.02565,-0.1724 -0.05842,-0.22226 -0.05735,-0.0891 -0.160997,-0.13358 -0.310596,-0.13358 -0.152449,0 -0.28602,0.0627 -0.400001,0.18843 -0.114337,0.12538 -0.195192,0.30276 -0.242921,0.5325 -0.04809,0.22974 -0.03776,0.40143 0.0317,0.51612 0.0691,0.11434 0.175245,0.17133 0.318433,0.17133 0.147106,0 0.269635,-0.0492 0.367587,-0.14747 0.05378,-0.0524 0.105432,-0.13179 0.155299,-0.23722 h 0.415316 c -0.08264,0.22333 -0.213357,0.40463 -0.391452,0.54462 -0.17845,0.13927 -0.384328,0.20944 -0.617632,0.20944 -0.288513,0 -0.495815,-0.0944 -0.621906,-0.28318 -0.125379,-0.18984 -0.153161,-0.44986 -0.08442,-0.78076 0.07409,-0.35726 0.225468,-0.63295 0.453429,-0.82636 0.198754,-0.16848 0.424221,-0.2529 0.676403,-0.2529 0.337668,0 0.560642,0.11327 0.669992,0.3391 z"
     style="clip-rule:evenodd;fill:#000000;fill-rule:nonzero;stroke-width:0.356189;stroke-linejoin:round;stroke-miterlimit:1.5" /><path
     id="path129"
     d="m 28.253583,126.53419 0.764026,-1.55441 h 0.435619 l -1.110954,2.04666 h -0.396082 l -0.252182,-2.04666 h 0.448442 z"
     style="clip-rule:evenodd;fill:#000000;fill-rule:nonzero;stroke-width:0.356189;stroke-linejoin:round;stroke-miterlimit:1.5" /><path
     id="path130"
     d="m 31.036489,125.52688 -0.05877,0.27925 h -0.253963 l -0.253607,1.22031 h -0.386465 l 0.253607,-1.22031 h -0.216919 l 0.05842,-0.27925 h 0.212645 l 0.01995,-0.0972 c 0.03419,-0.16206 0.08406,-0.27355 0.149956,-0.33482 0.07551,-0.0905 0.220481,-0.13606 0.435619,-0.13606 0.02458,0 0.04666,7.1e-4 0.06625,0.002 0.01959,10e-4 0.04666,0.004 0.08121,0.006 l -0.06803,0.32271 c -0.02102,-0.003 -0.05699,-0.005 -0.107569,-0.006 -0.05093,-0.001 -0.08905,0.01 -0.11398,0.0346 -0.02493,0.0246 -0.03989,0.0516 -0.04559,0.0812 -0.0064,0.0299 -0.01532,0.0723 -0.02743,0.12787 z"
     style="clip-rule:evenodd;fill:#000000;fill-rule:nonzero;stroke-width:0.356189;stroke-linejoin:round;stroke-miterlimit:1.5" /><path
     id="path131"
     d="m 31.943347,126.81308 c -0.0043,0.005 -0.01639,0.0185 -0.03562,0.0417 -0.01888,0.0232 -0.04025,0.0431 -0.06376,0.0609 -0.07266,0.0556 -0.139626,0.0933 -0.200891,0.11363 -0.06091,0.0203 -0.129652,0.0306 -0.206233,0.0306 -0.219413,0 -0.350846,-0.0801 -0.393233,-0.2415 -0.02387,-0.0887 -0.01745,-0.21976 0.01888,-0.39287 l 0.189493,-0.91256 h 0.397151 l -0.189137,0.91256 c -0.01816,0.0862 -0.02173,0.15067 -0.01104,0.19448 0.01923,0.0769 0.0805,0.1154 0.183794,0.1154 0.132502,0 0.234729,-0.0548 0.306679,-0.1642 0.03811,-0.0591 0.06732,-0.13749 0.08727,-0.23437 l 0.171327,-0.82387 h 0.393233 l -0.314515,1.51345 h -0.376848 z"
     style="clip-rule:evenodd;fill:#000000;fill-rule:nonzero;stroke-width:0.356189;stroke-linejoin:round;stroke-miterlimit:1.5" /><path
     id="path132"
     d="m 33.789475,126.1064 c 0.0171,-0.0798 0.01959,-0.14105 0.0068,-0.18344 -0.02173,-0.078 -0.08584,-0.11683 -0.193055,-0.11683 -0.13179,0 -0.234016,0.057 -0.306322,0.17062 -0.03847,0.0606 -0.06696,0.13749 -0.08584,0.23081 l -0.170258,0.81888 h -0.386466 l 0.314159,-1.51096 h 0.374711 l -0.0463,0.22084 c 0.06589,-0.0773 0.125022,-0.13357 0.177026,-0.16776 0.09225,-0.0613 0.200178,-0.0915 0.322351,-0.0915 0.153518,0 0.270348,0.0406 0.350846,0.12288 0.08014,0.0819 0.100802,0.21763 0.06162,0.40748 l -0.212289,1.01906 h -0.397507 z"
     style="clip-rule:evenodd;fill:#000000;fill-rule:nonzero;stroke-width:0.356189;stroke-linejoin:round;stroke-miterlimit:1.5" /><path
     id="path133"
     d="m 34.829548,126.55093 -0.0976,0.47551 h -0.381479 l 0.424934,-2.0399 h 0.381122 l -0.230454,1.10312 0.601961,-0.5699 h 0.480853 l -0.64007,0.57952 0.346929,0.92716 h -0.468389 l -0.220126,-0.64684 z"
     style="clip-rule:evenodd;fill:#000000;fill-rule:nonzero;stroke-width:0.356189;stroke-linejoin:round;stroke-miterlimit:1.5" /><path
     id="path134"
     d="m 18.044133,126.01237 h 6.622269"
     style="clip-rule:evenodd;fill:none;fill-rule:evenodd;stroke:#000000;stroke-width:0.227961px;stroke-linecap:round;stroke-linejoin:round;stroke-miterlimit:1.5" /><path
     id="path135"
     d="m 36.354749,126.01237 h 6.622258"
     style="clip-rule:evenodd;fill:none;fill-rule:evenodd;stroke:#000000;stroke-width:0.227961px;stroke-linecap:round;stroke-linejoin:round;stroke-miterlimit:1.5" /><g
     aria-label="WONK"
     id="text15886"
     style="font-style:italic;font-size:5.64444px;font-family:Menlo;-inkscape-font-specification:'Menlo Italic';text-align:center;text-anchor:middle;fill:#000000;stroke:#000000;stroke-width:0.352777;stroke-linecap:square;paint-order:fill markers stroke"><path
       d="m 23.80341,2.670066 h 0.52641 l -0.248047,3.3348499 0.906749,-2.2048594 h 0.581531 l 0.04134,2.2103716 1.03904,-3.3403621 h 0.545702 l -1.405598,4.1148189 h -0.534678 l -0.08544,-2.3977846 -1.022504,2.3977846 h -0.518142 z"
       style="fill:#000000;stroke:none;stroke-width:0.352778"
       id="path17197" /><path
       d="m 28.185568,6.4128149 q 0.234266,0 0.432704,-0.1405598 0.198437,-0.1405598 0.327972,-0.4023868 0.20395,-0.3996308 0.330729,-0.9673821 0.12678,-0.5677513 0.12678,-1.0914054 0,-0.3913626 -0.146072,-0.5760196 -0.143316,-0.187413 -0.446484,-0.187413 -0.234267,0 -0.429948,0.1405598 -0.195681,0.1405598 -0.325217,0.4023868 -0.209461,0.4051429 -0.336241,0.9673821 -0.126779,0.5622392 -0.126779,1.0858933 0,0.3941186 0.143316,0.5815316 0.146072,0.1874131 0.44924,0.1874131 z M 29.97426,3.9736891 q 0,0.3031682 -0.06339,0.6587018 -0.06063,0.3555336 -0.179144,0.7303597 -0.07993,0.2535588 -0.173633,0.4547522 -0.09095,0.2011935 -0.198437,0.3638019 -0.242535,0.3500214 -0.542947,0.5181419 -0.300412,0.1653645 -0.700043,0.1653645 -0.553971,0 -0.82131,-0.3389972 -0.267339,-0.3389971 -0.267339,-1.0445521 0,-0.3059243 0.05788,-0.6559457 0.06063,-0.3527775 0.179145,-0.7276036 0.07993,-0.2535589 0.170877,-0.4547523 0.09371,-0.2011934 0.201193,-0.3638018 0.242535,-0.3500214 0.542947,-0.5153859 0.300412,-0.1681205 0.700043,-0.1681205 0.556727,0 0.824066,0.3389971 0.270095,0.3362411 0.270095,1.03904 z"
       style="fill:#000000;stroke:none;stroke-width:0.352778"
       id="path17199" /><path
       d="m 30.985739,2.670066 h 0.705555 L 32.418898,6.0572813 33.0776,2.670066 h 0.537434 L 32.813017,6.7848849 H 32.107462 L 31.379858,3.3976696 30.7184,6.7848849 h -0.534678 z"
       style="fill:#000000;stroke:none;stroke-width:0.352778"
       id="path17201" /><path
       d="m 34.378467,2.670066 h 0.556727 L 34.585173,4.4532461 36.63018,2.670066 h 0.700043 l -1.93752,1.70601 1.1796,2.4088089 h -0.603581 l -0.992187,-2.042251 -0.531922,0.4630205 -0.30868,1.5792305 H 33.57645 Z"
       style="fill:#000000;stroke:none;stroke-width:0.352778"
       id="path17203" /></g><g
     aria-label="WONK"
     id="text16016"
     style="font-style:italic;font-size:2.82222px;font-family:Menlo;-inkscape-font-specification:'Menlo Italic';text-align:center;text-anchor:middle;fill:#000000;stroke-width:0.352777;stroke-linecap:square;paint-order:fill markers stroke"><path
       d="m 12.542939,100.67077 h 0.263205 l -0.124023,1.66743 0.453374,-1.10243 h 0.290766 l 0.02067,1.10518 0.51952,-1.67018 h 0.272851 l -0.702799,2.05741 h -0.267339 l -0.04272,-1.19889 -0.511252,1.19889 h -0.259071 z"
       style="stroke-width:0.352778;fill:#000000"
       id="path17228" /><path
       d="m 14.734018,102.54214 q 0.117134,0 0.216352,-0.0703 0.09922,-0.0703 0.163987,-0.2012 0.101974,-0.19981 0.165364,-0.48369 0.06339,-0.28388 0.06339,-0.5457 0,-0.19568 -0.07304,-0.28801 -0.07166,-0.0937 -0.223242,-0.0937 -0.117133,0 -0.214974,0.0703 -0.09784,0.0703 -0.162608,0.20119 -0.104731,0.20258 -0.168121,0.4837 -0.06339,0.28112 -0.06339,0.54294 0,0.19706 0.07166,0.29077 0.07304,0.0937 0.22462,0.0937 z m 0.894346,-1.21956 q 0,0.15159 -0.03169,0.32935 -0.03032,0.17777 -0.08957,0.36518 -0.03996,0.12678 -0.08682,0.22738 -0.04547,0.1006 -0.09922,0.1819 -0.121267,0.17501 -0.271473,0.25907 -0.150206,0.0827 -0.350022,0.0827 -0.276985,0 -0.410655,-0.1695 -0.133669,-0.16949 -0.133669,-0.52227 0,-0.15296 0.02894,-0.32797 0.03032,-0.17639 0.08957,-0.36381 0.03996,-0.12678 0.08544,-0.22737 0.04685,-0.1006 0.100597,-0.1819 0.121267,-0.17501 0.271473,-0.2577 0.150206,-0.0841 0.350022,-0.0841 0.278363,0 0.412033,0.1695 0.135047,0.16812 0.135047,0.51952 z"
       style="stroke-width:0.352778;fill:#000000"
       id="path17230" /><path
       d="m 16.134104,100.67077 h 0.352778 l 0.363801,1.69361 0.329351,-1.69361 h 0.268718 l -0.401009,2.05741 h -0.352778 l -0.363802,-1.69361 -0.330728,1.69361 h -0.26734 z"
       style="stroke-width:0.352778;fill:#000000"
       id="path17232" /><path
       d="m 17.830468,100.67077 h 0.278364 l -0.175011,0.89159 1.022503,-0.89159 h 0.350022 l -0.96876,0.85301 0.5898,1.2044 h -0.30179 l -0.496094,-1.02113 -0.265961,0.23151 -0.15434,0.78962 h -0.279742 z"
       style="stroke-width:0.352778;fill:#000000"
       id="path17234" /></g><g
     aria-label="MOD DEPTH"
     id="text16032"
     style="font-style:italic;font-size:2.82222px;font-family:Menlo;-inkscape-font-specification:'Menlo Italic';text-align:center;text-anchor:middle;fill:#000000;stroke-width:0.352777;stroke-linecap:square;paint-order:fill markers stroke"><path
       d="m 39.014731,119.57324 h 0.370692 l 0.151584,1.0418 0.570507,-1.0418 h 0.37207 l -0.401008,2.05741 h -0.256315 l 0.355533,-1.82865 -0.598068,1.09554 h -0.194303 l -0.158474,-1.09554 -0.352778,1.82865 h -0.256315 z"
       style="stroke-width:0.352778;fill:#000000"
       id="path17248" /><path
       d="m 41.090055,121.44462 q 0.117133,0 0.216352,-0.0703 0.09922,-0.0703 0.163986,-0.20119 0.101975,-0.19982 0.165365,-0.4837 0.06339,-0.28387 0.06339,-0.5457 0,-0.19568 -0.07304,-0.28801 -0.07166,-0.0937 -0.223242,-0.0937 -0.117133,0 -0.214973,0.0703 -0.09784,0.0703 -0.162609,0.2012 -0.104731,0.20257 -0.16812,0.48369 -0.06339,0.28112 -0.06339,0.54295 0,0.19706 0.07166,0.29076 0.07304,0.0937 0.22462,0.0937 z m 0.894346,-1.21956 q 0,0.15158 -0.03169,0.32935 -0.03032,0.17776 -0.08957,0.36518 -0.03996,0.12678 -0.08682,0.22737 -0.04547,0.1006 -0.09922,0.1819 -0.121268,0.17501 -0.271474,0.25907 -0.150206,0.0827 -0.350021,0.0827 -0.276985,0 -0.410655,-0.1695 -0.13367,-0.1695 -0.13367,-0.52228 0,-0.15296 0.02894,-0.32797 0.03032,-0.17639 0.08957,-0.3638 0.03996,-0.12678 0.08544,-0.22738 0.04685,-0.1006 0.100597,-0.1819 0.121267,-0.17501 0.271473,-0.25769 0.150206,-0.0841 0.350021,-0.0841 0.278364,0 0.412033,0.1695 0.135048,0.16812 0.135048,0.51952 z"
       style="stroke-width:0.352778;fill:#000000"
       id="path17250" /><path
       d="m 42.543884,121.4019 q 0.254937,0 0.409277,-0.0854 0.15434,-0.0868 0.248047,-0.28112 0.07441,-0.15847 0.121267,-0.37758 0.04823,-0.22049 0.04823,-0.40377 0,-0.24253 -0.112999,-0.34726 -0.112999,-0.10473 -0.37896,-0.10473 h -0.157096 l -0.311437,1.5999 z m 0.361046,-1.82866 q 0.376204,0 0.562239,0.17088 0.187413,0.17088 0.187413,0.51814 0,0.22324 -0.05788,0.46027 -0.05788,0.23702 -0.155718,0.4203 -0.143316,0.2632 -0.358289,0.3762 -0.213596,0.11162 -0.578776,0.11162 h -0.417545 l 0.401009,-2.05741 z"
       style="stroke-width:0.352778;fill:#000000"
       id="path17252" /><path
       d="m 45.942124,121.4019 q 0.254937,0 0.409277,-0.0854 0.15434,-0.0868 0.248046,-0.28112 0.07441,-0.15847 0.121268,-0.37758 0.04823,-0.22049 0.04823,-0.40377 0,-0.24253 -0.112999,-0.34726 -0.112999,-0.10473 -0.37896,-0.10473 h -0.157096 l -0.311437,1.5999 z m 0.361045,-1.82866 q 0.376205,0 0.56224,0.17088 0.187413,0.17088 0.187413,0.51814 0,0.22324 -0.05788,0.46027 -0.05788,0.23702 -0.155718,0.4203 -0.143316,0.2632 -0.35829,0.3762 -0.213596,0.11162 -0.578775,0.11162 h -0.417546 l 0.401009,-2.05741 z"
       style="stroke-width:0.352778;fill:#000000"
       id="path17254" /><path
       d="m 47.668804,119.57324 h 1.219563 l -0.04548,0.23427 h -0.942578 l -0.118511,0.60909 h 0.899858 l -0.0441,0.23427 h -0.901236 l -0.143316,0.74552 h 0.967382 l -0.04548,0.23426 h -1.247124 z"
       style="stroke-width:0.352778;fill:#000000"
       id="path17256" /><path
       d="m 49.599435,119.802 -0.150206,0.77308 h 0.32246 q 0.227377,0 0.362424,-0.13092 0.136426,-0.13229 0.136426,-0.3514 0,-0.14882 -0.08544,-0.2191 -0.08544,-0.0717 -0.264584,-0.0717 z m -0.234267,-0.22876 h 0.606337 q 0.283875,0 0.432703,0.12678 0.148828,0.12678 0.148828,0.36656 0,0.34313 -0.220485,0.54019 -0.220486,0.19706 -0.606337,0.19706 h -0.321082 l -0.161231,0.82682 H 48.96416 Z"
       style="stroke-width:0.352778;fill:#000000"
       id="path17258" /><path
       d="m 50.858961,119.57324 h 1.570962 l -0.04548,0.23427 h -0.6463 l -0.352777,1.82314 h -0.28112 l 0.355534,-1.82314 h -0.6463 z"
       style="stroke-width:0.352778;fill:#000000"
       id="path17260" /><path
       d="m 52.682103,119.57324 h 0.278364 l -0.162608,0.84336 h 0.762054 l 0.162608,-0.84336 h 0.279742 l -0.401009,2.05741 h -0.278363 l 0.191547,-0.97978 h -0.764811 l -0.188791,0.97978 h -0.279741 z"
       style="stroke-width:0.352778;fill:#000000"
       id="path17262" /></g><rect
     style="clip-rule:evenodd;fill:#666666;fill-opacity:1;fill-rule:evenodd;stroke:#000000;stroke-width:0.276944;stroke-linejoin:round;stroke-miterlimit:1.5;stroke-dasharray:none;stroke-opacity:1"
     id="rect2-9"
     width="13.195013"
     height="67.316193"
     x="43.295902"
     y="24.199762"
     rx="3"
     ry="3" /><g
     aria-label="NODES"
     id="text16285"
     style="font-style:italic;font-size:2.82222px;font-family:Menlo;-inkscape-font-specification:'Menlo Italic';text-align:center;text-anchor:middle;fill:#000000;stroke-width:0.352777;stroke-linecap:square;paint-order:fill markers stroke"><path
       d="m 11.886305,119.57324 h 0.352777 l 0.363802,1.69361 0.329351,-1.69361 h 0.268717 l -0.401009,2.05741 h -0.352777 l -0.363802,-1.6936 -0.330729,1.6936 h -0.267339 z"
       style="stroke-width:0.352778;fill:#000000"
       id="path17237" /><path
       d="m 13.884458,121.44462 q 0.117134,0 0.216352,-0.0703 0.09922,-0.0703 0.163987,-0.20119 0.101974,-0.19982 0.165364,-0.4837 0.06339,-0.28387 0.06339,-0.5457 0,-0.19568 -0.07304,-0.28801 -0.07166,-0.0937 -0.223242,-0.0937 -0.117133,0 -0.214974,0.0703 -0.09784,0.0703 -0.162608,0.2012 -0.104731,0.20257 -0.168121,0.48369 -0.06339,0.28112 -0.06339,0.54295 0,0.19706 0.07166,0.29076 0.07304,0.0937 0.22462,0.0937 z m 0.894347,-1.21956 q 0,0.15158 -0.0317,0.32935 -0.03032,0.17776 -0.08957,0.36518 -0.03996,0.12678 -0.08682,0.22737 -0.04548,0.1006 -0.09922,0.1819 -0.121267,0.17501 -0.271473,0.25907 -0.150206,0.0827 -0.350021,0.0827 -0.276986,0 -0.410656,-0.1695 -0.133669,-0.1695 -0.133669,-0.52228 0,-0.15296 0.02894,-0.32797 0.03032,-0.17639 0.08957,-0.3638 0.03996,-0.12678 0.08544,-0.22738 0.04685,-0.1006 0.100597,-0.1819 0.121267,-0.17501 0.271473,-0.25769 0.150206,-0.0841 0.350022,-0.0841 0.278363,0 0.412033,0.1695 0.135048,0.16812 0.135048,0.51952 z"
       style="stroke-width:0.352778;fill:#000000"
       id="path17239" /><path
       d="m 15.338288,121.4019 q 0.254937,0 0.409277,-0.0854 0.15434,-0.0868 0.248046,-0.28112 0.07441,-0.15847 0.121268,-0.37758 0.04823,-0.22049 0.04823,-0.40377 0,-0.24253 -0.112999,-0.34726 -0.112999,-0.10473 -0.37896,-0.10473 h -0.157097 l -0.311436,1.5999 z m 0.361045,-1.82866 q 0.376205,0 0.56224,0.17088 0.187413,0.17088 0.187413,0.51814 0,0.22324 -0.05788,0.46027 -0.05788,0.23702 -0.155718,0.4203 -0.143316,0.2632 -0.35829,0.3762 -0.213596,0.11162 -0.578775,0.11162 h -0.417546 l 0.401009,-2.05741 z"
       style="stroke-width:0.352778;fill:#000000"
       id="path17241" /><path
       d="m 17.064968,119.57324 h 1.219563 l -0.04547,0.23427 h -0.942577 l -0.118512,0.60909 h 0.899859 l -0.0441,0.23427 h -0.901237 l -0.143316,0.74552 h 0.967382 l -0.04547,0.23426 H 16.66396 Z"
       style="stroke-width:0.352778;fill:#000000"
       id="path17243" /><path
       d="m 19.870652,119.64352 -0.05374,0.2825 q -0.111621,-0.0813 -0.23151,-0.12264 -0.119889,-0.0413 -0.248047,-0.0413 -0.227376,0 -0.370692,0.11299 -0.143315,0.113 -0.143315,0.28801 0,0.0978 0.06752,0.15848 0.06752,0.0606 0.245291,0.11575 l 0.166743,0.0538 q 0.22462,0.0689 0.327972,0.18465 0.104731,0.11438 0.104731,0.29215 0,0.32384 -0.228754,0.51401 -0.228754,0.18879 -0.624251,0.18879 -0.143316,0 -0.282497,-0.0317 -0.137804,-0.0303 -0.275608,-0.0923 l 0.0565,-0.28801 q 0.135047,0.0951 0.272851,0.14056 0.139182,0.0455 0.293522,0.0455 0.227376,0 0.369314,-0.12127 0.141938,-0.12127 0.141938,-0.3073 0,-0.113 -0.06063,-0.17501 -0.06063,-0.062 -0.243912,-0.11851 l -0.139182,-0.0455 q -0.253559,-0.0799 -0.355534,-0.18052 -0.100597,-0.10198 -0.100597,-0.26872 0,-0.30454 0.227377,-0.49747 0.227376,-0.1943 0.593934,-0.1943 0.110243,0 0.234266,0.0276 0.125401,0.0276 0.256315,0.0799 z"
       style="stroke-width:0.352778;fill:#000000"
       id="path17245" /></g><text
     xml:space="preserve"
     style="font-style:italic;font-size:2.82222px;font-family:Menlo;-inkscape-font-specification:'Menlo Italic';text-align:center;text-anchor:middle;fill:#ffffff;stroke:none;stroke-width:0.352777;stroke-linecap:square;stroke-dasharray:none;paint-order:fill markers stroke"
     x="54.263691"
     y="31.555485"
     id="text16295"><tspan
       sodipodi:role="line"
       id="tspan16293"
       style="font-size:2.82222px;stroke-width:0.352778"
       x="54.263691"
       y="31.555485">1</tspan></text><g
     aria-label="1"
     id="text16299"
     style="font-style:italic;font-size:2.82222px;font-family:Menlo;-inkscape-font-specification:'Menlo Italic';text-align:center;text-anchor:middle;fill:#ffffff;stroke-width:0.352777;stroke-linecap:square;paint-order:fill markers stroke"><path
       d="m 53.629105,31.321218 h 0.431325 l 0.304547,-1.57234 -0.485069,0.104731 0.04823,-0.253559 0.485069,-0.101975 h 0.279742 l -0.355534,1.823143 h 0.425813 l -0.04548,0.234267 H 53.58363 Z"
       style="stroke-width:0.352778"
       id="path17300" /></g><g
     aria-label="2"
     id="text16303"
     style="font-style:italic;font-size:2.82222px;font-family:Menlo;-inkscape-font-specification:'Menlo Italic';text-align:center;text-anchor:middle;fill:#ffffff;stroke-width:0.352777;stroke-linecap:square;paint-order:fill markers stroke"><path
       d="m 53.783445,40.474642 h 0.942577 l -0.0441,0.234266 h -1.259526 l 0.04548,-0.234266 0.42857,-0.377582 0.05374,-0.04823 q 0.740006,-0.649055 0.740006,-0.928797 0,-0.128157 -0.08819,-0.201193 -0.08819,-0.07304 -0.245291,-0.07304 -0.126779,0 -0.272851,0.04685 -0.146072,0.04548 -0.319705,0.139182 l 0.0565,-0.28112 q 0.15434,-0.06752 0.297656,-0.101974 0.144694,-0.03445 0.278364,-0.03445 0.254936,0 0.412033,0.133669 0.157096,0.13367 0.157096,0.347266 0,0.132291 -0.04961,0.25218 -0.04823,0.118512 -0.161231,0.260449 -0.04548,0.05788 -0.163986,0.166743 -0.118511,0.108865 -0.366558,0.322461 z"
       style="stroke-width:0.352778"
       id="path17297" /></g><g
     aria-label="3"
     id="text16307"
     style="font-style:italic;font-size:2.82222px;font-family:Menlo;-inkscape-font-specification:'Menlo Italic';text-align:center;text-anchor:middle;fill:#ffffff;stroke-width:0.352777;stroke-linecap:square;paint-order:fill markers stroke"><path
       d="m 54.464195,49.131111 q 0.157097,0.02756 0.245291,0.14056 0.08819,0.112999 0.08819,0.286631 0,0.322461 -0.23151,0.518142 -0.230132,0.195682 -0.615983,0.195682 -0.148828,0 -0.290765,-0.02618 -0.14056,-0.0248 -0.270096,-0.07579 l 0.05237,-0.276986 q 0.125401,0.07166 0.256315,0.108865 0.130913,0.03583 0.265961,0.03583 0.250803,0 0.405143,-0.128157 0.15434,-0.129536 0.15434,-0.334863 0,-0.161231 -0.09922,-0.243913 -0.09784,-0.08406 -0.288009,-0.08406 h -0.21084 l 0.0441,-0.228754 h 0.212218 q 0.21773,0 0.345887,-0.103353 0.128158,-0.103353 0.128158,-0.274229 0,-0.137804 -0.08544,-0.202572 -0.08406,-0.06615 -0.261827,-0.06615 -0.112999,0 -0.246668,0.02756 -0.13367,0.02756 -0.289388,0.08268 l 0.05099,-0.256315 q 0.169499,-0.04548 0.303168,-0.06614 0.13367,-0.02205 0.249425,-0.02205 0.259071,0 0.407899,0.121267 0.148828,0.121268 0.148828,0.330729 0,0.21084 -0.124023,0.354156 -0.122646,0.141938 -0.34451,0.187413 z"
       style="stroke-width:0.352778"
       id="path17294" /></g><g
     aria-label="4"
     id="text16311"
     style="font-style:italic;font-size:2.82222px;font-family:Menlo;-inkscape-font-specification:'Menlo Italic';text-align:center;text-anchor:middle;fill:#ffffff;stroke-width:0.352777;stroke-linecap:square;paint-order:fill markers stroke"><path
       d="m 54.574438,57.618938 -0.861273,1.050065 h 0.651812 z m 0.0055,-0.290765 h 0.321083 l -0.261827,1.34083 h 0.272851 l -0.04134,0.225998 h -0.274229 l -0.09646,0.490581 h -0.272851 l 0.09508,-0.490581 h -0.873676 l 0.04961,-0.263205 z"
       style="stroke-width:0.352778"
       id="path17291" /></g><g
     aria-label="5"
     id="text16315"
     style="font-style:italic;font-size:2.82222px;font-family:Menlo;-inkscape-font-specification:'Menlo Italic';text-align:center;text-anchor:middle;fill:#ffffff;stroke-width:0.352777;stroke-linecap:square;paint-order:fill markers stroke"><path
       d="m 53.8992,66.481592 h 1.041796 l -0.04547,0.234266 h -0.786859 l -0.09922,0.50574 q 0.06477,-0.02205 0.125401,-0.03169 0.06201,-0.01102 0.122646,-0.01102 0.259071,0 0.417545,0.157096 0.158474,0.155718 0.158474,0.410655 0,0.170877 -0.07304,0.332107 -0.07166,0.16123 -0.203949,0.279742 -0.121267,0.110243 -0.278364,0.165364 -0.155718,0.05512 -0.352777,0.05512 -0.148828,0 -0.278364,-0.02343 -0.128157,-0.02205 -0.227376,-0.06477 l 0.0565,-0.282497 q 0.115755,0.07028 0.237022,0.10473 0.121267,0.03445 0.250803,0.03445 0.256315,0 0.424435,-0.16123 0.168121,-0.16123 0.168121,-0.401009 0,-0.176389 -0.111621,-0.276985 -0.110243,-0.100597 -0.305924,-0.100597 -0.108865,0 -0.223242,0.02756 -0.112999,0.02756 -0.216352,0.07993 z"
       style="stroke-width:0.352778"
       id="path17288" /></g><g
     aria-label="6"
     id="text16319"
     style="font-style:italic;font-size:2.82222px;font-family:Menlo;-inkscape-font-specification:'Menlo Italic';text-align:center;text-anchor:middle;fill:#ffffff;stroke-width:0.352777;stroke-linecap:square;paint-order:fill markers stroke"><path
       d="m 54.599243,76.873867 q 0,-0.155718 -0.07993,-0.239779 -0.07993,-0.08406 -0.227376,-0.08406 -0.201194,0 -0.337619,0.173633 -0.136426,0.173633 -0.136426,0.43546 0,0.166742 0.08406,0.261827 0.08406,0.09371 0.23151,0.09371 0.198438,0 0.332107,-0.184657 0.13367,-0.184657 0.13367,-0.45613 z m 0.369314,-1.19338 -0.04961,0.256315 q -0.07993,-0.05099 -0.173633,-0.07717 -0.09371,-0.02756 -0.197059,-0.02756 -0.265962,0 -0.439594,0.198437 -0.172255,0.197059 -0.248047,0.587044 0.09371,-0.14056 0.221864,-0.212218 0.129536,-0.07304 0.285254,-0.07304 0.24529,0 0.377582,0.137804 0.13367,0.136426 0.13367,0.389985 0,0.163986 -0.05512,0.327972 -0.05512,0.163987 -0.148828,0.278364 -0.107487,0.133669 -0.245291,0.199815 -0.136425,0.06615 -0.304546,0.06615 -0.279741,0 -0.432703,-0.16123 -0.151585,-0.161231 -0.151585,-0.457509 0,-0.228754 0.05374,-0.475422 0.05374,-0.246669 0.14745,-0.447863 0.135048,-0.296278 0.344509,-0.443727 0.21084,-0.148829 0.496094,-0.148829 0.103352,0 0.201193,0.02205 0.09784,0.02067 0.184657,0.06063 z"
       style="stroke-width:0.352778"
       id="path17285" /></g><g
     aria-label="P"
     id="text16323"
     style="font-style:italic;font-size:2.82222px;font-family:Menlo;-inkscape-font-specification:'Menlo Italic';text-align:center;text-anchor:middle;fill:#ffffff;stroke-width:0.352777;stroke-linecap:square;paint-order:fill markers stroke"><path
       d="m 54.119686,86.286022 -0.150206,0.773079 h 0.322461 q 0.227376,0 0.362423,-0.130914 0.136426,-0.132291 0.136426,-0.351399 0,-0.148828 -0.08544,-0.219108 -0.08544,-0.07166 -0.264583,-0.07166 z M 53.88542,86.057268 h 0.606336 q 0.283876,0 0.432704,0.126779 0.148828,0.12678 0.148828,0.366558 0,0.343132 -0.220486,0.540191 -0.220486,0.197059 -0.606337,0.197059 h -0.321082 l -0.161231,0.826822 h -0.279741 z"
       style="stroke-width:0.352778"
       id="path17282" /></g><path
     id="path18029"
     d="m 21.019197,120.58882 h 6.622258"
     style="clip-rule:evenodd;fill:none;fill-rule:evenodd;stroke:#000000;stroke-width:0.227961;stroke-linecap:round;stroke-linejoin:round;stroke-miterlimit:1.5;stroke-dasharray:none" /><path
     id="path18031"
     d="M 3.6264371,120.58882 H 10.248695"
     style="clip-rule:evenodd;fill:none;fill-rule:evenodd;stroke:#000000;stroke-width:0.227961px;stroke-linecap:round;stroke-linejoin:round;stroke-miterlimit:1.5" /><path
     id="path18033"
     d="m 33.873714,120.58882 h 3.729533"
     style="clip-rule:evenodd;fill:none;fill-rule:evenodd;stroke:#000000;stroke-width:0.21166667;stroke-linecap:round;stroke-linejoin:round;stroke-miterlimit:1.5;stroke-dasharray:none" /><path
     id="path18035"
     d="m 54.819833,120.58882 h 3.729533"
     style="clip-rule:evenodd;fill:none;fill-rule:evenodd;stroke:#000000;stroke-width:0.21166667;stroke-linecap:round;stroke-linejoin:round;stroke-miterlimit:1.5;stroke-dasharray:none" /><path
     id="path18037"
     d="M 3.6264371,101.70085 H 10.248695"
     style="clip-rule:evenodd;fill:none;fill-rule:evenodd;stroke:#000000;stroke-width:0.227961px;stroke-linecap:round;stroke-linejoin:round;stroke-miterlimit:1.5" /><path
     id="path18039"
     d="m 20.376461,101.70085 h 3.729533"
     style="clip-rule:evenodd;fill:none;fill-rule:evenodd;stroke:#000000;stroke-width:0.211667;stroke-linecap:round;stroke-linejoin:round;stroke-miterlimit:1.5;stroke-dasharray:none" /><g
     id="g16457"
     inkscape:label="components"
     style="display:none"><rect
       style="fill:#ffff00;fill-opacity:1;stroke:none;stroke-width:0.279509;stroke-linecap:square;stroke-dasharray:none;paint-order:fill markers stroke"
       id="rect15766"
       width="33.641941"
       height="8.8288956"
       x="7.3977547"
       y="26.018177"
       inkscape:label="SCREEN_1" /><rect
       style="fill:#ffff00;fill-opacity:1;stroke:none;stroke-width:0.279509;stroke-linecap:square;stroke-dasharray:none;paint-order:fill markers stroke"
       id="rect15768"
       width="33.641941"
       height="8.8288956"
       x="7.3977547"
       y="35.293114"
       inkscape:label="SCREEN_2" /><rect
       style="fill:#ffff00;fill-opacity:1;stroke:none;stroke-width:0.279509;stroke-linecap:square;stroke-dasharray:none;paint-order:fill markers stroke"
       id="rect15770"
       width="33.641941"
       height="8.8288956"
       x="7.3977547"
       y="44.568047"
       inkscape:label="SCREEN_3" /><rect
       style="fill:#ffff00;fill-opacity:1;stroke:none;stroke-width:0.279509;stroke-linecap:square;stroke-dasharray:none;paint-order:fill markers stroke"
       id="rect15772"
       width="33.641941"
       height="8.8288956"
       x="7.3977547"
       y="53.842979"
       inkscape:label="SCREEN_4" /><rect
       style="fill:#ffff00;fill-opacity:1;stroke:none;stroke-width:0.279509;stroke-linecap:square;stroke-dasharray:none;paint-order:fill markers stroke"
       id="rect15774"
       width="33.641941"
       height="8.8288956"
       x="7.3977547"
       y="63.117912"
       inkscape:label="SCREEN_5" /><rect
       style="fill:#ffff00;fill-opacity:1;stroke:none;stroke-width:0.279509;stroke-linecap:square;stroke-dasharray:none;paint-order:fill markers stroke"
       id="rect15776"
       width="33.641941"
       height="8.8288956"
       x="7.3977547"
       y="72.392845"
       inkscape:label="SCREEN_6" /><circle
       style="fill:#00ff00;fill-opacity:1;stroke:none;stroke-width:0.148776;stroke-linecap:square;stroke-dasharray:none;paint-order:fill markers stroke"
       id="circle16026"
       cx="15.821291"
       cy="14.561893"
       r="4.3654451"
       inkscape:label="CLOCK_IN" /><circle
       style="fill:#0000ff;fill-opacity:1;stroke:none;stroke-width:0.120644;stroke-linecap:square;stroke-dasharray:none;paint-order:fill markers stroke"
       id="circle16034"
       cx="48.511574"
       cy="30.136637"
       r="3.5399847"
       inkscape:label="_1_OUT" /><circle
       style="fill:#0000ff;fill-opacity:1;stroke:none;stroke-width:0.120644;stroke-linecap:square;stroke-dasharray:none;paint-order:fill markers stroke"
       id="circle16036"
       cx="48.511574"
       cy="39.464714"
       r="3.5399847"
       inkscape:label="_2_OUT" /><circle
       style="fill:#0000ff;fill-opacity:1;stroke:none;stroke-width:0.120644;stroke-linecap:square;stroke-dasharray:none;paint-order:fill markers stroke"
       id="circle16038"
       cx="48.511574"
       cy="48.792786"
       r="3.5399847"
       inkscape:label="_3_OUT" /><circle
       style="fill:#0000ff;fill-opacity:1;stroke:none;stroke-width:0.120644;stroke-linecap:square;stroke-dasharray:none;paint-order:fill markers stroke"
       id="circle16040"
       cx="48.511574"
       cy="58.120857"
       r="3.5399847"
       inkscape:label="_4_OUT" /><circle
       style="fill:#0000ff;fill-opacity:1;stroke:none;stroke-width:0.120644;stroke-linecap:square;stroke-dasharray:none;paint-order:fill markers stroke"
       id="circle16042"
       cx="48.511574"
       cy="67.448929"
       r="3.5399847"
       inkscape:label="_5_OUT" /><circle
       style="fill:#0000ff;fill-opacity:1;stroke:none;stroke-width:0.120644;stroke-linecap:square;stroke-dasharray:none;paint-order:fill markers stroke"
       id="circle16044"
       cx="48.511574"
       cy="76.777"
       r="3.5399847"
       inkscape:label="_6_OUT" /><circle
       style="fill:#0000ff;fill-opacity:1;stroke:none;stroke-width:0.120644;stroke-linecap:square;stroke-dasharray:none;paint-order:fill markers stroke"
       id="circle16098"
       cx="48.511574"
       cy="86.87458"
       r="3.5399847"
       inkscape:label="POLY_OUT" /><circle
       style="fill:#00ff00;fill-opacity:1;stroke:none;stroke-width:0.148776;stroke-linecap:square;stroke-dasharray:none;paint-order:fill markers stroke"
       id="circle16106"
       cx="37.44265"
       cy="113.95811"
       r="4.3654451"
       inkscape:label="DEPTH_IN" /><circle
       style="fill:#ff0000;fill-opacity:1;stroke:none;stroke-width:0.100468;stroke-linecap:square;stroke-dasharray:none;paint-order:fill markers stroke"
       id="circle16120"
       cx="46.310059"
       cy="113.95811"
       r="2.9479632"
       inkscape:label="DEPTH_ATT" /><circle
       style="fill:#ff0000;fill-opacity:1;stroke:none;stroke-width:0.148776;stroke-linecap:square;stroke-dasharray:none;paint-order:fill markers stroke"
       id="circle16154"
       cx="55.177475"
       cy="113.95811"
       r="4.3654451"
       inkscape:label="DEPTH_KNOB" /><circle
       style="fill:#00ff00;fill-opacity:1;stroke:none;stroke-width:0.148776;stroke-linecap:square;stroke-dasharray:none;paint-order:fill markers stroke"
       id="circle16156"
       cx="30.833834"
       cy="14.561893"
       r="4.3654451"
       inkscape:label="RATE_IN" /><circle
       style="fill:#ff0000;fill-opacity:1;stroke:none;stroke-width:0.100468;stroke-linecap:square;stroke-dasharray:none;paint-order:fill markers stroke"
       id="circle16158"
       cx="39.701233"
       cy="14.561893"
       r="2.9479632"
       inkscape:label="RATE_ATT" /><circle
       style="fill:#ff0000;fill-opacity:1;stroke:none;stroke-width:0.148776;stroke-linecap:square;stroke-dasharray:none;paint-order:fill markers stroke"
       id="circle16160"
       cx="48.511574"
       cy="14.561893"
       r="4.3654451"
       inkscape:label="RATE_KNOB" /><circle
       style="fill:#ff0000;fill-opacity:1;stroke:none;stroke-width:0.148776;stroke-linecap:square;stroke-dasharray:none;paint-order:fill markers stroke"
       id="circle16166"
       cx="48.511574"
       cy="100.01852"
       r="4.3654451"
       inkscape:label="POS_KNOB" /><circle
       style="fill:#00ff00;fill-opacity:1;stroke:none;stroke-width:0.148776;stroke-linecap:square;stroke-dasharray:none;paint-order:fill markers stroke"
       id="circle16170"
       cx="6.9538822"
       cy="95.717079"
       r="4.3654451"
       inkscape:label="WONK_IN" /><circle
       style="fill:#ff0000;fill-opacity:1;stroke:none;stroke-width:0.100468;stroke-linecap:square;stroke-dasharray:none;paint-order:fill markers stroke"
       id="circle16172"
       cx="15.821291"
       cy="95.717079"
       r="2.9479632"
       inkscape:label="WONK_ATT" /><circle
       style="fill:#ff0000;fill-opacity:1;stroke:none;stroke-width:0.319417;stroke-linecap:square;stroke-dasharray:none;paint-order:fill markers stroke"
       id="circle16174"
       cx="30.48"
       cy="94.926178"
       r="9.3724642"
       inkscape:label="WONK_KNOB" /><circle
       style="fill:#00ff00;fill-opacity:1;stroke:none;stroke-width:0.148776;stroke-linecap:square;stroke-dasharray:none;paint-order:fill markers stroke"
       id="circle16287"
       cx="6.9538822"
       cy="113.95811"
       r="4.3654451"
       inkscape:label="NODES_IN" /><circle
       style="fill:#ff0000;fill-opacity:1;stroke:none;stroke-width:0.100468;stroke-linecap:square;stroke-dasharray:none;paint-order:fill markers stroke"
       id="circle16289"
       cx="15.821291"
       cy="113.95811"
       r="2.9479632"
       inkscape:label="NODES_ATT" /><circle
       style="fill:#ff0000;fill-opacity:1;stroke:none;stroke-width:0.148776;stroke-linecap:square;stroke-dasharray:none;paint-order:fill markers stroke"
       id="circle16291"
       cx="24.688707"
       cy="113.95811"
       r="4.3654451"
       inkscape:label="NODES_KNOB" /></g><g
     aria-label="RATE X"
     id="text16020"
     style="font-style:italic;font-size:2.82222px;font-family:Menlo;-inkscape-font-specification:'Menlo Italic';text-align:center;text-anchor:middle;fill:#000000;stroke-width:0.352777;stroke-linecap:square;paint-order:fill markers stroke"
     transform="translate(6.8791668)"><path
       d="m 35.452495,20.777414 q 0.09922,0.01929 0.158474,0.09233 0.06063,0.07304 0.135048,0.316949 l 0.166742,0.562239 h -0.276985 l -0.146072,-0.51952 q -0.06063,-0.214974 -0.136426,-0.282498 -0.07441,-0.06752 -0.225998,-0.06752 h -0.264583 l -0.169498,0.869541 h -0.279742 l 0.398253,-2.057409 h 0.573263 q 0.285254,0 0.440972,0.124023 0.157096,0.122645 0.157096,0.347265 0,0.252181 -0.143316,0.417545 -0.141937,0.165365 -0.387228,0.19706 z m -0.403765,-0.857139 -0.14056,0.730359 h 0.30179 q 0.224621,0 0.35829,-0.117133 0.135048,-0.118511 0.135048,-0.314192 0,-0.15434 -0.08682,-0.225998 -0.08682,-0.07304 -0.274229,-0.07304 z"
       style="stroke-width:0.352778;fill:#000000"
       id="path17217" /><path
       d="m 37.108896,19.923031 -0.501606,1.066601 h 0.592556 z m -0.132292,-0.23151 h 0.338997 l 0.228754,2.057409 H 37.26737 L 37.21914,21.212874 H 36.50256 L 36.249,21.74893 h -0.299034 z"
       style="stroke-width:0.352778;fill:#000000"
       id="path17219" /><path
       d="m 38.061119,19.691521 h 1.570963 l -0.04548,0.234266 H 38.940307 L 38.58753,21.74893 h -0.28112 l 0.355534,-1.823143 h -0.6463 z"
       style="stroke-width:0.352778;fill:#000000"
       id="path17221" /><path
       d="m 39.968323,19.691521 h 1.219563 l -0.04547,0.234266 h -0.942578 l -0.118511,0.609092 h 0.899858 l -0.0441,0.234267 h -0.901236 l -0.143316,0.745518 h 0.967382 l -0.04547,0.234266 h -1.247124 z"
       style="stroke-width:0.352778;fill:#000000"
       id="path17223" /><path
       d="m 43.226002,19.691521 h 0.275608 l 0.30868,0.733115 0.606336,-0.733115 h 0.318327 l -0.82131,0.990808 0.446484,1.066601 H 44.083141 L 43.73312,20.905571 43.035833,21.74893 h -0.318326 l 0.90537,-1.098296 z"
       style="stroke-width:0.352778;fill:#000000"
       id="path17225" /></g><g
     aria-label="CLOCK"
     id="text16024"
     style="font-style:italic;font-size:2.82222px;font-family:Menlo;-inkscape-font-specification:'Menlo Italic';text-align:center;text-anchor:middle;fill:#000000;stroke-width:0.352777;stroke-linecap:square;paint-order:fill markers stroke"
     transform="translate(-8.9958336)"><path
       d="m 12.71175,21.674517 q -0.115755,0.0565 -0.234266,0.08406 -0.117133,0.02894 -0.242534,0.02894 -0.316949,0 -0.49196,-0.183279 -0.173632,-0.183279 -0.173632,-0.514008 0,-0.303168 0.09646,-0.600824 0.09646,-0.297656 0.253559,-0.486447 0.14745,-0.179145 0.325217,-0.264583 0.177767,-0.08544 0.405143,-0.08544 0.110243,0 0.219108,0.02894 0.108865,0.02894 0.212217,0.08406 l -0.0565,0.285254 q -0.0882,-0.08682 -0.186035,-0.129535 -0.09784,-0.04272 -0.208084,-0.04272 -0.130913,0 -0.242534,0.0565 -0.111621,0.05512 -0.209462,0.169499 -0.143316,0.169498 -0.23151,0.434081 -0.08682,0.264583 -0.08682,0.530545 0,0.2384 0.107487,0.365179 0.107487,0.12678 0.310059,0.12678 0.117133,0 0.241156,-0.0441 0.125402,-0.0441 0.246669,-0.128158 z"
       style="stroke-width:0.352778;fill:#000000"
       id="path17206" /><path
       d="m 13.618499,19.690143 h 0.278363 l -0.355533,1.823144 h 0.993565 l -0.04548,0.234266 H 13.21749 Z"
       style="stroke-width:0.352778;fill:#000000"
       id="path17208" /><path
       d="m 15.500898,21.561518 q 0.117133,0 0.216351,-0.07028 0.09922,-0.07028 0.163987,-0.201193 0.101975,-0.199816 0.165364,-0.483692 0.06339,-0.283875 0.06339,-0.545702 0,-0.195681 -0.07304,-0.28801 -0.07166,-0.09371 -0.223242,-0.09371 -0.117133,0 -0.214974,0.07028 -0.09784,0.07028 -0.162608,0.201194 -0.104731,0.202571 -0.168121,0.483691 -0.06339,0.281119 -0.06339,0.542946 0,0.19706 0.07166,0.290766 0.07304,0.09371 0.22462,0.09371 z m 0.894346,-1.219563 q 0,0.151584 -0.0317,0.329351 -0.03032,0.177767 -0.08957,0.36518 -0.03996,0.126779 -0.08682,0.227376 -0.04547,0.100597 -0.09922,0.181901 -0.121267,0.17501 -0.271473,0.259071 -0.150206,0.08268 -0.350021,0.08268 -0.276986,0 -0.410655,-0.169499 -0.13367,-0.169498 -0.13367,-0.522276 0,-0.152962 0.02894,-0.327973 0.03032,-0.176388 0.08957,-0.363801 0.03996,-0.12678 0.08544,-0.227376 0.04685,-0.100597 0.100597,-0.181901 0.121267,-0.175011 0.271473,-0.257693 0.150207,-0.08406 0.350022,-0.08406 0.278363,0 0.412033,0.169499 0.135048,0.168121 0.135048,0.51952 z"
       style="stroke-width:0.352778;fill:#000000"
       id="path17210" /><path
       d="m 17.80911,21.674517 q -0.115755,0.0565 -0.234266,0.08406 -0.117133,0.02894 -0.242535,0.02894 -0.316948,0 -0.491959,-0.183279 -0.173633,-0.183279 -0.173633,-0.514008 0,-0.303168 0.09646,-0.600824 0.09646,-0.297656 0.253559,-0.486447 0.14745,-0.179145 0.325216,-0.264583 0.177767,-0.08544 0.405143,-0.08544 0.110243,0 0.219108,0.02894 0.108865,0.02894 0.212218,0.08406 l -0.0565,0.285254 q -0.08819,-0.08682 -0.186035,-0.129535 -0.09784,-0.04272 -0.208083,-0.04272 -0.130914,0 -0.242535,0.0565 -0.111621,0.05512 -0.209461,0.169499 -0.143316,0.169498 -0.231511,0.434081 -0.08682,0.264583 -0.08682,0.530545 0,0.2384 0.107487,0.365179 0.107487,0.12678 0.310058,0.12678 0.117133,0 0.241157,-0.0441 0.125401,-0.0441 0.246668,-0.128158 z"
       style="stroke-width:0.352778;fill:#000000"
       id="path17212" /><path
       d="m 18.597347,19.690143 h 0.278364 l -0.175011,0.89159 1.022503,-0.89159 h 0.350022 l -0.96876,0.853005 0.5898,1.204405 h -0.301791 l -0.496093,-1.021126 -0.265961,0.231511 -0.15434,0.789615 h -0.279742 z"
       style="stroke-width:0.352778;fill:#000000"
       id="path17214" /></g><path
     id="path18041"
     d="m 52.365954,20.720715 h 6.622258"
     style="clip-rule:evenodd;fill:none;fill-rule:evenodd;stroke:#000000;stroke-width:0.227961;stroke-linecap:round;stroke-linejoin:round;stroke-miterlimit:1.5;stroke-dasharray:none" /><path
     id="path18043"
     d="m 33.91486,20.720715 h 6.622258"
     style="clip-rule:evenodd;fill:none;fill-rule:evenodd;stroke:#000000;stroke-width:0.227961px;stroke-linecap:round;stroke-linejoin:round;stroke-miterlimit:1.5" /><g
     aria-label="RESET"
     id="text20349"
     style="font-style:italic;font-size:2.82223px;font-family:Menlo;-inkscape-font-specification:'Menlo Italic';text-align:center;text-anchor:middle;fill:#000000;stroke-width:0.211667;stroke-linecap:square;paint-order:fill markers stroke"
     transform="translate(-0.52916667)"><path
       d="m 18.251161,20.722675 q 0.09922,0.01929 0.158475,0.09233 0.06063,0.07304 0.135048,0.31695 l 0.166743,0.562241 h -0.276986 l -0.146073,-0.519522 q -0.06063,-0.214975 -0.136426,-0.282499 -0.07441,-0.06752 -0.225999,-0.06752 H 17.661359 L 17.49186,21.6942 h -0.279742 l 0.398254,-2.057417 h 0.573265 q 0.285255,0 0.440974,0.124024 0.157096,0.122646 0.157096,0.347266 0,0.252182 -0.143316,0.417547 -0.141938,0.165365 -0.38723,0.19706 z m -0.403766,-0.857142 -0.14056,0.730362 h 0.301791 q 0.224621,0 0.358291,-0.117133 0.135048,-0.118512 0.135048,-0.314194 0,-0.154341 -0.08682,-0.225999 -0.08682,-0.07304 -0.27423,-0.07304 z"
       id="path20357"
       style="fill:#000000" /><path
       d="m 19.368753,19.636778 h 1.219568 l -0.04548,0.234267 H 19.60026 l -0.118511,0.609095 h 0.899861 l -0.0441,0.234267 h -0.90124 l -0.143316,0.745521 h 0.967386 l -0.04548,0.234267 h -1.247128 z"
       id="path20359"
       style="fill:#000000" /><path
       d="m 22.174447,19.707058 -0.05374,0.282499 q -0.111621,-0.08131 -0.231511,-0.122646 -0.119889,-0.04134 -0.248047,-0.04134 -0.227377,0 -0.370694,0.112999 -0.143316,0.113 -0.143316,0.288011 0,0.09784 0.06752,0.158475 0.06752,0.06063 0.245292,0.115755 l 0.166743,0.05374 q 0.224621,0.0689 0.327974,0.184658 0.104731,0.114377 0.104731,0.292145 0,0.323839 -0.228755,0.514009 -0.228755,0.188792 -0.624253,0.188792 -0.143317,0 -0.282499,-0.03169 -0.137804,-0.03032 -0.275608,-0.09233 l 0.0565,-0.288011 q 0.135048,0.09508 0.272852,0.140561 0.139182,0.04547 0.293523,0.04547 0.227377,0 0.369315,-0.121268 0.141938,-0.121267 0.141938,-0.307303 0,-0.112999 -0.06063,-0.175011 -0.06063,-0.06201 -0.243914,-0.118512 l -0.139182,-0.04547 q -0.25356,-0.07993 -0.355535,-0.180524 -0.100597,-0.101975 -0.100597,-0.268718 0,-0.304547 0.227377,-0.497473 0.227377,-0.194304 0.593936,-0.194304 0.110243,0 0.234267,0.02756 0.125402,0.02756 0.256316,0.07993 z"
       id="path20361"
       style="fill:#000000" /><path
       d="m 22.767005,19.636778 h 1.219567 l -0.04547,0.234267 H 22.998521 L 22.88001,20.48014 h 0.899861 l -0.0441,0.234267 h -0.90124 l -0.143316,0.745521 H 23.6586 l -0.04547,0.234267 h -1.247128 z"
       id="path20363"
       style="fill:#000000" /><path
       d="m 24.258047,19.636778 h 1.570968 l -0.04548,0.234267 h -0.646301 l -0.352779,1.82315 h -0.281121 l 0.355535,-1.82315 h -0.646302 z"
       id="path20365"
       style="fill:#000000" /></g><g
     aria-label="FDBK POS."
     id="text16104"
     style="font-style:italic;font-size:2.82222px;font-family:Menlo;-inkscape-font-specification:'Menlo Italic';text-align:center;text-anchor:middle;fill:#000000;stroke-width:0.352777;stroke-linecap:square;paint-order:fill markers stroke"><path
       d="m 41.847035,105.37161 h 1.211295 l -0.04547,0.23427 h -0.931553 l -0.118512,0.60634 h 0.843359 l -0.0441,0.23426 h -0.844737 l -0.191547,0.98254 h -0.279741 z"
       style="stroke-width:0.352778;fill:#000000"
       id="path17265" /><path
       d="m 43.464851,107.20027 q 0.254937,0 0.409277,-0.0854 0.15434,-0.0868 0.248047,-0.28112 0.07441,-0.15847 0.121267,-0.37758 0.04823,-0.22049 0.04823,-0.40377 0,-0.24253 -0.112999,-0.34726 -0.112999,-0.10473 -0.37896,-0.10473 h -0.157096 l -0.311437,1.5999 z m 0.361046,-1.82866 q 0.376204,0 0.562239,0.17088 0.187413,0.17088 0.187413,0.51814 0,0.22324 -0.05788,0.46027 -0.05788,0.23702 -0.155718,0.4203 -0.143316,0.2632 -0.35829,0.3762 -0.213595,0.11162 -0.578775,0.11162 h -0.417545 l 0.401008,-2.05741 z"
       style="stroke-width:0.352778;fill:#000000"
       id="path17267" /><path
       d="m 45.22047,106.44648 -0.14745,0.75379 h 0.341754 q 0.253558,0 0.387228,-0.11989 0.135048,-0.11989 0.135048,-0.34589 0,-0.14745 -0.09371,-0.21773 -0.09371,-0.0703 -0.290766,-0.0703 z m 0.162609,-0.84611 -0.121268,0.62012 h 0.336241 q 0.208084,0 0.326595,-0.0992 0.11989,-0.1006 0.11989,-0.27561 0,-0.12954 -0.07717,-0.18741 -0.07579,-0.0579 -0.248046,-0.0579 z m -0.234267,-0.22876 h 0.610471 q 0.279741,0 0.423057,0.11025 0.143316,0.10886 0.143316,0.32108 0,0.21222 -0.126779,0.35553 -0.12678,0.14194 -0.341754,0.1695 0.172255,0.0317 0.263206,0.14056 0.09233,0.10887 0.09233,0.27974 0,0.32246 -0.220486,0.50161 -0.219108,0.17914 -0.620117,0.17914 h -0.622872 z"
       style="stroke-width:0.352778;fill:#000000"
       id="path17269" /><path
       d="m 46.806591,105.37161 h 0.278364 l -0.175011,0.89159 1.022504,-0.89159 h 0.350021 l -0.96876,0.85301 0.5898,1.2044 h -0.30179 l -0.496094,-1.02112 -0.265961,0.23151 -0.15434,0.78961 h -0.279742 z"
       style="stroke-width:0.352778;fill:#000000"
       id="path17271" /><path
       d="m 50.520401,105.60037 -0.150206,0.77308 h 0.322461 q 0.227376,0 0.362423,-0.13092 0.136426,-0.13229 0.136426,-0.3514 0,-0.14882 -0.08544,-0.2191 -0.08544,-0.0717 -0.264583,-0.0717 z m -0.234266,-0.22876 h 0.606336 q 0.283876,0 0.432704,0.12678 0.148828,0.12678 0.148828,0.36656 0,0.34313 -0.220486,0.54019 -0.220486,0.19706 -0.606337,0.19706 h -0.321082 l -0.161231,0.82682 h -0.279741 z"
       style="stroke-width:0.352778;fill:#000000"
       id="path17273" /><path
       d="m 52.205741,107.24299 q 0.117133,0 0.216352,-0.0703 0.09922,-0.0703 0.163986,-0.20119 0.101975,-0.19982 0.165365,-0.4837 0.06339,-0.28387 0.06339,-0.5457 0,-0.19568 -0.07304,-0.28801 -0.07166,-0.0937 -0.223242,-0.0937 -0.117134,0 -0.214974,0.0703 -0.09784,0.0703 -0.162609,0.20119 -0.10473,0.20257 -0.16812,0.48369 -0.06339,0.28112 -0.06339,0.54295 0,0.19706 0.07166,0.29076 0.07304,0.0937 0.22462,0.0937 z m 0.894346,-1.21956 q 0,0.15158 -0.03169,0.32935 -0.03032,0.17776 -0.08957,0.36518 -0.03996,0.12678 -0.08682,0.22737 -0.04548,0.1006 -0.09922,0.1819 -0.121267,0.17501 -0.271473,0.25907 -0.150206,0.0827 -0.350022,0.0827 -0.276985,0 -0.410655,-0.1695 -0.13367,-0.1695 -0.13367,-0.52228 0,-0.15296 0.02894,-0.32797 0.03032,-0.17639 0.08957,-0.3638 0.03996,-0.12678 0.08544,-0.22738 0.04685,-0.1006 0.100597,-0.1819 0.121267,-0.17501 0.271473,-0.25769 0.150206,-0.0841 0.350021,-0.0841 0.278364,0 0.412034,0.1695 0.135047,0.16812 0.135047,0.51952 z"
       style="stroke-width:0.352778;fill:#000000"
       id="path17275" /><path
       d="m 54.793695,105.44189 -0.05374,0.2825 q -0.111621,-0.0813 -0.23151,-0.12264 -0.119889,-0.0413 -0.248047,-0.0413 -0.227376,0 -0.370692,0.11299 -0.143316,0.113 -0.143316,0.28801 0,0.0978 0.06752,0.15848 0.06752,0.0606 0.245291,0.11575 l 0.166742,0.0537 q 0.22462,0.0689 0.327973,0.18465 0.104731,0.11438 0.104731,0.29215 0,0.32384 -0.228754,0.51401 -0.228754,0.18879 -0.624251,0.18879 -0.143316,0 -0.282498,-0.0317 -0.137803,-0.0303 -0.275607,-0.0923 l 0.0565,-0.28801 q 0.135048,0.0951 0.272852,0.14056 0.139182,0.0455 0.293522,0.0455 0.227376,0 0.369314,-0.12127 0.141938,-0.12127 0.141938,-0.3073 0,-0.113 -0.06063,-0.17501 -0.06063,-0.062 -0.243913,-0.11851 l -0.139181,-0.0455 q -0.253559,-0.0799 -0.355534,-0.18052 -0.100597,-0.10198 -0.100597,-0.26872 0,-0.30454 0.227376,-0.49747 0.227377,-0.1943 0.593934,-0.1943 0.110243,0 0.234267,0.0276 0.125401,0.0276 0.256315,0.0799 z"
       style="stroke-width:0.352778;fill:#000000"
       id="path17277" /><path
       d="m 55.502005,106.8723 h 0.48507 l -0.108865,0.55672 h -0.485069 z"
       style="stroke-width:0.352778;fill:#000000"
       id="path17279" /></g></svg>
